<?xml version="1.0" encoding="utf-8"?>
<!-- Generator: Adobe Illustrator 27.0.0, SVG Export Plug-In . SVG Version: 6.00 Build 0)  -->
<svg version="1.1" id="Capa_1" xmlns="http://www.w3.org/2000/svg" xmlns:xlink="http://www.w3.org/1999/xlink" x="0px" y="0px"
	 viewBox="0 0 100 100" style="enable-background:new 0 0 100 100;" xml:space="preserve">
<g>
	<path d="M50.2,14.4c-0.5,0-1,0.1-1.6,0.1v5.9c0.5,0.1,1,0.1,1.5,0.1c0.5,0,1-0.1,1.5-0.1v-6C51.2,14.4,50.7,14.4,50.2,14.4
		L50.2,14.4z"/>
	<path d="M64.3,16L64,15.5c-3.3-4.3-8.4-6.6-13.8-6.6s-10.4,2.4-13.8,6.6L36.1,16h-5.3l0.6,3h4.7l0.3,0.4c3.3,4.2,8.4,6.6,13.8,6.6
		s10.4-2.4,13.8-6.6l0.3-0.4h4.7l0.6-3H64.3z M56.4,21.6c-1.9,0.9-4.1,1.4-6.2,1.4c-4.3,0-8.4-1.8-11.4-5.5c1.5-1.8,3.3-3.2,5.2-4.1
		c1.9-0.9,4.1-1.4,6.2-1.4c4.3,0,8.4,1.8,11.4,5.5C60.1,19.2,58.3,20.6,56.4,21.6z"/>
	<path d="M77.3,4.8h-3l-8,39.3c-1.5,7.7-8.3,13.2-16.1,13.2S35.6,51.7,34,44.1L26,4.8h-3v66.4h9.1v24.2h36V71.2h9.1L77.3,4.8
		L77.3,4.8z M65.1,92.5H35.2V71.3h29.9V92.5z M74.2,68.2H26.1V20.3l5,24.4c1.8,9.1,9.9,15.6,19.1,15.6c9.2,0,17.3-6.6,19.1-15.6
		l5-24.4V68.2z"/>
</g>
</svg>
