<?xml version="1.0" encoding="utf-8"?>
<!-- Generator: Adobe Illustrator 27.0.0, SVG Export Plug-In . SVG Version: 6.00 Build 0)  -->
<svg version="1.1" id="Capa_1" xmlns="http://www.w3.org/2000/svg" xmlns:xlink="http://www.w3.org/1999/xlink" x="0px" y="0px"
	 viewBox="0 0 700 700" style="enable-background:new 0 0 700 700;" xml:space="preserve">
<g>
	<path d="M349.2,101.3c-3.8,0-7.1,0.5-11,0.8v41.1c3.4,0.5,7.1,0.8,10.7,0.8s7.1-0.5,10.7-0.8v-41.6
		C355.9,101.3,352.5,101.3,349.2,101.3L349.2,101.3z"/>
	<path d="M447.1,112.3l-2.2-2.9c-23.3-29.7-58.5-46.2-96.2-46.2s-72.6,17-96.2,46.2l-2.2,2.9h-36.8l4.2,21.2h32.6l2.2,2.9
		c23.3,29.2,58.5,46.2,96.2,46.2s72.6-17,96.2-46.2l2.2-2.9h32.6l4.2-21.2H447.1z M392,151.4c-13.6,6.3-28.4,9.8-43.3,9.8
		c-29.7,0-58.9-12.7-79.2-38.2c10.2-12.7,22.9-22.5,36.5-28.8c13.6-6.3,28.4-9.8,43.3-9.8c29.7,0,58.9,12.7,79.2,38.2
		C417.9,135.2,405.6,144.9,392,151.4z"/>
	<path d="M537.9,34.3h-20.7l-56,274c-10.7,53.4-58.2,92-112.4,92S247,361.6,236.3,308.6L180,34.3h-20.7v463.5h63.6v168.8h251.1
		V497.8h63.6V34.3H537.9z M453.1,645.9H244.4V498.3h208.7V645.9z M516.7,476.6H180.8V142.4l34.8,170.1
		c12.7,63.1,69.2,108.6,133.2,108.6c64.1,0,120.4-45.8,133.2-108.6l34.8-170.1V476.6z"/>
</g>
</svg>
