<?xml version="1.0" encoding="UTF-8"?>
<svg xmlns="http://www.w3.org/2000/svg" version="1.1" viewBox="0 0 512 512">
  <defs>
    <style>
      .cls-1 {
        fill: #e3e3e4;
      }

      .cls-2 {
        fill: #fff;
      }

      .cls-3 {
        fill: #262626;
      }

      .cls-4 {
        fill: #555;
      }

      .cls-5 {
        fill: #d0d0d0;
      }

      .cls-6 {
        fill: #6b6b6b;
      }

      .cls-7 {
        fill: #353535;
      }

      .cls-8 {
        fill: #a4a4a5;
      }

      .cls-9 {
        fill: #949494;
      }

      .cls-10 {
        fill: #b5b5b5;
      }
    </style>
  </defs>
  <!-- Generator: Adobe Illustrator 28.7.1, SVG Export Plug-In . SVG Version: 1.2.0 Build 142)  -->
  <g>
    <g id="Layer_1">
      <g>
        <path class="cls-4" d="M365,318.5c-25.8,24-56.3,38.1-91.5,42.5-4.8.6-9.9.8-15.3.6.6-.6,1.5-.9,2.7-.8,1.4,0,2.3,0,2.7,0,3.7-.4,7.5-.7,11.2-1.1,4.2-.4,7.9-1,11.1-1.8,9.1-2.3,17.7-4.7,25.8-7.2,2.2-.7,4.4-1.6,6.6-2.7.8-.4,4.8-2.3,12.1-5.7,1.7-.8,4.1-2.3,7.1-4.6.7-.5,2.5-1.5,5.4-2.9.5-.2,1-.5,1.5-.9.6-.5,1-.8,1.4-1.1,5.8-4.3,10.1-7.6,12.9-9.9,2.1-1.8,3.4-3.4,5.3-5,1.5-1.2,2.9-2.5,4-3.7,1.3-1.4,3.9-4.4,7.7-8.9,11.8-13.9,21-29.4,27.5-46.4,5.2-14.3,8.4-27.6,9.4-39.7.3-3,.4-11.4.3-25.2,0-4.9-.4-9.5-1-13.8-1.1-7-2-11.5-2.6-13.6-.8-2.7-1.5-5.4-2.2-8.2-.8-3.2-1.6-5.9-2.4-8.1-3.2-8.4-6.8-16.6-11-24.4l-8.9-13.8-10.6-13-11.5-11.8c-2.8-2.4-5.6-4.9-8.4-7.3-3.4-3-7.1-5.7-11.1-8.2-5.8-3.7-9.7-6-11.5-7-7.2-3.7-13.3-6.6-18.4-8.7-1.7-.7-3.4-1.3-5.2-1.6-2.1-.4-3.9-.9-5.4-1.5-2.3-.9-4.9-1.7-7.9-2.3-6.9-1.4-11.1-2.3-12.6-2.7-2-.5-4.3-.8-6.9-.9-1.5,0-3.8-.3-7-.8-2.6-.4-5.4-.5-8.3-.2-4.2.3-7.3.3-11,.3-1.2,0-2.5-.4-3.9,0-1.6.4-2.6.6-2.8.6-1.3,0-2.6,0-3.8,0-1.3,0-2.6,0-3.8.4-3.2.9-5.8,1.5-7.8,1.7-.5,0-1,.1-1.6.2-1.1.1-5.8,1.3-14,3.4-1.2.3-2.9.9-5.1,1.7-1.7.6-3.4,1.2-5.2,1.6-1.1.3-3.4,1.4-7,3.4-4.1,1.3-7.8,3.1-11.1,5.5l-8.4,4.4c-2.1.8-3.3,2.1-3.5,3.7-1.9.6-3.4,1.4-4.7,2.5l-7.8,4.7c1.4-1.3,1.6-2,.5-2,22.3-17.1,47.3-27.7,74.8-31.8,6.6-1,13.2-1.5,19.9-1.5,35.5-.3,67.7,10.1,96.5,31.2,35.7,26,58.7,67,63.4,111,.8,7.7.5,17.7.5,25,0,3.8-.5,8.9-1.6,15.3-5.8,35.7-21.6,66.1-47.5,91.2Z"/>
        <path class="cls-9" d="M362.5,87.5c-3.5.4-6.7-.9-9.5-4,.6.4,1.2.7,1.9.9,0,0,0,0,0,0,0,0,0,0,0,0,0,0,0,0-.1-.1-.3-.1-.5-.2-.5-.4-1.1-3.3-5.6-5.9-9.3-7.6,0,0-.2,0-.2,0,0,0,0,0,0,0,0,.1,0,.2-.2.3-.1,0-.1.3,0,.4,0,0,0,0,0,0l5.5,4.3c-.5,4.1,1.1,5.3,4.4,7,0,0,0,0,0,0l-.2.2s0,0,0,0c0,0,0,0,0,0-2.2-.7-4.1-1.7-5.6-3.1-2.2-2-4.2-4.3-6-6.8-1.3-1.8-2.8-3.4-4.4-4.9-4.2-3.8-9.5-10.2-15.9-10.8-1.1,0-2.2-.2-3.3-.2-2.9-.2-6.4-1.6-9.1-2.4-3.4-1-7.2-1-10.6-1.4-.6,0-2.5-.8-5.8-2.1-3.8-1.6-6.5-2.3-10.4-2.5-6.6-.4-13.1-.4-19.7,0-3.8.2-7.3-.1-11.1-.4-1.3,0-4.1-.1-8.3-.2-4,0-7.8-.4-11.4-1-3.6-.6-6.4-.8-8.5-.6-5,.6-9.1,1.5-12.4,2.6-2.3.8-4.9,2.2-7.8,4.2-9.1,6.4-18.8,11.6-29.4,15.7-3.3,1.3-6.4,2.7-8.7,4.8-3.6,3.2-7.2,6-10.7,9.4-1.6,1.6-4.1,3.9-7.4,6.8-4.5,4-7.3,7.1-8.6,9.1-2.9,4.8-5.1,7.8-6.6,9.1-2.9,2.4-4.7,4.3-5.5,5.5,0,0,0,0,0,0l-.2-.2c0,0,0-.2,0-.3.7-1,1.2-2.2,1.4-3.4,0-.6.3-1.1.7-1.5.2-.2.6-.6,1.3-1.1.9-.7,2-2.1,3.2-4.1,0-.1,0-.2,0-.3l-.2-.2s0,0,0,0c-.9,1.1-1.7,2.2-2.3,3.5-.3.6-.9.5-1.6-.3l4.1-5.7c2.9-.1,3.9-3,4.4-5.6l7-7.8c0,0,.2,0,.3,0l.2.2s0,0,0,.1c-2.3,2.8-3.6,4.4-3.9,4.9-.4.5-.6.9-.6,1.2,0,0,0,.1,0,0l3.3-3.8,24.6-20.9c.3-.2.2-.3-.1-.3-.4,0-.8.2-1,.5-.5.6-.9.9-1.3.9,1.2-1.1,2.8-2,4.7-2.5l3.5-3.7,8.4-4.4c4.1-1,7.8-2.8,11.1-5.5,3.6-2,6-3.1,7-3.4,1.7-.4,3.5-1,5.2-1.6,2.2-.8,3.9-1.4,5.1-1.7,8.3-2.1,12.9-3.3,14-3.4.6,0,1.1-.1,1.6-.2,2-.2,4.6-.8,7.8-1.7,1.2-.3,2.4-.5,3.8-.4,1.2,0,2.5,0,3.8,0,.2,0,1.1-.2,2.8-.6,1.4-.3,2.7,0,3.9,0,3.7,0,6.8,0,11-.3,2.9-.2,5.7-.1,8.3.2,3.2.5,5.5.7,7,.8,2.6.1,4.9.4,6.9.9,1.5.4,5.7,1.3,12.6,2.7,3,.6,5.6,1.4,7.9,2.3,1.5.6,3.3,1.1,5.4,1.5,1.8.4,3.6.9,5.2,1.6,5,2.2,11.2,5.1,18.4,8.7,1.9,1,5.7,3.3,11.5,7,4,2.5,7.7,5.3,11.1,8.2,2.8,2.4,5.6,4.9,8.4,7.3ZM251,49.3c0-.8-2.8-1.1-6.1-.7h0c-3.3.4-5.9,1.3-5.8,2,0,0,0,0,0,0,0,.8,2.8,1.1,6.1.7,0,0,0,0,0,0,3.3-.4,5.9-1.3,5.8-2h0Z"/>
        <ellipse class="cls-6" cx="245" cy="50" rx="6" ry="1.4" transform="translate(-4 26.8) rotate(-6.2)"/>
        <path class="cls-8" d="M350.1,81.3l2.9,2.2c2.8,3,6,4.4,9.5,4l11.5,11.8,1.8,4.6-1-.8c-.3-.2-.3-.2-.2.1,1,2,2.3,4,3.9,6,0,0,0,0,0,0h.3c.2,0,.2-.2.1-.3l-3.2-5c2,2.4,3.6,5,4.7,7.9l1,1.9c.3.7.3.7-.3.2-.3-.3-.6-.7-.8-1.1,0-.2-.1-.2-.1-.2,0,0,0,0,0,.1,1.7,2.9,3.6,5.6,5.7,8.3,1.9,2.5,4.4,4.2,7.6,5.2,4.1,7.8,7.8,16,11,24.4.8,2.2,1.6,4.9,2.4,8.1.7,2.7,1.4,5.5,2.2,8.2.6,2.1,1.5,6.7,2.6,13.6.7,4.3,1,8.9,1,13.8,0,13.8,0,22.2-.3,25.2-1,12.1-4.2,25.4-9.4,39.7-2-3.7-1-6.9-.4-10.6.3-1.8.4-3.7.4-5.8,0-6.3.7-12.3,1.9-17.9,1.1-5.1,1.8-8.7,2-10.9.4-4.1.7-7.8.9-11.1.4-5.8.3-10.9-.4-15.1-.3-2-1.3-4.8-3.1-8.3-1.3-2.6-2.4-5.4-3.4-8.2-.9-2.8-2.1-6-3.5-9.7-.7-1.8-1.1-3.4-1.3-4.9-1.1-8.3-3.1-15.3-8.4-22.1-1.3-1.7-2.3-3.2-3.1-4.4-1.4-2.3-3.8-6.9-5.8-9.5-1.4-1.8-2.7-3.4-3.9-4.7-2.2-2.4-2.4-4.4-.6-5.9.3-.2.3-.5.1-.8l-.7-1.1c-.2-.3-.3-.7-.3-1.1.5-4.3-3.6-7.2-7-9.6-2.8-2-5.2-4.5-7.3-7.3,3.2,3,6.8,5.6,10.6,7.8.6.4,1.8,1.6,3.5,3.6.1.2.2.1.4,0l.2-.2s0,0,0-.1c-1.5-2.3-3.1-4.1-4.9-5.5-3.5-2.8-7.6-5.2-12.3-7.3,3.6,3.6,6.5,7.4,8.6,11.5,0,0,0,.2,0,.2,0,0,0,0-.1,0-3.1-1.9-6-4.1-8.7-6.5-4.1-3.6-6.4-5.6-7.1-6.2-3.4-2.7-7-6.5-10.9-8.5-7.1-3.6-13.8-7.3-20-11-.9-.5-2-1-3.4-1.4-5.5-1.4-10.4-2.6-14.8-3.6-4.3-.9-7.1-2.4-10.5-4.5-1.4-.8-3.1-1.3-5.3-1.5-7.7-.7-14.1-.9-19.3-.9-2.3,0-4.8,0-7.3-.3-3.7-.4-6.1-.5-7.3-.3-6.2.9-11.5,1.5-16.1,2-2.9.3-7.6.4-13.8.4-3.7,0-7.1.8-10.3,2.4-9.1,4.8-16.3,8.7-21.8,11.8-1.5.8-3.2,1.6-5.1,2.4-5.1,2-8.3,3.4-12.3,6.4-2.7,2.1-5.8,4-9.2,5.8-1.7.9-4.5,2.9-5.5,4.2-4.3,5.6-7.1,9.2-8.4,10.6-1.6,1.7-3,3.9-4.3,6.5-1.2,2.4-3.2,5.4-6,8.8-3.4,4.2-5.1,6.4-5.2,6.4-2.7,4-4.4,7-5.2,9-1.7,4.1-3,7.4-3.9,9.7-1.2,2.9-1.4,5.9-.7,9,0,.3.2.4.5.1,1.2-1.3,3.4-3.9,6.7-8,2.6-3.2,5.9-5,9.8-5.3.7,0,1.2.4,1.3,1.1,0,.2,0,.4,0,.6-1.7,3.9-4.2,7-7.5,9.3-2.9,2.1-4.3,3.2-4.1,6.7.2,2.6.4,5.1.5,7.4-1.9,3.1-4.2,4.8-6.9,5.2,3.3-4.6,3-9.2,1.5-14.4-.1-.5-.7-.8-1.2-.7-.1,0-.3.1-.4.2-.5.4-.6,1-.3,1.6.1.3.1.6,0,.9l-4.6,6.2c-.1.2-.3.2-.4,0-1.8-1.2-2.8-2.7-2.8-4.4,0-2.7.7-6.1,2.1-10.5,1-3.2,3.4-7.1,5.2-10.9,2.4-5.1,3.6-10.4,3.8-16l3.1-8.2.4-.5c.7.8,1.2.9,1.6.3.7-1.2,1.5-2.4,2.3-3.5,0,0,0,0,0,0l.2.2c0,0,0,.2,0,.3-1.3,2.1-2.4,3.4-3.2,4.1-.7.5-1.1.9-1.3,1.1-.3.4-.6.9-.7,1.5-.2,1.2-.6,2.4-1.4,3.4,0,0,0,.2,0,.3l.2.2s0,0,0,0c.8-1.2,2.7-3.1,5.5-5.5,1.5-1.3,3.7-4.3,6.6-9.1,1.3-2.1,4.1-5.1,8.6-9.1,3.3-3,5.8-5.3,7.4-6.8,3.4-3.4,7.1-6.1,10.7-9.4,2.3-2.1,5.4-3.5,8.7-4.8,10.6-4.1,20.2-9.3,29.4-15.7,2.9-2,5.5-3.4,7.8-4.2,3.3-1.1,7.4-2,12.4-2.6,2-.2,4.9,0,8.5.6,3.6.6,7.4,1,11.4,1,4.2,0,7,.1,8.3.2,3.7.2,7.2.5,11.1.4,6.6-.3,13.1-.3,19.7,0,3.9.2,6.6,1,10.4,2.5,3.3,1.4,5.2,2.1,5.8,2.1,3.5.4,7.2.3,10.6,1.4,2.6.8,6.2,2.2,9.1,2.4,1.1,0,2.2.2,3.3.2,6.3.6,11.6,7,15.9,10.8,1.7,1.5,3.2,3.2,4.4,4.9,1.8,2.5,3.8,4.7,6,6.8,1.5,1.4,3.4,2.4,5.6,3.1,0,0,0,0,0,0,0,0,0,0,0,0l.2-.2s0,0,0,0c-3.3-1.7-4.9-2.9-4.4-7Z"/>
        <path class="cls-10" d="M356.8,88.3l2.5,1.7c2,2.9,4.5,5.3,7.3,7.3,3.4,2.4,7.5,5.3,7,9.6,0,.4,0,.8.3,1.1l.7,1.1c.2.3.2.5-.1.8-1.8,1.5-1.6,3.5.6,5.9,1.2,1.3,2.5,2.8,3.9,4.7,2,2.6,4.4,7.2,5.8,9.5.8,1.3,1.8,2.7,3.1,4.4,5.3,6.8,7.4,13.8,8.4,22.1.2,1.5.6,3.1,1.3,4.9,1.4,3.7,2.5,6.9,3.5,9.7.9,2.8,2.1,5.5,3.4,8.2,1.7,3.5,2.8,6.3,3.1,8.3.6,4.3.8,9.3.4,15.1-.2,3.2-.5,6.9-.9,11.1-.2,2.2-.9,5.8-2,10.9-1.2,5.6-1.9,11.6-1.9,17.9,0,2.1-.2,4-.4,5.8-.5,3.7-1.6,6.9.4,10.6-6.5,17-15.6,32.5-27.5,46.4-3.9,4.5-6.4,7.5-7.7,8.9-1.1,1.2-2.4,2.4-4,3.7-1.9,1.5-3.2,3.2-5.3,5-2.7,2.3-7,5.6-12.9,9.9-.4.3-.8.6-1.4,1.1-.5.4-1,.7-1.5.9-2.9,1.4-4.8,2.4-5.4,2.9-3,2.3-5.4,3.8-7.1,4.6-7.2,3.4-11.3,5.3-12.1,5.7-2.2,1.1-4.3,2-6.6,2.7-8.1,2.5-16.7,4.9-25.8,7.2-3.2.8-6.9,1.4-11.1,1.8-3.7.4-7.5.7-11.2,1.1-.4,0-1.3,0-2.7,0-1.2,0-2.2.2-2.7.8l-8.4.2c.3-.2.5-.3.5-.4-.1-.5-.6-.9-1.1-.9-11.4-.2-22.3-1.7-32.8-4.7,0,0-1.8-.5-5.3-1.4-2.6-.7-4.6-1.3-5.7-1.9-1.4-.6-3.2-.5-4.3-1.4-.8-.6-1.8-1.1-2.9-1.4-2-.5-3.7-1.1-5.1-1.8-5.7-2.8-11.6-5.8-17.4-8.9-2.3-1.2-3.9-2.3-5-3.3-.5-.5-.4-.6.2-.5,1.5.4,2.8.8,3.8,1.5,1,.6,1.3.3,1-.8-.4-1.5.1-2.5,1.5-3,.4-.1.4-.4.2-.7l-2.2-3.8c-.3-.5-.1-1.1.4-1.4,0,0,0,0,0,0,2.1-1,4-1.7,5.6-2.4.2,0,.2-.1,0-.2-.1,0-.2,0-.2,0-1.4.3-2.4.7-3.2,1.1-.2.1-.3.2-.3.2-.2,0-.2,0,0-.3l.2-.2c.2-.2.2-.2,0-.2l-1.9.7h-1.2c1.6-.6,5.3-1.6,11-2.9,1.9-.5,3.6-1.6,5.1-3.5.2.3.4.6.4.9,0,.4,0,.7-.3,1,0,0,0,0,0,0,.7-.6,1.3-1.1,1.8-1.9.2-.3.2-.5-.1-.7-.6-.5-1.5-.7-2.5-.7-.3-.8-.4-1.5-.3-2.1,0-.3.2-.5.4-.6l2.4-1.6c.2-.1.2-.4.1-.6,0,0,0,0-.1-.1l-4.1-2.3c-1.5-.9-1.4-1.5.3-1.9l9.3-2.3c.2,0,.3-.2.3-.4l-.7-4.2c0-.4,0-.6.5-.7.7-.2,1.5,0,2.2.5.7.3,1.4.6,2.1,1,.6.3,1.1.8,1.6,1.5,1.8,2.5,4,4.7,6.6,6.6l2,2.5c-.2,1.4-.4,2.8-.7,4.3-.4,1.9-.5,3.3-.4,4.3.4,2.6,1.7,4.8,4,6.4,3.2,2.2,7.1,4.9,10.7,4.2,3.8-.8,7.5-.8,11.4,0,1.1.2,2.3-.4,2.6-1.5.4-1.4,1.5-2.4,3.4-3,.3,0,.4-.3.5-.6l.3-3c0-.7-.2-1.1-.8-1.5l-3.2-1.9c-.2-.1-.3-.4-.2-.7,0,0,.1-.2.2-.2l5.2-2.1c1.4-.5,1.4-1.1,0-1.8-3.3-1.5-6.9-1.7-11-.7l-5.8-4.4c-.8-.6-1-1.8-.3-2.6,0,0,0-.1.2-.2l4.8-4.9c.3-.3.8-.3,1.1,0,0,0,0,0,.1.1,1.9,2.9,4.9,2.3,7.9,2.1.7,1.3,1.6,2.3,2.7,3.1.4.3.5.2.3-.2v-.3c-.3-.5-.2-.6.3-.4,3.8,1.6,7.7,2.6,11.5,3,.9.1,1.7,0,2.3-.4.1,0,.2,0,.2.1,0,.1,0,.2,0,.3,0,.1,0,.2,0,.3,0,0,0,0,0,0l-11.7-.9c-.2,0-.2,0-.2,0v.2c0,0,0,.1,0,.1,4.2,1.5,8.3,1.6,12.4.2.3,0,.4-.2.2-.4l-.9-1.3c-.3-.4-.2-.7.3-.9,1.3-.4,1.6-1.4,1-3-.2-.6,0-1.2.7-1.4.2,0,.4,0,.7,0l8.9,2c.3,0,.6,0,.9-.3,2.9-3.8,6.2-6.9,9.9-9.4,0,1.4,1.4,2.8,4.3,4-.2,1.1-.6,2-1.1,2.7-.5.6-1.3,1-2.4,1.2-2.4.3-4.5,1-6.3,2.1-.3.2-.4.4-.2.7,0,.2.2.2.5.2,1.7-.4,3.3-.6,4.8-.6,0,0,.1,0,.2.2,0,.1,0,.2-.1.2-3.8.9-7.4,2.3-10.9,4.1-2.5,0-4.9-.4-7.2-1.3-.8-.5-1.5-.8-2.3-.8-.5,0-.6.2-.3.5l2.1,3.1c.3.4.2.7-.3.9l-2.8.9c-.7.2-1.1.6-1.2,1.3l-1.2,5.3c0,.4.2.8.6.9.2,0,.4,0,.5,0l9.2-5.3c.6-.4,1.4-.1,1.8.5,0,.2.1.3.2.5l.6,4.8-2.7,1.9c-.3.2-.6.3-.9.2-1-.2-1.9-.2-2.7,0-.4.1-.6.4-.7.8v.4c0,.2.1.5.4.5,0,0,0,0,0,0l6.8.6c.1,0,.3.1.2.3,0,0,0,.1,0,.2-.3.3-.8.5-1.7.6-3.2-.6-6,0-8.4,2-.3.2-.5.3-.9.3-3,.1-5.5-.8-7.5-2.8-.1-.1-.1-.3,0-.4,0-.1.2-.2.3-.3,0,0,.2,0,.3,0,.6,0,1,0,1.2,0,.3-.2.3-.4,0-.7-.8-.8-1.6-2-2.3-3.5-.2-.4-.4-.4-.7,0-1.7,2-2.8,4.6-3.4,7.9,0,.4,0,.7.4.9l2.4,1.7c.1.1.2.3,0,.5,0,0,0,0-.1.1l-7.5,3.2c-.5.2-.8.9-.6,1.4,0,0,0,0,0,.1l.6,1.1c.2.4.7.5,1,.3,2.6-1.4,4.9-2.2,6.9-2.6.7-.1.8,0,.2.5-.2.2-1,.6-2.2,1.1-.3.1-.4.4-.4.7,0,.4.4.6.8.7,1,.1,2,.3,3.1.5.3,0,.5.2.5.6,0,.6,0,1.1-.2,1.5-.2.3-.4.5-.8.5h-8.3c-.3,0-.4.2-.3.5l1.4,4.6c0,.3.3.6.5.7,1.7,1.1,3.9,1.4,6.3.7,4-1.1,8.3-3.1,12.5-2.7,4,.4,5.7,1,8.5,0,1.5-.5,2.4-.7,2.7-.7,9.5,0,15.5-.2,18.1-.7,4.9-1,9.8-1.9,14.7-2.7,1.2-.2,3.3-1.2,6.5-3.2.9-.5,4.8-1.7,11.8-3.6,5.7-1.5,9-4.1,12.9-8.3,1.2-1.3,2.6-2.6,4.3-4,5.6-4.6,10.9-8.4,15.4-13.4,7.1-7.8,13.6-15.6,19.3-23.4,2.7-3.6,3.2-7.3,1.6-11.1l-7.5-8.2c3.9,2.3,7.3,5.2,10.3,8.5,1.4,1.5,3.1,2.6,4.9,3.3.3.1.7,0,.8-.3,0,0,0-.1,0-.2l1.3-13.5-.8,12.6c0,1-.9,1.8-1.9,1.8h-1.3c-.6,0-.6,0,0,.2.9.2,1.8.4,2.7.4.4,0,.7-.3.7-.6,1.3-11,2-22,2.3-33,.3-2.4.6-4.9.7-7.3h0c0,1.2,0,2.5-.1,3.7,0,0,0,0,0,0h0s0,0,0,0l2-14.6c-.5,5.3-.9,10.5-1.3,15.8,0,.8,0,2,.2,3.5.2,1.2.2,2.4,0,3.6-.5,3-.8,4.6-.8,4.7-.1,1.9-.2,3.8-.2,5.8,0,.3.1.4.4.4.2,0,.3,0,.5-.2,0,0,.1-.2.2-.4,1.2-4.5,2.6-9,4.3-13.4.7-1.8,1.2-3.7,1.6-5.9.6-3.3,1.4-6.9,2.4-10.8,2-8.1,3-15.7,4.2-24.4.6-4.2.7-8.4.9-12.7,0-.2-.2-.5-.4-.5h-.3c-.1,0-.3,0-.3.1,0,0,0,0,0,0-.3,1.8-.6,3.6-1,5.4-.3,1.4-1,2.2-2.1,2.2l-.2-12.6c-2-6.2-5.2-11.8-9-17.1-1.3-1.7-2-3.1-2.3-4.2-1.1-4-.4-5.3.7-9.1,1.5-5.3-1.7-12.6-4.3-16.7-1.6-2.5-5.6-6.4-6.3-9.6-.4-1.7-.4-3.5-.1-5.6,0-.3,0-.6-.3-.8-1-.8-2-1.4-3.1-1.7-.3-.1-.6-.3-.7-.7-1-3-1.9-5-2.8-5.9-1-1-1.9-1.9-2.8-3-.3-.3-.6-.3-.8,0l-.3.5c-.2.3-.4.3-.6,0l-2.2-3.3c0-.1-.2-.2-.4-.2,0,0-.2,0-.3,0-.1,0-.2-.1-.4-.3-.5-.6-1.1-.8-1.9-.6-.3.1-.5.5-.4.8,0,.1,0,.2.2.3,1,.9,2.1,1.7,3.3,2.4.1,0,.2.2.3.3,0,.1,0,.2,0,.3-.1.3-.3.4-.6.3-4.6-1.6-6.7-4.8-6.5-9.8,0-.3-.1-.5-.5-.6-.7,0-1.2-.4-1.6-.9.2,0,.3-.1.4-.2-.1,0-.3.1-.4.2-.6-8.2-6.1-14.2-13.3-17.6-4-1.9-7.8-4.2-11.4-6.8-3.6-2.6-9.8-6-18.4-10.1-2.5-1.2-4.7-2.5-7.4-2.9-1.6-.2-4.9-.6-9.9-1-2.3-.2-6.4-1.4-12-3.5-2.8-1-5.8-.8-8.9.6-.4.2-1.1.2-2,.2-.7,0-1.3-.3-1.8-.6-2.3-1.5-4.5-2.5-6.7-2.8-.4,0-.6,0-.9.3-.3.4-.3.8,0,1.2.3.4.8.8,1.5,1,5.6,2.3,10.5,4.3,14.7,6.1.2,0,.3.2.2.4v.5c0,.2-.2.3-.4.3-6-1.4-11.8-1.9-17,1.7-.9.6-.8,1,.3,1.1l8,1.1c.5,0,.8.5.8,1v2.8c0,.4-.2.6-.7.6-4.1-.6-7.3-2.5-11-5-1.1-.7-2.4-1.5-3.9-2.2-3.5-1.7-7-3.6-10.4-5.8,1.8-.4,3.7-.6,5.6-.6.5,0,1.1-.2,1.7-.8.3-.2.2-.4-.1-.5l-2.4-.3c-2.6-2-5.2-2.9-7.9-2.7-9,.8-18.9,1.6-29.8,2.4-.3,0-.6.2-.8.4-1.1,1.2-2.3,2.5-3.6,3.1-2.3,1.1-4.5,2.4-6.5,3.8-1.6,1.1-3.8,2.2-6.6,3.5-7,3-12,5.3-15,6.7-4,1.9-8,3.1-12.6,4.8-2.1.8-4.7,2.4-7.7,4.7-.6,0-1,.4-1.1.9-4.6,2.8-7.2,6.9-10.1,11.5-3.8,6.2-7.3,11.8-6.6,17.7.2,1.4.5,2.4,1.1,3.3.4.6,1.3.9,2,.5l3.1-1.5-4.9,15.6c-.1-1.2-.2-2.1-.4-2.5-.7-1.9-1.3-1.9-2,0-.5,1.6-1,3.3-1.6,5.2-.9,3.4-3.6,6.6-5.9,10-2.8,4.2-4.8,8.6-5.9,13.3-.1-2.4-.3-4.8-.5-7.4-.3-3.4,1.2-4.6,4.1-6.7,3.3-2.4,5.8-5.5,7.5-9.3.3-.6,0-1.3-.6-1.6-.2,0-.4-.1-.6,0-3.9.3-7.2,2.1-9.8,5.3-3.3,4.1-5.5,6.7-6.7,8-.2.3-.4.2-.5-.1-.7-3-.5-6,.7-9,.9-2.3,2.2-5.5,3.9-9.7.8-2.1,2.6-5.1,5.2-9,0,0,1.7-2.2,5.2-6.4,2.8-3.5,4.8-6.4,6-8.8,1.3-2.7,2.8-4.8,4.3-6.5,1.3-1.4,4.1-5,8.4-10.6,1-1.3,3.8-3.3,5.5-4.2,3.5-1.8,6.5-3.7,9.2-5.8,4-3,7.3-4.4,12.3-6.4,1.9-.8,3.6-1.6,5.1-2.4,5.5-3.1,12.8-7,21.8-11.8,3.1-1.7,6.6-2.5,10.3-2.4,6.3,0,10.9,0,13.8-.4,4.6-.5,10-1.2,16.1-2,1.2-.2,3.6,0,7.3.3,2.5.3,4.9.4,7.3.3,5.1,0,11.6.2,19.3.9,2.1.2,3.9.7,5.3,1.5,3.4,2,6.3,3.5,10.5,4.5,4.4,1,9.4,2.2,14.8,3.6,1.4.4,2.5.8,3.4,1.4,6.2,3.7,12.9,7.4,20,11,3.9,2,7.5,5.8,10.9,8.5.7.5,3,2.6,7.1,6.2,2.7,2.4,5.6,4.6,8.7,6.5,0,0,.1,0,.2,0,0,0,0,0,0-.1-2.2-4.1-5.1-7.9-8.6-11.5ZM360.5,102.4c.4.9.8,1.3,1.2,1.3.4,0,.6-.2.4-.6-.3-.9-.6-1.3-1-1.4-.7-.1-1,.1-.7.7ZM132.7,137.4c0-.2-.2-.4-.4-.4s-.4.2-.4.4.2.4.4.4.4-.2.4-.4ZM242.4,309.2c.1,1.1.5,1.7,1.1,1.8.4,0,.6,0,.7-.4.2-.5,0-.9-.5-1.3-.3-.3-.7-.4-1-.4-.2,0-.3.1-.3.4ZM238.8,347.1h3.4c.1,0,.2,0,.3-.1,0,0,0-.1.1-.2,0-.2,0-.4-.2-.5-.5-.3-.8-.6-.8-.8-.1-.5-.3-.8-.3-.9-1.7-2.8-5.3-5.7-5.7-7.6,0-.3-.3-.5-.6-.6-1.8-.3-3.8-1.1-5.9-2.3-.3-.2-.6-.2-.9,0-3.5,1.5-6.3,2-8.4,1.6-2.6-.6-5.3-1.2-8-2-.2,0-.3-.2-.3-.5v-.4c0-.4.3-.6.7-.5l7.6.7c.6,0,.6,0,.1-.4l-4.8-3.3c-2.7-1.5-4.9-3.5-6.8-6.1-.5-1.5-1.4-2-2.5-1.4-1.3-.9-2.7-1.4-4-1.3-.3,0-.4.2-.4.5,0,.4,0,.7-.2,1,0,0-.3.4-.8,1-.8.9-1.6,1-2.6.3-.3-.2-.6-.2-.8,0-1.3.7-2.6,1.2-4.1,1.5-.3,0-.6,0-.9-.2-.5-.4-.8-.7-.8-.8-.2-1.4-1.1-1.6-2.5-.6l-5.4,3.8c-.4.3-.6.9-.4,1.3,0,.1.2.2.3.3.2,0,.2.2,0,.5-.2.3-.2.5-.2.8.1,1.3.5,2.2,1.1,2.8,2.8,2.4,4.7,4,5.6,7.2.4,1.4.9,2,2.2,2.6,2.5,1.1,5.1,1.9,7.6,2.4,9.5,1.8,16.4,3.2,20.8,4.4.4.1.6,0,.4-.5,0-.2-.2-.4-.4-.5-.3-.2-.3-.4,0-.6l.9-.5c.3-.2.7-.2,1-.1,6.1,1.5,10.9,2.8,16.5.4ZM256.2,327.9c.9,0,1.4-.2,1.6-.9,0-.3,0-.6-.3-.8-.2-.1-.5-.2-1.1-.2-.5,0-.9,0-1.1,0-.3.1-.5.4-.4.7,0,.7.5,1.1,1.4,1.2ZM189.7,344c0-.1-.1-.3-.3-.3,0,0,0,0,0,0-.2,0-.4,0-.4.1h0c0,.1.1.3.3.3,0,0,0,0,0,0,.2,0,.4,0,.4-.1h0Z"/>
        <path class="cls-5" d="M252.6,62l-5.8-1.4c-.3,0-.5,0-.6.3-1.7,3.6-4.4,3.3-7.9,2.2-2.4-.8-4.7-1.2-7-1.2-.7,0-2.8.4-6.1,1.1-3.1.7-6.2.6-9.3-.1-.4,0-.6,0-.7.4-.8,2.5-2.4,4.8-4.7,6.9-.3.3-.3.4.1.5,6,1.3,10.4,1.6,13.2,1.1,6.3-1.1,11.1-1.7,14.2-1.8.3,0,.5-.2.4-.5-.2-.8-.7-1.4-1.4-2-.3-.2-.3-.5,0-.6,1.1-.6,1.8-.8,2.2-.7,3.9,1.2,6.8.5,8.7-2.1,3.4,2.2,6.8,4.1,10.4,5.8,1.6.7,2.9,1.5,3.9,2.2,3.6,2.6,6.8,4.4,11,5,.5,0,.7-.1.7-.6v-2.8c0-.5-.4-.9-.8-1l-8-1.1c-1.1-.1-1.2-.5-.3-1.1,5.2-3.6,11-3.1,17-1.7.2,0,.3,0,.4-.3v-.5c0-.2,0-.3-.2-.4-4.2-1.8-9.1-3.8-14.7-6.1-.7-.3-1.2-.6-1.5-1-.3-.4-.3-.8,0-1.2.2-.3.5-.4.9-.3,2.2.4,4.4,1.3,6.7,2.8.6.4,1.2.6,1.8.6.9,0,1.6,0,2-.2,3.1-1.4,6-1.6,8.9-.6,5.7,2.1,9.7,3.3,12,3.5,5,.4,8.3.8,9.9,1,2.7.4,5,1.7,7.4,2.9,8.7,4.1,14.8,7.5,18.4,10.1,3.6,2.6,7.4,4.9,11.4,6.8,7.2,3.4,12.7,9.4,13.3,17.6.3.5.8.8,1.6.9.3,0,.5.2.5.6-.2,5,2,8.3,6.5,9.8.3,0,.5,0,.6-.3,0-.1,0-.2,0-.3,0-.1-.1-.2-.3-.3-1.2-.7-2.3-1.5-3.3-2.4-.3-.2-.3-.6,0-.9,0,0,.2-.1.3-.2.8-.2,1.4,0,1.9.6.1.2.3.3.4.3,0,0,.2,0,.3,0,.2,0,.3,0,.4.2l2.2,3.3c.2.3.4.3.6,0l.3-.5c.2-.4.5-.4.8,0,.9,1,1.8,2,2.8,3,.9.9,1.8,2.8,2.8,5.9.1.3.3.6.7.7,1.1.3,2.1.9,3.1,1.7.2.2.3.4.3.8-.3,2.1-.2,3.9.1,5.6.7,3.2,4.7,7.2,6.3,9.6,2.6,4,5.9,11.3,4.3,16.7-1.1,3.9-1.8,5.1-.7,9.1.3,1.1,1.1,2.5,2.3,4.2,3.8,5.3,7.1,10.9,9,17.1-2.9-5-4.7-8.1-5.4-9.4-1.5-2.9-4-5.1-6.8-2-.2.2-.5.3-.8.3-3.3-.5-5.4-.6-7.9-2.1-3.9-2.3-9.3-3-11.4,1.8-.1.3-.3.3-.5,0,0,0-.1-.2-.2-.2-.2-.4-.4-.3-.5.2-.1,1.3,0,2.5.6,3.6.1.3.3.4.6.2,1.4-.8,1.9-1.9,1.6-3.3-.1-.4,0-.6.4-.5h1.5c0,.1-.7.2-.7.2-.3,0-.5.2-.5.5-.4,3.9-.6,7.8-.6,11.8,0,6.3,0,9.5,0,9.6-.1,8.6-.3,17.3-.4,25.9l-.4-16.1c0-1.5-.7-1.9-2.1-1.2l-4.8,2.8c-1.3.8-2,1.9-1.9,3.4v4.4c.1,0-7.3-7.5-7.3-7.5-1.4-2-3.2-4.2-5.4-6.4-.2-.2-.2-.4,0-.6.2-.3.5-.4.8-.2,3.5,2.2,7.2,4.6,11,4.4,2.4-.2,4.8-.8,7.2-1.9.5-.2.8-.7.8-1.2.3-6.5.3-12.3.2-17.5,0-2.3-.8-5.2-2.2-8.9v-2.5c3.1-3.2,6.7-5.2,10.9-6.2.5-.1.8-.6.7-1,0-.2-.1-.4-.3-.5-.4-.3-.5-.7-.4-1.3.1-.7.4-.8.8-.1,2.6,4.2,5.9,7.2,10.2,9,.4.2.8,0,1-.4,0-.2,0-.4,0-.5-1.6-4.7-2.7-8.6-3.4-11.9-.5-2.1-1.1-3.8-2-5-1.2-1.7-2.5-3-3.7-4.2-1-.9-1.8-3.1-2.5-6.7,1.4,2.6,2.8,4.2,4,5,.8.5,1.8.5,3.1,0,.3-.1.5-.4.4-.7-.2-3.1-1.1-6.2-2.5-9.2-.2-.3-.4-.5-.8-.5-1.1,0-2.1.4-3,.8-.3.2-.5.4-.5.8l-.6,3.6c.9-5.2.7-10-3.8-13.3l-7-9.1c0,0-.1-.2-.2-.2-.2-.1-.3,0-.5,0,0,0,0,0,0,.2l3.1,6.8c0,.1,0,.2-.2.3,0,0-.2,0-.3,0-.2,0-.3,0-.4-.2l-3.6-5.4c0,0-.1-.2-.2-.2-1.1-.5-2.4-.9-3.8-1-.3,0-.6-.2-.7-.5l-1.2-2.2-1.4-6.2-1.2-4.3,1.5.4c.2,0,.4,0,.6-.2,0-.1.1-.3.1-.5,0-.2,0-.4-.2-.5l-3.3-3.2c-.2-.6-.4-1.1-.7-1.5-1.5-4-3.4-7.7-5.7-11.1l-2.6-3.7c-.2-.3-.4-.5-.7-.6-.4-.2-.7-.5-1-1l-2.3-2.6c0-.4-.2-.7-.4-.8-.5-.1-.6,0-.3.4,0,0,.2.2.3.3-1.2-.8-2.2-1.6-3.2-2.4-.7-.6-1.3-1-1.9-1.3-1.7-.9-3.3-2-5.1-2.6-2.4-.8-4.7-1.6-7.1-2.1-1.9-2.6-4.6-3.8-8.1-3.9-3.4,0-6.7.4-10,1.1-3.6.8-6.7.3-9.4-1.6-2.2-1.6-3.6-2.5-4.1-2.8-2.9-1.5-5.8-2.9-8.8-4.3-.3-.1-.6,0-.8.2,0,.1-.1.2-.2.4,0,.2,0,.5.3.7,2.4,3.2,4.9,5.9,7.4,8.1.2.2.4.3.6.2.2,0,.4,0,.6.2s.2.4,0,.9c-1,2.9-1.8,4.6-2.3,5.3-2.4,2.7-4.9,3.1-7.4,1.5-1.7-1.1-2.1-.7-1.1,1.2.8,1.7,1.6,3.8,2.5,6.3.1.5,0,.7-.5.8l-2.6.2c-.2,0-.4,0-.5-.3l-2.7-6.2c-.2-.5-.6-.8-1-.9-.7-.2-1.2-.2-1.4-.2-2,.4-2.1,1.1-.4,2.2,0,0,.5,0,1.5.2.3,0,.5.2.5.6-.1,2.5,1.1,4.4,1.4,6.7.2,1.1.1,2-.1,2.7-1,2.9-1.6,5.4-1.9,7.4-.3,2.1.4,3.7,2.2,5l-1.6,5.7-.8.5c-2.6-1.8-4.1-4-4.5-6.4-.8-4-1.7-6.6-2.8-7.9-.2-.3-.2-.5,0-.8l1.2-1.6c.2-.3.2-.6,0-.8-.2-.2-.3-.5-.4-.7,0-.3,0-.5.3-.7l4.6-2.7c.3-.2.4-.5.3-.8-.1-.3-.3-.6-.6-.9-.2-.2-.5-.3-.9-.3-4.7.3-8.7-.5-11.9-2.5-.8-.5-1.8-.6-2.7-.4l-5.1,1.5c-4.8-1.7-9.7-2.7-14.6-2.9-3.4-.2-7.6-.2-12.8-.2l-13.3.2c-1.3,0-1.4-.3-.2-.9.5-.3,1.4-.5,2.6-.7,6.1-1,11.4-1.8,16-2.2,1,0,1.7-.9,1.6-1.9-.3-5.7-2.7-9.5-8.9-9.4-3.9,0-6.8.7-8.8,1.9-4,2.4-6.4,3.9-7.2,4.4-3.9,2.4-11.2.3-15,4.9-6.4,7.9-13.9,13.8-22.3,17.9l-1.1-2.1c5.1-1.8,7.4-6.8,9.3-11.3,1.7-4.1,3.7-7.4,5.9-10.1,0,0,0,0,0-.1l-.2-.2s0,0,0,0l-6.8,4.6c-.3.2-.4.6-.3,1,1.9,4.7-3.5,12-6.9,15.6,0,0,0,0-.1,0-.6-.4-1-.8-1.2-1.4,0-.2,0-.3.1-.4,4-2.6,5.8-6,5.4-10.2,0-.2,0-.2.2,0,.1,0,.2.1.2,0,.6-.5.5-.8,0-1-4.3-1.3-7.9,0-10.8,4.2l-2.1-3.1c3-2.4,5.5-3.9,7.7-4.7,4.6-1.7,8.5-2.9,12.6-4.8,3-1.4,8-3.7,15-6.7,2.9-1.2,5.1-2.4,6.6-3.5,2-1.4,4.2-2.6,6.5-3.8,1.3-.6,2.6-1.9,3.6-3.1.2-.2.5-.4.8-.4,10.9-.8,20.9-1.6,29.8-2.4,2.7-.2,5.4.6,7.9,2.7ZM253.4,70.6c-1.2.2-2.8.1-4.8-.2-.2,0-.3,0-.3.2v.4c0,.2,0,.2.2.3,3.1.6,5.5,1.4,7.2,2.5.4.3,1.1,1,1.9,2.3.2.2.4.3.6.3.1,0,.2,0,.3,0,.3-.1.4-.3.4-.7l-.2-2.2c0-.4-.2-.7-.6-.9l-2.8-1.6c-.6-.4-1.3-.5-2-.3ZM352.4,97.2c.4.4.8.7,1,.8.4.2.6.1.7-.2,0-.2,0-.4,0-.6,0-.2-.2-.3-.5-.5-.2-.1-.4-.3-.6-.5-.4-.5-.7-.7-1-.8-.4-.2-.6-.1-.7.2,0,.2,0,.4,0,.6,0,.2.2.3.5.5.2.1.4.3.6.5ZM376.9,130.6c.5.3,1.1,1,1.9,2.3.3.4.3.4.3-.1l-.8-4.6c0-.3-.2-.5-.6-.5-.3,0-.7-.2-.9-.5-.5-.5-1-.9-1.5-1-.4,0-.6,0-.6.4v1.8c0,.6-.2.7-.7.4l-2.5-1.8c0,0-.1-.2-.1-.2,0,0,0-.2,0-.3,0-.1.1-.2.3-.1l2,.4c.2,0,.4,0,.5-.3,0-.2.4-.3.8-.5.3,0,.4-.3.4-.6,0-1.7-.5-3.1-1.1-4.1-.2-.3-.4-.4-.7-.4-3-.1-4.5-1.8-6.9-3.6-.4-.3-.5-.2-.4.3,1.4,6,4.5,11,9.3,14.9.8.6,1,.5.6-.4,0-.1,0-.4,0-.9,0-.4.3-.5.6-.3ZM373.4,119.3l-2.3-1.6c-2.5-1.8-2.8-1.5-.6.7.4.4,1.1,1,2.1,1.8.1.1.3,0,.4,0l.4-.4c.2-.2.2-.3,0-.5Z"/>
        <path class="cls-6" d="M193.9,59.3c-3.4,2.7-7.1,4.5-11.1,5.5,3.3-2.4,7.1-4.2,11.1-5.5Z"/>
        <path class="cls-1" d="M252.6,62l2.4.3c.4,0,.4.2.1.5-.6.5-1.2.8-1.7.8-1.9,0-3.8.1-5.6.6-1.8,2.6-4.7,3.2-8.7,2.1-.4-.1-1.1,0-2.2.7-.4.2-.4.4,0,.6.8.5,1.2,1.2,1.4,2,0,.3,0,.5-.4.5-3.2,0-7.9.6-14.2,1.8-2.8.5-7.2.1-13.2-1.1-.4,0-.5-.3-.1-.5,2.3-2,3.9-4.3,4.7-6.9.1-.3.3-.5.7-.4,3.1.7,6.2.8,9.3.1,3.4-.7,5.4-1.1,6.1-1.1,2.3,0,4.7.4,7,1.2,3.5,1.2,6.2,1.5,7.9-2.2.1-.3.4-.4.6-.3l5.8,1.4Z"/>
        <path class="cls-1" d="M324.6,79.5c-4.7-.5-8.9-.6-12.7,0-7.1,1-13.5,3.9-19.1,8.9-7,6.1-11.9,13.7-14.7,22.7-1.7-1.3-2.5-2.9-2.2-5,.3-2,.9-4.5,1.9-7.4.2-.7.3-1.6.1-2.7-.3-2.3-1.6-4.2-1.4-6.7,0-.3-.1-.5-.5-.6-1-.1-1.5-.2-1.5-.2-1.7-1.1-1.6-1.8.4-2.2.2,0,.7,0,1.4.2.5.1.8.4,1,.9l2.7,6.2c0,.2.2.3.5.3l2.6-.2c.5,0,.6-.3.5-.8-.8-2.5-1.7-4.6-2.5-6.3-.9-1.9-.5-2.3,1.1-1.2,2.6,1.7,5,1.2,7.4-1.5.5-.6,1.3-2.4,2.3-5.3.2-.5.2-.8,0-.9s-.4-.2-.6-.2c-.2,0-.5,0-.6-.2-2.5-2.2-4.9-4.9-7.4-8.1-.2-.3-.3-.5-.3-.7,0-.1,0-.3.2-.4.2-.3.5-.3.8-.2,3,1.4,5.9,2.9,8.8,4.3.5.2,1.8,1.2,4.1,2.8,2.7,1.9,5.9,2.5,9.4,1.6,3.3-.8,6.7-1.2,10-1.1,3.5,0,6.2,1.3,8.1,3.9Z"/>
        <path class="cls-6" d="M174.4,69.2l-3.5,3.7c.2-1.6,1.4-2.8,3.5-3.7Z"/>
        <path class="cls-1" d="M253.4,70.6c.7-.1,1.4,0,2,.3l2.8,1.6c.3.2.5.5.6.9l.2,2.2c0,.3-.1.5-.4.7,0,0-.2,0-.3,0-.3,0-.5,0-.6-.3-.9-1.3-1.5-2.1-1.9-2.3-1.7-1.1-4.1-1.9-7.2-2.5-.2,0-.2-.1-.2-.3v-.4c0-.2.2-.3.3-.2,2,.4,3.6.5,4.8.2Z"/>
        <path class="cls-6" d="M144.1,95.2c2-3.9,5-7.3,9-10.2.8-.6,1.8-1.2,3.1-1.7,1.2-.5,2.1-1.2,2.9-2,0,0,0,0,0,0,0,0,0,0,0,0l-3.1,1.8c-.7.4-.8.3-.3-.3.8-1.1,1.8-1.9,2.9-2.6l7.8-4.7c.4,0,.8-.3,1.3-.9.2-.3.6-.4,1-.5.4,0,.4,0,.1.3l-24.6,20.9Z"/>
        <path class="cls-10" d="M225.9,89.1l-15,1.1c-.9,0-1.4.6-1.3,1.5l.4,3.8c-2.2,2.7-3.1,5.3-2.8,7.9.5,4,.3,6.9-.7,8.9-.2.3-.1.6,0,.9.8,1,.8,2.1.2,3.4-.4.7-1,1-1.8.9-3.7-.5-7.8-2.2-12.2-5-1-.7-1.9-.7-2.7-.2-1.9,1.2-3.5,1.9-6.4,1.9-2.2,0-4.5.2-6.7.8l-6.5-11.6c8.4-4.1,15.9-10,22.3-17.9,3.8-4.6,11-2.5,15-4.9.8-.5,3.2-2,7.2-4.4,1.9-1.2,4.9-1.8,8.8-1.9,6.2-.1,8.5,3.6,8.9,9.4,0,1-.7,1.8-1.6,1.9-4.6.4-9.9,1.2-16,2.2-1.2.2-2.1.4-2.6.7-1.2.6-1.1.9.2.9l13.3-.2Z"/>
        <path class="cls-6" d="M353,83.5l-2.9-2.2-5.5-4.3c-.1,0-.1-.3,0-.4,0,0,0,0,0,0,0,0,.1-.2.2-.3,0,0,0-.1.2-.1,0,0,0,0,0,0,3.7,1.7,8.3,4.3,9.3,7.6,0,.2.2.3.5.4,0,0,.1,0,.1.1,0,0,0,0,0,0,0,0,0,0,0,0-.7-.2-1.3-.5-1.9-.9Z"/>
        <path class="cls-7" d="M159,78.1c1,0,.9.7-.5,2-1.1.6-2.1,1.5-2.9,2.6-.5.6-.4.7.3.3l3.1-1.8s0,0,0,0c0,0,0,0,0,0-.8.8-1.7,1.5-2.9,2-1.3.5-2.3,1.1-3.1,1.7-4,2.9-7,6.4-9,10.2l-3.3,3.8c0,0,0,0,0,0,0-.4.2-.8.6-1.2.3-.4,1.6-2.1,3.9-4.9,0,0,0,0,0-.1l-.2-.2c0,0-.2,0-.3,0l-7,7.8c-1.9,1.6-3.4,3.4-4.4,5.6l-4.1,5.7-.4.5-2.2,2s-.1,0-.2,0c-.7.2-1,0-.8-.8.8-1.1,1.9-2.1,2.6-3.1,5.5-8,11.6-15.1,18.3-21.3,2.8-2.6,7-6.2,12.4-10.7Z"/>
        <path class="cls-6" d="M324.6,79.5c2.4.6,4.7,1.3,7.1,2.1,1.8.6,3.4,1.7,5.1,2.6.6.3,1.2.7,1.9,1.3,1,.9,2.1,1.7,3.2,2.4,0,.2.2.3.2.5-6.3-2.9-12.8-4.6-19.4-5.1-7.1-.5-13.5.6-19.2,3.4-11.3,5.4-18,15.4-21.9,27.3-4.2,13.1-5.9,26.6-5.1,40.6-1.7-7.4-2.3-14.9-1.9-22.5,0-1.6.2-3.2.2-4.8,0-1.6.3-3.1.6-4.8.4-1.9.8-3.8,1.1-5.8l1.6-5.7c2.8-9,7.7-16.6,14.7-22.7,5.6-4.9,12-7.9,19.1-8.9,3.8-.5,8-.5,12.7,0Z"/>
        <path class="cls-1" d="M169.3,101.3l-2.7-4.7-2.3-4.1-.3-.6c2.8-4.2,6.4-5.6,10.8-4.2.6.2.6.5,0,1,0,0-.1,0-.2,0-.1,0-.2,0-.2,0,.5,4.2-1.3,7.6-5.4,10.2-.2.1-.2.3-.1.4.2.6.6,1.1,1.2,1.4,0,0,0,0,.1,0,3.5-3.6,8.8-10.9,6.9-15.6-.1-.4,0-.8.3-1l6.8-4.6s0,0,0,0l.2.2s0,0,0,.1c-2.2,2.7-4.2,6-5.9,10.1-1.9,4.5-4.2,9.5-9.3,11.3Z"/>
        <path class="cls-7" d="M342,88.5c0-.1.1-.2.2-.4l2.3,2.6c-6.3-3.3-13-5.6-20-7,0,0,0,0,0,0v.2c-.2.2-.2.3,0,.3,9.1,1.9,17.3,5.8,24.5,11.6,2.3,3.4,4.2,7.1,5.7,11.1-3-2.3-5.7-4.8-8.3-7.6-4-4.3-6.6-6.8-7.7-7.7-8.4-6.2-17.9-8-28.5-5.3-7.4,1.9-13.5,5.7-18.1,11.6-.7.9-.6,2.2.3,2.9.1,0,.2.2.4.2.4.2,1.1,0,2.1-.8,1.5-1.1,3.9-2.6,7.3-4.4,11.6-6.3,24.1-4.9,34.8,3.1,7.2,5.4,12.8,11.4,20.9,17.6l1.4,6.2,1,7.5c.9,13.8-2.3,26.6-9.8,38.2-1.7,2.6-3.6,4.9-5.6,6.8-.6.5-.7,1.4-.3,2,1.3,2.2,2.9,3.2,5.5,3.4,5.1.5,10.9-.1,15.2-3.4.3-.2.6-.2.8,0,.6.4.9,1.1.9,2.1l.3,1.3v19.7c0,.3-.2.6-.5.7-.2,0-.3,0-.5,0v-4.4c0-.3,0-.6-.3-.7-10-5.5-19.9-9.6-29.8-12.2-4.6-1.2-11-2.6-19.2-4.3-6.7-1.4-12.9-4.2-18.6-8.7-7.4-5.8-11.4-9.9-19.5-10.1l-1.8-5.8c.8-3.7,1.3-6.3,1.3-7.8.4-11.3,1.5-22.4,3.4-33.4,3.9-11.9,10.6-21.9,21.9-27.3,5.8-2.7,12.2-3.9,19.2-3.4,6.6.5,13.1,2.2,19.4,5.1ZM324,83.7c0-.1-.1-.2-.3-.2h-10.6c-.1,0-.2.1-.2.3h0c0,.2.1.3.3.3h10.6c.1,0,.2-.1.2-.3h0ZM300.7,121.4c-.2,2.6-.4,5.2-.5,7.8-.2,2.5,0,5.1.3,7.7.4,2.9.8,5.8,1.2,8.7.4,5.6,1.9,10.8,4.3,15.6.8,3.4,1.8,5.8,3.2,7.3,4.2,4.5,11.4,4.3,16.5,1.6,11.3-6,13.9-23.1,12.2-34.4-.4-2.5-1.9-4.8-4.4-6.7l-2.4-11.4c.3-2.5.3-5-.2-7.4-1.9-10-12.5-14.6-21.3-10.2-8,4-9.5,13.1-8.9,21.5Z"/>
        <rect class="cls-4" x="312.9" y="83.5" width="11.1" height=".5" rx=".3" ry=".3" transform="translate(-.3 1.1) rotate(-.2)"/>
        <path class="cls-4" d="M344.5,90.7c.3.5.6.8,1,1,.3.1.5.3.7.6l2.6,3.7c-7.2-5.9-15.3-9.8-24.5-11.6-.2,0-.2-.1-.1-.3v-.2c.1,0,.1,0,.2,0,7,1.3,13.7,3.6,20,7Z"/>
        <path class="cls-3" d="M354.6,107.1c.3.4.5.9.7,1.5l1.2,3.9,1.2,4.3c-8.1-6.2-13.7-12.2-20.9-17.6-10.7-8-23.1-9.4-34.8-3.1-3.4,1.8-5.9,3.3-7.3,4.4-1,.8-1.7,1-2.1.8-1-.5-1.4-1.7-.9-2.8,0-.1.1-.3.2-.4,4.6-5.8,10.6-9.7,18.1-11.6,10.6-2.7,20.1-.9,28.5,5.3,1.1.8,3.7,3.4,7.7,7.7,2.6,2.7,5.4,5.2,8.3,7.6Z"/>
        <path class="cls-10" d="M342.2,88.1c0,.1-.1.2-.2.4,0-.2-.2-.3-.2-.5-.1,0-.2-.2-.3-.3-.3-.4-.2-.5.3-.4.2,0,.4.3.4.8Z"/>
        <path class="cls-9" d="M359.3,90l-2.5-1.7c4.7,2.1,8.8,4.5,12.3,7.3,1.8,1.4,3.4,3.2,4.9,5.5,0,0,0,0,0,.1l-.2.2c-.1.2-.2.2-.4,0-1.7-2-2.8-3.2-3.5-3.6-3.9-2.2-7.4-4.8-10.6-7.8Z"/>
        <path class="cls-6" d="M161.9,88.8l2.1,3.1.3.6c-2.7,2.4-4.5,4.8-5.2,7.1-2.3,7.1-3.7,11.5-4.2,13.2-.6,1.8-1.3,3.6-2.2,5.4-.2.4-.4.4-.4,0-.1-.9,0-1.9.2-2.9l1.7-5.9,3.5-10.5,3.2-9.1c0-.5.4-.8,1.1-.9Z"/>
        <path class="cls-10" d="M275.8,117.2c-2.2-.8-3.7-2-4.6-3.7-1.8-3.5-3.6-7.1-5.5-10.5l-3.7-5.1c-2.5-2.5-5.4-4.5-8.8-5.8l5.1-1.5c.9-.3,1.9-.1,2.7.4,3.3,2,7.3,2.8,11.9,2.5.3,0,.6,0,.9.3.3.3.5.6.6.9.1.4,0,.6-.3.8l-4.6,2.7c-.3.1-.4.4-.3.7,0,.3.2.5.4.7.3.3.3.5,0,.8l-1.2,1.6c-.2.3-.2.5,0,.8,1.1,1.3,2,3.9,2.8,7.9.5,2.5,2,4.6,4.5,6.4Z"/>
        <path class="cls-6" d="M253.2,92.2c3.4,1.3,6.3,3.2,8.8,5.8-1.4-.9-2.8-1.7-4.2-2.3-1.3-.7-2.8-1.2-4.5-1.4-11-1.7-22.5-2.2-34.4-1.3-3.5.3-6.4,1.1-8.8,2.6,0,0,0,0,0,0l-.4-3.8c0-.9.3-1.4,1.3-1.5l15-1.1c5.1,0,9.4,0,12.8.2,4.9.2,9.7,1.2,14.6,2.9Z"/>
        <path class="cls-5" d="M160.8,89.7l-3.2,9.1c-2.7,1.5-4.7,3.6-5.8,6.3-.3.8-.5,1.7-.4,2.6.3,3.2,1.2,3.7,2.7,1.6l-1.7,5.9-2,6-3.1,1.5c-.7.3-1.5.1-2-.5-.6-.8-1-1.9-1.1-3.3-.7-5.9,2.8-11.6,6.6-17.7,2.9-4.6,5.4-8.7,10.1-11.5Z"/>
        <path class="cls-7" d="M261.9,97.9l3.7,5.1.4,1.2c-3-1.4-6.1-2.9-9-4.5-3.6-1.9-6.6-2.9-10.3-3.5-5.5-.9-11.6-1.4-18.3-1.6-4.5-.1-8.8.3-12.9,1.3-.3,0-.5.3-.3.6,1.5,4.2,4.1,6.2,8.1,5.9,3.6-.2,7.8-2.8,11.1-3.4,9-1.6,13.9,2.2,20,7.3,1.4,1.1,3,2,5,2.5,3.3.9,5.7-.2,7.2-3.6,1.1,2.7,1.6,5.5,1.5,8.3.3,7.9-2.7,14.5-8.9,19.7-.3.2-1,1.3-2.3,3.1-.2.3-.2.6-.2.9.6,2.8,2,4.7,4.3,5.5,4.9,1.8,9,4.2,12.2,7,1.2,2.3,1.9,4.8,2,7.5v7c-1.5-2.5-3.1-2-4.9-.4-5,4.3-10.5,9.8-16.7,16.5-5.2,5.6-11.5,6.2-19,5.1-2.9-.4-5.8-.7-8.7-1-.3,0-.6.1-.7.4l-6.2,12.4-1.5-19.5-3.6-41.9-3.9-40.5c2.4-1.4,5.4-2.3,8.8-2.6,12-.9,23.4-.5,34.4,1.3,1.7.3,3.2.7,4.5,1.4,1.4.7,2.8,1.5,4.2,2.3ZM245.4,115.8l-.3-1.3c-1.1-5.7-4.5-8.7-10.3-9.1-.9,0-1.7.6-1.7,1.6,0,.1,0,.2,0,.3,1.4,10.8,2.3,17.9,2.6,21.2.1,1.4-.2,2.9-1.1,4.6-.2.3-.1.6,0,.9,3.1,5.6,9.5.3,11.3-3.3,1.3-2.5,2-4.7,2.3-6.7.5-3.1-.5-5.8-2.9-8.2ZM252.4,161.7c1.4,2.4,1.9,5.1,1.4,8.1,0,0,0,0,0,0,0,0,0,0,0,0,0,0,0,0,0,0,1-3.5.3-6.7-2.2-9.6,5.2,2.5,3.6,8.3,2.2,12.6,0,.2,0,.2.2.2h.3s0,0,0,0c1.9-4.9,3.2-10.7-2.2-13.8-.3-.2-.5-.4-.6-.7-1.3-3.1-3.2-5.7-5.6-7.9-1.1-.9-2.3-1.6-3.8-1.9-1.7-.4-3.1-.6-4.3-.7-.6,0-1.1.5-1.1,1.1,0,0,0,.2,0,.3.6,2.5.9,4.6,1.2,6.4.1,1.1.2,3.3.2,6.5,0,2.4.1,4.8.3,7.2.2,2,.1,4.4-.2,7.3,0,.3,0,.6.3.8,2.3,2.1,5,2.4,7.9.9,3.3-1.6,5.5-4.1,6.4-7.5.4-1.6.2-4.7-.7-9.3Z"/>
        <path class="cls-4" d="M164.3,92.5l2.3,4.1c-3.2,1.7-5.2,3.8-5.9,6.4-4.4,15.8-9.2,31.4-14.3,46.9-1.6,4.9-3.2,11.8-5.1,17.7-1.9,5.7-3.3,10.4-4.2,14.3-1.2,4.9-3.9,8.1-8.2,9.7v-1.3s16.6-53.4,16.6-53.4l4.9-15.6,2-6c-.2,1.1-.3,2-.2,2.9,0,.5.2.5.4,0,.9-1.7,1.6-3.5,2.2-5.4.5-1.7,1.9-6.1,4.2-13.2.8-2.3,2.5-4.7,5.2-7.1Z"/>
        <path class="cls-3" d="M331.1,117.5l-1.1-2.8-1.4-3.1c-1.6-3.8-3.8-6.3-6.7-7.7-6-2.7-11.2-1.4-15.6,3.8-3.3,4-5.2,8.6-5.5,13.7-.7-8.4.8-17.5,8.9-21.5,8.8-4.4,19.4.1,21.3,10.2.5,2.4.5,4.9.2,7.4Z"/>
        <path class="cls-3" d="M266.1,104.2c.2.3.4.7.4,1-1.5,3.3-3.9,4.5-7.2,3.6-2-.6-3.6-1.4-5-2.5-6.1-5.1-11-8.9-20-7.3-3.3.6-7.5,3.2-11.1,3.4-3.9.2-6.6-1.7-8.1-5.9-.1-.3,0-.5.3-.6,4.1-1,8.5-1.4,12.9-1.3,6.7.2,12.8.7,18.3,1.6,3.6.6,6.7,1.6,10.3,3.5,3,1.6,6,3.1,9,4.5Z"/>
        <path class="cls-10" d="M353.1,96.2c.2.2.4.3.6.5.3.2.4.3.5.5,0,.2,0,.4,0,.6-.1.3-.4.4-.7.2-.2-.1-.5-.4-1-.8-.2-.2-.3-.3-.6-.5-.3-.2-.4-.3-.5-.5,0-.2,0-.4,0-.6.1-.3.4-.4.7-.2.2.1.5.4,1,.8Z"/>
        <path class="cls-5" d="M210,95.4l3.9,40.5c-.5.7-1,1.2-1.7,1.5-.5.2-1.2,0-1.4-.5,0-.2-.1-.4,0-.6.5-2.8.4-5.8-.2-8.8,0-.4-.3-.5-.7-.4-.9.2-1.6,0-2.2-.6-.2-.2-.5-.4-.8-.5-.6-.1-1-.2-1.2-.2-1.3,0-1.5.5-.4,1.3,1.1,1,2.5,2,4.2,3,.3.2.4.4.4.7,0,1.1-1,1.7-3,1.7-1,0-1.9-.7-2.2-1.7-.5-2.1-1.8-3.6-3.8-4.5-.4-.2-.8,0-1,.4,0,0,0,.2,0,.3v4c0,.7-.6,1.2-1.2,1.3-.1,0-.2,0-.4,0-3.5-1-6.4-2.9-8.6-5.6-.2-.3-.5-.3-.8-.1l-4.1,2.3-7.5-13.9c2.2-.5,4.5-.8,6.7-.8,2.8,0,4.5-.7,6.4-1.9.8-.5,1.7-.4,2.7.2,4.4,2.8,8.5,4.5,12.2,5,.8.1,1.4-.2,1.8-.9.7-1.3.6-2.5-.2-3.4-.2-.3-.3-.6,0-.9,1-1.9,1.3-4.9.7-8.9-.3-2.6.6-5.2,2.8-7.9,0,0,0,0,0,0Z"/>
        <path class="cls-7" d="M166.6,96.6l2.7,4.7,1.1,2.1,6.5,11.6,7.5,13.9,29.1,52.6c.6.4,1,1,1.2,1.9,0,.6,0,1.1-.2,1.4l-3.9,4.1c-8-2.4-13-4.8-20.1-8-4-1.8-7.1-3-9.3-3.5-8.1-1.8-15.9-.5-23.6,3.9-4.8,2.7-9.5,5.5-14.1,8.5-1.8,1.1-5.8,3.1-12,5.7l-.2,3.3c0,.3,0,.6.3.8l2.1,1.7c1.1,1.2,2.5,2.2,4.1,2.9-2-.5-3.8-1.4-5.3-2.8-.8-.7-1.1-1.8-2-2.3-.4-.2-.5-.7-.3-1.1,0,0,0,0,0-.1.9-1,.8-2.6-.4-3.4-.5-.4-.9-.7-1.2-1-.3-.2-.4-.5-.3-.9,0-.3.2-.5.4-.8,4.3-1.6,7-4.8,8.2-9.7.9-3.8,2.3-8.6,4.2-14.3,2-5.9,3.5-12.8,5.1-17.7,5.2-15.5,10-31.1,14.3-46.9.7-2.6,2.7-4.7,5.9-6.4ZM173.7,156.2l-5.3-12.5c0-.5-.3-.9-.6-1.2-.7-1.7-1.3-3.2-1.7-4.4-.6-1.9-1.1-1.9-1.3.1-.3,2.1-.9,4.5-1.7,7.1-.6,2.2-1.2,4.5-1.7,7.1-.5,2.7-1.1,5.2-1.7,7.5-.2.7-.6,1.5-1.2,2.2-.2.3-.2.6-.1.9.9,2.4,2.8,3.6,5.9,3.6,2.8,0,5.2-.2,7.3-.6,2.9-.6,4.6-1.5,5.3-2.5,2-3,.9-5.5-3.3-7.4Z"/>
        <path class="cls-1" d="M157.7,98.8l-3.5,10.5c-1.5,2.2-2.4,1.6-2.7-1.6,0-.9,0-1.8.4-2.6,1.2-2.7,3.1-4.8,5.8-6.3Z"/>
        <path class="cls-6" d="M384.7,112.2c-1.5.2-2.9,0-4.2-.5-1.1-2.9-2.7-5.5-4.7-7.9l-1.8-4.6,10.6,13Z"/>
        <path class="cls-6" d="M137.7,100.2c-.4,2.5-1.5,5.5-4.4,5.6,1-2.1,2.5-4,4.4-5.6Z"/>
        <path class="cls-5" d="M360.5,102.4c-.3-.6,0-.8.7-.7.4,0,.7.5,1,1.4.1.4,0,.6-.4.6-.4,0-.8-.4-1.2-1.3Z"/>
        <path class="cls-9" d="M375.8,103.8l3.2,5c0,.1,0,.2-.1.2h-.3c0,0,0,0,0,0-1.6-2-2.9-4-3.9-6-.2-.3-.1-.4.2-.1l1,.8Z"/>
        <path class="cls-8" d="M358.2,103.8c.2,0,.3-.1.4-.2-.1,0-.3.1-.4.2Z"/>
        <path class="cls-6" d="M328.6,111.6c-7.8-6.1-14.6-5.5-20.7,1.8-1.4,1.6-2.3,3.4-2.8,5.4-2.4,8.7-3.5,17.6-3.4,26.8-.4-2.9-.8-5.8-1.2-8.7-.4-2.6-.5-5.2-.3-7.7.2-2.6.3-5.2.5-7.8.4-5.1,2.2-9.7,5.5-13.7,4.4-5.3,9.6-6.6,15.6-3.8,2.9,1.3,5.2,3.9,6.7,7.7Z"/>
        <path class="cls-8" d="M275.8,117.2l.8-.5c-.3,1.9-.7,3.9-1.1,5.8-.3,1.6-.5,3.2-.6,4.8,0,1.6-.2,3.2-.2,4.8-.4,7.6.2,15.1,1.9,22.5l.3.7,1.8,5.8,2.2,5.6-3.5,5.7s0,0,0,0c0,0,0,0,0,0l-.2-.2c-.1-.1-.1-.3,0-.4,2.4-5.1.7-9.2-1.6-14.5-.2-2.7-.8-5.2-2-7.5-2.2-4.8-5.5-8.4-10-10.8-.6-.3-.9-1.1-.5-1.7.2-.3.4-.5.7-.6,1.4-.5,2.7-1.2,3.5-2.4,3.4-5,4.4-10.6,3.3-16.8,0-.2-.1-.2-.3-.2h-.3c-.2.1-.3.3-.2.4.4,3.3.2,6.6-.7,9.7,0,.1,0,.2-.1.2-.1,0-.2,0-.1-.2,1.2-4.7,1.1-9.3-.3-13.9.1-2.8-.4-5.5-1.5-8.3,0-.4-.2-.7-.4-1l-.4-1.2c1.9,3.5,3.7,7,5.5,10.5.9,1.7,2.4,2.9,4.6,3.7Z"/>
        <path class="cls-6" d="M245.1,114.5c-.5-.8-1.3-1.3-2.3-1.6-1.6-.4-3.2-.8-4.8-1.2-1.1-.5-2-.4-2.7.2-.5.4-.8,1.1-.8,2.1,0,1.4,0,2.6.2,3.4,1,4.9,1.8,10.4,2.4,16.5,6.4-4.3,9.1-10.3,8.2-18,2.4,2.4,3.4,5.1,2.9,8.2-.3,1.9-1,4.1-2.3,6.7-1.8,3.7-8.3,8.9-11.3,3.3-.2-.3-.2-.6,0-.9.8-1.7,1.2-3.2,1.1-4.6-.3-3.4-1.2-10.4-2.6-21.2-.1-.9.5-1.7,1.4-1.9.1,0,.2,0,.3,0,5.8.3,9.2,3.3,10.3,9.1Z"/>
        <path class="cls-9" d="M328.6,111.6l1.4,3.1-3-1.8c-3.3-4.4-8.5-5.6-13.4-3.4-4.7,2.1-7.3,6.1-7.8,12.1,0,.6.2,1,.7,1.2l2.8,1.3c2.6.5,4.8,1.8,6.4,3.8,1.2,1.5,2.6,2.1,4.2,1.7,1-.3,2.5-1.1,4.5-2.5.2-.1.5-.2.8,0l1.7.6c.2,0,.4.1.5,0l2.3-1.1c.8-.3,1-.1.8.7-.5,1.9-1.6,3.5-3.1,4.7-.3.2-.3.5-.1.8.4.7.9,1.2,1.4,1.7.5.5.9,1,.9,1.5.2.9-.2,1.5-1.1,1.8-.3,0-.5.4-.4.7,0,0,0,.1,0,.2.7,1,1.2,2.2,1.6,3.6-.3,2.2-1,4.3-2.2,6.3-.5.8-.7,1.7-.8,2.5,0,.3-.1.6-.3.8l-2.3,3.1c-.1.2-.1.4,0,.6.1.2.2.3.2.4.1.3,0,.6,0,.9-1.6,2.7-3.3,4.3-5.4,4.8-.2,0-2.1.6-5.8,1.6-2.5.7-3,1.8-1.7,3.4-2.2-1.3-4-3.2-5.5-5.6-2.5-4.9-3.9-10.1-4.3-15.6-.1-9.2,1-18.1,3.4-26.8.5-2,1.5-3.8,2.8-5.4,6-7.3,12.9-7.9,20.7-1.8Z"/>
        <path class="cls-8" d="M327,112.9c-5.9-4.9-11.8-4.7-17.7.6-.7.6-1.1,1.2-1.4,1.9-.2.5-.1,1.3.2,2.2.8,2,1.2,4.2,1.1,6.5l-2.8-1.3c-.5-.2-.7-.6-.7-1.2.5-6,3.1-10,7.8-12.1,5-2.2,10.1-1.1,13.4,3.4Z"/>
        <path class="cls-8" d="M356.5,112.5l-1.2-3.9,3.3,3.2c.1.1.2.3.2.5,0,.2,0,.3-.1.5-.2.2-.4.3-.6.2l-1.5-.4Z"/>
        <path class="cls-5" d="M327,112.9l3,1.8,1.1,2.8,2.4,11.4.2,2.7-3.9,10.6c-.3-1.4-.8-2.6-1.6-3.6-.2-.3-.1-.6.1-.8,0,0,0,0,.2,0,.9-.3,1.2-.9,1.1-1.8,0-.5-.4-1-.9-1.5-.5-.5-1-1.1-1.4-1.7-.2-.3-.2-.6.1-.8,1.5-1.2,2.6-2.8,3.1-4.7.2-.8,0-1.1-.8-.7l-2.3,1.1c-.1,0-.3,0-.5,0l-1.7-.6c-.3-.1-.6,0-.8,0-2,1.4-3.5,2.3-4.5,2.5-1.6.4-3-.1-4.2-1.7-1.6-2-3.7-3.2-6.4-3.8,0-2.3-.3-4.5-1.1-6.5-.3-.9-.4-1.6-.2-2.2.3-.7.7-1.3,1.4-1.9,5.9-5.4,11.8-5.6,17.7-.6ZM309.6,114.7c-1.4,1.3-1.2,1.8.7,1.7,3.1-.2,6.3-.2,9.7.2,1.6.2,4.8,1.6,9.7,4.3.2.1.5,0,.7-.2.1-.1.2-.3.2-.7,0-.3,0-.6-.3-.9-2.8-3-5.5-6.6-8.4-7.7-4.1-1.7-9.3.7-12.4,3.4Z"/>
        <path class="cls-9" d="M380.5,111.7c1.3.5,2.7.7,4.2.5l8.9,13.8c-3.2-1-5.7-2.7-7.6-5.2-2.1-2.7-4-5.4-5.7-8.3,0,0,0-.1,0-.1s0,0,.1.2c.2.4.5.8.8,1.1.5.6.6.5.3-.2l-1-1.9Z"/>
        <path class="cls-1" d="M309.6,114.7c3.1-2.7,8.2-5.1,12.4-3.4,2.9,1.2,5.6,4.7,8.4,7.7.2.3.3.5.3.9,0,.3-.1.6-.2.7-.2.2-.5.3-.7.2-4.9-2.7-8.1-4.1-9.7-4.3-3.4-.4-6.6-.4-9.7-.2-1.9.2-2.2-.4-.7-1.7Z"/>
        <path class="cls-8" d="M238.1,111.7c-1.1,1.5-1.7,3.3-1.9,5.2,0,.3.1.7.4.9.8.7,1.7,1.3,2.7,1.8.9.5,1.6,1.2,1.9,2.2.4.9.4,1.9.3,3,0,.3-.2.6-.4.8-1.7,1.6-2.9,4.4-3.8,8.2-.6-6.1-1.3-11.5-2.4-16.5-.2-.8-.2-2-.2-3.4,0-1,.3-1.7.8-2.1.7-.6,1.6-.6,2.7-.2Z"/>
        <path class="cls-10" d="M238.1,111.7c1.6.4,3.2.8,4.8,1.2,1,.2,1.7.8,2.3,1.6l.3,1.3c1,7.7-1.8,13.7-8.2,18,.9-3.9,2.1-6.6,3.8-8.2.2-.2.4-.5.4-.8.2-1.1,0-2.1-.3-3-.3-.9-1-1.6-1.9-2.2-.9-.5-1.8-1.1-2.7-1.8-.3-.2-.4-.5-.4-.9.2-2,.8-3.7,1.9-5.2Z"/>
        <path class="cls-6" d="M128.8,112l-3.1,8.2c-.6,1.9-1.2,3.6-1.7,5.3,0,0-.1.1-.2.1,0,0,0,0,0-.1.1-.5.1-.9,0-1.1-.2-.3-.3-.3-.5,0-1.7,3.6-4,8-6.9,13.1-3.2,5.5-4.7,11.4-4.6,17.5.1,4.3-.6,9-1,12.4-.3,2.9-.5,6-.5,9.4,0,10.3-.3,20.7-.7,31,0,1.2-.6,4.1-1.7,8.5,0,.4,0,1.8.4,4.3.4,2.6,0,3.3-1,6-1.3,3.7,1.9,7.1,4.2,10.9.8,1.3,1.4,3,1.8,5.1.6,2.9,1.3,5.3,2.3,7.4,1.7,3.7,2.1,6.9,3.2,12.4,0,.2.1.3.3.3.2,0,.4,0,.5-.3l.9-4c0-.4.2-.4.3,0,1.8,5.6,3.1,11.4-.9,16.2,0,0,0-.2,0-.2.5-2.7,0-5.2-1.6-7.4-.2-.3-.4-.3-.6,0l-.3.3c-.1.2-.2.3,0,.5l2.2,3.8c0,.2,0,.3-.1.4-.1,0-.2,0-.3,0-2.1-1.7-3.5-3.5-4.3-5.4-2.6-5.9-4.7-10.5-6.5-13.9-.2-.3-.4-.4-.7-.2h-.2c-.3.3-.4.6-.2.9,1.7,3.7,3,6.4,2.3,10.1-.6-2.7-2.1-5.6-2.8-7.5-4-11.3-6.6-22.8-7.8-34.7l.4.8c.4.8.6.8.8,0,.4-1.7.3-3.5,0-5.2-.5-2.1-.7-3.8-.8-5.1-.6-13.2.4-25.7,3.2-37.4.3-1.3.6-3,.8-5,.2-2,.6-3.7,1.2-5.1,1.5-3.5,2.3-6.5,2.5-9,0-.3.3-.6.6-.7.3-.1.7-.3,1-.5.3-.2.5-.7.7-1.4.4-2.3.7-4,.9-5,.3-1.8.7-3.4,1.4-4.9,2.4-5.6,5.5-12,9.3-19.2.3-.5.1-.9-.5-1.3.1-.3.3-.5.5-.7,0,.8.4.9,1.3.3.1,0,.2-.1.2-.2l3.9-6.3c.1-.2,0-.5-.2-.6,0,0-.2,0-.3,0h-.8c.2-.5.5-1,1-1.4-.2.7.1,1,.8.8,0,0,.1,0,.2,0l2.2-2Z"/>
        <path class="cls-4" d="M273.2,149.8c-3.2-2.8-7.2-5.1-12.2-7-2.3-.8-3.7-2.7-4.3-5.5,0-.3,0-.6.2-.9,1.3-1.9,2-2.9,2.3-3.1,6.2-5.2,9.1-11.7,8.9-19.7,1.4,4.6,1.5,9.2.3,13.9,0,.1,0,.2.1.2.1,0,.2,0,.1-.2.9-3.2,1.1-6.4.7-9.7,0-.2,0-.3.2-.4h.3c.1-.1.2,0,.3,0,1.2,6.2,0,11.8-3.3,16.8-.8,1.2-2.2,2-3.5,2.4-.7.2-1,1-.8,1.6.1.3.3.6.6.7,4.5,2.4,7.8,6,10,10.8Z"/>
        <path class="cls-4" d="M281.5,114c-1.9,11-3,22.2-3.4,33.4,0,1.5-.5,4.1-1.3,7.8l-.3-.7c-.8-13.9.9-27.4,5.1-40.6Z"/>
        <path class="cls-7" d="M120.5,121.5l4.3-6.8h.8c.2,0,.5.1.5.4,0,0,0,.2,0,.3l-3.9,6.3s-.1.1-.2.2c-1,.6-1.4.5-1.3-.3Z"/>
        <path class="cls-10" d="M376.2,130.9c0,.4,0,.7,0,.9.4.9.2,1.1-.6.4-4.8-3.9-7.9-8.9-9.3-14.9-.1-.5,0-.6.4-.3,2.3,1.8,3.8,3.5,6.9,3.6.3,0,.6.2.7.4.6,1.1,1,2.4,1.1,4.1,0,.3-.1.5-.4.6-.5.1-.7.3-.8.5-.1.2-.3.3-.5.3l-2-.4c-.1,0-.2,0-.3.1,0,0,0,.2,0,.3,0,0,0,.2.1.2l2.5,1.8c.5.4.7.2.7-.4v-1.8c0-.3.2-.5.6-.4.6.1,1.1.5,1.5,1,.3.3.6.5.9.5.3,0,.5.2.6.5l.8,4.6c0,.5,0,.5-.3.1-.8-1.2-1.4-2-1.9-2.3-.4-.2-.6,0-.6.3Z"/>
        <path class="cls-8" d="M373.4,119.3c.2.1.2.3,0,.5l-.4.4c-.1.1-.3.1-.4,0-1-.8-1.8-1.4-2.1-1.8-2.1-2.3-1.9-2.5.6-.7l2.3,1.6Z"/>
        <path class="cls-9" d="M122.9,168.1c-.5,3.6.5,6.8,3,9.5,0,0,.1.4.2.9l1,12.2c0,.4.4.6.8.5.2,0,.5-.2.6-.5,0,0,.2-.2.4-.5v1.3c-.2.3-.3.5-.3.8,0,.3,0,.6.3.9.3.3.7.6,1.2,1,1.1.9,1.3,2.4.4,3.4-.3.3-.2.9.1,1.1,0,0,0,0,.1,0,.9.5,1.3,1.6,2,2.3,1.5,1.4,3.3,2.4,5.3,2.8l11.4,9c.9.7,2.1.5,2.8-.3.2-.2.3-.5.4-.8l4-17.9c0-.4.3-.7.8-.8,5.4-1.7,11.7-2.4,23.9-4.4,2.9-.5,5.5-.2,7.7.7l1.5,3.2-3.3-3.5c-.2-.2-.5-.3-.8-.2h-.4c-.4.2-.5.5-.4.8l2.7,8.6c0,.3,0,.7-.4.8-.1,0-.2,0-.3,0-2.4-.6-4.6-1.7-6.5-3.3-.3-.3-.8-.2-1.1,0,0,0-.1.2-.2.3-.8,3.7-2.3,8.1-5.6,9.7,0,0,0,0,0,0,0,0-.1,0-.2-.2,0-.1-.1-.1-.3,0-.4.1-.6.3-.4.6,1,1.3,2.1,2.5,3.1,3.5.3.3.8.3,1.1,0,0,0,0,0,0-.1.9-1.4,1.5-2.7,1.6-3.9.3-1.9.7-3.1,1.3-3.6,1.3-1.1,2.9-1.2,4.7-.1,2.4,1.4,4.2,4.3,5.4,8.7,0,.3,0,.5-.3.6-5.4,1.6-10.3,1.2-16.1,1-6.8-.3-13.7-5.2-18.1-9.8-.3-.4-.5-.3-.6.2l-.2,3.8c0,.4.2.7.6.8,5.7,1.3,9.7,4.7,11.9,10.1-2.1,5-7,5.5-11.7,6.8-2.3.6-4.6,1.1-6.9,1.5-.2,0-.4-.1-.5-.4l-6.3-11.8c0-.2-.4-.4-1-.5-4.8-1.3-9.1-.6-13,2.2-.3.2-.3.4,0,.6,3.3,2.9,3.8,4.8,1.6,5.9l2.5,3.2c-1.5,4.9-1,9.1-1.1,13.9,0,.2.2.4.4.4,0,0,0,0,.1,0l9.1-2.7,19.7,72.5-.9-1.4-2.6-2.7-4.1-3.3c-.2-.2-.5-.1-.6,0,0,0,0,.1,0,.2,0,.4,0,.7.1,1.2,0,.2,0,.2,0,0l-.3-.4c-.3-.4-.4-.3-.6,0,0,.2,0,.4,0,.5.1.2,0,.3-.2.3h-3.3c-1.2.1-2.3,0-3.3-.4-.3-.1-.5-.4-.5-.7l-.4-3.9c0-.1,0-.1,0,0l1.8,3.6c.1.3.4.5.8.5,2.3.5,4.2.2,5.5-1.2.3-.3.3-.5-.2-.5l-5.5.5c-.3,0-.5,0-.6-.3-1.7-3.3-3.1-6.6-4.1-10-1.5-4.6-5.8-5.7-8.2-7.7-2.9-2.4-4.1-9.4-9.4-5-.3.2-.5.2-.8,0l-3.1-3.6c4-4.8,2.7-10.6.9-16.2-.1-.4-.2-.4-.3,0l-.9,4c0,.3-.2.3-.5.3-.1,0-.2-.2-.3-.3-1.1-5.5-1.5-8.7-3.2-12.4-.9-2.1-1.7-4.5-2.3-7.4-.4-2.1-1-3.8-1.8-5.1-2.3-3.8-5.4-7.2-4.2-10.9.9-2.7,1.4-3.4,1-6-.4-2.5-.5-3.9-.4-4.3,1.1-4.5,1.7-7.3,1.7-8.5.4-10.3.6-20.7.7-31,0-3.3.2-6.5.5-9.4.4-3.4,1.1-8.1,1-12.4-.1-6.2,1.4-12,4.6-17.5,2.9-5.1,5.2-9.4,6.9-13.1.1-.3.3-.3.5,0,.1.2.1.6,0,1.1,0,0,0,.1.1.1,0,0,.1,0,.2-.1.5-1.7,1.1-3.4,1.7-5.3-.2,5.6-1.5,10.9-3.8,16-1.8,3.8-4.2,7.7-5.2,10.9-1.3,4.3-2,7.8-2.1,10.5,0,1.7.9,3.2,2.8,4.4.2.1.3,0,.4,0l4.6-6.2c.2-.3.2-.6,0-.9-.3-.6-.2-1.2.3-1.6.4-.4,1-.3,1.3,0,0,.1.2.2.2.4,1.5,5.2,1.8,9.8-1.5,14.4ZM120.7,135l3.2-5.1s0-.1,0-.2c0,0,0,0,0,0h0c-.9-.6-2.3.1-3.2,1.5l-.2.3c-.9,1.4-.9,2.9,0,3.5,0,0,0,0,0,0h0s.1,0,.2,0ZM186.7,208c0-.7-.6-1.3-1.3-1.3s-1.3.6-1.3,1.3h0c0,.7.6,1.3,1.3,1.3h0c.7,0,1.3-.6,1.3-1.3ZM140.8,279.6v-3.4c.2-.1,0-.2,0-.2,0,0,0,0,0,0h0c-1,0-1.9.7-1.9,1.8h0c0,1.2.8,2,1.8,2.1,0,0,0,0,0,0h0c.1,0,.2,0,.2-.2ZM145.2,277.8c0,0,.1-.2,0-.4,0-.2-.2-.3-.3-.3h0c0,0-.1.2,0,.4,0,.2.2.3.3.3ZM144.9,297c0-.1,0-.2-.2-.2s-.2,0-.2.2,0,.2.2.2.2,0,.2-.2ZM148.7,299.4c.2-.3,0-.9-.6-1.3,0,0,0,0,0,0-.5-.4-1.2-.5-1.4-.2t0,0c-.2.3,0,.9.6,1.3,0,0,0,0,0,0,.5.4,1.2.5,1.4.2,0,0,0,0,0,0Z"/>
        <path class="cls-4" d="M120,122.2c.6.3.8.7.5,1.3-3.8,7.1-6.9,13.5-9.3,19.2-.6,1.5-1.1,3.1-1.4,4.9-.2,1.1-.5,2.7-.9,5-.1.7-.4,1.2-.7,1.4-.3.2-.6.4-1,.5-.3.1-.5.4-.6.7-.2,2.5-1.1,5.5-2.5,9-.6,1.4-1,3.1-1.2,5.1-.2,2-.5,3.7-.8,5-2.8,11.7-3.8,24.2-3.2,37.4,0,1.3.3,3,.8,5.1.4,1.7.4,3.5,0,5.2-.2.9-.5.9-.8,0l-.4-.8c-1-8.5-1.4-17.1-1-25.7.1-3.1.4-5.9.8-8.4.5-3,.8-5.7,1.1-8.3.1-1.7.4-3.2.9-4.6.6-2.1.6-4.1,1.1-6.2,3.7-16.2,9.9-31.6,18.4-46Z"/>
        <path class="cls-8" d="M374.2,134.3c2.4,3.9,3.1,8.1,2.4,12.7,0,.2-.2.3-.3.2,0,0-.1,0-.1,0l-4-4.3c-.1-.1-.2-.1-.4,0,0,0-.2,0-.2.1-.3.1-.4.3-.2.6,1,2.6,1.6,5.3,1.9,8.1.4,3.5.7,6,1,7.4.8,3.6,1.3,6.4,1.5,8.5,0,.4-.1.5-.5.6-1.8.1-3.1-.2-3.9-.9-1.3-1.2-1.8-.9-1.5.8,0,0,0,.4,0,.9,0,.7-.5,1.2-1.2,1.2-.2,0-.4,0-.5-.1-3.4-1.6-5.4-2.5-5.9-2.7-1.5-.5-2.9-.3-4.2.7-2,1.6-3.6,3.1-4.7,4.4,0,0-.4.6-1,1.6-.3.6-.8,1-1.5,1.3-.2,0-.3.4-.2.6,0,0,0,.1.2.2,1.1.6,2.4.9,3.7.8,3.8-.3,7.7-.6,11.5-1-3.2.9-6.5,1.5-9.8,1.6-3.1.1-6.2-.2-9.2-1.1-1.9-.6-1.9-1.1,0-1.5,3.7-.8,6.5-2.9,8.5-6.4,5.9-10.5,6.8-23.5,6.3-35.7,0-.3-.1-.6-.4-.9l-1.5-1.5-1-7.5,1.2,2.2c.2.3.4.4.7.5,1.4.1,2.7.5,3.8,1,0,0,.2.1.2.2l3.6,5.4c.1.2.2.2.4.2.1,0,.2,0,.3,0,.2-.1.3-.2.2-.3l-3.1-6.8c0-.1,0-.2,0-.2.2-.1.3-.2.5,0,0,0,.2.1.2.2l7,9.1Z"/>
        <path class="cls-10" d="M213.9,136l3.6,41.9c-1,1.4-2.3,2.5-3.9,3.5l-29.1-52.6,4.1-2.3c.3-.2.6-.1.8.1,2.3,2.7,5.1,4.6,8.6,5.6.7.2,1.4-.2,1.6-.8,0-.1,0-.2,0-.4v-4c0-.4.3-.7.7-.7.1,0,.2,0,.3,0,2,.9,3.3,2.5,3.8,4.5.3,1,1.2,1.7,2.2,1.7,2,0,3-.6,3-1.7,0-.3-.1-.6-.4-.7-1.6-1-3-2-4.2-3-1-.9-.9-1.3.4-1.3.2,0,.6,0,1.2.2.3,0,.6.2.8.5.5.6,1.3.8,2.2.6.4,0,.6,0,.7.4.6,3,.7,6,.2,8.8,0,.6.3,1.1.9,1.2.2,0,.4,0,.6,0,.7-.3,1.2-.8,1.7-1.5ZM211.6,144.1c-1.3-2.3-2.4-4.2-3.1-5.8-.1-.3-.4-.4-.7-.4-.3,0-.5.1-.6.3-.1.1-.1.3,0,.6.7,2.5,1.9,4.5,3.7,6.1.3.3.5.2.8,0,.2-.2.2-.5,0-.8Z"/>
        <path class="cls-4" d="M306.1,161.2c1.4,2.4,3.3,4.3,5.5,5.6,2.8,1.2,5.7,1.6,8.9,1.2.3,0,.6-.2.9-.4.5-.4,1-.6,1.5-.7.3,0,.6-.2.9-.4.7-.6,1.3-1.1,1.8-1.3.7-.3,1.2-.7,1.6-1.1,2.4-2.9,4-5.8,4.9-8.8,2.2-7.4,2.8-15.3,1.8-23.7l-.2-2.7c2.6,1.9,4.1,4.2,4.4,6.7,1.7,11.4-.9,28.4-12.2,34.4-5.1,2.7-12.3,2.9-16.5-1.6-1.4-1.5-2.4-3.9-3.2-7.3Z"/>
        <path class="cls-8" d="M120.7,135s-.1,0-.2,0h0c-.9-.6-.9-2.1,0-3.5,0,0,0,0,0,0l.2-.3c.9-1.4,2.3-2.1,3.2-1.5h0c0,0,0,.1,0,.2,0,0,0,0,0,0l-3.2,5.1Z"/>
        <path class="cls-6" d="M366.1,175.9l.7.6v2.5s0,.7,0,.7c0-1-.3-1.7-.9-2.1-.3-.2-.5-.2-.8,0-4.2,3.2-10.1,3.8-15.2,3.4-2.6-.2-4.2-1.2-5.5-3.4-.4-.7-.3-1.5.3-2,2.1-1.9,4-4.2,5.6-6.8,7.5-11.6,10.8-24.4,9.8-38.2l1.5,1.5c.2.2.4.5.4.9.6,12.2-.4,25.2-6.3,35.7-2,3.5-4.8,5.6-8.5,6.4-1.9.4-1.9.9,0,1.5,3,.9,6.1,1.3,9.2,1.1,3.3-.2,6.6-.7,9.8-1.6Z"/>
        <path class="cls-10" d="M333.7,131.7c1.1,8.4.5,16.3-1.8,23.7-.9,2.9-2.5,5.8-4.9,8.8-.4.5-.9.8-1.6,1.1-.5.2-1.1.6-1.8,1.3-.2.2-.5.4-.9.4-.5,0-1,.3-1.5.7-.3.2-.6.4-.9.4-3.1.4-6.1,0-8.9-1.2-1.4-1.6-.8-2.7,1.7-3.4,3.7-1,5.7-1.6,5.8-1.6,2-.5,3.8-2.1,5.4-4.8.2-.3.2-.6,0-.9,0-.1-.1-.3-.2-.4-.1-.2-.1-.4,0-.6l2.3-3.1c.2-.2.3-.5.3-.8,0-.8.3-1.7.8-2.5,1.1-2,1.8-4.1,2.2-6.3l3.9-10.6Z"/>
        <path class="cls-5" d="M145.4,136.8l-16.6,53.4c-.2.3-.4.5-.4.5-.2.4-.7.6-1.1.5-.2,0-.3-.2-.4-.5l-1-12.2c0-.5,0-.8-.2-.9-2.4-2.7-3.4-5.9-3-9.5,2.7-.4,5-2.2,6.9-5.2,1.1-4.7,3.1-9.1,5.9-13.3,2.3-3.4,4.9-6.6,5.9-10,.5-1.8,1-3.6,1.6-5.2.6-2,1.3-2,2,0,.1.4.3,1.2.4,2.5Z"/>
        <path class="cls-10" d="M378,147.6c0,0,0,.1,0,.2.7,3.6,1.5,5.9,2.5,6.7,1.3,1.1,2.5,2.5,3.7,4.2.9,1.2,1.6,2.9,2,5,.7,3.2,1.8,7.2,3.4,11.9.1.4,0,.8-.5,1-.2,0-.4,0-.5,0-4.2-1.8-7.6-4.9-10.2-9-.4-.6-.7-.6-.8.1-.1.5,0,1,.4,1.3.4.3.4.8.1,1.2-.1.2-.3.3-.5.3-4.2.9-7.8,3-10.9,6.2l-.7-.6c-3.8.3-7.7.7-11.5,1-1.4.1-2.6-.2-3.7-.8-.2-.1-.3-.4-.1-.6,0,0,.1-.1.2-.2.7-.3,1.2-.7,1.5-1.3.6-1,.9-1.6,1-1.6,1.1-1.4,2.7-2.9,4.7-4.4,1.3-1,2.7-1.2,4.2-.7.5.2,2.5,1.1,5.9,2.7.6.3,1.3,0,1.6-.6,0-.2.1-.3.1-.5,0-.5,0-.8,0-.9-.3-1.7.2-2,1.5-.8.8.7,2.1,1,3.9.9.4,0,.5-.2.5-.6-.3-2-.8-4.9-1.5-8.5-.3-1.4-.6-3.9-1-7.4-.3-2.8-.9-5.4-1.9-8.1-.1-.3,0-.5.2-.6,0,0,.2,0,.2-.1.1,0,.2,0,.4,0l4,4.3c.1.1.3.1.4,0,0,0,0,0,0-.2.8-4.6,0-8.8-2.4-12.7,4.5,3.3,4.7,8.1,3.8,13.3ZM357.1,173.6l-2.5-.2c-.7,0-1.3.2-1.6.8l-.8,1.4c-.2.3,0,.5.2.5,4.8.5,11.7.4,14.9-3.5.7-.8.5-1.4-.4-2l-2.5-1.4c-1-.6-1.9-.4-2.7.4l-3.7,3.7c-.3.3-.6.4-1,.4Z"/>
        <circle class="cls-5" cx="132.3" cy="137.4" r=".4"/>
        <path class="cls-4" d="M167.8,142.5c-1.1,2-2.1,3.9-2.8,6.1-1.9,6.7-3,10.7-3.3,11.9-.4,1.5-.5,2.8-.4,3.9.1.7.5,1,1.2,1,5.1-.1,9.6-.8,13.3-4.6-.2-1.5-1-3-2.1-4.5,4.2,1.9,5.2,4.3,3.3,7.4-.7,1-2.4,1.8-5.3,2.5-2.1.5-4.5.7-7.3.6-3,0-5-1.2-5.9-3.6-.1-.3,0-.7.1-.9.6-.8.9-1.5,1.2-2.2.6-2.3,1.2-4.8,1.7-7.5.5-2.6,1-4.9,1.7-7.1.8-2.6,1.3-5,1.7-7.1.3-2,.7-2,1.3-.1.4,1.2.9,2.6,1.7,4.4Z"/>
        <path class="cls-8" d="M211.6,144.1c.2.3.2.6,0,.8-.2.3-.5.3-.8,0-1.8-1.6-3-3.6-3.7-6.1,0-.3,0-.5,0-.6.1-.2.3-.3.6-.3.3,0,.5.1.7.4.8,1.6,1.8,3.5,3.1,5.8Z"/>
        <path class="cls-1" d="M378,147.8c0,0,0-.1,0-.2l.6-3.6c0-.3.2-.6.5-.8.9-.5,1.9-.8,3-.8.4,0,.6.1.8.5,1.5,3,2.3,6.1,2.5,9.2,0,.3-.1.6-.4.7-1.3.5-2.3.5-3.1,0-1.2-.8-2.6-2.4-4-5Z"/>
        <path class="cls-6" d="M167.8,142.5c.3.4.5.8.6,1.2-3.3,5-3.8,10.7-5.4,15.8-.2.5-.6,1.1-1.2,1.6-.3.2-.4.5-.3.8.1.7.4,1.1,1,1.1,4.3.3,8.8-.5,13.4-2.4-3.7,3.8-8.2,4.5-13.3,4.6-.7,0-1.1-.3-1.2-1-.2-1.1,0-2.4.4-3.9.3-1.2,1.4-5.2,3.3-11.9.6-2.2,1.6-4.2,2.8-6.1Z"/>
        <path class="cls-9" d="M168.3,143.7l5.3,12.5c1.2,1.5,1.9,3,2.1,4.5-4.6,1.9-9,2.7-13.4,2.4-.6,0-.9-.4-1-1.1,0-.3,0-.6.3-.8.6-.6,1.1-1.1,1.2-1.6,1.6-5,2.1-10.8,5.4-15.8ZM172.7,157.9c-3.2,0-6.1,1-8.5,3.1,0,0,0,.1,0,.2v.3c.1.4.3.5.7.2,2.4-1.6,5.1-2,8-1.1.5-.9.8-1.9.9-2.8,0-.3-.1-.6-.4-.8l-2-1.4c-.4-.3-.8-.3-1.3,0l-6.2,3.8c0,0,0,0,0,.2l.2.3c0,.1.2.1.3,0,2.6-1.6,5.4-2.3,8.4-2.1Z"/>
        <path class="cls-4" d="M251.8,160.3c-1.2.5-2.3,1.2-3.1,2.3-.2.3-.5.4-.8.5l-2.7.5,2-.6c.3,0,.5-.3.6-.6.4-1.3,1.2-2.4,2.4-3.2.2-.2.4-.1.6.1,0,.1.2.2.3.3,0,0,.2,0,.2,0,0,0,0,0,0-.1-.3-1.1-.7-1.7-1-1.8-1.9-1-3.8-2-5.8-3-.4-.2-2.2-.3-5.4-.3-.5,0-.7.2-.5.7l1.4,4.5c.1.4.4.7.9.7l5.6.8c.2,0,.3.1.3.2,0,0,0,.2.1.2,0,0,0,.2,0,.2,0,0,0,0,0,0l-3.3,1.9c-.4.2-.7.2-1-.3l-.3-.5c-.2-.4-.4-.4-.6,0-.6,1.3-1,2.7-1.1,4.4-.2,3.5-.4,6.5-.8,9,0,0,0,.1.2.2h0c.1,0,.2,0,.2-.2l.9-4.7v3.6c-.3.4-.4.7-.3,1,.1.3.3.5.7.4,2.9-.7,5.4-2.1,7.7-4.4.8-.6,1.4-1.4,1.7-2.4,0,0,0,0,.2,0,0,0,0,0,0,0h0c0,0,0,0,0,.2l-.7,1.5c-.3.7-.2.7.2.1.2-.3.4-.5.5-.7.3-.4.4-.8.5-1.2.4-2.6.6-5.1.9-7.8.9,4.6,1.1,7.7.7,9.3-.9,3.4-3.1,5.9-6.4,7.5-2.9,1.4-5.6,1.1-7.9-.9-.2-.2-.3-.5-.3-.8.4-2.9.4-5.4.2-7.3-.2-2.4-.3-4.8-.3-7.2,0-3.2,0-5.4-.2-6.5-.2-1.8-.6-3.9-1.2-6.4-.1-.6.2-1.2.8-1.3,0,0,.2,0,.3,0,1.2,0,2.6.3,4.3.7,1.4.4,2.7,1,3.8,1.9,2.4,2.2,4.3,4.8,5.6,7.9.1.3.3.5.6.7,5.4,3.1,4.1,8.9,2.2,13.8s0,0,0,0h-.3c-.2,0-.2-.1-.2-.3,1.4-4.3,3-10.1-2.2-12.6Z"/>
        <path class="cls-9" d="M245.1,163.5c-2.2,2.2-3.6,4.9-4.2,8.1l-.9,4.7c0,.2-.1.2-.2.2h0c-.1,0-.2-.2-.2-.2.3-2.5.6-5.4.8-9,0-1.6.5-3.1,1.1-4.4.2-.4.4-.4.6,0l.3.5c.2.4.6.5,1,.3l3.3-1.9c0,0,.1-.1,0-.2,0,0,0,0,0,0,0,0,0-.2-.1-.2,0-.1-.2-.2-.3-.2l-5.6-.8c-.4,0-.7-.3-.9-.7l-1.4-4.5c-.1-.5,0-.7.5-.7,3.2,0,5,.1,5.4.3,2,.9,3.9,1.9,5.8,3,.3.2.7.8,1,1.8,0,0,0,.2,0,.2,0,0-.1,0-.1,0-.1,0-.2-.2-.3-.3-.1-.3-.3-.3-.6-.1-1.2.8-2,1.9-2.4,3.2,0,.3-.3.5-.6.6l-2,.6Z"/>
        <path class="cls-8" d="M172.8,160.7c.2-1,.2-1.9,0-2.8-3-.3-5.8.4-8.4,2.1-.1,0-.2,0-.3,0l-.2-.3c0,0,0-.1,0-.2l6.2-3.8c.4-.3.9-.3,1.3,0l2,1.4c.3.2.4.4.4.8,0,.9-.3,1.9-.9,2.8Z"/>
        <path class="cls-3" d="M366,201.5l-17.4-4.6c-2.2-1-3.7-1.6-4.5-1.7-3.8-.7-7.6-1.5-11.3-2.3-6.8-1.5-13.7-2.3-20.7-2.5-8.2-.9-15.4-4.2-21.6-10-4.3-4-7.5-8.6-9.7-13.6l-2.2-5.6c8.1.2,12.1,4.3,19.5,10.1,5.6,4.4,11.8,7.3,18.6,8.7,8.2,1.6,14.5,3,19.2,4.3,9.9,2.6,19.9,6.7,29.8,12.2.3.2.4.4.4.7v4.4Z"/>
        <path class="cls-6" d="M280.7,166.7c2.2,5.1,5.4,9.6,9.7,13.6,6.2,5.8,13.4,9.1,21.6,10,6.4,1,12.9,2.1,19.3,3.3,3.5.6,5.9,2.4,7.3,5.4,1.2,2.4,0,4.4-1.3,7.3-.5,1.2-.9,2.4-1.1,3.7-.9,4.3-2.2,8.5-4.1,12.6l1.3-5.7,3.7-16.7c.2-.7-.3-1.5-1.1-1.6,0,0,0,0-.1,0l-2.4-.2c-5.6-.9-11.5-1.2-17.7-.9l-5.9-1.4c-2.4-1.4-4.9-2.2-7.7-2.5-.4,0-.5.1-.5.5,0,.6.5,1.3,1.2,1.9l2.1,3.8c-3.1-.8-6.1-.2-8.9,1.9-4.6,3.4-8.8,6.3-12.6,8.7-.2.1-.3.3-.2.5,0,.2,0,.3,0,.5l-1.2-1.7c-.8-.8-1-1.4-.4-1.8,3.3-2.6,6.6-5.2,9.9-7.8l8.9-6.5c.3-.2.4-.7.2-1,0,0-.1-.1-.2-.2-8.5-5-14.8-12-19.2-21-.4-.8-1.3-1.1-2.1-.7-.3.1-.5.4-.7.6l-1.3,2.3c-.2.3-.2.6,0,1l1.1,1.9c.2.3,0,.8-.2,1l-3.2,2.2,2.6-2.4c.2-.2.3-.5.1-.8-.5-1.1-.7-2-.7-2.8,0-1.3-.1-1.4-.5-.1l-1.9,5.6c-1.4,2-2.4,4.2-3.1,6.5-.5,1.6-1.1,2.8-1.8,3.6-.9,1-2,1.8-3.3,2.5.6-.5,1.1-1,1.5-1.5,1.3-.9,2.4-2,3.2-3.2,0,0,0-.2,0-.2,0,0-.1-.2-.2-.2,0,0-.2,0-.3.2-.9,1.1-1.8,2.3-2.7,3.4.6-.8,1-1.6,1.3-2.3.1-.4,0-.5-.3-.2-5.2,4.5-10.3,7.7-15.5,9.4-2.9,1-6.5,2.2-10.8,3.7-3.9,1.3-7.4,2.1-10.6,2.4-3.5.3-7.1.2-10.9,0,4.8-.2,9.3-.5,13.6-.9,1.3-.1,4-1,8.1-2.6,4.1-1.6,6.6-2.4,11.7-4.1,4.9-1.6,9-4.3,12.5-8.1,1.8-2,2.6-4.9,2.4-8.7,3.1-4.2,5.1-8.8,5.9-13.9v-7c2.3,5.2,4,9.4,1.6,14.5,0,.2,0,.3,0,.4l.2.2s0,0,0,0c0,0,0,0,0,0l3.5-5.7Z"/>
        <path class="cls-10" d="M172.7,157.9c.3.9.3,1.8,0,2.8-2.9-.9-5.6-.6-8,1.1-.3.2-.5.1-.6-.2v-.3c0,0,0-.2,0-.2,2.4-2.1,5.3-3.1,8.5-3.1Z"/>
        <path class="cls-8" d="M251.8,160.3c0,1.9-.1,3.8-.4,5.7-.1.9-.2.8-.2,0,0-.8,0-1.7.2-2.5,0-.4,0-.6-.4-.6-.2,0-.4,0-.6.2-.1.1-.6.5-1.5,1.2-.2.2-.6.3-.9.2l-2.5-.8c.2,2.1-.1,3.8-.9,4.9-1.4,2.1-2.6,4.2-3.7,6.4v-3.6c.6-3.2,2-5.9,4.2-8.1l2.7-.5c.3,0,.6-.2.8-.5.8-1.1,1.9-1.8,3.1-2.3Z"/>
        <path class="cls-3" d="M275.2,164.3c-.8,5.1-2.8,9.7-5.9,13.9-2.7,3.5-5.9,6.5-9.5,9-1.4,1-2.7,1.6-3.8,2.1-1.4.5-2.7,1.1-4,1.9-1.5,1-3.6,1.8-6,2.5-8.8,2.3-17.8,3.6-27,3.7l6.2-12.4c.2-.3.4-.4.7-.4,2.9.3,5.8.6,8.7,1,7.6,1,13.8.5,19-5.1,6.2-6.7,11.7-12.2,16.7-16.5,1.9-1.6,3.5-2.1,4.9.4Z"/>
        <path class="cls-6" d="M252.4,161.7c-.2,2.6-.5,5.2-.9,7.8,0,.5-.2.9-.5,1.2-.2.2-.4.5-.5.7-.4.6-.5.6-.2-.1l.7-1.5c0,0,0-.1,0-.2h0c0,0-.1,0-.2,0h0c-.3,1-.9,1.8-1.7,2.5l1.9-6.6c.1-.4-.1-.8-.5-1-.2,0-.3,0-.5,0-1.5.6-2.9.3-4.3-.8l2.5.8c.3,0,.6,0,.9-.2.8-.7,1.3-1.1,1.5-1.2.2-.2.4-.3.6-.2.4,0,.5.2.4.6-.2.8-.2,1.7-.2,2.5,0,.9,0,.9.2,0,.3-1.9.4-3.8.4-5.7,2.4,2.8,3.1,6,2.2,9.6,0,0,0,0,0,0,0,0,0,0,0,0,0,0,0,0,0,0,.5-3,0-5.6-1.4-8.1Z"/>
        <path class="cls-10" d="M245.6,163.8c1.4,1.1,2.8,1.4,4.3.8.4-.2.8,0,1,.4,0,.2,0,.3,0,.5l-1.9,6.6c-2.2,2.2-4.8,3.7-7.7,4.4-.4,0-.6,0-.7-.4,0-.3,0-.6.3-1,1.1-2.2,2.3-4.3,3.7-6.4.8-1.2,1-2.8.9-4.9Z"/>
        <path class="cls-5" d="M358.1,173.3l3.7-3.7c.8-.8,1.7-.9,2.7-.4l2.5,1.4c.9.5,1,1.2.4,2-3.2,3.9-10,3.9-14.9,3.5-.3,0-.4-.2-.2-.5l.8-1.4c.4-.6.9-.9,1.6-.8l2.5.2c.4,0,.7,0,1-.4Z"/>
        <path class="cls-10" d="M291.5,199.8l5-4.1,2.8-2.5c.2-.2.3-.6,0-.8,0,0-.2-.1-.3-.2l-7.3-2M291.5,190.1c-1.4-1.3-2.9-2.9-4.4-4.8-2.4-3-4.4-4.9-7.2-7.1-.5-.4-1.2-.3-1.6,0-2.1,2.1-3.6,4.3-4.7,7.2-1,2.5-2.6,5.7-4.7,9.6-2.3,4.2-4.9,4.1-9.2,3.9-1.5,0-3.2.5-5.1,1.9-.4-.1-.8-.2-1.1-.1-.3,0-.5.3-.6.6l-2.6,9.1,2-8.8c.1-.5,0-.6-.5-.3-1.5.9-2.4,1.9-2.9,2.9-1.5,3.2-3.2,6.2-5.2,9.2-.2.3-.1.7.2.9,0,0,.1,0,.2,0,2.8.8,4.8-.3,6.1-3.5,0,2-.4,3.9-.8,5.6-.3,1.3-1.5,6.7-3.6,16.3-4.2,19.5-8.3,39-12.4,58.5,0,.5-.2.8-.3,1-.5,1-.9,1-1.3,0-.2-.6-.7-1.2-1.4-1.7-6.4-5-12.8-9.8-19.2-14.4l-4.4-3.5c-.5-.4-.6-1.1-.2-1.5,0,0,0,0,.1-.1,1.4-1.3,2.5-2.9,3.3-4.9,1.5-3.8,2.2-7.5,2.1-10.9,0-2.7-.8-7-2.1-12.9-1-3.1-2.4-5.9-4.1-8.4-.2-.2-.3-.6-.4-1.1.5.2.9.3,1.4.3.4,0,.5-.2.4-.5-1.5-5.6-5.8-10.3-11.9-10.5-4.4-.1-8.4,0-12.2.4-1.4.1-2.8.7-4.1,1.6-.3.2-.2.3,0,.3l7,.3c-9,.2-17.9,1.2-26.8,3.2-6.3,1.4-12.6,2.9-18.9,4.5-.3,0-.5.3-.6.7,0,.4.1.8.4,1.3l.3,2.2-9.1,2.7c-.2,0-.5,0-.5-.3,0,0,0,0,0-.1.1-4.8-.4-9,1.1-13.9l.2.8c.2.6.8.9,1.3.7.2,0,.5-.2.6-.5.5-.8.5-1.5,0-2-1.5-1.3-3.1-2.1-4.7-2.3,2.2-1,1.7-3-1.6-5.9-.2-.2-.2-.4,0-.6,3.9-2.8,8.3-3.6,13-2.2.5.2.9.3,1,.5l6.3,11.8c.2.3.4.5.5.4,2.3-.4,4.6-.9,6.9-1.5,4.8-1.3,9.6-1.8,11.7-6.8,2.6,2,5.1,2.9,7.4,2.6,2.9-.4,6.1-.9,9.8-1.3,2.7-.3,4.6-.7,5.7-1.3,5.5-2.7,9-7.8,14-11,1.2-.8,2.9-2.1,5.2-4,2.9-2.5,5.8-3.5,9.3-4.1.3,0,.6.1.6.4,0,.1,0,.3,0,.4-1.3,2.2-2.9,4.1-5,5.7-.9.7-.8,1.1.3,1.2,3.6.5,8,1.4,9.6,5.1.6,1.3,1.9,5.6,4,12.7.6,2.2,1.6,4.4,2.8,6.7.8,1.4.7,2.6-.3,3.7-.3.3-.3.9,0,1.2,0,0,0,0,0,0,1.2.8,1.8,1.3,1.9,1.5,1.3,2.1.9,2.6-1.3,1.7-2.4-1.1-5-.8-7.8.9-.2.1-.5.1-.8,0l-.2-.2c0,0,0-.2,0-.2,0,0,0,0,0,0l5.7-5.7c.3-.3.3-.7,0-1,0,0,0,0,0,0l-3.1-2.3c-.3-.2-.6-.2-.9,0l-7.9,4.6c-.3.1-.3.5-.2.7,0,0,0,0,0,.1l3,3c.2.2.3.5,0,.8-1.8,2,.2,3.6,1.8,4.6,2.5,1.6,5.8,3.7,9.8,6.3.2.1.3,0,.3-.2,0,0,0-.1,0-.4,0-.3.2-.6.5-.8,6-4.8,8.3-11.9,9.7-19.5,1.1-6.3-.2-12-5.8-15-.8-.4-1.1-1.5-.7-2.3,0,0,0-.1.1-.2l6-8.1c.2-.2.1-.3-.2-.3-.3,0-.6.1-1,.3,4.6-2.5,8.6-3.8,13.8-5.3,2.5-.7,4.6-1.7,6.4-2.7,2-1.2,4-2.5,5.9-3.8,1.3-.7,2.4-1.5,3.3-2.5.7-.7,1.3-1.9,1.8-3.6.7-2.3,1.7-4.5,3.1-6.5,0,.3.1.5.3.6l3.2-2.2c.3-.2.4-.6.2-1l-1.1-1.9c-.2-.3-.2-.6,0-1l1.3-2.3c.4-.8,1.4-1,2.2-.6.3.2.5.4.6.7,4.3,9,10.7,16,19.2,21,.3.2.5.6.2,1,0,0-.1.2-.2.2l-8.9,6.5v-9.7ZM134.2,228.4c-.7.3-.9.8-.5,1.4.7,1.2.6,2.6-.5,4.1-.2.3-.3.8-.1,1.2.1.4.3.4.5,0,.9-1.4,1.9-2.5,3.1-3.3.5-.3.8-.7.8-1.1.1-.7.1-1.2,0-1.6-.3-.6-1-1-1.9-1.1-.3,0-.7,0-1.3.3ZM218.4,261v-.4c-.2-.4-.5-.5-.9-.5-2.1.3-3.2,1.7-3.2,4.1,0,3.6,2.3,5.5,5.3,7.1.1,0,.2.2.2.4v.3c0,.2-.2.3-.3.3,0,0-.1,0-.2,0l-6.9-4c-.3-.2-.7,0-.8.2,0,0,0,.1,0,.2v.4c-.2.3,0,.6.2.8,2.7,2.2,5.2,4.7,7.6,7.5,3.1,3.5,5.9,5.7,9.8,7.7.6.3,1.3,0,1.5-.5,0,0,0,0,0-.1,1.7-4.9,1.6-9.5-.3-13.8-.3-.6-1-1-1.6-.9-.2,0-.4.2-.5.4-.1.2-.4.4-.9.4-.4,0-.7,0-.9-.2-2.2-1.7-4.7-4.2-3.6-7.3.4-1.1.6-1.8.7-2,.2-2.3-2.4-4.7-4-5.9-1.2-.9-1.5-.6-1,.8.5,1.5,1.1,3.7.3,5.2-.2.4-.4.4-.5,0Z"/>
        <path class="cls-9" d="M274.8,179.4c-.2,0-.3-.3-.3-.6l1.9-5.6c.4-1.2.6-1.2.5.1,0,.8.2,1.8.7,2.8.1.3,0,.5-.1.8l-2.6,2.4Z"/>
        <path class="cls-3" d="M210.6,188.8l-14.6,14.5-5.8-10.6-1.5-3.2-1.7-3.7c-.5-1.5-1.2-2.9-2.1-4.2-.3-.4-.8-.6-1.3-.5l-28.2,4.7c-1,.2-1.7.9-1.9,1.8l-4.2,18.7c0,.4-.5.6-.8.5,0,0-.2,0-.2-.1l-16.8-11.4c6.2-2.7,10.1-4.6,12-5.7,4.7-2.9,9.4-5.8,14.1-8.5,7.7-4.4,15.5-5.7,23.6-3.9,2.2.5,5.3,1.7,9.3,3.5,7.1,3.3,12.1,5.6,20.1,8Z"/>
        <path class="cls-1" d="M401.9,188.7l.2,12.6-.2,10.7-.7-7.9c0-.5-.2-.6-.6-.2-3,2.9-3.7,6.9-3.7,11.6-.1.8-.3,1.3-.5,1.5-.2.2-.3.2-.3-.1l.6-11.2c.9-4.4,1.5-8.8,1.6-13.3,0-3-.7-5.7-2.3-8.2.2-.6.2-1.1.1-1.5,0-.3-.3-.5-.6-.6l-22.3-4.6h-1.5c-.4-.2-.5,0-.4.4.4,1.3-.2,2.4-1.6,3.3-.3.2-.5,0-.6-.2-.5-1.2-.7-2.4-.6-3.6,0-.5.2-.6.5-.2,0,0,.1.2.2.2.2.2.4.2.5,0,2.2-4.8,7.6-4.1,11.4-1.8,2.5,1.5,4.6,1.6,7.9,2.1.3,0,.6,0,.8-.3,2.8-3.1,5.3-1,6.8,2,.7,1.3,2.5,4.4,5.4,9.4Z"/>
        <path class="cls-4" d="M373.1,177.5l22.3,4.6c.3,0,.6.3.6.6.1.4,0,.9-.1,1.5l-.2,1.2c-2.3-.7-4.8-.8-7.4-.5-1.3.2-3.4-.1-6.2-.9l-7.2-.6c-.6,0-1.1.4-1.2,1,0,.1,0,.2,0,.4,1.1,4,1.8,8.1,2.2,12.6.5,4.8.3,11.5-.6,20.1-.5,4.7-.6,8.5-2.8,12.7-.2.3-.4.4-.7.3-3-.9-5.2-2.1-6.6-3.6-7.7-8.2-13.9-15.2-22.5-20.9-.6-.4-1.4-.2-1.8.4,0,.1-.1.2-.2.3-2.2,7.1-3.1,13.3-5,21.9-1.2,5.5-2.9,10.1-5.1,13.6-.5.8-1.4,1-2.2.7-3.3-1.5-4.6-4.4-3.8-8.5l2.3,4.5c.6,1.3,1.1,1.2,1.4-.2l3.5-16.2c1.8-4,3.2-8.2,4.1-12.6.3-1.3.6-2.6,1.1-3.7,1.2-2.9,2.5-4.9,1.3-7.3-1.4-3-3.9-4.8-7.3-5.4-6.4-1.2-12.8-2.3-19.3-3.3,7,.1,13.9.9,20.7,2.5,3.8.8,7.5,1.6,11.3,2.3.8.2,2.4.7,4.5,1.7l-7.6-1.4c-1.4-.3-1.6.1-.7,1.2,6.5,7.8,13.6,15.3,21.3,22.6,0,0,.2.1.2,0,.1,0,.2-.1.3-.3l7.7,7.6c.3.3.5.3.8,0,.2-.2.3-.6.3-1.1.1-8.6.3-17.3.4-25.9,0,0,0-3.2,0-9.6,0-3.9.2-7.9.6-11.8,0-.3.2-.5.5-.5h.7Z"/>
        <path class="cls-8" d="M217.4,177.9l1.5,19.5c.2.3.4.5.7.6-.2,2.1.2,3.9,1.3,5.5.2.3.5.5.9.5,4.9.2,8.9,2,11.9,5.4.3.3.7.3,1,0,0,0,0,0,0,0l5.2-6.1c.4-.2.7-.3,1-.3.3,0,.3,0,.2.3l-6,8.1c-.6.8-.4,1.8.3,2.4,0,0,.1,0,.2.1,5.6,3,6.9,8.7,5.8,15-1.4,7.7-3.7,14.8-9.7,19.5-.3.2-.4.5-.5.8,0,.2,0,.4,0,.4,0,.2-.2.3-.3.2-4-2.6-7.3-4.7-9.8-6.3-1.6-1.1-3.6-2.6-1.8-4.6.2-.3.2-.5,0-.8l-3-3c-.2-.2-.2-.5,0-.7,0,0,0,0,.1,0l7.9-4.6c.3-.2.6-.1.9,0l3.1,2.3c.3.2.4.6.2,1,0,0,0,0,0,0l-5.7,5.7c0,0,0,.2,0,.2,0,0,0,0,0,0l.2.2c.2.2.5.2.8,0,2.7-1.7,5.3-2,7.8-.9,2.2,1,2.6.4,1.3-1.7,0-.2-.7-.6-1.9-1.5-.4-.3-.5-.8-.2-1.2,0,0,0,0,0,0,.9-1.1,1-2.3.3-3.7-1.2-2.3-2.2-4.5-2.8-6.7-2.1-7.2-3.5-11.4-4-12.7-1.6-3.7-6-4.7-9.6-5.1-1.1-.1-1.2-.6-.3-1.2,2.1-1.6,3.7-3.5,5-5.7.1-.3,0-.6-.2-.7-.1,0-.2,0-.4,0-3.5.7-6.3,1.7-9.3,4.1-2.3,1.9-4,3.3-5.2,4-5,3.3-8.5,8.4-14,11-1.1.5-3,1-5.7,1.3-3.7.4-6.9.8-9.8,1.3-2.3.3-4.8-.5-7.4-2.6-2.2-5.4-6.2-8.8-11.9-10.1-.4,0-.6-.4-.6-.8l.2-3.8c0-.5.2-.6.6-.2,4.3,4.6,11.3,9.5,18.1,9.8,5.8.2,10.6.6,16.1-1,.3,0,.4-.3.3-.6-1.2-4.4-3-7.3-5.4-8.7-1.8-1-3.3-1-4.7.1-.6.5-1,1.7-1.3,3.6-.2,1.3-.7,2.6-1.6,3.9-.2.3-.7.4-1,.2,0,0,0,0-.1,0-1.1-1-2.1-2.2-3.1-3.5-.2-.3,0-.5.4-.6.1,0,.2,0,.3,0,0,0,.1.1.2.2,0,0,0,0,0,0,3.4-1.5,4.9-6,5.6-9.7,0-.4.5-.7.9-.6.1,0,.2,0,.3.2,1.9,1.6,4.1,2.7,6.5,3.3.3,0,.7-.1.7-.5,0-.1,0-.2,0-.3l-2.7-8.6c-.1-.4,0-.6.4-.7h.4c.3-.2.6-.2.8,0l3.3,3.5,5.8,10.6c-.4.5,0,1.3,1,2.5.3,1.1.8,1.8,1.5,2.2.3.2.6.2.9,0,8-6.5,12.9-10.7,14.7-12.6,3.1-3.5,2.5-8.1.6-12-.2-.9-.6-1.5-1.2-1.9,1.6-1,2.9-2.2,3.9-3.5ZM165.5,213.2c.2.8.6,1.4,1.4,1.8l3.2,1.5c.2.1.5,0,.7,0,.2-.1.3-.3.3-.5,0-.2,0-.4-.3-.7-2.3-2.3-3.8-3.7-4.5-4.2-.6-.5-.9-.3-1,.5,0,.1,0,.7.3,1.7ZM229.8,225.8c1.8,1.3,4,2.3,6.6,3.1.4.1.9-.1,1-.6,0,0,0-.2,0-.3-.2-3-.9-5.7-1.9-8.2-.2-.5-.8-.8-1.3-.5-.1,0-.2.1-.3.2l-4.2,4.2c-.5.5-.5,1.4,0,2,0,0,.1.1.2.1Z"/>
        <path class="cls-5" d="M296.5,195.7c0-1.6-.9-2.4-2.7-2.3-5.1.2-9.2-.9-12.4-3.3-1.2-.9-3.1-1.6-4.1-.7-2.2,1.9-4.1,4.4-5.8,7.6-1.1,2-.1,4.6-.7,6.4-.5,1.8-1.5,2.5-3,2.2-1.9-.4-2.8-2.6-5-2.4-1.1,0-2.1.5-2.9,1.2-.3.2-.3.5,0,.8l4.4,5.7c-1.4-.9-2.5-1.9-3.3-3-1.2-1.6-2.2-2.8-2.9-3.5l-3.5-3.6c1.8-1.3,3.5-1.9,5.1-1.9,4.3.2,6.9.2,9.2-3.9,2.2-3.9,3.7-7.1,4.7-9.6,1.1-2.9,2.5-5,4.7-7.2.4-.4,1.1-.5,1.6,0,2.8,2.2,4.8,4.1,7.2,7.1,1.5,1.9,3,3.4,4.4,4.8M291.8,190.2l7.3,2c.3,0,.5.4.4.7,0,.1,0,.2-.2.3l-2.8,2.5-4.7-5.5Z"/>
        <path class="cls-4" d="M221,202.7c-.7-.3-.7-1.5,0-3.7.1-.4-.1-.9-.6-1,0,0-.1,0-.2,0-.2,0-.4,0-.5,0-.2,0-.5-.3-.7-.6,9.2-.1,18.2-1.4,27-3.7,2.5-.7,4.5-1.5,6-2.5,1.2-.8,2.6-1.4,4-1.9,1.1-.4,2.4-1.1,3.8-2.1,3.6-2.5,6.8-5.5,9.5-9,.2,3.8-.6,6.7-2.4,8.7-3.5,3.8-7.6,6.6-12.5,8.1-5.1,1.6-7.6,2.5-11.7,4.1-4.1,1.6-6.8,2.5-8.1,2.6-4.2.4-8.8.7-13.6.9Z"/>
        <path class="cls-8" d="M354.4,211.4l-9.8-10.4c-.3-.3-.2-.5.2-.5,1.6,0,2.7,0,3.3.3,3.3,1.3,5.9,2.2,7.9,2.7,1.9.4,3.7,1,5.3,1.6,1.9.8,3.8,1.1,5.5,1.1.9,0,1.7-.8,1.7-1.7,0,0,0-.2,0-.3-1.1-6.7-1.4-13.5-1-20.2,0-1-.3-2.1-.5-3l-.3-1.3v-.7c1.6,3.7,2.3,6.7,2.3,8.9,0,5.2,0,11-.2,17.5,0,.5-.3,1-.8,1.2-2.4,1.1-4.8,1.8-7.2,1.9-3.8.3-7.5-2.2-11-4.4-.3-.2-.6-.1-.8.2-.1.2,0,.4,0,.6,2.2,2.2,4,4.4,5.4,6.4ZM360.5,206.1l-1.6-1.6c-.2-.2-.5-.3-.7-.3-1.4.1-2.8,0-4.3-.5,0,0,0,0,0,0l-.2.3c0,.1,0,.2,0,.2l7.4,2.3c0,0,.2,0,.2-.1,0,0,0,0,0-.1-.1-.2-.3-.3-.5-.2,0,0-.2,0-.3,0Z"/>
        <path class="cls-4" d="M187.1,185.8c-3.1.8-5.3,1.3-6.3,1.5-6.5.8-12.9,2-19.3,3.5-2.1.5-4,1.3-5.8,2.5-.3.2-.5.4-.6.8-2,5.5-3.2,11-3.8,16.5,0,.3-.2.4-.5.4-2.4-.5-4.2-1.3-5.6-2.4-4.2-3.5-8.1-6-11.4-7.5l-2.1-1.7c-.3-.2-.4-.5-.3-.8l.2-3.3,16.8,11.4c.3.2.8.1,1-.2,0,0,0-.2.1-.2l4.2-18.7c.2-.9,1-1.7,1.9-1.8l28.2-4.7c.5,0,1,.1,1.3.5.9,1.3,1.6,2.7,2.1,4.2Z"/>
        <path class="cls-6" d="M354.4,211.4l7.4,7.5c0,0,.2.1.2.1,0,.2-.2.3-.3.3,0,0-.2,0-.2,0-7.7-7.2-14.8-14.7-21.3-22.6-.9-1.1-.6-1.5.7-1.2l7.6,1.4,17.4,4.6c.2,0,.4,0,.5,0,.3-.1.5-.3.5-.7v-19.7c.3.9.6,2,.6,3-.4,6.7,0,13.5,1,20.2.1.9-.5,1.8-1.4,1.9,0,0-.2,0-.3,0-1.7,0-3.6-.4-5.5-1.1-1.6-.6-3.4-1.2-5.3-1.6-2-.5-4.7-1.4-7.9-2.7-.6-.3-1.8-.4-3.3-.3-.4,0-.5.2-.2.5l9.8,10.4Z"/>
        <path class="cls-6" d="M197,205.8c.3.4.6.6.9.8.2,0,.3,0,.2-.2,0-.1,0-.3,0-.4.1-.3.4-.4.7-.4l1.2.3c.3,0,.6,0,.8-.2,2.4-2.1,7.2-6.3,7.7-8.8,0-.3.2-.6.4-.8,3.6-3.5,7.5-5.4,5.4-11.3.2-.3.3-.8.2-1.4,1.9,3.9,2.4,8.5-.6,12-1.8,2-6.6,6.2-14.7,12.6-.3.2-.6.2-.9,0-.7-.4-1.2-1.2-1.5-2.2Z"/>
        <path class="cls-7" d="M382.1,184.1c-5.5,1.3-4.9,5-2.5,8.8.4.7,1.2,1,2,1,5.5-.4,10.7-1.5,13.9-6.7.1,1.3,0,2.6,0,3.8-3,24.8-6.1,49.5-9.3,74.3l-.9,6.2c0-.6-.2-1.1-.3-1.7,0-.6-.3-1.1-.6-1.6-5.4-8.1-11.8-15-19.1-20.7-3.9-3.1-9-5.5-15.2-7.3l-9.5,33.4c-4.2-1.9-8.3-3.8-12.4-5.6-2.6-1.1-4.4-.6-5.5,1.7l-39.2-58.6s0,0,0-.1c.1-.1.1-.3,0-.5,0-.2,0-.4.2-.5,3.9-2.4,8.1-5.3,12.6-8.7,2.8-2.1,5.8-2.7,8.9-1.9l19.8,34.9c-.8,4.1.5,6.9,3.8,8.5.8.4,1.8,0,2.2-.7,2.2-3.5,3.9-8,5.1-13.6,1.9-8.6,2.7-14.9,5-21.9.2-.7.9-1.1,1.6-.8.1,0,.2,0,.3.2,8.7,5.7,14.8,12.8,22.5,20.9,1.4,1.5,3.6,2.7,6.6,3.6.3,0,.5,0,.7-.3,2.2-4.3,2.3-8,2.8-12.7.8-8.5,1-15.2.6-20.1-.4-4.4-1.2-8.6-2.2-12.6-.2-.6.2-1.2.8-1.3s.2,0,.4,0l7.2.6Z"/>
        <path class="cls-3" d="M395.7,185.5l-.2,1.7c-3.2,5.2-8.5,6.2-13.9,6.7-.8,0-1.5-.3-2-1-2.4-3.8-3-7.5,2.5-8.8,2.8.8,4.9,1.1,6.2.9,2.6-.4,5.1-.2,7.4.5Z"/>
        <path class="cls-9" d="M395.9,184.2c1.6,2.5,2.4,5.2,2.3,8.2-.1,4.5-.6,8.9-1.6,13.3l-2.7,22.3-2,14.6s0,0,0,0h0s0,0,0,0c0-1.2.1-2.5.1-3.7h0c-.1,2.5-.4,4.9-.7,7.4l-1.3,12.3c-.2,1.5-.2,1.5-.3,0,0-1,0-2.3,0-4.1,0,0,0,0,0,0h0s0,0,0,0v10.4c0,0-1.4,13.5-1.4,13.5,0,.4-.3.6-.7.6,0,0-.1,0-.2,0-1.8-.7-3.6-1.8-4.9-3.3-3-3.4-6.4-6.2-10.3-8.5l-14.8-15.6c-1.1-1.7-2.5-3.1-4.4-4.1-.3-.2-.6,0-.8.2-.9,1.3-1.5,2.7-2,4.2-3.8,14.1-7.7,27.3-11.5,39.5-.2.7-1,1.1-1.7.9-.2,0-.3-.1-.4-.2-.5-.4-1-.9-1.5-1.5-3.4-4.1-6.1-8.5-8.1-13.4l8.2,10.6c.3.3.7.4,1.1.1.1,0,.2-.2.3-.4l3.9-13.7,9.5-33.4c10.3,10.5,17.5,17.7,21.8,21.6,3.9,3.6,7.8,7.2,11.5,10.9.7,1.2,1.4,2.4,2.1,3.6.1.2.5.5.8.6.2,0,.5-.1.5-.4,0,0,0,0,0,0l-.6-11.1c3.2-24.8,6.3-49.5,9.3-74.3.2-1.2.2-2.5,0-3.8l.2-1.7.2-1.2ZM396,204.1s.1-.2.1-.5c0,0,0,0,0,0,0-.3,0-.6,0-.6,0,0-.1.2-.1.5,0,0,0,0,0,0,0,.3,0,.6,0,.6ZM392.7,233.1c.4-.9.5-1.8.3-2.8,0-.2,0-.3,0-.5,0,0,0-.2,0-.3,0-.7-.1-.7-.2,0,0,.7-.2,1.8-.4,3.5,0,0,0,.1.1.1,0,0,0,0,0,0ZM392.2,237.9s0,0,0,0,0,0,0,0,0,0,0,0h0s0,0,0,0h0Z"/>
        <path class="cls-4" d="M214.5,184.7c2.1,5.9-1.8,7.8-5.4,11.3-.2.2-.4.5-.4.8-.5,2.5-5.3,6.7-7.7,8.8-.2.2-.5.3-.8.2l-1.2-.3c-.3,0-.6,0-.7.4,0,.1,0,.3,0,.4,0,.2,0,.2-.2.2-.3-.1-.6-.4-.9-.8-1-1.2-1.4-2-1-2.5l14.6-14.5,3.9-4.1Z"/>
        <path class="cls-6" d="M187.1,185.8l1.7,3.7c-2.3-.9-4.8-1.2-7.7-.7-12.2,1.9-18.6,2.7-23.9,4.4-.4.1-.7.4-.8.8l-4,17.9c-.2,1.1-1.3,1.7-2.4,1.5-.3,0-.6-.2-.8-.4l-11.4-9c-1.6-.7-3-1.6-4.1-2.9,3.4,1.5,7.2,4,11.4,7.5,1.3,1.1,3.2,1.9,5.6,2.4.3,0,.5,0,.5-.4.6-5.5,1.8-11,3.8-16.5.1-.3.3-.6.6-.8,1.8-1.2,3.7-2,5.8-2.5,6.4-1.5,12.8-2.7,19.3-3.5,1.1-.1,3.2-.6,6.3-1.5Z"/>
        <path class="cls-9" d="M267.7,189.8c.9-1.2,1.8-2.3,2.7-3.4.1-.1.2-.2.3-.2,0,0,.1,0,.2.2,0,0,0,.2,0,.2-.8,1.2-1.9,2.2-3.2,3.2Z"/>
        <path class="cls-1" d="M296.5,195.7l-5,4.1c-3.3,2.6-6.6,5.2-9.9,7.8-.5.4-.4,1,.4,1.8.7,8.8,6.5,12.5,10.9,20.3.7,1.2,1.4,2.4,2,3.6.8,1.4,5.5,8.8,14.2,22.2,1.6,2.5,3.4,4.7,5.5,6.7l2.4,3.9c.2.3.1.5-.3.5h-.7s-52-55.6-52-55.6l-4.4-5.7c-.2-.3-.2-.5,0-.8.9-.7,1.8-1.2,2.9-1.2,2.2-.2,3,2,5,2.4,1.4.3,2.4-.4,3-2.2.5-1.8-.4-4.4.7-6.4,1.7-3.2,3.6-5.7,5.8-7.6,1.1-.9,2.9-.2,4.1.7,3.2,2.4,7.3,3.4,12.4,3.3,1.8,0,2.7.7,2.7,2.3Z"/>
        <path class="cls-9" d="M267.7,189.8c-.4.6-.9,1.1-1.5,1.5-1.9,1.4-3.9,2.6-5.9,3.8-1.8,1.1-4,2-6.4,2.7-5.1,1.5-9.2,2.8-13.8,5.3l-5.2,6.1c-.2.3-.7.3-1,0,0,0,0,0,0,0-3.1-3.4-7.1-5.2-11.9-5.4-.4,0-.7-.2-.9-.5-1.1-1.6-1.5-3.4-1.3-5.5.1,0,.3-.1.5,0,.5,0,.8.4.8.9,0,0,0,.1,0,.2-.7,2.2-.6,3.4,0,3.7,3.8.3,7.4.4,10.9,0,3.2-.2,6.7-1,10.6-2.4,4.3-1.5,7.9-2.7,10.8-3.7,5.2-1.7,10.3-4.8,15.5-9.4.3-.3.4-.2.3.2-.2.8-.7,1.5-1.3,2.3Z"/>
        <path class="cls-10" d="M309.9,195.9h-6.9c-.8-.8-1.2-1.4-1.2-2.1,0-.4.1-.5.5-.5,2.7.3,5.3,1.2,7.7,2.5Z"/>
        <path class="cls-5" d="M393.9,228l-.3,10.3c.9-.8,1.4-1.4,1.6-2,2-6.3,4.1-12.6,6.3-18.9,0-.2,0-.3-.2-.3h-.3c-.2-.1-.2,0-.3.1l-1.9,7.6h0s0,0,0,0c0,0,0,0,0,0,.4-3.6,1.4-7.1,2.9-10.4l.3-2.4.2-10.7c1.1,0,1.8-.8,2.1-2.2.4-1.8.8-3.6,1-5.4,0-.1.1-.2.3-.2,0,0,0,0,0,0h.3c.2.1.4.3.4.6-.2,4.2-.3,8.4-.9,12.7-1.2,8.8-2.2,16.4-4.2,24.4-1,3.9-1.8,7.5-2.4,10.8-.4,2.2-1,4.1-1.6,5.9-1.7,4.4-3.1,8.8-4.3,13.4,0,.2-.1.3-.2.4-.1.1-.3.2-.5.2-.3,0-.4,0-.4-.4,0-1.9.1-3.9.2-5.8,0-.1.3-1.7.8-4.7.2-1.2.2-2.4,0-3.6-.2-1.6-.3-2.7-.2-3.5.4-5.3.9-10.6,1.3-15.8Z"/>
        <path class="cls-1" d="M309.9,195.9l5.9,1.4c-.2,1.6,1.2,3.4,4.1,5.4,2.2,1.5,4.4,1.9,6.5,1.3,3.5-.9,6.3-1.4,8.3-1.3.4,0,.5.2.5.5l-1.9,13.7-1.3,5.7-3.5,16.2c-.3,1.4-.8,1.4-1.4.2l-2.3-4.5-19.8-34.9-2.1-3.8h6.9Z"/>
        <path class="cls-5" d="M333.5,198.2l-5.8-.3c-.2,0-.2,0-.2.2,0,0,.1.1.2.1,1.9.2,3.8.2,5.7,0l2.4.2c.8,0,1.3.7,1.2,1.5,0,0,0,0,0,.1l-3.7,16.7,1.9-13.7c0-.4-.1-.5-.5-.5-2.1,0-4.9.4-8.3,1.3-2.2.6-4.3.1-6.5-1.3-3-2-4.4-3.8-4.1-5.4,6.2-.3,12.1,0,17.7.9ZM326.5,198.7c0,.4,2.2.6,6.7.4,0,0,.2,0,.2,0,0,0,.1-.1.1-.2s0-.1-.1-.2c0,0-.1,0-.2,0-4.5-.4-6.7-.3-6.7,0ZM335.3,199.5c0-.1,0-.2-.2-.2l-11-.4c-.1,0-.2,0-.2.2h0c0,.1,0,.2.2.2l11,.4c.1,0,.2,0,.2-.2h0Z"/>
        <path class="cls-8" d="M333.5,198.2c-1.9.3-3.8.3-5.7,0-.1,0-.2,0-.2-.1,0-.2,0-.3.2-.2l5.8.3Z"/>
        <path class="cls-10" d="M333.5,198.9c0,0,0,.1-.1.2,0,0-.1,0-.2,0-4.5.1-6.7,0-6.7-.4,0-.4,2.3-.4,6.7,0,0,0,.1,0,.2,0,0,0,.1.1.1.2Z"/>
        <path class="cls-10" d="M324.1,198.9l11,.4c.1,0,.2.1.2.2h0c0,.1-.1.2-.2.2l-11-.4c-.1,0-.2-.1-.2-.2h0c0-.1.1-.2.2-.2Z"/>
        <path class="cls-5" d="M250.3,210.5v.6c-.1,0-.1-.1-.2-.2-1.3,3.2-3.3,4.3-6.1,3.5-.3-.1-.5-.5-.4-.8,0,0,0-.1,0-.2,2-2.9,3.7-6,5.2-9.2.5-1,1.4-2,2.9-2.9.4-.3.6-.1.5.3l-2,8.8Z"/>
        <path class="cls-6" d="M254.6,201l3.5,3.6c-4.6-.4-6.2,3.2-7.9,6.5v-.6c0,0,2.7-9.1,2.7-9.1,0-.3.3-.5.6-.6.3,0,.7,0,1.1.1Z"/>
        <ellipse class="cls-8" cx="396.1" cy="203.5" rx=".6" ry="0" transform="translate(150.3 574.8) rotate(-83.7)"/>
        <path class="cls-4" d="M258.1,204.5c.7.7,1.7,1.9,2.9,3.5.8,1,1.9,2,3.3,3l52,55.6,3.5,3.7c-4.5.1-7.9-1.5-10.5-5-1.9-2.7-3.8-5-5.5-7-10.7-12.2-20.3-22.3-30.3-33.9-5-5.8-9.7-11-13.9-15.5-.9-1-2.5-1-3.5-.1-.2.2-.4.5-.6.8-.9,2-1.5,4.2-1.9,6.8-1.3,8.7-2.8,16.4-4.5,23.4-2.7,11.4-4.2,17.8-4.5,19.5-1.5,7.5-3,15.2-4.6,23.1-.9,4.6-3.1,8.3-6.5,11.2-.3.3-.5.6-.5,1-.1,1.4.4,1.9,1.5,1.5l21.2,8.1c.4.1.8,0,.9-.4,0,0,0-.1,0-.2l1.5-16.7c0-.9.7-1.6,1.5-1.9l18.9-5.9,1.3,6.1-18.5,6.8c-.3.1-.5.4-.5.7-.2,5.5-1.1,10.9-2.7,16.3,0,.3-.3.5-.6.4l-2.5-.4c0-.1,0-.2-.1-.2,0,0,0,0,.2,0,0,0,.2,0,.2.1,0,0,.1,0,0,0-1.2-2.1-6.8-3.1-9.5-3.6-.8-.1-3.5-1.3-8-3.5-1.4-.6-3.2-1.3-4.4-1.5-.3,0-.5-.2-.4-.6,0-.3,0-.5,0-.6-.2-.3-.3-.3-.4,0,0,0,0,.1,0,.3,0,.3-.1.6-.4.9-3.3,3.2-5.2,6.9-9.6,14-.9,1.5-2.2,2.9-4,4.3-.3.2-.5.2-.6-.2l-3-6.5,1.7,1.2c.3.2.8.2,1-.2,0,0,0,0,0,0l6.4-9.9c2.6-3,4.6-6.2,6.1-9.8.3-.7,0-1.6-.8-1.9,0,0,0,0,0,0-2.8-1-5.1-2-7.6-4.1-4.1-3.4-8.3-6.6-12.8-9.5-2.4-1.6-4-2.9-4.8-4.1-1.4-2-1.6-4.2-.8-6.5-.3,3.2,2.3,6.1,7.9,8.8,6.5,4.6,12.9,9.4,19.2,14.4.7.6,1.2,1.1,1.4,1.7.4,1.1.8,1.1,1.3,0,0-.2.2-.5.3-1,4.1-19.5,8.2-39,12.4-58.5,2-9.6,3.2-15,3.6-16.3.4-1.8.7-3.6.8-5.6,0,0,0,.1,0,.2,1.7-3.4,3.4-6.9,7.9-6.5ZM234.5,297.9c0-.1,0-.2-.2-.2h0c-.1,0-.2,0-.2.2h0c0,.1,0,.2.2.2s.2,0,.2-.2Z"/>
        <path class="cls-2" d="M401.9,212.1l-.3,2.4c-2,3.5-3.4,7.3-4.2,11.4-.1.5-.4,1-.8,1.4-.3.3-.4.2-.5-.1-.2-.5-.2-1.1,0-1.7l.9-9.9c0-4.7.7-8.8,3.7-11.6.4-.3.6-.3.6.2l.7,7.9Z"/>
        <path class="cls-9" d="M360.8,206.2c.2,0,.3,0,.5.2,0,0,0,.2,0,.2,0,0,0,0-.1,0l-7.4-2.3c-.1,0-.2-.1,0-.2l.2-.3s0,0,0,0c1.5.5,2.9.6,4.3.5.3,0,.5,0,.7.3l1.6,1.6c0,0,.2,0,.3,0Z"/>
        <path class="cls-5" d="M396.6,205.7l-.6,11.2c0,.3,0,.3.3.1.2-.3.4-.8.5-1.5l-.9,9.9v-7.1c.1-.7,0-.7,0,0-1,6.1-1.4,12.4-1.1,18.8,0,0,0,.1-.1.1,0,0-.2,0-.2-.1l-.2-5.3s0,0,0,0h0s0,0,0,0l-.6,6.4.3-10.3,2.7-22.3Z"/>
        <path class="cls-1" d="M370.9,225.5c0,.5-.1.9-.3,1.1-.2.3-.5.3-.8,0l-7.7-7.6c0,0-.2,0-.2-.1v-4.4c-.1-1.5.5-2.7,1.8-3.4l4.8-2.8c1.3-.8,2-.4,2.1,1.2l.4,16.1Z"/>
        <circle class="cls-5" cx="185.5" cy="208" r="1.3"/>
        <path class="cls-7" d="M319.8,270.2l1.3,1.4c-4.8,1.5-9.7,2-14.6,1.6-5.2-.4-11.5-3.1-16-3.7-5.7-.7-11.2.2-16.5,2.8-5.3,2.6-8.6,4.3-9.8,5.2-9.6,6.5-19.4,12.7-29.6,18.5-1.1.4-1.6-.1-1.5-1.5,0-.4.2-.8.5-1,3.5-2.9,5.6-6.6,6.5-11.2,1.6-7.8,3.1-15.5,4.6-23.1.3-1.6,1.8-8.1,4.5-19.5,1.6-6.9,3.1-14.7,4.5-23.4.4-2.6,1-4.9,1.9-6.8.6-1.2,2-1.8,3.3-1.2.3.1.6.3.8.6,4.3,4.5,8.9,9.7,13.9,15.5,10,11.6,19.6,21.7,30.3,33.9,1.7,2,3.6,4.3,5.5,7,2.5,3.5,6,5.1,10.5,5ZM264.7,242.1c-.3-.4-.6-.6-.8-.6-.2,0-.3.2-.4.6-1.2,6.5-2.1,13.4-2.8,20.6-.2,1.8.2,3.2,1.1,4.2.2.2.5.4.9.4h2.7c-1.7.5-3.2.3-4.6-.5-.3-.2-.4-.4-.4-.8,0-.9,0-1.5,0-2,0-.1-.1-.2-.2-.1,0,0-.1,0-.1.1-.2,1.6,0,2.9.4,3.8.2.3.4.4.7.4,6.3-.6,13.1-1.3,18.4-4.9,1.3-1.2,1.9-2.8,1.8-4.8,0-.3-.2-.6-.5-.7l-2.8-1.6c-.2-.1-.5-.1-.7,0-.1.1-.2.3-.2.5,0,.2,0,.4.3.5,1.1.8,1.7,1.6,1.9,2.6,0,.4.3.5.5.2.1-.1.2-.3.3-.4,0-.3,0-.6-.1-.8l-.5-.7c-.3-.4-.2-.5.2-.3.9.4,1.2,1.1.9,2.2-.3,1.1-.7,2.2-1.1,3.3l-2.6,1.5v-.3c.2-.1.2-.2,0-.2h-.3s2.1-2.8,2.1-2.8c.3-.4.4-.9.2-1.3l-.5-1.7c-.2-.8-.5-.8-.7,0-1.1,3.6-4,5.9-8.8,6.8-3.1.4-5.7-.5-7.8-2.7,0,0,0,0,0-.2,0,0,0,0,0,0,0-.1,0-.1.2,0,2.1,2.2,5,2.9,8.5,2.1,3.7-.8,6.3-2.7,7.8-5.8.1-.3.1-.6-.1-.8l-7.9-9.5,2.4,1.7c.2.2.3.1.2-.2-1.9-5.4-5.1-9.7-9.8-13-.3-.2-.6-.2-.6.2l-1.8,8c0,.2,0,.3.3.3h1c.5-.1.8-.4.9-.9l.7-3.3c0-.3.3-.5.6-.6.7,0,1.1.3,1.1,1.2Z"/>
        <path class="cls-10" d="M283.3,211.1s0,0,0,.1c1.1,5.6,3.9,8.7,6.9,12.6,1.3,1.7,2.6,3.6,3.8,5.7,2.3,4.1,4.8,8,7.5,11.9,2,2.9,3.9,5.7,5.7,8.6,3.1,5.1,5.7,8,7.6,12.3-2.1-2-3.9-4.3-5.5-6.7-8.7-13.4-13.5-20.8-14.2-22.2-.7-1.2-1.4-2.4-2-3.6-4.4-7.8-10.2-11.5-10.9-20.3l1.2,1.7Z"/>
        <path class="cls-5" d="M165.5,213.2c-.2-1-.3-1.5-.3-1.7,0-.8.4-.9,1-.5.7.5,2.2,2,4.5,4.2.2.2.3.5.3.7,0,.2-.1.3-.3.5-.2.1-.5.1-.7,0l-3.2-1.5c-.7-.4-1.2-.9-1.4-1.8Z"/>
        <path class="cls-9" d="M322.5,269.8l.8,1.4-8.5-9c-2-4.3-4.5-7.2-7.6-12.3-1.8-2.9-3.7-5.8-5.7-8.6-2.7-3.8-5.2-7.8-7.5-11.9-1.2-2.1-2.4-4-3.8-5.7-3-3.9-5.8-7-6.9-12.6l39.2,58.6Z"/>
        <path class="cls-1" d="M401.5,214.5c-1.5,3.3-2.4,6.8-2.9,10.4,0,0,0,0,0,0h0s1.9-7.6,1.9-7.6c0-.2.1-.2.3-.2h.3c.2.1.2.2.2.4-2.2,6.3-4.3,12.6-6.3,18.9-.2.5-.7,1.2-1.6,2l.6-6.4s0,0,0,0h0s0,0,0,0l.2,5.3c0,.1,0,.2.2.1,0,0,.1,0,.1-.1-.2-6.5.2-12.7,1.1-18.8.1-.7.2-.7.2,0v7.1c-.2.6-.2,1.2,0,1.7.1.3.3.4.5.1.4-.5.7-.9.8-1.4.8-4.1,2.2-7.9,4.2-11.4Z"/>
        <path class="cls-9" d="M229.8,225.8c-.6-.4-.8-1.3-.3-1.9,0,0,0-.1.1-.2l4.2-4.2c.4-.4,1-.4,1.4,0,0,0,.2.2.2.3,1.1,2.5,1.7,5.2,1.9,8.2,0,.4-.3.8-.7.9,0,0-.2,0-.3,0-2.6-.7-4.8-1.7-6.6-3.1Z"/>
        <path class="cls-5" d="M205.5,232.6c-4.9-5.2-11.3-7.9-19.2-8.1l-7-.3c-.3,0-.3-.1,0-.3,1.3-.9,2.7-1.5,4.1-1.6,3.8-.4,7.8-.5,12.2-.4,6.1.2,10.4,4.9,11.9,10.5,0,.4,0,.5-.4.5-.5,0-1,0-1.4-.3Z"/>
        <path class="cls-2" d="M132.1,224.8l-2.5-3.2c1.6.2,3.1,1,4.7,2.3.5.5.6,1.1,0,2-.3.5-1,.7-1.5.3-.2-.1-.4-.3-.5-.6l-.2-.8Z"/>
        <path class="cls-6" d="M186.3,224.5c8,.2,14.4,2.9,19.2,8.1,0,.5.2.8.4,1.1l-3.4-2.4c-6.9-4.9-15.7-4.6-24-3.6-10.4,1.2-20.6,3.1-30.7,5.7-1.8.5-3.9.6-5.8.9-.4-.4-.7-.7-1.1-.9-.4-.2-.6,0-.6.4v.4c-.3-.5-.4-.9-.4-1.3,0-.4.2-.6.6-.7,6.3-1.6,12.6-3.1,18.9-4.5,8.9-2,17.9-3.1,26.8-3.2Z"/>
        <path class="cls-4" d="M202.5,231.3c-6.5-1.6-10.8-2.5-13-2.5-14.1-.2-27.8,2.5-41.4,5.9-1.5.4-3.6.2-6.1-.4,1.9-.3,4-.5,5.8-.9,10.1-2.6,20.3-4.5,30.7-5.7,8.3-.9,17.1-1.3,24,3.6Z"/>
        <path class="cls-2" d="M134.2,228.4c.6-.2,1-.3,1.3-.3.9.1,1.6.5,1.9,1.1.2.3.2.9,0,1.6,0,.4-.4.8-.8,1.1-1.2.8-2.2,1.9-3.1,3.3-.2.3-.4.3-.5,0-.1-.5,0-.9.1-1.2,1-1.6,1.2-2.9.5-4.1-.4-.7-.2-1.2.5-1.4Z"/>
        <path class="cls-7" d="M202.5,231.3l3.4,2.4c1.8,2.5,3.1,5.3,4.1,8.4,1.2,8.8-1,17.2-6.8,25-.8,2.3-.6,4.4.8,6.5.8,1.1,2.3,2.5,4.8,4.1,4.4,2.9,8.7,6.1,12.8,9.5,2.5,2.1,4.8,3.2,7.6,4.1.7.3,1.1,1.1.9,1.8,0,0,0,0,0,0-1.5,3.6-3.5,6.8-6.1,9.8-5.5-1.9-10.7-4.5-15.4-7.7-3.8-2.5-7.5-6.5-11.2-9.7-2.6-2.2-6.9-5.2-8,.4l-9.5-10.8c-.1.1-.2,0-.4-.4,5.2-1,8.6-3.9,10.1-8.8,1.3-4.3,2.2-8.9-1.5-12-1-.8-1.7-1.6-2.3-2.3-1.6-2.2-2.5-5.7-5.7-6.8-3.7-1.3-7.5-1.6-11.3-.9-.5,0-.8.6-.7,1.1,0,0,0,0,0,.1l1.8,5.1,4,14.8,13.8,50c.4,1.1-.8,1.8-3.6,2.2-4.4-5-13.5-8.8-18.2-2-.8,1.2-1.5,3.3-2.1,6.5,0-.2-.2-.3-.2-.5l-2.6-10.1-.6-2.2-19.7-72.5-.3-2.2v-.4c-.1-.5,0-.6.5-.4.4.2.8.5,1.1.9,2.5.6,4.6.8,6.1.4,13.6-3.4,27.4-6.1,41.4-5.9,2.1,0,6.5.9,13,2.5ZM166.6,233.2c-6.4.2-12.1,1.2-17,3-2.8,1-2.8,1.9.1,2.7,5.1,1.4,10.9,0,17.1-4.2.5-.3.6-.7.5-1-.1-.3-.4-.5-.7-.5Z"/>
        <path class="cls-8" d="M392.5,233c.2-1.7.3-2.9.4-3.5,0-.8.1-.8.2,0,0,0,0,.2,0,.3,0,.2,0,.3,0,.5.2,1,0,2-.3,2.8,0,0-.1,0-.2,0,0,0,0,0,0,0Z"/>
        <path class="cls-3" d="M166.6,233.2c.4,0,.6.2.7.5.1.4,0,.7-.5,1-6.3,4.2-12,5.6-17.1,4.2-2.9-.8-2.9-1.7-.1-2.7,4.9-1.8,10.6-2.8,17-3Z"/>
        <path class="cls-3" d="M269.7,248.7l-5-6.6c0-.8-.3-1.2-1.1-1.2-.3,0-.6.2-.6.6l-.7,3.3c-.1.5-.4.7-.9.8h-1c-.2.1-.3,0-.3-.2l1.8-8c0-.4.3-.5.6-.2,4.6,3.3,7.9,7.6,9.8,13,0,.3,0,.3-.2.2l-2.4-1.7Z"/>
        <circle class="cls-8" cx="392.2" cy="237.9" r="0"/>
        <path class="cls-3" d="M385.2,271.5c0,.4-.1.7-.3,1-.2.3-.4.5-.7.5-.3,0-.6,0-.9-.3-3.8-3.7-7.6-7.3-11.5-10.9-4.2-3.9-11.5-11.1-21.8-21.6,6.2,1.8,11.3,4.2,15.2,7.3,7.3,5.7,13.7,12.6,19.1,20.7.3.5.5,1,.6,1.6,0,.5.2,1.1.3,1.7Z"/>
        <path class="cls-6" d="M264.7,242.1l5,6.6,7.9,9.5c.2.3.2.5.1.8-1.6,3.1-4.2,5-7.8,5.8-3.5.8-6.4,0-8.5-2.1-.2-.2-.2-.2-.2,0,0,0,0,0,0,0,0,0,0,.1,0,.2,2.1,2.2,4.7,3.1,7.8,2.7,2.4.5,4.9.1,7.6-1.1h.3c.2,0,.2.1.1.3v.3c-.1,0-11.7,2.5-11.7,2.5h-2.7c-.3,0-.6-.2-.9-.4-.9-1-1.3-2.4-1.1-4.2.7-7.3,1.7-14.1,2.8-20.6,0-.4.2-.6.4-.6.2,0,.5.1.8.6ZM265.3,250.2c0,4.7-.6,8.7-1.6,12-.1.5.1.9.6,1.1.2,0,.3,0,.5,0l10.5-3.2c.5-.1.7-.7.6-1.1,0-.1-.1-.3-.2-.4-2.1-2.1-4.1-4.5-5.9-7-.6-.9-1.8-1.8-2.7-2.3-.6-.3-1.3-.1-1.6.4,0,.2-.1.4-.1.5ZM264.2,267.1c1.3,0,1.9,0,1.9,0,.3-.4.2-.6-.3-.5-.2,0-.7,0-1.6,0-.9,0-1.5,0-1.6,0-.5,0-.6,0-.3.5,0,0,.6,0,1.9,0Z"/>
        <path class="cls-6" d="M211.2,276c-5.6-2.7-8.3-5.7-7.9-8.8,5.7-7.9,8-16.2,6.8-25,1.3,5.9,2,10.2,2.1,12.9,0,3.5-.6,7.1-2.1,10.9-.8,1.9-1.9,3.6-3.3,4.9-.4.4-.5,1.1,0,1.6,0,0,0,0,.1.1l4.4,3.5Z"/>
        <path class="cls-4" d="M179.4,274.7c-.7-.5-.4-1.4.8-2.5-.2,0-.1-.1.2-.5.9-1,1.7-2.1,2.3-3.5,1.4-2.1,2.4-4.3,3-6.8.6-2.2.7-4.6.2-6.9,0-.3-.2-.6-.5-.8-1-.8-2-1.7-3-2.5-1.1-.9-2.5-1.4-4.1-1.6-2.8-.3-5.7-.1-8.5.5l-1.8-5.1c-.2-.5,0-1,.6-1.2,0,0,0,0,.1,0,3.8-.7,7.6-.4,11.3.9,3.2,1.1,4.1,4.6,5.7,6.8.5.7,1.3,1.5,2.3,2.3,3.7,3.1,2.8,7.8,1.5,12-1.5,4.9-4.9,7.8-10.1,8.8Z"/>
        <path class="cls-8" d="M391.3,246.2c-.3,11-1,22-2.3,33,0,.4-.3.6-.7.6-.9,0-1.8-.1-2.7-.4-.6-.2-.6-.2,0-.2h1.3c1,0,1.9-.8,1.9-1.8l.8-12.6v-10.4c0,0,0,0,0,0h0s0,0,0,0c0,1.8,0,3.1,0,4.1,0,1.5.1,1.5.3,0l1.3-12.3Z"/>
        <path class="cls-10" d="M357.3,251.4l-3-2.4c-.5-.4-1.3-.3-1.8.2,0,0,0,0,0,0-.6.9-1.1,1.9-1.5,3.2-2.2,7.9-3.7,13.9-4.7,17.8-.5,2-1.8,4.3-2.2,6.2-1.2,5.2-2.3,9.2-3.1,12.1-.5,1.9-1.5,3.6-2.8,5-.2.3-.5.3-.8,0-1.8-1.4-3-2.5-3.5-3.3-2.5-3.8-5.2-7.4-8.2-10.8-.3-.3-.7-.3-1,0,0,0,0,0,0,0l-10,11.7-5.3,5.8c-2,1-3.3.8-4-.6h2.2c.4,0,.6-.1.9-.4,1.3-1.5,2.7-2.8,4.2-4.2.6-.5,1.8-2,3.7-4.5,1.4-1.8,3.2-3.9,5.5-6.4.5-.5.9-1.2,1.2-2.1.1-.3.1-.6,0-.9l-1.6-4.5c.5-.6.4-1.3-.4-1.9l-1.3-1.4-3.5-3.7h.7c.4,0,.5,0,.3-.4l-2.4-3.9,8.5,9,3.8,5.8c2.1,4.8,4.8,9.3,8.1,13.4.5.6,1,1.1,1.5,1.5.6.5,1.4.3,1.9-.2,0-.1.2-.3.2-.4,3.8-12.2,7.6-25.4,11.5-39.5.4-1.5,1.1-2.9,2-4.2.2-.3.4-.3.8-.2,1.8,1,3.3,2.3,4.4,4.1Z"/>
        <path class="cls-5" d="M265.3,250.2c0-.6.5-1.1,1.2-1.1.2,0,.4,0,.6.1.9.5,2.1,1.4,2.7,2.3,1.8,2.6,3.8,4.9,5.9,7,.4.4.4.9,0,1.3-.1.1-.2.2-.4.2l-10.5,3.2c-.5.1-.9-.1-1.1-.6,0-.2,0-.3,0-.5,1-3.3,1.5-7.3,1.6-12Z"/>
        <path class="cls-1" d="M357.3,251.4l14.8,15.6,7.5,8.2c1.3,5.5-1.2,7.7-4.7,11.5-1.3,1.4-2.4,2.7-3.2,4-2.6,3.8-5.2,7.7-7.8,11.6-5.6,8.2-14.2,13.6-22.3,19.5-.6.5-2.3,2.3-4.9,5.5-2.5,3-4.9,5.4-8.2,6.4-3.6,1.2-7.5,2.2-11.7,3-2.9.6-5.5,1.6-8.2,2.6-3.7,1.3-9,0-11.6,0-4.1,0-6.4,1.8-9.9,3-2.5.9-6.6.6-9.2.6-3.2,0-6.9,1.4-9.2,1.7-3.1.4-8.7.2-9-4,0-.3-.2-.6-.4-.7-.9-.6-1.3-1.4-1.1-2.3.1-.6.6-1.3,1.4-2,3.1-2.8,6.1-5.6,9-8.2.9-.1,1.4-.3,1.7-.6.1-.1,0-.3,0-.4,0,0,0,0-.2,0l-6.8-.6c-.2,0-.4-.2-.4-.5,0,0,0,0,0,0v-.4c0-.4.3-.7.7-.8.8-.2,1.7-.2,2.7,0,.3,0,.6,0,.9-.2l2.7-1.9c.8-4-.7-7.2-4.5-9.8,2.6,0,4.9,1.4,7,1.8,2,.4,4,.9,5.9,1.1,3.6.4,8.9.9,10.9,2.6,4.1,3.5,8.6,6.5,13.4,9.2.4.2.7.5.8.9l3.4,9.7c0,0,.1.1.2.1l.8-.2c.4-.1.6-.4.5-.8l-2.2-10.5c-.2-1.1.1-1.4,1.1-.8,1.7,1.1,3.6,2.4,5.7,4,2,1.5,3.6,2.3,4.9,2.6,1.8.4,3.7.6,5.6.7.3,0,.4-.1.2-.4l-3.2-5.1c-.3-.4-.2-.5.1-.1l.3.3c.2.2.5.2.9,0,3.3-1.9,5.4-3.5,8.8-3.6,1.2,0,2.6-1,3-2.1,1.3-3.1,3-5.8,5.2-8,1.8-1.8,2.9-3.3,3.2-4.3,1.5-5,0-10.8-4.9-13-1.4-.6-3-1.3-4.9-2-.7-.3-1.3-.8-1.6-1.6l-1.6-4.3c-.2-.5-.5-.6-.8-.2-.2.3-.4.5-.6.5-.6.2-.9,0-1-.6,0-2.2-.5-3.5-1.4-3.9-.4-.2-.8,0-1,.3,0,0,0,.2,0,.3-.3,2.3-1.6,3.7-4,4.3-1,.2-2.9,1-5.8,2.4l10-11.7c.3-.3.7-.3,1,0,0,0,0,0,0,0,3,3.4,5.7,7,8.2,10.8.5.8,1.7,1.9,3.5,3.3.3.2.5.2.8,0,1.4-1.5,2.3-3.2,2.8-5,.8-2.8,1.8-6.9,3.1-12.1.5-1.9,1.7-4.2,2.2-6.2,1-3.9,2.6-9.8,4.7-17.8.4-1.3.8-2.4,1.5-3.2.4-.6,1.2-.7,1.8-.3,0,0,0,0,0,0l3,2.4ZM270.2,333c3.2-1.7,5.7-2.6,7.5-2.9,1.8-.3,3-1.1,3.9-2.5,0-.2.1-.3,0-.4-.2-.2-.3-.3-.5,0-.9.9-2.4,1.5-4.4,1.8-1.4.2-3.8,1.1-7.2,2.8-.3.1-.4.5-.2.8,0,0,0,0,0,0l.2.2c.2.2.5.3.7.2Z"/>
        <path class="cls-8" d="M185.6,261.6l-.3-5.7c0-.4-.2-.5-.6-.5-2.4.2-4.4-.1-6.1-1-1.9-1-3.8-2-5.7-3.2-.3-.2-.7,0-.8.2,0,0,0,.2,0,.3,0,4.9,1,9.3,3.3,13.2l5,6.8c-.3.3-.3.5-.2.5-.7.2-1.1.4-1.2.5-.4.4-1,.4-1.4,0,0,0-.2-.2-.2-.3l-3.7-7.5-4-14.8c2.8-.7,5.6-.8,8.5-.5,1.6.2,2.9.7,4.1,1.6,1,.8,2.1,1.6,3,2.5.3.2.4.5.5.8.4,2.4.3,4.7-.2,6.9Z"/>
        <path class="cls-10" d="M185.6,261.6c-.6,2.4-1.6,4.7-3,6.8-2-3.7-3.8-7.5-5.6-11.3-.6-1.3-1.5-2.6-2.3-3.7-1-1.5-1.6-1.3-1.6.5,0,3.6.6,7.3,2.2,11.2-2.3-3.9-3.4-8.3-3.3-13.2,0-.3.3-.6.6-.6.1,0,.2,0,.3,0,1.9,1.2,3.8,2.2,5.7,3.2,1.6.8,3.7,1.1,6.1,1,.4,0,.6.1.6.5l.3,5.7Z"/>
        <path class="cls-9" d="M119.8,274.5c-.3-.7-.9-1.1-1.6-1.2-.4,0-.5.1-.3.5,1.4,2.7,2.5,5.6,3.3,8.5.8,2.8,2.1,5.6,3.6,7.5.3.4.6.5,1,.4.4-.1.5-.4.4-.7-.2-.6-.7-1.9-1.4-3.8,0,0,0,0,0-.2,0,0,0-.1.2-.2,0,0,.1,0,.2,0,1.6,2.2,2.8,4.6,3.5,7.5,0,.2,0,.3-.2.2h-.3c-.4,0-.6.1-.4.5.2.5.4.8.6.9,1.2.7,1.6.4,1.1-.9,0-.2-.1-.6-.2-1.2-.1-.7,0-.7.5-.2,4,5.2,4.3,11.1,12.3,12.5l4.1,6.3c.8,3.6,2.6,7.4,5.4,11.2l-8.6-8c-.9-3.2-2.4-4.8-4.5-4.7-9.6-10.8-17.7-22.6-24.2-35.5-.4-.8-1.2-2.6-2.3-5.3-.7-1.8-1.6-3.5-2.5-5.2.8-3.7-.6-6.4-2.3-10.1-.1-.3,0-.6.2-.7h.2c.3-.3.5-.2.7,0,1.8,3.4,4,8,6.5,13.9.8,1.9,2.2,3.7,4.3,5.4.1.1.3,0,.4,0,0,0,0-.2,0-.3l-2.2-3.8c-.1-.2,0-.4,0-.5l.3-.3c.2-.2.4-.2.6,0,1.5,2.2,2,4.7,1.6,7.4ZM141.2,306.3c.3-.3.2-.8-.2-1.2-.4-.4-.9-.5-1.2-.3-.3.3-.2.8.2,1.2.4.4.9.5,1.2.3Z"/>
        <path class="cls-5" d="M182.7,268.3c-.6,1.3-1.4,2.5-2.3,3.5l-5-6.8c-1.5-3.9-2.2-7.6-2.2-11.2,0-1.8.6-2,1.6-.5.8,1.1,1.7,2.4,2.3,3.7,1.8,3.8,3.6,7.6,5.6,11.3Z"/>
        <path class="cls-8" d="M218.9,261c.8-1.4.2-3.6-.3-5.2-.5-1.4-.1-1.6,1-.8,1.6,1.2,4.2,3.7,4,5.9,0,.2-.2.9-.7,2-1.1,3.1,1.4,5.6,3.6,7.3.3.2.6.3.9.2.4,0,.7-.2.9-.4.3-.5,1-.6,1.6-.2.2.2.4.4.5.6,1.8,4.3,1.9,8.9.3,13.8-.2.6-.9.9-1.5.7,0,0,0,0-.1,0-4-2-6.8-4.2-9.8-7.7-2.4-2.7-5-5.2-7.6-7.5-.3-.2-.3-.5-.3-.8v-.4c.2-.3.5-.5.8-.5,0,0,.1,0,.2,0l6.9,4c.2,0,.3,0,.4-.1,0,0,0-.1,0-.2v-.3c0-.2,0-.3-.2-.4-3-1.6-5.4-3.5-5.3-7.1,0-2.4,1.1-3.8,3.2-4.1.4,0,.6,0,.8.5v.4c.3.4.4.4.6,0Z"/>
        <path class="cls-4" d="M279.6,263.5c.4-1.1.8-2.2,1.1-3.3.3-1.1,0-1.8-.9-2.2-.4-.2-.5-.1-.2.3l.5.7c.2.3.2.5.1.8,0,.2-.1.3-.3.4-.3.3-.5.2-.5-.2-.2-1-.8-1.9-1.9-2.6-.2-.1-.3-.3-.3-.5,0-.2,0-.3.2-.5.2-.2.4-.2.7,0l2.8,1.6c.3.2.4.4.5.7.2,2-.4,3.6-1.8,4.8Z"/>
        <path class="cls-4" d="M276.7,264.5c-2.7,1.2-5.3,1.6-7.6,1.1,4.8-1,7.7-3.2,8.8-6.8.2-.8.5-.8.7,0l.5,1.7c.1.5,0,1-.2,1.3l-2.1,2.7Z"/>
        <path class="cls-4" d="M279.6,263.5c-5.3,3.6-12.1,4.2-18.4,4.9-.3,0-.6,0-.7-.4-.5-.9-.7-2.2-.4-3.8,0-.1.1-.2.2-.1,0,0,.1,0,.1.1,0,.4,0,1.1,0,2,0,.3.1.6.4.8,1.4.8,2.9,1,4.6.5l11.6-2.5,2.6-1.5Z"/>
        <path class="cls-9" d="M180.2,272.2c-1.2,1.1-1.4,2-.8,2.5.1.4.3.6.4.4l1.1,1.8c0,.2.1.4,0,.5l-.5,2.3c0,.3,0,.6.3.8.4.3.9,1,1.8,2.1.5.7,1.1,1.3,1.9,1.9,1.6,1.3,2.9,2.6,3.9,4,.6.8,2.2,1.6,3,2.6,3,3.5,5.9,6.9,8.9,10.4-.7-.6-1.5-.7-2.2-.5-.4.1-.5.3-.5.7l.7,4.2c0,.2,0,.4-.3.4l-9.3,2.3c-1.7.4-1.8,1-.3,1.9l4.1,2.3c.2.1.3.4.1.5,0,0,0,0-.1.1l-2.4,1.6c-.2.1-.4.4-.4.6,0,.7,0,1.4.3,2.1l.8,1.4c-.8-.4-1.2-.9-1.3-1.2-.4-1.3-1-2.3-1.9-3l-13.8-50,3.7,7.5c.2.5.8.7,1.3.4.1,0,.2-.1.3-.2,0,0,.5-.3,1.2-.5Z"/>
        <path class="cls-6" d="M386.1,265.3l.6,11.1c0,.2-.2.5-.4.5,0,0,0,0,0,0-.3,0-.6-.3-.8-.6-.7-1.2-1.3-2.4-2.1-3.6.3.2.6.3.9.3.3,0,.5-.2.7-.5.1-.3.2-.6.3-1l.9-6.2Z"/>
        <path class="cls-3" d="M321.1,271.6c.8.6.9,1.3.4,1.9l-15.1,17.6c-.9,1-1.8,1-2.6,0l-7.1-8.4-5.8-7c-.3-.4-.9-.5-1.4-.4l-10.9,3.6-18.9,5.9c-.8.3-1.4,1-1.5,1.9l-1.5,16.7c0,.4-.4.7-.8.6,0,0-.1,0-.2,0l-21.2-8.1c10.2-5.8,20-12,29.6-18.5,1.3-.9,4.5-2.6,9.8-5.2,5.4-2.6,10.9-3.6,16.5-2.8,4.5.6,10.8,3.2,16,3.7,4.9.4,9.8-.1,14.6-1.6Z"/>
        <path class="cls-3" d="M340.4,273.6l-3.9,13.7c-.1.4-.5.6-.9.5-.2,0-.3-.1-.4-.3l-8.2-10.6-3.8-5.8-.8-1.4c1.1-2.3,2.9-2.8,5.5-1.7,4.1,1.8,8.2,3.7,12.4,5.6Z"/>
        <path class="cls-4" d="M264.2,266.6c.9,0,1.5,0,1.6,0,.5,0,.6.1.3.5,0,0-.6,0-1.9,0-1.3,0-1.9,0-1.9,0-.3-.4-.2-.6.3-.5.2,0,.7,0,1.6,0Z"/>
        <path class="cls-8" d="M119.8,274.5c0,0,0,.2,0,.2l3.1,3.6c.2.3.5.3.8,0,5.3-4.4,6.5,2.6,9.4,5,2.5,2.1,6.8,3.1,8.2,7.7,1.1,3.4,2.5,6.8,4.1,10,.1.3.3.4.6.3l5.5-.5c.5,0,.6.1.2.5-1.3,1.3-3.2,1.7-5.5,1.2-.4,0-.7-.3-.8-.5l-1.8-3.6c0-.1,0-.1,0,0l.4,3.9c0,.3.2.6.5.7,1,.4,2.1.5,3.3.5l4.1,1.5c.6.2.8.5.8.8,0,0,0,0,0,.1,0,0-.3-.1-.9-.6-.4-.3-.9-.5-1.4-.4-.6,0-.6.1,0,.3.4,0,.7.2.9.4.1,0,.2.2.2.3,0,.1,0,.2,0,.3-.2.2-.2.5,0,.8l2.4,3.6c.2.3.3.3.4,0l.2-1c0-.4.3-.6.7-.5h2.1c1.4.1,2.4,1.4,2.3,2.9,0,.2,0,.4-.1.7-.2.6-.9,1.1-2.2,1.4-.7.2-.7.4-.1.7l3.8,2.2c.2.1.5,0,.7-.2,0,0,0-.2,0-.3l-.5-5.2,2.6,10.1c.2.8.5,1.2.9,1.2l-.4,3.2c-.1.7.4,1.4,1.2,1.6,3.6.5,7.2,0,10.8-1.6l1.9-.7c.3,0,.3,0,0,.2l-.2.2c-.2.2-.2.3,0,.3,0,0,.1,0,.3-.2.8-.4,1.9-.8,3.2-1.1,0,0,0,0,.2,0,.1,0,.1.2,0,.2-1.6.6-3.4,1.4-5.6,2.4-.5.2-.8.8-.5,1.4,0,0,0,0,0,0l2.2,3.8c.2.3.1.6-.2.7-1.4.5-1.9,1.5-1.5,3,.3,1.1,0,1.4-1,.8-1-.6-2.2-1.1-3.8-1.5-.6-.2-.7,0-.2.5,1.1,1,2.7,2.1,5,3.3,5.9,3.1,11.7,6.1,17.4,8.9,1.4.7,3.1,1.3,5.1,1.8,1.1.3,2.1.8,2.9,1.4,1.1.8,2.9.8,4.3,1.4,1.2.5,3.1,1.2,5.7,1.9,3.4.9,5.2,1.3,5.3,1.4,10.5,2.9,21.4,4.5,32.8,4.7.5,0,1,.4,1.1.9,0,0-.2.2-.5.4-.5.1-1,.1-1.5.1-29.7-1.7-57.1-11-82.3-27.8-2.2-1.5-3.6-2.6-4.3-3.3l-10.3-8.6c-2.8-3.9-4.6-7.6-5.4-11.2.5-3.9-1.3-6.6-5.5-8,0,0,0,0,0,0,0,0,0,0,0,0,0,0,0,0,0,0,0,0,0,0,0,0,.7.3,1.3,1,1.5,1.6-8-1.3-8.3-7.3-12.3-12.5-.4-.5-.6-.5-.5.2,0,.6.2,1,.2,1.2.4,1.3,0,1.6-1.1.9-.2-.1-.4-.4-.6-.9-.2-.4,0-.6.4-.6h.3c.2,0,.3,0,.2-.2-.7-2.8-1.9-5.3-3.5-7.5,0,0,0,0-.2,0,0,0-.1.1-.2.2,0,0,0,.1,0,.2.8,1.9,1.2,3.2,1.4,3.8.1.4,0,.6-.4.7-.4.1-.7,0-1-.4-1.5-1.9-2.8-4.7-3.6-7.5-.8-2.9-1.9-5.8-3.3-8.5-.2-.4,0-.5.3-.5.7,0,1.2.5,1.6,1.2ZM135,288.9c.3-.2,0-1.2-.7-2.3h0c-.7-1-1.5-1.7-1.9-1.4,0,0,0,0,0,0-.3.2,0,1.2.7,2.3h0c.7,1,1.5,1.7,1.9,1.4,0,0,0,0,0,0ZM136.9,292.8c0,0,0-.4-.3-.6,0,0,0,0,0,0-.2-.2-.5-.3-.6-.2h0c0,0,0,.4.3.6,0,0,0,0,0,0,.2.2.5.3.6.2h0ZM148.3,305.7c-.9-.9-1.4-1.3-1.6-1.4-.4-.2-.6-.1-.6.3v3.4c0,.1.2.2.3.2h0c.1,0,.2,0,.2-.3,0-.4,0-.8,0-1,.2-.3.4-.4.8-.4.6,0,1,0,1.2-.2,0,0,.1-.2,0-.3,0,0,0,0,0,0-.2,0-.4-.2-.4-.2ZM149.5,311.9c1,1,2.1,1.9,3.1,2.5,1.3.8,2.2.9,2.4.4.2-.4-.1-1.3-.8-2.4-1.4-2.1-3.9-4.3-5.6-5-.3-.1-.6-.2-.8-.2-.3,0-.4,0-.6.2-.2.2-.2.5,0,.9.2.9,1.2,2.3,2.4,3.6ZM155.4,312.4c.7.7,1.3,1.1,2,1.2.2,0,.4-.1.4-.3,0,0,0,0,0,0,.2-1.8.2-2.8,0-3.1-.3-.3-1.3-.4-3.1-.3-.2,0-.4.2-.4.4,0,0,0,0,0,0,0,.7.4,1.3,1.1,2Z"/>
        <path class="cls-9" d="M321.4,273.5l1.6,4.5c.1.3.1.6,0,.9-.3.9-.7,1.6-1.2,2.1-2.3,2.4-4.2,4.6-5.5,6.4-1.9,2.5-3.1,4-3.7,4.5-1.5,1.3-2.9,2.7-4.2,4.2-.2.3-.5.4-.9.4h-2.2c-.2-.7-.5-1.2-.8-1.5-3.9-4.2-7.8-8.5-11.8-12.7-.2-.2-.5-.3-.8-.3l-2.7.3c-.8,0-1.8.2-2.8.7l5.4-2.9c.3-.2.6-.2.9,0l3.8,2.6,7.1,8.4c.9,1,1.8,1,2.6,0l15.1-17.6Z"/>
        <path class="cls-6" d="M189.3,285.9l25.5,25.9,3,6.5c.1.3.3.4.6.2,1.8-1.4,3.1-2.8,4-4.3,4.4-7.1,6.3-10.8,9.6-14,.3-.2.4-.5.4-.9,0-.2,0-.3,0-.3,0-.3.2-.3.4,0,0,.2.1.4,0,.6,0,.3,0,.5.4.6,1.2.2,3.1.9,4.4,1.5,4.6,2.2,7.2,3.3,8,3.5,2.7.5,8.2,1.5,9.5,3.6,0,0,0,.1,0,0,0,0-.2,0-.2-.1-.1,0-.2,0-.2,0,0,0,0,.1.1.2l-1.2-.2-11.1-4-3.7-1.3-6-2.3c-.3-.1-.6,0-.9.2-2.2,2.5-4.1,5.3-5.6,8.3-1.7,3.3-4.3,6.5-6.6,9.1-.7.8-1.9.9-2.7.2-.2-.2-.4-.4-.5-.6-1.3-3-3.3-5.6-6-7.8-2.6-1.9-4.8-4.1-6.6-6.6-.5-.7-1.1-1.2-1.6-1.5-.6-.3-1.3-.7-2.1-1-3-3.4-6-6.9-8.9-10.4-.8-1-2.4-1.8-3-2.6-1-1.4-2.3-2.8-3.9-4-.8-.6-1.4-1.2-1.9-1.9-.8-1.1-1.4-1.8-1.8-2.1-.3-.2-.4-.5-.3-.8l.5-2.3c0-.2,0-.4,0-.5l-1.1-1.8,9.5,10.8Z"/>
        <path class="cls-5" d="M268.6,327.2c-2.9,2.6-5.9,5.4-9,8.2-.8.8-1.3,1.4-1.4,2-.2,1,.2,1.7,1.1,2.3.3.2.4.4.4.7.3,4.2,5.9,4.4,9,4,2.4-.3,6-1.6,9.2-1.7,2.5,0,6.7.2,9.2-.6,3.5-1.2,5.8-2.9,9.9-3,2.6,0,7.9,1.4,11.6,0,2.7-1,5.2-2,8.2-2.6,4.1-.8,8-1.8,11.7-3,3.3-1.1,5.7-3.4,8.2-6.4,2.7-3.2,4.3-5.1,4.9-5.5,8.1-5.9,16.7-11.2,22.3-19.5,2.7-3.9,5.3-7.7,7.8-11.6.9-1.3,1.9-2.6,3.2-4,3.5-3.8,6-6,4.7-11.5,1.6,3.8,1,7.5-1.6,11.1-5.7,7.7-12.2,15.5-19.3,23.4-4.5,5-9.8,8.8-15.4,13.4-1.7,1.4-3.1,2.7-4.3,4-3.9,4.2-7.2,6.8-12.9,8.3-7,1.8-11,3-11.8,3.6-3.1,1.9-5.3,3-6.5,3.2-4.9.8-9.8,1.7-14.7,2.7-2.5.5-8.5.7-18.1.7-.3,0-1.2.2-2.7.7-2.8.9-4.5.3-8.5,0-4.3-.4-8.6,1.6-12.5,2.7-2.5.7-4.6.4-6.3-.7-.3-.2-.4-.4-.5-.7l-1.4-4.6c0-.3,0-.5.3-.5h8.3c.4,0,.6-.2.8-.5.2-.4.3-.9.2-1.5,0-.3-.2-.5-.5-.6-1.1-.2-2.1-.3-3.1-.5-.5,0-.8-.3-.8-.7,0-.3,0-.6.4-.7,1.2-.6,2-1,2.2-1.1.6-.4.5-.6-.2-.5-2,.4-4.3,1.2-6.9,2.6-.4.2-.8,0-1-.3l-.6-1.1c-.3-.5-.1-1.2.4-1.5,0,0,0,0,.1,0l7.5-3.2c.2,0,.2-.3.2-.4,0,0,0,0-.1-.1l-2.4-1.7c-.3-.2-.4-.5-.4-.9.5-3.3,1.7-5.9,3.4-7.9.3-.4.5-.3.7,0,.7,1.5,1.5,2.6,2.3,3.5.3.3.2.5,0,.7-.2.1-.6.2-1.2,0-.1,0-.2,0-.3,0-.1,0-.2.2-.3.3,0,.1,0,.3,0,.4,2,2,4.5,2.9,7.5,2.8.3,0,.6-.1.9-.3,2.4-2,5.2-2.7,8.4-2Z"/>
        <path class="cls-6" d="M296.6,282.8l-3.8-2.6c-.3-.2-.6-.2-.9,0l-5.4,2.9-6.7,2.2-1.3-6.1,10.9-3.6c.5-.2,1,0,1.4.4l5.8,7Z"/>
        <path class="cls-10" d="M140.8,279.6c0,.1,0,.2-.2.2h0c-1,0-1.8-.9-1.8-1.9,0,0,0,0,0,0h0c0-1.2.9-1.9,1.9-1.9h0c.1,0,.2,0,.2.2,0,0,0,0,0,0v3.4Z"/>
        <ellipse class="cls-8" cx="145.1" cy="277.5" rx=".2" ry=".3" transform="translate(-90.5 71.2) rotate(-21.2)"/>
        <path class="cls-3" d="M223.9,302.9l-6.4,9.9c-.2.3-.7.4-1,.2,0,0,0,0,0,0l-1.7-1.2-25.5-25.9c1.1-5.5,5.4-2.6,8-.4,3.7,3.2,7.5,7.2,11.2,9.7,4.7,3.2,9.9,5.8,15.4,7.7Z"/>
        <path class="cls-5" d="M305.3,296.5l-11.2-10.4c-.2-.2-.4-.2-.6,0l-7.3,13.6c-3-1.2-4.4-2.6-4.3-4l7-6.1c.3-.2.4-.5.4-.8v-6.6c0,0,2.8-.3,2.8-.3.3,0,.6,0,.8.3,3.9,4.3,7.8,8.5,11.8,12.7.3.3.5.8.8,1.5Z"/>
        <path class="cls-2" d="M265.4,312c-1.1-.1-2.1-.6-3-1.4-.4-.3-.5-.7-.5-1,0-.4.2-.6.6-.5l.8.2c2.3,1,4.7,1.4,7.2,1.3,4.6,1.5,8.1,1.9,10.5,1.4,4.3-.9,8.6-1.4,13-1.4.4,0,.5-.2.4-.6-1.1-5.1-2.1-9.9.4-14.6,1.6-2.9,4-3.5,6.6-1.5.8.6,2.1,1.8,3.8,3.5.7.7,1.3,1,1.8,1.1.9,0,1.6-.3,2.1-1.3l5.3-5.8c2.9-1.3,4.8-2.1,5.8-2.4,2.4-.6,3.7-2,4-4.3,0-.4.4-.7.9-.7,0,0,.2,0,.3,0,.8.4,1.3,1.7,1.4,3.9,0,.6.3.9,1,.6.2,0,.4-.2.6-.5.3-.4.6-.3.8.2l1.6,4.3c.3.7.9,1.3,1.6,1.6,1.9.7,3.5,1.3,4.9,2,4.9,2.2,6.4,8,4.9,13-.3,1-1.4,2.4-3.2,4.3-2.2,2.2-3.9,4.9-5.2,8-.4,1.1-1.8,2-3,2.1-3.4.2-5.6,1.8-8.8,3.6-.3.2-.6.2-.9,0l-.3-.3c-.4-.3-.4-.3-.1.1l3.2,5.1c.2.3.1.4-.2.4-2,0-3.8-.3-5.6-.7-1.3-.3-2.9-1.1-4.9-2.6-2.2-1.6-4.1-2.9-5.7-4-1-.6-1.3-.4-1.1.8l2.2,10.5c0,.4,0,.7-.5.8l-.8.2c0,0-.2,0-.2-.1l-3.4-9.7c-.1-.4-.4-.7-.8-.9-4.8-2.6-9.3-5.7-13.4-9.2-2-1.7-7.4-2.2-10.9-2.6-1.9-.2-4-.7-5.9-1.1-2.1-.4-4.3-1.8-7-1.8ZM315.3,311.7c0-.2-.2-.4-.4-.5-2.6-.6-4.9-.8-7.1-.5-5.1.8-6.7,4.7-7.6,9.3-.1.7.3,1.3,1,1.5.1,0,.2,0,.3,0,5.3-.4,9.9-2,14-4.9.5-.3.7-.9.6-1.5l-.7-3.5Z"/>
        <path class="cls-8" d="M289.3,282.3v6.6c0,.3-.2.6-.4.8l-7,6.1c-3.6,2.5-6.9,5.6-9.9,9.4-.2.3-.5.4-.9.3l-8.9-2c-.6-.1-1.2.2-1.4.8,0,.2,0,.4,0,.6.6,1.5.3,2.5-1,3-.5.2-.6.5-.3.9l.9,1.3c.1.2,0,.3-.2.4-4.1,1.3-8.2,1.3-12.4-.2,0,0,0,0,0-.1v-.2s.1,0,.3,0l11.7.9c0,0,.1,0,.1-.2,0,0,0,0,0-.1,0,0,0-.2,0-.3,0-.2,0-.2-.2-.1-.6.4-1.4.5-2.3.4-3.8-.4-7.7-1.4-11.5-3-.5-.2-.6,0-.4.4v.3c.3.4.2.5-.2.2-1.1-.8-1.9-1.8-2.7-3.1l-3.7-1.9,3.7,1.3c4.9,3,10.2,4.8,15.9,5.6,0,0,.2,0,.2,0l.3-.3c.1-.1.1-.2,0-.2l-5.3-1,1.2.2,2.5.4c.3,0,.6,0,.6-.4,1.5-5.4,2.4-10.8,2.7-16.3,0-.3.2-.6.5-.7l18.5-6.8,6.7-2.2c1-.4,1.9-.7,2.8-.7Z"/>
        <ellipse class="cls-10" cx="133.7" cy="287" rx=".7" ry="2.2" transform="translate(-138.8 125.7) rotate(-34.4)"/>
        <path class="cls-1" d="M305.3,296.5c.6,1.4,2,1.6,4,.6-.5,1-1.2,1.4-2.1,1.3-.6,0-1.2-.4-1.8-1.1-1.7-1.7-3-2.9-3.8-3.5-2.6-1.9-5-1.3-6.6,1.5-2.6,4.7-1.6,9.5-.4,14.6,0,.4,0,.5-.4.6-4.4,0-8.7.5-13,1.4-2.4.5-5.9,0-10.5-1.4,3.4-1.8,7-3.2,10.9-4.1.1,0,.1,0,.1-.2,0-.1,0-.2-.2-.2-1.5,0-3.1.2-4.8.6-.3,0-.4,0-.5-.2-.1-.3,0-.5.2-.7,1.8-1.1,3.9-1.8,6.3-2.1,1.1-.2,1.9-.6,2.4-1.2.5-.7.9-1.6,1.1-2.7l7.3-13.6c.2-.3.4-.3.6,0l11.2,10.4Z"/>
        <ellipse class="cls-10" cx="136.5" cy="292.4" rx=".2" ry=".6" transform="translate(-172.1 198.2) rotate(-48)"/>
        <circle class="cls-8" cx="144.7" cy="297" r=".2"/>
        <circle class="cls-9" cx="234.3" cy="297.9" r=".2"/>
        <ellipse class="cls-10" cx="147.7" cy="298.6" rx=".7" ry="1.2" transform="translate(-179.6 236.3) rotate(-52.9)"/>
        <path class="cls-10" d="M156.8,304.8l2.6,2.7.9,1.4.6,2.2.5,5.2c0,.3-.2.5-.4.5,0,0-.2,0-.3,0l-3.8-2.2c-.6-.3-.6-.6.1-.7,1.3-.3,2.1-.8,2.2-1.4.4-1.5-.3-3-1.6-3.4-.2,0-.4,0-.6-.1h-2.1c-.4,0-.6.1-.7.5l-.2,1c0,.3-.2.4-.4,0l-2.4-3.6c-.2-.3-.2-.5,0-.8,0,0,0-.2,0-.3,0-.1-.1-.2-.2-.3-.3-.2-.6-.3-.9-.4-.6-.1-.6-.2,0-.3.6,0,1.1,0,1.4.4.6.5.9.7.9.6s0,0,0-.1c0-.4-.2-.6-.8-.8l-4.1-1.5h3.3c.2,0,.3-.2.2-.4,0-.1-.1-.3,0-.5.1-.4.3-.5.6,0l.3.4c.1.2.1.2,0,0-.1-.4-.2-.8-.1-1.2,0-.2.3-.4.5-.3,0,0,.1,0,.2,0l4.1,3.3Z"/>
        <path class="cls-9" d="M238.8,303.5l3.7,1.9c-3,.2-6,.8-7.9-2.1-.2-.4-.8-.5-1.1-.2,0,0,0,0-.1.1l-4.8,4.9c-.7.7-.7,1.9,0,2.7,0,0,.1.1.2.2l5.8,4.4c3,1.7,4.2,4,3.7,6.8-.4,2.3-2.9,6.6-5.9,6.9-1.2,0-1.9,0-2.2-.1-2.4-1.4-5.1-2.4-8-2.9-3.2-.5-5.1-.9-5.8-1.3-2.4-1.4-3.3-3.8-2.7-7.2.1-.7-.2-2.2-.9-4.4l-2-2.5c2.7,2.2,4.7,4.8,6,7.8.4,1,1.6,1.4,2.5.9.2-.1.5-.3.6-.5,2.3-2.6,4.9-5.8,6.6-9.1,1.5-3,3.4-5.8,5.6-8.3.2-.3.5-.3.9-.2l6,2.3Z"/>
        <path class="cls-10" d="M145.9,311l-4.1-6.3c-.2-.6-.7-1.3-1.5-1.6,0,0,0,0,0,0,0,0,0,0,0,0,0,0,0,0,0,0,0,0,0,0,0,0,4.2,1.4,6,4.1,5.5,8Z"/>
        <path class="cls-9" d="M148.7,305.9s0,0,0,0c0,0,0,.2,0,.3-.2.2-.6.3-1.2.2-.3,0-.6,0-.8.4-.1.3-.2.6,0,1,0,.2,0,.3-.2.3h0c-.2,0-.2,0-.2-.2v-3.4c0-.4,0-.5.5-.3.1,0,.7.5,1.6,1.4,0,0,.2.1.4.2Z"/>
        <ellipse class="cls-6" cx="140.5" cy="305.5" rx=".7" ry="1" transform="translate(-171.9 181.2) rotate(-43.6)"/>
        <path class="cls-8" d="M159.4,307.6l-2.6-2.7,2.6,2.7Z"/>
        <path class="cls-9" d="M253.6,308.8l5.3,1c.2,0,.2.1,0,.2l-.3.3c0,0-.1,0-.2,0-5.7-.8-11-2.6-15.9-5.6l11.1,4Z"/>
        <path class="cls-9" d="M154.2,312.4c-1.8-1.4-3.7-2.3-5.7-2.8-.3,0-.4,0-.1.2.5.6.9,1.2,1.2,2-1.3-1.3-2.2-2.7-2.4-3.6,0-.4,0-.7,0-.9.1-.1.3-.2.6-.2,1.3,0,3.8,1.9,5.6,4.1.3.4.6.7.8,1.1Z"/>
        <path class="cls-6" d="M154.2,312.4c.7,1.1,1,1.9.8,2.4-.2.5-1.1.4-2.4-.4-1-.6-2.1-1.5-3.1-2.5-.3-.7-.7-1.4-1.2-2-.2-.2-.2-.3.1-.2,2,.5,3.9,1.4,5.7,2.8Z"/>
        <path class="cls-5" d="M263.3,309.3l-.8-.2c-.4-.1-.6,0-.6.5,0,.4.2.7.5,1,.9.8,1.8,1.2,3,1.4,3.9,2.5,5.4,5.8,4.5,9.8l-.6-4.8c0-.7-.7-1.2-1.4-1.1-.2,0-.3,0-.5.2l-9.2,5.3c-.4.2-.8,0-1-.3,0-.2-.1-.3,0-.5l1.2-5.3c.1-.7.5-1.1,1.2-1.3l2.8-.9c.5-.2.6-.4.3-.9l-2.1-3.1c-.3-.4-.2-.6.3-.5.7,0,1.5.3,2.3.8Z"/>
        <path class="cls-8" d="M142.8,314.2l-4.5-4.7c2.1,0,3.5,1.5,4.5,4.7Z"/>
        <path class="cls-5" d="M242.4,309.2c0-.2,0-.4.3-.4.4,0,.7.2,1,.4.5.4.7.9.5,1.3-.1.4-.4.5-.7.4-.6-.1-1-.8-1.1-1.8Z"/>
        <path class="cls-1" d="M315.3,311.7l.7,3.5c.1.6,0,1.1-.6,1.5-4.1,2.9-8.7,4.6-14,4.9-.7,0-1.3-.5-1.3-1.2,0-.1,0-.2,0-.3.9-4.6,2.5-8.5,7.6-9.3,2.2-.3,4.5-.2,7.1.5.2,0,.4.2.4.5ZM305.4,319.2l6-2.1c.6-.2.9-.9.7-1.5,0,0,0,0,0,0l-.2-.6c-.6-1.7-2.3-2.7-3.8-2.2l-2.8,1c-1.5.5-2.2,2.4-1.6,4.1l.2.6c.2.6.9.9,1.5.7h0Z"/>
        <path class="cls-5" d="M157.7,310.2c.3.3.3,1.3,0,3.1,0,.2-.2.4-.4.3,0,0,0,0,0,0-.7-.1-1.3-.5-2-1.2-.7-.7-1-1.4-1.1-2,0-.2.1-.4.3-.4,0,0,0,0,0,0,1.8-.1,2.8,0,3.1.3Z"/>
        <path class="cls-3" d="M184,317.3l-20.2,4.5c.6-3.2,1.3-5.3,2.1-6.5,4.7-6.8,13.8-3,18.2,2Z"/>
        <path class="cls-2" d="M305.4,319.2c-.6.2-1.3-.1-1.5-.7h0s-.2-.6-.2-.6c-.6-1.7,0-3.6,1.6-4.1l2.8-1c1.5-.5,3.2.5,3.8,2.2l.2.6c.2.6,0,1.3-.7,1.5,0,0,0,0,0,0l-6,2.1Z"/>
        <path class="cls-8" d="M234.5,315.4c4.1-1.1,7.7-.9,11,.7,1.4.6,1.4,1.2,0,1.8l-5.2,2.1c-.2,0-.4.4-.3.6,0,0,.1.2.2.2l3.2,1.9c.6.3.8.8.8,1.5l-.3,3c0,.3-.2.5-.5.6-1.8.6-2.9,1.6-3.4,3-.3,1.1-1.5,1.8-2.6,1.5-3.8-.8-7.6-.9-11.4,0-3.5.7-7.5-1.9-10.7-4.2-2.3-1.6-3.6-3.7-4-6.4-.1-.9,0-2.3.4-4.3.3-1.4.5-2.8.7-4.3.8,2.2,1.1,3.7.9,4.4-.6,3.4.3,5.8,2.7,7.2.7.4,2.6.8,5.8,1.3,2.9.5,5.6,1.4,8,2.9.3.2,1.1.2,2.2.1,3-.3,5.5-4.6,5.9-6.9.5-2.9-.7-5.1-3.7-6.8Z"/>
        <path class="cls-6" d="M190.8,319.3c-1.5,1.8-3.1,3-5.1,3.5-5.7,1.4-9.4,2.3-11,2.8l-8.1,1.8c-.7.1-1.3-.3-1.5-1,0-.1,0-.2,0-.3,0-1.2-.2-2.4-.7-3.6-.4,0-.7-.4-.9-1.2,0,.2.2.3.2.5l20.2-4.5c2.8-.4,4-1.1,3.6-2.2.9.7,1.5,1.7,1.9,3,.1.4.6.8,1.3,1.2Z"/>
        <path class="cls-8" d="M190.8,319.3l-.8-1.4c1,0,1.9.3,2.5.7.3.2.3.4.1.7-.6.8-1.1,1.3-1.8,1.9,0,0,0,0,0,0,.3-.2.4-.6.3-1,0-.3-.2-.6-.4-.9Z"/>
        <path class="cls-5" d="M205.8,321.6l-2.4.5c-.5.1-.7.4-.4.9l.2.3c.1.2.3.3.6.3,1.2-.2,2.3,0,3.4.5.5.2,1,0,1.2-.3,0-.1,0-.3,0-.6,1.8,2.6,4.1,4.6,6.8,6.1-3.8.2-7-1-9.7-3.7,0,0-.1,0-.2,0-.1,0-.2,0-.3,0-.1,0-.2.2-.1.4l1.8,5.7c.2.6-.1,1.2-.7,1.4-.1,0-.2,0-.3,0-3.8,0-7.3.5-10.5,1.4-.3,0-.5.3-.6.6,0,.3-.3.5-.7.6-.3,0-.5.2-.7.5l-.9,1.6c-.2.3-.1.6.1.9,1.5,1.3,2.9,2.1,4.3,2.5.6.1,1.3,0,1.7-.5.8-.8,1.9-1.1,3.3-.9.2,0,5.5,1.2,15.7,3.6,3.8.9,6.5,1.3,8.1,1.2,2.6-.2,5.3-.8,8-1.7,1-.4,2.1.2,2.5,1.2,0,0,0,0,0,0l.8,2.6c.1.3.3.5.6.5h1.5c-5.6,2.5-10.4,1.1-16.5-.4-.4,0-.7,0-1,.1l-.9.5c-.3.2-.3.4,0,.6.2.1.3.3.4.5.1.4,0,.6-.4.5-4.4-1.2-11.3-2.6-20.8-4.4-2.6-.5-5.1-1.3-7.6-2.4-1.3-.6-1.8-1.2-2.2-2.6-.8-3.2-2.8-4.8-5.6-7.2-.6-.5-1-1.5-1.1-2.8,0-.3,0-.6.2-.8.1-.2.1-.4,0-.5-.4-.2-.6-.7-.3-1.2,0-.2.2-.3.3-.4l5.4-3.8c1.4-1,2.2-.8,2.5.6,0,.1.3.4.8.8.3.2.6.3.9.2,1.5-.2,2.8-.7,4.1-1.5.3-.2.6-.2.8,0,1,.7,1.8.5,2.6-.3.5-.6.8-.9.8-1,.2-.3.3-.6.2-1,0-.3,0-.5.4-.5,1.4,0,2.7.4,4,1.3Z"/>
        <path class="cls-2" d="M208.3,323c.1.3.1.5,0,.6-.2.4-.8.5-1.2.3-1.1-.5-2.2-.6-3.4-.5-.2,0-.4,0-.6-.3l-.2-.3c-.3-.5-.1-.8.4-.9l2.4-.5c1.1-.5,1.9,0,2.5,1.4Z"/>
        <path class="cls-9" d="M174.7,325.6h1.2c-3.6,1.7-7.2,2.2-10.8,1.7-.7-.1-1.3-.8-1.2-1.6l.4-3.2c.5,1.2.7,2.4.7,3.6,0,.7.5,1.3,1.2,1.3.1,0,.2,0,.3,0l8.1-1.8Z"/>
        <path class="cls-1" d="M215.1,329.1l4.8,3.3c.5.3.4.4-.1.4l-7.6-.7c-.4,0-.6.1-.6.5v.4c0,.2,0,.4.3.5,2.7.7,5.4,1.4,8,2,2,.5,4.8,0,8.4-1.6.3-.1.6-.1.9,0,2.1,1.2,4.1,2,5.9,2.3.3,0,.6.3.6.6.4,1.9,4,4.7,5.7,7.6,0,.1.2.5.3.9,0,.3.4.6.8.8.2.1.3.3.2.5,0,0,0,.2-.1.2,0,0-.2.1-.3.1h-3.4s-1.5,0-1.5,0c-.3,0-.5-.2-.6-.5l-.8-2.6c-.3-1-1.4-1.6-2.4-1.3,0,0,0,0,0,0-2.7.9-5.3,1.5-8,1.7-1.6.1-4.2-.3-8.1-1.2-10.3-2.4-15.5-3.6-15.7-3.6-1.4-.2-2.5.1-3.3.9-.5.4-1.1.6-1.7.5-1.4-.3-2.8-1.1-4.3-2.5-.3-.3-.3-.6-.1-.9l.9-1.6c.2-.3.4-.4.7-.5.4,0,.7-.3.7-.6,0-.3.2-.5.6-.6,3.2-.9,6.7-1.4,10.5-1.4.6,0,1.1-.5,1.1-1.1,0-.1,0-.2,0-.3l-1.8-5.7c0-.2,0-.3.1-.4,0,0,.2,0,.3,0,0,0,.2,0,.2,0,2.6,2.7,5.9,3.9,9.7,3.7Z"/>
        <path class="cls-5" d="M256.4,326c.6,0,.9.1,1.1.2.3.2.4.4.3.8-.2.7-.7,1-1.6.9-.9,0-1.3-.5-1.4-1.2s.1-.6.4-.7c.2,0,.6,0,1.1,0Z"/>
        <path class="cls-10" d="M270.2,333c-.3.1-.6,0-.7-.2l-.2-.2c-.2-.3-.1-.6.2-.8,0,0,0,0,0,0,3.4-1.7,5.8-2.6,7.2-2.8,2.1-.3,3.5-.9,4.4-1.8.2-.2.4-.2.5,0,0,.1,0,.2,0,.4-.9,1.4-2.1,2.2-3.9,2.5-1.9.3-4.4,1.3-7.5,2.9Z"/>
        <ellipse class="cls-8" cx="189.3" cy="344" rx=".2" ry=".4" transform="translate(-189.7 446.4) rotate(-76.3)"/>
        <path class="cls-3" d="M426.8,373.2c.5.2,1.1.1,1.5-.3l2.7-2.7c.4-.4,1-.4,1.4,0,.2.2.3.4.3.6l2.1,21.8c0,.8-.3,1.3-1,1.6h-.4c-.9.4-1.4,0-1.7-.8-2-6.5-5.2-11.6-9.7-15.3-4.9-4-13.1-5-18.8-2.7-6.5,2.6-9.5,8-8.9,16.3.6,8.4,8.1,12.8,15.3,15.2,12.9,4.4,25,6.8,28.8,20.9,1.6,6.2,1.5,12.4-.6,18.6-3.5,10.9-11.1,16.8-22.8,17.7-8.9.7-17-1.9-24.2-7.8-.7-.5-1.6-.4-2.2.2,0,0-.1.2-.2.3-.5.9-.8,1.5-1.2,1.8-2.4,2-3.4,1.4-3.2-1.6l2-22.1c0-.6.4-1,1-1.2.5-.1,1.1,0,1.8,0,.5,0,.9.5.9,1,.3,13.3,9,24.2,22.6,24.3,3.5,0,6.7-.7,9.6-2.3,6.4-3.5,9-9.4,7.8-17.6-1.9-12.6-14.1-16-24.1-19.7-11.1-4.2-19.9-10.9-20.6-23.8-.2-4.2-.2-7.1,1.5-11,4.3-9.8,12-14.9,23.4-15.2,5.9-.2,11.6,1,17,3.6Z"/>
        <path class="cls-3" d="M152.4,440.1c.2-17.5.3-39.3-1.5-57.2-.7-6.9-5.7-7.3-11.3-7-.7,0-1-.3-1-1v-3.1c0-.6.3-.9.9-.9,8.5.5,17.3.5,26.3,0,.8,0,1.2.3,1.2,1.2v2.7c0,.6-.5,1.1-1.1,1.1,0,0,0,0,0,0-2.8-.1-5.5-.5-7.1,2.2-.8,1.3-1.2,3.5-1.3,6.5-.1,6.9-.2,11.6-.2,14,0,12.6,0,34.2,0,64.8,0,.5-.4.9-.9.9,0,0,0,0,0,0-.8,0-1.6-.5-2.3-1.4-16.6-21.1-27.3-34.6-32.2-40.5-9.6-11.5-19.1-23.3-28.5-35.4-.9-1.1-1.3-1-1.3.5,0,13.6,0,26.6.2,38.9.2,10,.6,18.7,1.2,26.1.2,2.6,1.1,5.6,4.4,5.7,2.1,0,3.5,0,4.2.1.5,0,.9.4.9.9v2.9c0,.7-.4,1.1-1.1,1-8.3-.5-16.5-.5-24.7,0-.9,0-1.3-.4-1.3-1.2v-2.6c0-.9.5-1.4,1.4-1.3,1.7.1,3.5,0,5.3,0,3.1-.3,4-4.2,4.2-6.9.3-3.6.4-6.6.4-8.8.1-22.6.2-40.8.2-54.7,0-3.7-1-6.7-3.1-9.1-2.3-2.8-6.2-2.6-10.3-2.6-.8,0-1.2-.4-1.2-1.2v-2.9c0-.7.3-1,1-.9,6.4.3,13.7.3,21.9.1,1.3,0,2.7,1,3.6,2.2,17.4,23,35,45.3,52.8,67,.3.4.5.3.5-.2Z"/>
        <path class="cls-3" d="M291.7,445c.2.7.5.7.7,0,6.7-19.7,11.8-35,15.5-46.1,1.3-4,2.6-8.3,3.9-13,.6-2.1.6-3.8.1-5.1-1.5-3.8-4.6-5.4-9.4-4.8-.8.1-1.1-.2-1.1-1v-3c0-.7.4-1.1,1.1-1,10.6.5,21.4.5,32.4,0,.7,0,1.1.3,1.1,1v2.8c0,.6-.5,1.1-1.1,1.1-2.7,0-6-.3-7.6,1-1.2,1-1.6,2.5-.9,4.5,7.8,25.2,14.4,46.5,19.8,63.8.2.7.4.7.7,0,6-17.3,11.6-34.3,16.6-51.1,1.3-4.2,2.3-8.5,3.1-12.9,1-5.5-3.7-5.2-7.6-5.1-.8,0-1.2-.4-1.2-1.2v-2.7c0-.8.4-1.2,1.2-1.1,8.5.5,17,.5,25.6,0,.6,0,.9.2.9.8v3.4c0,.6-.3.8-.8.8-2,0-3.3,0-3.8,0-2.4.4-4,1.9-5,4.6-11.9,32.3-21.6,58.7-29.3,79.4-.6,1.6-1.3,3.1-2.2,4.4-.5.8-1.5,1-2.3.5,0,0,0,0,0,0-.8-.6-1.4-1.4-1.8-2.6-5.7-17.1-13.6-40.4-23.5-69.9-.3-.9-.6-.9-.9,0-9.2,26.3-17.4,49.4-24.7,69.4-.5,1.4-1.1,2.4-1.9,2.9-.9.7-2.1.5-2.8-.4-.1-.2-.2-.3-.3-.5-9.4-27-19.2-54.9-29.2-83.7-1.7-5-5.4-4.2-9.7-4.2-.5,0-.8-.4-.8-.8h0v-3.4c0-.5.2-.7.7-.7,9.6.5,19.6.6,30,0,.5,0,1,.4,1,.9,0,0,0,0,0,0v3c0,.6-.5,1.1-1,1.1,0,0,0,0,0,0-4.9,0-7.2.5-5.5,6,7,22,13.7,43,20.1,63.1Z"/>
        <path class="cls-3" d="M198.4,413.1c3.2,0,6.9,0,11.3-.3,5.7-.4,9.2-.1,10.4-6.2.6-3.1,1-5.1,1-6.1,0-.6.3-.8.9-.8h3c.7,0,1,.3,1,1-.7,9.4-.5,18.7.4,27.8,0,.7-.4,1.2-1,1.3l-2.3.4c-.7.1-1.1-.2-1.2-.9-.2-1.1-.7-3.2-1.5-6.3-.8-3.1-2.6-4.8-5.5-5.1-4.6-.5-10.2-.7-16.7-.6-.2,0-.4.2-.4.4,0,14,.2,23.9.3,29.7,0,3.7,1.2,6.4,3.2,8.2,1.3,1.1,3.9,1.9,7.6,2.3,6.6.7,12.9.6,19-.3,2.5-.4,5.1-1.4,7.8-3,1.5-.9,3.4-2.8,5.7-5.8,2.7-3.5,5-6.5,6.6-9,.4-.6,1-.8,1.7-.6,2,.6,2.7,1.6,2.1,3-.2.4-2.5,6.6-6.9,18.8-.4,1.2-1.3,1.8-2.6,1.8-25.5-.4-46.3-.4-62.4-.2-1.1,0-3,.1-5.7.3-.7,0-1.3-.5-1.3-1.1,0,0,0,0,0-.1v-2.8c0-.8.4-1.2,1.2-1.2,2.5.1,5.2.1,8.1,0,2.4-.1,3.6-1.4,3.6-3.7.2-25.1,0-49.3-.3-72.6,0-3.8-1.9-5.7-5.5-5.7-3.7,0-5.6,0-5.9,0-.5,0-.8-.3-.8-.8,0,0,0,0,0,0v-2.9c0-.5.3-.8.8-.8h65.5c.3,0,.5.2.6.5l6.4,20.5c.1.3,0,.7-.2.9-.5.7-1.3,1.1-2.2,1.3-.3,0-.6,0-.8-.3-2.3-3-5.4-6.7-9.3-11.2-2.3-2.7-4.9-4.6-7.8-5.7-2-.8-5-1.2-9.2-1.4-6-.2-12.2-.3-18.8-.4-.3,0-.6.3-.6.6v36.3c0,.4.2.6.6.6Z"/>
        <path class="cls-3" d="M222.3,453.8c-.4.1-.8.1-1.3,0h1.3Z"/>
        <path class="cls-3" d="M99.1,467.1h-3c0,0,3,0,3,0Z"/>
        <path class="cls-3" d="M237.1,467.2h-3s3,0,3,0Z"/>
      </g>
    </g>
  </g>
</svg>