<?xml version="1.0" encoding="utf-8"?>
<!-- Generator: Adobe Illustrator 27.0.0, SVG Export Plug-In . SVG Version: 6.00 Build 0)  -->
<svg version="1.1" id="Capa_1" xmlns="http://www.w3.org/2000/svg" xmlns:xlink="http://www.w3.org/1999/xlink" x="0px" y="0px"
	 viewBox="0 0 3224 628" style="enable-background:new 0 0 3224 628;" xml:space="preserve">
<style type="text/css">
	.st0{fill:#FFF300;}
	.st1{fill:#1B1B1B;}
	.st2{fill:#101010;}
	.st3{fill:#5B5959;}
	.st4{fill:#111111;}
</style>
<path class="st0" d="M1100.5,43.29c-0.22,0.75-0.19,1.57,0.1,2.48c0.1,0.32,0.15,0.65,0.15,0.98c0.05,171.83,0.05,343.83,0,516
	c0,4.1,0,7.94,0,11.54c-0.09,0.14-0.17,0.21-0.25,0.21c-8.28-0.17-16.62-0.25-25-0.25c-342,0.02-684.1,0.02-1026.31,0
	c-0.46,0-0.69-0.23-0.69-0.69c0-176.21,0-352.71,0-529.5c0-0.33,0.16-0.5,0.49-0.5c346.97,0.02,694.23,0,1041.76-0.06
	C1094.01,43.5,1097.26,43.43,1100.5,43.29z M577.21,260.7c1.05,0.57,1.57,0,1.54-1.7c-0.14-14-0.14-28,0-42
	c0.16-15.66-3.45-30.05-10.81-43.19c-5.87-10.68-13.91-20.06-24.13-28.12c-12.48-9.86-26.48-15.77-42-17.75
	c-9.42-1.25-18.8-1.16-28.12,0.25c-14.89,2.25-28.39,8.17-40.5,17.75c-5.77,4.45-11.09,9.72-15.94,15.81
	c-12.32,15.45-18.65,32.95-18.99,52.5c-0.01,0.33-0.01,0.67-0.01,1c0.04,69.67,0.04,139.5,0,209.5
	c-0.01,17.7,4.59,33.68,13.81,47.94c4.25,6.41,9.2,12.28,14.88,17.62c8.41,7.93,18.02,13.99,28.81,18.19
	c7.35,2.75,15.1,4.5,23.25,5.25c9.28,0.92,18.53,0.5,27.75-1.25c15.08-2.97,28.49-9.55,40.25-19.75
	c12.35-10.71,21.16-23.15,26.44-37.31c3.53-9.68,5.3-20.07,5.31-31.19c0.01-17.25,0.01-34.74,0-52.47c0-0.32-0.16-0.47-0.47-0.47
	c-19.21,0.25-38.71,0.29-58.51,0.12c-0.18,0-0.28,0.09-0.28,0.28c0.13,18.75,0.05,37.02-0.23,54.79c-0.01,0.33-0.03,0.67-0.06,1
	c-0.64,6.35-3.18,12.04-7.64,17.06c-4.52,5.1-9.77,8.44-15.75,10c-4.28,1.15-8.3,1.55-12.06,1.19c-6.63-0.67-12.36-3.03-17.19-7.06
	c-7.95-6.65-11.97-15.13-12.06-25.44c-0.16-2.17-0.25-4.34-0.25-6.5c-0.09-43.5-0.09-87,0-130.5c-0.03-23.89,0.05-47.55,0.24-71
	c0.01-0.33,0.02-0.67,0.04-1c0.47-9,4.28-16.61,11.41-22.81c5.55-4.84,12.07-7.4,19.56-7.69c6.76-0.23,12.95,1.42,18.56,4.94
	c6,3.76,10.29,8.8,12.88,15.12c2.29,5.78,3.16,12.01,2.6,18.69c-0.03,0.33-0.04,0.67-0.04,1c0,11.75,0,23.98,0,36.69
	c0,0.17,0.08,0.25,0.25,0.25c17.96-0.08,35.88,0.03,53.75,0.31c1.25,0.02,2.17-0.03,2.76-0.15
	C576.59,260.53,576.9,260.57,577.21,260.7z M304.09,312.31c-0.62-0.26-0.63-0.54-0.02-0.84c7.5-3.7,13.83-8.59,18.99-14.66
	c4.97-5.62,8.93-11.92,11.88-18.87c4.53-10.68,7.05-22.16,7.56-34.44c0.22-6.11,0.14-12.53-0.25-19.25
	c-0.93-16.2-4.95-31.34-12.06-45.44c-6.06-12.06-14.73-21.81-26-29.25c-16.49-10.87-34.71-16.73-54.69-17.56
	c-4.59-0.18-9.92-0.26-16-0.25c-25.08,0.04-50.14,0.04-75.18,0c-0.21,0-0.32,0.11-0.32,0.32c0,125.62,0,251.26,0,376.91
	c0,0.3,0.15,0.46,0.46,0.46c35.68,0.31,71.19,0.33,106.54,0.06c0.33,0,0.67-0.01,1-0.03c14.99-0.92,29.35-5.89,43.06-14.91
	c6.19-4,11.99-9.04,17.38-15.12c5.07-5.77,9.24-12.27,12.5-19.5c5.04-11.29,8.31-23.18,9.81-35.69c1.53-12.81,1.62-25.64,0.25-38.5
	c-1.16-8.97-2.97-17.49-5.44-25.56c-4.81-15.78-13.27-28.9-25.37-39.38C313.76,317.05,309.06,314.22,304.09,312.31z M609.85,509.86
	c10.75,3.06,22.3,4.53,34.65,4.39c12.31-0.03,23.79-2.22,34.44-6.56c13.08-5.2,24.58-13.62,34.5-25.25
	c13.16-15.45,20.1-33.18,20.79-53.19c0.01-0.33,0.02-0.67,0.02-1c0-98.5,0-197.23,0-296.2c0-0.2-0.1-0.3-0.3-0.3
	c-18.47,0-36.93,0-55.4,0c-0.2,0-0.3,0.1-0.3,0.3c-0.13,96.55-0.13,193.03,0,289.45c0.18,4.34-0.07,8.17-0.75,11.5
	c-1.2,5.4-3.87,10.15-8,14.25c-4.53,4.5-9.93,7.6-16.19,9.31c-5.6,1.44-11.78,2-18.56,1.69c-5.16-0.17-10.87-0.85-17.12-2.05
	c-0.49-0.11-0.78,0.09-0.85,0.59c-2.57,17.01-5.18,34.22-7.85,51.64C608.82,509.17,609.13,509.65,609.85,509.86L609.85,509.86z
	 M930.29,311.7c7.53-3.64,13.99-8.64,19.4-15.01c8.84-10.43,14.55-22.55,17.12-36.38c1.3-7.38,2.03-14.9,2.19-22.56
	c0.32-15.35-1.6-29.77-5.75-43.25c-2.55-7.94-5.9-15.17-10.06-21.69c-4.09-6.56-9.05-12.35-14.88-17.37
	c-5.07-4.31-10.61-8.02-16.62-11.13c-14.4-7.45-29.79-11.56-46.19-12.31c-3.46-0.16-7.38-0.25-11.75-0.25
	c-26.25-0.02-52.57-0.02-78.95,0c-0.2,0-0.3,0.1-0.3,0.3c0,125.47,0,251.2,0,377.19c0,0.17,0.08,0.26,0.25,0.26
	c34.68,0.04,69.01,0.05,103,0c9.3-0.06,17.99-1.46,26.06-4.19c15.76-5.33,28.89-14.03,39.38-26.12c5.04-5.74,9.04-11.99,12-18.75
	c7.38-16.88,11.07-35.03,11.06-54.44c0.05-16.38-2.1-31.81-6.44-46.31c-3.78-12-9.74-22.63-17.87-31.88
	c-5.8-6.44-13.02-11.65-21.64-15.63C929.96,312.03,929.96,311.87,930.29,311.7L930.29,311.7z"/>
<path class="st1" d="M501.81,127.94c15.52,1.98,29.52,7.89,42,17.75c10.22,8.06,18.26,17.44,24.13,28.12
	c7.36,13.14,10.97,27.53,10.81,43.19c-0.14,14-0.14,28,0,42c0.03,1.7-0.49,2.27-1.54,1.7c-0.31-0.13-0.62-0.17-0.95-0.1
	c-0.59,0.12-1.51,0.17-2.76,0.15c-17.87-0.28-35.79-0.39-53.75-0.31c-0.17,0-0.25-0.08-0.25-0.25c0-12.71,0-24.94,0-36.69
	c0-0.33,0.01-0.67,0.04-1c0.56-6.68-0.31-12.91-2.6-18.69c-2.59-6.32-6.88-11.36-12.88-15.12c-5.61-3.52-11.8-5.17-18.56-4.94
	c-7.49,0.29-14.01,2.85-19.56,7.69c-7.13,6.2-10.94,13.81-11.41,22.81c-0.02,0.33-0.03,0.67-0.04,1c-0.19,23.45-0.27,47.11-0.24,71
	c-0.09,43.5-0.09,87,0,130.5c0,2.16,0.09,4.33,0.25,6.5c0.09,10.31,4.11,18.79,12.06,25.44c4.83,4.03,10.56,6.39,17.19,7.06
	c3.76,0.36,7.78-0.04,12.06-1.19c5.98-1.56,11.23-4.9,15.75-10c4.46-5.02,7-10.71,7.64-17.06c0.03-0.33,0.05-0.67,0.06-1
	c0.28-17.77,0.36-36.04,0.23-54.79c0-0.19,0.1-0.28,0.28-0.28c19.8,0.17,39.3,0.13,58.51-0.12c0.31,0,0.47,0.15,0.47,0.47
	c0.01,17.73,0.01,35.22,0,52.47c-0.01,11.12-1.78,21.51-5.31,31.19c-5.28,14.16-14.09,26.6-26.44,37.31
	c-11.76,10.2-25.17,16.78-40.25,19.75c-9.22,1.75-18.47,2.17-27.75,1.25c-8.15-0.75-15.9-2.5-23.25-5.25
	c-10.79-4.2-20.4-10.26-28.81-18.19c-5.68-5.34-10.63-11.21-14.88-17.62c-9.22-14.26-13.82-30.24-13.81-47.94
	c0.04-70,0.04-139.83,0-209.5c0-0.33,0-0.67,0.01-1c0.34-19.55,6.67-37.05,18.99-52.5c4.85-6.09,10.17-11.36,15.94-15.81
	c12.11-9.58,25.61-15.5,40.5-17.75C483.01,126.78,492.39,126.69,501.81,127.94z"/>
<path class="st1" d="M158.32,131.75c25.04,0.04,50.1,0.04,75.18,0c6.08-0.01,11.41,0.07,16,0.25c19.98,0.83,38.2,6.69,54.69,17.56
	c11.27,7.44,19.94,17.19,26,29.25c7.11,14.1,11.13,29.24,12.06,45.44c0.39,6.72,0.47,13.14,0.25,19.25
	c-0.51,12.28-3.03,23.76-7.56,34.44c-2.95,6.95-6.91,13.25-11.88,18.87c-5.16,6.07-11.49,10.96-18.99,14.66
	c-0.61,0.3-0.6,0.58,0.02,0.84c4.97,1.91,9.67,4.74,14.1,8.5c12.1,10.48,20.56,23.6,25.37,39.38c2.47,8.07,4.28,16.59,5.44,25.56
	c1.37,12.86,1.28,25.69-0.25,38.5c-1.5,12.51-4.77,24.4-9.81,35.69c-3.26,7.23-7.43,13.73-12.5,19.5
	c-5.39,6.08-11.19,11.12-17.38,15.12c-13.71,9.02-28.07,13.99-43.06,14.91c-0.33,0.02-0.67,0.03-1,0.03
	c-35.35,0.27-70.86,0.25-106.54-0.06c-0.31,0-0.46-0.16-0.46-0.46c0-125.65,0-251.29,0-376.91
	C158,131.86,158.11,131.75,158.32,131.75L158.32,131.75z M255.56,191.69c-5.79-1.5-12.15-2.15-19.06-1.94
	c-6.48,0.07-11.81,0.15-16,0.22c-0.33,0.02-0.55,0.19-0.64,0.51c-0.24,1.15-0.36,2.82-0.36,5.02c0.06,30.07,0.08,59.97,0.06,89.69
	c0,0.33,0.17,0.5,0.5,0.52c7.29,0.28,15.52,0.29,24.69,0.04c8.46-0.23,15.69-2.67,21.69-7.31c4.65-3.76,8.15-8.51,10.5-14.25
	c3.5-8.54,5.12-18.2,4.87-29c-0.2-6.39-0.97-12.29-2.31-17.69c-1.93-7.77-6-14.29-12.19-19.56
	C263.91,194.92,260,192.83,255.56,191.69z M270.06,349.19c-6.85-5.45-15.04-8.26-24.56-8.44c-8.32-0.08-16.79-0.1-25.42-0.07
	c-0.17,0-0.26,0.09-0.28,0.25c-0.2,2.91-0.3,5.69-0.3,8.32c0.06,34.17,0.06,68.46,0,102.87c0,0.57,0.29,0.87,0.86,0.87
	c8.91,0.27,17.54,0.19,25.89-0.24c12.09-0.47,21.65-5.33,28.69-14.56c8.72-11.44,12.74-24.66,12.08-39.69c-0.01-0.33-0.01-0.67,0-1
	c0.42-12.39-1.77-24.03-6.58-34.94C277.95,357.16,274.49,352.7,270.06,349.19z"/>
<path class="st1" d="M678.55,131.75c18.47,0,36.93,0,55.4,0c0.2,0,0.3,0.1,0.3,0.3c0,98.97,0,197.7,0,296.2c0,0.33-0.01,0.67-0.02,1
	c-0.69,20.01-7.63,37.74-20.79,53.19c-9.92,11.63-21.42,20.05-34.5,25.25c-10.65,4.34-22.13,6.53-34.44,6.56
	c-12.35,0.14-23.9-1.33-34.65-4.39c-0.72-0.21-1.03-0.69-0.92-1.43c2.67-17.42,5.28-34.63,7.85-51.64c0.07-0.5,0.36-0.7,0.85-0.59
	c6.25,1.2,11.96,1.88,17.12,2.05c6.78,0.31,12.96-0.25,18.56-1.69c6.26-1.71,11.66-4.81,16.19-9.31c4.13-4.1,6.8-8.85,8-14.25
	c0.68-3.33,0.93-7.16,0.75-11.5c-0.13-96.42-0.13-192.9,0-289.45C678.25,131.85,678.35,131.75,678.55,131.75L678.55,131.75z"/>
<path class="st1" d="M784.8,131.75c26.38-0.02,52.7-0.02,78.95,0c4.37,0,8.29,0.09,11.75,0.25c16.4,0.75,31.79,4.86,46.19,12.31
	c6.01,3.11,11.55,6.82,16.62,11.13c5.83,5.02,10.79,10.81,14.88,17.37c4.16,6.52,7.51,13.75,10.06,21.69
	c4.15,13.48,6.07,27.9,5.75,43.25c-0.16,7.66-0.89,15.18-2.19,22.56c-2.57,13.83-8.28,25.95-17.12,36.38
	c-5.41,6.37-11.87,11.37-19.4,15.01c-0.33,0.17-0.33,0.33,0.01,0.48c8.62,3.98,15.84,9.19,21.64,15.63
	c8.13,9.25,14.09,19.88,17.87,31.88c4.34,14.5,6.49,29.93,6.44,46.31c0.01,19.41-3.68,37.56-11.06,54.44
	c-2.96,6.76-6.96,13.01-12,18.75c-10.49,12.09-23.62,20.79-39.38,26.12c-8.07,2.73-16.76,4.13-26.06,4.19
	c-33.99,0.05-68.32,0.04-103,0c-0.17,0-0.25-0.09-0.25-0.26c0-125.99,0-251.72,0-377.19C784.5,131.85,784.6,131.75,784.8,131.75
	L784.8,131.75z M906.31,255.31c1.43-6.72,2.07-14.08,1.94-22.06c-0.13-7.51-1.56-14.74-4.31-21.69c-1.34-3.34-3.25-6.42-5.75-9.25
	c-6.05-6.84-13.36-10.84-21.94-11.99c-0.33-0.05-0.67-0.08-1-0.1c-7.36-0.49-16.9-0.63-28.64-0.42c-0.36,0.01-0.55,0.2-0.55,0.56
	c-0.07,30.68-0.09,62.29-0.06,94.84c0,0.52,0.26,0.78,0.77,0.78c8.87,0.05,17.28-0.02,25.23-0.23c6.68-0.17,12.74-1.94,18.19-5.31
	c3.43-2.22,6.22-4.84,8.37-7.88C902.28,267.27,904.87,261.52,906.31,255.31L906.31,255.31z M897.06,349.69
	c-6.78-5.83-15.05-8.81-24.81-8.94c-9.23-0.08-17.71-0.17-25.45-0.25c-0.53-0.02-0.8,0.24-0.8,0.77c0,37.32,0,74.23,0,110.73
	c0,0.67,0.33,1,1,1c4.5-0.06,8.92-0.06,13.25,0c6.75,0.23,12.83-0.1,18.25-1c8.49-1.27,15.63-5.29,21.44-12.06
	c7.5-8.75,11.85-19.14,13.06-31.19c1-8.95,0.73-18.18-0.81-27.69c-0.89-5.68-2.35-11.05-4.38-16.12
	C905.28,358.75,901.7,353.67,897.06,349.69z"/>
<path class="st2" d="M1442.25,168.28c13.36,0.94,25.26,5.2,35.69,12.78c4.8,3.49,8.88,7.66,12.25,12.5
	c4.64,6.54,7.99,13.77,10.06,21.69c2.12,8.73,3.12,18.06,3,28c-0.05,15-3.49,28.81-10.31,41.44c-3.76,6.94-8.55,12.74-14.38,17.37
	c-6.36,5.13-13.04,8.86-20.06,11.19c-9.45,3.17-19.62,4.59-30.5,4.25c-3.49-0.11-7.07-0.44-10.75-1
	c-12.82-1.9-23.92-6.71-33.31-14.44c-5.38-4.42-9.93-9.88-13.63-16.37c-6.58-11.84-9.94-24.65-10.06-38.44c0-0.33-0.01-0.67-0.03-1
	c-0.82-14.21,1.37-27.52,6.59-39.94c2.79-6.63,6.58-12.51,11.38-17.62c5.63-6.29,12.25-11.08,19.87-14.38
	c13.29-5.75,27.69-7.79,43.19-6.11C1441.58,168.23,1441.92,168.26,1442.25,168.28L1442.25,168.28z M1412.44,281.06
	c4.11,3.17,8.97,5.06,14.56,5.69c6.24,0.7,11.99,0.03,17.25-2c3.43-1.32,6.62-3.46,9.56-6.44c2.67-2.69,4.73-5.8,6.19-9.31
	c2.37-6.24,3.79-12.82,4.25-19.75c0.66-9.79-0.01-18.96-2-27.5c-1.06-4.08-2.73-7.83-5-11.25c-3.39-5.1-7.91-8.58-13.56-10.44
	c-4.4-1.32-9.3-1.84-14.69-1.56c-9.25,0.49-16.48,4.09-21.69,10.81c-2.43,3.15-4.2,6.63-5.31,10.44
	c-2.73,9.42-3.65,19.83-2.75,31.25c0.54,7.08,2.14,13.65,4.81,19.69C1406.17,274.95,1408.96,278.41,1412.44,281.06L1412.44,281.06z"
	/>
<path class="st2" d="M2238,171c8.11,2.14,15.04,5.78,20.81,10.94c6.35,5.8,10.27,12.63,11.75,20.5c0.81,4.29,1.05,8.21,0.7,11.75
	c-0.05,0.33-0.23,0.53-0.56,0.61c-11.23,2.54-22.92,5.17-35.1,7.9c-0.23,0.05-0.35-0.04-0.35-0.28c-0.12-3.82-0.43-7.07-0.94-9.73
	c-0.8-5.16-3.43-8.95-7.87-11.38c-3.86-2.1-8.36-3.1-13.5-3c-6.94-0.34-13.14,0.82-18.63,3.5c-3.65,1.79-6.42,4.27-8.31,7.44
	c-2.23,3.34-3.81,7.09-4.75,11.25c-1.41,6.28-2,12.95-1.77,20c0.01,0.33,0.01,0.67,0,1c-0.39,9.19,0.72,17.92,3.33,26.19
	c2.04,6.45,5.46,11.28,10.25,14.5c5.23,3.29,11.3,4.89,18.19,4.81c7.89-0.1,14.64-2.02,20.27-5.79c0.28-0.18,0.55-0.38,0.8-0.6
	c4.63-3.94,7.02-9.29,7.18-16.05c0.02-0.46,0.24-0.63,0.69-0.51c11.04,2.95,21.88,5.99,32.52,9.12c0.32,0.09,0.45,0.31,0.41,0.64
	c-1.37,10.14-5.68,19.1-12.93,26.88c-5.55,5.95-12.45,10.22-20.69,12.81c-9.25,2.87-19.25,4.2-30,4
	c-13.7-0.14-26.26-3.33-37.69-9.56c-6.31-3.45-11.73-8.2-16.25-14.25c-4.88-6.44-8.46-13.53-10.75-21.25
	c-3.6-12.19-4.95-25.25-4.06-39.19c0.58-9.12,2.35-17.69,5.31-25.69c2.59-6.96,6.17-13.05,10.75-18.25
	c5.73-6.43,12.23-11.27,19.5-14.5c8.96-3.89,18.52-6.16,28.69-6.81C2216.52,167.24,2227.52,168.24,2238,171L2238,171z"/>
<path class="st2" d="M1663.25,170.75c25.17,0.08,50,0.08,74.5,0c10.4-0.03,20.07,1.47,29,4.5c7.38,2.57,13.82,6.21,19.31,10.94
	c4.68,3.88,8.68,8.63,12,14.25c4.77,8.15,7.72,17.11,8.88,26.87c1.1,9.37,0.98,18.62-0.38,27.75c-2.26,15.62-8.3,28.83-18.12,39.63
	c-5.63,6.18-12.29,10.85-20,14c-7.58,3.23-15.58,5.14-24,5.71c-0.34,0.03-0.67,0.04-1,0.04c-26.31,0.07-52.99,0.09-80.05,0.06
	c-0.26,0-0.39-0.13-0.39-0.39c-0.03-8.39-0.01-16.52,0.06-24.38c0-0.49,0.25-0.73,0.74-0.73c4.47,0,9.05,0,13.76,0
	c0.63,0,0.94-0.31,0.94-0.94c0-30.71,0-61.12,0-91.23c0-0.34-0.17-0.5-0.5-0.51c-5.21-0.05-10.02-0.09-14.44-0.13
	c-0.33,0-0.5-0.17-0.5-0.5c-0.07-7.81-0.09-16.03-0.06-24.69C1663,170.83,1663.09,170.75,1663.25,170.75L1663.25,170.75z
	 M1715.56,286.81c5.05,0.1,10.12,0.16,15.19,0.19s9.65-0.3,13.75-1c4.18-0.63,7.91-2.32,11.19-5.06
	c5.82-4.96,9.57-11.54,11.25-19.75c2.37-11.66,2.62-23.45,0.75-35.38c-0.73-4.43-2.04-8.53-3.94-12.31
	c-1.84-3.83-4.36-6.89-7.56-9.19c-4.6-3.54-9.91-5.39-15.94-5.56c-7.9-0.22-16.08-0.24-24.55-0.07c-0.17,0-0.25,0.08-0.25,0.25
	c-0.27,20.39-0.25,40.58,0.05,60.57c0.14,9.13,0.08,18.15-0.18,27.04C1715.31,286.71,1715.39,286.8,1715.56,286.81L1715.56,286.81z"
	/>
<path class="st2" d="M2941,170.75c6.31-0.01,12.54,0.51,18.69,1.56c5.86,1.02,11.38,2.91,16.56,5.69
	c6.21,3.11,10.94,7.71,14.19,13.81c2.65,4.99,4.09,10.3,4.31,15.94c0.56,5.71,0.06,11.46-1.5,17.25c-2.09,7.76-6.43,14.26-13,19.5
	c-2.96,2.36-6.24,4.47-9.84,6.33c-0.24,0.12-0.25,0.26-0.03,0.41c3.6,2.17,6.45,5.27,8.56,9.32c2.68,5.16,5.01,10.71,6.97,16.65
	c0.1,0.32,0.23,0.63,0.37,0.93c1.78,3.73,4.55,6.08,8.28,7.05c2.4,0.62,5,0.88,7.8,0.8c0.67-0.01,0.93,0.31,0.79,0.97
	c-1.94,8.95-3.95,18.35-6.01,28.19c-0.1,0.47-0.39,0.74-0.86,0.81c-5.63,0.73-10.99,0.68-16.09-0.15c-8-1.31-14.71-5.02-20.13-11.12
	c-2.66-3.01-4.83-6.34-6.5-10c-3.19-7.29-6.24-15.17-9.12-23.63c-1.35-3.93-3.37-6.76-6.09-8.47c-0.27-0.19-0.57-0.34-0.88-0.47
	c-1.97-0.8-4.13-1.18-6.47-1.12c-2.87,0.07-5.88,0.04-9.04-0.09c-0.27-0.01-0.4,0.12-0.39,0.39c0.19,8.87,0.17,17.89-0.07,27.07
	c-0.01,0.47,0.22,0.7,0.69,0.69c4.65-0.07,9.38-0.09,14.16-0.06c0.43,0,0.65,0.22,0.65,0.65c0,8.23,0,16.43,0,24.6
	c0,0.17-0.08,0.25-0.25,0.25c-22.5,0-44.95,0-67.35,0c-0.27,0-0.4-0.13-0.4-0.4c0-8.4,0-16.54,0-24.42c0-0.46,0.23-0.69,0.68-0.69
	c5.53,0.04,10.36,0.02,14.5-0.05c0.38-0.01,0.57-0.2,0.57-0.57c0-30.75,0-61.17,0-91.27c0-0.59-0.3-0.88-0.89-0.87
	c-5.32,0.11-10.04,0.06-14.17-0.14c-0.34-0.02-0.51-0.2-0.52-0.53c-0.3-8.12-0.3-16.25,0-24.37c0.01-0.34,0.19-0.5,0.52-0.5
	C2893.07,170.77,2916.84,170.79,2941,170.75L2941,170.75z M2952.31,201.69c-2.4-1.8-5.26-2.78-8.56-2.94
	c-7.18-0.34-14.45-0.36-21.82-0.03c-0.17,0-0.25,0.09-0.25,0.26c0.11,11.26,0.11,22.51,0,33.75c0,0.18,0.09,0.27,0.27,0.27
	c5.7-0.07,11.22-0.07,16.55,0c2.94,0.22,5.92-0.14,8.94-1.06c4.17-1.29,7.08-3.7,8.75-7.25c1.56-3.38,2.17-7.11,1.81-11.19
	C2957.54,208.26,2955.65,204.33,2952.31,201.69z"/>
<path class="st2" d="M1218.42,170.75c23.55-0.06,46.83-0.06,69.83,0c4.09,0.01,8.09,0.18,12,0.5c9.34,0.4,17.91,2.75,25.69,7.06
	c6.32,3.51,10.66,8.51,13,15c1.15,2.94,1.92,6.17,2.31,9.69c0.96,7.23,0.02,14.13-2.81,20.69c-3.23,7.47-8.66,12.37-16.31,14.68
	c-1.16,0.38-1.15,0.69,0.05,0.94c6.81,1.22,12.35,4.18,16.63,8.88c5.33,6.04,8.06,13.65,8.19,22.81c0.34,9.68-2.34,18.16-8.06,25.44
	c-5.06,6.43-11.89,11.02-20.5,13.75c-8.13,2.85-16.86,4.29-26.19,4.31c-24.42,0.06-49.02,0.06-73.8,0c-0.47,0-0.7-0.23-0.7-0.7
	c0-8.03,0-16.19,0-24.48c0-0.21,0.11-0.32,0.32-0.32c4.62,0,9.55,0,14.8,0c0.25,0,0.38-0.13,0.38-0.38
	c0.03-30.9,0.01-61.5-0.06-91.81c0-0.33-0.17-0.5-0.5-0.51c-4.15-0.06-8.99-0.08-14.53-0.05c-0.27,0.01-0.41-0.13-0.41-0.4
	c0-8.4,0-16.54,0-24.43C1217.75,170.97,1217.97,170.75,1218.42,170.75L1218.42,170.75z M1301.56,222.06
	c3.09-5.27,3.46-10.85,1.13-16.75c-1.46-4.02-4.78-6.21-9.94-6.56c-7.8-0.53-15.63-0.52-23.5,0.03c-0.17,0.01-0.25,0.09-0.25,0.26
	c-0.03,9.29-0.01,18.53,0.06,27.69c0,0.32,0.17,0.49,0.49,0.49c9.75,0.37,17.74,0.29,23.95-0.22
	C1297.11,226.73,1299.8,225.08,1301.56,222.06L1301.56,222.06z M1303.81,258.19c-2.98-2.04-6.5-3.1-10.56-3.19
	c-7.61-0.16-15.58-0.24-23.9-0.24c-0.23,0-0.35,0.12-0.35,0.36c0,10.34,0,20.81,0,31.42c0,0.28,0.14,0.43,0.43,0.44
	c9.22,0.19,17.15,0.03,23.82-0.48c5.67-0.44,9.9-2.54,12.69-6.31c2.22-3.01,3.1-6.49,2.62-10.44c-0.04-0.33-0.05-0.67-0.04-1
	C1308.74,264.12,1307.17,260.6,1303.81,258.19L1303.81,258.19z"/>
<path class="st2" d="M1516.63,170.75c21-0.04,41.87-0.04,62.62,0c6.06,0.01,11.14,0.1,15.25,0.25c11.57,0.08,22.05,2.85,31.44,8.31
	c6.91,4.03,11.58,9.86,14,17.5c1.8,5.22,2.57,10.95,2.31,17.19c-0.08,7.1-1.85,13.66-5.31,19.69c-4.16,7.24-10.59,12.94-19.29,17.11
	c-0.22,0.11-0.22,0.23-0.03,0.36c4.06,2.94,7.2,6.62,9.44,11.03c1.84,3.62,3.4,7.39,4.69,11.31c1.28,4.2,3.26,7.41,5.92,9.63
	c0.26,0.2,0.54,0.39,0.83,0.55c3.3,1.85,7.19,2.63,11.69,2.32c0.31-0.02,0.44,0.13,0.37,0.44c-1.95,9.33-4.03,18.98-6.23,28.94
	c-0.08,0.32-0.27,0.5-0.6,0.55c-4.51,0.65-8.92,0.75-13.23,0.32c-6.95-0.73-13.01-3-18.19-6.81c-3.02-2.22-5.68-5.14-8-8.75
	c-4.18-6.94-7.45-14.42-9.81-22.44c-1.13-3.85-2.65-7.5-4.56-10.94c-1.84-3.71-4.98-5.81-9.44-6.31c-3.91-0.43-7.6-0.47-11.06-0.11
	c-0.34,0.03-0.51,0.21-0.52,0.55c-0.24,8.95-0.28,17.95-0.12,27c0.01,0.33,0.18,0.5,0.51,0.51c4.15,0.06,9.01,0.08,14.58,0.05
	c0.29-0.01,0.43,0.14,0.43,0.42c-0.08,8.07-0.1,16.28-0.07,24.65c0,0.29-0.14,0.43-0.42,0.43c-22.39,0-44.78,0-67.18,0
	c-0.27,0-0.4-0.13-0.4-0.4c0-8.4,0-16.67,0-24.8c0-0.2,0.1-0.3,0.3-0.3c4.8,0,9.82,0,15.07,0c0.25,0,0.38-0.13,0.38-0.38
	c0-30.58,0-61.14,0-91.67c0-0.47-0.23-0.7-0.7-0.7c-5.44,0.03-10.26,0.01-14.49-0.05c-0.33-0.01-0.5-0.18-0.5-0.51
	c-0.07-7.72-0.09-15.91-0.06-24.57C1516.25,170.87,1516.38,170.75,1516.63,170.75L1516.63,170.75z M1602.06,226.81
	c2.2-2.98,3.26-6.67,3.19-11.06c-0.06-2.94-0.45-5.67-1.18-8.21c-0.09-0.32-0.2-0.63-0.34-0.93c-1.95-4.22-5.47-6.79-10.55-7.71
	c-0.33-0.06-0.66-0.09-0.99-0.1c-7.81-0.24-15.39-0.28-22.75-0.12c-0.33,0-0.5,0.17-0.51,0.51c-0.21,10.46-0.27,21.49-0.17,33.08
	c0,0.49,0.25,0.73,0.73,0.73c5.42-0.04,10.84-0.04,16.26,0c3.4,0.02,6.48-0.39,9.25-1.25
	C1598.01,230.77,1600.36,229.12,1602.06,226.81L1602.06,226.81z"/>
<path class="st2" d="M1820.65,170.75c38.39-0.03,76.4-0.01,114.04,0.06c0.33,0,0.5,0.17,0.5,0.5c0.07,14.33,0.09,29.37,0.06,45.12
	c0,0.55-0.28,0.82-0.82,0.82c-8.79,0-17.58,0-26.37,0c-0.33,0-0.49-0.16-0.5-0.49c-0.07-5.85-0.09-11.71-0.06-17.59
	c0-0.45-0.22-0.67-0.67-0.67c-8.47-0.13-16.67-0.13-24.58,0c-3.02,0.05-6.02,0.05-9,0c-0.29-0.02-0.44,0.12-0.44,0.41
	c-0.07,9.24-0.09,18.8-0.06,28.68c0,0.44,0.23,0.66,0.67,0.66c13.22,0,26.51,0,39.88,0c0.47,0,0.7,0.23,0.7,0.7
	c0,9.03,0,17.95,0,26.75c0,0.2-0.1,0.3-0.3,0.3c-13.47,0-27.01,0-40.63,0c-0.21,0-0.32,0.11-0.32,0.32c0,9.95,0,19.95,0,29.98
	c0,0.47,0.23,0.7,0.7,0.7c11.7,0,23.22,0,34.55,0c0.45,0,0.68-0.23,0.69-0.68c0.09-6.66,0.09-13.21,0.01-19.63
	c-0.01-0.34,0.16-0.51,0.49-0.52c8.47-0.21,17.45-0.26,26.95-0.16c0.24,0,0.36,0.12,0.36,0.36c0.03,16.16,0.01,32.01-0.06,47.57
	c0,0.33-0.17,0.5-0.5,0.5c-12.89-0.03-25.95-0.01-39.19,0.06c-9.5,0.05-19,0.05-28.5,0c-15.75-0.24-31.64-0.24-47.68,0
	c-0.21,0-0.32-0.11-0.32-0.32c0-7.95,0-16.22,0-24.8c0-0.25,0.13-0.38,0.38-0.38c4.91,0,9.89,0,14.92,0c0.47,0,0.7-0.23,0.7-0.7
	c0.03-30.95,0.01-61.45-0.06-91.49c0-0.33-0.17-0.5-0.5-0.51c-4.46-0.06-9.5-0.08-15.14-0.05c-0.2,0-0.3-0.1-0.3-0.3
	c0-8.13,0-16.4,0-24.8C1820.25,170.88,1820.38,170.75,1820.65,170.75L1820.65,170.75z"/>
<path class="st2" d="M1954.45,170.75c23.87,0.14,47.72,0.14,71.55,0c10.62-0.06,20.54,1.52,29.75,4.75
	c7.98,2.92,13.96,7.52,17.94,13.81c4.09,6.33,6.11,13.56,6.06,21.69c0.04,4.39-0.46,8.72-1.5,13c-1.97,8.08-6.29,14.85-12.94,20.31
	c-3.1,2.55-6.39,4.7-9.87,6.45c-0.29,0.16-0.3,0.34-0.03,0.53c3.38,2.36,6.06,5.29,8.03,8.77c2.24,3.53,3.93,7.34,5.06,11.44
	c0.97,3.53,2.41,6.68,4.31,9.44c2.7,3.42,6.59,5.11,11.69,5.06c2.36,0.05,3.52,0.14,3.5,0.25c-2.01,9.56-4.05,19.18-6.1,28.88
	c-0.1,0.48-0.4,0.76-0.89,0.83c-10.25,1.6-19.31,0.35-27.2-3.77c-5.14-2.69-9.22-6.6-12.25-11.75c-4.11-6.82-7.3-14.13-9.56-21.94
	c-1.18-4.08-2.76-7.92-4.75-11.5c-1.99-3.71-5.08-5.71-9.25-6c-3.61-0.3-7.28-0.38-10.99-0.25c-0.33,0.01-0.5,0.17-0.51,0.5
	c-0.27,8.36-0.35,17.43-0.23,27.2c0.01,0.32,0.17,0.49,0.5,0.49c4.26,0.07,9.02,0.09,14.28,0.06c0.47,0,0.7,0.23,0.7,0.7
	c0,8.2,0,16.37,0,24.5c0,0.2-0.1,0.3-0.3,0.3c-22.13,0-44.48,0-67.03,0c-0.45,0-0.67-0.22-0.67-0.67c0-7.89,0-16.03,0-24.43
	c0-0.27,0.13-0.4,0.4-0.4c5.15,0,10.02,0,14.61,0c0.49,0,0.74-0.24,0.74-0.73c0.06-10.43-0.01-20.69-0.21-30.77
	c0.67-4.56,0.91-10.23,0.71-17c-0.13-4.51-0.13-9.01,0-13.5c0.05-2.55-0.19-4.63-0.71-6.25c0.24-7.6,0.31-15.54,0.2-23.82
	c-0.01-0.46-0.24-0.68-0.7-0.68c-5.43,0.03-10.26,0.01-14.48-0.05c-0.33-0.01-0.5-0.18-0.5-0.51c-0.07-7.72-0.09-15.8-0.06-24.25
	C1953.75,170.98,1953.99,170.75,1954.45,170.75L1954.45,170.75z M2006.43,232.74c0,0.16,0.09,0.25,0.25,0.25
	c7.21,0.2,14.09,0.14,20.63-0.18c6.31-0.31,10.85-2.95,13.63-7.94c0.17-0.29,0.31-0.59,0.44-0.9c2.12-5.18,2.16-10.59,0.12-16.22
	c-1.35-3.73-3.78-6.29-7.31-7.69c-2.43-0.91-4.99-1.34-7.69-1.31c-6.32,0.08-12.9,0.05-19.75-0.07c-0.17,0-0.25,0.08-0.25,0.25
	C2006.53,210.3,2006.51,221.57,2006.43,232.74z"/>
<path class="st2" d="M2285.63,170.75c37.91,0,75.99,0,114.24,0c0.25,0,0.38,0.13,0.38,0.38c0,15.25,0,30.49,0,45.74
	c0,0.25-0.13,0.38-0.38,0.38c-9.25,0-18.27,0-27.07,0c-0.2,0-0.3-0.1-0.3-0.3c0-5.8,0-11.78,0-17.95c0-0.35-0.17-0.52-0.52-0.51
	c-11.79,0.16-23.02,0.18-33.67,0.08c-0.33,0-0.5,0.16-0.5,0.49c-0.07,9.14-0.09,18.58-0.06,28.33c0,0.57,0.29,0.86,0.87,0.86
	c13.25,0,26.61,0,40.08,0c0.2,0,0.3,0.1,0.3,0.3c0,8.8,0,17.82,0,27.07c0,0.25-0.13,0.38-0.38,0.38c-13.58,0-27.1,0-40.57,0
	c-0.2,0-0.3,0.1-0.3,0.3c0,9.8,0,19.81,0,30.03c0,0.45,0.22,0.67,0.67,0.67c11.22,0,22.82,0,34.79,0c0.33,0,0.48-0.16,0.47-0.49
	c-0.27-6.73-0.23-13.38,0.11-19.95c0.01-0.33,0.19-0.5,0.52-0.5c8.64-0.07,17.47-0.09,26.49-0.06c0.47,0,0.7,0.24,0.7,0.7
	c0,15.7,0,31.51,0,47.42c0,0.25-0.13,0.38-0.38,0.38c-38.58,0-77.1,0-115.57,0c-0.2,0-0.3-0.1-0.3-0.3
	c-0.03-8.45-0.01-16.67,0.06-24.64c0-0.33,0.17-0.5,0.5-0.5c4.96-0.04,9.92-0.08,14.88-0.12c0.33,0,0.5-0.17,0.5-0.5
	c0.07-30.17,0.09-60.66,0.06-91.48c0-0.48-0.24-0.72-0.72-0.71c-5.59,0.03-10.5,0.01-14.72-0.05c-0.33-0.01-0.5-0.18-0.5-0.51
	c-0.07-7.72-0.09-15.91-0.06-24.57C2285.25,170.87,2285.38,170.75,2285.63,170.75L2285.63,170.75z"/>
<path class="st2" d="M2469.19,170.76c0.64,0,1.14,0.27,1.5,0.8c19.11,28.37,38.28,56.7,57.5,85c0.33,0.49,0.5,0.44,0.5-0.15
	c0.07-19.49,0.09-39.43,0.06-59.82c0-0.23-0.11-0.34-0.34-0.34c-4.77,0-9.69,0-14.76,0c-0.27,0-0.4-0.13-0.4-0.4
	c0-8.4,0-16.67,0-24.8c0-0.2,0.1-0.3,0.3-0.3c21.8,0,43.68,0,65.63,0c0.21,0,0.32,0.11,0.32,0.32c0,7.95,0,16.22,0,24.8
	c0,0.25-0.13,0.38-0.38,0.38c-4.91,0-9.9,0-14.97,0c-0.27,0-0.4,0.13-0.4,0.4c0,39.23,0,78.43,0,117.6c0,0.17-0.08,0.25-0.25,0.25
	c-11.5,0-23.18,0-35.05,0c-0.39,0-0.69-0.16-0.91-0.48c-19.26-28.29-38.48-56.31-57.65-84.06c-0.23-0.34-0.35-0.31-0.34,0.11
	c0.15,20.08,0.14,39.49-0.05,58.22c0,0.53,0.26,0.79,0.79,0.78c4.19-0.08,8.87-0.1,14.05-0.06c0.44,0,0.66,0.22,0.66,0.65
	c0.03,8.22,0.01,16.41-0.06,24.59c0,0.17-0.09,0.25-0.25,0.25c-21.79,0-43.59,0-65.38,0c-0.33,0-0.5-0.16-0.5-0.49
	c-0.07-7.85-0.09-16.06-0.06-24.63c0-0.26,0.13-0.38,0.39-0.38c5.58,0.03,10.51,0.01,14.8-0.06c0.33,0,0.5-0.17,0.5-0.5
	c0.16-12.1,0.12-24.14-0.12-36.13c-0.01-0.33-0.01-0.66,0-1c0.31-18.12,0.31-36.25,0-54.37c0-0.33-0.17-0.51-0.51-0.53
	c-3.87-0.19-8.66-0.24-14.38-0.12c-0.41,0-0.62-0.2-0.62-0.61c-0.04-8.25-0.08-16.33-0.12-24.24c0-0.34,0.17-0.51,0.5-0.51
	C2435.16,170.72,2451.82,170.66,2469.19,170.76L2469.19,170.76z"/>
<path class="st2" d="M2589.31,170.81c44.31-0.07,89.08-0.09,134.31-0.06c0.25,0,0.38,0.13,0.38,0.38c0,16.33,0,32.72,0,49.17
	c0,0.18-0.09,0.26-0.26,0.26c-9.24-0.04-18.14-0.08-26.68-0.12c-0.33,0-0.5-0.17-0.5-0.5c-0.04-6.96-0.08-13.92-0.12-20.88
	c0-0.33-0.17-0.47-0.5-0.43c-1.2,0.17-2.6,0.21-4.19,0.12c-5.6-0.33-11.04-0.36-16.31-0.09c-0.34,0.02-0.5,0.19-0.51,0.53
	c-0.21,29.3-0.27,59.1-0.18,89.4c0,0.27,0.14,0.41,0.41,0.41c5.14,0,10.15,0,15.02,0c0.21,0,0.32,0.11,0.32,0.32
	c0,8.45,0,16.75,0,24.88c0,0.2-0.1,0.3-0.3,0.3c-22.62,0.03-45,0.01-67.14-0.06c-0.33,0-0.5-0.17-0.5-0.5
	c-0.04-8.19-0.08-16.27-0.12-24.25c0-0.34,0.16-0.51,0.5-0.52c4.79-0.18,9.62-0.25,14.5-0.24c0.33,0.01,0.5-0.16,0.5-0.49
	c0.07-29.48,0.09-59.3,0.06-89.46c0-0.16-0.08-0.25-0.25-0.24c-7.39,0.1-14.31,0.02-20.77-0.23c-0.52-0.02-0.76,0.23-0.73,0.74
	c0.39,7.02,0.39,13.99,0,20.93c-0.01,0.21-0.12,0.32-0.33,0.32c-8.95,0-17.75,0-26.41,0c-0.5,0-0.76-0.25-0.76-0.76
	c-0.03-16.78-0.01-32.93,0.06-48.43C2588.81,170.98,2588.98,170.81,2589.31,170.81L2589.31,170.81z"/>
<path class="st2" d="M2735.82,170.75c37.95,0,76.05,0,114.3,0c0.25,0,0.38,0.13,0.38,0.38c0,15.25,0,30.49,0,45.74
	c0,0.25-0.13,0.38-0.38,0.38c-8.91,0-17.9,0-26.97,0c-0.27,0-0.4-0.13-0.4-0.4c0-5.82,0-11.72,0-17.7c0-0.32-0.16-0.47-0.47-0.47
	c-11.53,0.08-22.85,0.1-33.95,0.07c-0.22,0-0.33,0.11-0.33,0.32c0,9.29,0,18.78,0,28.48c0,0.47,0.23,0.7,0.7,0.7
	c13.36-0.03,26.62-0.01,39.81,0.06c0.32,0,0.48,0.17,0.49,0.49c0.03,9.45,0.01,18.33-0.06,26.64c0,0.33-0.17,0.5-0.5,0.5
	c-12.97,0.07-26.32,0.09-40.04,0.06c-0.27,0-0.4,0.13-0.4,0.4c0,9.73,0,19.47,0,29.2c0,0.93,0.47,1.4,1.4,1.4
	c11.72,0.03,23.07,0.01,34.04-0.06c0.33,0,0.5-0.17,0.5-0.5c0.07-6.47,0.09-13.06,0.06-19.77c0-0.44,0.22-0.67,0.66-0.67
	c9.21-0.03,18.08-0.01,26.6,0.06c0.33,0,0.49,0.17,0.49,0.5c0,16.13,0,32.02,0,47.69c0,0.17-0.08,0.25-0.25,0.25
	c-38.67,0-77.23,0-115.7,0c-0.2,0-0.3-0.1-0.3-0.3c-0.03-8.45-0.01-16.67,0.06-24.64c0-0.33,0.17-0.5,0.5-0.51
	c3.98-0.06,8.93-0.08,14.85-0.04c0.35,0,0.53-0.17,0.53-0.53c0.18-26.14,0.12-52.13-0.18-77.98c-0.01-0.33,0-0.67,0.03-1
	c0.24-3,0.31-7.19,0.19-12.58c-0.01-0.45-0.24-0.67-0.69-0.67c-4.69,0-9.56,0-14.59,0c-0.47,0-0.7-0.23-0.7-0.7
	c0-8.03,0-16.19,0-24.48C2735.5,170.86,2735.61,170.75,2735.82,170.75L2735.82,170.75z"/>
<path class="st0" d="M236.5,189.75c6.91-0.21,13.27,0.44,19.06,1.94c4.44,1.14,8.35,3.23,11.75,6.25
	c6.19,5.27,10.26,11.79,12.19,19.56c1.34,5.4,2.11,11.3,2.31,17.69c0.25,10.8-1.37,20.46-4.87,29c-2.35,5.74-5.85,10.49-10.5,14.25
	c-6,4.64-13.23,7.08-21.69,7.31c-9.17,0.25-17.4,0.24-24.69-0.04c-0.33-0.02-0.5-0.19-0.5-0.52c0.02-29.72,0-59.62-0.06-89.69
	c0-2.2,0.12-3.87,0.36-5.02c0.09-0.32,0.31-0.49,0.64-0.51C224.69,189.9,230.02,189.82,236.5,189.75z"/>
<path class="st0" d="M846.61,189.8c11.74-0.21,21.28-0.07,28.64,0.42c0.33,0.02,0.67,0.05,1,0.1c8.58,1.15,15.89,5.15,21.94,11.99
	c2.5,2.83,4.41,5.91,5.75,9.25c2.75,6.95,4.18,14.18,4.31,21.69c0.13,7.98-0.51,15.34-1.94,22.06c-1.44,6.21-4.03,11.96-7.75,17.25
	c-2.15,3.04-4.94,5.66-8.37,7.88c-5.45,3.37-11.51,5.14-18.19,5.31c-7.95,0.21-16.36,0.28-25.23,0.23c-0.51,0-0.77-0.26-0.77-0.78
	c-0.03-32.55-0.01-64.16,0.06-94.84C846.06,190,846.25,189.81,846.61,189.8L846.61,189.8z"/>
<path class="st3" d="M1969.29,220.75c0.52,1.62,0.76,3.7,0.71,6.25c-0.13,4.49-0.13,8.99,0,13.5c0.2,6.77-0.04,12.44-0.71,17
	C1969.02,245.33,1969.02,233.08,1969.29,220.75z"/>
<path class="st0" d="M220.08,340.68c8.63-0.03,17.1-0.01,25.42,0.07c9.52,0.18,17.71,2.99,24.56,8.44
	c4.43,3.51,7.89,7.97,10.38,13.37c4.81,10.91,7,22.55,6.58,34.94c-0.01,0.33-0.01,0.67,0,1c0.66,15.03-3.36,28.25-12.08,39.69
	c-7.04,9.23-16.6,14.09-28.69,14.56c-8.35,0.43-16.98,0.51-25.89,0.24c-0.57,0-0.86-0.3-0.86-0.87c0.06-34.41,0.06-68.7,0-102.87
	c0-2.63,0.1-5.41,0.3-8.32C219.82,340.77,219.91,340.68,220.08,340.68z"/>
<path class="st0" d="M846.8,340.5c7.74,0.08,16.22,0.17,25.45,0.25c9.76,0.13,18.03,3.11,24.81,8.94
	c4.64,3.98,8.22,9.06,10.75,15.25c2.03,5.07,3.49,10.44,4.38,16.12c1.54,9.51,1.81,18.74,0.81,27.69
	c-1.21,12.05-5.56,22.44-13.06,31.19c-5.81,6.77-12.95,10.79-21.44,12.06c-5.42,0.9-11.5,1.23-18.25,1c-4.33-0.06-8.75-0.06-13.25,0
	c-0.67,0-1-0.33-1-1c0-36.5,0-73.41,0-110.73C846,340.74,846.27,340.48,846.8,340.5z"/>
<path class="st2" d="M1311,386.75c7.82-0.11,14.38,2.08,19.69,6.56c6.22,5.4,9.82,12.71,10.81,21.94
	c0.57,5.32,0.65,10.57,0.25,15.75c-0.58,6.61-2.48,12.63-5.69,18.06c-3.72,6.44-9.09,10.65-16.12,12.63
	c-4.68,1.31-9.58,1.67-14.69,1.06c-5.7-0.61-10.72-2.67-15.06-6.19c-3.49-2.82-6.24-6.49-8.25-11c-1.83-4.46-2.98-8.98-3.44-13.56
	c-1.14-10.06-0.12-19.04,3.06-26.94c3.17-7.87,8.42-13.2,15.75-16C1301.71,387.33,1306.27,386.56,1311,386.75L1311,386.75z
	 M1296.94,452.06c3.34,2.45,7.28,3.76,11.81,3.94c4.8,0.19,9.07-0.88,12.81-3.19c3.1-1.96,5.57-4.69,7.4-8.18
	c0.15-0.3,0.29-0.6,0.41-0.91c3.06-8.05,4.1-16.71,3.13-25.97c-0.66-6.31-2.51-11.73-5.54-16.27c-0.18-0.28-0.38-0.55-0.6-0.8
	c-4.24-5-9.78-7.24-16.61-6.72c-0.33,0.03-0.67,0.04-1,0.03c-5.43-0.14-10.07,1.89-13.94,6.07c-3,3.22-5,7.22-6,12
	c-1.48,7.11-1.75,14.34-0.81,21.69c0.42,3.45,1.25,6.7,2.5,9.75C1292.01,447.11,1294.15,449.97,1296.94,452.06L1296.94,452.06z"/>
<path class="st2" d="M1526.5,387.25c7.45,1.05,13.49,4.2,18.11,9.44c0.22,0.25,0.42,0.51,0.62,0.78c5.48,7.54,7.99,16.47,7.54,26.78
	c-0.01,0.33-0.02,0.67-0.01,1c0.12,10.59-2.72,19.69-8.52,27.29c-0.2,0.26-0.41,0.52-0.64,0.77c-5.67,6.33-13.21,9.56-22.6,9.69
	c-8.56,0.12-15.67-2.36-21.31-7.44c-4.76-4.37-7.97-10.16-9.63-17.37c-2.1-9.58-1.96-19.06,0.44-28.44
	c1.01-3.94,2.7-7.59,5.06-10.94c4.5-6.26,10.65-10.03,18.44-11.31C1518.18,386.81,1522.34,386.73,1526.5,387.25L1526.5,387.25z
	 M1507.19,451.81c3.25,2.55,7.19,3.95,11.81,4.19c4.89,0.26,9.22-0.74,13-3c3.28-2.04,5.76-4.82,7.44-8.31
	c2.8-5.84,4.08-12.06,3.83-18.69c-0.01-0.33-0.01-0.67,0.02-1c0.64-8.71-1.14-16.38-5.34-23.02c-0.17-0.28-0.37-0.55-0.57-0.81
	c-3.43-4.13-8.06-6.52-13.88-7.17c-6.32-0.71-11.8,0.73-16.44,4.31c-3.57,3.09-5.98,7.25-7.25,12.5
	c-2.48,10.31-2.34,20.45,0.44,30.44C1501.57,445.76,1503.88,449.28,1507.19,451.81z"/>
<path class="st2" d="M2025.54,393.16c3.39,3.34,5.13,7.54,5.22,12.6c0.01,0.37-0.16,0.62-0.51,0.73c-2.83,0.97-5.15,1.45-6.94,1.45
	c-0.33,0-0.51-0.17-0.53-0.5c-0.1-1.69-0.44-3.34-1.03-4.94c-1.42-3.73-4.07-6.25-7.94-7.56c-2.47-0.84-5.24-1.24-8.31-1.19
	c-3.69-0.01-6.79,0.96-9.31,2.94c-2.21,1.73-3.36,4-3.44,6.81c-0.43,4.5,1.01,8.14,4.31,10.94c2.71,2.29,5.92,4.08,9.63,5.37
	c3.75,1.58,7.52,3.14,11.31,4.69c3.81,1.56,7.08,3.79,9.81,6.69c2.91,3.35,4.14,7.62,3.69,12.81c-0.52,6.04-3.12,10.8-7.79,14.27
	c-0.26,0.19-0.54,0.38-0.83,0.55c-3.73,2.2-7.78,3.51-12.13,3.93c-8.46,0.81-15.47-0.7-21.02-4.53c-0.28-0.19-0.54-0.39-0.8-0.61
	c-4.56-3.88-6.87-9.09-6.93-15.62c-0.01-0.34,0.15-0.56,0.47-0.66c2.81-0.85,5.13-1.35,6.97-1.48c0.33-0.03,0.5,0.13,0.52,0.46
	c-0.03,3.87,1.08,7.33,3.35,10.38c1.97,2.64,4.62,4.25,7.94,4.81c4.38,0.91,8.63,0.74,12.75-0.5c4.09-1.23,6.91-3.59,8.44-7.06
	c1-2.38,1.1-4.7,0.31-6.94c-0.9-2.96-2.72-5.23-5.44-6.81c-3.37-2.07-6.98-3.72-10.81-4.94c-5.93-1.74-11.2-4.39-15.81-7.94
	c-3.65-2.81-5.79-6.74-6.44-11.81c-0.44-2.9-0.27-5.99,0.5-9.25c1.21-4.23,3.53-7.42,6.94-9.56c3.71-2.2,7.87-3.45,12.5-3.75
	c8.27-0.55,15.14,1.3,20.6,5.56C2025.06,392.71,2025.31,392.93,2025.54,393.16L2025.54,393.16z"/>
<path class="st4" d="M2147.44,388.06c4.17,1.16,7.59,3.16,10.25,6c2.93,3.18,4.37,7.17,4.31,11.96c0,0.31-0.15,0.5-0.44,0.58
	c-2.13,0.58-4.34,1.09-6.65,1.52c-0.55,0.11-0.85-0.12-0.88-0.68c-0.22-4.59-1.92-8.13-5.09-10.63c-2.22-1.74-4.88-2.74-8-3
	c-4.56-0.71-8.52-0.13-11.88,1.75c-3.74,2.1-5.43,5.49-5.06,10.19c0.19,3.39,1.79,6.37,4.81,8.94c2.2,1.79,4.65,3.25,7.38,4.37
	c3.63,1.57,7.3,3.07,11,4.5c3.85,1.5,7.23,3.46,10.12,5.88c3.24,2.84,5.05,6.36,5.44,10.56c0.69,7.41-1.7,13.37-7.18,17.87
	c-0.25,0.21-0.52,0.41-0.8,0.59c-3.71,2.4-7.88,3.83-12.52,4.29c-5.84,0.74-11.32,0.14-16.44-1.81c-3.74-1.43-6.65-3.68-8.75-6.75
	c-2.72-3.67-3.98-7.8-3.77-12.38c0.01-0.33,0.18-0.53,0.51-0.61c2.29-0.51,4.59-1.05,6.9-1.61c0.35-0.08,0.53,0.05,0.55,0.41
	c0.23,4,1.25,7.42,3.05,10.27c0.17,0.28,0.37,0.54,0.59,0.8c2.61,2.88,6.23,4.53,10.86,4.93c5.27,0.61,9.91-0.41,13.94-3.06
	c3.67-2.43,5.19-5.99,4.56-10.69c-0.36-3.12-1.99-5.67-4.9-7.65c-0.28-0.19-0.56-0.36-0.86-0.52c-5.46-2.61-11.27-5.08-17.43-7.39
	c-3.49-1.31-6.62-3.19-9.37-5.63c-2.83-2.3-4.72-5.32-5.69-9.06c-0.7-2.88-0.86-5.71-0.5-8.5c0.36-4.38,2.09-8.06,5.19-11.06
	c2.88-2.79,6.5-4.5,10.87-5.13C2136.93,386.37,2142.23,386.62,2147.44,388.06L2147.44,388.06z"/>
<path class="st2" d="M2629.5,386.75c7.28-0.01,13.67,1.85,19.19,5.56c3.32,2.28,5.99,5.37,8,9.25c3.3,6.86,4.9,14.43,4.81,22.69
	c-0.11,9.96-2.46,18.71-7.05,26.26c-0.17,0.28-0.36,0.56-0.56,0.83c-4.88,6.53-11.51,10.33-19.89,11.41c-5.22,0.67-10.22,0.34-15-1
	c-3.89-1.14-7.24-3.04-10.06-5.69c-2.97-2.54-5.39-5.79-7.25-9.75c-2.49-5.35-3.89-11.21-4.19-17.56
	c-0.38-7.33,0.31-14.06,2.06-20.19c1.73-6.05,4.82-10.97,9.25-14.75C2614.36,389.11,2621.26,386.76,2629.5,386.75z M2615.69,451.56
	c3.59,2.79,7.94,4.27,13.06,4.44c4.29,0.08,8.29-0.92,12-3c3.2-2,5.64-4.73,7.31-8.19c2.67-5.5,3.98-11.35,3.94-17.56
	c0-0.33,0.01-0.67,0.04-1c0.53-7.32-0.5-14.05-3.1-20.19c-1.62-3.74-3.91-6.61-6.88-8.62c-3.52-2.13-7.29-3.28-11.31-3.44
	c-7.64-0.31-13.6,2.17-17.87,7.43c-0.21,0.25-0.41,0.52-0.58,0.81c-3.57,5.68-5.34,12.1-5.3,19.26c0,0.33-0.02,0.67-0.05,1
	c-0.77,8.16,0.43,15.72,3.61,22.69C2611.84,447.78,2613.55,449.9,2615.69,451.56L2615.69,451.56z"/>
<path class="st2" d="M2720.94,389.81c3.54,1.7,6.25,3.99,8.12,6.88c2.23,3.31,3.28,7.2,3.18,11.67c-0.01,0.17-0.09,0.26-0.25,0.3
	c-2.87,0.55-5.22,1.06-7.05,1.53c-0.45,0.11-0.68-0.06-0.69-0.53c-0.03-3.68-1.05-6.97-3.06-9.85c-1.87-2.66-4.6-4.43-8.19-5.31
	c-4.86-1.13-9.69-0.96-14.5,0.5c-3.72,1.13-6.7,3.24-8.94,6.31c-4,5.78-5.86,12.34-5.58,19.69c0.01,0.33,0.01,0.67-0.01,1
	c-0.42,7.32,0.43,14.15,2.53,20.5c1.31,3.96,3.5,7.19,6.56,9.69c3.52,2.65,7.58,3.93,12.19,3.81c4.77-0.07,8.91-1.34,12.44-3.81
	c3.44-2.42,5.54-5.73,6.31-9.94c0.51-2.65,0.6-5.15,0.25-7.5c-0.02-0.17-0.12-0.25-0.28-0.25c-3.48,0-6.95,0-10.42,0
	c-0.2,0-0.3-0.1-0.3-0.3c0-1.8,0-3.76,0-5.88c0-0.21,0.11-0.32,0.32-0.32c8.12,0,16.3,0,24.54,0c0.31,0,0.46,0.15,0.45,0.46
	c-0.03,1.9-0.07,3.72-0.11,5.48c-0.01,0.33-0.18,0.5-0.51,0.51c-1.71,0.03-3.53,0.07-5.45,0.11c-0.33,0.01-0.49,0.17-0.49,0.5
	c0,8.79,0,17.5,0,26.12c0,0.37-0.18,0.53-0.55,0.47c-0.89-0.14-2.19-0.21-3.89-0.21c-0.33,0-0.54-0.16-0.61-0.49
	c-0.34-1.4-0.68-3.66-1.01-6.79c-0.06-0.56-0.27-0.62-0.63-0.18c-4.14,5.1-9.41,8.03-15.81,8.77c-3.36,0.39-6.53,0.39-9.5,0
	c-6.44-0.79-11.79-3.44-16.06-7.94c-2.65-2.78-4.69-6.07-6.13-9.87c-2.58-6.84-3.69-14.32-3.31-22.44
	c0.19-4.12,0.75-8.23,1.69-12.31c1.41-6.48,4.45-11.86,9.12-16.13c5.11-4.67,11.15-7.04,18.13-7.12c0.33,0,0.66-0.02,1-0.05
	C2710.14,386.3,2715.64,387.27,2720.94,389.81L2720.94,389.81z"/>
<path class="st4" d="M2794.44,389.06c3.61,1.45,6.53,3.61,8.75,6.5c2.81,3.48,4.16,7.54,4.05,12.18c0,0.33-0.16,0.54-0.47,0.65
	c-2.78,0.98-5.06,1.53-6.83,1.64c-0.34,0.02-0.51-0.13-0.53-0.47c-0.13-3.6-1.2-6.85-3.22-9.75c-1.9-2.71-4.63-4.48-8.19-5.31
	c-4.66-1.12-9.3-1.02-13.94,0.31c-3.72,1.07-6.8,3.15-9.25,6.25c-2.59,3.45-4.26,7.45-5,12c-0.71,5.12-0.98,10.26-0.81,15.44
	c0.25,7.34,2.02,13.84,5.31,19.51c0.17,0.28,0.36,0.56,0.56,0.82c4.06,5.2,9.6,7.58,16.63,7.17c2.7-0.16,5.39-0.8,8.06-1.94
	c3.91-1.7,6.71-4.49,8.38-8.37c1.2-2.8,1.71-6.27,1.53-10.41c-0.02-0.52-0.29-0.78-0.8-0.78c-3.58-0.03-6.92-0.01-10.03,0.07
	c-0.2,0-0.31-0.1-0.32-0.31c-0.08-1.71-0.1-3.7-0.06-5.96c0-0.2,0.1-0.3,0.3-0.3c7.79,0,16,0,24.61,0c0.33,0,0.51,0.17,0.53,0.5
	c0.06,1.54,0.08,3.44,0.04,5.7c0,0.2-0.1,0.3-0.3,0.3c-1.46,0-3.04,0-4.74,0c-0.97,0-1.45,0.48-1.45,1.45c0,8.37,0,16.74,0,25.12
	c0,0.33-0.16,0.48-0.48,0.46c-1.83-0.1-3.09-0.08-3.78,0.07c-0.75,0.16-1.16-0.15-1.21-0.92c-0.22-3.25-0.58-5.41-1.07-6.48
	c-0.14-0.3-0.31-0.32-0.52-0.06c-3.87,4.88-8.93,7.75-15.19,8.61c-3.62,0.5-7.04,0.5-10.25,0c-6.33-0.81-11.61-3.46-15.81-7.94
	c-2.73-2.9-4.77-6.19-6.13-9.87c-2.58-6.98-3.68-14.63-3.31-22.94c0.25-5.71,1.32-11.23,3.19-16.56c1.62-4.35,4.08-8.06,7.37-11.13
	c4.82-4.21,10.64-6.65,17.44-7.31C2783.47,386.42,2789.11,387.11,2794.44,389.06L2794.44,389.06z"/>
<path class="st2" d="M2985.5,386.75c5.35-0.08,10.18,1.01,14.5,3.25c3.9,2.02,6.59,4.84,8.06,8.44c1.29,2.77,1.74,5.31,1.35,7.63
	c-0.07,0.33-0.26,0.53-0.58,0.62c-2.08,0.52-4.33,1.02-6.77,1.5c-0.15,0.03-0.42-1.03-0.81-3.19c-0.62-3.84-2.48-6.73-5.56-8.69
	c-3.02-1.76-6.5-2.62-10.44-2.56c-3.32,0.05-6.3,0.74-8.94,2.06c-1.81,1.02-3.06,2.35-3.75,4c-1.54,3.39-1.54,6.76,0,10.13
	c1.63,3.3,4.5,5.92,8.63,7.87c3.43,1.62,7.03,3.18,10.81,4.69c4.03,1.35,7.61,3.1,10.75,5.25c4.66,3.11,7.22,7.22,7.69,12.31
	c0.72,7.18-1.53,12.97-6.75,17.38c-3.1,2.61-6.64,4.24-10.63,4.87c-8.05,1.55-15.14,0.84-21.25-2.12c-3.62-1.76-6.33-4.22-8.12-7.38
	c-2.22-3.78-3.08-7.4-2.57-10.88c0.04-0.33,0.22-0.55,0.54-0.67c1.81-0.68,4.03-1.18,6.66-1.51c0.33-0.04,0.51,0.1,0.53,0.44
	c0.13,2.8,0.7,5.39,1.71,7.75c1.65,3.73,4.54,6.17,8.69,7.31c5.41,1.52,10.64,1.16,15.69-1.06c4.86-2.15,7.21-5.71,7.06-10.69
	c-0.13-4.56-2.57-7.95-7.31-10.19c-5.36-2.43-11.06-4.81-17.13-7.12c-2.71-1.04-5.17-2.5-7.37-4.38c-3.94-2.99-6.25-6.85-6.94-11.56
	c-0.7-4.8-0.18-9.12,1.56-12.94c1.46-3.3,3.96-5.88,7.5-7.75C2976.23,387.57,2980.63,386.63,2985.5,386.75L2985.5,386.75z"/>
<path class="st2" d="M1215.62,388.25c17.25,0,34.49,0,51.71,0c0.45,0,0.67,0.22,0.67,0.67c0,5.22,0,10.56,0,16.03
	c0,0.2-0.1,0.3-0.3,0.3c-2.13,0-4.27,0-6.4,0c-0.2,0-0.3-0.1-0.3-0.3c0.03-3.39,0.01-6.38-0.06-8.96c-0.01-0.33-0.17-0.49-0.5-0.49
	c-8.79,0-17.44,0-25.95,0c-0.49,0-0.74,0.25-0.74,0.74c0,7.84,0,15.95,0,24.33c0,0.3,0.15,0.44,0.44,0.44
	c9.86-0.1,19.24-0.05,28.12,0.17c0.34,0,0.53,0.17,0.57,0.5c0.27,2.05,0.27,4.09,0,6.14c-0.05,0.33-0.24,0.49-0.57,0.49
	c-9.12-0.07-18.54-0.09-28.24-0.06c-0.21,0-0.32,0.11-0.32,0.32c-0.03,8.94-0.01,17.56,0.06,25.87c0,0.33,0.17,0.5,0.5,0.5
	c3.38-0.02,6.72,0.05,10,0.22c0.34,0.02,0.53,0.19,0.58,0.52c0.16,1.01,0.19,2.76,0.1,5.25c-0.01,0.42-0.23,0.64-0.66,0.63
	c-9.07-0.07-18.56-0.09-28.49-0.06c-0.34,0.01-0.52-0.17-0.54-0.51c-0.06-1.53-0.08-3.43-0.04-5.69c0-0.2,0.1-0.3,0.31-0.3
	c3.66,0.03,6.78,0.01,9.37-0.05c0.33-0.01,0.5-0.18,0.5-0.51c0.07-19.06,0.09-38.68,0.06-58.88c0-0.33-0.17-0.5-0.49-0.5
	c-3.17-0.04-6.24-0.08-9.2-0.12c-0.33,0-0.5-0.17-0.52-0.5c-0.06-1.48-0.07-3.42-0.03-5.83
	C1215.26,388.37,1215.38,388.25,1215.62,388.25L1215.62,388.25z"/>
<path class="st4" d="M1385.25,388.25c5.61,0.03,10.6,1.06,14.98,3.1c0.31,0.14,0.6,0.3,0.88,0.47c4.81,3.02,7.52,7.49,8.14,13.43
	c0.58,5.6-0.44,10.41-3.06,14.44c-2.11,3.12-4.92,5.46-8.43,7.02c-0.3,0.15-0.31,0.32-0.03,0.51c3.06,2.07,5.11,5.17,6.15,9.3
	c0.08,0.32,0.14,0.65,0.18,0.98c0.6,4.92,1.79,9.58,3.57,13.97c0.12,0.31,0.28,0.61,0.47,0.88c1.01,1.47,2.65,2.37,4.91,2.69
	c0.23,0.03,0.31,0.15,0.26,0.38c-0.55,2.3-1.04,4.39-1.47,6.28c-0.07,0.32-0.28,0.5-0.61,0.53c-4.88,0.48-8.51-1.37-10.88-5.54
	c-0.93-1.65-1.62-3.46-2.06-5.44c-0.83-4.44-1.74-8.86-2.75-13.25c-0.76-3.31-2.45-5.62-5.06-6.94c-1.94-1.07-4.01-1.59-6.19-1.56
	c-3.29-0.16-7.29-0.22-12.02-0.19c-0.31,0.01-0.47,0.17-0.48,0.49c-0.03,8.79-0.01,17,0.06,24.64c0,0.33,0.17,0.5,0.5,0.51
	c2.53,0.06,5.52,0.08,8.98,0.05c0.47,0,0.71,0.23,0.71,0.71c0,1.86,0,3.67,0,5.42c0,0.25-0.12,0.37-0.37,0.37
	c-9.74-0.03-18.88-0.01-27.44,0.06c-0.34,0-0.53-0.16-0.59-0.49c-0.15-0.87-0.17-2.59-0.06-5.16c0.02-0.61,0.34-0.91,0.95-0.91
	c2.51,0,5.38,0,8.63,0c0.25,0,0.38-0.13,0.38-0.38c0-19.58,0-39.12,0-58.62c0-0.67-0.33-1-1-1c-2.5,0-5.34,0-8.53,0
	c-0.51,0-0.72-0.25-0.65-0.75c0.24-1.62,0.29-3.4,0.15-5.31c-0.02-0.34,0.14-0.51,0.47-0.51
	C1364.16,388.25,1374.59,388.19,1385.25,388.25L1385.25,388.25z M1395.56,398.19c-1.62-1.25-3.48-1.98-5.56-2.19
	c-4.46-0.44-10.42-0.52-17.89-0.24c-0.25,0.01-0.37,0.14-0.37,0.39c0.18,8.61,0.21,16.95,0.08,25.02c-0.01,0.55,0.26,0.83,0.81,0.83
	c4.42-0.09,8.46-0.09,12.12,0c3.97,0.1,7.45-0.75,10.44-2.56c2.9-1.85,4.5-4.83,4.81-8.94c0.09-1.35,0.09-2.68,0-4
	C1399.75,402.78,1398.27,400.01,1395.56,398.19z"/>
<path class="st2" d="M1450.83,388.25c8.95,0,18.15,0,27.61,0c0.32,0,0.49,0.16,0.5,0.49c0.07,1.69,0.09,3.69,0.06,5.98
	c-0.01,0.19-0.1,0.28-0.29,0.28c-3.14,0-6.33,0-9.58,0c-0.25,0-0.38,0.13-0.38,0.38c-0.11,16.83-0.11,33.37,0,49.62
	c0.04,5.75-0.48,11.06-1.56,15.94c-1.32,5.41-4.07,9.58-8.25,12.5c-4.05,2.75-8.97,4.02-14.76,3.81c-1.17,0-1.74-0.59-1.7-1.76
	c0.07-2.14,0.04-3.71-0.1-4.68c-0.05-0.33,0.1-0.5,0.43-0.49c3.03,0.24,5.82-0.14,8.38-1.13c3.52-1.33,5.96-4.14,7.31-8.44
	c1.34-4.42,2.01-9.34,2-14.75c-0.02-16.99-0.04-33.8-0.06-50.44c0-0.33-0.17-0.5-0.5-0.51c-2.24-0.06-5.24-0.08-9.03-0.04
	c-0.5,0.01-0.71-0.24-0.62-0.74c0.23-1.24,0.29-3.12,0.17-5.64C1450.45,388.38,1450.57,388.25,1450.83,388.25L1450.83,388.25z"/>
<path class="st2" d="M1562.69,388.25c9.21,0,18.41,0,27.62,0c0.26,0,0.4,0.13,0.41,0.39c0.11,2.82,0.08,4.72-0.08,5.68
	c-0.05,0.33-0.25,0.5-0.58,0.51c-2.96,0.11-5.91,0.23-8.87,0.34c-0.33,0.01-0.51,0.18-0.51,0.52c-0.16,13.02-0.14,26.21,0.07,39.56
	c0.06,3.96,0.92,7.77,2.56,11.44c1.88,3.79,4.63,6.29,8.25,7.5c2.98,1.04,6.38,1.48,10.19,1.31c3.78,0.06,7.18-0.71,10.19-2.31
	c3.47-1.79,5.89-4.62,7.25-8.5c1.34-4.59,1.94-9.65,1.81-15.19c-0.27-11.08-0.27-22.45,0-34.11c0-0.26-0.13-0.4-0.39-0.39
	c-3.86,0.03-7.13,0.01-9.8-0.05c-0.33-0.01-0.5-0.18-0.52-0.51c-0.09-1.87-0.09-3.75,0-5.63c0.01-0.33,0.19-0.5,0.52-0.5
	c9.06-0.07,18.35-0.09,27.89-0.06c0.2,0,0.3,0.1,0.3,0.3c0,1.8,0,3.76,0,5.89c0,0.37-0.19,0.56-0.56,0.56c-3.13,0-6.26,0-9.39,0
	c-0.2,0-0.3,0.1-0.3,0.3c0.14,13.8,0.14,27.53,0,41.2c-0.09,8.42-2.82,15.11-8.2,20.09c-0.24,0.23-0.5,0.45-0.76,0.65
	c-4.8,3.57-10.73,5.49-17.79,5.76c-5.7,0.22-10.93-0.64-15.69-2.56c-3.73-1.64-6.61-4.01-8.62-7.13c-2.34-3.24-3.88-6.95-4.63-11.12
	c-0.63-4.33-0.9-9.23-0.81-14.69c0.18-10.82,0.16-21.47-0.05-31.94c-0.01-0.33-0.18-0.5-0.51-0.5c-2.97,0.02-5.88-0.05-8.75-0.22
	c-0.34-0.02-0.53-0.19-0.58-0.52c-0.16-0.97-0.19-2.86-0.08-5.68C1562.29,388.38,1562.43,388.25,1562.69,388.25z"/>
<path class="st2" d="M1649.56,388.31c12.03-0.19,24.01-0.13,35.94,0.18c0.33,0.01,0.67,0.03,1,0.07c4.69,0.56,8.78,2.13,12.28,4.71
	c0.27,0.19,0.52,0.41,0.76,0.65c3.08,3.11,4.81,6.97,5.21,11.58c0.58,5.22-0.44,9.95-3.06,14.19c-1.89,3.04-4.74,5.41-8.57,7.1
	c-0.15,0.07-0.16,0.16-0.03,0.26c3.73,2.64,5.95,6.21,6.66,10.7c0.69,4.37,1.63,8.52,2.81,12.44c1.08,2.97,2.97,4.58,5.68,4.85
	c0.54,0.06,0.74,0.36,0.6,0.89c-0.49,1.79-1,3.74-1.54,5.85c-0.07,0.29-0.26,0.45-0.56,0.47c-4.26,0.38-7.57-0.98-9.93-4.06
	c-1.17-1.53-2.02-3.35-2.56-5.44c-1.06-3.45-1.89-7.45-2.5-12c-0.3-2.23-0.99-4.21-2.06-5.94c-2.24-3.36-5.39-5.13-9.44-5.31
	c-3.31-0.15-7.4-0.21-12.27-0.19c-0.31,0.01-0.47,0.17-0.48,0.49c-0.03,8.79-0.01,17,0.06,24.64c0,0.33,0.17,0.5,0.5,0.51
	c2.38,0.06,5.3,0.08,8.76,0.05c0.75-0.01,1.03,0.35,0.85,1.08c-0.21,0.84-0.26,2.15-0.14,3.92c0.07,1-0.4,1.51-1.41,1.5
	c-9.31-0.03-18.12-0.01-26.43,0.06c-0.34,0-0.53-0.16-0.58-0.49c-0.26-1.8-0.26-3.6,0.01-5.39c0.04-0.33,0.23-0.5,0.57-0.52
	c2.95-0.17,5.95-0.24,9-0.23c0.33,0.01,0.5-0.16,0.5-0.49c0.07-19.06,0.09-38.61,0.06-58.67c0-0.53-0.27-0.78-0.79-0.77
	c-3.13,0.09-6.06,0.04-8.77-0.15c-0.34-0.03-0.53-0.2-0.58-0.53c-0.19-1.3-0.22-3.14-0.08-5.51
	C1649.05,388.48,1649.23,388.31,1649.56,388.31L1649.56,388.31z M1667.99,421.82c3.1,0.04,6.27,0.1,9.51,0.18
	c4.53,0.11,8.53-0.52,11.97-1.88c0.31-0.12,0.61-0.27,0.9-0.44c3.8-2.32,5.52-5.79,5.17-10.43c-0.03-0.33-0.02-0.67,0.01-1
	c0.47-4.62-0.99-8.01-4.36-10.19c-2.81-1.57-5.87-2.34-9.19-2.31c-5.09,0.05-9.83,0.04-14.24-0.03c-0.19,0-0.29,0.1-0.28,0.29
	c0.23,8.53,0.32,17.04,0.26,25.54C1667.74,421.71,1667.83,421.8,1667.99,421.82L1667.99,421.82z"/>
<path class="st2" d="M1719.94,388.25c6.54,0,12.73,0,18.56,0c0.33,0,0.6,0.14,0.79,0.41c12.68,18.27,25.43,36.74,38.26,55.42
	c0.47,0.67,0.7,0.6,0.7-0.22c0-16.16,0-32.31,0-48.45c0-0.3-0.15-0.45-0.45-0.44c-3.45,0.12-6.4,0.07-8.87-0.12
	c-0.33-0.03-0.52-0.2-0.57-0.53c-0.26-1.8-0.26-3.6,0.01-5.39c0.04-0.33,0.24-0.5,0.57-0.51c9.04-0.24,18.12-0.28,27.25-0.12
	c0.33,0.01,0.5,0.18,0.52,0.51c0.06,1.48,0.07,3.31,0.04,5.5c-0.01,0.46-0.24,0.69-0.7,0.69c-3.03,0-6.01,0-8.92,0
	c-0.25,0-0.38,0.13-0.38,0.38c0,21.91,0,43.87,0,65.86c0,0.33-0.16,0.47-0.49,0.42c-1.2-0.19-3.07-0.24-5.63-0.14
	c-0.82,0.04-1.46-0.28-1.92-0.95c-13.52-19.52-26.93-38.98-40.24-58.39c-0.27-0.39-0.41-0.35-0.41,0.13
	c-0.07,17.14-0.09,34.56-0.06,52.25c0,0.32,0.16,0.48,0.48,0.46c3.43-0.11,6.37-0.06,8.84,0.13c0.33,0.03,0.52,0.2,0.56,0.53
	c0.32,2.3,0.3,4.13-0.06,5.52c-0.09,0.33-0.3,0.48-0.63,0.47c-8.52-0.23-17.52-0.27-27-0.12c-0.34,0.01-0.52-0.15-0.55-0.49
	c-0.17-1.84-0.24-3.64-0.21-5.37c0.01-0.34,0.17-0.52,0.51-0.56c1.64-0.17,4.47-0.21,8.48-0.11c0.72,0.02,1.08-0.33,1.08-1.05
	c0.03-20.4,0.01-39.87-0.06-58.41c0-0.33-0.17-0.5-0.5-0.5c-2.97,0.02-5.88-0.05-8.75-0.22c-0.34-0.02-0.53-0.19-0.58-0.52
	c-0.16-0.97-0.19-2.86-0.08-5.68C1719.54,388.38,1719.68,388.25,1719.94,388.25L1719.94,388.25z"/>
<path class="st2" d="M1833.3,388.25c2.3,0,4.58,0,6.83,0c0.17,0,0.28,0.08,0.34,0.23c8.49,22.88,16.76,44.84,24.79,65.86
	c0.12,0.32,0.34,0.48,0.68,0.5c2.04,0.11,4.08,0.21,6.12,0.32c0.34,0.02,0.5,0.2,0.49,0.53c-0.05,1.33-0.06,3.15-0.05,5.45
	c0.01,0.24-0.11,0.36-0.35,0.36c-8.1,0-16.22,0-24.35,0c-0.2,0-0.3-0.1-0.3-0.3c0-1.8,0-3.64,0-5.51c0-0.46,0.23-0.69,0.69-0.69
	c2.21,0,4.54,0,6.99,0c0.58,0,0.76-0.27,0.55-0.8c-1.79-4.55-3.68-9.53-5.66-14.94c-0.12-0.34-0.37-0.51-0.73-0.51
	c-8.73,0-17.48,0-26.27,0c-0.53,0-0.89,0.25-1.07,0.75c-1.74,4.85-3.59,9.73-5.57,14.67c-0.22,0.55-0.03,0.83,0.57,0.83
	c2,0,4.26,0,6.79,0c0.31,0,0.46,0.15,0.46,0.46c0,1.86,0,3.75,0,5.66c0,0.25-0.13,0.38-0.38,0.38c-7.91,0-15.6,0-23.06,0
	c-0.22,0-0.32-0.11-0.32-0.32c0.08-2.55,0.02-4.51-0.18-5.87c-0.05-0.36,0.84-0.46,2.69-0.31c1.75,0.14,3.15,0.08,4.2-0.19
	c0.33-0.08,0.55-0.28,0.66-0.59c8.11-21.57,16.48-43.48,25.1-65.74C1833.02,388.33,1833.13,388.25,1833.3,388.25L1833.3,388.25z
	 M1836.06,402.86c-3.77,9.61-7.3,18.98-10.58,28.11c-0.11,0.31,0,0.46,0.33,0.45c6.58-0.2,13.65-0.26,21.2-0.16
	c0.18,0,0.24-0.08,0.18-0.25c-3.6-9.37-7.09-18.75-10.49-28.14C1836.5,402.31,1836.28,402.31,1836.06,402.86z"/>
<path class="st2" d="M1879.94,388.25c9.61-0.03,18.86-0.01,27.75,0.06c0.33,0,0.5,0.17,0.52,0.5c0.09,1.87,0.09,3.75,0,5.63
	c-0.01,0.33-0.19,0.5-0.52,0.5c-3.04,0.04-6.09,0.08-9.13,0.12c-0.33,0-0.5,0.17-0.5,0.5c-0.07,19.31-0.09,38.73-0.06,58.27
	c0,0.45,0.22,0.67,0.67,0.67c8.55,0,17.1,0,25.63,0c0.79,0,1.19-0.4,1.19-1.19c0.03-3.34,0.02-6.13-0.04-8.37
	c-0.01-0.34,0.15-0.53,0.48-0.58c0.97-0.16,2.82-0.19,5.56-0.08c0.84,0.03,1.26,0.47,1.26,1.31c0,5.11,0,10.33,0,15.66
	c0,0.16-0.08,0.25-0.25,0.25c-17.99,0.03-35.47,0.01-52.44-0.06c-0.33,0-0.5-0.17-0.51-0.5c-0.03-1.54-0.08-3.43-0.13-5.66
	c0-0.19,0.09-0.28,0.28-0.28c3.2,0,6.41,0,9.64,0c0.27,0,0.4-0.14,0.41-0.41c0.09-20.13,0.03-39.77-0.18-58.9
	c0-0.33-0.17-0.51-0.51-0.52c-2.96-0.11-5.91-0.23-8.87-0.34c-0.34-0.01-0.53-0.18-0.58-0.51c-0.16-0.97-0.19-2.86-0.08-5.68
	C1879.54,388.38,1879.68,388.25,1879.94,388.25L1879.94,388.25z"/>
<path class="st2" d="M1942.31,388.31c8.81-0.07,17.95-0.09,27.43-0.06c0.47,0,0.71,0.24,0.73,0.7c0.09,2.38,0.1,4.21,0,5.49
	c-0.02,0.33-0.2,0.5-0.53,0.5c-2.96,0.04-6.01,0.08-9.14,0.12c-0.35,0-0.53,0.18-0.53,0.54c-0.11,20.92-0.05,40.49,0.16,58.71
	c0,0.33,0.17,0.51,0.51,0.54c2.71,0.19,5.71,0.24,9,0.14c0.37-0.01,0.56,0.17,0.56,0.55c0,1.97,0,3.86,0,5.66c0,0.2-0.1,0.3-0.3,0.3
	c-9.22,0-18.54,0-27.98,0c-0.28,0-0.42-0.14-0.44-0.42c-0.11-2.69-0.08-4.48,0.07-5.4c0.06-0.33,0.25-0.5,0.59-0.52
	c2.95-0.17,5.95-0.24,9-0.23c0.33,0.01,0.5-0.16,0.5-0.49c0.1-19.63,0.1-39.26,0-58.88c0-0.33-0.17-0.5-0.5-0.51
	c-2.38-0.06-5.37-0.08-8.96-0.05c-0.48,0.01-0.72-0.23-0.73-0.7c-0.03-2.18-0.02-4,0.04-5.49
	C1941.81,388.48,1941.98,388.31,1942.31,388.31L1942.31,388.31z"/>
<path class="st2" d="M2041.7,388.25c20.7,0,41.45,0,62.25,0c0.2,0,0.3,0.1,0.3,0.3c0,5.47,0,10.93,0,16.4c0,0.2-0.1,0.3-0.3,0.3
	c-2.13,0-4.27,0-6.4,0c-0.2,0-0.3-0.1-0.3-0.3c0-2.88,0-5.88,0-8.98c0-0.17-0.08-0.26-0.25-0.26c-6.45-0.23-13.08-0.3-19.9-0.2
	c-0.23,0.01-0.35,0.13-0.35,0.36c0,19.59,0,39.16,0,58.72c0,0.3,0.15,0.44,0.45,0.43c3.53-0.11,6.57-0.06,9.11,0.13
	c0.34,0.03,0.53,0.2,0.57,0.53c0.32,2.3,0.3,4.13-0.06,5.52c-0.09,0.33-0.3,0.48-0.63,0.47c-8.58-0.2-17.67-0.26-27.28-0.16
	c-0.27,0-0.41-0.13-0.41-0.4c0-1.49,0-3.04,0-4.64c0-0.99,0.5-1.49,1.49-1.48c3.22,0.04,5.87,0.02,7.95-0.04
	c0.33-0.01,0.5-0.18,0.5-0.51c0.12-7.47,0.14-15.12,0.06-22.94c-0.12-11.14-0.11-22.64,0.02-34.52c0.01-1-0.48-1.48-1.48-1.44
	c-6.37,0.24-12.49,0.3-18.35,0.16c-0.33-0.01-0.51,0.15-0.54,0.48c-0.19,2.47-0.24,5.38-0.13,8.74c0.01,0.22-0.1,0.33-0.32,0.33
	c-2.05,0-4.09,0-6.11,0c-0.39,0-0.59-0.2-0.59-0.59c0-5.11,0-10.34,0-15.71C2041,388.48,2041.23,388.25,2041.7,388.25L2041.7,388.25
	z"/>
<path class="st2" d="M2232.74,388.91c8.03,21.45,16.2,43.29,24.52,65.53c0.12,0.32,0.35,0.49,0.7,0.5c1.72,0.07,3.68,0.09,5.88,0.06
	c0.44-0.01,0.66,0.21,0.66,0.65c0,1.73,0,3.46,0,5.19c0,0.44-0.22,0.66-0.66,0.66c-7.39,0-14.97,0-22.73,0
	c-0.98,0-1.44-0.49-1.39-1.46c0.11-1.95,0.09-3.27-0.05-3.96c-0.15-0.74,0.15-1.11,0.9-1.1c2.94,0.05,5.14,0.04,6.62-0.02
	c0.33-0.02,0.45-0.18,0.37-0.51c-1.42-5.21-3.28-10.29-5.6-15.25c-0.14-0.3-0.38-0.45-0.71-0.45c-8.42,0-17.2,0-26.34,0
	c-0.31,0-0.52,0.14-0.63,0.43c-1.86,5-3.78,10.06-5.75,15.18c-0.17,0.43-0.02,0.65,0.44,0.64c2.79-0.03,5.11-0.01,6.97,0.05
	c0.33,0.01,0.51,0.18,0.53,0.51c0.08,1.21,0.08,2.94,0,5.2c-0.01,0.49-0.27,0.74-0.75,0.74c-7.8,0.03-15.27,0.01-22.41-0.06
	c-0.33,0-0.5-0.17-0.52-0.5c-0.06-1.48-0.07-3.37-0.04-5.66c0.01-0.19,0.1-0.28,0.29-0.28c2.14,0,4.16,0,6.07,0
	c0.34,0,0.57-0.16,0.69-0.48c8.4-22.25,16.8-44.12,25.21-65.62c0.12-0.31,0.34-0.48,0.67-0.53c2.13-0.27,4.26-0.27,6.39,0.01
	C2232.4,388.42,2232.62,388.59,2232.74,388.91L2232.74,388.91z M2239.25,431.33c0.16,0,0.21-0.08,0.15-0.23
	c-3.66-9.19-7.16-18.55-10.48-28.09c-0.28-0.78-0.56-0.78-0.85-0.01c-3.45,9.15-6.99,18.46-10.64,27.94
	c-0.08,0.21-0.01,0.31,0.21,0.31C2224.62,431.22,2231.82,431.24,2239.25,431.33L2239.25,431.33z"/>
<path class="st2" d="M2271.99,388.25c6.17,0,12.48,0,18.92,0c0.16,0,0.3,0.07,0.39,0.2c13.54,19.37,26.34,37.92,38.42,55.66
	c0.52,0.76,0.78,0.68,0.78-0.25c0-15.49,0-31.43,0-47.83c0-0.72-0.36-1.07-1.08-1.05c-4.02,0.1-6.85,0.06-8.49-0.11
	c-0.33-0.04-0.49-0.23-0.49-0.56c0.02-1.34,0.04-3.19,0.07-5.55c0-0.34,0.17-0.51,0.51-0.51c8.9,0,18.04,0,27.42,0
	c0.32,0,0.49,0.16,0.5,0.49c0.07,1.69,0.09,3.56,0.06,5.59c0,0.45-0.23,0.67-0.68,0.67c-3.21,0-6.22,0-9.02,0
	c-0.2,0-0.3,0.1-0.3,0.3c0.03,22.12,0.01,44-0.06,65.64c0,0.33-0.17,0.5-0.5,0.52c-2.13,0.09-4.25,0.09-6.38,0
	c-0.33-0.01-0.59-0.16-0.78-0.43c-13.31-19.16-26.81-38.69-40.52-58.58c-0.3-0.44-0.45-0.39-0.45,0.14
	c-0.07,17.12-0.09,34.46-0.06,52.03c0,0.25,0.13,0.38,0.38,0.38c3.25,0,6.24,0,8.97,0c0.43,0,0.65,0.22,0.65,0.65
	c0,1.73,0,3.46,0,5.19c0,0.44-0.22,0.66-0.66,0.66c-9.06,0-18.23,0-27.51,0c-0.17,0-0.25-0.08-0.26-0.25
	c-0.08-1.48-0.1-3.33-0.06-5.55c0.01-0.47,0.25-0.7,0.71-0.7c2.77,0,5.78,0,9.03,0c0.17,0,0.25-0.08,0.25-0.25
	c0-19.75,0-39.53,0-59.33c0-0.28-0.14-0.42-0.42-0.42c-3.22,0-6.2,0-8.93,0c-0.5,0-0.74-0.25-0.71-0.75
	c0.07-1.56,0.09-3.47,0.05-5.74C2271.73,388.34,2271.82,388.25,2271.99,388.25L2271.99,388.25z"/>
<path class="st2" d="M2393.25,388.25c8.84,0.1,16.27,2.52,22.29,7.25c0.27,0.21,0.52,0.42,0.76,0.65c5.99,5.5,9.39,12.79,10.2,21.85
	c0.51,5.71,0.28,10.98-0.69,15.81c-1.45,8.07-4.95,14.66-10.5,19.75c-5.67,5.26-12.86,7.91-21.56,7.94
	c-10.92,0.04-22.12,0.04-33.63,0c-0.24,0-0.36-0.12-0.36-0.36c-0.04-2.31-0.03-4.17,0.03-5.58c0.01-0.33,0.19-0.5,0.52-0.5
	c3.04-0.04,6.09-0.08,9.13-0.12c0.33,0,0.5-0.17,0.5-0.5c0.07-19.31,0.09-38.89,0.06-58.75c0-0.46-0.23-0.69-0.69-0.69
	c-2.87,0-5.87,0-9,0c-0.43,0-0.63-0.21-0.61-0.64c0.08-1.91,0.09-3.71,0.01-5.42c-0.01-0.34,0.15-0.51,0.48-0.51
	C2370.99,388.18,2382.01,388.13,2393.25,388.25z M2408.56,400.69c-4.64-3.45-10.25-5.1-16.81-4.94c-4.64,0.12-8.95,0.14-12.94,0.07
	c-0.33,0-0.49,0.16-0.48,0.49c0.44,14.48,0.5,29.71,0.17,45.69c-0.1,4.93-0.11,8.93-0.03,11.99c0.02,0.17,0.11,0.25,0.28,0.25
	c7.52,0.37,13.6,0.29,18.25-0.24c4.33-0.38,8.06-1.91,11.19-4.56c4.41-3.79,7.18-8.85,8.31-15.19c1.33-7.44,1.16-14.69-0.5-21.75
	C2414.77,407.39,2412.29,403.46,2408.56,400.69z"/>
<path class="st4" d="M2465.69,388.25c10.62,0.02,21.14,0.02,31.56,0c4.98-0.01,9.54,0.84,13.69,2.56c3.86,1.62,6.52,4.12,8,7.5
	c2.28,4.94,2.47,10.17,0.56,15.69c-1.47,4.23-4.32,7.3-8.56,9.19c-0.51,0.23-0.5,0.41,0.06,0.54c2.81,0.56,5.25,1.71,7.31,3.46
	c3.2,2.91,5.02,6.35,5.44,10.31c0.84,6.05-0.43,11.28-3.81,15.69c-2.57,3.35-5.8,5.54-9.69,6.56c-4.13,1.21-8.3,1.8-12.5,1.75
	c-10.58-0.11-21.31-0.11-32.17,0c-0.17,0-0.25-0.08-0.26-0.25c-0.11-2.08-0.12-3.98-0.03-5.69c0.01-0.33,0.19-0.5,0.52-0.5
	c3.04-0.04,6.09-0.08,9.13-0.12c0.33,0,0.5-0.17,0.5-0.5c0.07-19.22,0.09-38.72,0.06-58.48c0-0.67-0.33-0.99-1-0.98
	c-4.03,0.1-6.88,0.06-8.57-0.12c-0.33-0.03-0.52-0.21-0.57-0.54c-0.16-0.97-0.18-2.86-0.08-5.68
	C2465.29,388.38,2465.43,388.25,2465.69,388.25L2465.69,388.25z M2507.44,398.6c-3.17-1.94-6.57-2.89-10.19-2.85
	c-4.49,0.05-8.76,0.11-12.81,0.18c-0.33,0-0.5,0.17-0.5,0.51c-0.05,7.72-0.09,15.47-0.12,23.25c-0.01,0.33,0.16,0.51,0.49,0.52
	c4.92,0.25,10.4,0.26,16.44,0.04c4.58-0.05,7.72-2.07,9.44-6.06c1.9-4.43,1.78-8.71-0.36-12.83
	C2509.29,400.22,2508.49,399.3,2507.44,398.6L2507.44,398.6z M2510.31,430.94c-2.99-2.07-6.51-3.13-10.56-3.19
	c-5.32-0.08-10.43-0.02-15.31,0.17c-0.34,0.01-0.51,0.18-0.52,0.52c-0.3,8.47-0.3,16.85,0,25.12c0.01,0.33,0.18,0.51,0.52,0.54
	c5.63,0.42,11.4,0.39,17.31-0.1c4.29-0.17,7.69-1.69,10.19-4.56c2.83-3.25,3.68-7.22,2.56-11.94
	C2513.93,434.67,2512.53,432.48,2510.31,430.94z"/>
<path class="st2" d="M2563.89,388.26c0.24,0,0.36,0.12,0.36,0.36c0,1.84,0,3.77,0,5.79c0,0.39-0.2,0.59-0.59,0.59
	c-2.77,0-5.68,0-8.71,0c-0.47,0-0.7,0.23-0.7,0.7c0,19.37,0,38.84,0,58.42c0,0.25,0.12,0.38,0.37,0.38
	c9.24,0.03,18.01,0.01,26.32-0.06c0.33,0,0.5-0.17,0.51-0.5c0.09-3.1,0.09-6.1,0-9c-0.01-0.34,0.15-0.53,0.48-0.57
	c1.46-0.2,3.54-0.23,6.26-0.08c0.33,0.01,0.5,0.19,0.5,0.52c0.07,4.75,0.09,10.23,0.06,16.44c0,0.17-0.09,0.25-0.25,0.25
	c-17.42,0-34.85,0-52.29,0c-0.34,0-0.51-0.17-0.49-0.52c0.1-2.39,0.07-4.13-0.12-5.21c-0.09-0.51,0.12-0.77,0.65-0.77
	c3.17,0,6.25,0,9.25,0c0.17,0,0.25-0.08,0.25-0.25c0-19.67,0-39.35,0-59.05c0-0.47-0.23-0.7-0.7-0.7c-2.7,0-5.61,0-8.74,0
	c-0.43,0-0.63-0.21-0.61-0.64c0.08-1.91,0.09-3.71,0.01-5.42c-0.01-0.34,0.15-0.51,0.48-0.52
	C2544.91,388.22,2554.14,388.16,2563.89,388.26z"/>
<path class="st2" d="M2824.74,388.25c17.67,0,35.24,0,52.71,0c0.2,0,0.3,0.1,0.3,0.3c0,5.47,0,10.93,0,16.4c0,0.2-0.1,0.3-0.3,0.3
	c-2.13,0-4.27,0-6.4,0c-0.2,0-0.3-0.1-0.3-0.3c0.03-3.39,0.01-6.38-0.06-8.96c-0.01-0.33-0.17-0.49-0.5-0.49
	c-9.46,0-18.67,0-27.62,0c-0.21,0-0.32,0.11-0.32,0.32c0,7.95,0,16.11,0,24.48c0,0.47,0.23,0.7,0.7,0.7c8.7,0,17.63,0,26.8,0
	c0.51,0,0.73,0.25,0.66,0.76c-0.19,1.24-0.24,3.2-0.14,5.9c0.02,0.4-0.17,0.6-0.57,0.6c-10.01-0.09-18.93-0.04-26.76,0.16
	c-0.33,0.01-0.51,0.18-0.52,0.52c-0.21,7.46-0.26,15.8-0.15,25.01c0.01,0.32,0.17,0.49,0.5,0.49c9.17,0.07,18.61,0.09,28.34,0.06
	c0.26,0,0.39-0.13,0.39-0.39c0-3.07,0-6.23,0-9.48c0-0.25,0.13-0.38,0.38-0.38c1.91,0,3.93,0,6.06,0c0.37,0,0.56,0.19,0.56,0.56
	c0,5.46,0,10.92,0,16.39c0,0.2-0.1,0.3-0.3,0.3c-17.79-0.03-35.76-0.01-53.9,0.07c-0.2,0-0.3-0.1-0.3-0.3c0-1.51,0-3.12,0-4.81
	c0-0.99,0.49-1.48,1.48-1.47c3.23,0.04,5.88,0.02,7.96-0.04c0.33-0.01,0.5-0.18,0.5-0.51c0.1-19.63,0.1-39.25,0-58.88
	c0-0.33-0.17-0.5-0.5-0.5c-2.97,0.02-5.88-0.05-8.75-0.22c-0.34-0.02-0.53-0.19-0.59-0.52c-0.15-0.92-0.18-2.72-0.07-5.39
	C2824.05,388.48,2824.29,388.25,2824.74,388.25L2824.74,388.25z"/>
<path class="st2" d="M2891.18,388.25c10.63-0.01,21.15-0.01,31.57,0c5.51,0.01,10.42,1.04,14.73,3.1c0.31,0.14,0.6,0.3,0.88,0.47
	c4.79,2.99,7.51,7.47,8.14,13.43c0.6,5.62-0.42,10.43-3.06,14.44c-2.47,3.62-5.48,5.98-9.02,7.08c-0.26,0.1-0.27,0.22-0.04,0.36
	c3.63,2.02,5.89,5.25,6.81,9.68c0.94,4.58,1.86,8.8,2.76,12.64c0.08,0.33,0.18,0.64,0.31,0.95c1.12,2.61,3.02,4.22,5.69,4.8
	c0.32,0.08,0.46,0.28,0.41,0.61c-0.32,1.95-0.86,4-1.62,6.17c-0.05,0.16-0.16,0.24-0.33,0.25c-5.03,0.2-8.56-1.48-10.6-5.04
	c-2.03-3.56-3.22-7.46-3.56-11.69c-0.42-3.57-1.28-6.88-2.56-9.94c-1.59-3.65-4.49-5.67-8.69-6.06c-4.49-0.42-8.94-0.5-13.36-0.25
	c-0.43,0-0.64,0.22-0.64,0.65c0,8.07,0,16.3,0,24.7c0,0.27,0.13,0.4,0.4,0.4c3.07,0,6.23,0,9.48,0c0.24,0,0.36,0.12,0.36,0.36
	c0.04,2.31,0.03,4.17-0.03,5.58c-0.01,0.33-0.19,0.5-0.52,0.51c-9.13,0.16-18.21,0.12-27.25-0.13c-0.34,0-0.53-0.17-0.59-0.5
	c-0.15-0.92-0.17-2.76-0.06-5.51c0.01-0.21,0.11-0.31,0.32-0.31c2.93,0,5.91,0,8.94,0c0.47,0,0.7-0.23,0.7-0.7
	c0-19.37,0-38.9,0-58.6c0-0.47-0.23-0.7-0.7-0.7c-2.7,0-5.64,0-8.82,0c-0.53,0-0.74-0.26-0.65-0.78c0.2-1.13,0.25-2.96,0.14-5.49
	C2890.7,388.41,2890.86,388.25,2891.18,388.25L2891.18,388.25z M2932.81,398.19c-2.47-1.62-5.32-2.44-8.56-2.44c-5,0-9.98,0-14.93,0
	c-0.21,0-0.32,0.11-0.32,0.32c0,8.29,0,16.76,0,25.43c0,0.28,0.14,0.43,0.42,0.44c7.33,0.44,13.53,0.21,18.58-0.69
	c1.87-0.18,3.51-0.87,4.94-2.06c3.12-2.61,4.56-6.43,4.31-11.44C2937.13,403.43,2935.65,400.24,2932.81,398.19z"/>
</svg>
