<?xml version="1.0" encoding="UTF-8"?>
<svg id="Layer_1" xmlns="http://www.w3.org/2000/svg" version="1.1" viewBox="0 0 1016 294">
  <!-- Generator: Adobe Illustrator 29.0.0, SVG Export Plug-In . SVG Version: 2.1.0 Build 186)  -->
  <defs>
    <style>
      .st0 {
        fill: #00899c;
      }

      .st1 {
        fill: #adafb1;
      }

      .st2 {
        fill: #232222;
      }
    </style>
  </defs>
  <g>
    <path class="st0" d="M131,66.3c.2,0,.4,0,.5-.2.1-.2,0-.5,0-.9.2.2.4.1.4-.2.1-.6-.6-1.3-1.8-1.7-2.6-.8-5.1-1.2-7.6-1.2-9.4-.1-21.6-.1-36.5,0-.3,0-.6.3-.6.6v56.5c0,.6.5,1.1,1.1,1.1.1,0,.2,0,.3,0,.1,0,.4-.2.6-.5.7.3,1.2.4,1.8.3l30.9-.4c.9,0,1.7-.7,1.8-1.6l1.1-9.5c0-.3.3-.6.6-.6h9.5c.4,0,.7.2.7.7v32.1c0,.4-.2.5-.5.5h-9.8c-.4,0-.5-.2-.6-.5-.1-1.9-.3-4-.5-6.1,0-.3-.1-.5-.2-.6-.1-.2-.3-.3-.5-.5.1-.2.2-.4.2-.5,0-.3,0-.5-.3-.6l-.4-.3c.3-.4.1-.9-.7-1.5-.4-.3-.9-.5-1.4-.6-3.2-.5-6.2-.7-8.8-.8-2.9,0-11.3,0-25,0-.3,0-.4.1-.4.4-.2,17.8-.2,34.4,0,49.9,0,3.9.6,7.7,1.6,11.2.3.9.9,1.8,1.8,2.6.2.2.3.1.4-.1,0-.2,0-.3-.2-.4.6.2,1,.2,1.4,0,.1.4.3.7.5.9.2.2.5.3.9.3,9.2.4,20,.5,32.6.4,3.4,0,7-.4,10.8-1,.6-.1,1.1-.5,1.4-1.1,1.8-4.3,2-9.9,2.3-15.3,0-.3.3-.5.6-.5h14.4c.2,0,.3.1.3.3h0v27.9c0,.3-.2.5-.5.5H36.8c-.1,0-.2,0-.2-.2v-9.3c0-.2.1-.3.3-.3,3.9,0,7.7-.6,11.5-1.8,1.9-.6,3.1-1.6,3.6-3.7.9-3.5,1.3-6.5,1.3-9,0-17.2,0-49.5,0-96.7,0-6.8-.3-12.2-1-16.3,0-.4-.4-.7-1.1-.9.1-.1.1-.5,0-1,.2-.5,0-1-.8-1.4-3.2-1.9-8.9-2.9-12.2-2.7-1.2,0-1.7-.5-1.7-1.6v-6.7c0-1.1.6-1.7,1.7-1.7h109.9c.5,0,.8.4.8.8h0v26c0,.3-.3.6-.6.6h-14.2c-.3,0-.6-.3-.6-.6l-.5-10.8c0-.4-.2-.7-.6-.9-.5-.3-1-.4-1.5-.5Z"/>
    <path class="st0" d="M209.1,192.1c.6.3,1.1.5,1.5.5.5.7,1.1,1.1,2,1.4,3.1.7,6.2,1.1,9.4,1.1.1,0,.2.1.2.2h0v9.2c0,.2,0,.3-.3.3h-62.8c-.6,0-.9-.3-.9-.8v-8c0-.6.3-1,.9-1,4.6,0,8.7-.8,12.3-2.5,1.2-.6,2-1.8,2.3-3.7.7-4,1.1-7.9,1.1-11.7,0-52.8,0-86.1,0-100,0-3-.4-6.4-1-10.4,0-.3-.3-.6-.8-1.1v-1.1c0-.3,0-.6-.3-.8-3.5-2.8-9.8-3.2-14.2-3.3-.2,0-.3-.2-.3-.3v-8.4c0,0,0-.2.1-.2h46.4c.5,0,.9.4.9.9h0c0,57.8,0,100.1,0,126.8,0,2,.3,5,.8,9,.3,1.9,1,3.3,2.2,4.3.2.1.3.1.5,0,.2-.2.1-.3-.2-.4Z"/>
    <rect class="st0" x="444.1" y="51.5" width="30.8" height="30.8" rx=".7" ry=".7" transform="translate(-.1 .8) rotate(0)"/>
    <rect class="st0" x="717.9" y="51.5" width="30.7" height="30.7" rx=".8" ry=".8"/>
    <path class="st0" d="M279.5,66.7c.2-.3.1-.6,0-1.1,0,0,.2,0,.2-.2,0-.2,0-.3-.1-.5-3.4-2.9-9.6-3.3-13.9-3.5-.4,0-.6-.2-.6-.6v-8.7c0-.4.2-.6.6-.6,52.1,0,80,0,84,0,4.1,0,9.7.7,17,2.1,16.5,3.2,29.8,11.2,40,24.2.4.5.8,1.1,1.1,1.9.4.8.7,1.4,1,1.9,4.2,7.4,7,14.9,8.5,22.3,3.3,17.2,2.7,34.2-1.8,50.8-3.2,11.8-10.7,24.6-19.9,32.8-12.7,11.3-27.6,17-44.8,17.1-23.6.2-52.1.3-85.4.1-.2,0-.2,0-.2-.2v-9.1c0-.2,0-.2.2-.3,7.4-.5,12-1.5,13.7-3,2.4-2.1,2.5-11.4,2.6-14.8,0-33.6,0-65.6,0-96,0-4.9-.3-9.4-.9-13.5,0-.3-.2-.6-.5-.7l-.7-.5ZM317.9,191.1c.3-.2.6-.3.9-.4.5.9,1,1.4,1.4,1.6,1.4.6,3.1.9,5,1.1,1.9.2,2.9.2,3,.2,16.2,1.5,31.6-1.4,42.5-14,6.3-7.3,10.3-17.9,12.2-27.7,2.6-13.9,3-28.3,1.6-42.1-.7-6.3-2-12.4-3.9-18.3-2.3-7-6.2-12.8-11.5-17.2-.2-.2-.5-.2-.7-.2-.2,0-.4,0-.6-.2.1,0,.2-.1.3-.2.4,0,.4-.3.1-.9,0-.1-.2-.2-.3-.3-7.8-5-15.6-8.1-23.4-9.2-8.6-1.3-18.7-1.8-30.3-1.4-.4,0-.5.2-.5.5,0,3.2,0,41.2,0,113.9,0,4.1.6,7.9,1.8,11.4.5,1.5,1.3,2.6,2.5,3.2Z"/>
    <path class="st0" d="M593.6,189.4c.6.1.9,0,.9-.6,1.1,4.2,3.4,6.3,6.9,6.3.2,0,.3.2.3.3v9c0,.2-.1.3-.3.3-8.1.9-15.8.5-22.9-1.1-4.9-1.1-9.3-3.5-13.2-7.1-.7-1.4-1.4-1.9-2.1-1.7.6-1.1.4-2-.8-2.6-.3-.2-.6-.1-.8.1-3.2,3.1-6.8,6-11.1,8.5-11.3,6.9-24.8,8.5-37,3.7-5.5-2.2-10-5.5-13.4-10-6.5-8.5-8.3-18.4-5.5-29.8,3.2-12.7,14.9-21.5,27.3-24.7,3.6-.9,7.7-1.6,12.2-2,7.6-.7,15.4-1,23.5-.8.3,0,.5-.2.5-.5h0c.2-8.3,0-15.8-.5-22.6-.3-3.6-1.1-6.7-2.5-9.3-.2-.4-.7-.7-1.5-1-.1-.5,0-.7.3-.6-1.1-1.5-2.6-2.6-4.4-3.3-4.9-1.8-10.2-1.7-15.3-.8-5,.9-12,3.9-13,9.4-.7,4-1.1,8-1.3,11.9,0,.3-.2.5-.5.5h-15.6c-.3,0-.5-.2-.5-.5h0v-21.8c0-.4.3-.8.7-1,14-6.3,28.7-9.2,44.2-8.7,11.5.4,25.3,3.5,33.3,12.6.8.9,2,2.3,3.6,4.1,0,0,0,.2,0,.2,0,.2-.2.2-.2.3,0,0,0,0,0,.1,2.8,4.8,4.1,10.9,4.1,18.3,0,25.4,0,42.6,0,51.6,0,5.6,1.7,10.7,4.8,15.4.2.4.4.3.4-.1,0-.5-.2-1.1-.8-1.9ZM527.6,183.4c.2.2.4.2.5.3.1,0,.2,0,.4-.3,0-.2.1-.4,0-.7,1,4.3,3.8,6.8,8.2,7.6,7.6,1.4,14.4-.4,20.6-5.5.6-.5.8-1.1.8-1.9,0-11.8,0-22.4,0-31.8,0-.1,0-.3-.1-.4-.2-.2-.3-.3-.4-.2.4-.8.5-1.5.2-2,.4-.5.5-1,.4-1.5-.1-.3-.3-.5-.7-.5-5.8-.2-10.7.2-14.7,1.1-14.8,3.3-21.1,12.9-18.9,28.6.4,3,1.7,5.9,3.9,8.7.2.2.3.2.4,0,.1-.3,0-.8-.7-1.5Z"/>
    <path class="st0" d="M876,111.9c-.4,1.2-1,2.6-1.6,4.1-.6,1.4-1,2.8-1.3,4.2-.6,3.4-1.5,7.4-2.8,12.2-.3,1.1-.9,2.8-1.8,5-.7,1.7-1.6,3.3-2.6,4.6-2.4,3.2-4.4,5.9-5.8,8.3-.5.9-.3,2,.6,2.6,0,0,0,0,.1,0,1,.5,1.8.9,2.5,1.2,2.1.9,5.6,1,7.3,1.3,1.3.2,2.7.6,4.3,1.2,2.9,1.1,5.7,1.6,8.4,1.6.6,0,1.1.5,1,1.1,0,.2,0,.4-.1.5-.4.7-.4,1.3-.1,1.9-.4,3.5-1.2,6.8-2.3,9.9-4,11.6-10.9,20.6-20.8,26.9-9.1,5.8-19.4,8.3-30.5,8.9-9.2.5-17.9-.5-26.3-3-3.5-1-7.3-2.8-11.4-5.1-.2-.1-.3,0-.2.2,0,.1.1.3.3.6-.1,0-.3,0-.5.3-.4-.8-1.3-1.6-2.6-2.6-6.6-4.8-12-11.2-16.1-19.1-8-15.6-8.2-37.5-3-53.6,5.2-16.1,18-28.5,34.5-33.3,5.8-1.7,12.1-2.6,18.9-2.8,8.1-.2,15.8.8,23.3,3,11.6,3.5,21.1,10.2,28.5,20.1ZM810.8,188.8l.7-.2c1.7,3.6,4.4,5.9,8.1,7,12.9,3.6,22.6-2.8,27.1-14.8,1.7-4.7,2.9-9.7,3.6-15.1,1.4-12,1.5-23.6,0-34.9-1.1-8.6-3.2-15.6-6.2-21.1-.9-1.6-2.4-3-4.7-4.3v-.7c.1,0,.2,0,.3-.1,0,0,0-.2,0-.2-3.5-2.8-7.4-4.4-11.9-4.6-10.3-.5-17,4.9-21,13.9-1.6,3.5-2.6,6.7-3.2,9.6-2.5,12.7-2.9,26.4-1.4,41.1.9,8.8,3.2,17.8,8.3,25,.1.2.4.2.5.1,0,0,.1-.1.2-.2,0-.2,0-.3-.2-.3Z"/>
    <path class="st0" d="M478.1,192.2c.6.6,1.1.7,1.5.5.4.6.7,1,1.1,1.1,3.5.9,6.9,1.4,10.4,1.4.1,0,.3.1.3.3v9.2c0,.2,0,.3-.3.3h-63.5c-.1,0-.2,0-.2-.1v-9.2c0-.2,0-.3.3-.3,2.6,0,5.9-.5,9.9-1.3,3.5-.7,5.4-2.9,5.7-6.5.4-4.3.6-7.3.7-8.9,0-1.1,0-20.7,0-58.8,0-4.1-.3-8.1-1-12.1-.1-.8-.7-1.4-1.6-1.6.1-.2.2-.5.2-1,0,.2,0,.3.3.1.1,0,.1-.2,0-.3-.8-1.1-1.9-1.9-3.2-2.3-3.5-1.1-7.2-1.6-11.2-1.6-.2,0-.2,0-.2-.2v-9.2c0-.2,0-.3.3-.3h46.7c.5,0,.9.4.9.9,0,0,0,0,0,.1-.2,1-.3,2.2-.3,3.6-.3,11.1-.3,39.1,0,84,0,3.8.4,7.1,1.1,9.9.3,1.1.8,2,1.6,2.6.1,0,.2.1.3,0,.3-.2.3-.3,0-.3Z"/>
    <path class="st0" d="M654.9,108.9c.7,0,1.3-.5,1.8-1.7,4.4-4.8,9.5-8.4,15.2-10.9,7.3-3.2,14.9-4.8,22.6-4.8.4,0,.6.2.6.6v33.1c0,.3-.2.5-.5.5h-13.1c-.3,0-.6-.2-.6-.6l-1.1-11.7c.2-.7,0-1.3-.4-1.8,0-1-.8-1.8-1.8-1.9-7.1-.9-13.3,1.1-18.5,6-2.1,2-3.8,4-5,6.1-.7,1.2-1.1,2.9-1.1,5.1-.2,12.3-.1,30.6.1,54.9,0,3,.5,5.9,1.3,8.7.3,1.2,1,1.8,1.9,2.1.7.3,1.1.3,1.4,0,.3.6.7.9,1.1,1.1,3.5.9,7.6,1.4,12.5,1.6.5,0,.9.4.9.9v8c0,.5-.4.8-.8.8h-65.9s-.4-5.5-.4-5.5c.5,0,.6-1,.2-2.7-.1-.7.3-1.3,1-1.4,0,0,0,0,.2,0,4-.2,8.5-.6,12-2.3,1.8-.9,2.4-2.3,2.8-4.2.6-2.8.9-6,1-9.8,0-1,0-20.3,0-58.1s-.3-8.9-1-13.4c0-.3-.2-.6-.5-.8l-1-.6v-1.1c.2,0,.4,0,.5,0,.2-.1.2-.2,0-.4-1.7-1.4-3.8-2.4-6.3-2.8-3.5-.6-6.1-.8-7.6-.8-.5,0-.7-.2-.7-.7v-8.5c0-.3.2-.5.5-.5h46.1c.5,0,.8.2.8.8v19.7c0,.4.1.4.4.2.8-.7,1.3-1.7,1.5-2.9Z"/>
    <path class="st0" d="M752,192c.7.5,1.2.7,1.3.6.4.8,1.2,1.3,2.5,1.5,3.4.7,6.2,1,8.6,1.1.5,0,.8.3.8.8v8.2c0,.5-.2.7-.7.7h-62.9c-.2,0-.3-.1-.3-.3h0v-9.2c0-.2,0-.2.2-.2,3.1,0,6.6-.4,10.2-1.3,3.2-.8,5-2.8,5.3-6,.6-4.8.8-9.1.8-12.9,0-5.5,0-24.2,0-56.2,0-3.5-.3-7.3-1-11.2-.1-.7-.5-1.1-1.2-1.4v-1c0,.3.1.2.1-.2,0-.2,0-.3-.1-.4-2.8-3-10.2-3.5-14.1-3.5-.1,0-.2,0-.2-.2v-9.2c0-.2,0-.3.3-.3h46.2c.5,0,.9.4.9.9-.2,50.1-.3,77.9-.3,83.4,0,4.4.4,8.9,1.2,13.4.3,1.5.9,2.7,1.9,3.5.2.2.4.1.5,0,.2-.2.2-.4,0-.4Z"/>
  </g>
  <g>
    <path class="st2" d="M940,23.2c-.5.5-.6,1.1-.3,1.8.3.7,1.2,1,1.9.7.2,0,.4-.2.5-.4.4-.5.3-1.2-.3-2-.2-.4,0-.6.6-.6.2,0,.4.1.5.3.4.7.8,1.3,1.1,1.9,1.2,2.2-.2,5.7-1.6,7.7-.2.3-.2.6-.2.9.6,2.5.3,4.9-1.1,7.4-.2.3-.2.6-.1,1,.3,1.5.2,3.3-.5,5.2-.6,1.7-.9,3.4-.9,5.1-.1,5.9.9,11.3,3,16.4,1.1,2.7,2,5.1,2.5,7.1,2.2,8.9,4.5,17.2,7,24.8.2.6.4,1.8.6,3.5.1,1.1,0,2.2-.4,3.4-.4,1.3-.8,2.6-1,4.1,0,.2-.6,4.2-1.8,11.8-.1.9-.6,1.3-1.5,1.3h-3c-.3,0-.6.2-.7.6l-.8,5.1c-.7-3.2-.5-5.6.5-7.1,1.3-1.9,2.3-3.5,3.2-4.9.6-.9.8-.8.7.2l-.5,4.6c0,.2.1.4.4.5,0,0,0,0,0,0h.5c.2,0,.3,0,.3-.3.4-2.8.7-5.5,1-7.9.2-1.7,0-3.6-.7-5.8-.9-3-1.5-4.9-1.7-5.7-.6-1.9-.7-3.8-.4-5.7.1-.6.3-.6.5,0,.9,2.3,2.1,4.1,3.5,5.4.2.2.2.4.2.6,0,.3,0,.6,0,1.1,0,.2.2.3.4.3h.4c.2,0,.3-.2.3-.4,0-2.6-.8-5.7-2.1-9.4-.6-1.6-1.3-2.7-2.3-3.2-.3-.2-.5-.4-.7-.7-1-1.6-1.5-2.5-1.6-2.6-.3-.5-1-1.2-2-2.2-.9-.9-1.7-2.2-2.2-4-1-3.2-1.4-5.5-3-8.6-1.4-2.7-2.9-5.9-4.4-9.8-.5-1.4-.8-2.6-.8-3.7,0-1.8,0-3.1.3-3.9,1.6-4.9,2.5-7.6,2.6-8,.1-.4.1-.7,0-.9-.9-4.1-1.3-7.5-1.2-10.2,0-2.2.8-4.4,2.3-6.5.2-.2,0-.6-.1-.7,0,0,0,0,0,0l-2.2-1c-.4-.2-.5,0-.5.4v6.2c0,.2,0,.2-.2.1l-.4-.2c0,0-.1-.1,0-.2.2-1.5.1-2.9-.1-4,0-.5-.2-.5-.3,0-.8,2.8-.7,5.6.3,8.5,0,0,0,0,0,0,0,0,0,0,0,0h-.2c-.1.1-.2,0-.3,0-1-2.8-1.4-5.3-1.3-7.6,0-2.7-.2-2.7-.7,0-.2.8-.1,2.2,0,4,.7,5.2,1.1,8.9,1.4,11.3.2,1.7,0,3.3-.4,4.8-.7,2.2-1.2,4.2-1.5,6,0,.3,0,.7.1,1,5.1,12.3,8.8,21.2,11.1,26.8.2.5,1.6,2.2,4.1,5.1.4.5.6,1.2.4,2,0,.3-.2.4-.5.2-1.4-.9-2.7-2.2-3.9-3.8-.7-1-1.4-1.5-2.1-1.6-2.1-.2-3.9-.3-5.4-.5-.4,0-.5-.2-.4-.6.6-2,1.3-4.6,1.9-7.8.5-2.6.2-4.7-.7-6.4-2.5-4.2-4-6.1-4.9-9.5-.3-1.2-.9-2.5-1.7-4-.2-.3-.2-.6-.2-.9.9-4.9.8-10.2-.4-15.8-.5-2.4-.9-2.4-1.2,0-.1.9-.2,2.5-.3,4.6,0,1.5-.6,3.6-1.7,6.5-.4,1-.4,1.9-.1,2.8,0,.3.1.6,0,1-.3,1.3-.4,4-1.3,5.3-.3.6-.5,1.2-.4,2,0,.3,0,.6-.2.9-1.4,2.5-2.2,4.3-2.5,5.2-1.1,3.4-1.8,3.3-1.9-.3,0-1,.1-2.9.4-5.7.2-1.5-.4-7.2-2.5-8.7-.3-.2-.3-.5,0-.7.2-.3.3-.5.3-.8,0-.4-.3-.5-.6-.3-2,1.2-3.8,1.6-5.6,1.2-.4,0-.4,0-.2.3.7,1,1.7,1.2,3,.5,0,0,.8-.2,2.2-.5.4,0,.5,0,.3.4-.7,1.5-1.8,2.5-3.3,2.8-.3,0-.5,0-.7-.3l-.3-.5c0,0-.1,0-.2,0,0,0,0,0,0,0-.5,1.6-1.3,2.1-2.4,1.5-.2-.1-.4-.3-.4-.6s0-.2,0-.3c0-.4-.1-.5-.5-.5-.5.1-.9,0-1.2-.3-.3-.2-.4-.2-.5.2,0,.2,0,.5.4,1,0,.1,0,.2,0,.3,0,0-.1.2-.2.2-.2,0-.4,0-.6-.1-.5-.5-1-.9-1.5-1.2-.4-.2-.7,0-.7.4l-.3,2.7c0,.4.2.7.6.8,0,0,0,0,0,0,.8,0,1.5.4,2,1,0,0,.2.2.3.2.5.2.8,0,.8-.6,0-.5.3-.5.6,0,.8,1.2,1.9,1.6,3.5,1,.3-.1.5-.3.7-.6.2-.5.2-1.3,0-2.4,0-.3,0-.6.4-.7,1.2-.5,2-.7,2.6-.6.2,0,.4.2.4.4,0,.7,0,1.3-.3,1.8-.1.2-.4.4-.7.4h-.5c-.5,0-.6.2-.5.7.2.8.8,1.3,1.6,1.6.2,0,.2.2.1.3h0c0,.1-.2.1-.3,0-.6-.3-.9-.5-1.1-.6-1.3-.3-1.4,0-.4.8.4.3,1,.6,2,.9.3,0,.6.3.8.6.7,1.2.9,2.3.6,3.3-.5,1.9-1.1,4.3-1.8,7.2-.2.9,0,1.1.9.7l6.4-3.7c.8-.5,1.1-1.2.9-2.1-.2-1,0-2.7.8-5.3,0-.3.4-.5.7-.4,0,0,.1,0,.2,0l6,3.7c1.2.8,1.4.5.6-.7l-4.5-6.7c0,0,0-.1,0-.2l.2-.2c0,0,.2,0,.2,0l5.8,8.5c.2.3.3.6.3.9,0,2.8,0,5.9,0,9.2,0,.7,0,1.4.2,2.2.2,1.1.3,1.8.2,2.2-.5,2.6-1.4,2.7-2.6.3-.8-1.6-1.7-3.5-2.6-5.5-1-2.2-1-3.9-1.2-6.5,0-.2-.2-.4-.4-.4,0,0-.1,0-.2,0l-10.3,7c-.3.2-.4.5-.3.8l1.4,5.9c0,.3,0,.5-.3.6-.7.2-1.1.5-1.1.6,0,.7.4,1.4,1.2,1.7l6.3,2.7c.3.1.3.2,0,.3l-3.4.3c-.3,0-.6,0-.9-.4-.7-.8-1.2-1.3-1.6-1.3-2.4-.4-2.7.2-.9,1.9.2.2.9.3,2.2.5.9.1,1.7.6,2.3,1.3.2.3.1.4-.2.4-.8,0-1.2.2-1.3.3-.3.5-.2.8,0,.9l1.1.5c.4.2.3.4,0,.7-.4.3-.7.6-.8.8-.2.5,0,.7.4.8l5.4.6c.3,0,.7-.1.9-.4,2.2-2.8,4.7-6.1,1.7-9.4-.8-.9-.6-1.4.6-1.4h1.6c1.3,0,2.5.7,3.2,1.7,1.4,2.1,2.1,4.3,2,6.4,0,.5-.4,11.5-1.1,33.1,0,.4.1.8.4,1.1l6,5.6c.7.7,1.1.5,1-.4-.1-3.1-.5-8.8-1.1-17.2-.3-4.1-.8-8.2-1.6-12.4-.9-4.6-1.6-8.7-2.3-12.4-.2-1.2-1.1-2.5-2.6-4.1-.1-.1-.1-.3,0-.4l.3-.2c.1,0,.3,0,.4,0,1,1.6,2.5,3.4,3.2,5.3,1.8,4.2,3.6,8.5,5.4,12.7,0,.1,0,.3-.1.3,0,0-.2,0-.2,0,0,0-.2-.1-.3-.1-.4,0-.6,0-.6.5.2,1.8.7,3.6,1.5,5.2.1.3.2.6,0,.9l-1,3.6c0,0,0,.1.2.3,0,0,0,0,0,0,0,0,.2,0,.2-.2l1.9-4.6c0-.1,0-.3,0-.4l-.6-2.5c0-.3,0-.4.4-.3,2.9,1,2.5,4,1.1,6.3-1.3,2.2-2.3,3.9-3,5.1-.8,1.4-1.2,2.8-1.2,4.2,0,1.5.3,3,.9,4.5v6.5c0,.6-.6,1.1-1.2,1.1-.1,0-.3,0-.4,0l-3.5-1.5c-.5-.2-.8,0-.8.5l.8,16.4c0,.4-.1.6-.5.8-1.4.7-1.8,2.1-1.4,4.2,1.2,6,1.8,9.2,2,9.6,1.4,5.4,2.5,10.2,3.1,14.4.2,1.6.1,3.2-.4,5-1.1,3.8-2.1,7.7-3.1,11.8-.4,1.7-1.2,3.4-1.7,4.7-.3.7.1,1.6.8,1.8,0,0,.2,0,.3,0,1.8.3,2.9,1.3,3.2,3.1,0,.3.2.5.6.6l2.6.7c.4.1.6.4.6.8l.5,10.7c0,.4.2.6.6.7,2.6.6,7.7,1.4,8.2,4.5.3,1.7-.5,2.9-2.3,3.7-.3.1-.5.4-.3.7l.2.6c.1.3,0,.6-.3.8-2.9,2.1-4.9,3.6-4.4,7.7.2,1.5,1.4,3.5,3.6,6.2,1.8,2.1,4.4,5.2,7.8,9.3.8.9.7,2.1-.2,3.5-.4.6-1.1,1.1-2.2,1.7-.8.4-.8.8,0,1.3,3.6,2.4,6.9,3.7,9.9,3.8.3,0,.6.3.6.6l.4,7.5c0,.5-.2.7-.7.7h-108.8c-.6,0-.9-.3-.8-.9l.3-6.1c0-.5.4-.9.8-1,4.4-.8,8-2.4,10.8-4.8,1.1-.9.9-1.3-.5-1.2-1.1,0-1.8-.6-2.2-2-.3-1-.2-2.4.4-4.2.1-.4.4-.6.7-.6.2,0,.6,0,.8-.2,2.1-1.3,4.5-2.8,7-4.4,1.4-.9,2.3-2.1,2.7-3.5,1.8-5.7.3-9.8-4.4-12.3-.6-.3-.9-.6-1-.9,0-.4-.1-.8,0-1.1.1-.3,0-.7-.1-.9-.2-.3-.4-.6-.8-.7-.3-.2-.5-.4-.6-.6-.7-1.4-.5-2.6.6-3.6,1.4-1.3,3.9-2.4,7.3-3.3.3,0,.5-.3.5-.6l.5-10.2c0-.7.4-1.2,1.1-1.3l6.6-1.2c.2,0,.4-.3.4-.6-.2-1.1-.3-2-.4-2.8,0-.8,0-1.8.3-2.9.7-2.9,1.1-5,1.4-6.4.1-.6.4-1.2.8-2,.5-.9.7-1.6.5-2.2-1-3.2-1.6-6.4-1.9-9.7.6-.4.9-1.1.9-2,0-7.5.2-14.9.4-22.4,0-1.6-.2-3.1-.7-4.5-.8-2.2-1.3-3.7-1.5-4.4-.3-.8-.5-.8-.8,0,0,0-.2.9-.7,2.7-.2.8-.2,1.7,0,2.7.3,1.7.4,4.1.4,7,0,1.3.2,3.6.5,6.8.2,2.5.1,4.8-.4,6.9-7.1,18-20,29-38.6,33.1-8.2,1.8-16.9,2.2-25.9,1.1-11.2-1.4-20.7-4.9-28.6-10.6.2-.3.4-.4.5-.3,9.5,6.3,20.4,9,32.3,9.5,9.3.4,17.7-.7,25.2-3.1,17.3-5.7,28.6-17.3,34-34.9.4-1.4.3-4.6-.5-9.6-.3-.6-.2-1.2.1-1.9.3-.5.1-1.2-.4-1.5-.2,0-.3-.1-.5-.1-2.7,0-5.5-.6-8.4-1.6-1.5-.6-3-1-4.3-1.2-1.7-.3-5.2-.4-7.3-1.3-.7-.3-1.5-.7-2.5-1.2-.9-.5-1.3-1.6-.8-2.5,0,0,0,0,0-.1,1.5-2.3,3.4-5.1,5.8-8.3,1-1.3,1.9-2.8,2.6-4.6.9-2.2,1.5-3.8,1.8-5,1.2-4.8,2.1-8.8,2.8-12.2.3-1.4.7-2.8,1.3-4.2.7-1.5,1.2-2.9,1.6-4.1,4-7.7,6.9-15.4,8.7-23.3.7-2.9.8-5.4.4-7.3-.3-1.5-1.1-3.8-2.4-6.8-.7-1.6-2-3.4-4.1-5.3-1.3-1.2-2.7-2-4.4-2.5-2.6-.8-4.2-6.7-4.2-8.9-.1-3.7-.4-6.9-.8-9.7,0-.7.2-1.9,1-3.5.1-.3.1-.6,0-.9-.9-1.5-1.8-4.1-.5-5.5.2-.2.4-.2.6,0l1.4,2c.2.3.4.4.7.3.6-.1,1.2-.5,1.9-1,.6-.5.5-.6-.2-.4l-1.1.4c-.3.1-.7,0-.8-.4-.2-.6-.6-1.1-.9-1.4-.4-.4-.3-.6.2-.6l1.8-.2c.3,0,.4-.2.4-.5v-1.4c-.2-.6.3-1.2,1-1.2.3,0,.5,0,.7.2,2.5,1.6,3.9,3.6,4.2,6.1,0,.3.2.7.4.9,1.4,1.7,2.2,3.8,2.3,6.2.1,1.9.9,2.7,2.2,4.7.2.3.5.4.8.4,3.8,0,6.5,3.5,9.7,3.6.5,0,1.5.2,2.9.4.3,0,.6,0,.8-.2l1.6-1.1c.3-.2.6-.2,1,0l1,.6c.4.2.7.2.9-.3l.3-.8c.2-.4,0-.5-.4-.4l-1,.5c-.4.2-.6,0-.4-.4.5-1.4.3-2.6-.8-3.6-.3-.2-.4-.5-.4-.8-.2-1.4-.4-3-.6-4.5,0-.5,0-1,.1-1.3.1-.2.3-.4.7-.7.3-.2.4-.4.4-.7-.2-2.6.5-5.2,2.2-7.7,1.1-1.7,2.7-2.7,4.7-3,2.1-.3,4.1-.3,6,0,2,.4,3.8,2.1,5.2,3.1,1,.7,1.6,1.2,1.9,1.7,1.2,2.1,1.6,3.9,1.2,5.6-.5,2.1-.4,3.8.1,4.9.1.2,0,.5,0,.7l-2,3.9c-.2.3-.4.5-.8.5h-.9c-.4,0-.6.3-.8.6-.8,2-.5,3.6,1,4.6.7.5,1.7.3,2.2-.4.1-.2.2-.4.3-.7.7-5.8,2.3-11.1,4.8-16,.2-.3.2-.6,0-1-1.8-4.5-1.8-9.3,0-14.4.4-1.1,1.2-2.1,2.5-3.1.3-.2.4-.5.4-.8.1-1.4.9-2.6,2.3-3.5.3-.2.6-.2.9,0,.6.5,1.1.7,1.6.7.4,0,.5-.1.4-.5-.4-1.6.2-2.8,1.7-3.6.3-.2.4-.4,0-.7l-.3-.3c-.3-.2-.3-.5,0-.8l5.8-8.4c.5-.7.8-.6.8.2l.5,10c0,.4-.2.7-.6.7h-.9c-.3,0-.5.4-.5.7,0,0,0,.2,0,.3l1.4,2.1c.1.2.3.3.5.4.9.2,2.2.9,2.1,2,0,.6-.1.9-.3,1.1-.2.3-.5.3-.8.2l-.9-.6c-.5-.3-.5-.5,0-.6.1,0,.2,0,.3-.2.2-.2.2-.4,0-.6-.2-.2-.4-.3-.8-.3-.3,0-.5.1-.7.4-.3.4-.8.6-1.4.8-.3,0-.5.3-.4.6l.4,1.7ZM940.8,7.3l-2.4,5.5c-.2.4,0,.7.4.9l1.9.8c.5.2.7,0,.7-.4v-6.7c0-.9-.2-1-.5-.1ZM937,16.3c.8.8.9,1.3,1.3,2.2.2.5.8.7,1.2.5.2,0,.3-.2.4-.3.6-.9.6-1.7-.2-2.3-.8-.6-1.5-.9-2.3-1-1-.1-1.2.2-.5,1ZM931.7,21.7c-2.5.6-4,2-4.6,4.3,0,.3,0,.3.2.1l3.8-3.3c-.8,1.1-1.7,2.2-2.6,3.2-1.2,1.3-1.9,2.5-2.3,3.4-.8,2.1-.9,4.3-.4,6.6,0,0,0,0,0,0-3.6-.9-3.5-.9.1.1,0,0,.1,0,.1,0,0-3.3,1.1-6.2,3.1-8.8.1-.1.2-.2.4-.1l.4.2s0,0,0,0c-1.1,1.6-3,4.9-2.5,7,.2.7.4.7.7,0l4.6-10.6c.2-.5.4-.5.5,0l.2.6c.1.4.3.5.6.2.6-.6,1.2-.7,1.6-.3.3.2.7.2.9,0,0,0,0,0,0-.2l1.5-3.5c.1-.3,0-.4-.3-.5-2.8-.7-4.8,0-6.2,1.8ZM940,30c-.2,1-.4,1.8-.8,2.4-.1.2,0,.5.2.6,0,0,.1,0,.2,0h1.7c.3,0,.5-.1.6-.4,1-2.2,1.5-4.1,1.6-5.7,0-.2-.2-.4-.4-.4,0,0-.1,0-.2,0-1.7.8-2.7,2-3,3.5ZM911.9,52.2c-1.5-1.5-3-1.7-4.7-.4-.2.2-.2.4,0,.6l1.1,1.5c.2.2.4.4.8.4h5.2c.4,0,.7-.2,1-.5l1.8-2.9c0-.2,0-.4,0-.5l-1.7-2.1c-.2-.3-.2-.8.1-1,0,0,.1,0,.2-.1l1.3-.4c.3-.1.5-.3.5-.7v-3.7c0-.4,0-.7-.3-1-.5-.8-.8-1.4-.6-1.8.4-1.2.6-1.1.7.1,0,.9.3,1.4.7,1.7.3.2.6.2.9,0,1.4-.7,1.6-1.9.7-3.4-3-5.3-7.6-6.6-13.8-4.1-.4.2-.4.3,0,.5.6.2,1.3.1,1.9-.3.3-.2.7-.3,1.1-.2l3.6.6c.6,0,1,.6.9,1.2,0,0,0,.2,0,.3l-1.8,4.2c-.1.3-.4.5-.7.7l-.5.2c-.4.1-.6.4-.8.7l-1.5,3.5c-.1.3,0,.7.3.9l1.4.7c1,.5.9.8-.2,1-.8.1-1.4.4-2,.8-.9.6-.8,1,.3,1.2,1.8.2,3.4.9,4.8,2.2,0,0,0,0,0,.1v.2c-.2.3-.4.3-.6,0ZM937.6,40.6h-.3c-.4-.2-.6,0-.7.3,0,.3,0,.6.1.9,0,.2.3.4.6.6.9.7,1.6,1.7,1.9,2.9.3,1.1.6,1.1.9,0,.3-1.2.4-2.5,0-3.8,0-.3,0-.6.1-.9.9-2,1.3-4.2,1.2-6.5,0-.6-.2-.6-.6-.2-.6.6-1.1,1.6-1.5,3-.1.3-.3.4-.7.4-.3,0-.7-.4-1.2-.9-.3-.3-.5-.3-.5.2,0,.9.4,2,1,3.4.2.3,0,.5-.3.4ZM877,38.1c.2.8.3,1.2.4,1.2,1.5.9,1.8.5.8-1.2-.8-1.3-1.8-2.5-3-3.5,0,0,0,0-.2,0l-.2.2c-.1.1-.2.3,0,.4,0,0,0,0,0,0,1,.6,2,1.7,2.2,2.8ZM903.2,39.8c.2.4.7.5,1.5.5.3,0,.4-.2.3-.5-.2-.4-.3-.7-.3-.7,0,0-.1-.3-.3-.7-.1-.3-.3-.3-.5,0-.5.6-.7,1.1-.6,1.5ZM875.9,39.5c0,0,.2,0,.3,0,.4-.2.4-.4,0-.6-.1,0-.2,0-.4.2-.1.2,0,.3.1.4ZM902.8,65.9c.4,3,.5,5.8.2,8.6,0,.3,0,.6.3.9l6.2,6.2c.3.3.6.3.9,0l2.5-2c.3-.2.4-.5.5-.8l2.2-9.4c0,0,0-.1,0-.2l-.3-.2c-.1,0-.3,0-.3.1,0,0,0,0,0,0l-2.9,6c0,.2-.2.2-.3.2h0c-.1,0-.1-.2,0-.3l2.9-6.7c.2-.4,0-.7-.3-.8l-4-2.1c-.3-.2-.6,0-.8.2,0,.1,0,.2,0,.3l1.1,11.6c0,.2,0,.2-.2.2h-.2c0-.1,0-.2,0-.3l-1.4-11.9c0-.4-.3-.7-.7-.7h-4.8c-.3,0-.5-.2-.5-.5-.3-1.3-.5-2.9-.8-4.8,0-.4-.2-.6-.4-.8-.2-.2-.5-.3-.8-.3-.4,0-.6.2-.7.5l-.2,1.1c-.1.7-.2.7-.3,0-.2-2-1.6-3.2-4.1-3.7-.8-.2-1.2.2-1,1l.4,1.6c.2.7,0,.7-.4.2-.5-.7-1-1.5-1.4-2.5-.1-.3-.3-.5-.7-.7l-4.6-2.2c-.4-.2-.5-.1-.3.3.7,1.2,1.1,2.5,1.2,3.8,0,0,0,.2-.2.2,0,0-.1,0-.1,0l-2.3-4c-.1-.2-.3-.4-.6-.4h-.8c-.3,0-.7-.2-.8-.5l-1.6-2.8c-.2-.3-.4-.4-.7-.1-.3.2-.4.6-.5,1.1,0,.2-.1.2-.2,0l-.2-.2s0,0,0,0c1.2-2.7,1.2-5.3,0-7.9-.2-.3-.4-.5-.8-.6-.8,0-1-.6-.8-1.7,0-.3-.1-.5-.4-.5,0,0-.2,0-.3,0-.6.3-1.1.6-1.5,1.1-.3.3-.3.5-.2.8l.9,1.8c.2.5.1.6-.4.4-.7-.4-1.4-.4-2-.2-.3.1-.6.1-.9,0l-1.7-.7c-.3-.1-.3-.3,0-.5l.3-.2c.2-.1.2-.4,0-.5,0,0,0,0,0,0-.5-.4-1-.5-1.7-.5-.3,0-.5.2-.4.6l.8,3.4c.2.9,1,1.5,1.9,1.4l2.2-.2c.3,0,.5,0,.7.3.6.6,1.5.9,2.7.9.3,0,.6-.2.7-.5l.7-1.9s0,0,0,0h.3c0,0,.1.2.1.2-.2,2.6-1.4,4.2-3.7,4.7-2.6.7-4.6,0-5.8-1.8-.3-.5-.4-.5-.4.1.1,1,.7,1.7,1.7,2.3,2,1.1,4.1,1.1,6.2-.2.2-.1.4,0,.5.1,0,.1,0,.2,0,.4-2.6,2.6-5.2,2.7-7.9.3,0,0-.2,0-.3,0,0,0,0,0,0,.1,0,.7.1,1,.6,1.1.4,0,.7.2.9.5,1.6,1.7,3.6,2.1,6,1.1.4-.2.9,0,1.1.5,0,0,0,.1,0,.2.1,1.3-.1,2.6-.8,3.9-.7,1.3-1,2.1-1,2.3,0,.6.2.7.5.2l2.2-3.7c0-.1.2-.1.2,0l.3.3c.1.2.2.4.1.6-.8,2.7-1.3,4.5-1.5,5.4,0,.6.1,1.2.6,1.9.2.3.4.3.5-.1.2-.9.2-1.9,0-3.1,0-.2,0-.4,0-.5l2.4-4.5c.3-.6.4-.5.4.1,0,1.3.3,2.4,1,3.3.3.4.5.4.4-.2,0-.7-.3-1.3-.8-1.9-.1-.1,0-.2,0-.3l.2-.2s.1,0,.2,0c0,0,0,0,0,0l3.6,6.3c.2.3.2.6.2.9-.2,1.4-.2,2.9,0,4.5,0,.8.3.8.5,0l1.3-3.5c0,0,.1-.1.2-.2.1,0,.2,0,.3,0,0,0,.1.2.1.4-.1,3.6-.2,7.2-.3,10.8,0,.2.2.4.4.4,0,0,.1,0,.2,0,.3-.1.5-.3.6-.6,2.5-4.6,4.8-9.3,7-14,0-.2.2-.2.3,0l.2.4c0,0,0,.1,0,.2l-5.3,18.7c0,.3,0,.6,0,.9.5,1.6,1.1,3.3,1.9,5,.6,1.3.4,2.3.3,3.7,0,.9-.4,1.7-.9,2.6-6.9,11.8-13.9,23.5-20.8,35.3-4,6.7-7.6,12.1-12.6,19.6-.7,1.1-.5,1.8.8,2.2l1.3.4c1.1.3,1.9,0,2.5-1l32.5-61.3c0,0,.1-.1.2,0l.3.2c.1,0,.1.1,0,.3l-7.5,14.2c-.6,1.1-.2,2.4.9,3,.3.2.6.2,1,.3h3.2c.3,0,.6.2.7.5l1.9,3.4c.2.4.4.4.7,0,2-3.1,2-5.4,2.9-10.6,0-.3,0-.6-.2-.8l-.4-.7c-.2-.3-.1-.5.1-.7,1.5-1.3,2-2.9,1.5-4.9,0-.3-.3-.6-.6-.7l-2.6-.7c-.3,0-.5-.3-.6-.6-.8-2.4-1.2-4.2-1-5.6,1.2-10.3,2-17.3,2.5-21.1.1-1,.3-1,.4,0ZM902.3,47.7c0-1,0-2,0-3,0-.7-.1-.8-.4,0-.3.8-.4,1.8-.4,3.1,0,1.3.2,2.3.6,3.1.3.7.4.6.4,0,0-1-.1-2-.2-3ZM905.3,45.5c.1-.3-.1-.7-.6-.9-.4-.2-.9-.1-1,.2-.1.3.1.7.6.9.4.2.9.1,1-.2ZM875.8,48.1c0,.3,0,.4.3.1.1-.1,0-.2,0-.4,0,0,0,0-.1,0,0,.1-.1.2-.1.2ZM875.1,61.8c.8-1.3.9-3.2.2-5.4,0-.3-.3-.5-.6-.7-1.5-.5-2.6-1.2-3.4-2.1-.5-.6-.8-.5-.8.3-.1,3.7.9,7.4,3.1,11.1.3.6.6.5.7-.1.1-.9.1-2,.8-3.1ZM900.3,56.8c0-.2,0-.4-.2-.5,0,0-.2,0-.2,0-.4,0-.7.3-1.1.6-.3.3-.3.5,0,.8l.4.2c.3.2.5.1.7-.2l.4-.8ZM946.2,83l-6.8-20.8c-.2-.5-.3-.5-.5,0-.7,2.1-1.1,4.2-1.1,6.3,0,1.5.8,3.5,2.5,6,1.9,2.8,3.8,5.8,5.5,8.9,0,0,0,0,.1,0l.2-.2c0,0,.1-.2,0-.2ZM902.5,75.7c0,0-.1-.1-.2-.1,0,0-.2,0-.2.1,0,0-.1.2-.2.3-.2,3.1-.5,6.1-1.1,9.1-.3,1.6,0,2.7.6,4,.1.3.4.4.7.3.1,0,.2-.1.3-.2.9-1.8,2.4-3.2,4.4-4.2.6-.3,1.1-1.2,1.6-2.7,0-.3,0-.5-.3-.7-2.1-1.2-4-3.2-5.5-5.9ZM931.1,92.8c1.9,4.1.5,7.6-.6,11.7-.2.7,0,.8.6.5l.7-.4c.5-.3.8-.7,1-1.2.5-1.8.9-3.7,1.3-5.6.7-3.2.4-5.5-2.8-6.7-1.3-.5-1.6-.2-.8.8,0,0,.2.4.5,1ZM930.1,98c-.3,1.1-.6,2.2-1,3.2-.2.8-.1.8.4.2.6-.7,1.1-1.8,1.4-3.2.4-1.4.5-2.5.4-3.5,0-.8-.2-.8-.4,0-.3,1.1-.5,2.2-.8,3.2ZM923.1,102.2c-.1-.3-.5-.4-.8-.3h0c-.3.2-.4.5-.3.8,0,0,0,0,0,0l4,7.8c.1.3.5.4.8.3h0c.3-.2.4-.5.3-.8,0,0,0,0,0,0l-4-7.8ZM905.9,107c-.9-1.3-.1-2.3.1-3.5,0-.2,0-.4-.2-.5l-.3-.2c-.3-.1-.6,0-.8.2,0,0,0,0,0,0-1.5,2.9-1.8,5.9-1,8.8.3.9.8,1.6,1.5,2,1.1.6,1.9.9,2.5.7,1.3-.4,2-1.8,1.6-3.1-.1-.4-.4-.8-.8-1.1-.6-.5-1.5-1.6-2.6-3.3ZM923,109.8l-.7,1.5c0,.2,0,.4.2.4.1,0,.3,0,.4,0l1.1-1.1c.2-.2.3-.5.2-.9-.1-.5-.7-1.6-1.8-3.4-.4-.7-.7-1.1-1-1.1-.4-.1-.6-.3-.8-.6-.3-.5-.7-.8-1.1-.8-.4,0-.6.1-.6.5,0,2.3.6,4.7,1.9,7.1.2.3.3.3.5,0,.3-.6.8-1.2,1.4-1.7.4-.3.5-.3.3.2ZM917.4,116.8c-.5-.7-.6-1.3-.1-1.8.7-.8,1.4-1.5,2-2.1.2-.2.3-.5.2-.8l-2.2-6.7c-.1-.3-.4-.5-.8-.4-.1,0-.3.1-.3.3-.2.4-.3.8-.3,1.2,0,3,0,5.8,0,8.4,0,2.6-.9,5.7-1.6,8.3-.2.7-.2,1.4,0,2.1.3,1.1.6,1.7.9,2,4.7,4.6,6.9,6.8,8.5,10.9,0,.2,0,.2,0,0l-1.8-22.3c0-.2-.2-.3-.4-.3,0,0-.1,0-.2,0l-2.4,1.6c-.5.4-1.2.3-1.7-.2ZM911,108.3l-.7,9.8c0,.1,0,.2.1.2h.3c.1,0,.2,0,.2-.2l2.8-10.6c0-.2,0-.4-.3-.4,0,0-.1,0-.2,0l-1.7.4c-.4,0-.7.4-.7.8ZM924.7,111c0,0,.2.1.2.1.3-.1.3-.3,0-.4-.1,0-.2,0-.2.1,0,0,0,.1,0,.2ZM921.7,112.8c0,.1.1.2.2.1,0,0,0,0,0,0,.1-.1.1-.2,0-.4,0-.2-.1-.2-.3-.2-.2,0-.2.2,0,.5ZM891.2,163.5l1.9,12.8c0,.6.5,1.2,1.1,1.4,1.2.5,2.1,1.5,2.9,2.9,1.3,2.4,3.3,6,5.8,10.7,1.1,2.1.7,2.5-1.2,1.4-.7-.4-2.3-.4-3.4-1-2.8-1.7-4.4-2.7-4.8-3.1-1.3-1.3-2.7-2.5-4.2-3.5-.3-.2-.7-.1-.9.2,0,0-.1.2-.1.3,0,.7.1,1.4.5,2.1l4.8,13.2c.5,1.5,1,1.4,1.3,0,.2-1,.3-2.3.3-3.6,0-.9-.4-2-1.2-3.3-1.3-2.1-2.5-4.4-3.7-6.8l6.5,9.8c.2.3.2.5,0,.8-.3.4-.4.9-.3,1.5,0,.4.2.6.6.6,1.9,0,3.7-.2,5.2.9,1,.7,1.9,1.5,2.7,2.2.9.9.9,1-.2.3-1.3-.8-2.1-1.2-2.3-1.4-1.7-1-2.8-.7-4.9-.8-1,0-1.6.1-2.1.5-.9.7-1.1,1.6-.7,2.5.1.4,0,.6-.3.7l-2.6,1.1c-.8.3-.8.6.1.8l5.8,1.3c.1,0,.2.1.1.2v.3c-.1,0-.1,0-.2,0-2.2-.6-4.5-.9-6.8-.8,0,0,0,0,0,0v.3c-.1.2,0,.3,0,.3,1.9.3,3.4.6,4.6.7,1.3.2,2.8.2,4.4,0,1.4,0,3.7-.2,7-.3.3,0,.5-.2.5-.5.2-2.3,0-4.5-.4-6.8-.8-4-1.5-7.9-2.1-11.7-.5-2.7-1.6-5.8-2.2-8.3-.5-2.2-2.2-4.2-2.8-6.4,0-.3-.3-.5-.6-.4l-3.5.3c-.6,0-.9-.2-1.1-.8l-3.3-11.3c1.1-5.7,2.4-11.4,3.8-17.2.1-.5.4-3.9.8-10.2.1-2.2-.1-4.3-.7-6.1-1.4-4.2-2.7-8.6-3.9-13.4,0-.1-.2-.2-.3-.2,0,0-.1,0-.2.1l-4.1,7.8c-.2.3-.2.6-.2.9.3,3.5.5,7.1.8,10.6.7,9.3,2.5,18.7,3.9,28ZM903,117.3c-.3,0-.5.3-.5.7l.5,6.7c0,.4.4.7.8.7.2,0,.3,0,.4-.2.3-.3.6-.9.8-1.8.6-2.5,1-4.7,1.3-6.4,0-.3,0-.4-.4-.3l-3,.7ZM897.8,129.9c0,0,0,0,0,0,0,0,.2,0,.3,0,0,0,0,0,0-.2-.3-3-.5-5.9-.9-8.8,0-.3-.4-.8-1.2-1.7-.3-.3-.4-.2-.4.1-.2,3,.6,6.4,2.2,10.2,0,0,0,.1,0,.3ZM910.8,128.7c-.3-.4-.5-.4-.5.2v14.3c0,.1,0,.2.2.2h.3c0,0,.1,0,.1-.1l1.8-11.4c0-.4,0-.7-.3-1l-1.6-2.1ZM922.2,140.6c.1-.1.3-.6.5-1.4,0-.5,0-1-.1-1.4-1.1-2.7-1.9-4.3-2.4-4.6-2.3-1.8-2.8-1.4-1.5,1.2l2.2,4.6c.1.3.1.6-.1.9-.5.6-.8,1-1.2,1.1-.9.5-2,0-2.5-1-.1-.3-.2-.6-.2-1,0-2.4,0-4.3-.2-5.9-.3-2.5-.6-2.5-1,0l-4.2,27.2c-.1.7.4,1.4,1.1,1.5.1,0,.2,0,.3,0,2.4-.3,5.7-.7,9.9-1.3,2.1-.3,4.4-.1,7,.4.3,0,.5,0,.4-.4-.9-3.6-1.3-7.3-1.4-11.1,0-2.2-.8-4.5-2.3-6.8-.2-.3-.5-.5-.9-.5h-2.6c-1.8-.1-2-.6-.8-1.6ZM936.4,139.8c0,0,0-.2-.2-.2,0,0,0,0-.1,0l-2.6,2.6c-.3.3-.3.8,0,1.1,1,1.3,1.8,2.6,2.4,4.1.2.6.3.5.4,0,.3-2.5.3-5,0-7.6ZM926.5,202l-1.3.7c-.5.3-.4.5.1.6l1,.3c.4.1.7.4.9.8l1.5,3.9s.1,0,.2,0c.1,0,.2,0,.3-.1.3-.3.6-.4,1-.2,2.4,1.1,4.3,1.8,5.7,2.1.6.2,1.1.2,1.4.1.7-.2,1.1-1.1.9-1.8,0-.3-.3-.5-.5-.7l-2.4-2c-.3-.3-.5-.6-.4-1,1.9-9.7,3.4-16.3,4.6-19.7.5-1.4.5-2.7,0-3.9,0,0-1.3-5-3.9-15-1-3.8-1-8.1-.8-11.7,0-.6-.2-.7-.6-.3l-1.7,1.7c-.4.4-.5.3-.4-.2.5-3-.2-6-2-9-.2-.4-.3-.4-.4,0-.2,3.5,0,7.1.8,10.8.4,1.8.5,3,.5,3.7,0,3.1-.2,6.1.5,9.3.9,4.3,1.7,8.6,2.4,13,.2,1.5,1,2.6,2.2,3.1.4.2.7.6.6,1.1l-2.4,15.8c0,.4-.3.6-.7.5-.9,0-1.5-.5-1.7-1.3-1.9-6.6-3.5-12.1-4.7-16.4-.7-2.3-.3-4.7,0-6.8.1-1.4,0-3.1-.5-5.1-1-4.3-1.7-7.6-2.2-9.9,0-.2-.2-.4-.3-.4l-4.4-2.3c-.5-.2-.9-.3-1.4-.1l-2.1.7c-.6.2-1,.9-.8,1.5,0,.2.1.3.2.4,1,1.1,1.7,2,2,2.7.3.6.5,1.5.4,2.8-.7,11.1-1.2,20-1.6,26.8,0,.3.1.6.4.9,2.8,2.5,5.9,3.8,9.5,3.9.6,0,.6.2.1.4ZM912.8,207.8c.2.2.8.4,1.9.4.4,0,.5-.1.3-.5-.1-.3-.4-.6-.8-1.1-.4-.5-.7-.8-1-1-.3-.2-.5-.2-.5.2-.2,1.1-.1,1.7,0,2ZM910.3,221.7c-10.7.7-20.9,1.9-30.7,3.6,0,0,0,0,0,0s0,0,0,0c4.2.4,9.3,0,12.8.2,9.5.3,19.9,1,31.1,2.2,3.5.4,7.9.6,13.2.8,4.8.1,9.5.6,13.9,1.3.3,0,.6,0,.8-.3.6-.7.5-1.4-.1-2.2-1.7-2.1-5.2-2-7.6-2.8-.4-.1-.7-.4-.7-.9l-.8-9.6c0-.6-.5-1.1-1.1-1.2-13.7-2.3-28.7-2.8-45.1-1.7-.6,0-.6.3,0,.8l4.5,3.6c.9.7.7,1-.7,1-1,0-2.4.1-4.1.4-.4,0-.4.2-.2.5l1.9,2.4c.2.3.4.4.8.4l12.1,1.3c.8,0,.8.2,0,.2ZM950.3,232.5c-.2-.9-.7-1.3-1.5-1.5-13.8-2.2-27.6-2.1-41.3,0-.7.1-.7.2,0,.2l42.1,2.1s0,0,.1,0c.5-.2.7-.5.6-.9ZM922.1,270.9l-21.7,1.9s0,0,0,0v.3c0,.1,0,.2.1.2l62.4,1.3c.4,0,.7-.3.7-.7,0,0,0-.1,0-.2l-1-4.2c0-.3-.3-.6-.6-.7-1.6-.9-3.9-2.2-6.9-3.9-.8-.5-1.2-.9-1.3-1.3-.1-.6-.2-1.3-.2-2.1,0-.4.2-.6.6-.5,1,.1,1.7-.1,2.1-.8.2-.3.3-.6.2-.9-.1-1.7-.9-3.1-2.2-4.4-2.8-2.6-5.3-5.2-7.5-8-2.6-3.2-2.4-6.2-1.3-9.8.2-.5,0-.9-.6-1.1-1.9-.6-3.9-1.1-5.9-1.5-1.1-.2-3.1-.2-6,.1-12.8,1.3-25.1,4.9-36.8,10.6-3.2,1.6-5.6,3.4-7.1,5.4-.3.4-.2.5.2.4,2.6-.7,5.1-.8,7.3-.4,1.3.3,2.7,1,4.2,2.2,6.1,5,15.2,6.6,23.2,7,.9,0,.9,0,0,.1-12,.7-22.2,1.1-30.7,1.2-4.6,0-10.5.8-17.9,2.4-.4,0-.8.4-1.1.8-.2.3-.5.5-.8.5l-8.8,2.2c-.6.2-.6.2,0,.2l35.1-1.7c.4,0,.6.2.7.6l.2,3.6c0,.3.2.5.5.5l20.8.7c1.2,0,1.2.1,0,.2Z"/>
    <path class="st2" d="M913.8,42.6c.3,0,.7.2,1.1.5.3.2.3.3,0,.4l-2.4.9c-.5.2-.9,0-1.1-.4l-.8-1.4c-.2-.4-.1-1,.3-1.2.1,0,.3-.1.5-.1h2.5c.3,0,.4,0,0,.3l-.4.2c-.7.4-.6.8.3.9Z"/>
    <path class="st2" d="M875.9,46c-.6.3-1.5.2-2.7-.5-.4-.2-.4-.4,0-.6,1.3-.7,2.2-.4,3.1.6.2.2.5.3,1,.3.3,0,.3.2.2.4,0,.1-.2.2-.3.2-.4.1-.6,0-.8-.3,0,0,0,0-.3-.2,0,0-.1,0-.2,0Z"/>
    <ellipse class="st2" cx="912.2" cy="47.5" rx=".5" ry="2" transform="translate(121.3 504.5) rotate(-33)"/>
    <circle class="st2" cx="908.8" cy="52.1" r=".5"/>
    <path class="st2" d="M750.2,84.3c.2,0,.4-.2.4-.4h0v-27.6c0-.2,0-.4.2-.5l.4-.4c.3-.3.7-.2,1,.2.1.1.2.3.2.5l.2,29.7c0,.3-.3.4-.8.4-9.1,0-17.8-.2-26.2-.5-1.3,0-2,0-2,0-2.8-.9-2.7-1.3.3-1.3h26.3Z"/>
    <path class="st2" d="M478.3,85.9c0,0-.2.1-.2.2-9.7.2-19.6,0-29.6-.4-.2,0-.4-.2-.4-.4v-.4c0-.3.2-.5.5-.6,0,0,0,0,0,0,9.4,0,18.7,0,27.9,0,0,0,0,0,.1,0,0,0,0,0,0,0,0,0,0,0,0,0,0,0,0,0,0,0,0-9.2.1-18.6.2-27.9,0-.3.2-.5.5-.5,0,0,0,0,0,0h.4c.2,0,.4.2.4.4.4,10,.4,19.9.2,29.6,0,0,0,.1-.1.2Z"/>
    <path class="st2" d="M916.3,58.7c.3.7.5,1.2.4,1.4,0,.4-.3.5-.6.2-.6-.5-.8-1-.5-1.7.2-.4.4-.4.6,0Z"/>
    <ellipse class="st2" cx="917" cy="63.2" rx="1.3" ry=".1" transform="translate(813.9 976.6) rotate(-87.5)"/>
    <path class="st2" d="M368,73.8c0,0-.2.1-.3.2-6.5-3.6-13.2-5.9-20.2-6.9-9.2-1.3-19-1.7-29.5-1.2-.3,0-.5.2-.5.5l-.2,69.6c-.2-7.1-.3-14.2-.2-21.3,0-2.9-.5-6.4-1-9.4-.1-.8-.2-.8-.2,0v30c-.1,0-.3-71-.3-71,0-.3.1-.4.4-.4,6.3,0,11.9,0,16.9.2,5.9.2,11.9,1,18.1,2.4,5.7,1.3,11,3.5,16,6.5.4.2.7.5,1,.9Z"/>
    <path class="st2" d="M916.3,66.2c.2-.3.3-.3.5.2,0,.2,0,.3-.4.5-.2.1-.3,0-.3-.2,0-.1,0-.3.2-.6Z"/>
    <path class="st2" d="M409.1,81.5c-.1-.2,0-.2.1-.2h.2s0,0,0,0c1.4,1.8,2.7,3.7,3.9,5.8,4.5,8.2,7.5,17.3,8.7,27.1,1.7,13.4,1.2,26.4-1.5,39.2-2.1,9.6-5.8,18.3-11.1,26.1-9.7,14.3-22.9,23.4-39.7,27.3-6.6,1.5-13.4,2-21,2-19.6,0-46,0-79.3,0-.4,0-.7-.3-.8-.7v-.4c0-.4.3-.8.7-.8,0,0,0,0,0,0,23.2,0,47.9,0,74.1,0,9.2,0,15.8-.4,19.9-1.2,22-3.9,38.1-15.9,48.4-35.8,9.4-18.2,10.9-42,7.4-62.4-1.6-9.4-5.1-18-10.4-25.9Z"/>
    <path class="st2" d="M921.4,87.7c.2,0,.4,0,.6,0,.3,0,.5.2.8.5.5.5.7,1,.5,1.5,0,.3-.3.5-.6.5-3.1.3-4.7-1.2-4.8-4.4,0-.5.3-.8,1-.9.3,0,.5,0,.6.3l1.2,2.1c.2.3.4.4.7.5Z"/>
    <path class="st2" d="M925.3,86.9c-.4-.6-.3-.7.3-.3.5.3.9.6,1.1,1,.2.4,0,.4-.3.3-.4-.2-.8-.5-1.1-1Z"/>
    <path class="st2" d="M933.5,90c-.1-.8.2-.9.8-.2,0,.1.1.3,0,.4-.2.4-.4.4-.7.1,0,0-.2-.2-.2-.3Z"/>
    <path class="st2" d="M935.4,90.2c0,0,0-.1,0-.2l.2-.3c.1-.2.3-.2.4-.1,2.3,1.2,5.8,2.5,7.4,4.7.4.6.7,1.2.9,1.9,1.2,4.3,2,7.9,2.4,10.9.3,2.4,0,2.4-.8.2-2.2-5.5-3.5-8.8-4-10-1.1-2.5-3.3-4.9-6.5-7.2Z"/>
    <path class="st2" d="M753.4,192.5c-.2.1-.6,0-1.3-.6-.9-3.3-1.3-6.8-1.3-10.5-.2-32.1-.2-59.2,0-81.2,0-2.6.1-4.3.3-4.9,0-.3.2-.4.4-.5.4,0,.6,0,.6.4.3,2.4.5,5.1.5,8.1,0,27.6,0,53.8,0,78.5,0,3.6.5,7.2.8,10.8Z"/>
    <path class="st2" d="M479.7,192.7c-.4.2-.9,0-1.5-.5-.8-3.6-1.3-6.5-1.3-8.5-.2-17.4-.2-46.8,0-88.2,0-.1,0-.3.2-.3l.3-.2c.2-.1.6,0,.7.2,0,0,0,.2,0,.2.3,5.6.4,9.1.4,10.5.2,18.2.2,43.2,0,74.8,0,3.7.3,7.7,1,11.9Z"/>
    <path class="st2" d="M656.7,107.2c-.5,1.2-1.1,1.8-1.8,1.7v-12.9c0-.6.4-.9,1-.9h.3c.3,0,.5.2.5.5h0s0,11.6,0,11.6Z"/>
    <path class="st2" d="M697.5,95.4h1.1c.2,0,.4.1.4.3,0,0,0,0,0,0v33.3c0,.2-.2.4-.4.4h-13.3c-.2,0-.4-.2-.4-.4v-1.1c0-.2.2-.4.4-.4h11.4c.2,0,.4-.2.4-.4h0v-31.4c0-.2.2-.4.4-.4Z"/>
    <path class="st2" d="M924.7,98.4c-.8.1-1,.2-1.6.5-.4.2-.6.1-.7-.3,0,0,0-.1,0-.2,0-.2.2-.3.4-.4.6-.2,1.2-.2,1.9,0,.6.2.6.3,0,.4Z"/>
    <path class="st2" d="M554,103.1c-.3,0-.4.1-.3.6-8.3-2.5-16.2-1.8-23.7,2.2-.5.3-1.5,1.1-2.9,2.5-.9.9-1.5,1.9-1.8,3.3-1,4.2-1.2,7.8-1.4,12.4,0,.4-.2.6-.6.6h-15.2c-.5,0-.7-.2-.7-.7v-.5c0-.5.2-.7.6-.7h13.5c.3,0,.5-.2.5-.5.1-4.4.6-8.4,1.3-12.1.8-3.7,4.1-6.2,7.6-7.6,5.8-2.4,11.9-2.9,18.4-1.6.7.1,1.5.4,2.4.9.7.3,1.5.7,2.3,1.2Z"/>
    <path class="st2" d="M839.4,104.5v.7c-8.6-3.2-15.9-2.4-21.8,2.5-3.6,2.9-6.2,7-8.1,12.2-1.6,4.5-2.7,9.4-3.3,14.5-1.5,12-1.4,23.8,0,35.5.9,6.9,2.6,13.2,5.2,18.7l-.7.2c-2.6-4.5-4.3-8.7-5-12.5-2.7-13.2-3.3-27.1-1.9-41.6.6-6.6,2.1-12.8,4.3-18.5,2.6-6.7,7.4-12.1,14.5-14.1,5.5-1.5,11-.7,16.7,2.4Z"/>
    <path class="st2" d="M715.7,105.1v1s-9.7-1.3-9.7-1.3c-.4,0-.6-.3-.7-.7v-.4c-.2-.3,0-.5.2-.6,0,0,0,0,.1,0,3.5,0,6.8.7,10,2Z"/>
    <path class="st2" d="M679.4,111.5c.5.5.6,1.1.4,1.8-8.4-.2-15.2,3.3-20.4,10.6-.9,1.3-1.5,2.2-1.9,2.9-.4.8-.6,1.9-.7,3.3-.2,17.4-.2,34.6,0,51.5,0,3.6.4,7.2,1,10.7-.3.4-.7.4-1.4,0-.7-4.2-1.3-8.4-1.4-12.7,0-20,0-37.4-.2-52,0-3.5,3.6-7.4,5.9-9.7,5.1-5.1,11.3-7.3,18.6-6.5Z"/>
    <path class="st2" d="M101.5,131c-.2,0-.3.2-.5.2-.5.2-.7.4-.5.6,0,0,0,.2,0,.3,0,.3.2.4.5.4h11.5c0,0-23.6.3-23.6.3-.2,0-.3.1-.3.3h0c0,16.6,0,33.2,0,49.8,0,2.6.4,5.7,1,9.5-.3.2-.8.2-1.4,0-1.1-3.9-1.6-7.5-1.6-11,0-16.5,0-33.1,0-49.9,0-.4.3-.7.7-.7h0l14.1.2Z"/>
    <path class="st2" d="M557.9,148.6c.2.5.1,1.1-.2,2-6.1-.2-11.8.8-17.2,3-3.1,1.3-5.5,2.9-7.4,4.9-5.8,6.4-6.8,16.1-4.5,24.2,0,.3,0,.5,0,.7-.1.2-.2.3-.4.3-.1,0-.3,0-.5-.3-2.4-5.6-2.8-11.6-1.2-17.8,2.4-9.7,10.4-14.6,19.6-16.1,4-.6,8-.9,12-.9Z"/>
    <path class="st2" d="M887.4,183.6c-.7-2-1-4.2-.8-6.4,0,0,.2,0,.2,0,.2,0,.3,0,.4.2.5,2.1.6,4.1.2,6.3Z"/>
    <path class="st2" d="M920.6,183.9c.7-1.9-.3-4.5,0-5.6.1-.4.3-.4.4,0,1,2.3,1.5,4,1.5,4.8,0,3.5,0,5.9,0,7.4,0,1.1.2,2.2.7,3.3.5,1.3.8,2.4,1,3.4,0,.5-.1.7-.6.6l-3.2-.4c-.3,0-.5-.2-.5-.5,0-1.9,0-5.5.2-10.8,0-.6.2-1.3.5-2.1Z"/>
    <path class="st2" d="M563.2,194.8c.6-.3,1.3.3,2.1,1.7-4,3.8-8.2,6.9-12.7,9.4-6,3.3-12.3,5.1-19.1,5.3-9.4.4-17.7-2.3-25-8.1,0,0,0,0,0-.2v-.3c0-.2,0-.2.2-.1,13.1,9.5,30.5,8.5,43.8.3,3.8-2.3,7.4-5,10.8-8.1Z"/>
    <path class="st2" d="M157.2,195.5v12.7c0,.3-.2.5-.5.5H41.5c-.4,0-.8-.3-.8-.8v-.4c0-.4.2-.7.6-.7,0,0,0,0,0,0h113.7c.3,0,.5-.2.5-.5l.2-11.1c.1.3.3.5.6.6.3.1.6,0,1-.3Z"/>
    <path class="st2" d="M605.1,199.3l.4,5.5v3.4c0,.3,0,.5-.4.6-4.8.4-9.8.5-14.9.1-6.8-.4-13-2.5-18.5-6.3-.1,0-.1-.2,0-.3v-.2c.1,0,.2,0,.2,0,4.6,2.6,9.6,4.2,15.1,4.7,5.8.5,11.3.6,16.4.2.3,0,.4-.2.4-.5v-7.1c0-.3.2-.5.5-.5.3,0,.6,0,.9.3Z"/>
    <path class="st2" d="M224,207c.4,0,.5-.2.5-.6v-6.6c0-.3.2-.5.5-.6h.4c.4-.1.7.1.8.5,0,0,0,0,0,.1v8.4c0,.3-.1.5-.4.5,0,0,0,0,0,0h-62.8c-.4,0-.6-.2-.6-.6v-.6c0-.4.1-.6.5-.6h61.1Z"/>
    <path class="st2" d="M766.9,206.9c.4,0,.5-.2.5-.6v-6.6c0-.3.2-.5.5-.6h.4c.4-.1.7.1.8.5,0,0,0,0,0,.1v8.4c0,.3-.1.5-.4.5,0,0,0,0,0,0h-62.8c-.4,0-.6-.1-.6-.6v-.6c0-.4.1-.6.5-.6h61.1Z"/>
    <path class="st2" d="M930.5,207.2c.1-.2.3-.4.5-.3.1,0,.2.2.2.3,0,0,0,.1-.1.2-.1,0-.3.1-.5,0-.1,0-.2-.1-.1-.2Z"/>
  </g>
  <g>
    <path class="st1" d="M931.7,21.7c.2.5,0,.8-.5,1.1l-3.8,3.3c-.2.2-.3.2-.2-.1.6-2.2,2.1-3.6,4.6-4.3Z"/>
    <path class="st1" d="M904.6,39.1s.1.3.3.7c.2.3,0,.5-.3.5-.8,0-1.3-.2-1.5-.5-.2-.4,0-.8.6-1.5.2-.3.4-.2.5,0,.2.5.3.7.3.7Z"/>
    <path class="st1" d="M875.7,39.1c.1-.2.3-.3.4-.2.4.2.4.4,0,.6-.1,0-.2,0-.3,0-.2,0-.3-.2-.1-.4Z"/>
    <ellipse class="st1" cx="904.5" cy="45.2" rx=".6" ry=".9" transform="translate(503.8 857.4) rotate(-66.6)"/>
    <path class="st1" d="M875.8,48.1s0-.1.1-.2c0,0,0,0,.1,0,.2.1.2.3,0,.4-.2.2-.3.2-.3-.1Z"/>
    <path class="st1" d="M930.9,98.2c-.4,1.4-.9,2.4-1.4,3.2-.5.6-.6.6-.4-.2.3-1.1.7-2.1,1-3.2.3-1.1.6-2.2.8-3.2.2-.8.3-.8.4,0,0,.9,0,2.1-.4,3.5Z"/>
    <path class="st1" d="M924.7,110.9c0-.1.1-.2.2-.1.3.1.3.3,0,.4,0,0-.1,0-.2-.1,0,0,0-.1,0-.2Z"/>
    <path class="st1" d="M921.7,112.8c0-.3,0-.5,0-.5.2,0,.3,0,.3.2,0,.2,0,.3,0,.4,0,0-.2,0-.3,0,0,0,0,0,0,0Z"/>
    <path class="st1" d="M890.3,187.1l-1.4.6c-.4-.7-.6-1.4-.5-2.1,0-.4.3-.6.7-.6.1,0,.2,0,.3.1,1.5,1,2.9,2.2,4.2,3.5.4.4,1.9,1.4,4.8,3.1,1.1.7,2.8.6,3.4,1,1.9,1.2,2.3.7,1.2-1.4-2.5-4.7-4.5-8.3-5.8-10.7-.8-1.4-1.7-2.4-2.9-2.9-.6-.3-1-.8-1.1-1.4l-1.9-12.8c.1,0,.2-.2.2-.4l3.3,11.3c.2.5.5.8,1.1.8l3.5-.3c.3,0,.5.1.6.4.6,2.2,2.3,4.2,2.8,6.4.6,2.5,1.8,5.7,2.2,8.3.7,3.8,1.4,7.7,2.1,11.7.4,2.2.6,4.5.4,6.8,0,.3-.2.5-.5.5-3.3,0-5.6.2-7,.3-1.7.1-3.1,0-4.4,0-1.2-.2-2.8-.4-4.6-.7-.2,0-.2-.1-.2-.3v-.3c0,0,.1,0,.1,0,2.3-.1,4.6.1,6.8.8,0,0,.1,0,.1,0v-.3c.1-.1,0-.2,0-.2l-5.8-1.3c-.9-.2-.9-.5-.1-.8l2.6-1.1c.3-.1.4-.4.3-.7-.4-.9-.1-1.8.7-2.5.4-.4,1.1-.5,2.1-.5,2.1,0,3.2-.2,4.9.8.2.1,1,.6,2.3,1.4,1.1.6,1.2.5.2-.3-.8-.8-1.7-1.5-2.7-2.2-1.5-1.1-3.2-.8-5.2-.9-.4,0-.6-.2-.6-.6,0-.5,0-1,.3-1.5.2-.3.2-.5,0-.8l-6.5-9.8Z"/>
    <path class="st1" d="M914.2,206.6c.4.5.7.9.8,1.1.2.3,0,.5-.3.5-1.1,0-1.7-.2-1.9-.4-.2-.2-.2-.9,0-2,0-.4.2-.5.5-.2.2.2.6.5,1,1Z"/>
    <path class="st1" d="M910.3,221.5l-12.1-1.3c-.3,0-.6-.2-.8-.4l-1.9-2.4c-.2-.3-.2-.5.2-.5,1.7-.3,3.1-.4,4.1-.4,1.3,0,1.6-.3.7-1l-4.5-3.6c-.6-.5-.6-.8,0-.8,16.4-1.1,31.4-.6,45.1,1.7.6.1,1.1.6,1.1,1.2l.8,9.6c0,.4.3.7.7.9,2.3.8,5.8.7,7.6,2.8.7.8.7,1.6.1,2.2-.2.3-.5.4-.8.3-4.4-.7-9.1-1.2-13.9-1.3-5.3-.1-9.7-.4-13.2-.8-11.3-1.2-21.6-1.9-31.1-2.2-3.5,0-8.5.2-12.8-.2,0,0,0,0,0,0s0,0,0,0c9.8-1.7,20.1-2.9,30.7-3.6.8,0,.8-.1,0-.2Z"/>
    <path class="st1" d="M950.3,232.5c.1.4,0,.7-.6.9,0,0,0,0-.1,0l-42.1-2.1c-.7,0-.7-.1,0-.2,13.7-2.2,27.5-2.2,41.3,0,.8.1,1.3.6,1.5,1.5Z"/>
    <path class="st1" d="M922.1,270.6l-20.8-.7c-.3,0-.5-.2-.5-.5l-.2-3.6c0-.4-.2-.6-.7-.6l-35.1,1.7c-.7,0-.7,0,0-.2l8.8-2.2c.3,0,.6-.3.8-.5.3-.5.7-.7,1.1-.8,7.4-1.6,13.3-2.4,17.9-2.4,8.5,0,18.7-.5,30.7-1.2.9,0,.9,0,0-.1-8-.3-17.1-2-23.2-7-1.5-1.2-2.9-1.9-4.2-2.2-2.3-.4-4.7-.3-7.3.4-.4.1-.5,0-.2-.4,1.5-2,3.9-3.9,7.1-5.4,11.7-5.7,24-9.3,36.8-10.6,2.9-.3,4.9-.3,6-.1,2,.4,3.9.9,5.9,1.5.5.2.7.5.6,1.1-1.2,3.6-1.3,6.6,1.3,9.8,2.3,2.8,4.8,5.4,7.5,8,1.4,1.3,2.1,2.7,2.2,4.4,0,.3,0,.6-.2.9-.4.6-1.1.9-2.1.8-.4,0-.6.1-.6.5,0,.7,0,1.4.2,2.1.1.4.5.9,1.3,1.3,3.1,1.7,5.4,3.1,6.9,3.9.3.2.5.4.6.7l1,4.2c0,.4-.1.8-.5.9,0,0-.1,0-.2,0l-62.4-1.3c-.1,0-.2,0-.2-.2v-.3s0,0,0,0l21.7-1.9c1.2-.1,1.2-.2,0-.2Z"/>
  </g>
  <g>
    <path class="st2" d="M151.4,55.8h1.2c.2,0,.3.1.3.3v26.5c0,.2-.1.3-.3.3h-14.6c-.2,0-.3-.1-.3-.3v-.9c0-.2.1-.3.3-.3h12.8c.2,0,.3-.1.3-.3h0v-24.9c0-.2.1-.3.3-.3Z"/>
    <path class="st2" d="M210.6,192.7c-.4,0-.9-.2-1.5-.5-.9-3.5-1.3-6.4-1.3-8.8,0-42.1,0-84.5,0-127,0-.3.2-.5.5-.6h.4c.5,0,.7.2.8.7,0,3,0,5.9,0,8.8,0,70.7,0,109.7,0,117,0,2.3.3,5.8,1,10.5Z"/>
    <path class="st2" d="M173.1,64.6v1.1c0,0-10-1.4-10-1.4-.5,0-.7-.3-.7-.8v-.4c0-.3.2-.4.4-.4,3.5,0,7,.7,10.2,1.9Z"/>
    <path class="st2" d="M51.3,65.7c0,.5,0,.9,0,1l-10.2-1.5c-.3,0-.6-.3-.5-.7v-.4c0-.3.3-.5.6-.5,3.5,0,6.9.7,10.2,2Z"/>
    <path class="st2" d="M279.4,65.7c.2.4.2.8,0,1.1l-10-1.4c-.4,0-.5-.3-.5-.6v-.4c0-.4.2-.5.5-.5,3.4,0,6.7.7,10,1.9Z"/>
    <path class="st2" d="M131.4,65.2c.2.4.2.8,0,.9-.1.2-.3.2-.5.2-3.4-.4-6.8-.6-10.3-.7-10.4,0-20.8,0-31.1,0-.2,0-.4.2-.4.4v53.6c-.5.1-1.1,0-1.8-.3v-55c0-.3.2-.5.5-.5,16.2,0,28.8,0,37.9.1,1.8,0,3.6.4,5.6,1.1Z"/>
    <path class="st2" d="M441.7,105c0,.4-.1.8-.2,1l-9.4-1.3c-.3,0-.5-.3-.5-.6v-.5c0-.3.1-.4.4-.4,3.4.1,6.7.7,9.7,1.9Z"/>
    <path class="st2" d="M619.7,104.9v1.1s-9.5-1.2-9.5-1.2c-.3,0-.6-.4-.6-.7v-.3c0-.4.3-.6.7-.5l9.4,1.7Z"/>
    <path class="st2" d="M317.4,135.9c0,14.3,0,28.7,0,43,0,3.7.5,7.6,1.5,11.8-.4,0-.7.1-.9.4-1.3-3.4-2-6.6-2-9.6-.2-12.2-.2-27.6,0-46.2v-30c.1-.8.2-.8.3,0,.5,3,1,6.5,1,9.4,0,7.1,0,14.2.2,21.3Z"/>
    <path class="st2" d="M594.5,188.8c0,.5-.3.7-.9.6-1.6-4.2-2.5-7.9-2.5-10.9,0-18.3,0-36.5,0-54.8,0-6.2-1.8-12-5.4-17.6-.1-.2,0-.3,0-.3h0c.2,0,.2,0,.3,0,2.7,3.5,4.5,7.3,5.6,11.4.7,2.5,1,6.7,1,12.4,0,14.6,0,29.1,0,43.7,0,6.1.6,11.2,1.8,15.4Z"/>
    <path class="st2" d="M137.6,112.2v32.2c0,.2-.1.3-.3.3h-10.1c-.2,0-.3-.1-.3-.3v-1c0-.2.1-.3.3-.3h8.4c.2,0,.3-.1.3-.3h0v-30.6c0-.2.1-.3.3-.3h1c.2,0,.3.1.3.3h0Z"/>
    <path class="st2" d="M121.1,131.7l.4.3c.2.2.3.4.3.6,0,.2-.1.4-.2.5l-9.1-.6h-11.5c-.3,0-.4-.2-.5-.5,0,0,0-.2,0-.3-.1-.2,0-.4.5-.6.2,0,.3-.1.5-.2l19.7.7Z"/>
    <path class="st2" d="M157.2,195.5c-.3.3-.7.4-1,.3-.2,0-.4-.3-.6-.6v-14.6c0-.4.2-.6.6-.6h.4c.3,0,.5.1.5.4,0,0,0,0,0,0v15.1Z"/>
    <path class="st2" d="M493,207c.4,0,.5-.2.5-.5v-6.6c0-.3.2-.5.5-.6h.4c.4-.1.7.1.8.5,0,0,0,0,0,.1v8.4c0,.3-.1.5-.4.5,0,0,0,0,0,0h-62.7c-.4,0-.6-.2-.6-.6v-.6c0-.4.1-.6.5-.6h61.1Z"/>
    <path class="st2" d="M674.6,198.9h1.1c.2,0,.4,0,.4.2,0,0,0,0,0,0v9.2c0,.2-.2.3-.3.3h-65.6c-.2,0-.3-.2-.3-.3h0v-1.2c0-.2.2-.3.3-.3h63.8c.2,0,.3-.2.3-.3h0v-7.3c0-.2.1-.3.3-.3Z"/>
  </g>
  <g>
    <path class="st1" d="M940.8,7.3c.4-.9.5-.8.5.1v6.7c0,.5-.2.7-.7.4l-1.9-.8c-.4-.2-.5-.5-.4-.9l2.4-5.5Z"/>
    <path class="st1" d="M938.4,18.6c-.4-.9-.6-1.4-1.3-2.2-.7-.8-.5-1.1.5-1,.8,0,1.6.4,2.3,1,.7.6.8,1.4.2,2.3-.3.4-.9.5-1.3.3-.1,0-.3-.2-.3-.4Z"/>
    <path class="st1" d="M931.2,22.8c.6-.3.8-.6.5-1.1,1.4-1.9,3.4-2.5,6.2-1.8.3,0,.4.2.3.5l-1.5,3.5c-.1.3-.5.5-.8.3,0,0-.1,0-.2,0-.4-.4-1-.2-1.6.3-.3.3-.5.2-.6-.2l-.2-.6c-.2-.5-.3-.5-.5,0l-4.6,10.6c-.3.7-.5.6-.7,0-.5-2.1,1.4-5.4,2.5-7,0,0,0,0,0,0l-.4-.2c-.2,0-.3,0-.4.1-2,2.6-3.1,5.6-3.1,8.8,0,0,0,0-.1,0-3.7-1-3.7-1-.1-.1,0,0,0,0,0,0-.5-2.3-.4-4.5.4-6.6.3-.9,1.1-2,2.3-3.4.9-1,1.8-2.1,2.6-3.2Z"/>
    <path class="st1" d="M941.9,23.3c.6.8.7,1.5.3,2-.5.6-1.4.7-2,.2-.2-.1-.3-.3-.4-.5-.3-.7-.2-1.3.3-1.8.6-.2,1.2-.2,1.8,0Z"/>
    <path class="st1" d="M940,30c.3-1.5,1.3-2.6,3-3.5.2-.1.5,0,.6.2,0,0,0,.1,0,.2,0,1.6-.6,3.5-1.6,5.7-.1.3-.3.4-.6.4h-1.7c-.2,0-.4-.2-.4-.4,0,0,0-.1,0-.2.3-.6.6-1.4.8-2.4Z"/>
    <path class="st1" d="M943.6,130.3c0,.4,0,.8-.4,1.2-.6-1.5-.9-3-.9-4.5,0-1.4.4-2.9,1.2-4.2.8-1.3,1.8-3,3-5.1,1.3-2.2,1.8-5.3-1.1-6.3-.3-.1-.4,0-.4.3l.6,2.5c0,.1,0,.3,0,.4l-1.9,4.6c0,.2-.2.2-.2.2,0,0,0,0,0,0-.1-.1-.2-.2-.2-.3l1-3.6c0-.3,0-.6,0-.9-.8-1.6-1.3-3.4-1.5-5.2,0-.4.2-.6.6-.5.1,0,.2,0,.3.1.1,0,.3,0,.3,0,0,0,0-.2,0-.2-1.8-4.2-3.6-8.5-5.4-12.7-.8-1.9-2.2-3.7-3.2-5.3,0-.1-.2-.2-.4,0l-.3.2c-.2.1-.2.2,0,.4,1.5,1.5,2.3,2.9,2.6,4.1.7,3.6,1.5,7.8,2.3,12.4.8,4.2,1.3,8.4,1.6,12.4.6,8.4.9,14.1,1.1,17.2,0,1-.3,1.1-1,.4l-6-5.6c-.3-.3-.4-.7-.4-1.1.7-21.6,1-32.6,1.1-33.1,0-2.2-.6-4.3-2-6.4-.7-1.1-1.9-1.7-3.2-1.7h-1.6c-1.3,0-1.5.5-.6,1.4,3,3.3.6,6.6-1.7,9.4-.2.3-.5.4-.9.4l-5.4-.6c-.5,0-.6-.3-.4-.8.1-.3.4-.6.8-.8.4-.3.4-.5,0-.7l-1.1-.5c-.3-.2-.4-.5,0-.9.1-.2.6-.3,1.3-.3.3,0,.4-.2.2-.4-.6-.7-1.4-1.2-2.3-1.3-1.3-.2-2.1-.4-2.2-.5-1.8-1.7-1.5-2.3.9-1.9.4,0,.9.5,1.6,1.3.2.3.5.4.9.4l3.4-.3c.4,0,.4-.1,0-.3l-6.3-2.7c-.8-.3-1.3-1-1.2-1.7,0-.2.4-.4,1.1-.6.3,0,.4-.3.3-.6l-1.4-5.9c0-.3,0-.6.3-.8l10.3-7c.2-.1.5,0,.6.1,0,0,0,.1,0,.2.2,2.6.2,4.3,1.2,6.5.9,2,1.8,3.9,2.6,5.5,1.2,2.4,2,2.3,2.6-.3,0-.4,0-1.1-.2-2.2-.2-.8-.2-1.6-.2-2.2,0-3.3,0-6.4,0-9.2,0-.3,0-.7-.3-.9l-5.8-8.5c0,0-.1,0-.2,0l-.2.2c0,0,0,.1,0,.2l4.5,6.7c.8,1.2.6,1.4-.6.7l-6-3.7c-.3-.2-.7,0-.8.2,0,0,0,.1,0,.2-.7,2.5-1,4.3-.8,5.3.2.9-.1,1.6-.9,2.1l-6.4,3.7c-.8.5-1.1.2-.9-.7.7-2.9,1.3-5.3,1.8-7.2.3-1,0-2.1-.6-3.3-.2-.3-.4-.5-.8-.6-.9-.2-1.6-.5-2-.9-1-.9-.9-1.1.4-.8.1,0,.5.2,1.1.6,0,0,.2,0,.3,0h0c.1-.1,0-.2-.1-.3-.8-.3-1.4-.9-1.6-1.6-.1-.4,0-.7.5-.7h.5c.3,0,.5-.1.7-.4.3-.5.4-1.1.3-1.8,0-.2-.2-.4-.4-.4-.5,0-1.4.2-2.6.6-.3.1-.5.4-.4.7.1,1.1.1,1.9,0,2.4-.1.3-.3.5-.7.6-1.6.5-2.7.2-3.5-1-.3-.5-.5-.6-.6,0,0,.5-.3.7-.8.6-.1,0-.2,0-.3-.2-.5-.6-1.2-1-2-1-.4,0-.7-.4-.6-.7,0,0,0,0,0,0l.3-2.7c0-.5.3-.6.7-.4.6.3,1.1.7,1.5,1.2.2.2.3.2.6.1,0,0,.2-.1.2-.2,0-.1,0-.2,0-.3-.3-.5-.4-.8-.4-1,0-.3.2-.4.5-.2.3.3.8.4,1.2.3.4,0,.5,0,.5.5,0,.1,0,.2,0,.3,0,.3.1.5.4.6,1.1.6,1.9,0,2.4-1.5,0,0,0,0,.2,0,0,0,0,0,0,0l.3.5c.2.3.4.4.7.3,1.4-.3,2.5-1.3,3.3-2.8.2-.3,0-.5-.3-.4-1.3.3-2.1.4-2.2.5-1.2.7-2.2.5-3-.5-.2-.3-.1-.4.2-.3,1.8.4,3.6,0,5.6-1.2.4-.2.6-.1.6.3,0,.3,0,.5-.3.8-.2.3-.2.5,0,.7,2,1.6,2.6,7.3,2.5,8.7-.3,2.7-.5,4.6-.4,5.7.1,3.7.7,3.8,1.9.3.3-.9,1.2-2.7,2.5-5.2.2-.3.2-.6.2-.9,0-.8,0-1.5.4-2,.8-1.3,1-4.1,1.3-5.3,0-.3,0-.6,0-1-.3-.9-.2-1.8.1-2.8,1.1-2.9,1.6-5,1.7-6.5,0-2.1.2-3.7.3-4.6.4-2.4.8-2.4,1.2,0,1.1,5.7,1.2,10.9.4,15.8,0,.3,0,.6.2.9.8,1.5,1.4,2.8,1.7,4,.9,3.4,2.4,5.3,4.9,9.5,1,1.7,1.2,3.8.7,6.4-.6,3.2-1.2,5.8-1.9,7.8-.1.3,0,.5.4.6,1.5.1,3.3.3,5.4.5.6,0,1.3.6,2.1,1.6,1.2,1.6,2.5,2.9,3.9,3.8.3.2.4.1.5-.2.2-.8,0-1.5-.4-2-2.5-2.9-3.9-4.6-4.1-5.1-2.3-5.6-6-14.5-11.1-26.8-.1-.3-.2-.6-.1-1,.3-1.8.8-3.8,1.5-6,.4-1.5.6-3.1.4-4.8-.3-2.3-.7-6.1-1.4-11.3-.2-1.9-.3-3.2,0-4,.6-2.6.8-2.6.7,0,0,2.3.4,4.8,1.3,7.6,0,.1.2.2.3.1h.2c0,0,0,0,0-.1,0,0,0,0,0,0-1-2.8-1-5.7-.3-8.5.1-.5.2-.5.3,0,.3,1.2.3,2.5.1,4,0,0,0,.1,0,.2l.4.2c.2.1.2,0,.2-.1v-6.2c0-.4.2-.5.5-.4l2.2,1c.3.1.4.4.3.7,0,0,0,0,0,0-1.5,2.2-2.2,4.4-2.3,6.5,0,2.7.3,6.1,1.2,10.2,0,.3,0,.6,0,.9-.1.4-1,3-2.6,8-.2.7-.3,2-.3,3.9,0,1.1.3,2.4.8,3.7,1.5,3.9,3,7.1,4.4,9.8,1.6,3.1,2,5.4,3,8.6.5,1.7,1.3,3.1,2.2,4,1.1,1,1.7,1.8,2,2.2,0,.1.6,1,1.6,2.6.2.3.4.5.7.7,1,.5,1.7,1.6,2.3,3.2,1.3,3.7,2,6.8,2.1,9.4,0,.2,0,.3-.3.3h-.4c-.2,0-.3,0-.4-.2-.1-.5-.2-.9,0-1.1,0-.2,0-.4-.2-.6-1.4-1.3-2.6-3.2-3.5-5.4-.2-.5-.4-.5-.5,0-.3,1.9-.2,3.8.4,5.7.3.8.8,2.7,1.7,5.7.6,2.1.9,4.1.7,5.8-.3,2.5-.6,5.1-1,7.9,0,.2-.1.3-.3.3h-.5c-.2,0-.4-.2-.4-.4,0,0,0,0,0,0l.5-4.6c.1-1.1-.1-1.1-.7-.2-.9,1.4-1.9,3-3.2,4.9-1,1.5-1.2,3.9-.5,7.1ZM915.7,58.7c-.3.6-.1,1.2.5,1.7.3.2.5.2.6-.2,0-.2-.1-.7-.4-1.4-.2-.4-.4-.4-.6,0ZM917,64.5c0,0,.2-.6.2-1.3h0c0-.7,0-1.3,0-1.3h0c0,0-.2.6-.2,1.3h0c0,.7,0,1.3,0,1.3h0ZM916.3,66.2c-.1.2-.2.4-.2.6,0,.2.1.3.3.2.3-.2.5-.4.4-.5-.2-.4-.4-.5-.5-.2ZM920.7,87.2l-1.2-2.1c-.1-.2-.3-.3-.6-.3-.6.1-1,.4-1,.9,0,3.2,1.7,4.7,4.8,4.4.3,0,.5-.2.6-.5.1-.5,0-1-.5-1.5-.3-.3-.6-.4-.8-.5-.2,0-.4,0-.6,0-.3,0-.5-.2-.7-.5ZM925.3,86.9c.3.5.7.8,1.1,1,.4.2.5,0,.3-.3-.2-.4-.6-.7-1.1-1-.6-.4-.7-.3-.3.3ZM933.5,90c0,.1,0,.2.2.3.3.3.6.2.7-.1,0-.1,0-.3,0-.4-.7-.7-.9-.6-.8.2ZM935.4,90.2c3.2,2.2,5.4,4.6,6.5,7.2.5,1.1,1.8,4.5,4,10,.9,2.2,1.1,2.2.8-.2-.4-3-1.2-6.6-2.4-10.9-.2-.7-.5-1.3-.9-1.9-1.6-2.2-5.1-3.4-7.4-4.7-.2,0-.3,0-.4.1l-.2.3c0,0,0,.1,0,.2ZM923.1,98.9c.7-.3.9-.4,1.6-.5.6-.1.6-.3,0-.4-.7-.2-1.3-.2-1.9,0-.2,0-.3.2-.4.4,0,.1,0,.2,0,.2,0,.4.3.5.7.3Z"/>
    <path class="st1" d="M911.9,52.2c.2.2.4.2.5,0v-.2c.1,0,.1,0,0-.1-1.4-1.3-3-2-4.8-2.2-1.1-.1-1.2-.5-.3-1.2.5-.4,1.2-.6,2-.8,1.1-.2,1.2-.5.2-1l-1.4-.7c-.3-.2-.4-.5-.3-.9l1.5-3.5c.2-.4.4-.6.8-.7l.5-.2c.3-.1.6-.3.7-.7l1.8-4.2c.2-.5,0-1.2-.5-1.4,0,0-.2,0-.3,0l-3.6-.6c-.4,0-.7,0-1.1.2-.6.4-1.3.5-1.9.3-.4-.1-.4-.3,0-.5,6.2-2.6,10.8-1.2,13.8,4.1.9,1.5.7,2.7-.7,3.4-.3.2-.6.2-.9,0-.4-.3-.7-.9-.7-1.7,0-1.3-.3-1.3-.7-.1-.1.4.1,1,.6,1.8.2.3.3.6.3,1v3.7c0,.4-.2.6-.5.7l-1.3.4c-.4.1-.6.5-.5.9,0,0,0,.2.1.2l1.7,2.1c.1.1.1.3,0,.5l-1.8,2.9c-.2.4-.5.5-1,.5h-5.2c-.3,0-.6-.1-.8-.4l-1.1-1.5c-.2-.2-.2-.4,0-.6,1.6-1.3,3.2-1.1,4.7.4ZM913.8,42.6c-.9-.2-1-.5-.3-.9l.4-.2c.3-.2.3-.3,0-.3h-2.5c-.5,0-.9.4-.9.9,0,.2,0,.3.1.5l.8,1.4c.3.5.6.6,1.1.4l2.4-.9c.3-.1.3-.3,0-.4-.4-.2-.8-.4-1.1-.5ZM913.3,49.3c.2-.2,0-1-.7-2,0,0,0,0,0,0-.6-.9-1.3-1.6-1.5-1.4-.2.2,0,1,.7,2,0,0,0,0,0,0,.6.9,1.3,1.6,1.5,1.4h0ZM909.3,52.1c0-.3-.2-.5-.5-.5s-.5.2-.5.5h0c0,.3.2.5.5.5h0c.3,0,.5-.2.5-.5Z"/>
    <path class="st1" d="M937.9,40.2c-.6-1.4-.9-2.6-1-3.4,0-.5.1-.5.5-.2.5.5.9.8,1.2.9.3,0,.6,0,.7-.4.5-1.4,1-2.4,1.5-3,.4-.4.6-.3.6.2.1,2.3-.3,4.5-1.2,6.5-.1.3-.2.6-.1.9.3,1.3.3,2.5,0,3.8-.3,1.1-.6,1.1-.9,0-.3-1.3-1-2.2-1.9-2.9-.3-.2-.5-.4-.6-.6-.1-.4-.2-.7-.1-.9,0-.4.3-.6.7-.4h.3c.4.2.5,0,.3-.3Z"/>
    <path class="st1" d="M877,38.1c-.2-1.1-1.2-2.2-2.2-2.8-.1,0-.2-.3-.1-.4,0,0,0,0,0,0l.2-.2c0,0,.1,0,.2,0,1.2,1,2.2,2.2,3,3.5,1,1.7.8,2.1-.8,1.2,0,0-.2-.5-.4-1.2Z"/>
    <path class="st1" d="M902.8,65.9c-.1-1-.3-1-.4,0-.5,3.8-1.3,10.8-2.5,21.1-.2,1.3.2,3.2,1,5.6.1.3.3.5.6.6l2.6.7c.3,0,.6.3.6.7.5,2,0,3.6-1.5,4.9-.2.2-.3.5-.1.7l.4.7c.2.3.2.5.2.8-.9,5.2-.9,7.4-2.9,10.6-.2.4-.4.3-.7,0l-1.9-3.4c-.2-.3-.4-.4-.7-.4h-3.2c-1.2,0-2.2-1.1-2.1-2.3,0-.3,0-.7.3-1l7.5-14.2c0-.1,0-.2,0-.3l-.3-.2c0,0-.2,0-.2,0l-32.5,61.3c-.5,1-1.4,1.4-2.5,1l-1.3-.4c-1.3-.4-1.5-1.1-.8-2.2,5-7.5,8.7-12.9,12.6-19.6,6.9-11.8,13.8-23.5,20.8-35.3.5-.9.8-1.8.9-2.6.1-1.5.3-2.5-.3-3.7-.8-1.7-1.4-3.3-1.9-5-.1-.3-.1-.6,0-.9l5.3-18.7c0,0,0-.1,0-.2l-.2-.4c-.1-.2-.2-.2-.3,0-2.2,4.7-4.6,9.4-7,14-.2.3-.4.5-.6.6-.2,0-.5,0-.5-.2,0,0,0-.1,0-.2,0-3.6.2-7.2.3-10.8,0-.2,0-.3-.1-.4,0,0-.2,0-.3,0-.1,0-.2,0-.2.2l-1.3,3.5c-.3.7-.4.7-.5,0-.2-1.6-.2-3.1,0-4.5,0-.3,0-.7-.2-.9l-3.6-6.3c0,0,0,0-.1,0,0,0,0,0,0,0l-.2.2c-.1,0-.2.2,0,.3.4.6.7,1.2.8,1.9,0,.6,0,.6-.4.2-.7-.9-1-2-1-3.3,0-.6-.1-.7-.4-.1l-2.4,4.5c0,.2-.1.3,0,.5.3,1.1.3,2.2,0,3.1,0,.4-.2.4-.5.1-.5-.7-.7-1.3-.6-1.9.1-.9.6-2.7,1.5-5.4,0-.2,0-.4-.1-.6l-.3-.3c0-.1-.2-.1-.2,0l-2.2,3.7c-.3.5-.5.4-.5-.2,0-.2.3-1,1-2.3.7-1.3,1-2.6.8-3.9,0-.5-.5-.8-.9-.7,0,0-.1,0-.2,0-2.4,1-4.4.6-6-1.1-.2-.3-.5-.4-.9-.5-.5,0-.7-.4-.6-1.1,0-.1.1-.2.3-.2,0,0,0,0,.1,0,2.7,2.4,5.3,2.3,7.9-.3.1-.1.1-.2,0-.4-.1-.2-.3-.2-.5-.1-2.1,1.2-4.2,1.3-6.2.2-1-.6-1.6-1.3-1.7-2.3,0-.6,0-.6.4-.1,1.2,1.9,3.1,2.5,5.8,1.8,2.3-.6,3.5-2.1,3.7-4.7,0,0,0-.2-.1-.2h-.3c0,0,0,0,0,0l-.7,1.9c-.1.3-.3.5-.7.5-1.2,0-2.1-.3-2.7-.9-.2-.2-.4-.3-.7-.3l-2.2.2c-.9,0-1.7-.5-1.9-1.4l-.8-3.4c0-.3,0-.5.4-.6.6,0,1.2,0,1.7.5.2.1.2.4,0,.5,0,0,0,0,0,0l-.3.2c-.2.2-.2.3,0,.5l1.7.7c.3.1.6.1.9,0,.7-.2,1.3-.2,2,.2.5.3.6.1.4-.4l-.9-1.8c-.1-.3,0-.6.2-.8.4-.5.9-.8,1.5-1.1.2-.1.5,0,.6.2,0,0,0,.2,0,.3-.2,1.1,0,1.7.8,1.7.4,0,.7.2.8.6,1.2,2.6,1.3,5.2,0,7.9,0,0,0,0,0,0l.2.2c.1.1.2.1.2,0,0-.5.2-.8.5-1.1.3-.3.5-.2.7.1l1.6,2.8c.2.3.5.5.8.5h.8c.3,0,.5.1.6.4l2.3,4c0,0,.1.1.2,0,0,0,0,0,0-.1,0-1.3-.4-2.5-1.2-3.8-.2-.4-.2-.5.3-.3l4.6,2.2c.3.2.5.4.7.7.4,1,.9,1.8,1.4,2.5.4.5.5.5.4-.2l-.4-1.6c-.2-.8.1-1.2,1-1,2.6.5,4,1.7,4.1,3.7,0,.7.2.7.3,0l.2-1.1c0-.3.3-.5.7-.5.3,0,.5.1.8.3.2.2.3.4.4.8.2,1.9.5,3.5.8,4.8,0,.3.2.4.5.4h4.8c.4.1.7.3.7.8l1.4,11.9c0,0,0,.1,0,.1h.2c.2.2.2.2.2,0l-1.1-11.6c0-.3.2-.6.5-.6.1,0,.2,0,.3,0l4,2.1c.4.2.5.5.3.8l-2.9,6.7c0,.1,0,.2,0,.3h0c.1,0,.2,0,.3-.1l2.9-6c0-.1.2-.2.3-.1,0,0,0,0,0,0l.3.2s0,0,0,.2l-2.2,9.4c0,.3-.3.6-.5.8l-2.5,2c-.3.2-.6.2-.9,0l-6.2-6.2c-.2-.2-.4-.5-.3-.9.3-2.8.2-5.6-.2-8.6ZM876.1,46c.2,0,.2.1.3.2.2.3.5.4.8.3.1,0,.2-.1.3-.2.2-.2,0-.4-.2-.4-.5,0-.8-.2-1-.3-1-.9-1.8-1.3-3.1-.6-.4.2-.4.4,0,.6,1.3.6,2.2.8,2.7.5,0,0,.1,0,.2,0Z"/>
    <path class="st1" d="M875.1,61.8c-.7,1.1-.7,2.2-.8,3.1,0,.7-.3.7-.7.1-2.2-3.6-3.2-7.3-3.1-11.1,0-.8.3-.9.8-.3.7.8,1.9,1.5,3.4,2.1.3.1.5.3.6.7.7,2.3.6,4.1-.2,5.4Z"/>
    <path class="st1" d="M900.3,56.8l-.4.8c-.1.3-.4.4-.7.2l-.4-.2c-.4-.2-.4-.5,0-.8.4-.3.7-.5,1.1-.6.2,0,.4,0,.4.3,0,0,0,.2,0,.2Z"/>
    <path class="st1" d="M946.2,83c0,0,0,.2,0,.2l-.2.2c0,0-.1,0-.1,0-1.8-3.1-3.6-6.1-5.5-8.9-1.7-2.5-2.5-4.5-2.5-6,0-2.1.5-4.2,1.1-6.3.2-.5.3-.5.5,0l6.8,20.8Z"/>
    <path class="st1" d="M902.5,75.7c1.5,2.7,3.4,4.7,5.5,5.9.3.2.4.4.3.7-.4,1.5-.9,2.4-1.6,2.7-2,1-3.5,2.4-4.4,4.2-.1.3-.5.4-.7.2-.1,0-.2-.1-.2-.3-.5-1.3-.9-2.4-.6-4,.6-3,1-6,1.1-9.1,0-.1,0-.2.2-.3,0,0,.2-.1.2-.1.1,0,.2,0,.2.1Z"/>
    <path class="st1" d="M931.1,92.8c-.3-.6-.5-1-.5-1-.8-1.1-.5-1.4.8-.8,3.1,1.2,3.4,3.5,2.8,6.7-.4,2-.9,3.8-1.3,5.6-.1.5-.5,1-1,1.2l-.7.4c-.6.3-.8.2-.6-.5,1.1-4.1,2.5-7.6.6-11.7Z"/>
    <rect class="st1" x="924" y="101.4" width="1.2" height="9.9" rx=".6" ry=".6" transform="translate(53.6 434.4) rotate(-27.2)"/>
    <path class="st1" d="M905.9,107c1.1,1.7,1.9,2.8,2.6,3.3,1.1.8,1.2,2.3.4,3.4-.3.4-.7.7-1.2.8-.6.2-1.4,0-2.5-.7-.7-.4-1.2-1.1-1.5-2-.9-2.9-.6-5.9,1-8.8.1-.3.5-.4.7-.2,0,0,0,0,0,0l.3.2c.2,0,.3.3.2.5-.2,1.2-1,2.2-.1,3.5Z"/>
    <path class="st1" d="M922.8,109.6c-.6.6-1.1,1.1-1.4,1.7-.2.3-.3.3-.5,0-1.3-2.4-2-4.7-1.9-7.1,0-.4.2-.6.6-.5.4,0,.8.3,1.1.8.2.3.5.5.8.6.2,0,.5.4,1,1.1,1.1,1.8,1.7,2.9,1.8,3.4,0,.3,0,.6-.2.9l-1.1,1.1c-.1.1-.3.1-.5,0,0,0-.1-.3,0-.4l.7-1.5c.2-.5.1-.5-.3-.2Z"/>
    <path class="st1" d="M917.4,116.8c.4.5,1.1.6,1.7.2l2.4-1.6c.2,0,.4,0,.5,0,0,0,0,0,0,.2l1.8,22.3c0,.2,0,.2,0,0-1.5-4-3.8-6.2-8.5-10.9-.3-.3-.6-.9-.9-2-.2-.7-.2-1.3,0-2.1.6-2.6,1.6-5.7,1.6-8.3,0-2.6,0-5.4,0-8.4,0-.4.1-.8.3-1.2.2-.3.5-.4.8-.2.1,0,.2.2.3.3l2.2,6.7c0,.3,0,.6-.2.8-.6.6-1.3,1.3-2,2.1-.5.5-.4,1.1.1,1.8Z"/>
    <path class="st1" d="M911,108.3c0-.4.3-.7.7-.8l1.7-.4c.2,0,.4,0,.4.3,0,0,0,.1,0,.2l-2.8,10.6c0,.1-.1.2-.2.2h-.3c-.1,0-.2,0-.1-.2l.7-9.8Z"/>
    <path class="st1" d="M891.5,163.1c0,.2-.1.3-.2.4-1.4-9.3-3.2-18.6-3.9-28-.3-3.5-.5-7.1-.8-10.6,0-.3,0-.7.2-.9l4.1-7.8c0-.1.2-.2.4-.1,0,0,.1,0,.1.2,1.2,4.8,2.5,9.2,3.9,13.4.6,1.8.9,3.9.7,6.1-.4,6.3-.6,9.7-.8,10.2-1.4,5.8-2.7,11.5-3.8,17.2Z"/>
    <path class="st1" d="M903,117.3l3-.7c.3,0,.4,0,.4.3-.3,1.8-.7,3.9-1.3,6.4-.2.9-.5,1.5-.8,1.8-.3.3-.7.3-1,0-.1-.1-.2-.3-.2-.4l-.5-6.7c0-.4.1-.6.5-.7Z"/>
    <path class="st1" d="M897.8,129.6c-1.6-3.8-2.3-7.2-2.2-10.2,0-.4.2-.4.4-.1.8.8,1.1,1.4,1.2,1.7.3,2.9.6,5.9.9,8.8,0,.1,0,.2-.2.2,0,0-.1,0-.2,0,0,0,0,0,0,0,0-.1,0-.2,0-.3Z"/>
    <path class="st1" d="M912.7,131.8l-1.8,11.4c0,0,0,.1-.1.1h-.3c-.1,0-.2,0-.2-.1v-14.3c0-.5.2-.6.5-.2l1.6,2.1c.2.3.3.6.3,1Z"/>
    <path class="st1" d="M922.2,140.6c-1.3,1-1,1.5.8,1.5h2.6c.4,0,.7.2.9.6,1.5,2.4,2.3,4.6,2.3,6.8,0,3.8.5,7.5,1.4,11.1,0,.3,0,.5-.4.4-2.6-.6-5-.7-7-.4-4.2.6-7.5,1-9.9,1.3-.7,0-1.4-.5-1.4-1.2,0-.1,0-.2,0-.3l4.2-27.2c.4-2.5.7-2.5,1,0,.2,1.6.3,3.5.2,5.9,0,1.1.8,2.1,1.8,2.2.3,0,.6,0,.9-.2.3-.2.7-.5,1.2-1.1.2-.3.3-.6.1-.9l-2.2-4.6c-1.3-2.7-.8-3.1,1.5-1.2.5.4,1.3,1.9,2.4,4.6.2.5.2.9.1,1.4-.2.8-.3,1.3-.5,1.4Z"/>
    <path class="st1" d="M936.4,139.8c.2,2.6.2,5.2,0,7.6,0,.6-.2.6-.4,0-.6-1.5-1.4-2.9-2.4-4.1-.3-.3-.2-.8,0-1.1l2.6-2.6c0,0,.2,0,.2,0,0,0,0,0,0,.1Z"/>
    <path class="st1" d="M926.4,201.6c-3.5-.1-6.7-1.4-9.5-3.9-.2-.2-.4-.5-.4-.9.4-6.8.9-15.7,1.6-26.8,0-1.3,0-2.2-.4-2.8-.3-.6-1-1.5-2-2.7-.4-.5-.4-1.2.1-1.7.1-.1.3-.2.4-.2l2.1-.7c.5-.2.9-.1,1.4.1l4.4,2.3c.2,0,.3.2.3.4.5,2.2,1.2,5.5,2.2,9.9.5,2,.6,3.7.5,5.1-.2,2.1-.6,4.5,0,6.8,1.3,4.3,2.9,9.7,4.7,16.4.2.8.8,1.2,1.7,1.3.4,0,.6-.1.7-.5l2.4-15.8c0-.5-.2-.9-.6-1.1-1.3-.5-2-1.5-2.2-3.1-.7-4.4-1.5-8.7-2.4-13-.7-3.2-.6-6.3-.5-9.3,0-.7-.2-1.9-.5-3.7-.7-3.6-1-7.2-.8-10.8,0-.4.2-.5.4,0,1.8,3,2.5,6,2,9,0,.5,0,.6.4.2l1.7-1.7c.4-.4.6-.3.6.3-.1,3.6-.2,7.9.8,11.7,2.6,9.9,3.9,14.9,3.9,15,.4,1.2.4,2.5,0,3.9-1.2,3.4-2.7,10-4.6,19.7,0,.4,0,.7.4,1l2.4,2c.6.5.7,1.4.2,2-.2.2-.4.4-.6.4-.3,0-.7,0-1.4-.1-1.4-.4-3.3-1.1-5.7-2.1-.4-.2-.7,0-1,.2,0,0-.2.1-.3.1-.1,0-.2,0-.2,0l-1.5-3.9c-.2-.4-.5-.7-.9-.8l-1-.3c-.5-.2-.6-.4-.1-.6l1.3-.7c.5-.3.4-.4-.1-.4ZM920.1,186.1c-.2,5.3-.2,8.9-.2,10.8,0,.3.2.5.5.5l3.2.4c.5,0,.7-.2.6-.6-.1-.9-.5-2.1-1-3.4-.4-1.1-.6-2.2-.7-3.3,0-1.4,0-3.9,0-7.4,0-.9-.5-2.5-1.5-4.8-.1-.3-.3-.3-.4,0-.4,1.1.7,3.7,0,5.6-.3.8-.5,1.6-.5,2.1ZM930.5,207.2c0,.1,0,.2.1.2.2,0,.4,0,.5,0,.1,0,.1-.3,0-.4,0,0,0,0-.2-.1-.2,0-.3,0-.5.3Z"/>
    <path class="st1" d="M887.4,183.7v-.2c.3-2.1.2-4.2-.3-6.3,0-.2-.2-.3-.4-.2,0,0-.2,0-.2,0,0-.4-.4-.6-1-.7.5-2.1.6-4.4.4-6.9-.3-3.2-.5-5.5-.5-6.8,0-2.9-.2-5.2-.4-7-.1-1-.1-1.9,0-2.7.4-1.8.7-2.6.7-2.7.2-.8.5-.8.8,0,.3.7.8,2.1,1.5,4.4.5,1.4.7,2.9.7,4.5-.2,7.5-.4,14.9-.4,22.4,0,.9-.3,1.6-.9,2Z"/>
    <path class="st1" d="M890.3,187.1c1.2,2.4,2.4,4.7,3.7,6.8.8,1.3,1.2,2.4,1.2,3.3,0,1.4,0,2.6-.3,3.6-.3,1.5-.8,1.6-1.3,0l-4.8-13.2,1.4-.6Z"/>
  </g>
  <path class="st2" d="M521.6,217.4c-1.2.8-2.9,2.1-5.2,3.7-.4.3-.8.4-1.3.3-.3,0-.4-.3-.4-.5,0,0,0-.2,0-.2l2.7-3.6c.2-.2.5-.4.8-.4h3.1c.8,0,.8.2.2.7Z"/>
  <path class="st2" d="M434.1,230v-5.6c0-.3-.1-.6-.3-.9-.3-.3-.9-.5-1.8-.6-.3,0-.5-.3-.5-.6v-.4c0-.4.2-.6.6-.6h6.2c.3,0,.5.2.5.5v22c0,.3.1.6.5.7l1.8.8c.2.1.3.3.3.5v.3c0,.3-.1.4-.4.4h-6.3c-.4,0-.5-.2-.5-.6v-1.7c0-.1-.1-.3-.3-.3,0,0-.1,0-.2,0-2.3,2.5-4.8,3.3-7.3,2.5-9.1-2.9-5-24,7.3-16.5.3.2.4,0,.4-.2ZM434.3,234.5c0-1.9-1.5-3.5-3.4-3.6h-.4c-1.9,0-3.5,1.4-3.6,3.4h0s-.2,5.9-.2,5.9c0,1.9,1.5,3.5,3.4,3.6h.4c1.9,0,3.5-1.4,3.6-3.4h0s.2-5.9.2-5.9Z"/>
  <path class="st2" d="M508.6,244.8c.5.1.7.2.8.2,1.6.9,1.5,1.4-.3,1.4h-5c-.4,0-.6-.1-.6-.5v-.3c0-.5.2-.7.7-.7.9,0,1.4-.3,1.7-.8,4.9-10.1,8.2-16.9,9.9-20.5.3-.6,1-.8,1.6-.5.2.1.4.3.5.5,3.6,7.3,6.7,13.8,9.5,19.3.5.9,1.1,1.5,1.6,2.2.2.4.1.9-.2,1.1-.1,0-.3.1-.4.1h-7.5c-.5,0-.7-.2-.7-.7v-.3c0-.2.2-.4.4-.5l1.7-.4c.3,0,.5-.4.5-.8,0,0,0-.1,0-.2l-2.3-3.9c-.1-.2-.3-.3-.6-.3h-9.1c-.4,0-.7.2-.9.6l-1.7,3.9c-.2.5,0,.8.4.9ZM511.1,237.4c0,.2,0,.4.2.5,0,0,.1,0,.2,0h7.6c.2,0,.4-.2.4-.4,0,0,0-.1,0-.2l-3.8-7.8c0-.2-.3-.2-.5-.2,0,0-.1,0-.2.2l-3.8,7.9Z"/>
  <path class="st2" d="M473.5,225.3l-1.8-.8c-.2,0-.2-.2-.2-.4v-.4c0-.3.1-.4.4-.4h8.3c.3,0,.6.2.6.6,0,.2,0,.4,0,.5,0,.1-.2.3-.4.4-.8.5-1.2,1-1.2,1.6,0,8.1,0,12.8,0,14.1-.4,6.5-6.4,6.9-11.4,6-.4,0-.6-.3-.6-.7v-2.9c0-.4.2-.6.6-.7.6,0,1.1,0,1.5,0,.4,0,.5.3.5.7v.7c0,.4.1.8.5,1.1,1.2,1.2,3.2.5,3.7-1.1.2-.6.3-1.3.3-2.1,0-6,0-11.1,0-15.4,0-.4-.2-.7-.5-.8Z"/>
  <path class="st2" d="M499.5,225.2c-.4-.3-.9-.4-1.5-.4-.4,0-.7-.3-.7-.6v-.5c0-.2.2-.4.4-.4h6.7c.4,0,.5.2.5.5v.4c0,.3-.2.5-.5.6-.6,0-1.1.2-1.6.4-.3.1-.5.4-.5.8,0,6.9,0,11.3-.1,13.2-.3,7.3-7.4,9-13.2,7.2-3.4-1-5.2-3.4-5.5-7.1-.2-2-.2-6.3-.2-12.7,0-.7-.3-1.1-.9-1.5-.4-.3-.7-.5-.8-.6,0-.2,0-.4,0-.6.1-.3.3-.5.7-.5h8.3c.3,0,.5.2.5.5v.3c0,.3-.2.5-.5.6l-1.6.4c-.4,0-.5.3-.5.7,0,5,0,9.6,0,14,0,2.1.9,4.6,3.2,5.3,4.3,1.4,7.8-.9,8.1-5.8.2-4.2.2-8.6,0-13,0-.6-.1-.9-.4-1.1Z"/>
  <path class="st2" d="M537.3,244.8c.7.2,1.2.4,1.3.6.2.3.1.8-.2,1,0,0-.2,0-.3,0h-7.1c-.3,0-.6-.1-.7-.4,0-.2,0-.4,0-.6,0-.2.2-.4.3-.5.2-.2.4-.3.6-.5.3-.3.4-.6.4-1v-17.6c0-.4-.2-.6-.5-.7l-1.7-.5c-.3,0-.5-.3-.4-.6v-.4c0-.2.2-.4.5-.4,5.1,0,9,0,11.8,0,2.8,0,6,1.2,6.7,4.3.8,3.7-.7,6.1-3.8,7.8-.4.2-.5.5-.2.9l7.2,9.1c.6.8.4,1.1-.6,1.1h-3.9c-.8,0-1.4-.3-1.9-1l-5-7.4c-2-3-3.1-2.7-3.2.9,0,1,0,2.7.3,5.1,0,.4.2.6.6.7ZM536.5,225.2v9.1c0,.2.2.4.4.4h1.2c2.7,0,4.8-2.1,4.8-4.7v-.5c0-2.6-2.2-4.7-4.8-4.7h-1.2c-.2,0-.4.2-.4.4,0,0,0,0,0,0Z"/>
  <path class="st2" d="M560.1,235c-.8,0-1.2.4-1.2,1.2v7.2c0,.9.5,1.4,1.4,1.4h6.3c.4,0,.6-.2.6-.6v-1.4c0-.4.3-.7.7-.7h1.1c.4,0,.8.3.8.8v3c0,.4-.3.7-.7.7-5.7,0-11,0-15.6,0-.5,0-.7-.1-.8-.3,0-.1-.1-.3-.2-.5,0-.3.1-.6.4-.8.6-.5,1-.9,1-1.2,0-6,0-11.4,0-16.2,0-1.7-.6-2.6-1.9-2.6-.4,0-.6-.2-.7-.5v-.3c-.2-.5,0-.7.5-.7h16.6c.4,0,.6.2.6.6v3c0,.4-.2.6-.6.6h-1.2c-.4,0-.6-.2-.6-.6,0-.7-.2-1.2-.4-1.6-.2-.3-.5-.4-.8-.4h-5.2c-.9,0-1.3.4-1.3,1.3v6.3c0,.8.4,1.2,1.2,1.2h4.1c.4,0,.6-.2.6-.6v-.5c0-.3.2-.6.5-.7.3-.1.5-.2.8-.1s.5.2.5.6c0,2.4,0,3.7,0,3.9-.1.6-.5.8-1.3.7-.3,0-.5-.2-.5-.5l-.2-.8c0-.4-.4-.6-.8-.6h-3.8Z"/>
  <path class="st2" d="M581.9,225h-7.2c-.4,0-.6.2-.8.5-.2.3-.3.9-.3,1.9,0,.4-.3.7-.6.7,0,0,0,0,0,0h-1.1c-.5,0-.8-.3-.8-.8v-3.5c0-.4.2-.6.6-.6h15.5c.6,0,1.1.5,1.1,1.1,0,.2,0,.4-.2.6l-12.1,19.5c0,0,0,.2,0,.3,0,0,0,0,.1,0h8.5c.4,0,.7-.2.8-.6.1-.5.2-1.1.1-1.8,0-.5.2-.7.6-.7h1.3c.3,0,.6.3.6.6h0v3.7c0,.3-.2.5-.5.5h-17c-.4,0-.6-.2-.6-.5,0-.5,0-1,.4-1.6,1.2-2.1,5.1-8.4,11.6-18.8.2-.3.1-.4-.2-.4Z"/>
  <path class="st2" d="M446.1,238.7c.3,6.3,5.2,6.6,10.3,5.2.4-.1.7,0,.7.5v.7c0,.5-.2.8-.7,1-2.9,1-5.8,1.1-8.5.5-6.6-1.5-8.3-9.4-5-14.5,2.3-3.4,7.8-4.4,11.2-2.1,1.8,1.2,2.8,3.6,2.9,7.1,0,.6-.2.9-.8.9h-9.5c-.4,0-.6.2-.6.6ZM446.7,236.4l5.2.2c.3,0,.5-.2.5-.4v-1.2c.1-2.6-1.1-4.7-2.7-4.8,0,0,0,0,0,0h-.3c-1.6,0-3,2-3.1,4.5v1.2c0,.3.1.5.4.5,0,0,0,0,0,0Z"/>
</svg>