<?xml version="1.0" encoding="UTF-8"?>
<svg xmlns="http://www.w3.org/2000/svg" version="1.1" viewBox="0 0 1200 392.9">
  <!-- Generator: Adobe Illustrator 28.7.1, SVG Export Plug-In . SVG Version: 1.2.0 Build 142)  -->
  <g>
    <g id="Layer_1">
      <path d="M1000.1,40.5c-16.4,0-28.4,13.1-28.4,27.6s11.9,27.7,28.4,27.7,29.1-11.9,29.1-27.7-12.7-27.6-29.1-27.6ZM978.9,300.7h43.2V127.8h-43.2v173ZM591.8,123.5c-52.2,0-94,36.4-94,90.8s41.8,90.8,94,90.8,46.3-7.4,65-25.7l-27.3-27.3c-10.2,10.7-23.2,18.3-42,18.3s-43.6-15.5-46.5-41.1h131.9v-11.9c0-60.2-32.8-94-81.1-94ZM541,197c3.3-24.9,19.1-41.1,44.7-41.1s43.6,15.9,44,41.1h-88.7ZM733.2,176.4c0-13,13.7-18.4,25.2-18.4s25.5,6.1,33.7,17.5l27.5-27.5c-14.2-17.8-37.8-24.6-60.2-24.6-35,0-69.6,17.3-69.6,55.8,0,66,93.3,37.8,93.3,73.5s-16.2,19.8-28.8,19.8c-18.3,0-29.8-9-41-21.2l-27.9,27.9c17.5,19,40.2,25.7,66.4,25.7s74.6-14.4,74.6-55.5c0-67.4-93.3-42.2-93.3-73.1ZM890.4,155.1h-.7v-27.4h-43.2v173h43.2v-92.6c0-9.4,5.8-43.6,46.5-43.6s12.5,1.2,19.1,2.8l1.7-41.4c-5-1.4-10-2.5-15.4-2.5-22.7,0-41.8,11.9-51.2,31.7h0ZM304.9,65.7c-13.5-.4-21.5,1.3-29.4,2.9-2.4-.6-6.9,0-7.1,5.2,0,2.8.9,5,2.7,6.2,1.8,1.3,16.6,12.2,27.5,23.8-5.2.6-10.9,1.5-16.7,2.7-6.5-14-27.4-1.3-41.3-.7-1.6,0-3.2.3-4.8.4-1.5-11.7-2.6-23.9-2.3-32.4,18-10.2,52.7-17.7,76.4-18.1h4.1c3.5-.1,3.7-2.9.5-3.3-29.3-4-54.7,1.9-80.8,12.7-27.2,11.5-61.7,37.8-82.8,87.5-4.9,13.9-24.6,79.9,10.4,136.6,28.4,46,65,67.9,109.8,74.2,44.7,6.2,68.9.8,97.2-11.7,66.1-29.3,116.6-139.5,66.1-219.3-19.9-36.9-72.1-69.2-129.3-66.7ZM279.8,117.3c8.6-2,17.4-3.3,26.2-4.1,7.4,8.7,13.9,18.2,19.4,28.2-8.9,4.3-20.9,7.6-25.7,14.6-2,2.9-2.5,6.8-2.6,11.1-14.7,3.5-29.1,8.3-43.1,14.3-5-14.8-9.4-29.5-12.5-42.7,14.4-13.7,31.2-16,38.2-21.4ZM353.2,293.7c-3.9.4-7.8.9-11.3,1.4-8.6,1.3-19.6,4.2-29.8,8-5.9-9.4-21.7-32.1-29.6-49.3,16-7.9,38.4-14.5,64.1-16,2.1,3.7,4.4,7.3,7.7,10.6,8.4,8.6-4.9,20.9-1.1,45.2h0ZM257.6,192.2c12.4-5.9,25.5-10.8,39.5-14.3,0,3.7-.5,7.2-2,10-2.2,4.1-1.2,15.9,1.5,19.7,8.4,12.2,22.3,5.4,32.8,9.8,4.8,2,8,5.4,10.7,9.3-21.9,1.4-43.4,6.5-63.4,15.7-10.3-21.8-19.1-50.2-19.1-50.2h0ZM266.9,247c-.8.4-1.6.8-2.4,1.2-11.9-3.4-24-6.3-36.2-8.7-11.1-2.3-11.5-1.7-23.9,1.9-1.8.5-3.5,1-5.1,1.5-1.7-4.4-3.4-8.9-4.9-13.4,15.9-12.3,32-22.6,53.5-33.2,5.6,16.6,13.5,38.7,19,50.5ZM275.4,297.3c3.3-8.5,5.8-14.8,6.7-21,6.3,10.6,13.9,22.2,19.7,31.3-9.1,4.4-19.7,11.2-29.7,18.7.7-11.5.9-22.9,3.3-29ZM334.7,134.8c-.1.2-.3.3-.4.4-4.7-8.1-9.8-15.9-15.3-23.4,11.2-.7,24.9,0,37.5,1.2-11.3,4-16.2,13.9-21.7,21.8ZM234.4,146.9c.2-.3.4-.5.6-.8,2.6,13.1,5.7,24,9.8,39.1-15.6,6.9-43.1,23.9-55.3,33-2.2-5.6-4.5-13.5-6.5-21.6,2.8-8.2,8.4-13.9,16.4-14.7,13.6-1.4,25.3-21.7,34.9-35ZM174.3,127.1c14.6-20.4,34.4-40.3,52.5-50.2-.2,4.4,1,17.4,2.4,29.9-6.3.6-12.6,1.4-18.8,2.3-14.7,12.5-26.5,28-34.6,45.4-1.3-11.7-2-21.5-1.5-27.5h0ZM164.8,143.1s.7,11.8,1.3,20.4c0,0-8.7,9.8-13.1,17.7,1.8-16,5.5-24.3,11.9-38ZM249.9,347c-44.9-14.1-78.2-51.9-90.1-91.7-6.9-23.3-9.3-47.7-7.2-71.9.6.1,2.1.8,4.2.2,1.5-1,6.8-4.8,10.6-8.1l.2,1.5c-2.6,9.7-4.1,19.7-4.4,30.1,4.1,4.3,8.9,11.5,14.3,19-3.4,2.6-10.1,7.1-11.6,8.2-4.6,3.2-4.5,8.4-1.3,11.3,1.8,1.6,5.5.9,6.8-.1,4-3.2,7.3-5.7,11.8-8.6,1.7,4.4,3.2,8.3,4.8,12.1-1.9,2.1-3.3,4.8-3.8,8.9-1.5,13,10.9,23.2,21.3,26.2.4.1.7.2,1,.3.6.8,1.1,1.6,1.6,2.5-5.4,4.2-9.1,8.5-11.7,11.8-1.5,1.9-3.1,4.8-1.8,5.3,1.4.6,5.9,0,8-.4,5.2-1,9.2-6.7,12.8-8.8,4.3,5.9,11.3,13.6,18.6,20.9.3,1.3.6,2.7,1,3.9,1.4,4.5,3.3,8.9,5.5,13.3,5.2,2.4,10.7,4.5,16.3,6.2-2.5,2.5-4.8,5.2-6.9,8h0ZM260.9,350.4c1.7-2.3,3.5-5,5.6-7,5.2,3.4,10.8,7.4,15.2,9.9-6.8-.8-14.9-.9-20.8-3ZM295.5,353.9s-17.8-11.8-22.3-16.3c8.9-7.4,23.3-16.2,34.7-21,4.5,7,19.2,27.8,25.1,34.6-10.7,1.9-25.7,3.3-37.5,2.8ZM369.9,337.1c-3.2,2.1-18.5,9-24.5,11-10-11.1-19.1-23-27.1-35.6,9.4-3.9,23.8-7.4,37.2-9.1,1.2,3.8,2.8,7.8,4.9,12.2,2.1,4.2,4.6,7.4,7.2,9.5.9-.6,1.8-1.3,2.8-1.9,0,4.7-.2,9.4-.5,14ZM366.3,98.6c-3-1.9-6.7-1.2-5.2,2.1.6,1.3,2.9,3.5,4.7,5.7-11-3-40.1-5.3-53.9-4-9.1-10.2-19.4-22.5-31.8-30.7,55.5-3.5,105.4,19.5,127.4,46.5-7.3-3.8-23.2-9.3-29.6-10.7-3.5-3.5-7.9-6.4-11.7-8.9h0ZM378.4,332.5c.3-4.5.4-10.2.6-15.5,5.4-4.2,10.5-8.8,15.2-13.8,6.1.7,12.2,1.7,15.8,2.7-8.2,10.4-19.6,19.1-31.7,26.6ZM420.9,291.2c-1.3,2.8-4.8,7.6-7,9.9-3.5-1.4-8.7-2.9-14.1-4.2.9-1,1.8-2,2.7-3.1,3-19.9-3.8-26.3,4.7-44.6l1.9-4.1c4.6,1.3,9,2.7,12.8,4.3.5,6.8.4,30.3-.9,41.8ZM413,236.6c2.2-4.5,4.6-9.3,7.2-14.1.7,6.1,1.2,12,1.5,17.4-2.8-1.2-5.7-2.3-8.6-3.3ZM437.7,249.1l-2.2,8.4c-1.5,5.7-6.6,19.2-9.2,24.7,1-7.4,1.9-26.5,1.6-30.3,1.8.5,5.6-1.6,6.2-3.8.6-2.2-6.3-5.5-6.3-5.5,0-10-.6-20-1.9-30,1.6-2.6,3.2-5,4.8-7.3-.3-5.9-1-11.7-2.1-17.5,1.4.5,2.7.8,3.6.8,3.1,0,3.1-2.1,2.1-3.3-.6-.8-3.6-2.6-7.1-4.7-5.1-22-15.8-42.3-30.9-59.1,5.9,2.2,13.5,5.3,19.5,8.6,4.6,5.7,17.6,18.6,24.6,54.6,6.3,32.5-.7,57.1-2.8,64.3ZM1040.2,130.5v-2.7h13.5v2.7h-5.2v13.2h-3.1v-13.2h-5.2ZM1061,127.8l4.1,11.4,4.1-11.4h4.5v15.9h-2.9v-12.8l-4.4,12.8h-2.5l-4.4-12.8v12.8h-2.9v-15.9h4.5Z"/>
    </g>
  </g>
</svg>