<?xml version="1.0" encoding="utf-8"?>
<!-- Generator: Adobe Illustrator 27.0.1, SVG Export Plug-In . SVG Version: 6.00 Build 0)  -->
<svg version="1.1" id="Layer_1" xmlns="http://www.w3.org/2000/svg" xmlns:xlink="http://www.w3.org/1999/xlink" x="0px" y="0px"
	 viewBox="0 0 1378.4 220" style="enable-background:new 0 0 1378.4 220;" xml:space="preserve">
<style type="text/css">
	.st0{fill:#006BA5;}
	.st1{fill:#A2A4A7;}
</style>
<g>
	<path class="st0" d="M68.7,197.2c-16.6-11.6-27.4-30.8-27.4-52.6c0-54,52.8-61.6,56.1-67.4h2.4v48.2c-20,2.9-35.4,20.1-35.4,40.9
		c0,17.6,12.3,36.2,32.7,39.7c2,0.4,2.7,1,2.7,2.6v6.2c0,1.8-1.3,2.4-4.1,2.1C42,211.9,0,166.7,0,111.8C0,22.1,89,13.9,97.4,0h2.4
		v37.4c0,11.2-4.1,12.9-13.2,16.5c-26.4,10.6-58.3,30.7-58.3,75.3C28.3,158.6,44.6,184.1,68.7,197.2 M142.7,197.2
		c16.6-11.6,27.4-30.8,27.4-52.6c0-54-52.8-61.6-56.1-67.4h-2.4v48.2c20,2.9,35.4,20.1,35.4,40.9c0,17.6-12.3,36.2-32.7,39.7
		c-2,0.4-2.7,1-2.7,2.6v6.2c0,1.8,1.3,2.4,4.1,2.1c53.7-5.1,95.7-50.2,95.7-105.2c0-89.7-89-97.9-97.3-111.8h-2.4v37.4
		c0,11.2,4.1,12.9,13.2,16.5c26.5,10.6,58.3,30.7,58.3,75.3C183.2,158.6,166.8,184.1,142.7,197.2"/>
	<path class="st1" d="M361.5,57.2c-11.5-4.7-23.9-7.3-35.6-7.3c-28.7,0-55.2,19.2-55.2,59.9c0,38.1,22.2,59.1,54.2,59.1
		c10.7,0,19.6-1.6,28.3-4.5v-54.8h12.7v62.8c-13.4,5.1-29.5,7.5-42.9,7.5c-39.2,0-65.7-24.9-65.7-67.9c0-41.6,26.5-73,70.2-73
		c12.3,0,23.9,1.8,36,5.7L361.5,57.2z"/>
	<path class="st1" d="M428.5,87.8c-22.4-3.7-33.1,14.9-33.1,50.1v40.4h-12.5V77h12.7c0,7.1-0.8,17.5-2.6,26.5l0.4,0.2
		c3.8-15.1,14-31,35.6-28.3L428.5,87.8z"/>
	<path class="st1" d="M505.1,178.3c0-6.9,0.6-17.1,1.8-23.4l-0.4-0.2c-5.5,15.5-18.2,25.5-35.6,25.5c-22.8,0-29.7-14.5-29.7-32.6V77
		h12.5v65.8c0,16.9,4.4,26.9,20,26.9c18.6,0,31.7-18.8,31.7-44.2V77h12.4v101.3H505.1z"/>
	<path class="st1" d="M601,124.3c0,31.8-14.2,45-35.8,45c-7.9,0-14.5-0.8-20.6-3v-36.9c0-18.1,9.9-43.6,31.1-43.6
		C593.1,85.7,601,100.2,601,124.3 M614.1,123c0-31.6-13.3-47.7-36.4-47.7c-15.8,0-28.7,9.8-34.2,25.1l-0.4-0.2
		c1.4-6.1,1.8-16.7,1.8-23.2h-12.7v143h12.5v-41.9c7.1,1,12.3,1.2,19.6,1.2C594.3,179.3,614.1,159.7,614.1,123"/>
	<path class="st1" d="M698.6,126.7c0,29.8-15,42.6-31.3,42.6c-20.4,0-31.9-15.5-31.9-42.4c0-28.3,15.4-41.2,31.7-41.2
		C688,85.7,698.6,101.2,698.6,126.7 M711.5,126.1c0-37.7-20-50.7-43-50.7c-29.5,0-46.1,24.3-46.1,52.6c0,35.5,16.6,52,42.7,52
		C694.1,179.9,711.5,155.7,711.5,126.1"/>
	<polygon class="st1" points="748.7,61.5 748.7,94.9 778.9,94.9 778.9,119.6 748.7,119.6 748.7,178.2 722.6,178.2 722.6,38.8 
		802.8,38.8 802.8,61.5 	"/>
	<path class="st1" d="M858.5,126.4c0,20.9-9.6,31.4-22.3,31.4c-14.9,0-22.3-10.8-22.3-31.8c0-21.1,11.2-30.2,22.7-30.2
		C851.7,95.8,858.5,106.6,858.5,126.4 M885,124.9c0-35.3-18.2-51.4-46.5-51.4c-30.3,0-51,23.1-51,55.2c0,36.5,18.3,51.6,46.5,51.6
		C864,180.3,885,157.2,885,124.9"/>
	<path class="st1" d="M949.1,99.3c-18.4-3.9-27.7,8.5-27.7,37v41.9h-25.7V75.6H920c0,5.2-0.6,13.5-1.8,20.7h0.4
		c4.8-13,14.5-24.4,31.7-22.9L949.1,99.3z"/>
	<path class="st1" d="M1083.4,178.2v-65.1c0-10.9-2.4-17.8-11.8-17.8c-11.2,0-22.9,13.6-22.9,33.7v49.2h-25.3v-65.1
		c0-10.1-2-17.8-11.8-17.8c-11.8,0-22.9,14.5-22.9,33.7v49.2h-25.7V75.6h24.3c0,4.8-0.4,12.4-1.4,18.4h0.4
		c6-12.6,18.1-20.7,32.9-20.7c17.6,0,25.1,10.7,27.5,20.7c4.6-10.1,15.6-20.7,32.5-20.7c19.2,0,29.9,11,29.9,34.3v70.7L1083.4,178.2
		L1083.4,178.2z"/>
	<path class="st1" d="M1187.2,178.2c0-4.7,0.2-12.8,1.2-18.2l-0.2-0.2c-6,12.2-17.5,20.7-33.9,20.7c-22.5,0-29.7-14.9-29.7-32.8
		V75.6h25.5v65.7c0,10.8,2.8,17.1,12.4,17.1c13,0,23.1-15.3,23.1-33.2V75.6h25.7v102.7L1187.2,178.2L1187.2,178.2z"/>
	<rect x="1231" y="39" class="st1" width="25.7" height="139.2"/>
	<path class="st1" d="M1325.7,135.3c0,12.4-8.6,24.8-21.3,24.8c-7.4,0-11.8-4.4-11.8-11c0-8.2,6-16.3,33.1-16.3V135.3z M1352,178.2
		c-0.4-8.5-0.6-18.2-0.6-26.4V109c0-22.3-9-35.7-41.1-35.7c-12.9,0-25.7,2.7-35.7,6.4l2.2,22.1c8.4-5,20.4-8.1,29.5-8.1
		c14.5,0,19.4,5.6,19.4,16.3v5.6c-33.9,0-57.6,13-57.6,37.6c0,16.5,10.4,27.1,28.5,27.1c14.8,0,27.1-8,31.9-19.6l0.2,0.2
		c-0.8,5.4-1,11.4-1,17.3L1352,178.2L1352,178.2z"/>
	<polygon class="st1" points="877.2,52.3 843.5,68.1 837.9,60.8 867,38.8 	"/>
</g>
</svg>
