<svg xmlns="http://www.w3.org/2000/svg" xmlns:xlink="http://www.w3.org/1999/xlink" viewBox="0 0 423.13 72.73"><defs><style>.cls-1{fill:none;}.cls-2{clip-path:url(#clip-path);}.cls-3{fill:#fff;}.cls-4{fill:#272425;}.cls-5{fill:#cfd1d2;}.cls-6{fill:#cb2228;}</style><clipPath id="clip-path" transform="translate(-39.79 -14.99)"><rect class="cls-1" width="506" height="101.2"/></clipPath></defs><title>logo</title><g id="Capa_2" data-name="Capa 2"><g id="Capa_1-2" data-name="Capa 1"><g class="cls-2"><path class="cls-3" d="M438.15,70c17.12,0,24-12.41,24-29.06,0-14.93-6.67-25.92-22-25.92-17.2,0-24,12.41-24,29.06,0,14.92,6.6,25.92,22,25.92m1.17-.79c-7.38,0-10.21-10.84-10.21-27.49,0-15.63,2.83-25.92,10.21-25.92,7.54,0,9.82,10.84,9.82,27.49,0,15.63-2.28,25.92-9.82,25.92m-54.11,0c17.12,0,24.35-11.62,24.35-28.27,0-14.93-7.07-25.14-22.39-25.14H364v.79l3.54.78V67.61L364,68.4v.78Zm-5.5-.78V16.56h6.68c7.46,0,10.21,10.05,10.21,26.7,0,15.63-2.67,25.14-10.21,25.14ZM358.58,70h.79l.79-13.36h-4.72L353.09,68.4H339.73V16.56h3.54v-.79H324v.79l3.53.78V67.61L324,68.4v.78h32.12ZM291.51,20l8.88,31.5h-16.5Zm-7.07-3.45,6.91.71L278.94,67.61l-5.89.79v.78H288V68.4h-7.86l3.54-16.11h16.88l4.4,15.32-3.22.79v.78h18.46V68.4h-2L302.9,15.77H284.44Zm-38,0H250c4.79,0,5.89,6,5.89,13.35s-1.1,12.57-5.89,12.57h-3.53Zm3.93,26.7c4,0,5.1,5,5.1,10.21V62.9c0,3.93,1.57,7.07,8.64,7.07a62.16,62.16,0,0,0,9.43-.79V68.4H268v-13c0-6.68-2.59-12.26-15.4-12.41v-.32c12,0,16.18-5.89,16.18-12.8,0-8.33-5.49-14.14-15.71-14.14H230.72v.79l3.53.78V67.61l-3.53.79v.78H250V68.4h-3.53V43.26ZM224.52,70h.78l.79-13.36h-4.72L219,68.4H205.27V42.48H219.1v-.79H205.27V16.56H219l1.57,11.78h4.71V15h-.78l-2.36.78h-32.6v.79l3.54.78V67.61l-3.54.79v.78h32.52ZM181,16.56h3.54v-.79H165.3v.79l3.53.78v24h-16.1V16.56h3.53v-.79H137v.79l3.54.78V67.61L137,68.4v.78h19.24V68.4h-3.53V42.08h16.1V67.61l-3.53.79v.78h19.24V68.4H181ZM117.47,70h.78L119,56.61h-4.72L112,68.4H98.62V16.56h3.53v-.79H82.91v.79l3.53.78V67.61l-3.53.79v.78H115ZM76.7,70h.79l.78-13.36H73.56L71.2,68.4H57.46V42.48H71.28v-.79H57.46V16.56H71.2l1.58,11.78h4.71V15H76.7l-2.35.78H41.75v.79l3.54.78V67.61l-3.54.79v.78H74.27Z" transform="translate(-39.79 -14.99)"/><path class="cls-4" d="M437.51,70c17.13,0,24-12.41,24-29.06,0-14.93-6.68-25.92-22-25.92-17.2,0-24,12.41-24,29.06,0,14.92,6.6,25.92,22,25.92m1.18-.79c-7.38,0-10.21-10.84-10.21-27.49,0-15.63,2.83-25.92,10.21-25.92,7.54,0,9.82,10.84,9.82,27.49,0,15.63-2.28,25.92-9.82,25.92m-54.11,0c17.12,0,24.35-11.62,24.35-28.27,0-14.93-7.07-25.14-22.39-25.14H363.37v.79l3.53.78V67.61l-3.53.79v.78Zm-5.5-.78V16.56h6.68c7.46,0,10.21,10.05,10.21,26.7,0,15.63-2.67,25.14-10.21,25.14ZM358,70h.79l.78-13.36h-4.71L352.45,68.4H339.1V16.56h3.54v-.79H323.39v.79l3.54.78V67.61l-3.54.79v.78h32.13ZM290.88,20l8.87,31.5H283.26Zm-7.07-3.45,6.91.71L278.31,67.61l-5.89.79v.78h14.92V68.4h-7.85L283,52.29h16.89l4.4,15.32-3.22.79v.78h18.46V68.4H317.5L302.27,15.77H283.81Zm-38,0h3.53c4.79,0,5.89,6,5.89,13.35s-1.1,12.57-5.89,12.57H245.8Zm3.92,26.7c4,0,5.11,5,5.11,10.21V62.9c0,3.93,1.57,7.07,8.64,7.07a61.92,61.92,0,0,0,9.42-.79V68.4H267.4v-13c0-6.68-2.6-12.26-15.4-12.41v-.32c12,0,16.18-5.89,16.18-12.8,0-8.33-5.5-14.14-15.71-14.14H230.09v.79l3.53.78V67.61l-3.53.79v.78h19.24V68.4H245.8V43.26ZM223.88,70h.79l.78-13.36h-4.71L218.39,68.4H204.64V42.48h13.82v-.79H204.64V16.56h13.75L220,28.34h4.71V15h-.79l-2.35.78h-32.6v.79l3.54.78V67.61l-3.54.79v.78h32.52ZM180.37,16.56h3.54v-.79H164.66v.79l3.54.78v24H152.1V16.56h3.53v-.79H136.39v.79l3.53.78V67.61l-3.53.79v.78h19.24V68.4H152.1V42.08h16.1V67.61l-3.54.79v.78h19.25V68.4h-3.54ZM116.83,70h.79l.78-13.36h-4.71L111.34,68.4H98V16.56h3.54v-.79H82.27v.79l3.54.78V67.61l-3.54.79v.78H114.4ZM76.07,70h.79l.78-13.36H72.93L70.57,68.4H56.83V42.48H70.65v-.79H56.83V16.56H70.57l1.57,11.78h4.72V15h-.79l-2.36.78H41.12v.79l3.53.78V67.61l-3.53.79v.78H73.64Z" transform="translate(-39.79 -14.99)"/><polygon class="cls-5" points="127.08 26.31 127.71 26.31 127.71 2.36 124.18 1.57 124.18 0.79 123.55 0.79 123.55 1.57 127.08 2.36 127.08 26.31"/><polygon class="cls-5" points="182.76 0 180.41 0.79 181.04 0.79 183.4 0 182.76 0"/><polygon class="cls-5" points="73.2 41.63 72.57 41.63 70.22 53.41 70.85 53.41 73.2 41.63"/><polygon class="cls-5" points="34.95 0 32.59 0.79 33.23 0.79 35.58 0 34.95 0"/><polygon class="cls-5" points="177.27 53.41 177.9 53.41 180.26 41.63 179.62 41.63 177.27 53.41"/><polygon class="cls-5" points="31.66 13.35 30.09 1.57 29.45 1.57 31.02 13.35 31.66 13.35"/><polygon class="cls-5" points="29.45 53.41 30.09 53.41 32.44 41.63 31.81 41.63 29.45 53.41"/><polygon class="cls-5" points="231.93 53.41 237.82 52.62 250.23 2.28 243.32 1.57 243.32 0.79 242.69 0.79 242.69 1.57 249.6 2.28 237.19 52.62 231.3 53.41 231.77 53.41 231.93 53.41"/><path class="cls-5" d="M384.42,68.4h.64c7.54,0,10.21-9.51,10.21-25.14,0-16.65-2.75-26.7-10.21-26.7h-.64c7.46,0,10.21,10.05,10.21,26.7,0,15.63-2.67,25.14-10.21,25.14" transform="translate(-39.79 -14.99)"/><polygon class="cls-5" points="314.32 41.63 313.69 41.63 311.33 53.41 311.97 53.41 314.32 41.63"/><polygon class="cls-5" points="179.47 13.35 177.9 1.57 177.27 1.57 178.84 13.35 179.47 13.35"/><path class="cls-5" d="M437.67,15.79c7.29.3,9.51,11.06,9.51,27.47,0,15.4-2.22,25.61-9.49,25.91h.3c7.54,0,9.82-10.29,9.82-25.92,0-16.65-2.28-27.49-9.82-27.49l-.32,0" transform="translate(-39.79 -14.99)"/><polygon class="cls-5" points="251.29 8.41 251.04 9.53 258.63 36.52 259.27 36.52 251.29 8.41"/><polygon class="cls-5" points="0 0.79 0 1.57 3.53 2.36 3.53 52.63 0 53.41 0 54.2 0.63 54.2 0.63 53.41 4.17 52.63 4.17 2.36 0.63 1.57 0.63 0.79 0 0.79"/><path class="cls-5" d="M248,42.48h.63c4.79,0,5.89-5.26,5.89-12.57s-1.1-13.35-5.89-13.35H248c4.79,0,5.89,6,5.89,13.35s-1.1,12.57-5.89,12.57" transform="translate(-39.79 -14.99)"/><polygon class="cls-5" points="263.82 52.62 259.42 37.31 258.79 37.31 263.19 52.62 259.97 53.41 259.97 54.2 260.6 54.2 260.6 53.41 263.82 52.62"/><path class="cls-5" d="M254.13,62.9V53.47c0-5.18-1.1-10.21-5.11-10.21h-.63c4,0,5.11,5,5.11,10.21V62.9c0,3.93,1.57,7.07,8.63,7.07h.35c-6.81-.09-8.35-3.19-8.35-7.06" transform="translate(-39.79 -14.99)"/><polygon class="cls-5" points="286.44 52.62 286.44 2.36 282.91 1.57 282.91 0.79 282.27 0.79 282.27 1.57 285.81 2.36 285.81 52.62 282.27 53.41 282.27 54.2 282.91 54.2 282.91 53.41 286.44 52.62"/><polygon class="cls-5" points="326.42 52.62 326.42 2.36 322.88 1.57 322.88 0.79 322.25 0.79 322.25 1.57 325.79 2.36 325.79 52.62 322.25 53.41 322.25 54.2 322.88 54.2 322.88 53.41 326.42 52.62"/><path class="cls-5" d="M414.82,44.05c0-16.55,6.68-28.9,23.64-29.06h-.32c-17.2,0-23.95,12.41-23.95,29.06,0,14.92,6.6,25.92,22,25.92h.31c-15.16-.15-21.67-11.09-21.67-25.91" transform="translate(-39.79 -14.99)"/><polygon class="cls-5" points="193.14 52.62 193.14 2.36 189.6 1.57 189.6 0.79 188.97 0.79 188.97 1.57 192.5 2.36 192.5 52.62 188.97 53.41 188.97 54.2 189.6 54.2 189.6 53.41 193.14 52.62"/><polygon class="cls-5" points="45.32 52.62 45.32 2.36 41.79 1.57 41.79 0.79 41.16 0.79 41.16 1.57 44.69 2.36 44.69 52.62 41.16 53.41 41.16 54.2 41.79 54.2 41.79 53.41 45.32 52.62"/><polygon class="cls-5" points="99.44 52.62 99.44 2.36 95.9 1.57 95.9 0.79 95.27 0.79 95.27 1.57 98.8 2.36 98.8 52.62 95.27 53.41 95.27 54.2 95.9 54.2 95.9 53.41 99.44 52.62"/><polygon class="cls-5" points="127.71 52.62 127.71 27.1 127.08 27.1 127.08 52.62 123.54 53.41 123.54 54.2 124.18 54.2 124.18 53.41 127.71 52.62"/><polygon class="cls-5" points="151.98 52.62 151.98 2.36 148.45 1.57 148.45 0.79 147.81 0.79 147.81 1.57 151.35 2.36 151.35 52.62 147.81 53.41 147.81 54.2 148.45 54.2 148.45 53.41 151.98 52.62"/><polygon class="cls-5" points="165.69 1.55 165.69 26.68 166.31 26.68 166.31 1.74 166.27 1.74 166.27 1.55 165.69 1.55"/><polygon class="cls-5" points="244.31 36.5 244.93 36.5 251.48 9.12 251.23 8.11 244.31 36.5"/><path class="cls-5" d="M269,29.89c0,6.91-4.16,12.8-16.18,12.8V43h.62v-.31c12,0,16.18-5.89,16.18-12.8,0-8.33-5.5-14.14-15.71-14.14h0c9.82.23,15.11,6,15.11,14.12" transform="translate(-39.79 -14.99)"/><polygon class="cls-5" points="17.87 1.55 17.87 26.68 18.49 26.68 18.49 1.57 30.06 1.55 17.87 1.55"/><polygon class="cls-5" points="185.72 0 185.72 13.33 181.62 13.33 181.62 13.35 186.33 13.35 186.33 0 185.72 0"/><polygon class="cls-5" points="62.56 1.55 59.03 1.55 59.03 53.39 59.65 53.39 59.65 1.57 63.18 1.57 63.18 0.79 62.56 0.79 62.56 1.55"/><polygon class="cls-5" points="116.68 1.55 113.14 1.55 113.14 26.29 113.76 26.29 113.76 1.57 117.3 1.57 117.3 0.79 116.68 0.79 116.68 1.55"/><polygon class="cls-5" points="129.25 27.08 113.14 27.08 113.14 53.39 113.76 53.39 113.76 27.1 129.25 27.1 129.25 27.08"/><polygon class="cls-5" points="166.31 27.49 180.13 27.49 180.13 26.7 179.51 26.7 179.51 27.47 165.69 27.47 165.69 53.39 166.31 53.39 166.31 27.49"/><polygon class="cls-5" points="278.55 53.39 279.16 53.39 263.93 0.79 263.32 0.79 278.55 53.39"/><polygon class="cls-5" points="303.68 1.55 300.15 1.55 300.15 53.39 300.77 53.39 300.77 1.57 304.3 1.57 304.3 0.79 303.68 0.79 303.68 1.55"/><path class="cls-5" d="M380.53,16.56h6.56l-.5,0h-6.68V68.38h.62Z" transform="translate(-39.79 -14.99)"/><path class="cls-5" d="M439.6,69.16c-7-.52-9.67-11.23-9.67-27.47,0-15.57,2.81-25.84,10.14-25.91a4.93,4.93,0,0,0-.55,0c-7.38,0-10.21,10.29-10.21,25.92,0,16.65,2.83,27.49,10.21,27.49h.08" transform="translate(-39.79 -14.99)"/><path class="cls-5" d="M246.63,16.54V42.46h.62V16.56h3.18l-.27,0Z" transform="translate(-39.79 -14.99)"/><polygon class="cls-5" points="260.96 37.29 244.07 37.29 240.53 53.39 241.16 53.39 244.69 37.31 260.96 37.31 260.96 37.29"/><path class="cls-5" d="M250.56,43.24h-3.93V68.38h.62V43.26h3.57l-.26,0" transform="translate(-39.79 -14.99)"/><path class="cls-5" d="M268.85,68.38V55.44c0-6.55-2.5-12-14.66-12.39,11.63.52,14,5.93,14,12.36v13Z" transform="translate(-39.79 -14.99)"/><polygon class="cls-5" points="210.38 53.41 210.38 53.8 210.4 53.8 210.4 54.2 210.99 54.2 210.99 53.41 210.38 53.41"/><polygon class="cls-5" points="280.59 53.41 280.59 54.17 280.58 54.17 280.58 54.2 281.21 54.2 281.21 53.41 280.59 53.41"/><polygon class="cls-5" points="18.49 27.49 32.31 27.49 32.31 26.7 31.7 26.7 31.7 27.47 17.87 27.47 17.87 53.39 18.49 53.39 18.49 27.49"/><polygon class="cls-5" points="185.72 54.96 185.48 54.96 185.55 54.98 186.33 54.98 187.12 41.63 186.5 41.63 185.72 54.96"/><path class="cls-5" d="M274.17,69.16h-.44a62.16,62.16,0,0,1-9.43.79l-.7,0c.42,0,.85,0,1.32,0a62.51,62.51,0,0,0,9.25-.76Zm14.62,0V68.4h-.61v.76h-.11v0Z" transform="translate(-39.79 -14.99)"/><polygon class="cls-5" points="319.78 54.96 319.55 54.96 319.62 54.98 320.4 54.98 321.19 41.63 320.57 41.63 319.78 54.96"/><path class="cls-5" d="M441.88,15c14.2.73,20.42,11.47,20.42,25.88,0,16.65-6.83,29.06-23.95,29.06-.33,0-.65,0-1,0,.51,0,1,0,1.57,0,17.13,0,24-12.41,24-29.06,0-14.61-6.4-25.45-21-25.9" transform="translate(-39.79 -14.99)"/><path class="cls-5" d="M389,15.79c14.2.7,20.78,10.7,20.78,25.1,0,16.65-7.23,28.27-24.35,28.27H364.82v0H386c17.12,0,24.35-11.62,24.35-28.27,0-14.6-6.77-24.68-21.4-25.12" transform="translate(-39.79 -14.99)"/><polygon class="cls-5" points="37.9 54.96 37.67 54.96 37.73 54.98 38.52 54.98 39.31 41.63 38.69 41.63 37.9 54.96"/><polygon class="cls-5" points="37.9 0 37.9 13.33 37.9 13.33 37.9 13.35 38.52 13.35 38.52 0 37.9 0"/><polygon class="cls-5" points="144.95 53.41 144.95 53.8 144.97 53.8 144.97 54.2 145.57 54.2 145.57 53.41 144.95 53.41"/><polygon class="cls-5" points="144.95 1.55 141.42 1.55 141.42 53.39 142.04 53.39 142.04 1.57 145.57 1.57 145.57 0.79 144.95 0.79 144.95 1.55"/><polygon class="cls-5" points="116.68 53.41 116.68 54.17 116.63 54.17 116.63 54.2 117.3 54.2 117.3 53.41 116.68 53.41"/><polygon class="cls-5" points="78.67 54.96 78.43 54.96 78.5 54.98 79.28 54.98 80.07 41.63 79.45 41.63 78.67 54.96"/><path class="cls-6" d="M202.2,87.55V76.62h4.26c3.93,0,4.74,2.74,4.74,5.47s-.81,5.46-4.74,5.46ZM206,84.66c1.53,0,1.69-1.21,1.69-2.57s-.16-2.57-1.69-2.57h-.4v5.14Z" transform="translate(-39.79 -14.99)"/><polygon class="cls-6" points="180.09 64.53 175.91 64.53 175.91 65.57 179.35 65.57 179.35 68.47 175.91 68.47 175.91 69.67 180.09 69.67 180.09 72.56 172.53 72.56 172.53 61.64 180.09 61.64 180.09 64.53"/><path class="cls-6" d="M228.47,76.46a12.72,12.72,0,0,1,3.45.44v2.46h-2.81c-1.69,0-1.85,1.36-1.85,2.73s.16,2.73,1.85,2.73h2.81v2.46a13.07,13.07,0,0,1-3.45.43c-3.94,0-4.75-2.89-4.75-5.62s.81-5.63,4.75-5.63" transform="translate(-39.79 -14.99)"/><polygon class="cls-6" points="198.24 72.56 198.24 68.47 196.47 68.47 196.47 72.56 193.1 72.56 193.1 61.64 196.47 61.64 196.47 65.57 198.24 65.57 198.24 61.64 201.61 61.64 201.61 72.56 198.24 72.56"/><rect class="cls-6" x="202.9" y="61.64" width="3.37" height="10.93"/><polygon class="cls-6" points="212.7 72.56 212.7 68.47 210.93 68.47 210.93 72.56 207.55 72.56 207.55 61.64 210.93 61.64 210.93 65.57 212.7 65.57 212.7 61.64 216.07 61.64 216.07 72.56 212.7 72.56"/><path class="cls-6" d="M265.82,83.69c0,2.93-1.9,4-4.34,4s-4.34-1.09-4.34-4V76.62h3.38v7.07c0,1,.48,1.13,1,1.13s1-.16,1-1.13V76.62h3.38Z" transform="translate(-39.79 -14.99)"/><path class="cls-6" d="M277.23,87.55h-3.7l-.44-1.93h-2.37l-.4,1.93h-3.7l2.84-11h4.87Zm-6-4.5h1.27l-.62-2.81h0Z" transform="translate(-39.79 -14.99)"/><polygon class="cls-6" points="243.38 72.56 243.38 68.47 241.61 68.47 241.61 72.56 238.24 72.56 238.24 61.64 241.61 61.64 241.61 65.57 243.38 65.57 243.38 61.64 246.76 61.64 246.76 72.56 243.38 72.56"/><path class="cls-6" d="M296.5,83.69c0,2.93-1.89,4-4.34,4s-4.34-1.09-4.34-4V76.62h3.38v7.07c0,1,.48,1.13,1,1.13s1-.16,1-1.13V76.62h3.37Z" transform="translate(-39.79 -14.99)"/><path class="cls-6" d="M307.91,87.55h-3.7l-.43-1.93H301.4l-.4,1.93h-3.7l2.85-11H305Zm-6-4.5h1.27l-.63-2.81h0Z" transform="translate(-39.79 -14.99)"/></g></g></g></svg>