<?xml version="1.0" encoding="utf-8"?>
<!-- Generator: Adobe Illustrator 26.5.0, SVG Export Plug-In . SVG Version: 6.00 Build 0)  -->
<svg version="1.1" id="Capa_1" xmlns="http://www.w3.org/2000/svg" xmlns:xlink="http://www.w3.org/1999/xlink" x="0px" y="0px"
	 viewBox="0 0 400 400" style="enable-background:new 0 0 400 400;" xml:space="preserve">
<style type="text/css">
	.st0{fill:#CCD9CA;}
	.st1{fill:#AEC5AD;}
	.st2{fill:#007635;}
	.st3{fill:#D3DED1;}
	.st4{fill:#BE0528;}
	.st5{fill:#77A179;}
	.st6{fill:#017636;}
	.st7{fill:#FEFEFE;}
</style>
<g>
	<path class="st0" d="M128.63,85.46c5.03,0.25,10.03,0.82,15.03,1.47c9.05,1.17,18,2.86,26.89,4.94c8.75,2.04,17.39,4.47,25.94,7.22
		c9.65,3.1,19.14,6.62,28.48,10.52c0.56,0.23,0.71,0.52,0.74,1.08c0.09,1.96,0.26,3.92,0.37,5.89c0.05,0.86-0.01,0.22,0.89,0.46
		c4.55,1.23,10.37,2.64,14.82,4.19c9.55,3.33,17.96,8.29,27.04,12.77c6.75,3.33,13.3,7,19.64,11.07c0.27,0.17,0.62,0.27,0.76,0.74
		c-1.55-0.61-3.02-1.21-4.52-1.76c-5.97-2.21-12.14-3.63-18.39-4.74c-5.61-1-11.26-1.66-16.94-2.16c-3.16-0.28-6.33-0.46-9.49-0.59
		c-4.03-0.17-8.07-0.24-12.1-0.35c-0.08-0.01-0.16-0.03-0.24-0.04c-0.24-3.1-0.49-6.19-0.72-9.29c-0.03-0.48-0.1-0.8-0.68-0.87
		c-2.9-0.35-5.79-0.78-8.7-1.1c-4.31-0.47-8.63-0.87-12.96-1.2c-5.31-0.4-10.63-0.69-15.95-0.81c-6.75-0.15-13.5-0.21-20.25,0.09
		c-2.49,0.11-4.99,0.16-7.48,0.27c-0.45,0.02-0.93-0.01-1.3,0.34c-0.1-0.13-0.2-0.26-0.3-0.39c-2.39-5.51-4.79-11.02-7.17-16.54
		c-0.17-0.39-0.28-0.72-0.81-0.71c-1.51,0.03-3.02-0.13-4.52-0.14c-4.01-0.03-8.01-0.13-12.02,0.12c-2.3,0.14-4.62,0.1-6.92,0.25
		c-1.01,0.07-2.03,0.08-3.04,0.18c-2.96,0.28-5.93,0.6-8.89,0.89c-3.09,0.3-6.15,0.77-9.22,1.22c-2.16,0.31-4.3,0.7-6.45,1.05
		c-0.04-0.15-0.07-0.3-0.13-0.44c-1.71-3.68-3.43-7.35-5.13-11.03c-1.65-3.57-3.29-7.14-4.93-10.71c0.07-0.05,0.14-0.14,0.22-0.15
		c5.18-0.75,10.37-1.53,15.6-1.73"/>
	<path class="st1" d="M124.09,85.07"/>
	<path class="st2" d="M90.01,87.34c1.64,3.57,3.28,7.14,4.93,10.71c1.7,3.68,3.42,7.35,5.13,11.03c0.06,0.14,0.09,0.29,0.13,0.44
		c-0.18,0.06-0.35,0.13-0.53,0.17c-7.32,1.32-14.54,3.07-21.66,5.24c-5.49,1.67-10.92,3.53-16.18,5.85
		c-0.26,0.08-0.54,0.13-0.79,0.23c-7.37,3.15-14.44,6.84-21.03,11.43c-7.21,5.02-13.61,10.89-18.6,18.18
		c-5.16,7.53-8.26,15.8-9.05,24.92c-0.06,0.7,0.06,1.46-0.31,2.12c-1.55-6.26-3.09-12.52-4.65-18.77c-0.03-0.11-0.11-0.2-0.17-0.3
		c0-1.79,0-3.58,0-5.37c0.25-0.08,0.17-0.29,0.19-0.46c0.27-2.94,0.72-5.85,1.42-8.73c3.02-12.5,9.89-22.59,19.46-30.96
		c7.93-6.93,16.97-12.05,26.64-16.11c9.72-4.08,19.81-6.92,30.16-8.87C86.72,87.76,88.33,87.32,90.01,87.34z"/>
	<path class="st0" d="M268.83,144.25c0.11,0.33-0.51,0.85-0.73,1.01c-7.34,5.45-15.01,10.42-22.84,15.14
		c-7.07,4.26-14.24,8.32-21.51,12.24c-4.53,2.44-9.07,4.86-13.66,7.18c-4.81,2.44-9.61,4.92-14.45,7.29
		c-6.61,3.24-13.25,6.43-19.9,9.59c-5.96,2.82-11.94,5.59-17.93,8.32c-7.23,3.29-14.49,6.51-21.73,9.78
		c-5.22,2.35-10.43,4.72-15.65,7.07c-3,1.36-6.01,2.7-9.01,4.05c-0.3,0.14-0.59,0.3-1.09,0.56c2.11,0.34,3.99,0.68,5.89,0.95
		c3.8,0.53,7.61,1.01,11.42,1.52c0.18,0.02,0.35,0.12,0.52,0.18c0,1.51,0,3.02,0,4.53c0,1.79-0.11,3.59,0.05,5.36
		c0.2,2.28,0.14,4.54,0.06,6.82c-0.33-0.08-0.65-0.2-0.98-0.24c-3.91-0.46-7.8-1.05-11.68-1.67c-9.56-1.53-19.04-3.49-28.42-5.91
		c-0.51-0.13-0.93-0.08-1.4,0.16c-5.87,3-11.66,6.13-17.28,9.57c-0.26,0.16-0.57,0.25-0.68,0.58c-0.28,0.13-0.58,0.22-0.83,0.38
		c-3.4,2.12-6.72,4.35-9.88,6.8c-1.05,0.81-2.24,1.5-3.01,2.65c-0.35,0.01-0.53,0.27-0.77,0.47c-2.24,1.95-4.35,4.02-6.27,6.28
		c-2.85,3.37-5.17,7.05-6.64,11.23c-0.3,0.86-0.2,1.43,0.45,2.13c5.38,5.76,11.86,9.99,18.77,13.62c7.77,4.07,15.91,7.24,24.25,9.94
		c14.05,4.55,28.42,7.75,42.99,10.11c0.76,0.12,1.69-0.09,2.27,0.7c0,0.66,0,1.33,0,1.99c-0.01,0.03-0.04,0.06-0.04,0.08
		c0.02,0.05,0.06,0.1,0.09,0.15c0.09,4.69,0.01,9.37,0.22,14.06c-2.69-0.44-5.39-0.84-8.07-1.34c-6.94-1.29-13.84-2.79-20.67-4.58
		c-9.56-2.52-18.97-5.47-28.08-9.35c-6.42-2.74-12.63-5.86-18.37-9.84c-4.64-3.21-8.83-6.9-12.06-11.57
		c-2.12-3.08-3.37-6.52-4.22-10.16c-1.52-6.55-3.2-13.07-4.81-19.6c-0.11-0.44-0.4-0.84-0.36-1.32c0.38-0.14,0.31-0.5,0.35-0.78
		c0.22-1.56,0.59-3.07,1.06-4.57c2.04-6.43,5.88-11.72,10.53-16.48c6.18-6.32,13.38-11.32,20.9-15.88c5.1-3.09,10.38-5.86,15.67-8.6
		c2.83-1.35,5.67-2.71,8.5-4.06c6.53-3.1,13.18-5.95,19.86-8.71c8.07-3.34,16.2-6.54,24.36-9.66c1.34-0.51,2.76-0.84,3.97-1.67
		c0.4,0.15,0.72-0.08,1.06-0.21c3.36-1.26,6.71-2.56,10.08-3.81c22.73-8.46,45.61-16.54,68.26-25.22
		c13.11-5.02,26.13-10.26,38.9-16.1c0.33-0.15,0.85-0.43,0.94-0.6"/>
	<path class="st3" d="M12.06,177.65c0.37-0.67,0.25-1.42,0.31-2.12c0.79-9.12,3.89-17.39,9.05-24.92c5-7.29,11.39-13.15,18.6-18.18
		c6.58-4.59,13.66-8.28,21.03-11.43c0.25-0.11,0.53-0.16,0.79-0.23c0.07,0.26,0.1,0.55,0.22,0.79c3.19,6.47,6.4,12.93,9.59,19.4
		c0.29,0.58,0.57,0.64,1.15,0.42c3.24-1.25,6.48-2.52,9.76-3.66c6.3-2.2,12.7-4.07,19.17-5.71c2.73-0.69,5.49-1.29,8.24-1.94
		c0.02,0.09,0.03,0.19,0.06,0.27c3.03,6.53,6.08,13.05,9.09,19.58c0.24,0.53,0.55,0.44,0.95,0.33c8.83-2.42,17.75-4.47,26.73-6.22
		c6.64-1.3,13.31-2.45,20.01-3.42c2.52-0.36,5.02-0.8,7.55-1.07c3.38-0.37,6.75-0.88,10.14-1.16c3.63-0.3,7.26-0.74,10.89-1.07
		c2.54-0.23,5.08-0.41,7.62-0.55c4.11-0.22,8.22-0.45,12.34-0.55c4.07-0.1,8.14-0.03,12.21-0.03c0.08,0.01,0.16,0.02,0.24,0.04
		c-0.1,2.51,0.3,4.98,0.46,7.47c0.08,1.28,0.17,2.55,0.25,3.83c-0.08,0.04-0.16,0.11-0.24,0.12c-4.81,0.7-9.63,1.32-14.43,2.1
		c-8.55,1.39-17.07,2.98-25.56,4.74c-13.42,2.78-26.72,6.03-39.91,9.72c-6.59,1.84-13.14,3.85-19.67,5.91
		c-0.44-0.1-0.49-0.52-0.64-0.84c-2.78-5.97-5.57-11.95-8.32-17.93c-0.31-0.67-0.64-0.79-1.34-0.6c-8.57,2.37-17.06,5.01-25.42,8.04
		c-8.84,3.2-17.49,6.83-25.88,11.08c-2.17,1.1-4.32,2.24-6.47,3.36c-3.27-6.62-6.55-13.24-9.8-19.88c-0.35-0.71-0.6-0.77-1.26-0.36
		c-5.67,3.53-11.01,7.49-15.8,12.15c-5.06,4.91-9.32,10.42-12.34,16.83c-2.38,5.04-3.75,10.34-4.26,15.88
		c-0.76-1.92-1.04-3.96-1.55-5.94C14.4,187.16,13.24,182.4,12.06,177.65z"/>
	<path class="st0" d="M128.27,245.84c0.07-2.27,0.13-4.54-0.06-6.82c-0.15-1.78-0.04-3.57-0.05-5.36c0-1.51,0-3.02,0-4.53
		c2.16,0.23,4.33,0.48,6.49,0.7c1.62,0.16,3.24,0.31,4.86,0.4c3.77,0.21,7.54,0.55,11.33,0.62c1.28,0.02,2.58,0.07,3.87,0.13
		c3.2,0.15,6.41,0.3,9.61,0.15c3.05-0.15,6.1-0.04,9.15-0.18c2.95-0.14,5.9-0.19,8.85-0.35c4.02-0.22,8.04-0.46,12.05-0.75
		c3.46-0.26,6.92-0.52,10.36-0.93c4.44-0.53,8.9-0.94,13.33-1.58c2.12-0.31,4.23-0.73,6.39-0.8c0.12,2.78-0.24,5.54-0.19,8.31
		c0.01,0.52-0.07,1.04-0.1,1.56c-0.12,2.43-0.16,4.86-0.24,7.28c-0.02,0.49,0.14,0.64,0.65,0.56c1.51-0.25,3.04-0.45,4.56-0.67
		c5.48-0.77,10.94-1.69,16.38-2.69c5.53-1.03,11.04-2.16,16.52-3.45c2.75-0.65,5.53-1.21,8.23-2.06c0.12-0.02,0.24-0.03,0.36-0.06
		c10.83-2.76,21.5-6.07,31.97-10c4.29-1.61,8.52-3.4,12.75-5.16c0.02,0.21,0.05,0.43,0.04,0.64c-0.1,3.47,0.07,6.93-0.15,10.4
		c-0.17,2.76-0.04,5.53-0.04,8.3c-0.1,0.06-0.2,0.14-0.31,0.19c-4.51,1.91-9.11,3.57-13.73,5.17c-10.09,3.5-20.35,6.37-30.73,8.87
		c-0.33,0.08-0.66,0.14-0.9,0.42c-0.37-0.06-0.72,0.01-1.09,0.09c-3.77,0.84-7.54,1.7-11.32,2.46c-6.03,1.22-12.09,2.33-18.19,3.19
		c-3.27,0.46-6.54,0.97-9.81,1.44c-1.91,0.27-3.82,0.5-5.74,0.74c-0.34,0.01-0.68-0.02-1.01,0.03c-4.51,0.61-9.04,1.03-13.57,1.41
		c-5.42,0.46-10.85,0.83-16.29,1.11c-4.3,0.22-8.61,0.41-12.92,0.45c-2.83,0.03-5.66,0.25-8.49,0.09
		c0.07-5.35,0.13-10.71,0.22-16.06c0.01-0.65-0.12-0.92-0.85-0.92c-4.03-0.01-8.06,0.05-12.09-0.11c-2.58-0.1-5.16-0.18-7.74-0.28
		c-1.16-0.04-2.33-0.08-3.49-0.17c-2.9-0.23-5.8-0.46-8.7-0.72c-1.55-0.14-3.1-0.33-4.66-0.49c-1.83-0.2-3.65-0.39-5.48-0.58
		L128.27,245.84z"/>
	<path class="st0" d="M341.23,143.81c-0.25-0.37-0.57-0.56-1.02-0.7c-6.02-1.83-12.16-3.02-18.38-3.86
		c-3.69-0.5-7.38-0.83-11.09-1.12c-7.6-0.61-17.61-0.32-25.21-0.18c-1.23,0.02-1.23-0.67-1.89-1.28c-2.75-2.53-6.88-3.19-9.91-5.37
		c-0.51-0.37,2.2-2.35,2.92-2.76c11.07-6.44,22.55-11.93,35.12-14.82c4.24-0.97,8.52-1.58,12.87-1.85c6.88-0.43,13.6,0.25,20.1,2.62
		c1.76,0.64,3.5,1.34,5.09,2.37c-0.38,0.3-0.06,0.64,0.02,0.9c1.62,5.37,3.28,10.74,4.91,16.11c0.19,0.63,0.5,1.05,1.05,1.41
		c6.37,4.12,11.32,9.54,14.86,16.26c1.01,1.92,1.74,3.97,2.68,5.93l-0.01-0.02c0,0.24-0.03,0.48,0.27,0.58
		c0.83,3.36,1.67,6.72,2.5,10.08c0.47,1.9,0.95,3.81,1.4,5.72c0.07,0.28,0.24,0.58,0.08,0.89c-0.06-0.06-0.16-0.12-0.18-0.19
		c-2.83-8.1-7.72-14.74-14.41-20.05c-6.28-4.98-13.44-8.29-21.02-10.76C341.7,143.63,341.44,143.5,341.23,143.81z"/>
	<path class="st2" d="M128.72,170.11c6.53-2.06,13.08-4.07,19.67-5.91c13.19-3.69,26.5-6.94,39.91-9.72
		c8.49-1.76,17-3.35,25.56-4.74c4.8-0.78,9.62-1.4,14.43-2.1c0.08-0.01,0.16-0.08,0.24-0.12c3.66-0.43,7.32-0.89,10.98-1.27
		c3.6-0.37,7.21-0.69,10.83-0.98c2.3-0.19,4.6-0.29,6.9-0.43c-0.16,0.43-0.61,0.45-0.94,0.6c-12.77,5.84-25.79,11.08-38.9,16.1
		c-22.65,8.68-45.52,16.76-68.26,25.22c-3.37,1.25-6.72,2.55-10.08,3.81c-0.34,0.13-0.66,0.36-1.06,0.21c0-0.35-0.21-0.64-0.35-0.94
		c-3.03-6.53-6.07-13.06-9.1-19.59C128.61,170.2,128.66,170.15,128.72,170.11z"/>
	<path class="st4" d="M315.33,220.16c-4.24,1.76-8.46,3.54-12.75,5.16c-10.47,3.93-21.13,7.24-31.97,10
		c-0.12,0.03-0.24,0.04-0.36,0.06c0.03-0.24,0.09-0.49,0.1-0.73c0.21-5.97,0.42-11.94,0.63-17.91c2.88-0.87,5.77-1.72,8.65-2.61
		c16.42-5.07,32.34-11.33,47.33-19.81c5.58-3.16,10.95-6.65,16.04-10.56c0.27-0.2,0.5-0.45,0.75-0.67c0.53,0.04,0.75,0.5,1.08,0.81
		c3.55,3.33,7.03,6.75,10.37,10.3c0.18,0.19,0.46,0.34,0.38,0.68c-8.95,8.35-19.18,14.81-30.02,20.38
		C322.19,216.97,318.73,218.52,315.33,220.16z"/>
	<path class="st5" d="M270.97,216.74c-0.21,5.97-0.42,11.94-0.63,17.91c-0.01,0.24-0.06,0.49-0.1,0.73
		c-2.7,0.85-5.48,1.41-8.23,2.06c-5.48,1.28-10.99,2.42-16.52,3.45c-5.44,1.01-10.9,1.93-16.38,2.69c-1.52,0.21-3.04,0.41-4.56,0.67
		c-0.51,0.09-0.67-0.07-0.65-0.56c0.08-2.43,0.13-4.86,0.24-7.28c0.03-0.52,0.11-1.04,0.1-1.56c-0.05-2.77,0.31-5.54,0.19-8.31
		c1.65-0.48,3.35-0.61,5.04-0.88c5.9-0.95,11.79-2.02,17.64-3.23c7.41-1.54,14.78-3.27,22.07-5.28
		C269.77,216.97,270.34,216.7,270.97,216.74z"/>
	<path class="st5" d="M341.23,143.81c0.22-0.31-1.03-0.67-0.76-0.58c9.55,3.04,16.24,6.27,22.52,11.25
		c6.7,5.31,11.59,11.94,14.41,20.05c0.03,0.08,0.12,0.13,0.18,0.19c0.95,2.67,1.42,5.45,2.08,8.19c0.83,3.43,1.61,6.87,2.41,10.3
		c-0.71-0.72-0.86-1.73-1.25-2.61c-2.02-4.54-4.75-8.61-7.96-12.37c-1.82-2.13-3.72-4.19-5.84-6.03c-0.18-0.16-0.38-0.29-0.58-0.44
		c-6.38-5.87-16.34-12.11-19.32-13.26c0.89,2.24,1.76,4.4,2.61,6.57c0.97,2.46,1.92,4.93,2.88,7.4c-4.5-3.28-9.11-6.4-13.89-9.29
		c-6.99-4.22-14.19-8.03-21.66-11.35c-5.69-2.53-11.47-4.8-17.39-6.68c-2.28-0.72-6.01-1.49-8.37-1.92
		c-0.85-0.79-1.27-1.59-2.34-2.58c1.47,0.15,3.69,0.23,4.88,0.39c17.43,2.33,33.99,7.48,49.71,15.32c1.02,0.51,2.04,1.01,3.05,1.52
		c0.04,0.03,0.11,0.11,0.12,0.1c0.11-0.08,0.05-0.14-0.03-0.19c-1.23-3.14-2.47-6.29-3.7-9.43
		C342.42,146.84,341.82,145.32,341.23,143.81z"/>
	<path class="st6" d="M373.34,157.47c-0.94-1.95-1.67-4-2.68-5.93c-3.54-6.72-8.49-12.14-14.86-16.26
		c-0.56-0.36-0.86-0.78-1.05-1.41c-1.62-5.37-3.28-10.74-4.91-16.11c-0.08-0.27-0.4-0.6-0.02-0.9c7.09,3.83,12.31,9.49,16.08,16.55
		c2.39,4.47,3.95,9.23,5.04,14.16c0.66,2.99,1.5,5.94,2.26,8.91C373.29,156.81,373.43,157.13,373.34,157.47z"/>
	<path class="st6" d="M373.6,158.03c-0.3-0.09-0.28-0.34-0.27-0.58C373.64,157.54,373.44,157.87,373.6,158.03z"/>
	<polygon class="st1" points="289.53,145.93 289.51,145.88 289.56,145.89 	"/>
	<path class="st0" d="M221.67,314.77c0,0,0.01-0.02,0.01-0.02c-2.67,0.21-5.34,0.45-8.01,0.62c-6.82,0.44-13.65,0.75-20.49,0.91
		c-6.96,0.16-13.93,0.19-20.9,0.04c-0.64-0.01-1.3,0.11-1.92-0.18c0.06-5.15,0.1-10.3,0.21-15.45c0.02-0.99-0.09-1.55-1.27-1.48
		c-0.47,0.03-0.98-0.05-1.47-0.07c-2.43-0.08-4.87-0.1-7.29-0.25c-1.1-0.07-2.21-0.1-3.31-0.19c-2.91-0.22-5.82-0.47-8.72-0.72
		c-2.11-0.18-4.22-0.35-6.33-0.59c-2.93-0.33-5.85-0.68-8.76-1.09c-1.51-0.21-3.05-0.31-4.53-0.72c-0.07-5.49-0.14-10.98-0.2-16.47
		l0.01-0.05c0.61,0.08,1.22,0.16,1.83,0.25c5.99,0.89,12.02,1.46,18.06,1.98c5.7,0.49,11.42,0.81,17.14,0.91
		c6.13,0.11,12.26,0.15,18.4-0.08c3.66-0.14,7.32-0.21,10.98-0.38c4.21-0.19,8.42-0.45,12.62-0.75c5.03-0.35,10.06-0.79,15.07-1.34
		c0.76-0.07,1.53-0.12,2.29-0.22c3.34-0.41,6.69-0.83,10.03-1.27c3.25-0.43,6.5-0.85,9.74-1.38c0.81-0.13,0.89,0.11,0.88,0.76
		c-0.08,3.76-0.12,7.51-0.2,11.27c-0.04,1.88,0.16,3.76-0.17,5.62c-1.41,0.32-2.85,0.44-4.28,0.64c-3.89,0.56-7.8,0.99-11.7,1.41
		c-2.11,0.23-4.22,0.4-6.33,0.61c-0.52,0.05-0.85,0.18-0.91,0.86c-0.14,1.48-0.07,2.95-0.13,4.43
		C221.89,306.54,221.63,310.65,221.67,314.77z"/>
	<path class="st5" d="M128.72,170.11c-0.06,0.04-0.11,0.09-0.17,0.13c-3.74,1.13-7.43,2.42-11.12,3.72
		c-13.61,4.79-26.96,10.18-39.85,16.68c-2.2,1.11-4.43,2.14-6.49,3.5c-0.57-0.04-0.98,0.33-1.43,0.58
		c-3.63,2.02-7.19,4.14-10.68,6.4c-8.46,5.47-16.35,11.62-22.84,19.41c-2.91,3.49-5.33,7.29-7.13,11.49
		c-0.79,1.84-1.27,3.76-1.92,5.64c-0.68-1.74-0.98-3.59-1.44-5.39c-1.15-4.46-2.23-8.94-3.33-13.41c-0.07-0.27-0.08-0.54-0.12-0.82
		c0.26-2.05,0.7-4.06,1.29-6.04c2.41-8.05,7.06-14.73,12.84-20.67c5.45-5.59,11.65-10.25,18.25-14.39c2.01-1.26,4.04-2.47,6.06-3.7
		c2.16-1.12,4.3-2.27,6.47-3.36c8.39-4.24,17.04-7.88,25.88-11.08c8.36-3.03,16.85-5.67,25.42-8.04c0.71-0.2,1.03-0.07,1.34,0.6
		c2.75,5.99,5.54,11.96,8.32,17.93C128.23,169.59,128.28,170.01,128.72,170.11z"/>
	<path class="st6" d="M170.37,316.15c0.62,0.28,1.28,0.16,1.92,0.18c6.97,0.15,13.94,0.12,20.9-0.04
		c6.83-0.16,13.66-0.47,20.49-0.91c2.67-0.17,5.34-0.41,8.01-0.62c-0.19,5.6-0.39,11.2-0.55,16.8c-0.02,0.57-0.18,0.71-0.72,0.74
		c-6.42,0.43-12.85,0.74-19.28,0.93c-6.31,0.18-12.63,0.37-18.94,0.3c-6.86-0.08-13.72-0.34-20.58-0.84
		c-5.59-0.41-11.17-0.9-16.73-1.56c-5.16-0.61-10.32-1.26-15.43-2.19c-0.21-4.68-0.14-9.37-0.22-14.06
		c0.01-0.03,0.03-0.06,0.02-0.08c-0.02-0.05-0.05-0.1-0.07-0.15c0-0.66,0-1.33,0-1.99c0.43-0.42,0.92-0.19,1.39-0.13
		c1.55,0.21,3.09,0.45,4.64,0.66c2.61,0.35,5.22,0.73,7.84,0.98c2.68,0.26,5.35,0.64,8.04,0.86c2.69,0.22,5.38,0.46,8.08,0.61
		C162.89,315.84,166.62,316.21,170.37,316.15z"/>
	<path class="st2" d="M27.09,237.64c0.65-1.88,1.13-3.8,1.92-5.64c1.8-4.19,4.22-7.99,7.13-11.49c6.48-7.8,14.37-13.94,22.84-19.41
		c3.49-2.26,7.06-4.37,10.68-6.4c0.45-0.25,0.86-0.61,1.43-0.58c0.06,0.14,0.12,0.28,0.18,0.42c3.35,6.77,6.7,13.54,10.04,20.32
		c-5.3,2.74-10.57,5.51-15.67,8.6c-7.52,4.56-14.72,9.56-20.9,15.88c-4.65,4.76-8.49,10.05-10.53,16.48
		c-0.47,1.49-0.85,3.01-1.06,4.57c-0.04,0.27,0.04,0.64-0.35,0.78c-1.15-4.65-2.29-9.3-3.44-13.95c-0.74-2.98-1.49-5.96-2.22-8.94
		C27.09,238.07,27.1,237.85,27.09,237.64z"/>
	<path class="st4" d="M60.64,173.22c-2.02,1.23-4.06,2.45-6.06,3.7c-6.6,4.14-12.8,8.79-18.25,14.39
		c-5.79,5.94-10.43,12.62-12.84,20.67c-0.59,1.98-1.03,3.99-1.29,6.04c-0.87-2.75-1.44-5.58-2.16-8.37
		c-0.93-3.6-1.8-7.21-2.69-10.82c-0.08-0.33-0.13-0.66-0.19-0.99c0.51-5.54,1.88-10.84,4.26-15.88c3.03-6.41,7.29-11.92,12.34-16.83
		c4.8-4.66,10.14-8.61,15.8-12.15c0.67-0.42,0.92-0.35,1.26,0.36C54.08,159.98,57.37,166.6,60.64,173.22z"/>
	<path class="st4" d="M267.36,309.14c0.12-0.4,0.49-0.32,0.76-0.37c9.05-1.66,18.04-3.59,26.96-5.88c6.24-1.6,12.42-3.39,18.57-5.32
		c0.17-0.05,0.35-0.08,0.49-0.11c0,2.4,0.01,4.77,0,7.13c-0.02,2.87-0.06,5.73-0.11,8.6c-0.02,1.05-0.08,2.09-0.13,3.14
		c-15.49,4.6-31.24,8.06-47.32,10.71C266.84,321.07,267.1,315.1,267.36,309.14z"/>
	<path class="st5" d="M221.67,314.77c-0.04-4.12,0.21-8.24,0.36-12.36c0.05-1.47-0.01-2.95,0.13-4.43c0.06-0.68,0.4-0.81,0.91-0.86
		c2.11-0.2,4.22-0.38,6.33-0.61c3.91-0.42,7.81-0.85,11.7-1.41c1.43-0.21,2.87-0.32,4.28-0.64c0.31-0.01,0.62,0,0.92-0.05
		c7.25-1.08,14.48-2.28,21.67-3.7c-0.25,6.13-0.5,12.26-0.75,18.4c-2.32,0.07-4.56,0.68-6.84,1.03c-6.39,0.99-12.79,1.93-19.21,2.7
		c-5.72,0.69-11.45,1.23-17.19,1.78C223.21,314.7,222.44,314.73,221.67,314.77z"/>
	<path class="st5" d="M269.52,254.16c0.24-0.28,0.57-0.34,0.9-0.42c10.38-2.5,20.64-5.38,30.73-8.87c4.62-1.6,9.22-3.27,13.73-5.17
		c0.11-0.05,0.21-0.12,0.31-0.19c0.2-0.06,0.42-0.11,0.61-0.19c8.32-3.44,16.41-7.34,24.18-11.91c5.93-3.49,11.55-7.44,16.85-11.82
		c0.03,1.78,0.19,3.55,0.26,5.33c0.05,1.44,0.07,2.88,0.16,4.32c0.25,3.76,0.43,7.52,0.52,11.29c-0.35-0.03-0.55,0.26-0.78,0.44
		c-8.59,6.45-17.94,11.58-27.67,16.06c-4.53,2.09-9.12,4.02-13.79,5.77c-0.38,0.14-0.69,0.28-0.69,0.82
		c-0.05,6.19-0.13,12.38-0.21,18.57c-3.99,1.55-8.08,2.78-12.17,4.02c-7.3,2.21-14.66,4.17-22.1,5.84
		c-3.87,0.87-7.75,1.68-11.62,2.51c-0.21,0.04-0.43,0.03-0.64,0.04C268.56,278.46,269.04,266.31,269.52,254.16z"/>
	<path class="st7" d="M269.52,254.16c-0.48,12.15-0.96,24.3-1.44,36.46c-0.07,0.01-0.1,0.04-0.11,0.11
		c-7.19,1.42-14.42,2.62-21.67,3.7c-0.3,0.04-0.61,0.03-0.92,0.05c0.33-1.87,0.13-3.75,0.17-5.62c0.08-3.76,0.12-7.51,0.2-11.27
		c0.01-0.66-0.07-0.89-0.88-0.76c-3.24,0.53-6.49,0.95-9.74,1.38c-3.34,0.44-6.69,0.85-10.03,1.27c-0.76,0.09-1.53,0.15-2.29,0.22
		c0.19-5.86,0.37-11.73,0.56-17.59c1.91-0.25,3.83-0.47,5.74-0.74c3.27-0.47,6.54-0.98,9.81-1.44c6.1-0.87,12.15-1.97,18.19-3.19
		c3.79-0.76,7.55-1.63,11.32-2.46C268.79,254.16,269.15,254.1,269.52,254.16z"/>
	<path class="st7" d="M356.82,215.59c-5.3,4.39-10.92,8.33-16.85,11.82c-7.76,4.57-15.85,8.47-24.18,11.91
		c-0.2,0.08-0.41,0.13-0.61,0.19c0-2.77-0.13-5.54,0.04-8.3c0.22-3.47,0.05-6.94,0.15-10.4c0.01-0.21-0.03-0.43-0.04-0.64
		c3.4-1.64,6.86-3.19,10.22-4.92c10.84-5.57,21.07-12.03,30.02-20.38c0.74,0.21,1.12,0.85,1.58,1.36c2.58,2.84,5.14,5.71,7.67,8.59
		c0.41,0.47,0.94,0.89,1.1,1.55c-0.84,0.97-1.67,1.96-2.54,2.91C361.33,211.52,359.05,213.53,356.82,215.59z"/>
	<path class="st7" d="M314.62,278.19c0.07-6.19,0.15-12.38,0.21-18.57c0-0.54,0.31-0.68,0.69-0.82c4.67-1.75,9.26-3.68,13.79-5.77
		c9.73-4.48,19.08-9.62,27.67-16.06c0.23-0.18,0.43-0.46,0.78-0.44c0.08,1.72,0.17,3.44,0.24,5.16c0.23,5.01,0.46,10.02,0.69,15.03
		c-4.63,3.21-9.47,6.07-14.44,8.73c-6.9,3.71-14.06,6.81-21.33,9.7C320.19,276.23,317.39,277.18,314.62,278.19z"/>
	<path class="st6" d="M358.69,256.72c-0.23-5.01-0.46-10.02-0.69-15.03c-0.08-1.72-0.16-3.44-0.24-5.16
		c-0.1-3.77-0.27-7.53-0.52-11.29c-0.1-1.44-0.11-2.88-0.16-4.32c-0.07-1.78-0.22-3.55-0.26-5.33c2.24-2.06,4.52-4.07,6.57-6.32
		c0.87-0.95,1.69-1.94,2.54-2.91c0.89,0.44,1.33,1.32,1.92,2.04c5.22,6.35,10.12,12.95,14.46,19.95c0.43,0.69,0.52,1.25,0.2,2.03
		c-2.08,5-5.08,9.39-8.64,13.43c-4.2,4.77-9.06,8.79-14.19,12.49C359.38,256.5,359.14,256.88,358.69,256.72z"/>
	<path class="st7" d="M352.63,172.48c-0.96-2.47-1.91-4.93-2.88-7.4c-0.85-2.17-1.72-4.34-2.61-6.57
		c2.98,1.15,12.94,7.39,19.32,13.26c0.28,1.95,1.05,3.77,1.6,5.65c1.09,3.73,2.26,7.44,3.4,11.16c0.03,0.11,0.02,0.24,0.03,0.37
		l-0.02,0.02c-0.57-0.04-0.67-0.59-0.98-0.91c-5.33-5.48-11.05-10.52-17.21-15.05C353.05,172.83,352.84,172.65,352.63,172.48z"/>
	<path class="st7" d="M371.48,188.94c0.04,0.07,0.09,0.14,0.13,0.21c0,0-0.04,0.03-0.07,0.05c-0.03-0.08-0.05-0.16-0.08-0.24
		C371.46,188.96,371.48,188.94,371.48,188.94z"/>
	<path class="st7" d="M109.97,130.06c-2.75,0.64-5.5,1.25-8.24,1.94c-6.47,1.63-12.87,3.51-19.17,5.71
		c-3.28,1.14-6.52,2.41-9.76,3.66c-0.58,0.23-0.87,0.16-1.15-0.42c-3.18-6.47-6.39-12.93-9.59-19.4c-0.12-0.24-0.15-0.53-0.22-0.79
		c5.26-2.32,10.69-4.18,16.18-5.85c7.12-2.16,14.34-3.92,21.66-5.24c0.18-0.03,0.35-0.11,0.53-0.17c2.15-0.35,4.3-0.73,6.45-1.05
		c3.07-0.44,6.13-0.92,9.22-1.22c2.96-0.29,5.92-0.61,8.89-0.89c1.01-0.09,2.03-0.11,3.04-0.18c2.3-0.15,4.62-0.11,6.92-0.25
		c4.01-0.25,8.01-0.15,12.02-0.12c1.5,0.01,3.01,0.17,4.52,0.14c0.53-0.01,0.65,0.32,0.81,0.71c2.38,5.52,4.78,11.03,7.17,16.54
		c-1.5,0.13-3,0.29-4.5,0.38c-5.45,0.32-10.88,0.9-16.3,1.56c-4.2,0.51-8.38,1.14-12.56,1.81
		C120.55,127.8,115.23,128.81,109.97,130.06z"/>
	<path class="st4" d="M109.97,130.06c5.26-1.25,10.58-2.26,15.91-3.12c4.17-0.67,8.36-1.3,12.56-1.81
		c5.42-0.66,10.85-1.24,16.3-1.56c1.5-0.09,3-0.25,4.5-0.38c0.1,0.13,0.2,0.26,0.3,0.39c0.56,1.32,1.12,2.64,1.68,3.96
		c1.87,4.35,3.74,8.7,5.6,13.06c-6.7,0.97-13.37,2.12-20.01,3.42c-8.99,1.75-17.9,3.8-26.73,6.22c-0.4,0.11-0.7,0.2-0.95-0.33
		c-3.02-6.53-6.06-13.06-9.09-19.58C110,130.25,109.99,130.15,109.97,130.06z"/>
	<path class="st7" d="M166.83,140.61c-1.87-4.35-3.74-8.7-5.6-13.06c-0.56-1.32-1.12-2.64-1.68-3.96c0.37-0.35,0.86-0.32,1.3-0.34
		c2.49-0.1,4.99-0.16,7.48-0.27c6.75-0.29,13.5-0.23,20.25-0.09c5.32,0.11,10.64,0.4,15.95,0.81c4.33,0.33,8.65,0.73,12.96,1.2
		c2.9,0.32,5.8,0.75,8.7,1.1c0.58,0.07,0.65,0.39,0.68,0.87c0.22,3.1,0.48,6.2,0.72,9.29c-4.07,0-8.14-0.06-12.21,0.03
		c-4.11,0.1-8.23,0.33-12.34,0.55c-2.54,0.14-5.08,0.32-7.62,0.55c-3.63,0.33-7.25,0.76-10.89,1.07c-3.39,0.28-6.76,0.79-10.14,1.16
		C171.85,139.81,169.34,140.24,166.83,140.61z"/>
	<path class="st5" d="M170.37,316.15c-3.75,0.06-7.48-0.31-11.23-0.52c-2.7-0.15-5.39-0.39-8.08-0.61c-2.68-0.22-5.36-0.6-8.04-0.86
		c-2.62-0.25-5.23-0.62-7.84-0.98c-1.55-0.21-3.09-0.45-4.64-0.66c-0.47-0.06-0.96-0.3-1.39,0.13c-0.58-0.8-1.51-0.58-2.27-0.7
		c-14.57-2.36-28.93-5.56-42.99-10.11c-8.34-2.7-16.48-5.87-24.25-9.94c-6.91-3.63-13.4-7.85-18.77-13.62
		c-0.65-0.69-0.75-1.26-0.45-2.13c1.48-4.19,3.8-7.87,6.64-11.23c1.92-2.26,4.03-4.34,6.27-6.28c0.23-0.2,0.42-0.46,0.77-0.47
		c0.72,0.45,1.52,0.76,2.28,1.13c6.44,3.1,13.11,5.63,19.88,7.89c3.35,1.12,6.7,2.22,10.13,3.06c0.05,0.04,0.08,0.09,0.08,0.16
		c0.02,2.67,0.18,5.34,0.34,8c0.13,2.24,0.16,4.49,0.22,6.73c0.01,0.37,0.07,0.73,0.13,1.09c0.07,0.44,0.24,0.59,0.67,0.7
		c2.09,0.55,4.16,1.2,6.25,1.75c5.58,1.47,11.19,2.77,16.84,3.93c4.03,0.82,8.09,1.55,12.15,2.21c1.93,0.31,3.84,0.79,5.81,0.79
		c1.48,0.41,3.02,0.51,4.53,0.72c2.91,0.41,5.84,0.77,8.76,1.09c2.1,0.24,4.22,0.41,6.33,0.59c2.91,0.25,5.81,0.5,8.72,0.72
		c1.1,0.08,2.21,0.12,3.31,0.19c2.43,0.15,4.86,0.17,7.29,0.25c0.49,0.02,1,0.09,1.47,0.07c1.18-0.07,1.29,0.49,1.27,1.48
		C170.47,305.85,170.43,311,170.37,316.15z"/>
	<path class="st4" d="M86.49,270.39c0-0.07-0.03-0.12-0.08-0.16c-0.23-5.23-0.46-10.45-0.67-15.67c-0.02-0.45-0.17-0.67-0.59-0.78
		c-5.85-1.57-11.6-3.46-17.32-5.45c0.11-0.33,0.42-0.43,0.68-0.58c5.62-3.44,11.41-6.57,17.28-9.57c0.47-0.24,0.89-0.29,1.4-0.16
		c9.38,2.42,18.85,4.38,28.42,5.91c3.88,0.62,7.77,1.22,11.68,1.67c0.33,0.04,0.66,0.16,0.98,0.24c0,0,0.03-0.02,0.03-0.02
		c0.01,2.07,0.02,4.13,0.05,6.2c0.05,3.48,0.13,6.96,0.19,10.44c-0.01,0.34-0.02,0.68-0.02,1.01c0.06,5.2,0.13,10.41,0.19,15.61
		c0,0-0.01,0.05-0.01,0.05c-0.33-0.06-0.67-0.12-1-0.17c-8.21-1.15-16.36-2.63-24.45-4.4C97.62,273.34,92.04,271.9,86.49,270.39z"/>
	<path class="st7" d="M81.31,214.87c-3.35-6.77-6.7-13.54-10.04-20.32c-0.07-0.14-0.12-0.28-0.18-0.42c2.06-1.36,4.3-2.39,6.49-3.5
		c12.89-6.49,26.25-11.89,39.85-16.68c3.69-1.3,7.38-2.58,11.12-3.72c3.03,6.53,6.07,13.06,9.1,19.59c0.14,0.3,0.34,0.58,0.35,0.94
		c-1.21,0.83-2.63,1.16-3.97,1.67c-8.16,3.12-16.28,6.32-24.36,9.66c-6.68,2.76-13.33,5.6-19.86,8.71
		C86.98,212.16,84.14,213.51,81.31,214.87z"/>
	<path class="st7" d="M67.83,248.33c5.72,1.99,11.47,3.88,17.32,5.45c0.42,0.11,0.57,0.33,0.59,0.78
		c0.21,5.23,0.44,10.45,0.67,15.67c-3.43-0.83-6.78-1.94-10.13-3.06c-6.77-2.26-13.44-4.79-19.88-7.89
		c-0.77-0.37-1.56-0.68-2.28-1.13c0.77-1.14,1.96-1.83,3.01-2.65c3.16-2.45,6.48-4.68,9.88-6.8
		C67.25,248.55,67.55,248.46,67.83,248.33z"/>
	<path class="st5" d="M129.16,314.65c0.03,0.05,0.06,0.1,0.07,0.15c0.01,0.02-0.01,0.05-0.02,0.08c-0.03-0.05-0.07-0.09-0.09-0.15
		C129.12,314.71,129.15,314.67,129.16,314.65z"/>
	<path class="st5" d="M128.71,279.08c-0.06-5.2-0.13-10.41-0.19-15.61c0-0.34,0.01-0.68,0.02-1.01c2.44,0.3,4.88,0.63,7.33,0.89
		c8.12,0.85,16.25,1.5,24.41,1.73c3.6,0.1,7.21,0.2,10.81,0.09c2.83,0.16,5.66-0.06,8.49-0.09c4.31-0.04,8.62-0.23,12.92-0.45
		c5.43-0.28,10.87-0.65,16.29-1.11c4.53-0.38,9.06-0.8,13.57-1.41c0.33-0.04,0.68-0.02,1.01-0.03c-0.19,5.86-0.37,11.73-0.56,17.59
		c-5.01,0.54-10.04,0.98-15.07,1.34c-4.21,0.3-8.41,0.55-12.62,0.75c-3.66,0.17-7.32,0.24-10.98,0.38
		c-6.13,0.23-12.27,0.19-18.4,0.08c-5.72-0.11-11.44-0.42-17.14-0.91c-6.03-0.52-12.06-1.08-18.06-1.98
		C129.93,279.24,129.32,279.17,128.71,279.08z"/>
	<path class="st7" d="M171.09,265.16c-3.6,0.11-7.21,0.01-10.81-0.09c-8.16-0.23-16.29-0.88-24.41-1.73
		c-2.45-0.26-4.89-0.59-7.33-0.89c-0.07-3.48-0.14-6.96-0.19-10.44c-0.03-2.07-0.03-4.13-0.05-6.2c1.83,0.2,3.65,0.39,5.48,0.59
		c1.55,0.17,3.1,0.36,4.66,0.49c2.9,0.26,5.8,0.49,8.7,0.72c1.16,0.09,2.33,0.12,3.49,0.17c2.58,0.1,5.16,0.18,7.74,0.28
		c4.03,0.16,8.06,0.1,12.09,0.11c0.73,0,0.86,0.27,0.85,0.92C171.22,254.45,171.16,259.81,171.09,265.16z"/>
	<path class="st7" d="M346.71,157.79c0.08,0.06,0.14,0.12,0.03,0.19c-0.01,0.01-0.08-0.06-0.12-0.1
		C346.65,157.85,346.68,157.82,346.71,157.79z"/>
	<path class="st7" d="M86.49,270.39c5.56,1.51,11.13,2.95,16.75,4.17c8.1,1.76,16.25,3.24,24.45,4.4c0.34,0.05,0.67,0.11,1,0.17
		c0.07,5.49,0.14,10.98,0.2,16.47c-1.97-0.01-3.88-0.48-5.81-0.79c-4.06-0.66-8.12-1.39-12.15-2.21
		c-5.65-1.15-11.27-2.46-16.84-3.93c-2.09-0.55-4.16-1.2-6.25-1.75c-0.43-0.11-0.6-0.26-0.67-0.7c-0.06-0.36-0.12-0.72-0.13-1.09
		c-0.06-2.24-0.09-4.49-0.22-6.73C86.67,275.73,86.51,273.07,86.49,270.39z"/>
</g>
<path class="st7" d="M221.13,332.28l45.45-5.24l1.04-18.2c0,0-37.26,5.83-46.16,5.93L221.13,332.28z"/>
<path class="st0" d="M392.59,259.45c0.38-2.11-0.01-10.19-0.01-10.19c-0.03-1.2-0.25-2.38-0.36-3.57c-0.3-3.27-0.88-6.5-1.39-9.74
	c-0.56-3.54-1.27-7.06-1.91-10.59c-1.19-6.64-2.64-13.23-4.03-19.83c-0.87-4.12-1.69-8.25-2.81-12.32
	c-0.71-0.72-0.86-1.73-1.25-2.61c-2.02-4.54-4.75-8.61-7.96-12.37c-1.82-2.13-3.72-4.19-5.84-6.03c-0.18-0.16-0.38-0.29-0.58-0.44
	c0.28,1.95,1.05,3.77,1.6,5.65c1.09,3.73,2.26,7.44,3.4,11.16c0.03,0.11,0.02,0.24,0.03,0.37c0.04,0.07,0.09,0.14,0.13,0.21
	c0,0-0.04,0.03-0.07,0.05c-0.03-0.08-0.05-0.16-0.08-0.24c-0.57-0.04-0.67-0.59-0.98-0.91c-5.33-5.48-11.05-10.52-17.21-15.05
	c-0.22-0.16-0.43-0.35-0.64-0.52c-4.5-3.28-9.11-6.4-13.89-9.29c-6.99-4.22-14.19-8.03-21.66-11.35c-5.69-2.53-11.47-4.8-17.39-6.68
	c-2.28-0.72-4.56-1.49-6.92-1.92c0.05,0.37,0.35,0.57,0.59,0.8c1.56,1.57,3.13,3.14,4.7,4.71c0.2,0.19,0.39,0.41,0.62,0.54
	c3.09,1.78,6.15,3.59,9.16,5.51c2.62,1.66,5.19,3.4,7.73,5.19c4.24,2.98,8.4,6.09,12.44,9.34c2.37,1.9,4.73,3.82,7.01,5.83
	c1.77,1.56,3.62,3.04,5.34,4.67c1.13,1.07,2.45,1.97,3.38,3.25c0.53,0.04,0.75,0.5,1.08,0.81c3.55,3.33,7.03,6.75,10.37,10.3
	c0.18,0.19,0.46,0.34,0.38,0.68c0.74,0.21,1.12,0.85,1.58,1.36c2.58,2.84,5.14,5.71,7.67,8.59c0.41,0.47,0.94,0.89,1.1,1.55
	c0.89,0.44,1.33,1.32,1.92,2.04c5.22,6.35,10.12,12.95,14.46,19.95c0.43,0.69,0.52,1.25,0.2,2.03c-2.08,5-5.08,9.39-8.64,13.43
	c-4.2,4.77-9.06,8.79-14.19,12.49c-0.27,0.2-0.52,0.57-0.96,0.41c-4.63,3.21-9.47,6.07-14.44,8.73c-6.9,3.71-14.06,6.81-21.33,9.7
	c-2.74,1.09-5.54,2.04-8.31,3.05c-3.99,1.55-8.08,2.78-12.17,4.02c-7.3,2.21-14.66,4.17-22.1,5.84c-3.87,0.87-7.75,1.68-11.62,2.51
	c-0.21,0.04-0.43,0.03-0.64,0.04c-0.07,0.01-0.1,0.04-0.11,0.11c-0.25,6.13-0.5,12.26-0.75,18.4c0.05,0.02,0.09,0.03,0.14,0.02
	c0.12-0.4,0.49-0.32,0.76-0.37c9.05-1.66,18.04-3.59,26.96-5.88c6.24-1.6,12.42-3.39,18.57-5.32c0.17-0.05,0.35-0.08,0.49-0.11
	c0,2.4,0.01,4.77,0,7.13c-0.02,2.87-0.06,5.73-0.11,8.6c-0.02,1.05-0.08,2.09-0.13,3.14c0.15-0.02,0.31-0.03,0.45-0.07
	c5.82-1.79,11.61-3.69,17.31-5.83c8.43-3.15,16.65-6.76,24.59-11.01c6.23-3.33,12.13-7.13,17.58-11.63
	c3.57-2.95,6.87-6.15,9.75-9.78c4.35-5.49,7.75-11.46,8.98-18.47C392.58,259.51,392.58,259.48,392.59,259.45z"/>
<path class="st7" d="M346.74,157.98c0,0-3.92-11.53-5.69-14.39c-0.38-0.62-18.79-7.14-57.33-6.1c2.91,3.08,6.27,3.16,6.27,3.16
	S319.7,143.48,346.74,157.98z"/>
<path class="st7" d="M227.57,136.17l0.72,11.47c0,0,25.93-3.38,39.62-3.12c13.69,0.26,30.77,4.77,30.77,4.77s-4.58-1.64-9.17-3.41
	C284.92,144.12,268.3,136.29,227.57,136.17z"/>
<path class="st7" d="M298.97,149.46c1.89,0.27-30.76-19.75-21.17-13.82C288.57,142.28,298.97,149.46,298.97,149.46
	s-74.3-80.42-208.96-62.12c8.52,18.43,10.19,22.18,10.19,22.18s98.45-21.4,189.35,36.69"/>
<path class="st7" d="M243.76,131.69"/>
<path class="st0" d="M226.2,117.04l-1.51-14.6c0,0-59.55-26.71-134.68-15.11l10.19,22.18C100.2,109.51,148.76,97.12,226.2,117.04z"
	/>
<polygon class="st0" points="226.62,126.17 226.2,117.04 205.03,109.78 196.95,117.98 "/>
</svg>
