<?xml version="1.0" encoding="utf-8"?>
<!-- Generator: Adobe Illustrator 27.0.0, SVG Export Plug-In . SVG Version: 6.00 Build 0)  -->
<svg version="1.1" id="Capa_1" xmlns="http://www.w3.org/2000/svg" xmlns:xlink="http://www.w3.org/1999/xlink" x="0px" y="0px"
	 viewBox="0 0 435 55" style="enable-background:new 0 0 435 55;" xml:space="preserve">
<style type="text/css">
	.st0{fill:#FE0000;}
</style>
<path class="st0" d="M119.64,26.3c0.66,15.16-11.72,28.01-27.63,28.7S62.65,43.96,62,28.8l0,0C61.34,13.64,73.71,0.79,89.63,0.1
	S118.99,11.14,119.64,26.3z M91.91,41.78c7.48-0.56,13.06-7.41,12.46-15.28c-0.59-7.87-7.13-13.8-14.61-13.24
	c-7.48,0.56-13.06,7.41-12.46,15.28C77.9,36.41,84.44,42.34,91.91,41.78z"/>
<path class="st0" d="M177.02,27.6l0,0.01c-0.04-15.03,12.12-27.25,27.15-27.29c0,0,0,0,0,0l2.99-0.01
	c15.03-0.04,27.25,12.12,27.29,27.15c0,0,0,0,0,0l0-0.01c0.04,15.03-12.12,27.25-27.15,27.29l0,0l-2.99,0.01
	C189.27,54.79,177.05,42.63,177.02,27.6z M206.82,41.81c7.48-0.56,13.07-7.4,12.48-15.27c-0.59-7.87-7.14-13.79-14.62-13.23
	c-7.48,0.56-13.07,7.4-12.48,15.27C192.79,36.45,199.34,42.37,206.82,41.81z"/>
<path class="st0" d="M314.25,0.5c7.35-0.01,13.64,2.14,18.86,6.43c0.26,0.21,0.3,0.46,0.12,0.74c-1.84,2.87-4.03,6.02-6.59,9.45
	c-0.25,0.34-0.55,0.4-0.91,0.17c-6.26-4.08-12.01-5.55-17.24-4.4c-0.33,0.07-0.64,0.19-0.94,0.34c-1.43,0.72-1.84,1.95-1.24,3.71
	c0.52,1.52,1.58,2.43,3.16,2.71c6.93,1.26,13.18,3.24,18.77,5.94c0.3,0.15,0.58,0.31,0.86,0.5c3.51,2.36,5.47,5.49,5.9,9.41
	c0.65,5.96-1.08,10.74-5.19,14.36c-0.25,0.22-0.51,0.42-0.78,0.61c-3.33,2.29-7,3.63-11.03,4.03c-10.5,1.04-20.13-1.55-28.91-7.76
	c-0.5-0.36-0.54-0.77-0.13-1.22c2.36-2.59,4.93-5.6,7.72-9.05c0.1-0.13,0.22-0.14,0.35-0.04c4.21,3.29,8.87,5.31,13.97,6.07
	c2.57,0.38,4.99,0.22,7.25-0.5c2.11-0.78,2.67-2.19,1.68-4.21c-0.6-1.28-2.02-2.19-4.24-2.73c-4.48-1.14-8.73-2.31-12.75-3.5
	c-4.21-1.24-7.41-3.37-9.63-6.37c-1.32-1.83-2.01-3.9-2.06-6.19c-0.58-6.37,1.52-11.26,6.31-14.69c4.57-3.26,9.8-4.55,15.69-3.87
	C313.58,0.48,313.92,0.5,314.25,0.5L314.25,0.5z"/>
<path class="st0" d="M126.25,1.07c7.54,0.42,15.21,0.48,23,0.18c5.27-0.2,10.02,0.55,14.25,2.25c3.85,1.74,6.5,4.34,7.94,7.81
	c2.1,4.38,2.35,9,0.75,13.88c-1.58,4.8-4.78,8.15-9.61,10.03c-0.41,0.17-0.49,0.44-0.23,0.8c4.23,6.04,8.32,11.93,12.29,17.68
	c0.17,0.25,0.11,0.37-0.19,0.37c-4.97-0.08-10.4-0.1-16.29-0.07c-0.22,0.01-0.39-0.09-0.52-0.27c-3.59-5.26-7.06-10.43-10.43-15.51
	c-0.09-0.14-0.22-0.21-0.39-0.22c-2.36-0.03-4.28-0.02-5.76,0.04c-0.33,0.02-0.5,0.19-0.5,0.52c-0.04,4.96-0.08,9.92-0.12,14.88
	c0,0.33-0.17,0.5-0.5,0.5c-3.98,0.07-8.48,0.09-13.49,0.06c-0.47,0-0.7-0.24-0.7-0.7c0-17.03,0-34.28,0-51.75
	C125.75,1.22,125.92,1.06,126.25,1.07z M155.56,15.19c-1.77-1.04-3.88-1.51-6.31-1.44c-2.75,0.08-5.57,0.08-8.46,0
	c-0.19,0-0.29,0.1-0.29,0.29c-0.03,4.49-0.01,8.45,0.05,11.9c0.01,0.33,0.18,0.51,0.51,0.54c2.89,0.21,6.29,0.21,10.19,0.02
	c3.11-0.09,5.2-1.26,6.25-3.5C159.1,19.59,158.46,16.99,155.56,15.19z"/>
<path class="st0" d="M240.48,1.18c14.49,0.17,28.52,0.13,42.09-0.12c0.29,0,0.44,0.14,0.44,0.43c-0.04,4.14-0.01,8.03,0.08,11.65
	c0,0.24-0.12,0.36-0.36,0.36c-9.31-0.03-18.45-0.01-27.42,0.06c-0.33,0-0.5,0.17-0.51,0.5c-0.06,1.94-0.08,4.29-0.05,7.06
	c0,0.3,0.16,0.45,0.46,0.45c8.37-0.08,16.57-0.1,24.6-0.07c0.45,0,0.68,0.23,0.69,0.68c0.03,4.1,0.01,7.64-0.06,10.64
	c-0.01,0.28-0.15,0.43-0.44,0.43c-8.48,0.03-16.67,0.01-24.56-0.06c-0.33,0-0.52,0.16-0.56,0.49c-0.17,1.49-0.21,4.03-0.11,7.61
	c0.01,0.17,0.09,0.26,0.26,0.26c9.46,0.18,18.64,0.16,27.52-0.05c0.63-0.01,0.94,0.3,0.95,0.92c0.03,4.23,0.01,7.92-0.06,11.09
	c0,0.33-0.17,0.49-0.5,0.49c-14.13,0-28.25,0-42.38,0c-0.33,0-0.5-0.16-0.5-0.49c-0.07-17.27-0.09-34.56-0.06-51.86
	C240,1.33,240.16,1.17,240.48,1.18L240.48,1.18z"/>
<path class="st0" d="M386.2,1.56c0.06,3.13,0.08,7.15,0.04,12.07c0,0.25-0.12,0.37-0.37,0.37c-4.91,0-9.89,0-14.92,0
	c-0.47,0-0.7,0.23-0.7,0.7c0,12.7,0,25.67,0,38.92c0,0.25-0.12,0.38-0.37,0.38c-5.22,0.03-9.82,0.01-13.82-0.05
	c-0.33-0.01-0.5-0.18-0.5-0.51c-0.04-12.96-0.08-25.92-0.12-38.88c0-0.33-0.17-0.5-0.5-0.51c-4.3-0.06-9.31-0.08-15.03-0.05
	c-0.25,0-0.38-0.12-0.39-0.37c-0.11-4.5-0.06-8.48,0.14-11.94c0.02-0.34,0.2-0.5,0.53-0.5c15.87,0.16,31.04,0.12,45.5-0.12
	C386.02,1.06,386.19,1.23,386.2,1.56z"/>
<path class="st0" d="M392.06,1.24c14.67,0.1,28.63,0.04,41.88-0.17c0.33-0.01,0.5,0.16,0.52,0.49c0.15,3.88,0.11,7.72-0.12,11.5
	c-0.02,0.34-0.2,0.5-0.53,0.5c-8.71-0.07-17.68-0.09-26.9-0.06c-0.44,0-0.66,0.22-0.66,0.66c0,2.39,0,4.64,0,6.74
	c0,0.54,0.27,0.8,0.81,0.78c5.17-0.3,10.48-0.36,15.94-0.18c2.49,0.08,5.11,0.06,7.88-0.07c0.69-0.06,1.05,0.26,1.06,0.96
	c0.07,2.77,0.09,6.1,0.06,9.98c-0.01,0.57-0.3,0.86-0.87,0.87c-8.55,0.1-16.57,0.04-24.07-0.16c-0.33-0.01-0.52,0.15-0.58,0.48
	c-0.3,1.94-0.38,4.46-0.23,7.54c0.02,0.21,0.13,0.32,0.33,0.33c9.78,0.27,19,0.29,27.67,0.07c0.25-0.01,0.5,0.18,0.75,0.56
	c0,3.92,0,7.83,0,11.75c-0.41,0.13-0.82,0.19-1.25,0.19c-13.9-0.16-27.74-0.18-41.51-0.06c-0.32,0-0.49-0.17-0.49-0.49
	c-0.03-17.79-0.01-35.11,0.06-51.96C391.81,1.32,391.9,1.24,392.06,1.24z"/>
<path class="st0" d="M18.29,13.48c4.55,10.38,9.29,21.09,14.23,32.14c-3.24,0-7.55,0.07-11.67,0.07c-0.27-0.22-0.58-1.21-1.8-3.6
	c0,0-0.47,0.02-1.1,0.05c-5.63-6.59-11.42-13.18-17.37-19.8C0.41,22.11,0.5,21.93,1.12,22c2.43,0,4.33-0.01,8.28-0.01
	c0.17-0.01,0.81,0.09,0.49-0.36C6.9,15,3.99,8.66,0.6,1.04C0.47,0.75,0.72,0.76,1.03,0.77c10.21,0,20.55,0,29.72,0
	c0.33-0.01,0.56-0.01,0.69,0.3c3.84,8.9,7.37,17.46,10.61,25.68c0.16,0.39,0.75,0.35,0.92-0.04c0-0.73,0.02-1.35,0-2.27
	c0-8.93-0.01-15.12-0.01-23.2c0.01-0.34,0.19-0.5,0.52-0.49c4.99,0,7.38,0.02,12.69,0.02c0.39-0.02,0.59,0,0.59,0.39
	c0,17.72,0,35.35,0,52.88c0,0.27-0.13,0.4-0.4,0.4c-5.54-0.04-10.61-0.02-15.21,0.06c-0.17,0-0.28-0.07-0.35-0.22
	c-6.1-13.99-12.08-27.61-17.95-40.86"/>
</svg>
