<?xml version="1.0" encoding="utf-8"?>
<!-- Generator: Adobe Illustrator 27.0.0, SVG Export Plug-In . SVG Version: 6.00 Build 0)  -->
<svg version="1.1" id="Capa_1" xmlns="http://www.w3.org/2000/svg" xmlns:xlink="http://www.w3.org/1999/xlink" x="0px" y="0px"
	 viewBox="0 0 1613.9 151.96" style="enable-background:new 0 0 1613.9 151.96;" xml:space="preserve">
<style type="text/css">
	.st0{fill:#FFFFFF;}
	.st1{fill:#E90202;}
	.st2{fill:#010101;}
	.st3{fill:#020202;}
	.st4{fill:#030303;}
	.st5{fill:#060606;}
</style>
<circle class="st0" cx="754.34" cy="75.98" r="75.98"/>
<g>
	<g>
		<path class="st1" d="M693.21,110.74C667.63,67.6,696.77,7.28,752.93,5.7c-0.51,4.49-3.68,17.47-9.7,33.09
			C732.51,66.57,715.82,91.3,693.21,110.74z"/>
		<path class="st1" d="M693.87,111.87c39.69-13.95,81.94-13.22,121.38-0.05c-15.47,22.35-35.43,34.47-60.91,34.47
			C726.34,146.29,705.06,129.75,693.87,111.87z"/>
		<path class="st1" d="M815.61,110.74c24.9-42.95-2.8-102.44-60.12-105.08c0.51,4.49,4.09,17.5,10.11,33.12
			C776.32,66.57,793,91.3,815.61,110.74z"/>
	</g>
</g>
<g>
	<path class="st2" d="M94.27,82.37c0-23.47,0-45.75,0-68.27c11.8,0,23.36,0,35.09,0c0,43.15,0,86.07,0,129.31
		c-10.32,0-20.58,0-31.45,0c-17.96-23-36.22-46.39-54.49-69.78c-0.29,0.13-0.58,0.25-0.86,0.38c0,23.06,0,46.13,0,69.44
		c-11.81,0-23.24,0-34.69,0c-0.95-3.9-1.36-112.72-0.44-129.31c11.06,0,22.14,0,33.65,0C58.44,36.42,76.02,58.96,94.27,82.37z"/>
	<path class="st3" d="M299.28,143.47c0-43.23,0-86.16,0-129.42c1.23-0.06,2.34-0.16,3.46-0.16c19.83-0.01,39.66,0,59.49-0.01
		c8.38,0,16.6,1.05,24.46,4.03c12.86,4.87,22.11,13.33,25.8,26.98c2.67,9.88,2.49,19.78-0.8,29.46c-2.89,8.51-8.69,14.84-16.1,19.74
		c-2.35,1.55-4.87,2.83-7.83,4.53c10.15,14.9,20.28,29.77,30.66,45c-14.09,0-27.57,0-41.54,0c-8.57-12.86-17.3-25.96-25.98-38.98
		c-5.28,0-10.24,0-15.56,0c0,12.89,0,25.66,0,38.35C331.3,143.94,310.8,144.2,299.28,143.47z M335.29,75.93
		c9.12,0,17.77,0.16,26.41-0.09c2.73-0.08,5.62-0.85,8.12-2c5.91-2.73,8.48-7.77,8.21-14.16c-0.27-6.21-3.13-10.9-9.24-12.83
		c-3.28-1.04-6.79-1.65-10.22-1.79c-6.65-0.27-13.32-0.09-19.99-0.07c-1.1,0-2.2,0.2-3.29,0.31
		C335.29,55.57,335.29,65.53,335.29,75.93z"/>
	<path class="st3" d="M858.23,13.87c1.17,0,1.97,0,2.77,0c16.49,0,32.98-0.07,49.47,0.02c12.77,0.07,25.14,2.36,36.66,8.05
		c18.94,9.35,30.09,24.49,33.22,45.48c2.12,14.19,0.46,27.83-5.94,40.73c-8.2,16.5-21.99,26.21-39.16,31.65
		c-7.16,2.27-14.57,3.6-22.03,3.71c-18.13,0.27-36.27,0.09-54.39,0.09C857.7,139.47,857.23,37.48,858.23,13.87z M894.13,111.1
		c0.32,0.24,0.59,0.6,0.86,0.6c7.8,0,15.66,0.72,23.36-0.92c11.37-2.43,20.18-8.17,24.24-19.71c1.75-4.96,1.91-10.08,1.66-15.24
		c-0.59-12.18-6.27-20.97-17.36-26.31c-10.54-5.07-21.65-3.34-32.76-3.67C894.13,67.97,894.13,89.56,894.13,111.1z"/>
	<path class="st3" d="M213.74,146.15c-20.46-0.15-38.04-7.16-52.04-22.28c-9.39-10.15-14.77-22.23-16.69-36.01
		c-4.64-33.33,15.93-66.03,51.76-74.52c23.86-5.65,45.95-1.04,64.86,15.21c12.17,10.46,19.44,23.86,21.67,39.81
		c3.3,23.59-3.57,43.82-21.18,59.89C248.55,140.65,232.19,146.4,213.74,146.15z M247.51,77.06c-0.53-2.51-0.95-6.87-2.37-10.86
		c-4.36-12.25-13.14-19.98-25.95-22.03c-12.38-1.98-23.03,2.09-30.86,12.15c-8.88,11.4-9.99,29.88-0.7,43.39
		c9.75,14.16,29.23,18.51,44.12,9.13C242.67,101.94,246.97,91.37,247.51,77.06z"/>
	<path class="st3" d="M1115.67,94.07c0-8.9,0-17.32,0-26c19.74,0,39.33,0,58.96,0c0.86,3.56,1.18,45.43,0.4,58.41
		c-12.09,9.36-25.49,16.25-41.01,18.52c-12.81,1.87-25.53,1.83-38.02-2.02c-25.01-7.72-41.07-24.25-46.28-49.91
		c-4.77-23.48,1.21-44.62,18.14-61.96c11.32-11.6,25.5-17.61,41.6-19.36c12.78-1.39,25.22-0.16,37.29,4.18
		c8.81,3.17,16.68,8.03,23.92,14.33c-7.12,8.52-14.02,16.8-20.97,25.12c-3.51-2.29-6.64-4.45-9.89-6.43
		c-8.81-5.37-18.52-6.49-28.4-4.79c-7.42,1.28-13.48,5.52-18.24,11.41c-10.2,12.63-10.89,32.5-1.4,45.63
		c6.09,8.42,14.55,12.97,24.9,13.75c7.89,0.59,15.63-0.09,22.73-4.08c0.57-0.32,1.07-0.75,1.66-1.16c0-5.03,0-10.01,0-15.6
		C1132.63,94.06,1124.24,94.09,1115.67,94.07z"/>
	<path class="st4" d="M547.36,13.99c34.64,0,68.94,0,103.23,0c0.83,3.47,1.04,23.34,0.28,30.51c-22.56,0-45.17,0-67.87,0
		c-1.14,3.36-0.42,6.52-0.55,9.61c-0.13,3.13-0.03,6.26-0.03,9.84c20.94,0,41.52,0,62.21,0c0,9.7,0,18.94,0,28.55
		c-20.72,0-41.16,0-61.91,0c0,6.79,0,13.22,0,19.88c-0.08-0.1,0.01,0.04,0.13,0.15c0.11,0.11,0.25,0.23,0.39,0.26
		c0.32,0.07,0.66,0.14,0.99,0.14c22.33,0.02,44.66,0.04,67,0.07c0.14,0,0.28,0.14,0.69,0.36c0,9.9,0,19.95,0,30.19
		c-34.81,0-69.42,0-104.04,0C546.82,139.69,546.36,32.61,547.36,13.99z"/>
	<path class="st3" d="M1501.64,143.57c-13.24,0-25.69,0-38.56,0c-3.11-7.52-6.27-15.12-9.44-22.79c-16.65,0-33.12,0-50.02,0
		c-3.03,7.47-6.12,15.1-9.23,22.77c-12.54,0-24.82,0-37.84,0c18.46-43.71,36.74-87.01,55.08-130.44c11.56,0,23.01,0,34.89,0
		C1464.77,56.29,1483.07,99.61,1501.64,143.57z M1443.18,92.5c-4.74-12.08-9.38-23.9-14.37-36.63
		c-5.05,12.72-9.74,24.52-14.55,36.63C1423.97,92.5,1433.39,92.5,1443.18,92.5z"/>
	<path class="st3" d="M534.25,45.59c-12.46,0-24.95,0-37.94,0c0,32.62,0,65.17,0,97.92c-12.22,0-23.95,0-36.04,0
		c0-32.59,0-65,0-97.85c-13.06,0-25.77,0-38.74,0c0-10.69,0-20.94,0-31.49c37.64,0,75.35,0,113.07,0
		C535.59,19.38,535.36,42.39,534.25,45.59z"/>
	<path class="st3" d="M1316.11,45.42c0,33.03,0,65.42,0,98.06c-12.09,0-23.81,0-35.93,0c0-32.53,0-64.92,0-97.79
		c-13.09,0-25.8,0-38.75,0c0-10.73,0-20.98,0-31.53c37.63,0,75.33,0,113.34,0c0,10.27,0,20.64,0,31.25
		C1342.01,45.42,1329.4,45.42,1316.11,45.42z"/>
	<path class="st4" d="M1546.21,111.96c21.28,0,41.88,0,62.74,0c0,10.66,0,21.04,0,31.59c-32.79,0-65.37,0-97.94,0
		c-0.85-3.81-1.17-118.98-0.34-129.41c11.71,0,23.44,0,35.54,0C1546.21,46.53,1546.21,78.91,1546.21,111.96z"/>
	<path class="st5" d="M996.79,14.01c12.08,0,23.87,0,35.93,0c0,43.19,0,86.24,0,129.51c-11.94,0-23.72,0-35.52,0
		C996.24,139.88,995.84,27.87,996.79,14.01z"/>
	<path class="st2" d="M1192.45,14.1c12.09,0,23.84,0,35.75,0c0,43.15,0,86.08,0,128.99c-0.15,0.12-0.28,0.22-0.41,0.32
		c-0.13,0.1-0.27,0.27-0.4,0.27c-11.48,0.01-22.96,0.01-34.41,0.01C1191.92,139.56,1191.49,32.63,1192.45,14.1z"/>
</g>
</svg>
