<?xml version="1.0" encoding="utf-8"?>
<!-- Generator: Adobe Illustrator 27.0.0, SVG Export Plug-In . SVG Version: 6.00 Build 0)  -->
<svg version="1.1" id="Capa_1" xmlns="http://www.w3.org/2000/svg" xmlns:xlink="http://www.w3.org/1999/xlink" x="0px" y="0px"
	 viewBox="0 0 720 309.3" style="enable-background:new 0 0 720 309.3;" xml:space="preserve">
<style type="text/css">
	.st0{fill:#FFFFFF;}
</style>
<path d="M-1-1.1c239.4,0,480.7,0,720.1,0c0,74.6-0.1,149.1-0.1,223.4c0,0.3,0,0.5,0,0.5c-238.3,0-479.3,0-717.9,0.1
	c-0.8,0-1.5-0.1-2-0.3C-1,148-1,73.5-1-1.1z M629,43.4c0-0.3-0.2-0.5-0.5-0.5l0,0h-10c-0.3,0-0.5,0.2-0.5,0.5l0,0v133
	c0,0.3,0.2,0.5,0.5,0.5l0,0h10c0.3,0,0.5-0.2,0.5-0.5l0,0V43.4z M57.5,43.7c0-0.3-0.2-0.5-0.5-0.5l0,0H46.5c-0.3,0-0.5,0.2-0.5,0.5
	V176c0,0.3,0.2,0.5,0.5,0.5l0,0H57c0.3,0,0.5-0.2,0.5-0.5l0,0V43.7z M123,52.1c-7.4-5.8-16.3-8.8-26.6-8.9
	c-11.2-0.1-22.4-0.1-33.7,0c-0.2,0-0.3,0.1-0.3,0.3c0,3.1,0,6.3,0,9.6c0,0.3,0.1,0.4,0.4,0.4c12.3-0.1,24.1,0,35.3,0.2
	c0.3,0,0.7,0,1,0.1c5.6,0.7,10.6,2.7,15,6c0.3,0.2,0.5,0.4,0.8,0.6c6,5.5,9,12.6,9.2,21.4c0.2,9.2-2.9,16.6-9.3,22.2
	c-4.5,3.8-9.7,6-15.7,6.5c-0.3,0-0.7,0-1,0.1c-11.7,0.2-23.4,0.3-35.2,0.3c-0.3,0-0.5,0.2-0.5,0.5c-0.1,2.5-0.1,5.6,0,9.3
	c0,0.2,0.1,0.4,0.4,0.4c11.7,0.1,23,0.1,34.1,0c10.3-0.1,19.1-3.1,26.3-9c0.3-0.2,0.5-0.4,0.8-0.6c7.6-7,11.7-16.1,12.2-27.1
	c0.4-9.7-1.8-18.2-6.8-25.4C127.3,56,125.2,53.8,123,52.1z M416.8,43.6c0-0.3-0.2-0.5-0.5-0.5h-9.5c-0.3,0-0.5,0.2-0.5,0.5V176
	c0,0.3,0.2,0.5,0.5,0.5h9.5c0.3,0,0.5-0.2,0.5-0.5V43.6z M481.8,140c0.1-11.1,0.1-22.2-0.1-33.6c-0.2-7.6-2.1-14.1-5.8-19.5
	c-0.2-0.3-0.4-0.5-0.6-0.8c-2.5-2.9-5.5-5-8.9-6.4c-4.4-1.6-9.2-2.4-14.4-2.6c-10.9-0.3-20.8,2.6-29.8,8.5c-0.3,0.2-0.4,0.4-0.4,0.8
	c-0.1,3-0.1,6.5,0,10.7c0,0.5,0.2,0.6,0.6,0.3c5.5-4.9,11.7-8.2,18.7-9.8c5.3-1.2,10.6-1.1,15.8,0.2c4.5,1,7.9,3.1,10.3,6.2
	c0.2,0.3,0.4,0.5,0.6,0.8c2.5,4.4,3.8,9.4,3.8,15.3c0,21.8,0,43.8,0,65.9c0,0.3,0.1,0.4,0.4,0.4c3.2,0,6.4,0,9.5,0
	c0.3,0,0.4-0.1,0.4-0.4C481.6,163.8,481.8,151.8,481.8,140z M223,85.9c-1.5-1.4-3-2.5-4.6-3.4c-5.8-2.9-12.1-4.5-18.9-4.8
	c-10.3-0.4-19.5,1.7-27.7,6.3c-3.9,2.3-7.7,5.4-11.3,9.4c-0.2,0.2-0.2,0.4,0,0.6c1.9,2.1,3.9,4.3,6.2,6.7c0.3,0.3,0.6,0.3,0.9,0
	c2.4-2.5,5.2-4.8,8.4-7.1c5.9-4.2,12.4-6.4,19.6-6.7c4.4-0.2,8.5,0.4,12.3,1.8c4,1.3,7.2,3.5,9.7,6.6c3.1,3.9,4.6,8.8,4.6,14.4
	c-0.2,22.2-0.1,44.3,0.2,66.1c0,0.3,0.2,0.5,0.5,0.5c3,0.2,6,0.3,9,0.1c0.3,0,0.5-0.2,0.6-0.5c0.3-1.8,0.3-3.7,0-5.7
	c0-0.3-0.1-0.7-0.1-1c0.2-19.1,0.3-38.5,0.2-58c0.1-4.6-0.3-8.6-1.2-12C229.8,93.6,227,89.2,223,85.9z M313.9,93.4
	c-7.1,8.6-11,18.8-11.6,30.5c0,0.3,0.1,0.5,0.5,0.5c3.3,0.1,6.6,0.1,9.9,0c0.3,0,0.5-0.2,0.5-0.5c0.6-8.5,3.2-16.1,7.8-22.7
	c0.2-0.3,0.4-0.5,0.6-0.8c6.3-7.7,14.6-12,24.9-12.9c6.9-0.6,13.2,0.6,18.9,3.8c3.6,2.1,6.8,5.1,9.6,9c0.2,0.3,0.4,0.3,0.7,0.1
	c3.1-2.6,5.4-4.7,6.9-6.2c0.2-0.2,0.2-0.5,0.1-0.8c-4.8-6.3-10.7-10.8-18-13.4c-5.9-2-12.3-2.8-19.2-2.3c-7.2,0.5-13.9,2.5-20.1,5.9
	C320.9,86.3,317.1,89.5,313.9,93.4z M577.3,86.4c-5.7-4.9-12.7-7.7-21.2-8.5c-10.5-0.9-20,0.7-28.5,4.9c-5,2.6-9.5,6.1-13.3,10.4
	c-0.4,0.4-0.4,0.8,0,1.2c2.3,2.3,4.3,4.5,6,6.5c0.3,0.3,0.5,0.3,0.8,0c4.4-4.6,9.1-8.1,14.3-10.5c5-2.4,10.2-3.5,15.7-3.3
	c5.1,0.1,9.7,1.2,13.9,3.3c3.5,1.8,6.1,4.3,8,7.8c1.9,3.6,2.8,7.5,2.8,11.9c0,21.8,0,43.8,0,66c0,0.2,0.1,0.2,0.2,0.2
	c4-0.1,7.1,0,9.4,0.1c0.3,0,0.5-0.1,0.5-0.5c0-22.1,0-44.3,0.1-66.7c-0.1-2.9-0.4-5.4-0.8-7.8C584.3,95.4,581.7,90.3,577.3,86.4z
	 M275,80.2c0-0.1-0.1-0.2-0.2-0.2h-10.5c-0.1,0-0.2,0.1-0.2,0.2v96.5c0,0.1,0.1,0.2,0.2,0.2h10.5c0.1,0,0.2-0.1,0.2-0.2V80.2z
	 M672,80.2c0-0.2-0.1-0.3-0.3-0.3h-10.4c-0.2,0-0.3,0.1-0.3,0.3v96.4c0,0.2,0.1,0.3,0.3,0.3h10.4c0.2,0,0.3-0.1,0.3-0.3V80.2z
	 M189.5,168.9c-5.6-0.6-10.5-2.3-14.6-5c-0.3-0.2-0.6-0.4-0.8-0.6c-5.4-4.3-7.9-10.2-7.7-17.6c0.3-7.7,3.5-13.6,9.8-17.7
	c5.1-3.4,11-4.9,17.4-4.6c8.1,0.5,15.6,2.9,22.5,7.4c0.5,0.3,0.7,0.2,0.7-0.4c0-3.3,0-7,0-10.9c0-0.5-0.2-0.9-0.7-1.1
	c-7.3-3.3-15-4.9-23.3-5c-7.7,0-14.8,1.7-21.2,5.3c-5.5,2.9-9.6,7-12.5,12.2c-2.7,5-4,10.4-3.8,16.2c0.1,9.4,3.5,17,10.3,22.9
	c6.9,6,15.2,8.9,24.9,8.6c9.4-0.1,17.7-2.4,24.9-6.7c0.8-0.5,1.2-1.2,1.3-2.2c0.2-4,0.1-7.3-0.1-9.8c0-0.3-0.2-0.4-0.4-0.2
	c-6.2,5.1-13.3,8.1-21.4,9.2C193.1,169.1,191.3,169.1,189.5,168.9z M517.4,125.1c-5,5.3-7.8,11.8-8.2,19.6
	c-0.5,9.5,2.3,17.4,8.6,23.9c0.2,0.2,0.5,0.5,0.7,0.7c7,6.2,15.4,9.4,25.2,9.4c9.9,0,18.6-2.3,26-7.1c0.3-0.2,0.4-0.4,0.5-0.8
	c0.6-4.5,0.6-8.1,0.1-11c-0.1-0.3-0.2-0.4-0.5-0.2c-4.8,3.8-10.3,6.5-16.4,8.2c-6.5,1.8-13.2,1.3-20.1-1.4c-3.8-1.4-6.9-3.8-9.2-7
	c-2.5-3.4-3.8-7.4-3.9-11.8c-0.2-4.3,0.7-8.3,2.7-12.1c1.8-3.5,4.5-6.2,7.9-8.1c5.1-3.1,10.7-4.4,16.9-4.1
	c7.8,0.4,15.3,2.9,22.3,7.4c0.5,0.3,0.7,0.2,0.7-0.4c0-3.3,0-6.8,0-10.4c0-0.8-0.4-1.3-1.1-1.7c-10.4-4.6-20.8-6-31.4-4.2
	C529.7,115.7,522.8,119.3,517.4,125.1z M123.5,176.2c4.2,0.2,8.8,0.3,13.8,0.2c0.5,0,0.6-0.2,0.3-0.6
	c-11.4-16.5-22.8-33.1-34.1-49.8c-0.3-0.4-0.7-0.6-1.1-0.6c-4.1,0-8.2,0-12.2,0c-0.4,0-0.5,0.2-0.3,0.5c10.8,16.4,21.9,33,33.1,50
	C123.1,176.1,123.3,176.2,123.5,176.2z M380.8,164.7c0.7-0.8,1.3-1.6,2-2.4c0.1-0.1,0.1-0.3,0-0.4c-2.3-2-4.4-3.8-6.4-5.6
	c-0.5-0.5-1-0.4-1.4,0.1c-6,7.8-13.6,11.9-22.9,12.4c-9.2,0.5-17.2-1.8-23.9-6.8c-2.9-2.1-5.5-4.8-7.8-8.2c-4.6-7.1-7-15-7.1-23.6
	c0-0.3-0.2-0.5-0.5-0.5c-3.2,0.2-6.5,0.2-9.9,0.2c-0.3,0-0.5,0.2-0.5,0.5c0.1,8.9,2.3,17.4,6.7,25.4c5.3,9.6,13.1,16.3,23.2,20
	c7,2.5,14.3,3.3,21.7,2.6C364.9,177.3,373.8,172.8,380.8,164.7z"/>
<path class="st0" d="M719,222.9c0,103.6,0.1-17.5,0.1,86.1c-0.8,0-0.7,0-1.2,0c-239.4-0.1-478.8-0.1-718.2,0c-0.2,0-0.4,0.1-0.5,0.4
	c0-28.9,0-57.8,0-86.8c0.5,0.2,1.2,0.3,2,0.3c238.7-0.1,477.2-0.1,715.4-0.1 M225.9,243.1c-1.8,0-3.6,0.1-5.4,0.1
	c-0.3,0-0.5,0.2-0.6,0.5c0,0.4,0,1.1,0,2.1c0,0.7,0.4,1,1.1,1c5.1,0,10.7,0,16.8,0c0.3,0,0.5-0.2,0.5-0.5c0.1-1,0.1-1.9,0-2.7
	c0-0.3-0.2-0.5-0.5-0.5c-2.3,0-4.5-0.1-6.8-0.2c-0.3,0-0.5-0.2-0.5-0.5c0.1-3,0.1-6.1,0-9.2c0-0.3-0.2-0.5-0.5-0.5
	c-1-0.1-2.1-0.1-3.1,0c-0.3,0-0.5,0.2-0.5,0.5c0,3.1-0.1,6.3-0.1,9.4C226.4,242.9,226.3,243.1,225.9,243.1z M34.8,244.9
	c-3.6-2.4-7.7-3.1-12.3-2.2c-2.6,0.5-4.8,1.3-6.8,2.5c-0.3,0.2-0.4,0.4-0.4,0.8c-0.1,1-0.1,2.4,0,4c0,0.5,0.2,0.5,0.5,0.2
	c2.4-1.8,5.2-2.9,8.4-3.4c3.3-0.5,6.1,0.2,8.5,2.1c1.5,1.5,2.1,3.6,2.1,6.4c-0.3,8.3-0.3,16.8,0,25.4c0,0.7,0.3,1,1,0.9
	c1.1-0.1,1.8-0.1,2.2,0.1c0.7,0.3,1,0.1,1-0.6c0-9.8,0-19.3,0-28.5c0-0.3,0-0.7-0.1-1C38.6,248.7,37.2,246.5,34.8,244.9z
	 M120.7,278.5c2.8,2.4,6,3.8,9.8,4.1c0.3,0,0.6-0.1,0.7-0.4c0.4-0.9,0.4-1.8,0-2.7c-0.1-0.3-0.4-0.5-0.7-0.5
	c-4.2-0.5-7.4-2.7-9.7-6.8c-2.7-4.8-3.3-9.9-1.8-15.2c0.4-1.9,1.2-3.6,2.3-5.2c2.3-3.3,5.4-5.2,9.3-5.7c0.3,0,0.5-0.2,0.6-0.6
	c0.2-0.5,0.2-1.5,0-2.8c0-0.3-0.2-0.4-0.5-0.4c-5.1,0.5-9.1,2.5-12.1,6.1c-3.4,4.2-5,9.2-4.7,15.1
	C114.3,269.8,116.5,274.8,120.7,278.5z M144.8,247.1c-2.7-2.7-6.2-4.2-10.4-4.7c-0.5-0.1-0.9,0.2-1,0.7c-0.4,1.9,0.1,2.9,1.3,3.1
	c3.8,0.4,6.8,2.4,8.9,6.1c2.3,4,3.2,8.3,2.6,12.9c-0.3,3.3-1.4,6.2-3.3,8.7c-2.4,3.1-5.3,4.8-8.9,5.1c-0.3,0-0.6,0.2-0.8,0.4
	c-0.2,0.3-0.2,0.7,0.1,1.3c0.1,0.3,0.1,0.6-0.1,0.9c-0.3,0.8-0.1,1.1,0.7,1.1c5.9-0.4,10.4-3,13.4-7.8c2.6-4.1,3.7-8.7,3.3-13.9
	C150.3,255.2,148.3,250.6,144.8,247.1z M394.5,261c0.3,0,0.4-0.1,0.4-0.4c0.2-2.4,0.8-4.8,1.9-6.9c2.2-4.5,5.9-7,11.2-7.6
	c4.4-0.5,8,0.9,10.7,4.1c0.5,0.5,1,0.6,1.7,0.3c1.4-0.7,2.2-1.3,2.2-1.6c0.1-0.3,0-0.6-0.3-0.9c-4.3-4.8-9.9-6.6-16.9-5.4
	c-4.2,0.7-7.7,2.8-10.7,6.3c-2.6,3.3-4,7.1-4.2,11.3c0,0.4,0.2,0.7,0.6,0.6C392.4,260.9,393.5,260.9,394.5,261z M601.5,245.1
	c-2-1.5-4.4-2.4-7.1-2.7c-6.4-0.8-12.1,1.1-17.1,5.7c-0.2,0.2-0.2,0.4-0.1,0.7c0.8,1.5,1.6,2.3,2.2,2.5c0.3,0.1,0.6,0,0.8-0.2
	c3.2-3.3,6.9-5,11.2-5.1c2.9-0.2,5.4,0.6,7.4,2.3c2,1.9,2.9,4.5,2.8,7.9c-0.3,8.5-0.3,16.8,0.1,24.9c0,0.3,0.2,0.5,0.5,0.5
	c0.8,0,2,0.1,3.4,0c0.2,0,0.3-0.1,0.3-0.3c0.1-9,0.1-17.9,0-26.7C605.9,250.4,604.5,247.2,601.5,245.1z M684.2,260
	c3.5,2,7.3,3.4,11.6,4.2c2.1,0.4,4,1.2,5.8,2.2c2.6,1.4,3.6,3.4,3.2,6.1c-0.6,3.6-3.3,5.9-8,6.6c-0.6,0.1-1,0.5-1.1,1.1
	c-0.3,2.1,0,3,1.2,2.5c0.3-0.1,0.6-0.2,1-0.2c4.2-0.3,7.3-2,9.4-5.3c1.5-2.1,2-4.6,1.6-7.4c-0.5-3.4-2.5-5.8-5.8-7.2
	c-2.6-1.1-5.2-2-7.7-2.6c-3.2-0.7-6-1.8-8.3-3c-0.3-0.1-0.6-0.3-0.8-0.5c-1.7-1.4-2.2-3.1-1.4-5.3c1.1-3,3.5-4.7,7.3-5.1
	c0.6-0.1,1-0.4,1-1c0.2-1.3,0.3-2.1,0.2-2.2c-0.1-0.3-0.4-0.4-0.7-0.4c-2.1,0.2-4.1,0.6-5.9,1.4c-3.6,1.5-5.7,4.1-6.2,7.8
	C680,255.4,681.1,258.2,684.2,260z M705.8,250.4c1-0.9,1.5-1.7,1.7-2.3c0.1-0.3,0-0.6-0.2-0.8c-2.8-2.8-6.4-4.4-10.8-4.9
	c-0.5-0.1-0.8,0.2-0.9,0.6c-0.4,2.2-0.1,3.2,1,3c0.3-0.1,0.7,0,1,0c2.8,0.6,5.4,2.1,7.7,4.3C705.5,250.6,705.8,250.6,705.8,250.4z
	 M316,243.4c0-0.2-0.2-0.4-0.4-0.4h-4.1c-0.2,0-0.4,0.2-0.4,0.4v38.1c0,0.2,0.2,0.4,0.4,0.4h4.1c0.2,0,0.4-0.2,0.4-0.4V243.4z
	 M501,243.4c0-0.2-0.2-0.4-0.4-0.4h-4.1c-0.2,0-0.4,0.2-0.4,0.4v38.1c0,0.2,0.2,0.4,0.4,0.4h4.1c0.2,0,0.4-0.2,0.4-0.4V243.4z
	 M13.2,243.7c0-0.3-0.2-0.5-0.5-0.5l0,0H9.1c-0.3,0-0.5,0.2-0.5,0.5l0,0v37.7c0,0.3,0.2,0.5,0.5,0.5l0,0h3.6c0.3,0,0.5-0.2,0.5-0.5
	l0,0C13.2,281.4,13.2,243.7,13.2,243.7z M229.7,281.5c3.6,2,7,1.8,10.2-0.7c0.3-0.2,0.4-0.5,0.4-0.8s-0.3-1-1.1-2.2
	c-0.1-0.2-0.3-0.3-0.6-0.2c-1.2,0.7-2.1,1.2-2.9,1.3c-2.7,0.5-4.3-0.6-4.8-3.1c-0.1-0.3-0.1-0.7-0.1-1c0-8.4-0.1-16.8-0.1-25.1
	c0-0.3-0.2-0.6-0.4-0.7c-0.4-0.2-1.3-0.2-2.9,0c-0.6,0.1-0.8,0.4-0.8,1c-0.1,8.5-0.1,16.9,0,25.2
	C226.5,278.2,227.5,280.3,229.7,281.5z M579.4,279.2c1.5,1.5,3.3,2.5,5.3,2.9c5.5,1.3,10.3,0.6,14.4-2.2c0.3-0.2,0.5-0.4,0.5-0.8
	c0.1-0.5,0.1-1.7,0-3.5c0-0.5-0.3-0.6-0.7-0.3c-5,3.4-9.8,4.1-14.3,2.3c-0.3-0.1-0.6-0.3-0.9-0.4c-3.7-2.1-5.1-5.2-4.1-9.4
	c0.9-4,3.5-6.4,7.9-7.1c3.9-0.6,7.7,0.2,11.4,2.3c0.3,0.2,0.5,0.1,0.6-0.2c0.3-1.1,0.3-2.4,0-3.8c-0.1-0.3-0.3-0.5-0.6-0.7
	c-1.8-0.8-4-1.4-6.6-1.8c-5-0.6-9.2,0.5-12.7,3.3c-3.6,2.8-5.1,6.6-4.6,11.2C575.7,274.6,577,277.3,579.4,279.2z M397.2,278.2
	c3.6,3.2,8,4.7,13.3,4.4c5.2-0.3,9.1-2.3,12-6.1c0.2-0.3,0.2-0.5,0-0.8c-0.8-0.9-1.5-1.5-2.2-1.8c-0.3-0.1-0.6-0.1-0.8,0.2
	c-2.8,3.3-6.4,4.8-10.7,4.6c-4.5-0.2-8.1-2.1-10.7-5.6c-1.8-2.5-2.8-5.6-3.1-9.3c0-0.4-0.3-0.6-0.7-0.6c-1.5,0-2.5,0-3.2,0
	c-0.3,0-0.5,0.2-0.5,0.5C390.8,269.7,393,274.5,397.2,278.2z M681.8,278.5c3.2,2.7,6.8,4.1,11,4.1c0.3,0,0.6-0.1,0.7-0.4
	c0.4-0.8,0.4-1.6,0-2.5c-0.1-0.3-0.4-0.5-0.7-0.5c-4.1-0.4-7.5-2.2-10.3-5.2c-0.2-0.2-0.5-0.2-0.7,0c-0.5,0.4-1.1,1.2-1.9,2.4
	C679.6,276.6,680.3,277.3,681.8,278.5z"/>
<path class="st0" d="M618.5,42.9h10c0.3,0,0.5,0.2,0.5,0.5v133c0,0.3-0.2,0.5-0.5,0.5h-10c-0.3,0-0.5-0.2-0.5-0.5v-133
	C618,43.2,618.2,42.9,618.5,42.9z"/>
<path class="st0" d="M46.5,43.2H57c0.3,0,0.5,0.2,0.5,0.5V176c0,0.3-0.2,0.5-0.5,0.5H46.5c-0.3,0-0.5-0.2-0.5-0.5V43.7
	C46,43.4,46.2,43.2,46.5,43.2z"/>
<path class="st0" d="M62.8,43.2c11.3-0.1,22.5-0.1,33.7,0c10.3,0.1,19.1,3.1,26.6,8.9c2.1,1.7,4.3,3.9,6.4,6.6
	c5,7.2,7.3,15.7,6.8,25.4c-0.5,11-4.6,20.1-12.2,27.1c-0.2,0.2-0.5,0.4-0.8,0.6c-7.2,5.9-16,8.9-26.3,9c-11.1,0.1-22.5,0.1-34.1,0
	c-0.2,0-0.4-0.1-0.4-0.4c0-3.7,0-6.8,0-9.3c0-0.3,0.2-0.5,0.5-0.5c11.8,0,23.5-0.1,35.2-0.3c0.3,0,0.7,0,1-0.1
	c6-0.5,11.2-2.7,15.7-6.5c6.4-5.6,9.5-13,9.3-22.2c-0.2-8.7-3.2-15.8-9.2-21.4c-0.2-0.2-0.5-0.4-0.8-0.6c-4.4-3.3-9.4-5.3-15-6
	c-0.3,0-0.7-0.1-1-0.1c-11.3-0.3-23.1-0.4-35.3-0.2c-0.3,0-0.4-0.1-0.4-0.4c0-3.2,0-6.4,0-9.6C62.5,43.3,62.6,43.2,62.8,43.2z"/>
<path class="st0" d="M406.8,43.2h9.5c0.3,0,0.5,0.2,0.5,0.5V176c0,0.3-0.2,0.5-0.5,0.5h-9.5c-0.3,0-0.5-0.2-0.5-0.5V43.7
	C406.3,43.4,406.5,43.2,406.8,43.2z"/>
<path class="st0" d="M452,77.2c5.2,0.1,10.1,1,14.4,2.6c3.4,1.4,6.4,3.5,8.9,6.4c0.2,0.2,0.4,0.5,0.6,0.8c3.7,5.4,5.6,11.9,5.8,19.5
	c0.2,11.3,0.2,22.5,0.1,33.6c-0.1,11.8-0.2,23.8-0.1,36c0,0.3-0.1,0.4-0.4,0.4c-3.1,0-6.2,0-9.5,0c-0.3,0-0.4-0.1-0.4-0.4
	c0-22.1,0-44,0-65.9c0-5.8-1.3-10.9-3.8-15.3c-0.2-0.3-0.4-0.6-0.6-0.8c-2.4-3.1-5.8-5.2-10.3-6.2c-5.3-1.3-10.5-1.4-15.8-0.2
	c-6.9,1.6-13.2,4.8-18.7,9.8c-0.4,0.3-0.6,0.2-0.6-0.3c0-4.2,0-7.7,0-10.7c0-0.3,0.1-0.6,0.4-0.8C431.2,79.7,441.1,76.9,452,77.2z"
	/>
<path class="st0" d="M199.5,77.7c6.9,0.3,13.2,1.9,18.9,4.8c1.6,0.9,3.1,2,4.6,3.4c4,3.3,6.7,7.8,8.2,13.3c0.9,3.4,1.3,7.4,1.2,12
	c0.1,19.5,0,38.9-0.2,58c0,0.3,0,0.7,0.1,1c0.3,2,0.3,3.9,0,5.7c-0.1,0.3-0.2,0.5-0.6,0.5c-3,0.2-6,0.1-9-0.1
	c-0.3,0-0.5-0.2-0.5-0.5c-0.3-21.8-0.4-43.8-0.2-66.1c0.1-5.7-1.5-10.5-4.6-14.4c-2.5-3.1-5.7-5.3-9.7-6.6
	c-3.8-1.3-7.9-1.9-12.3-1.8c-7.1,0.3-13.7,2.5-19.6,6.7c-3.2,2.3-6,4.6-8.4,7.1c-0.3,0.3-0.6,0.3-0.9,0c-2.2-2.4-4.3-4.6-6.2-6.7
	c-0.2-0.2-0.2-0.4,0-0.6c3.7-4,7.5-7.1,11.3-9.4C180,79.4,189.2,77.3,199.5,77.7z"/>
<path class="st0" d="M364.8,80c7.2,2.6,13.2,7,18,13.4c0.2,0.3,0.2,0.5-0.1,0.8c-1.5,1.5-3.8,3.6-6.9,6.2c-0.3,0.2-0.5,0.2-0.7-0.1
	c-2.8-3.9-6-6.9-9.6-9c-5.8-3.2-12.1-4.4-18.9-3.8c-10.2,0.9-18.5,5.3-24.9,12.9c-0.2,0.3-0.4,0.5-0.6,0.8
	c-4.6,6.6-7.2,14.2-7.8,22.7c0,0.3-0.2,0.5-0.5,0.5c-3.3,0.1-6.6,0.1-9.9,0c-0.3,0-0.5-0.2-0.5-0.5c0.6-11.7,4.5-21.9,11.6-30.5
	c3.2-3.9,7-7.1,11.5-9.8c6.2-3.5,12.9-5.4,20.1-5.9C352.3,77.2,358.8,78,364.8,80z"/>
<path class="st0" d="M556,77.9c8.5,0.8,15.6,3.6,21.2,8.5c4.3,4,7,9,7.9,15.1c0.4,2.3,0.6,4.9,0.8,7.8c-0.1,22.4-0.1,44.6-0.1,66.7
	c0,0.3-0.2,0.5-0.5,0.5c-2.3-0.2-5.5-0.2-9.4-0.1c-0.2,0-0.2-0.1-0.2-0.2c0-22.2,0-44.2,0-66c0-4.4-0.9-8.4-2.8-11.9
	c-1.9-3.4-4.5-6-8-7.8c-4.2-2.2-8.9-3.3-13.9-3.3c-5.5-0.2-10.7,0.9-15.7,3.3c-5.1,2.5-9.9,6-14.3,10.5c-0.3,0.3-0.6,0.3-0.8,0
	c-1.7-2-3.7-4.1-6-6.5c-0.4-0.4-0.4-0.8,0-1.2c3.9-4.3,8.3-7.7,13.3-10.4C536.2,78.5,545.7,76.9,556,77.9z"/>
<path class="st0" d="M264.2,79.9h10.5c0.1,0,0.2,0.1,0.2,0.2v96.5c0,0.1-0.1,0.2-0.2,0.2h-10.5c-0.1,0-0.2-0.1-0.2-0.2V80.1
	C264,80,264.1,79.9,264.2,79.9z"/>
<path class="st0" d="M270.2,55.2h10.5c0.1,0,0.2,0.1,0.2,0.2l-6,16.5c0,0.1-0.1,0.2-0.2,0.2h-10.5c-0.1,0-0.2-0.1-0.2-0.2l6-16.5
	C270,55.3,270.1,55.2,270.2,55.2z"/>
<path class="st0" d="M661.3,79.9h10.4c0.2,0,0.3,0.1,0.3,0.3v96.4c0,0.2-0.1,0.3-0.3,0.3h-10.4c-0.2,0-0.3-0.1-0.3-0.3V80.2
	C661,80.1,661.1,79.9,661.3,79.9z"/>
<path class="st0" d="M193,113.4c8.2,0,16,1.7,23.3,5c0.5,0.2,0.7,0.6,0.7,1.1c0,3.9,0,7.6,0,10.9c0,0.6-0.2,0.7-0.7,0.4
	c-6.9-4.5-14.4-6.9-22.5-7.4c-6.5-0.4-12.3,1.1-17.4,4.6c-6.3,4.1-9.5,10-9.8,17.7c-0.3,7.5,2.3,13.4,7.7,17.6
	c0.3,0.2,0.5,0.4,0.8,0.6c4.1,2.7,8.9,4.3,14.6,5c1.7,0.2,3.5,0.2,5.4,0.1c8-1,15.1-4.1,21.4-9.2c0.3-0.2,0.4-0.2,0.4,0.2
	c0.3,2.5,0.3,5.8,0.1,9.8c0,1-0.5,1.7-1.3,2.2c-7.2,4.4-15.5,6.6-24.9,6.7c-9.7,0.3-18-2.5-24.9-8.6c-6.8-5.9-10.2-13.5-10.3-22.9
	c-0.2-5.8,1.1-11.2,3.8-16.2c2.9-5.2,7-9.3,12.5-12.2C178.2,115.1,185.3,113.4,193,113.4z"/>
<path class="st0" d="M569.7,118.4c0.7,0.3,1.1,0.9,1.1,1.7c0,3.6,0,7.1,0,10.4c0,0.6-0.2,0.7-0.7,0.4c-7-4.5-14.4-7-22.3-7.4
	c-6.2-0.4-11.9,1-16.9,4.1c-3.4,2-6,4.7-7.9,8.1c-2,3.8-2.9,7.8-2.7,12.1c0.1,4.4,1.4,8.4,3.9,11.8c2.4,3.2,5.4,5.6,9.2,7
	c6.8,2.7,13.5,3.2,20.1,1.4c6.1-1.6,11.6-4.4,16.4-8.2c0.3-0.2,0.4-0.1,0.5,0.2c0.6,2.8,0.5,6.5-0.1,11c0,0.3-0.2,0.6-0.5,0.8
	c-7.5,4.7-16.1,7.1-26,7.1c-9.8,0-18.2-3.1-25.2-9.4c-0.2-0.2-0.5-0.4-0.7-0.7c-6.3-6.5-9.1-14.5-8.6-23.9
	c0.4-7.7,3.2-14.2,8.2-19.6c5.2-5.8,12.2-9.4,20.8-10.9C548.8,112.3,559.3,113.7,569.7,118.4z"/>
<path class="st0" d="M90.1,125.4c4.1,0,8.1,0,12.2,0c0.5,0,0.9,0.2,1.1,0.6c11.4,16.7,22.8,33.3,34.1,49.8c0.3,0.4,0.2,0.6-0.3,0.6
	c-5,0.1-9.5,0.1-13.8-0.2c-0.2,0-0.4-0.1-0.5-0.3c-11.2-16.9-22.3-33.6-33.1-50C89.6,125.6,89.7,125.4,90.1,125.4z"/>
<path class="st0" d="M313.2,130.2c0.1,8.7,2.5,16.5,7.1,23.6c2.2,3.4,4.8,6.2,7.8,8.2c6.7,5,14.7,7.3,23.9,6.8
	c9.3-0.5,17-4.6,22.9-12.4c0.4-0.5,0.9-0.6,1.4-0.1c2,1.8,4.2,3.6,6.4,5.6c0.1,0.1,0.1,0.2,0,0.4c-0.7,0.8-1.4,1.6-2,2.4
	c-7,8-15.9,12.6-26.8,13.7c-7.4,0.8-14.6-0.1-21.7-2.6c-10.2-3.7-17.9-10.4-23.2-20c-4.4-8-6.7-16.5-6.7-25.4c0-0.3,0.2-0.5,0.5-0.5
	c3.4,0,6.6-0.1,9.9-0.2C313,129.7,313.2,129.9,313.2,130.2z"/>
<path d="M227,232.7c1-0.1,2.1-0.1,3.1,0c0.3,0,0.5,0.2,0.5,0.5c0.1,3.2,0.1,6.2,0,9.2c0,0.3,0.2,0.5,0.5,0.5
	c2.2,0.2,4.5,0.2,6.8,0.2c0.3,0,0.5,0.2,0.5,0.5c0.1,0.8,0.1,1.7,0,2.7c0,0.3-0.2,0.5-0.5,0.5c-6.1,0-11.7,0-16.8,0
	c-0.7,0-1-0.3-1.1-1c0-1.1,0-1.8,0-2.1c0-0.3,0.2-0.5,0.6-0.5c1.8,0,3.6-0.1,5.4-0.1c0.3,0,0.5-0.2,0.5-0.5c0-3.1,0.1-6.3,0.1-9.4
	C226.5,232.9,226.7,232.7,227,232.7z"/>
<path d="M34.8,244.9c2.4,1.6,3.8,3.9,4.1,6.8c0,0.3,0.1,0.7,0.1,1c0,9.2,0,18.7,0,28.5c0,0.7-0.3,0.9-1,0.6
	c-0.4-0.2-1.1-0.2-2.2-0.1c-0.7,0.1-1-0.2-1-0.9c-0.3-8.6-0.3-17.1,0-25.4c0.1-2.8-0.6-5-2.1-6.4c-2.4-1.9-5.2-2.6-8.5-2.1
	c-3.2,0.5-6,1.6-8.4,3.4c-0.4,0.3-0.5,0.2-0.5-0.2c0-1.7,0-3,0-4c0-0.3,0.2-0.6,0.4-0.8c1.9-1.2,4.2-2,6.8-2.5
	C27.1,241.8,31.2,242.5,34.8,244.9z"/>
<path d="M131.2,242.7c0.1,1.3,0.1,2.3,0,2.8c-0.1,0.3-0.3,0.5-0.6,0.6c-3.8,0.5-6.9,2.3-9.3,5.7c-1.1,1.6-1.9,3.3-2.3,5.2
	c-1.5,5.4-1,10.5,1.8,15.2c2.3,4,5.5,6.3,9.7,6.8c0.3,0,0.6,0.2,0.7,0.5c0.4,0.9,0.4,1.8,0,2.7c-0.1,0.3-0.4,0.5-0.7,0.4
	c-3.7-0.3-7-1.7-9.8-4.1c-4.1-3.7-6.4-8.7-6.7-15.1c-0.3-5.9,1.3-10.9,4.7-15.1c2.9-3.5,7-5.5,12.1-6.1
	C131,242.3,131.2,242.4,131.2,242.7z"/>
<path d="M134.4,242.4c4.2,0.5,7.7,2.1,10.4,4.7c3.5,3.5,5.5,8.1,5.9,13.8c0.4,5.2-0.7,9.9-3.3,13.9c-3.1,4.8-7.5,7.4-13.4,7.8
	c-0.8,0.1-1.1-0.3-0.7-1.1c0.2-0.3,0.2-0.6,0.1-0.9c-0.3-0.6-0.3-1.1-0.1-1.3c0.2-0.3,0.5-0.4,0.8-0.4c3.6-0.3,6.5-2,8.9-5.1
	c1.9-2.5,3-5.4,3.3-8.7c0.6-4.6-0.2-8.9-2.6-12.9c-2.1-3.6-5.1-5.6-8.9-6.1c-1.3-0.1-1.7-1.2-1.3-3.1
	C133.5,242.6,133.8,242.3,134.4,242.4z"/>
<path d="M422.6,249c-0.1,0.3-0.8,0.9-2.2,1.6c-0.6,0.3-1.2,0.2-1.7-0.3c-2.7-3.2-6.3-4.6-10.7-4.1c-5.3,0.5-9,3.1-11.2,7.6
	c-1,2.2-1.7,4.5-1.9,6.9c0,0.3-0.2,0.4-0.4,0.4c-1-0.1-2.1-0.1-3.2-0.1c-0.4,0-0.7-0.2-0.6-0.6c0.2-4.3,1.6-8,4.2-11.3
	c3-3.5,6.5-5.6,10.7-6.3c6.9-1.2,12.5,0.6,16.9,5.4C422.6,248.4,422.8,248.7,422.6,249z"/>
<path d="M594.5,242.4c2.7,0.3,5.1,1.2,7.1,2.7c2.9,2.1,4.4,5.3,4.4,9.6c0.1,8.8,0.1,17.7,0,26.7c0,0.2-0.1,0.3-0.3,0.3
	c-1.5,0-2.6,0-3.4,0c-0.3,0-0.5-0.2-0.5-0.5c-0.3-8.1-0.3-16.5-0.1-24.9c0.1-3.4-0.8-6-2.8-7.9c-2-1.7-4.5-2.5-7.4-2.3
	c-4.2,0.1-7.9,1.8-11.2,5.1c-0.2,0.2-0.5,0.3-0.8,0.2c-0.6-0.2-1.4-1-2.2-2.5c-0.1-0.3-0.1-0.5,0.1-0.7
	C582.4,243.6,588.2,241.7,594.5,242.4z"/>
<path d="M693.5,242.7c0,0.1,0,0.9-0.2,2.2c-0.1,0.6-0.5,0.9-1,1c-3.8,0.4-6.2,2.1-7.3,5.1c-0.8,2.2-0.3,4,1.4,5.3
	c0.3,0.2,0.5,0.4,0.8,0.5c2.3,1.3,5.1,2.3,8.3,3c2.5,0.6,5.1,1.4,7.7,2.6c3.3,1.5,5.2,3.9,5.8,7.2c0.5,2.9-0.1,5.4-1.6,7.4
	c-2.1,3.2-5.3,5-9.4,5.3c-0.3,0-0.7,0.1-1,0.2c-1.1,0.5-1.5-0.3-1.2-2.5c0.1-0.6,0.5-1,1.1-1.1c4.7-0.8,7.4-3,8-6.6
	c0.5-2.7-0.6-4.7-3.2-6.1c-1.8-1-3.7-1.7-5.8-2.2c-4.2-0.8-8.1-2.2-11.6-4.2c-3.1-1.8-4.3-4.6-3.7-8.6c0.5-3.6,2.6-6.2,6.2-7.8
	c1.9-0.8,3.8-1.2,5.9-1.4C693,242.2,693.2,242.4,693.5,242.7z"/>
<path d="M696.5,242.4c4.4,0.5,8,2.1,10.8,4.9c0.2,0.2,0.3,0.5,0.2,0.8c-0.2,0.6-0.8,1.4-1.7,2.3c-0.2,0.2-0.3,0.2-0.5,0
	c-2.3-2.3-4.9-3.7-7.7-4.3c-0.3-0.1-0.6-0.1-1,0c-1.1,0.2-1.5-0.8-1-3C695.8,242.6,696.1,242.4,696.5,242.4z"/>
<path d="M311.4,242.9h4.1c0.2,0,0.4,0.2,0.4,0.4v38.1c0,0.2-0.2,0.4-0.4,0.4h-4.1c-0.2,0-0.4-0.2-0.4-0.4v-38.1
	C311,243.1,311.2,242.9,311.4,242.9z"/>
<path d="M496.4,242.9h4.1c0.2,0,0.4,0.2,0.4,0.4v38.1c0,0.2-0.2,0.4-0.4,0.4h-4.1c-0.2,0-0.4-0.2-0.4-0.4v-38.1
	C496,243.1,496.2,242.9,496.4,242.9z"/>
<path d="M9.2,243.2h3.6c0.3,0,0.5,0.2,0.5,0.5v37.7c0,0.3-0.2,0.5-0.5,0.5H9.2c-0.3,0-0.5-0.2-0.5-0.5v-37.7
	C8.7,243.4,8.9,243.2,9.2,243.2z"/>
<path d="M227.3,249c1.6-0.2,2.5-0.2,2.9,0c0.3,0.2,0.4,0.4,0.4,0.7c0,8.4,0.1,16.8,0.1,25.1c0,0.3,0,0.7,0.1,1
	c0.5,2.5,2.1,3.5,4.8,3.1c0.8-0.1,1.8-0.6,2.9-1.3c0.2-0.1,0.4-0.1,0.6,0.2c0.8,1.2,1.1,2,1.1,2.2c0,0.3-0.2,0.6-0.4,0.8
	c-3.2,2.5-6.6,2.7-10.2,0.7c-2.1-1.2-3.2-3.3-3.2-6.3c-0.1-8.3-0.1-16.7,0-25.2C226.5,249.4,226.8,249.1,227.3,249z"/>
<path d="M592.5,256.7c2.6,0.3,4.8,0.9,6.6,1.8c0.3,0.1,0.5,0.3,0.6,0.7c0.3,1.4,0.3,2.7,0,3.8c-0.1,0.3-0.3,0.4-0.6,0.2
	c-3.7-2.1-7.5-2.9-11.4-2.3c-4.4,0.7-7.1,3-7.9,7.1c-0.9,4.2,0.5,7.4,4.1,9.4c0.3,0.2,0.6,0.3,0.9,0.4c4.5,1.8,9.2,1,14.3-2.3
	c0.4-0.3,0.6-0.2,0.7,0.3c0.1,1.8,0.1,2.9,0,3.5c-0.1,0.3-0.3,0.6-0.5,0.8c-4.1,2.8-8.9,3.5-14.4,2.2c-2-0.5-3.8-1.5-5.3-2.9
	c-2.4-1.9-3.8-4.6-4.2-8.1c-0.5-4.6,1-8.4,4.6-11.2C583.3,257.1,587.5,256,592.5,256.7z"/>
<path d="M391,263.2c0.7-0.1,1.7-0.1,3.2,0c0.4,0,0.7,0.2,0.7,0.6c0.3,3.7,1.3,6.8,3.1,9.3c2.6,3.5,6.2,5.3,10.7,5.6
	c4.3,0.2,7.9-1.3,10.7-4.6c0.2-0.3,0.5-0.3,0.8-0.2c0.6,0.3,1.4,0.9,2.2,1.8c0.2,0.3,0.2,0.5,0,0.8c-2.8,3.8-6.8,5.8-12,6.1
	c-5.3,0.3-9.7-1.2-13.3-4.4c-4.2-3.7-6.4-8.6-6.6-14.5C390.6,263.4,390.8,263.2,391,263.2z"/>
<path d="M682.3,274c2.8,3,6.3,4.7,10.3,5.2c0.3,0,0.6,0.2,0.7,0.5c0.4,0.8,0.4,1.6,0,2.5c-0.1,0.3-0.4,0.5-0.7,0.4
	c-4.2-0.1-7.8-1.4-11-4.1c-1.4-1.2-2.1-1.9-1.9-2.1c0.7-1.2,1.4-2,1.9-2.4C682,273.8,682.1,273.8,682.3,274z"/>
</svg>
