<?xml version="1.0" encoding="utf-8"?>
<!-- Generator: Adobe Illustrator 27.0.0, SVG Export Plug-In . SVG Version: 6.00 Build 0)  -->
<svg version="1.1" id="Capa_1" xmlns="http://www.w3.org/2000/svg" xmlns:xlink="http://www.w3.org/1999/xlink" x="0px" y="0px"
	 viewBox="0 0 585.7 64.5" style="enable-background:new 0 0 585.7 64.5;" xml:space="preserve">
<style type="text/css">
	.st0{fill:#FFC200;}
</style>
<path d="M84.9,10.2v45.8H74.6V10.2H64.5V1.2H95v9.1H84.9z M120.1,56.1V33.6h-11.5v22.5H98.4V1.2h10.2v23.2h11.5V1.2h10.3v54.9
	L120.1,56.1z M136.8,56.1V1.2H163V10h-16v13.6h11.1v8.1H147v15.3h16v9.2H136.8z M198.6,10.2v45.8h-10.3V10.2h-10.1V1.2h30.5v9.1
	H198.6z M213.1,56.1V1.2h26.2V10h-16v13.6h11v8.1h-11v15.3h16v9.2H213.1z M265.9,56.1l-6.4-19l-7,19h-10l11.3-27.7L243.1,1.2h10.7
	l6,19l6.6-19h10.1l-11,26.4l11,28.5H265.9z M301.7,56.1l-1.8-10.8h-9.7l-2,10.8h-9.6l11.1-54.9h11.5l11,54.9H301.7z M295.3,16
	l-3.7,21.2h7L295.3,16z M328.7,57.3c-9.4,0-15.2-5.6-15.2-14.2v-3.8h9.4v3.2c0,4,1.9,6.3,5.6,6.3s5.4-2.1,5.4-5.5
	c0-4.4-2.8-7.3-8.2-11.4c-5.6-4-11.7-9.5-11.7-17.1c0-7.9,5.1-14.8,15-14.8c8.7,0,14.4,5.9,14.4,14.1v3.5H334v-3.3
	c0-3.4-1.7-5.8-5.2-5.8c-2.6-0.2-4.8,1.7-4.9,4.3c0,0.2,0,0.4,0,0.7c0,4.6,2.7,7,8.8,11.5c6.5,4.9,11.1,9.8,11.1,17.2
	C343.8,51,337.7,57.3,328.7,57.3z M377.8,10.2v45.8h-10.3V10.2h-10.1V1.2h30.5v9.1H377.8z M417.6,56.4c-4,0-5.6-3.3-5.6-8.1V38
	c0-2.6-1.3-4.7-4.2-4.7h-5.4v22.8h-10.2V1.2h16.9c7.5,0,12.5,4.3,12.5,12v7.8c0,4.1-1.9,7.2-6.2,8.5c3.8,1,6.4,4.4,6.4,8.3v10
	c-0.1,2.1,0.6,4.1,2,5.6v3L417.6,56.4z M411.6,13.5c0-2.5-1.1-4-3.6-4h-5.6v16.2h5.2c2.6,0,4-1.4,4-4.4L411.6,13.5z M429.8,56.1V1.2
	H440v54.9L429.8,56.1z M465.6,56.1h-17.3V1.2h17.2c7.5,0,12.1,4,12.1,11.6v5.9c0,4.7-1.8,8.2-6.5,9.2c5,1.3,6.8,4.7,6.8,9.3v7.2
	C477.8,52.1,473.1,56.1,465.6,56.1z M467.7,13.5c0-2.5-1.1-4-3.6-4h-5.5v15.1h5.1c2.6,0,4-1.4,4-4.3L467.7,13.5z M467.9,36.5
	c0-2.9-1.4-4.4-4-4.4h-5.3v15.5h5.8c2.5,0,3.5-1.4,3.5-4L467.9,36.5z M499.3,57.3c-8.9,0-15.5-5.7-15.5-13.9V1.2h10.4v42.2
	c0,3.2,1.8,5,5.1,5s5.2-1.8,5.2-5V1.2h10v42.2C514.5,51.6,508.3,57.3,499.3,57.3L499.3,57.3z M544.7,56.1L534,32.7l-3.9-8.7v32.2
	h-9.4V1.2h8.8L539.7,25l3.6,8.7V1.2h9.2v54.9L544.7,56.1z M559.5,56.1V1.2h26.2V10h-16v13.6h11v8.1h-11v15.3h16v9.2H559.5z"/>
<path class="st0" d="M0,0.6v63.9l12.9-8h43V0.6H0z M40,45.2l-12.2-8.1l-12.2,8.1l3.9-14.1L8,22l14.6-0.7l5.1-13.8L33,21.3L47.6,22
	l-11.4,9.1L40,45.2z"/>
</svg>
