<?xml version="1.0" encoding="utf-8"?>
<!-- Generator: Adobe Illustrator 27.0.0, SVG Export Plug-In . SVG Version: 6.00 Build 0)  -->
<svg version="1.1" id="Capa_1" xmlns="http://www.w3.org/2000/svg" xmlns:xlink="http://www.w3.org/1999/xlink" x="0px" y="0px"
	 viewBox="0 0 586 111.83" style="enable-background:new 0 0 586 111.83;" xml:space="preserve">
<style type="text/css">
	.st0{fill:#F15A24;}
	.st1{fill:#FFFFFF;}
</style>
<path class="st0" d="M127.97,55.38c0,27.4-22.22,49.62-49.62,49.62S28.73,82.78,28.73,55.38c0-27.4,22.22-49.62,49.62-49.62
	S127.97,27.97,127.97,55.38z M78.71,40.73c-6.64-6.47-13.28-12.95-19.92-19.43c-0.23-0.23-0.5-0.42-0.8-0.57
	c-1.67-0.87-3.31-0.63-4.93,0.72c-2.01,1.69-2.45,3.67-1.31,5.94c0.9,1.42,2.13,2.86,3.69,4.31c4.13,3.85,8.39,8.11,12.75,12.76
	c0.37,0.37,0.56,0.82,0.56,1.34c0.17,12.4,0.17,24.59,0,36.59c-0.22,2.61,0.22,4.84,1.31,6.69c1.44,2.49,3.66,4.09,6.69,4.81
	c3.95,0.94,7.38-0.21,10.31-3.44c1.8-1.96,2.69-4.48,2.69-7.56c-0.01-12.67-0.01-25.17,0-37.5c0-0.33,0.11-0.62,0.34-0.87
	c3.64-3.95,7.55-7.89,11.72-11.82c2.14-2.01,3.79-3.97,4.95-5.87c0.16-0.29,0.26-0.61,0.3-0.94c0.31-2.15-0.56-3.79-2.62-4.94
	c-2.11-1.18-4.11-0.8-6,1.13c-6.38,6.5-12.72,12.72-19.01,18.66C79.18,40.96,78.94,40.96,78.71,40.73z M86.13,27.77
	c0-3.88-3.14-7.02-7.02-7.02c-3.88,0-7.02,3.14-7.02,7.02s3.14,7.02,7.02,7.02C82.99,34.79,86.13,31.65,86.13,27.77z"/>
<path class="st1" d="M58.79,21.3c6.64,6.48,13.28,12.96,19.92,19.43c0.23,0.23,0.47,0.23,0.72,0.01
	c6.29-5.94,12.63-12.16,19.01-18.66c1.89-1.93,3.89-2.31,6-1.13c2.06,1.15,2.93,2.79,2.62,4.94c-0.04,0.33-0.14,0.65-0.3,0.94
	c-1.16,1.9-2.81,3.86-4.95,5.87c-4.17,3.93-8.08,7.87-11.72,11.82c-0.23,0.25-0.34,0.54-0.34,0.87c-0.01,12.33-0.01,24.83,0,37.5
	c0,3.08-0.89,5.6-2.69,7.56c-2.93,3.23-6.36,4.38-10.31,3.44c-3.03-0.72-5.25-2.32-6.69-4.81c-1.09-1.85-1.53-4.08-1.31-6.69
	c0.17-12,0.17-24.19,0-36.59c0-0.52-0.19-0.97-0.56-1.34c-4.36-4.65-8.62-8.91-12.75-12.76c-1.56-1.45-2.79-2.89-3.69-4.31
	c-1.14-2.27-0.7-4.25,1.31-5.94c1.62-1.35,3.26-1.59,4.93-0.72C58.29,20.88,58.56,21.07,58.79,21.3L58.79,21.3z"/>
<circle class="st1" cx="79.11" cy="27.77" r="7.02"/>
<circle cx="273.16" cy="25.46" r="3.55"/>
<path d="M356.54,22.93c1.33,0.17,2.48,0.24,3.45,0.2c0.51-0.02,0.76,0.22,0.76,0.73c0,19.02,0,38.33,0,57.94
	c0,0.33-0.17,0.51-0.5,0.54c-1.08,0.1-2.06,0.11-2.94,0.03c-0.33-0.03-0.55-0.2-0.65-0.52c-0.47-1.41-0.57-2.83-0.3-4.26
	c0.11-0.58-0.04-0.66-0.46-0.24c-4.23,4.25-8.68,6.24-13.34,5.98c-4.62-0.26-8.2-2.26-10.75-6c-2.78-4.11-4.06-8.42-3.83-12.94
	c0.01-0.33,0.01-0.67-0.02-1c-0.32-4.93,0.3-9.41,1.85-13.44c1.55-4.01,4.1-6.97,7.63-8.87c2.2-1.15,4.74-1.65,7.62-1.5
	c3.59,0.13,6.96,1.57,10.1,4.32c0.41,0.38,0.63,0.29,0.66-0.27c0.31-6.11,0.27-12.75-0.14-19.91
	C355.65,23.11,355.93,22.85,356.54,22.93L356.54,22.93z M336.69,48.08c-2.04,3.21-3.19,6.9-3.44,11.06
	c-0.3,4.93,0.29,9.35,1.75,13.25c1.49,3.96,4.08,6.21,7.75,6.75c4.84,0.71,8.89-1.34,12.14-6.16c0.57-0.81,0.85-1.7,0.86-2.68
	c0.03-6.85,0.01-13.46-0.06-19.85c0-0.33-0.08-0.65-0.23-0.95c-0.96-1.96-2.93-3.6-5.9-4.92c-2.2-1.06-4.47-1.29-6.81-0.69
	C340.12,44.61,338.1,46,336.69,48.08z"/>
<path d="M438.46,22.95c0.78,0.22,1.86,0.27,3.24,0.18c0.58-0.05,0.86,0.22,0.86,0.8c-0.04,19.72-0.08,39.02-0.12,57.9
	c0,0.33-0.17,0.52-0.5,0.56c-1.29,0.18-2.26,0.13-2.91-0.13c-0.31-0.12-0.51-0.34-0.58-0.67c-0.25-0.99-0.41-2.48-0.51-4.45
	c-0.01-0.32-0.12-0.36-0.32-0.11c-3.9,4.78-8.78,6.81-14.62,6.11c-4.04-0.49-7.27-2.51-9.69-6.06c-3.17-4.87-4.38-10.43-3.62-16.69
	c0.04-0.33,0.06-0.67,0.05-1c-0.07-4.18,1-8.29,3.2-12.31c2.06-3.77,5.08-6.16,9.06-7.19c5.52-1.42,10.59-0.03,15.21,4.16
	c0.33,0.28,0.48,0.21,0.47-0.22c-0.18-6.35-0.24-13.08-0.17-20.17C437.52,23.01,437.83,22.77,438.46,22.95L438.46,22.95z
	 M418.44,48.08c-2.11,3.11-3.26,6.79-3.44,11.06c-0.2,4.62,0.24,8.76,1.31,12.44c1.02,3.05,2.77,5.21,5.25,6.5
	c3.46,1.79,6.83,1.71,10.13-0.25c2.92-1.71,4.78-3.72,5.58-6.03c0.11-0.32,0.17-0.64,0.18-0.97c0.09-6.8,0.09-13.59-0.01-20.38
	c0-0.33-0.09-0.64-0.25-0.93c-1.33-2.54-3.64-4.34-6.94-5.38C425.41,42.61,421.47,43.92,418.44,48.08L418.44,48.08z"/>
<path d="M263.72,31.17c0.32,0.25,0.37,0.54,0.15,0.88c-0.93,1.42-1.65,2.33-2.16,2.72c-0.26,0.21-0.53,0.2-0.79-0.01
	c-4.21-3.53-8.99-4.71-14.36-3.56c-5.07,1.1-8.65,4.01-10.75,8.75c-1.75,3.77-2.68,7.83-2.81,12.19
	c-0.72,7.57,0.64,14.13,4.06,19.69c2.65,4.29,6.48,6.63,11.5,7c4.4,0.46,8.53-0.86,12.39-3.96c0.57-0.45,1.13-0.43,1.67,0.06
	c1.22,1.1,1.88,1.9,1.98,2.41c0.06,0.32-0.04,0.59-0.29,0.81c-3.44,2.87-7.29,4.53-11.56,4.99c-4.94,0.65-9.5-0.21-13.69-2.56
	c-3.52-1.98-6.1-4.73-7.75-8.25c-2.6-5.27-3.87-11.08-3.81-17.44c-0.07-6.67,1.37-12.73,4.31-18.19c2.77-5.13,6.93-8.29,12.5-9.5
	C251.82,25.45,258.29,26.77,263.72,31.17z"/>
<path d="M155.24,26.94c0.86,0.03,1.46,0.44,1.79,1.23c3.09,7.3,6.16,14.62,9.21,21.97c0.15,0.37,0.3,0.37,0.46,0.01
	c3.4-7.77,6.69-15.43,9.87-22.97c0.06-0.16,0.18-0.24,0.34-0.24c5.14-0.19,9.57-0.12,13.28,0.22c0.33,0.03,0.42,0.19,0.27,0.49
	c-5.76,11.14-11.5,22.32-17.23,33.54c-0.15,0.3-0.23,0.62-0.23,0.95c0.03,6.57,0.01,13.13-0.06,19.69c0,0.33-0.17,0.5-0.5,0.51
	c-3.45,0.06-7.53,0.08-12.26,0.05c-0.45-0.01-0.68-0.24-0.68-0.69c0-6.79,0-13.39,0-19.81c0-0.33-0.08-0.65-0.23-0.94
	c-5.59-10.59-11.25-21.69-16.99-33.3c-0.14-0.3-0.05-0.46,0.28-0.49C146.1,26.82,150.33,26.75,155.24,26.94L155.24,26.94z"/>
<path d="M182.39,64.53l0.01-6.94c0.02-10.45,8.51-18.91,18.97-18.89l3.55,0.01c10.45,0.02,18.91,8.51,18.89,18.97v0l-0.01,6.94
	c-0.02,10.45-8.51,18.91-18.97,18.89l-3.55-0.01C190.82,83.48,182.37,74.99,182.39,64.53L182.39,64.53z M206.06,48.58
	c-2.04-1.24-4.14-1.14-6.31,0.31c-1.75,1.05-2.83,2.55-3.25,4.5c-0.76,3.55-1.01,7.13-0.75,10.75c0.14,3,0.91,5.56,2.31,7.69
	c1.71,2.23,4.03,2.92,6.94,2.06c1.95-0.47,3.35-1.83,4.19-4.06c1.53-4.09,1.8-8.9,0.81-14.44C209.49,52.2,208.17,49.93,206.06,48.58
	z"/>
<path d="M520.44,41.7c2.74,2,4.09,4.9,4.06,8.69c0.14,10.65,0.12,21.13-0.05,31.44c-0.01,0.33-0.18,0.52-0.51,0.55
	c-1.36,0.16-2.59,0.12-3.7-0.13c-0.33-0.07-0.49-0.28-0.5-0.61c-0.47-9.2-0.54-18.61-0.24-28.25c0.07-2.27-0.2-4.25-0.81-5.94
	c-1.37-3.04-3.91-4.37-7.63-4c-3.85,0.39-7.39,2.68-10.61,6.87c-0.8,0.99-1.2,2.12-1.2,3.39c0,9.29,0,18.76,0,28.41
	c0,0.17-0.08,0.26-0.25,0.26c-1.74,0.04-3.14,0.02-4.19-0.04c-0.39-0.02-0.59-0.23-0.58-0.62c0.22-14.16,0.33-27.75,0.33-40.77
	c0-0.33,0.17-0.52,0.5-0.58c1.35-0.21,2.42-0.1,3.19,0.33c0.29,0.17,0.44,0.42,0.45,0.75c0.03,1.54,0.07,3.19,0.11,4.95
	c0,0.24,0.09,0.28,0.26,0.1c3.82-3.96,7.63-6.25,11.43-6.86C514.32,39.02,517.63,39.71,520.44,41.7z"/>
<path d="M533.8,65.58l0.09-8.72c0.09-9.7,8.04-17.49,17.74-17.4l0,0l0.11,0c9.7,0.09,17.49,8.04,17.4,17.74c0,0,0,0,0,0l-0.09,8.72
	c-0.09,9.7-8.04,17.49-17.74,17.4l0,0l-0.11,0C541.5,83.22,533.71,75.28,533.8,65.58C533.8,65.58,533.8,65.58,533.8,65.58z
	 M542.19,48.58c-1.66,2.44-2.64,5.3-2.94,8.56c-0.31,3.39-0.25,6.74,0.19,10.06c0.31,3.09,1.35,5.72,3.12,7.88
	c2.94,3.59,6.82,4.84,11.63,3.75c2.22-0.41,4.07-1.48,5.56-3.19c2.69-3.1,4.02-6.76,4-11c0-0.33,0.03-0.66,0.08-0.99
	c0.49-3.18,0.22-6.77-0.83-10.76c-0.68-2.33-1.87-4.31-3.56-5.94c-2.12-1.88-4.43-2.9-6.94-3.06
	C548.13,43.62,544.7,45.18,542.19,48.58z"/>
<path d="M388.5,39.64c4.64,0.25,7.95,2.18,9.94,5.81c1.11,2.12,1.55,4.35,1.31,6.69c0.08,6.67,0.08,13.33,0,20
	c-0.02,2.07,0.25,3.8,0.81,5.19c0.57,1.15,1.42,2.06,2.56,2.73c0.25,0.22,0.34,0.49,0.26,0.82c-0.6,2.46-2.04,2.95-4.32,1.45
	c-1.67-1.1-2.77-2.55-3.3-4.35c-0.15-0.56-0.43-0.63-0.82-0.19c-2.27,2.57-4.73,4.21-7.38,4.91c-4.97,1.44-9.39,0.89-13.25-1.62
	c-1.71-1.12-2.88-2.54-3.5-4.25c-1.45-3.2-1.72-6.52-0.81-9.94c1.08-4.34,3.83-7.17,8.25-8.5c4.38-1.32,9.49-1.9,15.33-1.75
	c0.96,0.01,1.44-0.47,1.43-1.44c0.08-1.91,0-3.6-0.26-5.06c-0.58-3.25-2.5-5.3-5.77-6.13c-0.32-0.08-0.65-0.14-0.98-0.17
	c-4.07-0.43-8.47,0.25-13.18,2.03c-0.59,0.23-1.03,0.05-1.31-0.51c-0.6-1.22-0.84-2.07-0.7-2.55c0.08-0.32,0.28-0.56,0.58-0.7
	C377.7,40.16,382.74,39.33,388.5,39.64L388.5,39.64z M376.94,64.58c-1.26,1.58-1.9,3.6-1.94,6.06c-0.03,2.33,0.65,4.39,2.06,6.19
	c1.25,1.37,2.97,2.14,5.19,2.31c4.56,0.36,8.41-1.52,11.55-5.62c0.64-0.84,0.96-1.78,0.95-2.84c-0.03-3.1,0-6.22,0.08-9.35
	c0.01-0.29-0.14-0.44-0.44-0.44c-3.1-0.15-6.06-0.15-8.89,0C381.74,61.09,378.89,62.31,376.94,64.58L376.94,64.58z"/>
<path d="M470,39.64c4.52,0.29,7.75,2,9.68,5.13c0.17,0.29,0.32,0.59,0.44,0.9c1.06,2.68,1.52,5.92,1.38,9.72
	c-0.1,5.41-0.1,10.82,0,16.25c0.04,1.92,0.29,3.75,0.75,5.5c0.12,0.38,0.77,1.07,1.94,2.06c0.71,0.6,0.71,1.75,0,3.42
	c-0.17,0.42-0.48,0.59-0.93,0.52c-2.74-0.42-4.62-2.21-5.63-5.37c-0.15-0.48-0.39-0.53-0.71-0.15c-2.45,2.8-5.26,4.55-8.42,5.27
	c-2.73,0.62-5.48,0.62-8.25,0c-4.25-1-7.07-3.6-8.44-7.81c-1.21-3.72-0.96-7.26,0.75-10.63c1.56-3.43,4.54-5.62,8.94-6.56
	c4.38-0.94,9.19-1.38,14.44-1.32c0.33,0,0.52-0.16,0.57-0.49c0.48-3.19,0.12-6.07-1.07-8.63c-0.99-2.11-2.72-3.29-5.19-3.56
	c-4.57-0.66-9.08-0.06-13.54,1.81c-0.31,0.13-0.61,0.13-0.92,0c-0.79-0.32-1.19-1.23-1.22-2.75c-0.01-0.33,0.14-0.57,0.44-0.72
	C459.25,40.14,464.25,39.27,470,39.64L470,39.64z M458.19,65.33c-1.29,2-1.79,4.04-1.5,6.12c0.46,3.35,1.92,5.67,4.37,6.96
	c0.29,0.15,0.6,0.27,0.92,0.36c3.37,0.88,6.4,0.52,9.08-1.07c2.82-1.67,4.56-3.55,5.23-5.65c0.1-0.31,0.16-0.64,0.17-0.97
	c0.15-3.22,0.11-6.38-0.11-9.5c-0.02-0.34-0.2-0.51-0.54-0.54c-2.63-0.27-5.49-0.32-8.56-0.15
	C463.17,61.12,460.15,62.6,458.19,65.33L458.19,65.33z"/>
<path d="M271.29,40.45l4.15,0c0.18,0,0.32,0.14,0.32,0.32l-0.02,41.29c0,0.18-0.14,0.32-0.32,0.32l-4.15,0
	c-0.18,0-0.32-0.14-0.32-0.32l0.02-41.29C270.97,40.59,271.11,40.45,271.29,40.45z"/>
<path d="M291.59,40.43c0.77,0.04,1.16,0.46,1.16,1.23c0.17,9.24,0.17,18.32,0,27.23c-0.05,2.94,0.55,5.42,1.81,7.44
	c1.48,2.08,3.62,3.02,6.44,2.81c2.24-0.05,4.34-0.69,6.31-1.94c3.29-2.33,5.23-4.85,5.83-7.57c0.07-0.33,0.11-0.66,0.11-0.99
	c0.03-8.82,0.01-18.08-0.07-27.77c0-0.32,0.16-0.48,0.48-0.48c1.39,0,2.7,0,3.92,0c0.45,0,0.67,0.22,0.67,0.67
	c0,13.8,0,27.22,0,40.26c0,0.52-0.26,0.83-0.78,0.91c-2.26,0.39-3.5,0.19-3.72-0.59c-0.44-1.56-0.48-3.13-0.12-4.73
	c0.11-0.88-0.12-0.97-0.67-0.28c-2.56,3.18-5.36,5.21-8.4,6.07c-2.88,0.82-5.8,0.87-8.75,0.13c-3.11-0.79-5.27-2.62-6.5-5.5
	c-0.9-2.13-1.34-4.28-1.31-6.44c-0.29-2.76-0.37-6.09-0.25-10c0.2-6.6,0.21-13.1,0.01-19.5c-0.01-0.33,0.14-0.57,0.44-0.72
	C288.76,40.4,289.89,40.32,291.59,40.43L291.59,40.43z"/>
</svg>
