<?xml version="1.0" encoding="UTF-8"?>
<svg id="Layer_1" xmlns="http://www.w3.org/2000/svg" version="1.1" viewBox="0 0 794 80">
  <!-- Generator: Adobe Illustrator 29.0.1, SVG Export Plug-In . SVG Version: 2.1.0 Build 192)  -->
  <defs>
    <style>
      .st0 {
        fill: #f9740d;
      }
    </style>
  </defs>
  <g>
    <path d="M113.4,73.7h-7.7c-11.9-.9-22.9-6.6-29.3-16.7-9.5-15.1-6.6-36.5,7.6-47.7C92.3,2.9,102.5.4,112.9,1.1c19.4,1.4,34.7,15.4,34.9,35.1.2,13.5-5,23.9-15.4,31.1-5.3,3.6-11.6,5.8-19.1,6.4ZM109.6,56.4c9.4,0,17-8.5,16.9-19h0c0-10.5-7.7-18.9-17.1-18.9h0c-9.4,0-17,8.5-16.9,19h0c0,10.5,7.7,18.9,17.1,18.9h0Z"/>
    <path d="M54,35.6c7.6,2.3,12.2,8,12.8,15.9.6,7.5-2.5,13.2-9.2,17.2-5.1,3-11,4.4-18,4.4-19.7,0-31.8,0-36.4,0-.2,0-.3-.1-.3-.3,0,0,0,0,0,0V3c0-.6.5-1,1-1,12.5,0,23.8,0,33.7,0,10.8,0,24.6,3.2,26.9,14.9.8,3.8.2,7.4-1.6,10.7-1.8,3.2-4.8,5.7-9,7.5-.4.2-.4.4,0,.5ZM23.9,18.1v11.6c0,.2.2.3.4.3h12.7c3.5,0,6.4-2.7,6.4-5.9v-.7c0-3.2-2.9-5.7-6.4-5.7,0,0,0,0,0,0h-12.7c-.2,0-.3.2-.3.4h0ZM23.9,44.6v12.5c0,.2.2.3.4.3h12.8c4.5,0,8.1-2.8,8-6.2,0,0,0,0,0,0v-.8c0-3.4-3.6-6.1-8.1-6.1h-12.8c-.2,0-.3.2-.3.3,0,0,0,0,0,0Z"/>
    <path d="M207.3,50.2l13.9,22.3c0,.1,0,.3,0,.4,0,0-.1,0-.2,0h-22.9c-.3,0-.6-.2-.7-.5l-8.9-18c-.2-.3-.5-.6-.9-.6h-10c-.3,0-.5.2-.5.5v17.7c0,.5-.4.8-.8.8h-19.2c-.6,0-1-.5-1-1V2.2c0-.2.2-.3.3-.3h0c19.8,0,30.5,0,31.9,0,8.3,0,16.7,1.5,23.2,6.9,8.1,6.7,9.2,20,5.8,29.3-1.9,5.1-5.1,9-9.8,11.7-.2,0-.2.3-.1.5,0,0,0,0,0,0ZM176.9,18.6v18.7c0,.2.2.4.4.4h12.4c5.1,0,9.2-4,9.2-8.9h0v-1.8c0-4.9-4.1-8.9-9.2-8.9h-12.4c-.2,0-.4.2-.4.4Z"/>
    <path d="M227.8,2.8c0-.4.3-.7.7-.7h32.8c19.6-.2,35.5,14.9,35.5,33.6v3.2c0,18.7-15.7,33.9-35.3,34,0,0,0,0,0,0h-32.8c-.4.1-.7-.2-.7-.6l-.2-69.5ZM248.9,19v37.2c0,.2.3.4.5.4h9.5c9.1,0,16.5-7.8,16.5-17.4h0v-3.4c0-9.6-7.4-17.3-16.6-17.3h-9.5c-.2,0-.4.2-.4.5Z"/>
    <path d="M363.8,57.2v15.5c0,.2-.2.4-.4.4h-58.1c-.2,0-.4-.2-.4-.4V2.3c0-.2.2-.4.4-.4h57.1c.2,0,.4.2.4.4v15.5c0,.2-.2.4-.4.4h-36.1c-.2,0-.4.2-.4.4v10.8c0,.2.2.4.4.4h32.7c.2,0,.4.2.4.4v15.5c0,.2-.2.4-.4.4h-32.7c-.2,0-.4.2-.4.4v10.1c0,.2.2.4.4.4h37.1c.2,0,.4.2.4.4Z"/>
    <path d="M424.3,50.2l13.9,22.3c0,.1,0,.3,0,.4,0,0-.1,0-.2,0h-22.9c-.3,0-.6-.2-.7-.5l-8.9-18c-.2-.3-.5-.6-.9-.6h-10c-.3,0-.5.2-.5.5v17.7c0,.5-.4.8-.8.8h-19.2c-.6,0-1-.4-1-1V2.2c0-.2.1-.3.3-.3,19.8,0,30.5,0,31.9,0,8.3,0,16.7,1.5,23.2,6.9,8.1,6.7,9.2,20,5.8,29.3-1.9,5.1-5.1,9-9.8,11.7-.2,0-.2.3-.1.5,0,0,0,0,0,0ZM394,18.5v18.8c0,.2.1.4.4.4h12.3c5.1,0,9.3-3.9,9.3-8.8h0v-2c0-4.9-4.1-8.8-9.3-8.8h-12.3c-.2,0-.4.2-.4.4h0Z"/>
    <path d="M679.2,37.4c.2,19.8-15.9,36-36,36.3-20.1.2-36.6-15.6-36.8-35.4-.2-19.8,15.9-36,36-36.3,20.1-.2,36.6,15.6,36.8,35.4ZM671.9,37.5c-.2-15.8-13.3-28.5-29.4-28.3,0,0,0,0,0,0-16,.2-28.9,13.2-28.7,29,.2,15.8,13.3,28.5,29.4,28.3h0c16-.2,28.9-13.2,28.7-29Z"/>
    <path d="M481.3,45.7c-.1,0-.2.1-.1.2,0,0,0,0,0,0l21.1,26.8s0,0,0,.1c0,0,0,0,0,0h-9.1c-.2,0-.3,0-.5-.2l-20.5-26c-.2-.2-.4-.4-.7-.3h-12c-.3,0-.5.2-.5.5v25.5c0,.3-.2.5-.5.5h-6.3c-.3,0-.5-.2-.5-.5V3.3c0-.1.1-.3.3-.3,8.6,0,16.3,0,23,0,11.1.1,20.3,6.6,21.8,17.9,1.5,11.7-3.6,21.9-15.5,24.8ZM459,10.4v28.7c0,.3.1.5.4.5h15.7c8,0,14.5-6.3,14.5-14.2h0v-1.2c0-7.9-6.4-14.3-14.4-14.3h-15.7c-.3,0-.5.2-.5.5h0Z"/>
    <path d="M515.3,29.5h30.8c.2,0,.3.1.3.3v6.1c0,.2-.1.3-.3.3h-30.8c-.2,0-.3.1-.3.3v29.4c0,.2.1.3.3.3h32.8c.2,0,.3.1.3.3v6.1c0,.2-.1.3-.3.3h-40.1c-.2,0-.3-.1-.3-.3V3.3c0-.2.1-.3.3-.3h40.1c.2,0,.3.1.3.3v6.4c0,.2-.1.3-.3.3h-32.8c-.2,0-.3.1-.3.3v18.9c0,.2.1.3.3.3Z"/>
    <path d="M563.9,47v25.5c0,.3-.2.5-.5.5h-6.3c-.3,0-.5-.2-.5-.5V3.3c0-.2.1-.3.3-.3h0c5.9,0,11.4,0,16.6,0,6.6,0,11.3.3,14.1,1.3,7.8,2.6,12.4,7.9,13.9,15.8,2,10.9-2.6,21.4-13.4,25.2-2.4.9-6.3,1.3-11.6,1.2-6,0-10,0-12.1,0-.3,0-.5.2-.5.5ZM564,10.3l-.2,28.9c0,.2.2.4.4.4h15.7c8,.1,14.6-6.1,14.6-13.9,0,0,0,0,0,0v-1.6c0-7.8-6.4-14.1-14.5-14.2h-15.7c-.2,0-.4.1-.4.4Z"/>
    <path d="M716.3,45.7c-.1,0-.2.1-.1.2,0,0,0,0,0,0l21.1,26.8s0,0,0,.1c0,0,0,0,0,0h-9.1c-.2,0-.3,0-.5-.2l-20.5-26c-.2-.2-.4-.4-.7-.3h-12c-.3,0-.5.2-.5.5v25.5c0,.3-.2.5-.5.5h-6.3c-.3,0-.5-.2-.5-.5V3.3c0-.1.1-.3.3-.3h0c8.6,0,16.3,0,23,0,11.1.1,20.3,6.6,21.8,17.9,1.5,11.7-3.6,21.9-15.5,24.8ZM694,10.4v28.7c0,.3.1.5.4.5h15.7c8,0,14.5-6.3,14.5-14.2h0v-1.2c0-7.9-6.4-14.4-14.4-14.4h-15.7c-.3,0-.5.2-.5.5h0Z"/>
    <path d="M762.2,3c8.4,0,17.3,0,26.8,0,.2,0,.5.2.5.5h0v6c0,.3-.2.5-.5.5h-22.9c-.2,0-.4.2-.4.4h0v62.1c0,.2-.2.4-.4.4-.9,0-2,0-3.1,0s-2.2,0-3.1,0c-.2,0-.4-.2-.4-.4V10.4c0-.2-.2-.4-.4-.4h-22.9c-.3,0-.5-.2-.5-.5V3.5c0-.3.2-.5.5-.5h0c9.5,0,18.4,0,26.8,0Z"/>
  </g>
  <g>
    <path class="st0" d="M398.9,79H2.6c-.5-1-.6-2.1-.3-3.5,0-.3.3-.5.6-.5h395.4c.4,0,.6.2.6.5.2,1.1.2,2.3,0,3.4Z"/>
    <path class="st0" d="M793.9,76v3h-393.9v-2.4c-.1-.4,0-.5.4-.5h393.4Z"/>
  </g>
</svg>