<svg xmlns="http://www.w3.org/2000/svg" version="1.1" id="Layer_1" x="0" y="0" viewBox="0 0 200.7 30" xml:space="preserve"><style>.st2{fill:#fff}.st4{fill:#f47735}.st5{fill:#d31245}.st6{fill:#8177b7}.st7{fill:#00a0df}.st8{fill:#7ac143}.st9{fill:#fdb913}.st13{display:inline}</style><path d="M187.2 27.9c5.8.4 11.4-5.5 11.4-12.7 0-7.2-5.6-13.1-12.5-13.1H14.6C7.7 2.1 2.1 8 2.1 15.2c0 7.2 5.6 13.1 13.6 12.7h171.5z" fill="#a81e23"/><path d="M186.1 2.1c6.9 0 12.5 5.9 12.5 13.1 0 7-5.3 12.7-10.9 12.7H15c-7.6 0-12.9-5.7-12.9-12.7C2.1 8 7.7 2.1 14.6 2.1h171.5m0-2.1H14.6C6.6 0 0 6.8 0 15.2c0 4 1.5 7.7 4.2 10.5C7 28.5 10.8 30 15 30H187.7c3.3 0 6.6-1.6 9.1-4.4 2.5-2.8 3.9-6.5 3.9-10.4 0-8.4-6.6-15.2-14.6-15.2z" fill="#dcdcdc"/><path class="st2" d="M16.7 20.7l.6-3.2h4.6l-.5 2.5c-.6 3.5-2.9 5.2-6.8 5.2-3.8 0-5.4-1.8-4.7-5.5l1.6-8.6c.7-3.7 2.9-5.5 6.7-5.5 1.9 0 3.2.4 4.1 1.1.9.7 1.1 2.1.8 4l-.4 2.1h-4.6l.5-2.6c.2-1-.1-1.5-1-1.5-.8 0-1.3.5-1.4 1.5l-1.9 10.6c-.2 1 .1 1.5.9 1.5.8-.1 1.3-.6 1.5-1.6zM29.6 5.9l-3.5 19h-4.4l3.5-19h4.4zM35.2 5.9l-.5 2.7h-4.4l.5-2.7h4.4zm-.7 3.8L31.7 25h-4.4l2.8-15.3h4.4zM45.3 15.1h-4.4l.3-1.7c.1-.7-.1-1.1-.7-1.1s-.9.4-1.1 1.1l-1.4 8c-.1.7.1 1.1.7 1.1s1-.4 1.1-1.1l.4-2.4h4.4l-.4 2.2c-.2 1.4-.9 2.4-1.9 3-1 .6-2.4 1-4.1 1-3.5 0-5-1.4-4.4-4.2l1.3-7.1c.2-1.3.9-2.3 2-3.1 1.1-.8 2.4-1.2 4-1.2 1.7 0 2.9.3 3.7 1 .8.7 1.1 1.8.8 3.3l-.3 1.2zM49.1 24.9h-4.4l3.5-19h4.4l-1.9 10.7 3.5-7h4.2l-3.7 6.8 1.2 8.4h-4.4l-.8-8-1.6 8.1zM170.7 24h-1.5l.3-1.4h1.5l-.3 1.4zM177 22.2c-.2.5-.9 2-2.8 2-2 0-2.1-1.5-1.9-2.5.4-1.6 1.4-2.8 3.1-2.8.8 0 2.1.4 1.9 2h-1.4c0-.3-.1-.9-.7-.8-.9 0-1.3.8-1.4 1.5-.1.6-.3 1.7.7 1.7.7 0 1.1-.7 1.1-.9h1.4zM181.7 21.5c-.1.7-.5 1.6-1.6 1.6s-1.1-.9-.9-1.6c.1-.6.5-1.5 1.6-1.5 1.1-.1 1.1.8.9 1.5zm1.5 0c.4-1.8-.7-2.7-2.1-2.7-1.4 0-2.9.8-3.3 2.7-.4 1.8.7 2.7 2.1 2.7 1.4-.1 2.9-.9 3.3-2.7zM191.1 24h-1.4l.7-3.1c.2-.8-.1-1-.5-1-.7 0-1 .4-1.2 1L188 24h-1.4l.7-3.1c.1-.4.2-1-.6-1-.7 0-1 .4-1.1 1l-.7 3.1h-1.4l1.1-5.1h1.3l-.2.7c.3-.3.8-.9 1.7-.9.8 0 1.1.3 1.3.8.2-.2.7-.8 1.6-.8 1 0 1.7.6 1.5 1.7l-.7 3.6zM91 15.5l-1.7 8.8h-4.8l3.6-18.4h4.8l-1.3 6.8H94l1.3-6.8h4.7l-3.6 18.4h-4.7l1.7-8.8H91zM105.6 12c.6 0 .9.3.7 1l-1.5 7.7c-.1.7-.5 1-1.1 1-.6 0-.8-.3-.7-1l1.5-7.7c.2-.6.5-1 1.1-1zm4.3-1.7c-.9-.6-2.2-.9-3.8-.9-2 0-3.5.4-4.5 1.2-1 .8-1.6 1.8-1.8 3l-1.4 7c-.3 1.3.1 2.3 1 2.9.9.7 2.1 1 3.7 1 1.7 0 3.1-.4 4.2-1.1 1.1-.7 1.8-1.7 2-2.8l1.4-7c.4-1.6.1-2.7-.8-3.3zM120.9 24.3h-4.5l.4-1.8c-.8 1.3-2 2-3.7 2-.9 0-1.6-.2-2.1-.7-.5-.5-.6-1.4-.3-2.7L113 9.5h4.5l-2 10.3c-.1.5-.1.8 0 1 .1.2.3.3.6.3.6 0 1.1-.4 1.2-1.3l2-10.3h4.5l-2.9 14.8zM135.4 13.1l-.3 1.7h-4.5l.3-1.6c.1-.7-.1-1.1-.7-1.1s-1 .4-1.1 1.1c-.1.6.1 1.1.6 1.4.7.4 1.4.8 2.2 1.3.8.5 1.4 1 1.8 1.6.4.6.5 1.5.3 2.6-.6 3-2.8 4.5-6.6 4.5-1.5 0-2.7-.3-3.5-.9-.8-.6-1.1-1.5-.9-2.8l.5-2.3h4.5l-.4 2.2c-.1.7.1 1.1.7 1.1s1-.4 1.2-1.1c.1-.7 0-1.2-.3-1.5-.3-.3-1.1-.9-2.3-1.5-1.1-.6-1.9-1.1-2.2-1.7-.4-.6-.5-1.4-.3-2.4.3-1.4.9-2.4 2-3.1 1.1-.7 2.4-1 4.1-1 1.8 0 3.2.3 4 .9.8.4 1.1 1.3.9 2.6zM136.2 21.3l1.8-9.1h-1.5l.5-2.7h1.5l.5-2.7h4.5l-.5 2.7h2l-.5 2.7h-2l-1.6 8.1c-.1.5-.1.9 0 1.1.1.2.4.3.9.3h.9l-.5 2.7h-3.7c-1 0-1.7-.2-2-.7-.5-.6-.5-1.4-.3-2.4zM150.8 12c.6 0 .9.3.7 1l-1.5 7.7c-.1.7-.5 1-1.1 1-.6 0-.8-.3-.7-1l1.5-7.7c.1-.6.5-1 1.1-1zm4.3-1.7c-.9-.6-2.2-.9-3.8-.9-2 0-3.5.4-4.5 1.2-1 .8-1.6 1.8-1.8 3l-1.4 7c-.3 1.3.1 2.3 1 2.9.9.7 2.1 1 3.7 1 1.7 0 3.1-.4 4.2-1.1 1.1-.7 1.8-1.7 2-2.8l1.4-7c.4-1.6.1-2.7-.8-3.3zM158.1 9.5h4.5l-.4 1.8c.8-1.3 2-2 3.7-2 .9 0 1.6.3 2 .8.5.5.6 1.4.3 2.6l-2.3 11.6h-4.5l2-10.3c.1-.5.1-.9 0-1.1-.1-.2-.3-.3-.7-.3-.6 0-1 .5-1.2 1.3l-2 10.3H155l3.1-14.7z"/><path fill="#283984" d="M60.4 2.1h22.2v25.8H60.4z"/><path class="st2" d="M79.7 22.4L58.6 27l12.2-13.3 4 1.8-.6-4 4.6-3.4-5.1 1.2-.4-3-2.9 3.7-5 1.1 3.1 1.4-.7 1-5.9 1.3c.2-1 .5-2.1.9-3 .6-1.4 1.5-2.6 2.3-3.6.6-.7 1-1.2 1.8-1.8.8-.7 1.2-.9 2.3-1.5 1-.5 1.8-.8 2.8-1.1 1.9-.7 4.9-.9 6.4-.4 1 .3 1.7.7 2.3 1.6.4.6.5.9.6 1.6.1.6.2.9.1 1.5 0 .8-.2 1.4-.5 2.1-.5 1.1-1.7 2.6-2.6 3.6-.7.8-1.9 1.8-3 2.9-.6.5-.9.8-1.4 1.3l7.7-1.7-1.9 6.1z"/><path class="st2" d="M80.9 27.4c.7 0 1.1-.6 1.1-1.2-.1-.8-.8-1.1-1.2-1 .3-.2.8-1 .1-1.7-.5-.5-1.2-.3-1.4-.1.1-.4-.1-1.3-.9-1.4-.8-.1-1.1.4-1.2.7-.1-.4-.5-.7-1.1-.7-.8.1-1.1.9-1 1.4-.3-.2-.9-.3-1.4.1-.6.6-.3 1.5.1 1.7-.4 0-1 .2-1.1.9-.1.8.5 1.3 1.1 1.3h6.9z"/><path class="st4" d="M75.5 24l1.3 2.9-2.6-1.8c-.7-.4-.5-1.2-.2-1.5.5-.4 1.2-.3 1.5.4z"/><path class="st5" d="M77.3 23.3l-.5 3.3-1.3-3.1c-.3-.8.4-1.3.8-1.3.5-.1 1.1.3 1 1.1z"/><path class="st6" d="M79.3 23.5L78 26.6l-.4-2.8c0-.4.2-.4.3-.5 0-.1-.2-.1-.2-.1h-.3c0-.7.5-1.1 1-1 .6 0 1.1.6.9 1.3z"/><path class="st7" d="M80.6 25.1L78 26.9l1.2-2.9c.4-.9 1.3-.7 1.6-.4.3.4.4 1.1-.2 1.5z"/><path class="st8" d="M80.9 27.3h-3.1l2.5-1.7c.6-.4 1.3 0 1.4.5.2.5-.2 1.2-.8 1.2z"/><path class="st9" d="M73 26c.2-.6.9-.8 1.5-.5l2.5 1.7h-3c-.7.1-1.2-.5-1-1.2z"/></svg>