<svg version="1.1" id="Capa_1" xmlns="http://www.w3.org/2000/svg" x="0" y="0" viewBox="0 0 318.75 36.83" style="enable-background:new 0 0 318.75 36.83" xml:space="preserve">
  <style>
    .st0{fill:#009bff}
  </style>
  <path class="st0" d="M7.54 36.07V3.76h22.29v7.08H16.19v5.46h12.12v7.08H16.19v5.61h14.4v7.08H7.54zm27.94 0V1.38h8.27v34.69h-8.27zm26.13 0V3.76H75.3c3.8 0 6.81.97 9.03 2.92 2.22 1.95 3.33 4.6 3.33 7.96 0 2.19-.5 4.08-1.5 5.68-1 1.6-2.4 2.84-4.21 3.71a14.77 14.77 0 0 1-6.46 1.31h-5.32v10.74h-8.56zm8.56-17.54h4.28c1.36 0 2.44-.36 3.23-1.07a3.63 3.63 0 0 0 1.19-2.83c0-1.17-.4-2.11-1.19-2.83a4.66 4.66 0 0 0-3.23-1.07h-4.28v7.8zm35.49 17.54-.43-3.18c-1.58 2.53-3.99 3.8-7.22 3.8a8.02 8.02 0 0 1-3.87-.93 6.89 6.89 0 0 1-3.78-6.29 7.23 7.23 0 0 1 3.16-6.27c2.11-1.49 4.89-2.23 8.34-2.23 1.08 0 2.22.09 3.42.28-.13-1.2-.64-2.11-1.54-2.73s-2-.93-3.3-.93c-1.14 0-2.29.21-3.45.64-1.16.43-2.26.94-3.3 1.54l-2.8-5.32a20.26 20.26 0 0 1 10.64-3.18c2.22 0 4.21.38 5.99 1.14a9.2 9.2 0 0 1 4.18 3.47 10.6 10.6 0 0 1 1.52 5.89v14.3h-7.56zm-7.27-7.84c0 .73.27 1.32.81 1.78.54.46 1.24.69 2.09.69a3.95 3.95 0 0 0 4.03-4.08v-.82c-.86-.16-1.76-.24-2.71-.24-1.2 0-2.21.21-3.02.62-.79.42-1.2 1.1-1.2 2.05zm29.08 8.46c-2.09 0-4.05-.33-5.87-1a16.12 16.12 0 0 1-4.92-2.85l3.52-4.66a15.3 15.3 0 0 0 3.59 2.16c1.28.55 2.54.83 3.78.83.82 0 1.48-.14 1.97-.43.49-.28.74-.71.74-1.28 0-.6-.28-1.08-.83-1.45-.55-.36-1.54-.72-2.97-1.07l-2.28-.57c-4.53-1.2-6.79-3.63-6.79-7.27 0-1.61.44-3.01 1.33-4.18a8.59 8.59 0 0 1 3.66-2.71c1.55-.63 3.36-.95 5.42-.95 2.03 0 3.94.32 5.73.95 1.79.63 3.43 1.55 4.92 2.76l-3.61 4.75a15.5 15.5 0 0 0-3.52-2.14 8.7 8.7 0 0 0-3.47-.81c-1.74 0-2.61.57-2.61 1.71 0 .51.26.92.78 1.24.52.32 1.26.6 2.21.86l3.09.85c2.31.63 4.02 1.58 5.13 2.85a6.62 6.62 0 0 1 1.66 4.51c0 1.58-.44 2.97-1.33 4.16a8.53 8.53 0 0 1-3.73 2.76 14.9 14.9 0 0 1-5.6.98zm26.9 0c-2.6 0-4.89-.55-6.87-1.64a12.12 12.12 0 0 1-6.35-11.09c0-2.5.56-4.7 1.69-6.61a11.93 11.93 0 0 1 4.66-4.47 14.12 14.12 0 0 1 6.87-1.62c2.6 0 4.89.54 6.87 1.62a12 12 0 0 1 4.66 4.47c1.12 1.9 1.69 4.1 1.69 6.61s-.56 4.7-1.69 6.6a12.12 12.12 0 0 1-4.66 4.49 14.07 14.07 0 0 1-6.87 1.64zm0-6.56c1.46 0 2.62-.56 3.49-1.69.87-1.12 1.31-2.62 1.31-4.49s-.44-3.36-1.31-4.47c-.87-1.11-2.04-1.66-3.49-1.66s-2.62.55-3.49 1.66c-.87 1.11-1.31 2.6-1.31 4.47s.44 3.37 1.31 4.49a4.16 4.16 0 0 0 3.49 1.69z"/>
  <path d="M191.1 36.07V10.88h-9.6V3.76h28.04v7.13h-9.6v25.18h-8.84zm22.42 0V11.88c1.33.29 2.68.43 4.04.43 1.39 0 2.8-.14 4.23-.43v24.19h-8.27zm22.34-13.92v13.92h-8.27V11.88h7.6l.43 3.09a7.2 7.2 0 0 1 2.85-2.66 8.1 8.1 0 0 1 3.75-.9c1.43 0 2.72.32 3.9.95a7.65 7.65 0 0 1 2.85 2.66 8.23 8.23 0 0 1 3.35-2.69 10.5 10.5 0 0 1 4.35-.93c1.68 0 3.16.39 4.44 1.16a8.18 8.18 0 0 1 3.02 3.23 10.06 10.06 0 0 1 1.09 4.78v15.49h-8.27V21.43c0-1.01-.28-1.82-.83-2.42-.55-.6-1.26-.9-2.11-.9a3.3 3.3 0 0 0-2.52 1c-.63.67-.95 1.68-.95 3.04v13.92h-8.27V21.43c0-1.01-.27-1.82-.81-2.42a2.8 2.8 0 0 0-2.19-.9c-1.01 0-1.84.33-2.47 1-.63.66-.94 1.67-.94 3.04zm57.49 11.45a19.06 19.06 0 0 1-10.51 3.09c-2.88 0-5.35-.53-7.39-1.59a11.27 11.27 0 0 1-4.7-4.44 12.96 12.96 0 0 1-1.64-6.56c0-2.5.54-4.72 1.62-6.65a11.75 11.75 0 0 1 4.47-4.54 13.14 13.14 0 0 1 6.65-1.64c2.47 0 4.65.53 6.53 1.59a11.32 11.32 0 0 1 4.42 4.42 13.3 13.3 0 0 1 1.52 7.72c-.05.38-.1.78-.17 1.19h-16.87c.76 2.79 2.84 4.18 6.23 4.18 1.52 0 2.87-.24 4.04-.71a22.1 22.1 0 0 0 2.95-1.43l2.85 5.37zm-11.31-16.35c-2.69 0-4.31 1.43-4.85 4.28h9.22c-.22-1.55-.75-2.65-1.59-3.3a4.43 4.43 0 0 0-2.78-.98zm25.57 19.44c-2.09 0-4.05-.33-5.87-1a16.12 16.12 0 0 1-4.92-2.85l3.52-4.66a15.3 15.3 0 0 0 3.59 2.16c1.28.55 2.54.83 3.78.83.82 0 1.48-.14 1.97-.43.49-.28.74-.71.74-1.28 0-.6-.28-1.08-.83-1.45-.55-.36-1.54-.72-2.97-1.07l-2.28-.57c-4.53-1.2-6.8-3.63-6.8-7.27 0-1.61.44-3.01 1.33-4.18a8.59 8.59 0 0 1 3.66-2.71c1.55-.63 3.36-.95 5.42-.95 2.03 0 3.93.32 5.73.95 1.79.63 3.43 1.55 4.92 2.76l-3.61 4.75a15.5 15.5 0 0 0-3.52-2.14 8.7 8.7 0 0 0-3.47-.81c-1.74 0-2.61.57-2.61 1.71 0 .51.26.92.78 1.24.52.32 1.26.6 2.21.86l3.09.85c2.31.63 4.02 1.58 5.13 2.85a6.62 6.62 0 0 1 1.66 4.51c0 1.58-.45 2.97-1.33 4.16a8.53 8.53 0 0 1-3.73 2.76c-1.61.65-3.47.98-5.59.98z" style="fill:#404040"/>
  <circle class="st0" cx="217.4" cy="5.05" r="4.95"/>
</svg>