<?xml version="1.0" encoding="utf-8"?>
<!-- Generator: Adobe Illustrator 24.3.0, SVG Export Plug-In . SVG Version: 6.00 Build 0)  -->
<!DOCTYPE svg PUBLIC "-//W3C//DTD SVG 1.1//EN" "http://www.w3.org/Graphics/SVG/1.1/DTD/svg11.dtd" [
	<!ENTITY ns_extend "http://ns.adobe.com/Extensibility/1.0/">
	<!ENTITY ns_ai "http://ns.adobe.com/AdobeIllustrator/10.0/">
	<!ENTITY ns_graphs "http://ns.adobe.com/Graphs/1.0/">
	<!ENTITY ns_vars "http://ns.adobe.com/Variables/1.0/">
	<!ENTITY ns_imrep "http://ns.adobe.com/ImageReplacement/1.0/">
	<!ENTITY ns_sfw "http://ns.adobe.com/SaveForWeb/1.0/">
	<!ENTITY ns_custom "http://ns.adobe.com/GenericCustomNamespace/1.0/">
	<!ENTITY ns_adobe_xpath "http://ns.adobe.com/XPath/1.0/">
]>
<svg version="1.1" id="Capa_1" xmlns:x="&ns_extend;" xmlns:i="&ns_ai;" xmlns:graph="&ns_graphs;"
	 xmlns="http://www.w3.org/2000/svg" xmlns:xlink="http://www.w3.org/1999/xlink" x="0px" y="0px" viewBox="0 0 500 54.8"
	 style="enable-background:new 0 0 500 54.8;" xml:space="preserve">
<style type="text/css">
	.st0{fill:#0069A2;}
</style>
<metadata>
	<sfw  xmlns="&ns_sfw;">
		<slices></slices>
		<sliceSourceBounds  bottomLeftOrigin="true" height="50.3" width="494" x="119" y="15"></sliceSourceBounds>
	</sfw>
</metadata>
<g>
	<g>
		<g>
			<g>
				<polygon class="st0" points="111.2,46.2 80.2,46.2 80.2,43.2 84.6,43.2 84.6,10.7 80.2,10.7 80.2,7.7 110.6,7.7 110.6,17.7 
					106.9,17.7 106.9,11.9 95.1,11.9 95.1,24.8 100,24.8 100,20.7 103.6,20.7 103.6,31.9 100,31.9 100,27.8 95.1,27.8 95.1,42.1 
					107.4,42.1 107.4,35.6 111.2,35.6 				"/>
				<polygon class="st0" points="145.5,46.2 115,46.2 115,43.2 119.4,43.2 119.4,10.7 115,10.7 115,7.7 135.1,7.7 135.1,10.7 
					129.9,10.7 129.9,42.1 141.7,42.1 141.7,35.6 145.5,35.6 				"/>
				<path class="st0" d="M197.9,10.7h-3.1v22c0,10.6-6.5,14.3-16.5,14.3c-10.9,0-16.5-4.6-16.5-12.7V10.7h-3.6v-3h18.4v3h-4.4v21.8
					c0,8.4,3.3,10.4,9.5,10.4c6.4,0,8.8-3.4,8.8-10.4V10.8h-4.8V7.7h12.2L197.9,10.7z"/>
				<path class="st0" d="M211.8,43.2h5.1v3h-13.8v-3h4.4V12.4c0-0.1-1.2-1.7-1.2-1.7h-4.4v-3h14.7l18.6,25.6V10.7h-5.8v-3h14.2v3
					h-4.2v36.1h-6.7l-21-28.7L211.8,43.2z"/>
				<polygon class="st0" points="267.8,46.2 247.8,46.2 247.8,43.2 252.5,43.2 252.5,10.7 247.8,10.7 247.8,7.7 267.8,7.7 
					267.8,10.7 263,10.7 263,43.2 267.8,43.2 				"/>
				<polygon class="st0" points="295.3,47.2 289.2,47.2 275,10.7 271.8,10.7 271.8,7.7 291.4,7.7 291.4,10.7 285.7,10.7 295.4,36.3 
					305.3,10.7 301,10.7 301,7.7 312.7,7.7 312.7,10.7 309.6,10.7 				"/>
				<polygon class="st0" points="347.3,46.2 316.8,46.2 316.8,43.2 320.1,43.2 320.1,10.7 316.8,10.7 316.8,7.7 346.7,7.7 
					346.7,17.7 343,17.7 343,11.9 330.6,11.9 330.6,24.8 336.1,24.8 336.1,20.7 339.6,20.7 339.6,31.9 336.1,31.9 336.1,27.8 
					330.6,27.8 330.6,42.1 343.5,42.1 343.5,35.6 347.3,35.6 				"/>
				<path class="st0" d="M372.6,28.5c10.1-0.9,12.1-5.4,12.1-9.8c0-7-4.4-11-14.1-11h-19.4v3h4.9v32.5h-4.9v3h19.4v-3h-4.1V31.1h1.5
					l8.9,15.1h12.7v-3h-2.8l-5.3-8.6c-2.7-4.3-3.7-5.4-8.9-5.8L372.6,28.5L372.6,28.5z M366.6,11.6h0.5c5.8,0,6.8,2.3,6.8,7.3
					c0,5-0.8,8.4-7.1,8.4h-0.2L366.6,11.6z"/>
				<path class="st0" d="M397.7,46.8h-4V35.6h4v6.2c2.8,0.8,5.2,1,8.6,1c4.8,0,6.7-1.3,6.7-4.7c0-2.7-2.3-3.9-7.8-6.5
					c-8.5-4.1-11.3-6.8-11.3-13.8c0-7.2,5.4-10.7,12.7-10.7c2.3,0,7.4,0.8,9.2,2.2V6.8h3.7v10.9h-3.7v-5.6c-2.2-0.6-4.6-0.7-6.8-0.7
					c-4,0-5.9,1.2-5.9,4.1c0,3.5,2.3,4.5,7.2,6.9C417,25.6,422,28.2,422,36c0,7.4-5.7,11-13.4,11c-3.4,0-8.2-0.7-10.9-2.3
					L397.7,46.8z"/>
				<path class="st0" d="M434.2,35.5h14l3,7.7h-4.7v3h18.5v-3h-3.3L447.3,6.7h-6.1L427,43.2h-3.6v3h11.9v-3h-4L434.2,35.5z
					 M447,32.2h-11.5c0.1,0,5.8-14.9,5.8-14.9L447,32.2z"/>
				<polygon class="st0" points="498.2,46.2 468.9,46.2 468.9,43.2 472.1,43.2 472.1,10.7 468.9,10.7 468.9,7.7 486.7,7.7 
					486.7,10.7 482.6,10.7 482.6,42.1 494.4,42.1 494.4,35.6 498.2,35.6 				"/>
			</g>
		</g>
	</g>
	<g>
		<g>
			<path class="st0" d="M14.9,33.6c2.3,1.2,3.9,1.5,12,1.9c1.3-0.2-2.4-0.6-3-0.8c-2.7-0.8-0.3-1.2-2.1-1.1
				c-1.7,0.1-3.9-0.1-5.3-0.3C14.8,32.9,13.1,32.3,14.9,33.6z"/>
			<path class="st0" d="M55.2,24c0.1-0.1,0.2-0.3,0.3-0.4C55.4,23.7,55.3,23.8,55.2,24z"/>
			<path class="st0" d="M29.1,40c0.6,0.9,3.4,1,4.4,0.7c0.8,0.1,0.3-0.4-0.2-0.5c-0.5,0.1-1-0.4-1.1-0.4
				C29.9,40.3,28.9,39.6,29.1,40z"/>
			<path class="st0" d="M74.9,27c-3.6,0.6-13.3-1.3-17.5,0.5c0.6-1.8,0.9-3.7,0.9-6.1c0-10.6-8.6-19.3-19.2-19.3
				c-10.6,0-19.2,8.6-19.2,19.3c0,2.2,0.4,4.3,1.1,6.3c-15,1.1-16.6-1.5-16.8-0.2c0.2,3.3,5.1,6.5,7.2,6.2c0,0,2.7,3.4,7.5,3.7
				c0,0,1.8,1.9,4.4,2c0.7,0.9,2.1,2.2,3.8,1.7c0,0,0.4,0.9,1.6,1.1c0,0-0.1,0.4,0.4,0.6c-1,0-8,1.3-11,3.7c0.3,1.3,2.8,2.1,3.5,1.9
				c0.6,1.2,2.1,2.4,3.5,2.4c1.4,1.4,3.1,1.6,4.3,1.5c1.3,0.5,4.3-0.5,4.8-2.7c0.2-0.9,0.8-2.3,2.1-2.4c0,0,0.6,0.1,1,0.6
				c-0.7,0.6-0.9,2.7,0.3,3.4c1.1,0.7,2.4,0.6,3.5,0.4c0.7,0.7,1.3,0.2,1.7,0.4c-0.1,0.2,0.6,0.7,1.3,0.4c0.7-0.3,0.8-0.6,0.9-0.8
				c0.2-0.2,0.3-0.6,0.2-0.7c0.4-0.2,0.3-0.5,0.3-0.7c0.5,0.1,0.9-0.6,0.9-1c-0.1-0.9-0.6-1-1.4-1c0.9-0.7,2.1-0.8,3.8-1
				c1.6-0.2,2.5-0.6,3.4-1c1-0.3,1.8-0.3,2.6-0.5c0.6-0.1,1-0.1,1.3-0.2c0.2,0.2,0.9,0.5,2.8,0.2c2.1-0.3,4.5-0.3,4.5-0.3
				c1.2-3.3-1.6-3.8-1.6-3.8c-0.4-0.9-0.7-1.6-2.1-1.9c-1.3-0.3-1.7-0.3-1.9-0.9c-0.4-0.1-0.7,0-1,0c0.2-0.2,0.5-0.3,0.9-0.5
				c2.7-0.7,3.3-1.5,3.7-2c3.6-0.2,4.4-1.1,5.9-2c1.6-0.3,2.6-0.7,3.6-2.1C75.9,32,76.5,26.7,74.9,27z M44.9,38.3
				c-0.1-0.1-0.3-0.2-0.4-0.4c0.6-0.2,1.8-0.6,2.4-1.1c1.5-0.9,0,0.2-0.4,0.7C46.5,37.5,46.3,37.9,44.9,38.3z M30,27.8
				c0,0-0.2-0.8,0.1-0.9c0.6-0.2,1.6-1.2,2.3-1.4c0,0,0.5-0.5-2.7,0.7c0-0.3,0-0.3,0-0.7c0.1-0.1,0.6-0.4,1-0.4
				c0.1-0.4-0.8-0.1-1-0.3c-0.1-0.2,0-0.5,0-1.1c1.4,0.3,2.4,0.5,3.8,0.6c0.2,0.2,1.5,0.9,1,0.2l0-0.1c0.3,0,0.5,0,0.8,0
				c0.1,0.4,0.2,0.5,0.2,0.5s0,0,0.2,0.2l0,2.4c-0.3,0.1-0.9,0.5-1.4,0.8c-0.5,0.2-0.8,0.2-1.1,0.2c0.8-0.5,1.1-1.1,2.1-1.7
				c0,0-0.6-0.5-2.8,1.2c-0.5,0.4-1.2,0.5-1.7,0.5v0c1-0.4,2.2-2,3.2-2.3C34.2,26,33.5,25.6,30,27.8z M25,28.1l-0.7,0
				c0-0.3-0.1-0.7-0.1-0.7c1.3,0,1.8-0.3,2.4-0.6c0.6-0.3,1.1-1,2-1c0.1,0,0.1,0.4,0.1,0.7c-0.2,0.1-0.6,0.2-0.8,0.3
				C27.1,27.3,27,28,25,28.1z M45.3,6.3c1.4,0.3,2.6,0.8,3.7,1.5c0.2,0.6,0.1,1.2-0.1,1.8c-1.2-0.9-2.4-1.7-3.8-2.3
				C45.6,7.1,45.5,6.7,45.3,6.3z M40.3,5.2L40.3,5.2C41,6.1,40,7.2,38,7.8c-2,0.6-3.9,0.2-4.6-0.7c-0.7-0.9,0-1.8,2-2.4
				C37.4,4.2,39.5,4.4,40.3,5.2z M28.8,10.5c-0.4,0.3-0.2,0.7-0.3,1.1c0,0.2-0.2,0.5-0.3,0.8c-0.2,0.2-0.3,0.5-0.5,0.7
				c-0.2-0.2-0.6-0.4-0.8-0.6c-0.2-0.1-0.3-0.3-0.4-0.5c0.7-0.8,2-1.7,2.8-2.2C29,10.1,28.9,10.4,28.8,10.5z M38.6,22.5
				c0.1-0.3,0.2-0.5,0.4-0.8c0.2-0.3,0.9-0.3,1.1-0.3c0.3,0,0.5,0.1,0.6,0.1c0.2,0,0.3-0.2,0.5-0.4c0.2-0.2,0.5-0.1,0.7-0.1
				c0.3,0,0.5,0.2,0.7,0.2c0.2,0.1,0.2,0.1,0.4,0.3c0.1,0.1,0.1,0.4,0.1,0.6c-1.7,0.4-3.2,0.6-4.8,0.7
				C38.5,22.8,38.6,22.7,38.6,22.5z M42.7,11.1c-0.4,0.1-0.8,0-1,0.2c-0.2,0.2-0.2,1-1.1,0.6c-0.5-0.7-0.7-0.4-1.1-0.8
				c-0.3-0.4,0-0.8,0.2-0.8c0.3-0.1,0.2-0.3,0.2-0.6c-0.1-0.3-0.4-0.4-0.3-0.8c0.1-0.2,0.1-0.6,0.7-0.3c0.2,0.1,2,1.4,2.4,1.9
				C43.2,10.8,43.1,11,42.7,11.1z M29.7,6.9c0.7-0.5,2.1-1.1,2.5-1.1c-0.2,0.3-0.6,0.9-0.7,1.1c-1.3,0.7-3.8,2.6-5.4,4.6
				c-0.2-0.7-0.1-1.4,0.1-1.7C27.3,8.4,28.4,7.7,29.7,6.9z M26.1,13c0.2,0.3,0.6,0.7,1,1c-1.1,1.8-2.2,4-2.7,6
				c-0.6-0.3-1.3-1.2-1.5-1.9c0.3-1.4,1.6-3.7,3-5.4C26,12.7,26.1,12.9,26.1,13z M24.8,21.2c0.4,0.3,0.5,0.5,1,0.8
				c-0.4,0-0.7,0.1-1.2,0.2C24.7,21.9,24.7,21.5,24.8,21.2z M23.9,20.6c-0.3,0.1-1,0.3-0.8,0.4c0.3-0.1,0.8,0,1.1-0.1
				c-0.1,0.5-0.2,1-0.3,1.5c-0.4,0.1-1.2,0.4-1.3,0.8c0.3-0.1,0.8-0.2,1.2-0.3c0,0.5-0.1,0.9-0.1,1.4c-0.2,0.1-0.6,0.4-0.7,0.6
				c0.2,0,0.5-0.2,0.7-0.2c0,0.1,0,0.5,0,0.6c0,0.2-0.1-1.4,0,0.5c-0.1,0.2-0.4,0.4-0.5,0.5c0.1,0,0.4-0.1,0.5-0.1
				c0,0.6,0.2,1.4,0.3,1.8c-0.2-0.1-0.7-0.4-1-0.7c-0.2-0.3-0.4-0.5-0.6-0.8c-0.5-2-0.3-4.9,0.3-7.7C22.9,19.5,23.5,20.2,23.9,20.6z
				 M21.8,25.1c0,0-1.2-4.8,0.2-8.7c0,0.6,0.1,1.4,0.2,1.9C22.3,18.3,21.5,22,21.8,25.1z M25.4,25c-0.4,0.2-0.7,0.4-1.2,0.7
				c0-0.5,0-0.8,0-1.2c0.3-0.1,0.7-0.3,0.9-0.3c1-0.3,1-0.7,1.9-0.9c0,0-0.3-0.4-2.3,0.4c-0.1,0-0.3,0.2-0.5,0.3
				c0-0.3,0.1-0.9,0.2-1.2c0.7-0.2,0.8-0.6,1.5-0.7c0.8,0.4,1.9,1,2.8,1.2c0,0.6,0,1.6-0.4,1.7c-0.5,0.1-1.2,0.7-1.8,1
				c-0.6,0.4-1.2,0.9-2.3,1.1c-0.1-0.3-0.1-0.6-0.1-0.9c0.6-0.2,1.2-0.4,1.6-0.6c1-0.4,1.3-1.1,2.3-1.4C28.1,24.1,27.9,23.7,25.4,25
				z M25.2,20.5c0.4-0.2,1.4-0.3,1.2-0.5c0,0-0.5,0-1.1,0.1c0.7-2,1.3-3.4,2.6-5.1c0.5,0.5,0.3,1,0.9,1.2c0.4,0.3,0.3,0.7,0.6,1
				l0.3,0.2c-0.3,1.2-0.5,2.8-0.8,4.9C27.4,21.8,26.3,21.3,25.2,20.5z M31,18.1c0,0,0.7,0.2,0.4,0.9c-0.3,0.7-0.1,1,0,1.2
				c0.2,0.2,0.3,0.5,0.4,0.8c0.1,0.3,0.5,0.6,0.7,0.7c0.2,0.1,0.1,0.5,0.1,0.5s0.4,0.4,0.6,0.6c0.1,0.1,0.1,0.1,0.2,0.2
				c-1.3-0.1-2.3-0.3-3.4-0.5C30.1,21.4,30.3,19.8,31,18.1z M33.2,21.6c-0.3-0.6-0.1-0.8,0.1-0.8c0.2,0,0.8,0.5,0.9,0.7
				c0.1,0.3,0.3,0.4,0.5,0.7c0.1,0.3,0.4,0.6,0.5,0.9c-0.3,0-0.8,0-1.2,0c-0.1-0.2-0.1-0.3-0.1-0.4C33.7,22.4,33.5,22.2,33.2,21.6z
				 M41.2,31.7c0.9-1,0.9-1.3,2.3-2.4c0,0,0.2-0.8-2.7,1.3c-0.3,0.1-0.6,0.3-0.7,0.1c0.8-0.6,1.2-1.7,2.1-2.1c0,0-0.3-0.5-2.7,1.1
				c-0.3,0.2-0.6,0.2-0.8,0c0.7-0.5,1.2-1.3,2-1.6c0,0-0.1-0.3-2.4,0.9c-0.2,0.1-0.3,0.2-0.7,0c0.6-0.5,1.2-1.2,1.8-1.5
				c0,0,0-0.3-2.3,0.5c0-0.3,0-0.3,0-0.5c0.2-0.1,0.5-0.4,1-0.6c0,0-0.2-0.3-1,0c0,0,0-1,0-1.5c0.2,0.1,0.6,0.5,0.6,0.5
				s0.4,0.2,0.6,0c0.2-0.1,0.8-0.4,1.3-0.3c0.4,0.1,1.1,0.6,1.2,0.7c0.1,0.1,0.4,0.1,0.5,0.4c0.1,0.3-0.1,0.4,0,0.6
				c0,0.2,0.1,0.3,0.7,0.5c0.6,0.2,0.7,0.2,0.9,0.4c0.2,0.1,0.5,0.1,0.6,0.1c0.1,0,0.3-0.2,0.4-0.3c0.1,0,0.6,0,0.6,0
				c0.4,0.1,0.2,0.5,0.2,0.8c0,0.6-0.6,0.8-0.9,1.3C42.5,31.1,41.5,32.9,41.2,31.7z M44.8,27.1c-0.5,0-0.8,0.1-1.2,0.3
				c-0.5,0.2-0.8,0-0.9-0.2c-0.1-0.3-0.1-0.4,0-1c0.1-0.6-0.7-0.4-1.1-0.6c-0.3-0.2,0-0.7,0.2-1c0.1-0.3-0.7-0.4-0.9-0.4
				c-0.2,0-0.3,0.8-0.8,1c-0.4,0.2-0.5,0.1-1-0.2c-0.5-0.3-0.6-0.5-0.6-1c1.8-0.2,3.2-0.5,4.6-0.8c0.4-0.1,0.2,0.2,0.6,0.1
				c0.1,0,0.2-0.1,0.3-0.3c0.1,0.2,0.3,0.8,0.3,1.1c-0.1,0-0.4-0.1-0.6-0.2c-0.2-0.1-1.2,0.2-1.4,0.3c-0.1,0.1,0.3,0.2,0.5,0.2
				c0.2,0.1,0.5,0.3,0.7,0.3c0.2,0.1,0.3,0.5,0.7,0.5c0.1,0,0.3,0,0.3,0.2c0.2,0.6,0.4,1.3,0.6,2C45,27.2,44.9,27.2,44.8,27.1z
				 M44.3,22c0-0.3,0-0.6,0-0.8c-0.1-0.4,1.2-1,1.2-1s0.5-0.2,0.9-0.4c0.4-0.2,0.4-1.4,0.2-1.9c-0.2-0.5-0.3-1-0.1-1.3
				c0.2-0.3,1,0.5,1.5,0.3c0.3-0.1,0.3-0.4,0.4-0.6c0.7,1,1.2,2,1.7,3.1c-1.6,1.1-3.7,2-5.7,2.5C44.4,21.9,44.3,21.9,44.3,22z
				 M47.5,13.7c0.2,0,0.3,0,0.5,0c0.4,0,1,0,1.1-0.5c0.1-0.5-0.1-1.5-0.1-1.5c-0.1-0.4-0.7-0.4-0.8-0.6l0-0.1c0.3-0.3,0.6-0.6,0.7-1
				c2.2,1.5,3.8,3.4,5,5.4c-0.7,1.3-1.7,2.6-3.2,3.7C49.8,17.2,48.7,15.4,47.5,13.7z M48.7,10c-0.2,0.3-0.4,0.6-0.8,0.9
				c-0.2-0.1-0.4-0.2-0.8-0.2c-0.6,0.1-0.8-0.4-0.8-0.4s0.8-0.6,0.5-1C46.4,9,44.4,9,44.4,9c-0.7-0.2-0.7,0.3-0.8,0.6
				c-0.5-0.4-1.1-0.9-1.6-1.3l0,0c0-0.8,0.9-0.3,0.9-0.7c0-0.3-1-0.7-0.6-0.8C44.7,7.6,46.9,8.7,48.7,10z M40.9,4.3
				c-0.2,0-0.9-0.4-1.1-0.4C39.9,3.8,40,3.7,40,3.7c1.3,0.1,2.5,0.3,3.7,0.6C42.9,4.2,41.8,4.1,40.9,4.3z M25.8,10.1
				c-0.1,0.3-0.3,1.2-0.2,1.8c-1.4,1.7-2.6,4-3.1,5.7c-0.2-0.3-0.4-1-0.4-1.5C22.9,13.9,24.4,11.6,25.8,10.1z M28,27.7
				c0.5-0.2,0.7-0.2,0.7-0.2c0.1,0,0.1,0.2,0.2,0.7c-0.7,0.3-2.4,0.3-3.4,0.1C26.8,28.2,27.4,28,28,27.7z M42.1,33.6
				c-0.2-0.2-0.3-0.4-0.3-0.6c2.5-0.6,5-3.3,3.5-1.6c-0.3,0.5-0.8,1.2-2.1,1.7L42.1,33.6z M45.8,32.6c1.4-1.1,1.3-0.7,0.2,0.1
				c-0.5,0.3-0.8,1.3-3.2,2.2c-0.2-0.1-0.3-0.3-0.3-0.6C42.5,34.3,44.6,33.5,45.8,32.6z M47.5,33.5c-1.1,0.9-0.7,1.2-2.8,2.1
				c-0.6,0.2-1.3,0.5-1.3,0.5c-0.1-0.1-0.3-0.5-0.3-0.6C46.1,34.7,47.8,32.8,47.5,33.5z M47.2,35.2c1-0.6-0.3,0.2-0.5,0.8
				c-0.9,0.7-1.5,1-2.6,1.3c-0.1-0.1-0.3-0.3-0.4-0.5C45,36.7,47,35.4,47.2,35.2z M53,30.7c0.4-1.1,0.7-1.7,0.6-2.2
				c0-0.2,0.3-0.4-0.2-0.8c-0.5-0.4-2.3,1.7-2.9,1.3c-0.4-0.2-0.7,0.1-1.1,0c-0.2-0.1-0.3-0.1-0.4-0.2c2.8-1.4,4.8-3,6.1-4.8
				c-1.4,1.9-3.7,3.3-6.7,4.5c-0.3-0.1-0.3,0.1-0.5-0.1c-0.3-0.3-1-0.5-1.6-0.4c-0.3,0-0.8,0-0.8,0s-0.2-0.3-0.4-0.6
				c-0.1-0.8-0.1-1.3-0.3-2.2c0.2-0.1,0.4-0.1,0.4-0.1c0.4,0,0.4,0.3,0.7,0.3c0.2,0.1,0.7-0.2,0.7-0.4c0.1-0.2-0.3-0.4-0.6-0.6
				c-0.3-0.1-0.4-0.3-0.6-0.4c-0.2-0.1-0.6,0.1-0.8,0.1c-0.1-0.5-0.2-0.9-0.3-1.4c0.1,0,0.1,0,0.2-0.1c2.5-0.7,4.1-1.9,5.7-3.1
				c0.9,1.9,1.8,3.6,2.2,5.5c-0.3-1.9-0.9-3.9-1.7-5.8c1.6-1.2,2.7-2.5,3.2-3.8c0.9,1.4,1.5,2.9,1.9,4.4c-0.4-1.6-1-3.1-1.8-4.5
				c0.1-0.2,0.1-0.4,0.2-0.5c-0.1,0.2-0.1,0.3-0.2,0.5c-1.2-2.2-2.9-4.1-4.9-5.7c0.2-0.6,0.2-1.2,0-1.8c2,1.2,3.7,2.9,5.2,5.1
				l-0.1-0.1c-2-3.4-4.9-5.9-9.3-7.1l-0.5-0.3L42.4,5c-0.1-0.2-0.5-0.5-0.6-0.5c1-0.1,2.1-0.1,3.1,0.2c6.9,2.4,11.8,9,11.8,16.7
				c0,3.6-1.6,7.9-4,11.2C52.9,31.9,52.9,31,53,30.7z M27,50.1c1.8-0.3,3.9-1.5,5.6-3c0,0.1-0.1,0.1-0.1,0.2
				C31.5,50.3,27.9,50.7,27,50.1z M29,50.8c1.3,0,2.9-0.5,4.3-2.5C32.3,51.8,29.7,51,29,50.8z M38.4,50.5c-0.7-0.5-0.7-1.8-0.2-2.3
				c0-0.5,0.3-0.6,0.2,0.4c-0.2,1.8,1.2,1.9,1.7,2.1C40.6,50.9,39.1,50.9,38.4,50.5z M41.3,49.4c-0.1-0.2-0.1-0.5,0.4-0.9
				c2.2-1.9-0.2-1.7,0.8-2.5c-0.2,0.5,3.4,0.8-0.6,2.7C41.8,48.9,41.5,49.1,41.3,49.4z M44.8,50.2c0,0.1-0.1-0.1-0.1-0.1
				c-0.1-0.2-0.3-0.1-0.3,0c0.3,0.3,0.2,0.7,0,0.4c-0.1-0.1-0.2-0.1-0.3-0.1c0.2,0.2,0.2,0.5-0.1,0.8c-0.2,0.2-0.6,0.3-0.6,0.2
				c0-0.2,0.2,0,0.3-0.2c0.1-0.1,0.1-0.4-0.2-0.6c-0.3-0.2-0.8-0.1-0.6,0.2c0.1,0.2,0.3,0.3-0.1,0.3c-0.1,0-0.3,0-0.5-0.1
				c-0.2-0.1-0.5-0.2-0.5-0.4c0-0.2,0.2,0.1,0.4,0c0.3,0,0.5-0.8,1.2-0.7c0.1,0,0.2,0,0.3-0.1c0-0.1,0-0.2,0.1-0.2
				c0.1,0,0.2,0,0.3,0c0.2,0,0.2-0.1,0.2-0.2c0.1-0.1,0.2-0.1,0.3,0C44.8,49.7,44.9,50.1,44.8,50.2z M45.1,48.8
				c0.4,0,0.5,0.4,0.3,0.7c-0.2,0.2-0.1-0.1-0.2-0.3c0-0.1-0.2-0.2-0.4-0.2c-0.1,0-0.2-0.2-0.1-0.2C44.9,48.8,45,48.8,45.1,48.8z
				 M56.9,39.6c0,0,0.2,0.7,1.2,0.9c1,0.2,2.2,0.7,2.4,1.6c0.1,0.4,2.7,0.4,2.1,2.2c0,0-1.3,0-2.9-0.3C59.5,44,60.4,44,60,44.3
				c-0.6,0.4-3.8,0.5-3.1-0.3c0.2-0.2,0.8-0.3,0.8-0.4c0,0-0.6-0.1-1.2,0.1c-0.5,0.1-0.8,0.1-1.1,0c-0.4-0.2-0.6-0.5,0.3-0.7
				c1-0.2,0.4-0.2-0.5-0.2c0,0-1.6,0-1.5-0.3c0-0.4,0.7-0.3,1.7-0.6c0.9-0.2,0-0.1-0.6-0.2c0,0-1.4,0-1.6-0.3
				c-0.2-0.3,0.6-0.4,0.3-0.6c-0.5,0.3-1.7,0.2-1.4,0.7c0.1,0.2,0.9,0.4,1.2,0.5c-1.1,0.3-0.8,0.9-0.3,1.3c0.2,0.1,0.4,0.2,0.5,0.3
				C52.9,44,52,44.1,51.8,44c-0.2-0.3,0.5-0.4,0.4-0.6c-4.1,0.6-0.6-0.7-0.6-0.7c0-0.4-3,0.6-2.8-0.1c0.5-0.3,1.1-0.3,1.7-0.5
				c-0.2-0.3-2.3,0.2-2.6-0.2c-0.3-0.3,0.7-0.2,0.9-0.4c-0.1-0.3-2.6-0.5-3.1-0.3c-0.2-0.3-1.4-1-1.9-0.9c-0.2-0.7-1.1-1.1-1.5-1.3
				c-0.1-0.4-0.5-0.8-0.7-1.1c-0.2-0.2-0.4-0.3-0.7-0.4c0-0.2-0.4-0.9-0.6-1.2c-0.2-0.4-0.5-0.4-0.7-0.6c0-0.3-0.1-0.6-0.4-1
				c-0.2-0.3-0.4-0.5-0.6-0.6c0,0-0.1-0.6-0.4-0.8c-1.4-2.5-7.1-2.3-14-2.1c-4.5,0.1-9.6,0.2-14.5-0.6c2.6,2.5,15.1,1.8,20.9,2.6
				c-1.2,0.6-3.1,0.3-5.5,0.5c-0.4,0.5,3.8,1.2,7.7,1.5c-1.3,0.2-2.9,0.4-4.3,0.7c-0.9,0.2,4.8,1,7.2,1.1c-2.3,0.5-5,0.5-4.6,1
				c1.1,0.5,4.3,0.4,6.4,0.5c-2.5,1-4.7,0.3-4.6,0.7c0.4,0.1,1.4,0.4,2.7,0.5c1.1,0,2.8-0.1,3.4,0.1c0.2,0.2-1,0.2-1.9,0.3
				c-2.2,0.4-3,0-2.4,0.4c0.4,0.2,2.2,0.3,2.8,0.3c1.3,0,2.8,0.1,3,0.5c-0.7,0-1.3-0.1-2.1,0.1c-1.8,0.2-2.7-0.1-2.3,0.2
				c0.7,0.4,2.1,0.4,2.8,0.4c2,0.2,2.5,0.4,2.8,0.7l-0.5,0c-1.4-0.2-3-0.1-4.4-0.2c-0.3,0.4,1.5,0.4,1.7,0.9
				c-1.5,0.4-3.1,0.7-4.7,0.7c-0.3,0-0.9-0.2-0.8,0c0.1,0.2,0.7,0.2,1,0.3c1.2,0.3,1.9,0.1,2.7,0.1c0.4,0.7-5.8,0.4-5.2,1
				c1-0.2,2.3,0.2,3.1,0.1c-0.2,0.1,0.5,0.3-1.7,0.6c-1.8,0.6-4.6,4.1-8,3.3c-0.8-0.3-0.9-0.6-0.9-0.6c2.6,0.7,7.4-2.8,7.4-2.8
				c-1.2-0.5-6.1,2.9-8.2,2.2c-0.5-0.3-0.5-0.3-0.5-0.5c2.9-0.5,7-2.9,7-2.9c-3.6,0.4-6.3,2.2-8.5,2.1c-0.4,0-0.5,0-0.7-0.4
				c0,0,5.2-2.6,11.9-3.3c-0.9-0.2-2.1-1.1-2.2-1.8c-1.2-0.2-2.1-1-2.2-1.6c-1.9,0-2.6-0.6-3.7-2.2c-3.6,0-4.3-2-4.3-2
				c-6.7,0-7.2-3.2-7.2-3.2C8.3,32.3,6.4,29,6.4,29c5.5,2,26.2-0.6,30.9,1.5c4.1,1.9,4.8,10.5,11.4,9.4c-0.7-0.2-1.4-0.4-2.1-0.8
				c0.4-0.2,1.5-0.7,2.1-1.1c3-1.9,4.7-4.5,7.6-7.7c2.3-3,14.3-0.8,17.4-1.6c-0.2,1.1-1.6,1.9-4.5,2.4c-1.2,0.2-0.3,1.4-2.6,1.9
				c-1.6,0.4-1.7,1.6-5.8,1.8c-0.6,0-1.4,1.5-4.8,2.2c-0.3,0.1-0.6,0.1-0.9,0.2c-0.7-0.2-1-0.3-1.2-0.5c0.9,0,1.6,0.1,1.8-0.2
				c-0.3,0-1.2-0.2-1.1-0.4c1.4,0,2.9-0.1,2.7-0.3c-0.9,0-1.3-0.3-1.6-0.6c1.2,0.1,2.9,0.1,3.4-0.3c0.1-0.2-1.8,0.1-2.8-0.7l0,0
				c1.1,0,7.5,0.1,7.1-0.7c-1.4,0.3-4.6-0.1-6.2-0.3c0.7-0.1,1.7-0.3,2.6-0.3c2.9-0.1,7.4-0.2,7-1.2c-2.8,0.6-6.1,0.1-8,0.1
				c0.1,0,0.1-0.1,0.2-0.1c0.8-0.6,4.9-0.6,6.1-0.8c1-0.1,6.3-0.4,6.5-1.1c-0.7,0.4-3.7,0.1-6.4,0.2c-2.8-0.1-5.9-0.2-7.4,1.1
				c-0.4,0.3-0.9,0.8-1.3,1.2c-0.2,0.3-1.1,1.4-1.3,1.6c-0.5,0.7-2.9,3.5-4.8,4.6c-0.5,0.3-1,0.2-1.1,0.4h0c0.1,0,0.2,0,0.3,0
				c2.2,0.3,4.4,0.7,5.5,1.5c-0.2-0.3-0.1-0.6,0.3-0.8c0,0.2,0.7,1.1,1.5,1.1C56.4,39.7,56.9,39.6,56.9,39.6z"/>
			<path class="st0" d="M31,41.5c0.5,0.6,1.7,1.1,4.1,0.5c1,0.1-0.7-0.8-1.1-0.8C31.9,41.9,30.8,41,31,41.5z"/>
			<path class="st0" d="M57,41.9c0.8,0.2,1,1.8,2.5,0.7C60.3,41.9,55.2,41.3,57,41.9z"/>
			<path class="st0" d="M35.1,42.5c-1.4,0.5-2.7,0.1-2.5,0.2c0.4,0.6,2.2,0.8,3.7,0.4c0.8,0,0-0.3-0.2-0.3
				C35.4,42.8,35.4,42.4,35.1,42.5z"/>
			<path class="st0" d="M22.9,36c-0.5,0-1.7-0.4-1.4-0.1c0.6,0.8,1.9,1.8,8.5,1.3c0-0.1-0.5-0.2-1.1-0.4c-2.2-0.2-0.9-0.6-2.5-0.7
				C25.4,36.1,24.6,36.3,22.9,36z"/>
			<path class="st0" d="M26.8,38.1c-1-0.1-1.3-0.3-1.3-0.2c0.7,1.6,5,1.5,6.6,1.1c0-0.1-0.5-0.2-0.8-0.3c-1.9-0.3-0.7-0.5-1.7-0.6
				C28.6,38,27.6,38.2,26.8,38.1z"/>
		</g>
	</g>
</g>
</svg>