<?xml version="1.0" encoding="utf-8"?>
<!-- Generator: Adobe Illustrator 27.0.0, SVG Export Plug-In . SVG Version: 6.00 Build 0)  -->
<svg version="1.1" id="Capa_1" xmlns="http://www.w3.org/2000/svg" xmlns:xlink="http://www.w3.org/1999/xlink" x="0px" y="0px"
	 viewBox="0 0 1639.9 421.8" style="enable-background:new 0 0 1639.9 421.8;" xml:space="preserve">
<style type="text/css">
	.st0{fill:#2E3638;}
</style>
<g>
	<path class="st0" d="M1327.9,0.3c2.7,0.4,4.7,1.7,5.9,4.1c0.2,0.3,0.3,0.6,0.4,0.9c0.5,2,0.6,4.4,0.5,7.2c0.1,6.1,0,12.2-0.3,18.2
		c-0.2,4.7-0.2,9.5,0,14.3c0,0.3,0,0.7,0,1c-0.2,24.4-0.2,48.8,0.2,73.2c0.1,4.2,0.1,8.1,0,11.8c0,0.3,0.2,0.5,0.5,0.6
		c4.6,0.9,9.3,1.8,14.2,2.6c0.6,0.1,0.9,0.4,0.9,1c0.1,1.8,0,3.7-0.3,5.5c-0.1,0.8-0.6,1.2-1.4,1.2c-13.7,0-27.5,0-41.5,0
		c-0.8,0-1.2-0.4-1.3-1.2c-0.2-1.6-0.3-3.6-0.3-5.8c0-0.3,0.2-0.5,0.5-0.6c4-1,8-1.8,11.9-2.4c1.1-0.2,1.6-0.8,1.6-1.9
		c0-7.1,0-14,0-20.6c0.3-0.3,0.5-0.9,0.5-1.5c-0.1-25.3-0.1-50.7,0-76c0-0.6-0.2-1.1-0.5-1.5c-0.1-5.2-0.2-10.5,0-16
		c0-0.7-0.1-1.1-0.5-1.2c-4.8-0.3-9.8-0.4-15.1-0.2c-0.2,0-0.4-0.1-0.5-0.3c-0.4-1.2-0.7-2.3-0.8-3.2c0.2-1,0-2-0.5-3
		c-0.2-1.4,0.2-2.2,1.3-2.5c3.9-1.1,7.5-2,10.9-2.8C1318.7,0,1323.2-0.3,1327.9,0.3z"/>
	<path class="st0" d="M1302.1,6.6c0.5,1,0.7,2,0.5,3C1301.7,8.7,1301.6,7.7,1302.1,6.6z"/>
	<path class="st0" d="M1335,9.9c0.2,14.3,0.1,28.4-0.2,42.4c0,0.3,0,0.7,0,1c0.3,17.3,0.3,34.7,0.2,52.2c0,0.3,0,0.7-0.1,1
		c-0.4,4.1-0.5,8.3-0.5,12.8c-0.4-24.5-0.4-48.9-0.2-73.2c0-0.3,0-0.7,0-1c-0.2-4.8-0.2-9.5,0-14.3c0.3-6,0.4-12.1,0.3-18.2
		C1334.8,11.5,1334.9,10.6,1335,9.9C1335,9.5,1335,9.5,1335,9.9z"/>
	<path class="st0" d="M1318.9,13.3c0.3,0.2,0.5,0.6,0.5,1.2c-0.1,5.5-0.1,10.8,0,16c0,1.6-0.1,3.2-0.1,4.8c-0.3-0.4-0.5,0.1-0.7,1.5
		C1318.8,28.9,1318.9,21.1,1318.9,13.3z"/>
	<path class="st0" d="M25.7,14.1c13.8-0.1,27.8-0.1,42-0.1c0.7,0,1.1,0.3,1.2,1.1c0.4,2.3,0.7,4.4,0.9,6.2c0.1,0.6-0.2,1-0.8,1.2
		c-4.3,1.3-9,2.2-14.2,2.9c-0.2,0-0.2,0.1-0.2,0.3c0,8.1,0,15.7,0,22.9c-0.2,8-0.3,15.9-0.3,23.6c0,12.7,0.1,25.4,0.3,38.2
		c-0.1,6.1-0.1,12.8,0.2,20c0,0.4,0.2,0.7,0.7,0.7c5.4,0.8,10.4,1.7,14.8,3c0.3,0.1,0.5,0.3,0.6,0.6c0.6,2.3,0.4,4.5-0.5,6.8
		c-0.2,0.4-0.5,0.7-1,0.7c-14.3,0-29.4,0-45.3,0c-0.6,0-0.9-0.3-1-0.9c-0.1-1.7-0.3-3.4-0.6-5.3c0-0.9,0-1.5,0-2
		c3.2-1.4,6.6-2.2,10.3-2.2c2.8-0.1,4.4-0.4,4.8-0.9c0.8-1.1,1-2.6,0.7-4.6c0-17.4-0.1-33.9-0.2-49.6c0-5.4,0-10.7,0-16
		c0-8.8,0-18,0.2-27.7c0.1-3.1-0.1-5.5-0.5-7.3c-5-1.2-9.2-2-12.5-2.5c-1-0.4-1.6-1.2-1.6-2.4c0-0.8,0-2.1,0-3.8
		c0.3-1.4,0.6-2.2,0.9-2.4C25,14.2,25.3,14.1,25.7,14.1z M39.1,51c0-0.1-0.1-0.1-0.1-0.1l0,0c-0.1,0-0.1,0.1-0.1,0.1v55.4
		c0,0.1,0.1,0.1,0.1,0.1l0,0l0,0c0.1,0,0.1-0.1,0.1-0.1c0,0,0,0,0,0V51z"/>
	<path class="st0" d="M1099.9,14.1c16.7,0.2,33.5,0.2,50.2,0c8.3-0.1,15.8,0.9,22.6,3.1c0.3,0.1,0.6,0.2,1,0.3
		c5.3,2.2,9.5,5,12.5,8.4c2.2,2.9,3.6,5.6,4.2,8.3c0.2,1,0.5,1.3,0.7,1c0.4,3.5,0.7,5.2,1,5.2c0.1,0,0.2-0.5,0.3-1.4
		c0.8,1.8,1.2,3.6,1.1,5.5c0,0.3,0,0.7,0.1,1c0.4,3,0.6,6.6,0.4,10.8c-0.2,5.6-0.6,9.9-1.2,13c0-3,0-4.4-0.1-4.4
		c-0.2,0-0.5,2.1-1,6.4c-1.5,7.1-4.5,12.9-9.2,17.5c-1.7,1.7-4.6,3.5-8.7,5.3c-4.8,2.2-9.7,3.4-14.8,3.7
		c-11.2,0.7-21.6,0.3-31.2-1.2c-0.3-0.1-0.5,0-0.5,0.2c0,1.3,0,3.1,0,5.2c0.2,10,0.1,19.3-0.2,27.7c0,0.2,0.1,0.3,0.3,0.5
		c-0.1,0.9,0.6,1.4,2,1.5c5.9,0.3,11.5,0.8,17,1.6c1.1,0.2,1.7,0.8,1.7,2c0,2.5,0,4.4,0,5.9c0,0.6-0.3,0.9-0.9,0.9
		c-16.5-0.1-32.1-0.1-46.8,0c-1.4,0-2.7-0.1-3.8-0.3c0.1-2.7,0-5.3-0.3-8c0-0.6,0.3-0.9,1-1c4.1-0.4,8.4-0.9,12.8-1.5
		c0.6-0.1,0.8-0.4,0.7-1c0.1-33.2,0.1-66.4,0-99.7c-0.3-1.4-0.4-2.9-0.2-4.2c0.1-1-0.1-1.4-0.8-1.2c-1.9-0.4-4.1-0.7-6.5-1
		c-2.2-0.3-4.4-0.8-6.5-1.5c0.1-2.3,0.2-4.5,0.5-6.7C1097.3,14.6,1098.2,14,1099.9,14.1z M1127.1,25.8c0,12.8,0,26,0,39.5
		c0,6.7,0,13.4,0,20c0.2,0.5,0.8,0.8,1.7,0.8c3.8,0,7.6,0.3,11.2,0.8c4.5,0.5,8.5,0.5,11.9-0.2c0.3-0.1,0.7-0.1,1-0.1
		c5.4-0.3,10.2-2.1,14.5-5.5c1.8-1.4,3.4-3.3,4.6-5.7c2.2-2.4,3.2-5,3.3-7.9c0-0.3,0.1-0.7,0.2-1c0.5-1.8,0.8-4.1,0.8-6.9
		c-0.1-5.1-0.1-10.2,0-15.2c0-3.2-0.7-6.1-2.1-8.7c-0.8-1.6-1.7-2.6-2.9-3c-1-1.3-2.4-2.3-4.3-3.2c-4.5-2.3-9.4-3.6-14.7-3.8
		c-6.8-0.3-14.8-0.4-24-0.2C1127.4,25.3,1127,25.5,1127.1,25.8z"/>
	<path class="st0" d="M436.4,15.3c2.8-0.1,5.1,0.6,6.9,2.3c1.8,1.6,2.7,3.6,2.8,5.9c0.2,2.1,0.1,4.3-0.3,6.4
		c-1.1,2.8-3.2,4.7-6.4,5.6c-1.2,0.3-2.5,0.6-4.1,0.7c-3.6-0.2-6.3-1.5-8.2-3.8c-1.2-1.5-1.8-3.3-1.9-5.4c0.1-1,0.1-2,0-3
		c0.2-3.1,1.5-5.4,3.7-7.1c0.3-0.2,0.6-0.4,0.9-0.5C431.8,15.7,434,15.3,436.4,15.3z"/>
	<path class="st0" d="M805.7,15.3h2.5c5.1,0,9.2,4.1,9.2,9.2V27c0,5.1-4.1,9.2-9.2,9.2h-2.5c-5.1,0-9.2-4.1-9.2-9.2v-2.5
		C796.5,19.4,800.6,15.3,805.7,15.3z"/>
	<path class="st0" d="M1384.1,15.3c2.8,0.2,5,1.2,6.7,3.1c1.6,2.2,2.3,5,2.1,8.5c-0.2,3.3-1.5,5.8-3.7,7.6c-0.3,0.2-0.5,0.4-0.8,0.5
		c-3.3,1.7-6.9,1.9-10.6,0.4c-1-0.4-1.9-0.9-2.6-1.7c-2.4-2.1-3.5-5.1-3.3-8.9c0.1-3.7,1.5-6.3,4.1-7.9
		C1378.1,15.5,1380.9,14.9,1384.1,15.3z"/>
	<path class="st0" d="M1097.1,15.8c-0.2,2.2-0.4,4.4-0.5,6.7c-0.8,0-1.1-0.7-1-2C1095.8,19,1096.3,17.4,1097.1,15.8z"/>
	<path class="st0" d="M23.8,16.8c0,1.7,0,3,0,3.8c0,1.2,0.5,2,1.6,2.4c-0.8,0.3-1.6-0.2-2.2-1.3C22.3,20.2,22.5,18.6,23.8,16.8z"/>
	<path class="st0" d="M425.3,24.1c0.1,1,0.1,2,0,3C424.4,26.1,424.4,25.1,425.3,24.1z"/>
	<path class="st0" d="M1109.6,25.1c0.6-0.2,0.9,0.2,0.8,1.2c-0.2,1.4-0.1,2.8,0.2,4.2c-0.1,19.8-0.1,39.7-0.2,59.8
		c0,0.1-0.2,0.1-0.7,0c-0.1-20.7,0-41.3,0.2-61.8c0-0.3,0.1-0.7,0.2-1C1110.3,26.6,1110.2,25.7,1109.6,25.1z"/>
	<path class="st0" d="M37.9,25.6c0.4,1.7,0.5,4.2,0.5,7.3c-0.2,9.7-0.2,18.9-0.2,27.7c0,5.3,0,10.6,0,16c0.1,15.6,0.1,32.1,0.2,49.6
		c-0.4-6-0.6-11.9-0.7-17.8C37.2,79.8,37.3,52.2,37.9,25.6z"/>
	<path class="st0" d="M1127.1,25.8c0.5,0.8,0.7,1.5,0.7,2.2c0.1,18.7,0.1,37.3,0,56c0,0.6-0.2,1-0.7,1.2c-0.1-6.6-0.1-13.3,0-20
		C1127.2,51.8,1127.2,38.6,1127.1,25.8z"/>
	<path class="st0" d="M1186.1,25.8c2.5,2,4.1,4.8,5,8.5c0,0.3-0.1,0.5-0.1,0.8c-0.2,0.3-0.5,0-0.7-1
		C1189.7,31.4,1188.3,28.7,1186.1,25.8z"/>
	<path class="st0" d="M1110.6,30.6c0.1,33.3,0.1,66.6,0,99.7c-0.2-0.2-0.3-0.6-0.2-1.2c0.2-6,0.2-12,0-17.9c0,0-0.1,0-0.4-0.1
		c-0.4-6.7-0.5-13.7-0.2-20.8c0.5,0.1,0.7,0.1,0.7,0C1110.4,70.3,1110.5,50.4,1110.6,30.6z"/>
	<path class="st0" d="M1319.4,30.6c0.3,0.4,0.5,0.9,0.5,1.5c-0.1,25.3-0.1,50.7,0,76c0,0.7-0.2,1.2-0.5,1.5c-0.1,0-0.1,0-0.2,0
		c-0.1-24.8-0.1-49.6,0.2-74.2C1319.3,33.7,1319.4,32.1,1319.4,30.6z"/>
	<path class="st0" d="M1171.4,32.6c1.2,0.4,2.2,1.4,2.9,3c1.3,2.6,2,5.5,2.1,8.7c-0.1,5.1-0.1,10.2,0,15.2c0,2.7-0.2,5-0.8,6.9
		c-0.1,0.3-0.2,0.6-0.2,1c0,2.9-1.1,5.6-3.3,7.9c1.6-4.3,2.7-8.5,3.2-12.8c0.9-7.6,0.9-14.7-0.2-21.6
		C1174.6,37.7,1173.4,34.9,1171.4,32.6z"/>
	<path class="st0" d="M745.6,34.1c0.5,0.1,0.8,0.3,0.8,0.8c0.3,5.8,0.4,13.1,0.2,21.9c0,0.8,0.4,1.2,1.2,1.2
		c8,0.1,16.2,0.1,24.4,0.1c0.4,0,0.6,0.2,0.6,0.6c0.3,2.9,0.3,5.6,0.1,8.1c-0.1,0.6-0.4,0.8-0.9,0.8c-10.4-0.1-18.7-0.1-25,0.3
		c-0.3,0-0.5,0.2-0.5,0.5c0.1,17.8,0.2,35.9,0.2,54.2c0,2.9,0.5,5.3,1.5,7.2c0.8,1.8,2.2,2.7,4.1,2.9c7.3,0.8,14.3-0.1,21-2.7
		c0.4-0.1,0.7,0,0.8,0.4c0.9,2.3,1.7,4.5,2.3,6.6c0.2,0.6,0,1.1-0.6,1.4c-10.9,5.3-21.7,7.2-32.2,5.7c-0.3,0-0.6-0.2-0.9-0.3
		c-0.6-0.4-1.4-0.8-2.6-1.2c-2.9-1.2-5.1-3.4-6.5-6.8c-1.6-3.6-2.3-7.7-2.1-12.2c-0.1-17.7-0.1-35.7,0-54c0-0.8-0.1-1.3-0.5-1.5
		c-2.1-0.5-4.9-0.7-8.5-0.5c-2,0.1-3,0-3.1-0.4c-0.3-2-0.3-4.2,0.3-6.8c0.1-0.7,0.6-1.2,1.3-1.3c2.4-0.4,5.6-0.7,9.5-0.9
		c0.5,0,0.8-0.3,0.9-0.8c0.8-4.3,1.5-8.5,2-12.7c0.5-3.7,1.1-7.1,1.9-10c0.1-0.3,0.3-0.5,0.6-0.5C738.7,33.7,741.9,33.7,745.6,34.1z
		"/>
	<path class="st0" d="M1191.1,34.3c0.7,1.6,1.1,3.1,1.2,4.5c0,0.9-0.1,1.4-0.3,1.4c-0.3,0.1-0.6-1.7-1-5.2
		C1191.1,34.8,1191.1,34.6,1191.1,34.3z"/>
	<path class="st0" d="M1319.3,35.3c-0.3,24.7-0.3,49.4-0.2,74.2c-0.2,0.3-0.3,0.3-0.3,0c-0.1-7-0.1-13.8-0.1-20.3
		c0.1-6.9,0.2-13.8,0.1-20.7c-0.1-10-0.2-20.6-0.2-31.8C1318.8,35.4,1319,34.9,1319.3,35.3z"/>
	<path class="st0" d="M55,47.6c0.2,2,0.3,4.4,0.3,7.2c-0.2,16-0.2,32,0,48c0,2.6-0.2,5.1-0.7,7.5c-0.2-12.8-0.4-25.5-0.3-38.2
		c0-7.7,0.1-15.5,0.3-23.6C54.8,47.7,55,47.4,55,47.6z"/>
	<path class="st0" d="M39,50.9L39,50.9c0.1,0,0.1,0.1,0.1,0.1v55.4c0,0.1-0.1,0.1-0.1,0.1l0,0c-0.1,0-0.1-0.1-0.1-0.1V51
		C38.9,50.9,38.9,50.9,39,50.9z"/>
	<path class="st0" d="M551.3,54.8c0.6,0.1,0.8,0.4,0.8,0.9c0,3.7,0,7.2,0,10.5c0,0.9-0.4,1.3-1.3,1.3c-5.7-0.2-10.5,0.1-14.4,0.7
		c-0.3,0.1-0.4,0.2-0.2,0.5c1.2,1.5,2.1,3.7,2.9,6.5c0.3,2.3,0.7,4.3,1,6.2c0.7,3.5,0.5,7-0.7,10.6c-0.1,0.3-0.2,0.6-0.2,1
		c0,0.9-0.2,2.2-0.5,3.8c-0.7,3-1.9,5.7-3.5,8.1c-3.2,4.6-7.4,8.1-12.9,10.6c-3.3,1.5-6.8,2.6-10.6,3.1c-3.1,0.4-6.2,0.7-9.3,1
		c-0.6-0.2-0.9-0.1-0.9,0c-1.4,4.2-1.9,8.3-1.3,12.2c0.8,1.8,2.4,2.9,4.7,3.2c0.3,0,0.7,0.1,1,0c10.5-0.5,20.2,0,29.2,1.5
		c0.7,0.1,1.5,0.4,2.2,0.8c5.4,1.3,9.2,4.1,11.5,8.2c-0.1,0.9,0.2,1.7,0.7,2.2c0.1,0,0.1,0,0.2,0c0.2,2.6,0.6,4.9,1.2,7
		c0.1,0.3,0.1,0.6,0.2,1c0.3,5-0.4,10.6-2.2,16.8c-0.3,0.5-0.5,1-0.8,1.5c-1.1,0.9-1.7,1.9-1.7,3c-0.3,0.7-0.7,1.2-1.3,1.5
		c-1.5,1.7-2.9,3.1-4.2,4.5c-4.8,4.6-10.7,8-17.6,10.2c-4.5,1.4-9.3,2.4-14.7,3.1c-8.3,0.8-15.6,0.1-22-2.2c-3.8-1.4-7.1-3.4-9.8-6
		c-0.7-1.2-1.8-2.6-3.2-4.2c-2-3-3.2-6.6-3.5-10.8c-0.5-5.7,0.5-11.1,3-16.2c0.7-1.2,1.4-2.3,2-3.3c1.2-0.6,2.1-1.6,2.7-3
		c3.7-3.4,7.4-5.9,11.2-7.5c0.3-0.1,0.3-0.3,0.1-0.5c-1.4-1.6-2.5-3.4-3.3-5.2c0.1-1.3,0.1-2.5,0-3.8c0.6-1.8,1.3-3.6,2.1-5.5
		c1.2-1.5,2-3.3,2.5-5.2c0.8-1.4,1.4-2.6,1.7-3.6c0.1-0.3,0-0.5-0.3-0.6c-6.2-1.3-11.5-4.6-15.9-9.8c-0.2-0.9-0.7-1.7-1.7-2.5
		c-0.4-0.5-0.6-0.8-0.8-1c-1.8-4.3-2.9-8.6-3.2-13c-0.5-6.2,0-11.8,1.5-16.8c1-2.8,2.2-5,3.7-6.8c5.1-6.4,11.9-10.4,20.3-12.2
		c3.9-0.8,7.7-1.2,11.5-1.2c8.4-0.1,15.6,1.7,21.6,5.4c0.3,0.2,0.5,0.2,0.8-0.1C535.5,55.7,542.7,53.8,551.3,54.8z M518.9,104.5
		c2-1.5,3.2-3.4,3.8-5.9c0.3-0.4,0.6-0.9,0.8-1.5c0.7-0.2,0.9-0.9,0.7-2.2c0.1-0.8,0.2-1.5,0.3-2.2c0.7-3.1,0.7-6.8,0-11
		c-0.4-1.3-0.7-2.7-1-4.2c-0.8-4.4-3-7.7-6.8-9.7c-4.9-2.7-10.9-3.3-17.9-1.8c-3.1,0.6-5.7,1.9-7.8,4c-0.2,0.2-0.5,0.5-0.6,0.8
		c-2.6,3.6-3.8,7.5-3.8,11.8c0,0.3,0,0.7-0.1,1c-0.9,5.1-0.5,10.2,1.3,15.3c0.9,2.6,2.4,4.8,4.5,6.8c2.1,1.8,4.2,2.8,6.4,3.1
		c0.3,0,0.6,0.1,0.9,0.3c1.1,0.4,2.7,0.6,4.8,0.6C510,109.3,514.9,107.7,518.9,104.5z M493.3,149.8c-1.7,1.3-3.3,3.1-4.8,5.4
		c-0.8,1.3-1.2,2.6-1.2,3.8c-0.6,0.8-1,1.7-1,2.8c-0.4,2.1-0.6,4.2-0.8,6.2c-0.2,3,0.4,5.7,1.8,7.9c0.5,0.9,1.1,1.6,2,2.3
		c0.3,0.9,1,1.5,2,1.7c1.8,1.7,4.4,2.9,7.8,3.5c6.6,1.4,13.2,1.4,19.8,0c6-1.2,10.6-3.9,13.8-8c1.5-1.4,2.5-3,2.7-4.8
		c0.3-2.1,0.5-4.4,0.5-7c-0.1-1.5-0.1-3-0.2-4.5c-0.2-3.8-1.4-6.7-3.7-8.9c-0.2-0.2-0.5-0.4-0.8-0.6c-1.8-1.1-3.9-1.7-6.5-1.8
		c-7.3-0.4-14.5-0.6-21.5-0.7c-0.3,0-0.7-0.1-1-0.2c-1.2-0.5-2.4-0.7-3.7-0.6c-0.3,0-0.6,0.2-0.9,0.3
		C496.4,147.5,495,148.5,493.3,149.8z"/>
	<path class="st0" d="M622.3,55.6c0.8,0.1,1.2,0.6,1.3,1.4c0.3,2.5,0.3,5.5,0,9c-0.3,2.9-0.7,4.3-1.2,4.2
		c-7.1-1.1-13.4-0.8-18.9,0.8c-2.9,0.9-5,2.1-6.3,3.7c-1.6,0.4-2.8,1.7-3.7,3.8c0,0.1-0.1,0.2-0.1,0.2c-0.7,0.5-1.3,1.1-1.7,1.6
		c-0.2,0.3-0.3,0.6-0.3,0.9c0.1,13.4,0.1,26.9,0,40.5c0,2.5,0.1,4.7,0.3,6.5c0,1-0.1,1.9-0.2,2.7c-0.1,0.7,0.1,1,0.8,0.8
		c1.5-0.3,2.7-0.2,3.7,0.2c0.3,0.1,0.6,0.2,1,0.2c4.8,0.3,9.6,0.8,14.3,1.5c0.4,0.1,0.6,0.3,0.6,0.7c0.1,2.6,0,4.6-0.2,6.1
		c-0.2,1-0.7,1.4-1.7,1.4c-15.1,0-30.7,0-46.6,0c-0.4,0-0.6-0.2-0.7-0.6c-0.2-1.8-0.4-3.8-0.6-6.1c0-0.5,0.2-0.9,0.7-1
		c3.8-0.9,8.1-1.8,12.8-2.6c0.2-0.1,0.2-0.5,0.2-1.2c-0.1-20.3-0.1-40.7,0-61c0.3-1-0.3-1.4-1.7-1.2c-5.3,0.5-9.6,0.5-13.1,0
		c-0.6-0.1-0.9-0.4-0.9-1c0-1.7-0.4-3.7-1-6c-0.2-0.7,0-1.2,0.7-1.4c5.1-1.7,10.5-3.1,16.1-4.1c3.4-0.6,6.8-0.5,10.2,0.4
		c0.3,0.1,0.6,0.2,0.9,0.4c1.9,1,3.1,2.9,3.4,5.4c-0.4,3-0.5,5.9-0.1,8.6c0.2,1.5,0.8,1.7,1.8,0.7c0.4-0.4,0.6-0.8,0.6-1.2
		c1-1,2.1-2.8,3.2-5.2c0.4-0.5,0.6-0.8,0.8-1c1.4-1.5,2.8-2.9,4.2-4.2c1.3-1.4,2.9-2.4,4.8-3C610.8,54.6,616.4,54.3,622.3,55.6z"/>
	<path class="st0" d="M970.7,58.1c0.8,0.7,1.3,1.5,1.5,2.6c0.2,1.4,0.4,2.8,0.7,4.1c0.2,0.7,0.5,0.8,1.1,0.4c6.7-4.7,13.4-7.7,20-9
		c7.4-1.5,14.5-1.2,21.4,0.9c3,0.9,5.4,2.5,7.3,4.9c0.7,0.7,1,1.6,0.9,2.6c0,0.2,0.1,0.2,0.5,0c0.2,0.8,0.5,1.6,1,2.5
		c0.8,3.5,1.2,6.8,1.3,10c-0.3,3-0.1,5.3,0.5,7c0,14.1,0.1,28.2,0.2,42.2c0,1.7-0.1,3.3-0.2,5c0,0.2,0.1,0.3,0.5,0.2
		c0,0.3,0.1,0.5,0.3,0.5c3.5,0.8,7.5,1.4,11.8,2c1,0.1,1.6,0.7,1.6,1.8c0.1,2.2-0.1,4.2-0.8,5.9c-0.1,0.2-1.7,0.3-4.9,0.3
		c-11.2,0-22.5,0-33.8-0.1c-0.6,0-0.9-0.3-0.9-0.8c-0.2-1.6-0.5-3.1-0.9-4.7c-0.3-1.2,0.2-2,1.4-2.2c3.2-0.7,6.6-1.4,10.2-2.1
		c0.2,0,0.2-0.1,0.2-0.3c0-17.4,0-34.3,0-50.7c0-0.3,0-0.7-0.1-1c-0.3-1.6-0.6-3.2-0.9-4.8c-0.6-3.3-2.4-5.4-5.4-6.3
		c-2.9-0.9-5.7-1.2-8.6-0.9c-7.9,0.3-15.7,2.1-23.3,5.1c-0.2,0.1-0.2,0.2-0.2,0.3c-0.1,2.1-0.1,4.4,0.1,6.8
		c-0.4,16.7-0.4,33.3,0,49.7c-0.6,1-0.5,1.6,0.2,1.8c3.8,1,7.7,1.7,11.9,2.3c0.8,0.1,1.2,0.6,1.3,1.4c0.2,2.5,0.1,4.5-0.4,6
		c-0.1,0.4-0.4,0.5-0.8,0.5c-13.1,0-26.5,0-40.2,0c-0.6,0-1-0.3-1.1-1c-0.2-1.5-0.3-3.5-0.3-5.9c0-0.5,0.3-0.9,0.8-1
		c4-0.8,8.1-1.6,12.2-2.5c0.3-0.1,0.5-0.3,0.5-0.6c-0.1-20.9-0.2-41.6-0.2-62.4c0-0.2-0.1-0.3-0.2-0.3c-4.9-0.2-9.5-0.3-13.8-0.2
		c-0.6,0-1-0.3-1.1-0.9c-0.4-2.4-0.5-4.8-0.3-7c0-0.3,0.2-0.6,0.5-0.7c5.7-2.2,11.9-3.7,18.7-4.4C964.7,54.9,967.9,55.8,970.7,58.1z
		"/>
	<path class="st0" d="M111.8,56.1c3.4,1.2,5,4.2,4.7,8.9c0,0.7,0.2,0.9,0.9,0.5c4.3-3.1,8.7-5.6,13.3-7.4c6.7-2.7,13.6-3.5,20.7-2.4
		c0.3,0,0.7,0.1,1,0.1c3.6,0.2,6.9,1.3,9.9,3.3c2.4,1.6,4.2,4,5.5,7.4c0.1,0.3,0.3,0.4,0.6,0.2c4.5-3.1,9.2-5.7,14-7.8
		c8.1-3.2,16.6-4.2,25.4-2.8c3.1,0.5,5.7,1.3,8,2.5c2.3,1.5,3.8,3.1,4.2,4.7c0.3,1,0.7,1.2,1.2,0.8c1.1,2.4,1.8,5,2.2,7.8
		c0.6,3.7,0.9,8.1,0.9,13.1c0.1,15,0,30.4-0.1,46.1c0,0.6,0.3,1,0.9,1.1c4.2,0.7,8.2,1.4,12,2.1c0.3,0.1,0.6,0.2,0.8,0.5
		c0.6,0.8,0.8,1.8,0.5,2.7c-0.4,1.5-0.8,2.8-1,3.9c0,0.4-0.2,0.6-0.6,0.6c-13,0.1-25.6,0.1-38,0c-1.1,0-1.6-0.6-1.6-1.7
		c0-1.8,0-3.6,0-5.5c0-0.3,0.1-0.5,0.4-0.5c3.3-0.8,6.6-1.5,10.1-2c0.6-0.1,0.8-0.4,0.7-1c0.2-16.7,0.2-33.6,0-50.7
		c0-3.7-0.9-6.6-2.8-8.7c-1.9-2.4-4.9-3.7-9-3.8c-9.6-0.3-18.6,1.7-26.9,6.1c-0.1,0.1-0.2,0.2-0.2,0.4c0.4,9.1,0.5,18.3,0.3,27.6
		c-0.2,9.1-0.2,18.9-0.2,29.4c0,0.3,0.2,0.5,0.5,0.6c4.1,0.8,8.4,1.6,12.9,2.3c0.3,0,0.5,0.2,0.6,0.6c0.5,2,0.2,4.1-0.8,6.4
		c-0.2,0.5-0.6,0.7-1.1,0.7c-12.3,0.1-24.8,0.1-37.4,0.1c-0.7,0-1.2-0.4-1.3-1.1c-0.5-2.4-0.5-4.4-0.1-6c0.1-0.3,0.3-0.5,0.6-0.6
		c2.8-0.9,6.1-1.6,9.8-2c0.7-0.1,1.1-0.5,1.1-1.2c0-16.4,0-32.4,0-48.1c0.1-2.3-0.1-4.8-0.7-7.6c-0.1-0.4-0.3-0.5-0.6-0.4
		c-1.3-3.6-3.6-5.8-7-6.5c-1.9-0.4-3.6-0.6-5.2-0.5c-8.9,0.1-16.9,1.9-24,5.3c-0.3,0.1-0.4,0.4-0.4,0.7c-0.1,18.6-0.1,37.7-0.1,57.3
		c0,0.2,0.1,0.3,0.2,0.3c4.2,0.9,8.7,1.7,13.5,2.5c0.2,0,0.4,0.2,0.4,0.4c0.5,2.8,0.4,5.1-0.2,6.7c-0.1,0.3-0.4,0.5-0.7,0.5
		c-14.1,0.4-27.6,0.4-40.4-0.1c-0.3,0-0.5-0.2-0.6-0.5c-0.5-1.8-0.7-3.8-0.5-6c0-0.3,0.2-0.6,0.5-0.7c3.8-1.3,7.9-2.2,12.5-2.8
		c0.3,0,0.4-0.2,0.4-0.5c-0.1-21-0.1-41.8-0.1-62.4c0-0.5-0.2-0.7-0.7-0.7c-5.4,0.3-9.9,0.3-13.7,0c-0.2,0-0.4-0.2-0.5-0.4
		c-0.5-2.1-0.8-4.7-0.9-7.7c0-0.2,0.1-0.3,0.2-0.3c5.8-1.9,11.4-3.3,16.9-4.2C106,55.1,109,55.3,111.8,56.1z"/>
	<path class="st0" d="M277.5,56.9c2.8,1.6,3.9,4,3.3,7.4c-0.2,1.3,0.2,1.6,1.3,0.8c5.5-3.9,11.1-6.7,16.7-8.4c0.3-0.1,0.6-0.2,1-0.2
		c5.5-1,11-1.2,16.5-0.7c4.5,0.5,8.3,1.9,11.4,4.3c1.7,1.5,3.1,3.5,4.2,6.1c0.2,0.5,0.6,0.6,1,0.3c3.6-2.4,7.3-4.6,10.9-6.3
		c6.7-3.4,13.9-5,21.7-4.8c2.9,0.1,5.9,0.4,8.8,1c2.4,0.4,4.3,1.2,5.8,2.2c1.3,1.2,2.7,2.5,4,3.7c1.5,1.8,2.5,4.1,3,6.8
		c0.6,2.8,1,5.3,1.4,7.8c0.1,0.3,0.1,0.7,0.1,1c-0.1,6.9-0.1,14.1,0,21.5c0.1,10.7,0.1,21.4,0,32c0,0.5,0.2,0.8,0.7,0.9
		c4.5,0.7,8.6,1.4,12.2,2.1c0.3,0.1,0.6,0.2,0.7,0.5c0.9,1.8,0.7,4-0.7,6.5c-0.2,0.3-0.4,0.4-0.7,0.5c-12.8,0.4-25.5,0.4-38.2,0
		c-0.3,0-0.6-0.2-0.7-0.5c-0.5-1.5-0.6-3.6-0.2-6.4c0-0.3,0.2-0.5,0.5-0.6c2.8-0.9,6.1-1.6,9.8-2c0.5-0.1,0.8-0.3,0.8-0.8
		c-0.1-14.8-0.1-29.5,0-44.2c0-3.6-0.2-6.8-0.5-9.8c-0.4-3.1-1.6-5.5-3.6-7.2c-0.3-0.2-0.5-0.4-0.8-0.6c-2.5-1.2-5.4-1.8-8.8-1.8
		c-9.2,0.1-17.5,2.2-24.8,6.1c-0.3,0.2-0.4,0.4-0.4,0.7c0.5,9.4,0.6,19.9,0.4,31.7c-0.2,7.4-0.1,15.6,0,24.6c0,0.6,0.3,1,1,1.1
		c3.8,0.8,7.8,1.5,11.8,2c0.8,0.1,1.1,0.5,1,1.3c-0.1,1.2-0.1,2.3,0,3.5c-0.3,0.9-0.6,1.7-0.9,2.4c-0.1,0.4-0.4,0.6-0.8,0.6
		c-12.5,0-24.9,0-37.1,0c-1.3,0-1.9-0.6-1.9-1.9c0-1.4,0-3,0-4.9c0-0.5,0.3-0.9,0.8-1c3.3-0.9,6.6-1.5,10.1-2
		c0.4-0.1,0.6-0.3,0.6-0.7c0.1-3.5,0.1-6.9,0-10c-0.1-10.7-0.1-21.1,0-31.2c0.1-3.1,0.1-6.3,0-9.5c0-3.5-0.9-6.3-2.7-8.5
		c-1.4-2.3-3.7-3.7-6.8-4c-9.8-1-19.1,0.7-28,5.1c-0.3,0.1-0.5,0.4-0.5,0.7c-0.1,18.9-0.1,38-0.1,57.3c0,0.2,0.1,0.3,0.2,0.3
		c4.4,0.9,8.9,1.7,13.4,2.5c0.3,0.1,0.5,0.3,0.6,0.6c0.6,2.9,0.4,5.1-0.5,6.5c-0.2,0.3-0.4,0.4-0.8,0.4c-11.4,0.2-23.1,0.2-35,0.2
		c-2.2,0-4-0.1-5.3-0.3c-0.3-0.1-0.5-0.3-0.6-0.6c-0.5-2.3-0.5-4.3-0.2-6.1c0.1-0.3,0.2-0.5,0.6-0.6c3.7-1,7.7-1.9,12.1-2.6
		c0.3-0.1,0.5-0.3,0.5-0.6c-0.1-20-0.1-40.8-0.1-62.2c0-0.4-0.2-0.6-0.6-0.6c-6,0.4-10.6,0.3-13.7-0.2c-0.3-0.1-0.5-0.2-0.6-0.6
		c-0.4-1.4-0.7-3.8-0.8-7.3c0-0.3,0.1-0.4,0.4-0.5c5.7-2.2,11.1-3.5,16.1-4c0.3,0,0.7-0.1,1-0.2C271,54.6,274.3,55.1,277.5,56.9z"/>
	<path class="st0" d="M434.6,55.3c2.1-0.2,4.2,0.2,6.3,1.2c2.7,1.2,4.1,3.1,4.2,5.8c0.4,22.5,0.4,45.5,0,68.8c0,0.3,0.1,0.4,0.4,0.5
		c4.5,1,9,1.8,13.2,2.4c1.3,0.2,1.9,0.9,1.9,2.2c0,2.4-0.4,4.2-1.1,5.4c-0.2,0.3-0.4,0.4-0.8,0.4c-13.7,0.2-27.8,0.1-42.3-0.1
		c-0.4,0-0.6-0.2-0.6-0.6c-0.1-2.2-0.2-4.2-0.3-5.9c0-0.5,0.2-0.8,0.7-1c2.1-0.8,4.1-1.3,6-1.6c2.6-0.3,4.9-0.7,7-1.2
		c0.3-0.1,0.5-0.3,0.5-0.6c0.1-20.4,0.1-41.1,0.1-62c0-0.4-0.2-0.6-0.6-0.6c-4.6-0.1-8.7,0-12.3,0.2c-1.4,0.1-2.2-0.6-2.2-2
		c-0.1-1.7-0.3-3.1-0.8-4.3c-0.4-1.2,0-2.1,1.2-2.5C421.6,57.4,428.1,55.9,434.6,55.3z"/>
	<path class="st0" d="M683.4,57.3c2.6,0.8,5,2.3,7.2,4.5c1.2,1.8,2.2,3.1,3,3.7c1.3,2,2.2,4.3,2.5,6.8c1,8.3,1.4,17.6,1.2,27.8
		c-0.2,9.4-0.3,18.9-0.2,28.4c0,1.1,0.1,2.2,0.2,3.3c5.1,0.3,10.3,0.4,15.7,0.2c0.4,0,0.6,0.2,0.7,0.6c0.3,1.7,0.4,3.6,0.3,5.8
		c0,1.1-0.5,1.8-1.5,2.2c-2.2,0.7-4.4,1.3-6.5,2c-5.9,1.9-11.7,2.4-17.3,1.6c-0.3-0.1-0.6-0.2-0.8-0.4c-0.5-0.5-1.1-0.9-1.9-1.2
		c-1.1-1.1-2-2.4-2.5-3.8c-0.6-2.2-0.8-4.1-0.8-5.9c0-1.1-0.4-1.3-1.2-0.5c-6.1,6-13.2,9.9-21.3,11.8c-2.6,0.6-5.4,0.8-8.3,0.4
		c-6.4-0.2-11.5-2.5-15.3-6.8c-1-2-2.1-4-3.2-6c-1-1.8-1.3-3.7-1.1-5.7c0-0.3,0-0.7,0-1c-0.3-4.1,0.2-8,1.5-11.8
		c-0.1,1,0,1.2,0.3,0.5c1-2.2,1.9-3.9,2.5-5.2c3-3.3,6.3-5.9,10-7.8c2.9-1.5,6-2.6,9.3-3.4c7.7-1.5,15.9-2.4,24.8-2.7
		c0.3,0,0.5-0.2,0.5-0.5c0.5-4.5,0.4-9.9-0.1-16.1c-0.2-2.1-0.9-3.9-2-5.5c-0.2-0.3-0.4-0.5-0.6-0.8c-1.8-1.7-4.1-2.7-6.8-3
		c-10.6-1.1-20.5,0.3-29.5,4.1c-0.3,0.1-0.5,0-0.7-0.2c-0.8-1.5-2-4-3.4-7.7c-0.3-0.7-0.1-1.2,0.6-1.5c5.9-3.2,11.8-5.5,17.7-6.8
		C665.6,54.4,674.5,54.6,683.4,57.3z M652.4,111.3c-2.1,1.7-3.1,3.6-3,5.7c-0.5,0.9-0.8,2-0.8,3.5c-0.2,3,0.2,5.5,1.2,7.5
		c1,2,3,3.4,5.8,4.1c0.3,0.1,0.6,0.1,1,0.1c5.8,0.3,11.1-0.8,16-3.4c2.3-1.2,4.9-2.7,7.8-4.5c0.8-0.5,1.2-1,1.2-1.6
		c0.3-1.1,0.4-2.1,0.3-3c-0.5-4.1-0.5-8.4-0.2-12.9c0.1-1.2,0-2.5-0.3-3.8c-4.2,0.7-8.2,1.1-12,1.4c-0.3,0-0.7,0.1-1,0.2
		c-1.2,0.5-2.6,0.7-4.2,0.9c-0.3,0-0.6,0.1-0.8,0.4c-0.5,0.5-0.7,0.7-0.8,0.7c-0.3-0.2-0.6-0.2-0.9-0.1
		C658,107.4,655,109,652.4,111.3z"/>
	<path class="st0" d="M806.9,55.3c3,0,5.3,0.9,7.1,2.7c1.6,1.5,2.5,3.5,2.7,6.1c-0.1,9.5-0.2,19.2-0.2,29c-0.1,12.2-0.1,24.8,0,37.9
		c0,0.5,0.2,0.8,0.7,0.9c4.2,0.8,8.6,1.6,13.3,2.2c0.9,0.1,1.4,0.7,1.5,1.6c0.2,2.4-0.1,4.4-0.9,5.9c-0.2,0.3-0.4,0.5-0.8,0.5
		c-15.2,0.1-29.3,0.1-42-0.2c-0.3,0-0.6-0.2-0.7-0.5c-0.3-0.7-0.5-2.4-0.6-5.2c0-1.2,0.5-1.9,1.7-2.1c3.4-0.7,7.3-1.5,11.6-2.2
		c0.7-0.1,1-0.5,1-1.2c-0.1-20.6-0.1-41.1,0-61.4c0-0.6-0.3-0.9-0.9-0.9c-4.6,0-9,0-13.3,0c-0.4,0-0.7-0.2-0.7-0.6
		c-0.3-1.7-0.5-3.2-0.6-4.3c0-0.3-0.1-0.6-0.3-0.9c-0.7-1.2-0.7-1.9,0-2.2C791.8,57,799,55.3,806.9,55.3z"/>
	<path class="st0" d="M895.1,55.8c8,0.5,15,3.8,21,9.7c0.6,0.6,1.2,1.4,2,2.5c1.6,2.8,2.8,5.5,3.7,8.1c0.1,0.4,0.3,0.6,0.4,0.7
		c0.3,0.2,0.4,0.4,0.5,0.8c0.2,2.2,0.6,4.5,1.2,7c0.1,0.5,0.2,0.3,0.2-0.5c-0.1-1.2,0-2.1,0.2-2.5c1.1,5.1,1.7,11,1.8,17.8
		c0.1,6.2-0.7,11.6-2.2,16.2c0-1.6-0.1-2.4-0.2-2.4c-0.2,0-0.4,1-0.5,3c0,0.3-0.2,0.5-0.5,0.5c-0.1,0-0.1,0.1-0.1,0.1
		c0.2,1-0.1,2.3-1.1,4.2c-1.2,2.4-2.4,4.7-3.7,7.1c-1.5,2.2-2.9,3.9-4.1,5.2c-0.2,0.2-0.5,0.4-0.8,0.6c-1.2,0.6-2.4,1.5-3.6,2.8
		c-0.2,0.2-0.5,0.5-0.8,0.6c-8.9,5.8-19.3,8.2-31.1,7.1c-0.3,0-0.7,0-1,0c-8.4,0-15.5-2.8-21.4-8.6c-0.8-0.8-1.7-1.8-2.7-3
		c-3.3-4.8-5.4-9.7-6.2-14.7c0-1.5-0.3-2.5-0.7-2.9c-0.2-0.2-0.3-0.5-0.3-0.9c0.2-2.5,0-4.4-0.8-5.8c-0.3-0.8-0.4-1.7-0.3-2.8
		c0.1-3.5,0.1-7,0-10.5c0.1-0.7,0.2-1.5,0.3-2.2c0.5,0,0.8-0.4,0.7-1.2c-0.1-1.3-0.1-2.5,0-3.8c0-0.4,0.1-0.7,0.3-0.8
		c0.3-1.3,0.5-1.6,0.6-1c0.1,0.3,0.1,0.3,0.2,0c0.6-3.2,1.7-6.4,3.3-9.4c0.6-1.8,1.7-3.8,3.4-6.1c4.2-5.6,10-9.8,17.3-12.4
		c7.8-2.8,15.8-3.7,24-2.6C894.4,55.8,894.8,55.8,895.1,55.8z M862.3,86.3c-0.5,0.2-0.8,0.9-1,2c-0.6,4.7-0.7,9.5-0.3,14.2
		c0.2,4.3,0.7,8.6,1.3,12.8c-0.2,2.2,0,4,0.7,5.5c0.1,0.3,0.2,0.3,0.3-0.1c0.2-0.3,0.3,0,0.5,0.8c0.2,0.9,0.3,0.9,0.3,0
		c0.7,2.2,1.6,4.2,2.8,5.9c1.6,2.4,3.7,4.1,6.2,5c4.8,1.7,9.7,2.3,14.9,1.8c4.5-0.3,8.3-1.7,11.4-4.1c2.2-1.8,3.8-4,4.8-6.4
		c1.1-1.4,2-3,2.5-4.8c1.8-6.1,2.4-12.3,2-18.8c0.1-1,0.1-2,0-3c0.4-7.4-0.6-14.1-3-20.2c-0.1-0.2-0.3-0.1-0.5,0.4
		c-0.8-2.4-2.1-4.5-3.7-6.2c-3-3.2-6.4-4.9-10.2-5c-0.3,0-0.7-0.1-1-0.2c-3.2-0.7-6.6-0.7-10.3-0.1c-4.2,0.7-8,2.4-11.3,5
		c-0.3,0.2-0.4,0.5-0.5,0.8c-0.2,0.7-0.8,1.6-1.8,2.6c-0.2,0.2-0.4,0.5-0.6,0.8C864.2,78.7,863,82.4,862.3,86.3z"/>
	<path class="st0" d="M1268,57.4c3.8,1,7.3,3.2,10.6,6.5c1.5,1.3,2.8,2.7,3.9,4.3c0.3,0.4,0.4,0.4,0.4-0.1c1.5,2.3,2.7,4.6,3.8,7
		c1.2,4.2,2,8,2.5,11.2c0.3,2.2,0.4,4.7,0.3,7.5c0,0.3,0,0.7,0.1,1c0.9,2.9,1,5.9,0.2,9c-0.1,0.3-0.1,0.7-0.1,1
		c-0.1,4.6-0.9,9.4-2.4,14.5c-0.7,1.6-1.3,2.8-1.8,3.8c-0.5,0.4-1,1-1.5,2c-1.8,3.2-4.3,6.4-7.5,9.5c-5.7,5.1-12.8,8.3-21.3,9.5
		c-5,0.7-10.1,0.8-15.2,0.2c-7.7-0.6-14.3-3.3-19.8-8c-2-2.2-3.8-4.4-5.3-6.7c-1-2.4-2-4.8-3-7.2c-0.1-0.3-0.2-0.3-0.3,0
		c-0.7-1.4-1.1-3.2-1.2-5.2c0-0.4-0.2-0.8-0.5-1c-0.5-2.7-0.6-5.4-0.5-8c0-0.3,0-0.7-0.1-1c-0.9-3-1-6.3-0.4-9.8
		c0.4-2.5,0.6-5.5,0.8-9.2c0.7-1.2,1-2.5,1.1-3.7c0-0.3,0.1-0.7,0.2-1c1-2.8,2.3-5.7,3.8-8.6c1.3-1.8,2.7-3.6,4.2-5.5
		c3.2-3.8,7.3-7,12.5-9.5c5-2.4,10.7-3.8,17-4.2C1254.6,54.9,1261.1,55.5,1268,57.4z M1230.8,74.6c-1.7,2.4-2.9,5.4-3.5,9
		c-0.9,3.6-1.5,7.6-1.7,12c-0.3,6.5,0.1,13.4,1.3,20.8c0.5,2.7,1.4,5.4,2.6,8.3c0.3,0.3,0.5,0.4,0.5,0.5c1.2,2.1,2.4,3.6,3.8,4.6
		c0.9,1.3,2.4,2.3,4.3,3c5.9,2.1,11.9,2.4,18.2,1.1c5.6-1.1,10-4.6,13-10.5c0.6-1.1,1.1-2.3,1.4-3.8c0-0.7,0.1-1.2,0.5-1.5
		c0.3,0.3,0.5,0.2,0.5-0.2c0-0.9,0-1.7,0.1-2.4c0-0.1,0.2,0.1,0.4,0.4c0.3,0.2,0.4-0.8,0.6-3.2c0.1-2,0.2-4,0.2-6
		c0.3-3.4,0.4-7.3,0.3-11.5c0-0.3-0.1-0.7-0.2-1c-0.5-1.4-0.8-3.1-0.8-5.3c0-3.6-0.7-6.8-2-9.5c-0.3-3.9-2.3-7.1-6-9.7
		c-2.7-1.7-5.5-2.8-8.2-3.3c-4.7-0.8-9.4-0.8-14,0.2C1237.4,67.6,1233.6,70.2,1230.8,74.6z"/>
	<path class="st0" d="M1386.4,56.1c2.8,0.8,4.6,2.6,5.4,5.5c0.1,0.3,0.1,0.6,0.1,1c0,22.9,0,45.7,0,68.6c0,0.3,0.2,0.5,0.5,0.6
		c4.6,0.8,9.3,1.7,14.2,2.5c0.2,0,0.4,0.2,0.4,0.4c0.4,2.3,0.2,4.5-0.5,6.6c-0.2,0.4-0.5,0.6-0.9,0.6c-13.3,0-27.3,0-42,0
		c-0.5,0-0.8-0.2-0.9-0.8c-0.4-2.8-0.5-4.8-0.2-6.2c0.1-0.3,0.3-0.5,0.6-0.6c3.8-1.1,8-2,12.8-2.7c0.4-0.1,0.7-0.3,0.7-0.8
		c0.1-21.3,0-42-0.2-62.1c0-0.3-0.2-0.5-0.5-0.5c-3.7-0.2-8.1-0.2-13.2-0.1c-0.7,0-1.1-0.3-1.2-1.1c-0.2-1.8-0.5-3.7-0.8-5.8
		c-0.2-0.9,0.2-1.5,1.1-1.8c5.5-1.7,10.7-3,15.8-3.9C1380.4,55.3,1383.3,55.4,1386.4,56.1z"/>
	<path class="st0" d="M1464.9,55.8c7.3,0,14.2,1.4,20.7,4.1c0.5,0.2,0.8,0.5,0.9,0.9c-0.3,2.4-0.3,4.8,0,7c0,2.6-0.4,5.8-1.1,9.5
		c-0.2-1.1-0.3-2-0.3-2.7c0-0.3-0.1-0.3-0.1,0c-0.2,1.7-0.5,3.3-1,5c-0.3,1.2-0.3,2.5,0,4.2c0,0.9-0.6,1.4-1.8,1.5
		c-1.6,0.2-3,0-4.1-0.5c-0.3-0.1-0.6-0.2-0.9-0.1c-1.6,0.2-2.6-0.3-3.1-1.6c-0.2-1.9-0.4-3.9-0.7-5.8c0.1-2.2-0.1-4-0.6-5.3
		c-0.1-0.3-0.1-0.6-0.1-0.9c0.4-1.3,0.1-2.2-0.7-2.5c-7.4-2.9-14.7-3.7-21.7-2.3c-4.1,0.8-6.9,2.8-8.5,6c-0.7,0.3-1.3,0.9-1.8,1.9
		c-1.4,2.9-2.3,5.8-2.6,8.8c-1.9,11.1-1.9,22.2,0,33.2c0,1.5,0.1,2.2,0.5,2.4c0.3,0.1,0.5,0.3,0.5,0.6c0.2,1.5,1,3.2,2.7,5
		c1.1,1.5,2.5,2.8,4.3,4c2.5,1.6,4.9,2.6,7.5,3c0.7,0.2,2,0.3,4,0.2c4-0.1,7.7-0.1,11.2,0c0.3,0,0.7,0,1-0.1c2.3-0.5,4.8-1.2,7.6-2
		c1.6-0.4,2.7-1,3.2-1.7c1.2,0,2.1-0.3,2.8-0.8c0.9-0.7,1.7-0.9,2.5-0.5c0.3,2.1,1.1,4,2.4,5.5c0.7,1.3,0.8,2.4,0.3,3.3
		c-1.4,0-2.7,0.7-4,2.2c-4.5,2.6-10.4,4.8-17.5,6.4c-0.3,0.1-0.7,0.1-1,0.2c-5.6,0.7-11.3,0.7-17.2-0.1c-8.1-1-14.6-4.3-19.5-9.8
		c-1.5-2-2.6-3.9-3.4-5.8c-0.3-0.8-0.6-1-0.8-0.6c-0.7-1.7-1.6-3.9-2.5-6.6c-1-3.4-1.5-6.3-1.5-8.7c0-2.7-0.2-5-0.6-6.8
		c-0.1-0.3-0.2-0.6-0.2-1c-0.1-4.5,0.2-9.9,1-16.2c0.8-4.1,1.9-8.3,3.3-12.5c0.2,0.1,0.2,0.1,0.2,0.2c0,0.3,0.1,0.4,0.3,0.1
		c0.9-1.2,1.4-2.4,1.3-3.8c0-0.3,0.1-0.5,0.2-0.5c-0.1,0.8,0.1,0.9,0.5,0.2c1.5-2.8,3.5-5.4,5.8-7.7c6.3-5.3,13.6-8.3,21.8-9
		c3.4-0.3,6.7-0.3,9.7,0.1C1464.2,55.8,1464.5,55.8,1464.9,55.8z"/>
	<path class="st0" d="M1497.1,58.1c11.2,0,22.6,0,34.2,0c0.2,0,0.3,0.1,0.3,0.3c0.1,1.5,0.2,3,0.4,4.5c0.3,2-0.6,3.1-2.7,3.4
		c-2.6,0.4-5.7,1-9.2,1.8c-0.3,0-0.4,0.2-0.3,0.5c0.6,3,1.5,5.3,2.5,7c-0.1,1.1,0,1.9,0.4,2.5c0.5,0.6,0.7,1.4,0.8,2.2
		c-0.1,0.5,0.1,0.6,0.5,0.2c1,1.6,1.7,3.5,2.3,5.5c0,1.5,0.3,2.5,1,3.2c0.6,1.6,1.3,3,2,4.3c0.2,2,0.8,3.6,1.7,5
		c1.3,5,3,10.1,4.9,15.3c0.3,0.7,0.4,0.9,0.5,0.7c0.2-0.3,0.3-0.3,0.3,0.1c0.1,0.7,0.2,0.7,0.3-0.1c0.6,1.1,1.1,2.4,1.5,3.8
		c1.2,4.8,2.4,9.1,3.6,13c0.1,0.3,0.3,0.4,0.6,0.3c0.3-0.1,0.4-0.5,0.2-1.2c0.6-1.3,1-2.6,1.3-4c0.8-0.7,1.1-1.4,1.1-2.2
		c0-0.3,0-0.6,0.2-0.9c0.5-0.6,0.9-1.4,1.2-2.4c2.2-7.3,4.4-14.7,6.5-22c0.6-1.2,1-2.4,1.1-3.5c0-0.3,0.2-0.5,0.6-0.6
		c0.3-0.1,0.4-0.5,0.3-1.4c0-0.3,0-0.6,0.2-0.9c1.2-1.7,1.6-3.7,1.4-5.8c0.8-1.3,1.3-2.6,1.7-3.8c1.5-4.5,2.8-9.1,4.1-13.7
		c0.2-0.6-0.1-0.9-0.7-1c-4.9-0.7-9.4-1.5-13.3-2.4c-0.3-0.1-0.6-0.3-0.8-0.5c-0.5-0.7-0.5-2-0.1-3.8c0.5-2.1,1-3.1,1.4-3.1
		c11.4-0.1,22.9-0.1,34.6-0.1c0.5,0,0.8,0.3,0.9,0.8c0.1,2.5,0.3,4.7,0.4,6.6c0,0.3-0.1,0.6-0.4,0.7c-2.1,0.9-4.3,1.6-6.7,2.1
		c-0.3,0.1-0.6,0.2-0.7,0.5c-0.9,1.7-1.7,4-2.5,7c0-0.7,0-1.1,0-1.2c-0.1-0.3-0.2-0.3-0.2,0c0,1.3-0.5,2.6-1.3,3.9
		c-0.4,0.6-0.5,1.2-0.5,1.8c-1.9,5.1-3.5,10.1-4.8,15c-0.7,1.7-1.3,3.4-1.8,5.2c-0.9,0.2-1.3,0.8-1.4,2c0,0.3-0.1,0.7-0.2,1
		c-2.1,6.4-4.2,12.9-6.4,19.5c-0.8,1.8-1.3,3.4-1.4,4.8c-0.1-1.4-0.2-1.8-0.2-1c0,0.3-0.2,0.6-0.4,0.9c-0.3,0.3-0.7,1.3-1.1,2.9
		c-0.4,1.4-0.8,2.8-1.3,4.2c-1.6,4.7-2.9,8.9-4,12.8c-1.5,4.2-3,8.4-4.6,12.5c-0.3,0.2-0.6,0.4-0.7,0.8c-2,4.7-3.7,9.5-5.2,14.5
		c-0.8,1.3-1.5,2.8-2.3,4.5c-0.2-0.1-0.3-0.2-0.3-0.2c-1.7,3-3.5,6.1-5.4,9.4c-3.3,4.3-7.4,6.7-12.2,7.3c-9.7,1.2-18.2-0.2-25.5-4.3
		c-0.3-0.2-0.4-0.4-0.4-0.7c0.2-2.4,0.7-4.8,1.7-7.1c0.2-0.4,1.4-0.4,3.7-0.1c5.3,0.8,10.3,0.7,15-0.5c3.8-0.9,6.7-2.8,8.6-5.4
		c1.3-1.9,2.6-3.8,3.9-5.8c0.5-0.2,1-0.9,1.5-2c0.8-1.9,1.7-3.8,2.7-5.8c1.4-3.2,2.7-6.4,4-9.8c0,0.4,0,0.5,0.1,0.4
		c1.9-2.7,2.9-5.4,2.9-8.1c0.1-0.2,0.3-0.6,0.5-1.3c-0.1,1.2,0,1.2,0.3,0.2c0.2-0.8,0.4-1.6,0.5-2.2c0.5-0.6,0.8-1,0.8-1.2
		c0-0.3-0.2-0.5-0.5-0.5c-2.1,0-4.5-0.1-6.9-0.1c-1.5-3.6-2.8-6.7-4-9.2c-0.3-1.1-0.8-2.5-1.5-4.2c-0.5-1.1-0.7-1.2-0.5-0.2
		c-0.5-1.9-1.2-3.4-2-4.8c-1.9-6.1-4.1-11.5-6.5-16.2c0-0.1-0.1-0.2-0.1-0.2c0-1.6-0.5-3.1-1.7-4.5c-0.7-1.2-1.3-2.5-1.8-4
		c-0.3-1.3-0.8-2.7-1.4-4.1c-1.4-3.3-2.7-6.6-3.8-9.9c-0.9-2.5-1.8-4.8-2.7-6.8c-0.1-0.3-0.2,0-0.4,0.8c-1.5-4.6-2.8-8-4-10.3
		c-0.2-0.3-0.4-0.5-0.7-0.6c-1.6-0.5-3.4-1.2-5.4-2.1c-0.3-0.1-0.5-0.4-0.6-0.7c-0.4-1.8,0.1-3.9,1.4-6.4
		C1496.5,58.2,1496.7,58.1,1497.1,58.1z"/>
	<path class="st0" d="M215.9,58.6c0.9,0,1.6,0.3,2.2,1c1.3,1.4,2.3,2.9,3.2,4.5c-0.5,0.5-0.9,0.2-1.2-0.8
		C219.6,61.7,218.2,60.1,215.9,58.6z"/>
	<path class="st0" d="M380.1,58.6c2,0.5,3.3,1.8,4,3.7C382.8,61,381.5,59.8,380.1,58.6z"/>
	<path class="st0" d="M600.9,59.6c-1.5,1.2-2.9,2.6-4.2,4.2C597.5,61.4,598.9,60,600.9,59.6z"/>
	<path class="st0" d="M1487.1,62.1c0.1,2.6-0.1,4.5-0.7,5.8c-0.3-2.2-0.3-4.6,0-7C1486.8,60.4,1487.1,60.8,1487.1,62.1z"/>
	<path class="st0" d="M690.6,61.8c1.4,0.3,2.4,1.6,3,3.7C692.8,64.9,691.8,63.7,690.6,61.8z"/>
	<path class="st0" d="M590.4,62.1c0.9,1.9,1.2,4.3,1,7.2c-0.1,1.2,0.1,1.9,0.7,2c-1,1-1.6,0.8-1.8-0.7
		C589.9,67.9,590,65.1,590.4,62.1z"/>
	<path class="st0" d="M1278.6,63.8c0.7-0.1,1.5,0.3,2.2,1.3c0.5,0.7,1.2,1.7,2.1,2.9c0.1,0.5,0,0.5-0.4,0.1
		C1281.4,66.6,1280.1,65.1,1278.6,63.8z"/>
	<path class="st0" d="M1025.1,67.1c-0.5-0.9-0.9-1.7-1-2.5C1024.8,64.7,1025.2,65.5,1025.1,67.1z"/>
	<path class="st0" d="M1192.5,64.6c0.1,0,0.1,1.5,0.1,4.4c-0.2,1.9-0.5,3.4-1,4.5c0-0.8-0.1-1.7-0.1-2.5
		C1192.1,66.8,1192.4,64.6,1192.5,64.6z"/>
	<path class="st0" d="M1432.4,64.6c-2.3,2.3-4.3,4.8-5.8,7.7c-0.4,0.7-0.5,0.6-0.5-0.2C1427.3,68.9,1429.4,66.4,1432.4,64.6z"/>
	<path class="st0" d="M595.8,64.8c-1.1,2.5-2.1,4.2-3.2,5.2c-0.3-1.2,0-2.1,1-2.8c0.3-0.2,0.5-0.5,0.5-0.8
		C594.4,65.6,595,65.1,595.8,64.8z"/>
	<path class="st0" d="M1025.1,67.1c0.3,0,0.4,0,0.4,0.1c1.4,3.3,2,6.8,1.8,10.4c-0.3-0.3-0.6-0.5-0.9-0.5
		C1026.4,73.9,1025.9,70.5,1025.1,67.1z"/>
	<path class="st0" d="M919.2,68.7c2.5,3.9,4.3,8.1,5.2,12.8c-0.2,0.4-0.3,1.3-0.2,2.5c-0.1,0.8-0.1,1-0.2,0.5c-0.6-2.5-1-4.8-1.2-7
		c0-0.3-0.2-0.6-0.5-0.8c-0.1-0.1-0.3-0.3-0.4-0.7c-0.9-2.6-2.2-5.3-3.7-8.1C918.3,67.8,918.7,68,919.2,68.7z"/>
	<path class="st0" d="M730.9,68.1c0.3,0.2,0.5,0.7,0.5,1.5c-0.1,18.3-0.1,36.3,0,54c-0.3-0.2-0.5-0.7-0.5-1.5
		C731,103.9,731,85.9,730.9,68.1z"/>
	<path class="st0" d="M1218.1,69.3c0.1-0.1,0.4-0.1,0.7,0c-1.4,1.9-2.8,3.7-4.2,5.5C1215,72.7,1216.1,70.9,1218.1,69.3z"/>
	<path class="st0" d="M575.8,69.6c0,20.3,0,40.7,0,61c0,0.7-0.1,1.1-0.2,1.2c-0.3-16.6-0.5-33.3-0.5-50
		C575.1,76.9,575.3,72.8,575.8,69.6z"/>
	<path class="st0" d="M1264.4,69.6c3.6,2.6,5.6,5.8,6,9.7c-0.9-2.8-2.4-5.3-4.5-7.5C1265.1,71.1,1264.6,70.3,1264.4,69.6z"/>
	<path class="st0" d="M1191.6,71.1c0,0.8,0.1,1.7,0.1,2.5c-1.5,5.8-4.4,10.7-8.5,14.6c-0.2,0.2-0.5,0.4-0.8,0.4
		C1187,84,1190.1,78.2,1191.6,71.1z"/>
	<path class="st0" d="M205.9,71.8c1.8,2.1,2.7,5,2.8,8.7c0.2,17.2,0.1,34.1,0,50.7c-0.4-0.5-0.6-1.1-0.6-2.1
		c-0.2-12.3-0.2-24.8-0.1-37.4c0.1-5.9,0-10.8-0.3-14.7c0-0.3-0.1-0.6-0.3-0.9C206.5,74.8,206,73.3,205.9,71.8z"/>
	<path class="st0" d="M316.1,72.3c1.8,2.2,2.7,5,2.7,8.5c0,3.2,0,6.4,0,9.5c-0.2-2.7-0.3-5.4-0.2-8c0-0.3,0-0.7-0.2-1
		c-0.6-1.5-1-3.4-1-5.5c0-0.3-0.1-0.6-0.3-0.9C316.6,74.1,316.3,73.3,316.1,72.3z"/>
	<path class="st0" d="M1441.8,72.3c-2.4,4.4-3.8,8.6-4.2,12.7c0,0.3,0,0.3,0,0c0.1-0.7,0-1.3-0.2-1.9c0.4-3,1.3-5.9,2.6-8.8
		C1440.5,73.2,1441.1,72.6,1441.8,72.3z"/>
	<path class="st0" d="M1425.8,72.6c0,1.4-0.4,2.6-1.3,3.8c-0.2,0.3-0.3,0.2-0.3-0.1c0-0.1-0.1-0.1-0.2-0.2
		C1424.5,74.6,1425.1,73.4,1425.8,72.6z"/>
	<path class="st0" d="M1485,74.6c0.1,0.7,0.2,1.6,0.3,2.7c-0.4,2.2-0.8,4.4-1.4,6.5c-0.3-1.6-0.3-3,0-4.2
		C1484.4,77.9,1484.7,76.3,1485,74.6C1484.9,74.3,1484.9,74.3,1485,74.6z"/>
	<path class="st0" d="M1574.9,74.6c0.1,0.1,0.1,0.5,0,1.2c-0.4,1.8-0.9,3.4-1.5,4.5c-0.2,0-0.3,0-0.5,0c-0.1-0.5,0.1-1.1,0.5-1.8
		c0.8-1.3,1.2-2.6,1.3-3.9C1574.6,74.3,1574.7,74.3,1574.9,74.6z"/>
	<path class="st0" d="M1230.8,74.6c-1.1,2.9-2.1,5.8-3,8.5c-0.1,0.3-0.2,0.6-0.2,1c0,1-0.1,0.8-0.3-0.5
		C1227.9,80,1229.1,77,1230.8,74.6z"/>
	<path class="st0" d="M597.1,74.8c-1.1,1.7-2.3,2.9-3.7,3.8C594.3,76.5,595.5,75.2,597.1,74.8z"/>
	<path class="st0" d="M973.6,75.1c0.1,17,0.1,34,0,51.2c0,1.6-0.2,2.8-0.5,3.7c-0.4-16.5-0.4-33.1,0-49.7c0.1-1.4,0.2-2.9,0.2-4.5
		C973.4,75,973.5,74.7,973.6,75.1z"/>
	<path class="st0" d="M153.4,75.1c0.3-0.1,0.5,0,0.6,0.4c0.5,2.8,0.7,5.3,0.7,7.6C153.8,80.1,153.4,77.4,153.4,75.1z"/>
	<path class="st0" d="M1286.6,75.1c0.2,0,0.4,0.1,0.5,0.4c1.7,5.5,2.7,10.9,3.2,16.3c0.7,7.6,0.2,15.4-1.2,23.2
		c-0.2,0.9-0.5,1.5-0.9,1.9c-0.2,0.2-0.3,0.5-0.3,0.9c0.1,0.9-0.2,1.4-0.8,1.5c1.5-5.1,2.3-9.9,2.4-14.5c0-0.3,0.1-0.7,0.1-1
		c0.8-3.1,0.7-6.1-0.2-9c-0.1-0.3-0.1-0.6-0.1-1c0.1-2.8,0-5.3-0.3-7.5C1288.6,83,1287.8,79.3,1286.6,75.1z"/>
	<path class="st0" d="M471.9,75.6c-1.5,5-2.1,10.6-1.5,16.8c0.4,4.4,1.5,8.7,3.2,13c-3-4.8-4.3-10.6-4.1-17.4c0-0.3,0-0.7,0-1
		c-0.3-3.5,0.3-7.3,2-11.4C471.6,75.3,471.8,75.3,471.9,75.6z"/>
	<path class="st0" d="M539.1,75.3c0.3,0.3,0.6,0.8,0.7,1.5c1.2,6.9,1.1,13.5-0.5,19.8c0,0.2-0.2,0.3-0.5,0.2
		c0.3-1.6,0.5-2.8,0.5-3.8c0-0.3,0-0.7,0.2-1c1.1-3.6,1.3-7.1,0.7-10.6C539.8,79.6,539.5,77.6,539.1,75.3z"/>
	<path class="st0" d="M1522.4,75.6c1.1,1.4,1.7,3,1.8,4.9c-0.4,0.4-0.6,0.3-0.5-0.2c-0.1-0.8-0.3-1.5-0.8-2.2
		C1522.4,77.5,1522.2,76.7,1522.4,75.6z"/>
	<path class="st0" d="M848.7,76.6c0.2-0.3,0.4-0.2,0.7,0.2c-1.6,3.1-2.7,6.2-3.3,9.4c-0.1,0.3-0.1,0.3-0.2,0c-0.1-0.6-0.3-0.3-0.6,1
		C845.5,83.5,846.6,79.9,848.7,76.6z"/>
	<path class="st0" d="M905.8,77.1c2.4,6.1,3.4,12.8,3,20.2c-0.8-3.7-1.3-7.4-1.4-11c0-0.3-0.1-0.7-0.2-1c-0.6-2.3-1.2-4.9-1.9-7.8
		C905.5,77,905.7,76.9,905.8,77.1z"/>
	<path class="st0" d="M1026.4,77.1c0.3,0,0.6,0.2,0.9,0.5c-0.1,2.8,0.1,5,0.4,6.8c0.1,0.3,0.1,0.7,0.1,1c0.1,15.5,0,31-0.2,46.7
		c-0.2,0-0.3-0.1-0.3-0.5c0-14.8,0-30.2,0-46c0-0.7-0.2-1.2-0.5-1.5C1026.3,82.4,1026.1,80,1026.4,77.1z"/>
	<path class="st0" d="M1473.4,77.3c0.2,1.9,0.4,3.8,0.7,5.8c-0.5,0-0.8-0.6-0.7-1.8C1473.4,79.9,1473.4,78.6,1473.4,77.3z"/>
	<path class="st0" d="M1505.9,77.7c0.9,2,1.8,4.3,2.7,6.8c0,0.6-0.1,1.2-0.1,1.8c-1.1-2.7-2.1-5.3-3-7.8
		C1505.7,77.7,1505.8,77.5,1505.9,77.7z"/>
	<path class="st0" d="M593.3,78.8c-0.4,0.7-0.7,1.3-1,1.8c-0.2,0.3-0.2,0.6-0.2,0.9c0.1,15.5,0,31.1-0.5,46.7
		c-0.2-1.8-0.3-4-0.3-6.5c0.1-13.6,0.1-27.1,0-40.5c0-0.3,0.1-0.6,0.3-0.9C592,79.9,592.6,79.3,593.3,78.8z"/>
	<path class="st0" d="M698,79.4c0.1,0,0.2,16.8,0.1,50.4c0,0.3,0.1,0.6,0.4,0.9c0.4,0.4,0.4,0.6-0.1,0.5c-0.3-0.1-0.5-0.3-0.5-0.6
		C697.9,96.4,697.9,79.4,698,79.4z"/>
	<path class="st0" d="M1572.9,80.3c0.2,0,0.3,0,0.5,0c-1.3,5.2-3,10.1-5.2,15C1569.4,90.4,1571,85.4,1572.9,80.3z"/>
	<path class="st0" d="M1026.9,84.1c0.3,0.2,0.5,0.7,0.5,1.5c-0.1,15.8-0.1,31.2,0,46c-0.3,0-0.5-0.1-0.5-0.2c0.2-1.7,0.3-3.3,0.2-5
		C1027,112.3,1026.9,98.2,1026.9,84.1z"/>
	<path class="st0" d="M1508.6,84.6c1.1,3.3,2.3,6.6,3.8,9.9c0.6,1.4,1.1,2.8,1.4,4.1c-1.6-2.6-3.4-6.7-5.2-12.2
		C1508.6,85.7,1508.6,85.1,1508.6,84.6z"/>
	<path class="st0" d="M1526.4,86.1c0.6,0.8,0.9,1.9,1,3.2C1526.7,88.6,1526.4,87.5,1526.4,86.1z"/>
	<path class="st0" d="M862.3,86.3c-0.8,6.3-1.2,11.7-1.2,16.2c-0.4-4.8-0.3-9.5,0.3-14.2C861.5,87.2,861.8,86.5,862.3,86.3z"/>
	<path class="st0" d="M1557.1,86.6c0.2,2.1-0.3,4.1-1.4,5.8c-0.2,0.3-0.3,0.6-0.2,0.9c0.1,0.8,0,1.3-0.3,1.4
		c-0.3,0.1-0.5,0.3-0.6,0.6c-0.2,1.1-0.5,2.3-1.1,3.5c0-0.5-0.1-1,0-1.5C1554.7,93,1556,89.4,1557.1,86.6z"/>
	<path class="st0" d="M1420,87.4c0.1,0.4,0.3,0.8,0.6,1.2c-0.8,6.3-1.1,11.7-1,16.2c0,0.3,0.1,0.7,0.2,1c0.4,1.8,0.5,4.1,0.6,6.8
		c0,2.4,0.5,5.3,1.5,8.7c-0.8-1-1.3-2.6-1.8-5c-1.3-6.5-1.7-12.3-1.2-17.2c0.3-3.4,0.7-7.3,1-11.7C1419.9,87,1419.9,87,1420,87.4z"
		/>
	<path class="st0" d="M845.1,88.1c0,1.2,0,2.5,0,3.8c0,0.8-0.2,1.3-0.7,1.2C844.3,91,844.5,89.3,845.1,88.1z"/>
	<path class="st0" d="M1209.6,88.1c-0.1,3.7-0.4,6.7-0.8,9.2c-0.6,3.5-0.4,6.8,0.4,9.8c0.1,0.3,0.1,0.7,0.1,1
		c-0.1,2.6,0.1,5.2,0.5,8c-0.4-0.1-0.7-0.4-0.8-1c-0.6-3.9-1-7.6-1.3-11.3c-0.4-4.2-0.1-7.7,0.7-10.4c0.1-0.3,0.1-0.7,0.1-1
		C1208.6,90.6,1208.9,89.2,1209.6,88.1z"/>
	<path class="st0" d="M1529.4,93.6c1,1.7,1.6,3.3,1.7,5C1530.2,97.2,1529.6,95.5,1529.4,93.6z"/>
	<path class="st0" d="M524.1,94.8c0.2,1.3,0,2.1-0.7,2.2C523.3,96.3,523.6,95.6,524.1,94.8z"/>
	<path class="st0" d="M844.1,95.3c0.1,3.5,0.1,7,0,10.5C843,102.5,843,99,844.1,95.3z"/>
	<path class="st0" d="M1127.6,96.3c0.4,3.2,0.4,6.2,0.1,9c0,0.3-0.1,0.7-0.1,1c0.1,6.7,0.1,13.5,0.2,20.5c0,1.4-0.2,2.5-0.7,3.2
		c-0.2-0.2-0.3-0.3-0.3-0.5c0.3-8.5,0.4-17.7,0.2-27.7c0-2.2,0-3.9,0-5.2C1127.1,96.3,1127.3,96.3,1127.6,96.3z"/>
	<path class="st0" d="M1553.4,97.3c0,0.5,0,1,0,1.5c-2.2,7.3-4.4,14.7-6.5,22c-0.3,1-0.7,1.8-1.2,2.4c-0.2,0.3-0.2,0.6-0.2,0.9
		c0.1,0.7-0.3,1.5-1.1,2.2c-0.2-0.2-0.3-0.4-0.3-0.5c1.8-5.9,3.6-11.9,5.5-18c0.2-0.7,0.4-1,0.5-1.1c0.3-0.1,0.5-0.4,0.5-0.7
		C1551,102.9,1551.9,100,1553.4,97.3z"/>
	<path class="st0" d="M522.6,98.6c-0.5,2.5-1.8,4.5-3.8,5.9c-0.1-0.7,0.2-1.3,0.8-1.7c0.3-0.2,0.5-0.4,0.6-0.7
		C521,100.8,521.8,99.6,522.6,98.6z"/>
	<path class="st0" d="M1531.1,98.6c0.6,0.8,1.2,1.7,1.6,2.9c1.5,4.6,3,8.9,4.5,13.1c-0.1,0.8-0.2,0.8-0.3,0.1c0-0.3-0.1-0.4-0.3-0.1
		c-0.1,0.2-0.2,0-0.5-0.7C1534.1,108.7,1532.4,103.6,1531.1,98.6z"/>
	<path class="st0" d="M908.8,100.3c0.5,6.4-0.2,12.7-2,18.8c-0.5,1.7-1.3,3.3-2.5,4.8C906.7,116.9,908.1,109.1,908.8,100.3z"/>
	<path class="st0" d="M1566.3,100.6c-2.2,8.2-4.9,16-7.9,23.4c-0.1,0.2-0.1-0.1-0.1-0.9c2.1-6.6,4.3-13.2,6.4-19.5
		c0.1-0.3,0.2-0.6,0.2-1C1565,101.4,1565.5,100.7,1566.3,100.6z"/>
	<path class="st0" d="M1515.6,102.6c1.1,1.4,1.7,2.9,1.7,4.5C1516.2,105.6,1515.6,104.1,1515.6,102.6z"/>
	<path class="st0" d="M474.4,106.3c1,0.8,1.5,1.6,1.7,2.5C474.8,108.3,474.3,107.5,474.4,106.3z"/>
	<path class="st0" d="M1273.1,106.6c0,2-0.1,4-0.2,6c-0.1,2.4-0.3,3.4-0.6,3.2c-0.2-0.3-0.4-0.5-0.4-0.4c0,0.7,0,1.5-0.1,2.4
		c0,0.5-0.2,0.6-0.5,0.2c-0.1-1.8,0.2-3.3,0.8-4.6c0.2-0.3,0.2-0.6,0.2-0.9C1272.1,110.2,1272.4,108.2,1273.1,106.6z"/>
	<path class="st0" d="M1517.4,107.3c2.4,4.7,4.5,10.1,6.5,16.2c-0.7-0.6-1.2-1.5-1.6-2.9c-0.3-1.2-0.8-2.3-1.2-3.2
		C1519.4,114.1,1518.1,110.7,1517.4,107.3z"/>
	<path class="st0" d="M636.8,108.6c-0.6,1.3-1.4,3.1-2.5,5.2c-0.3,0.7-0.4,0.5-0.3-0.5C634.6,111.1,635.6,109.5,636.8,108.6z"/>
	<path class="st0" d="M844.4,108.6c0.7,1.3,1,3.2,0.8,5.8c0,0.3,0.1,0.6,0.3,0.9c0.4,0.4,0.7,1.4,0.7,2.9c-0.2,0.6-0.3,1.2-0.3,2
		C844.9,116,844.4,112.2,844.4,108.6z"/>
	<path class="st0" d="M1109.9,111.1c0.3,0,0.4,0,0.4,0.1c0.2,6,0.2,11.9,0,17.9c-0.3-0.3-0.5-1-0.5-2
		C1110,121.6,1110,116.2,1109.9,111.1z"/>
	<path class="st0" d="M652.4,111.3c-0.6,1.6-1.6,3.5-3,5.7C649.3,115,650.3,113.1,652.4,111.3z"/>
	<path class="st0" d="M923.7,113.1c0.1,0,0.2,0.8,0.2,2.4c-1,5.3-3,9.5-6,12.5c1.2-2.3,2.4-4.7,3.7-7.1c0.9-1.8,1.3-3.2,1.1-4.2
		c0-0.1,0-0.1,0.1-0.1c0.3,0,0.5-0.2,0.5-0.5C923.3,114.1,923.4,113.1,923.7,113.1z"/>
	<path class="st0" d="M1437.8,114.1c-0.2,1.3,0.1,2.8,0.9,4.4c1,2.1,1.8,4,2.4,5.8c-1.6-1.8-2.5-3.5-2.7-5c0-0.3-0.2-0.6-0.5-0.6
		c-0.3-0.1-0.5-0.9-0.5-2.4C1437.5,115.4,1437.7,114.7,1437.8,114.1C1437.8,113.8,1437.8,113.8,1437.8,114.1z"/>
	<path class="st0" d="M862.4,115.3c0.6,2,1.2,4.1,1.8,6.2c0,0.9-0.1,0.9-0.3,0c-0.2-0.8-0.3-1.1-0.5-0.8c0,0.3-0.1,0.3-0.3,0.1
		C862.4,119.3,862.2,117.5,862.4,115.3z"/>
	<path class="st0" d="M1227.4,115.8c1.4,5.8,3.5,10.5,6.5,14c-1.4-1-2.7-2.6-3.8-4.6c0-0.1-0.2-0.2-0.5-0.5
		c-1.2-2.9-2.1-5.6-2.6-8.3C1227.1,115.7,1227.3,115.5,1227.4,115.8z"/>
	<path class="st0" d="M846.1,118.1c0.8,5.1,2.9,10,6.2,14.7c-0.2,0.3-0.6,0.1-1-0.5c-2.8-3.7-4.6-7.8-5.5-12.2
		C845.8,119.3,845.9,118.6,846.1,118.1z"/>
	<path class="st0" d="M1538.6,118.3c1.7,2.4,2.7,5,2.9,7.8c0,0.3,0.1,0.6,0.3,0.9c0.4,0.7,0.6,1.7,0.5,3.1c0,0.2,0.2,0.3,0.7,0.2
		c0.2,0.7,0.1,1.1-0.2,1.2c-0.3,0.1-0.5,0-0.6-0.3C1541.1,127.4,1539.9,123.1,1538.6,118.3z"/>
	<path class="st0" d="M501.7,119.6c0.1-0.2,0.4-0.2,0.9,0c-0.9,3.3-1.7,7.3-2.2,12.2C499.8,127.9,500.2,123.8,501.7,119.6z"/>
	<path class="st0" d="M1270.8,119.6c-0.3,1.4-0.8,2.7-1.4,3.8C1269.4,121.6,1269.8,120.3,1270.8,119.6z"/>
	<path class="st0" d="M1211.9,122.3c0.9,2.4,1.9,4.8,3,7.2c-0.1,0-0.1,0-0.2,0c-1.7-2.3-2.7-4.7-3-7.3
		C1211.7,122,1211.8,122,1211.9,122.3z"/>
	<path class="st0" d="M490.6,122.8c-0.4,2-1.3,3.7-2.5,5.2c0.3-1.6,0.9-3.2,1.7-4.8C490.2,122.4,490.5,122.2,490.6,122.8z"/>
	<path class="st0" d="M1285.4,123.1c-0.5,1.8-1.4,3.4-2.6,4.9c-0.2,0.3-0.4,0.5-0.6,0.8c-1.4,2.8-3.4,4.7-5.8,5.7
		c3.2-3.1,5.7-6.3,7.5-9.5C1284.4,124.1,1284.9,123.4,1285.4,123.1z"/>
	<path class="st0" d="M1485.1,126.6c1.5,1.8,2.3,3.7,2.4,5.5C1486.3,130.5,1485.5,128.7,1485.1,126.6z"/>
	<path class="st0" d="M1556.9,127.8c-1.7,5.6-3.6,11.4-5.7,17.6c-0.3,0.9-0.7,1.6-1.3,2.2c1-3.8,2.3-8.1,4-12.8
		c0.5-1.4,0.9-2.8,1.3-4.2c0.4-1.7,0.8-2.7,1.1-2.9c0.2-0.2,0.3-0.5,0.4-0.9C1556.7,126,1556.8,126.4,1556.9,127.8z"/>
	<path class="st0" d="M1425.2,128.5c0.8,1.9,1.9,3.8,3.4,5.8c-0.2,0.1-0.4,0.1-0.5,0c-2-2-3.3-4.2-3.8-6.5
		C1424.6,127.5,1424.8,127.7,1425.2,128.5z"/>
	<path class="st0" d="M1526.4,128.6c0.7,1.7,1.2,3.1,1.5,4.2c-0.1,0-0.1,0-0.2,0c-0.8-1.5-1.4-3-1.8-4.5
		C1525.7,127.3,1525.9,127.4,1526.4,128.6z"/>
	<path class="st0" d="M1479.9,127.8c-0.6,0.7-1.7,1.2-3.2,1.7c-0.6-0.2-0.5-0.5,0.2-0.8C1477.6,128.4,1478.6,128.1,1479.9,127.8z"/>
	<path class="st0" d="M1445.4,128.3c1.8,0.7,3.7,1.3,5.8,1.9c0.7,0.2,1.3,0.6,1.6,1.1C1450.3,131,1447.8,130,1445.4,128.3z"/>
	<path class="st0" d="M1214.6,129.6c0.1,0,0.1,0,0.2,0c1.5,2.3,3.3,4.5,5.3,6.7c-0.8-0.1-1.7-0.6-2.6-1.6
		C1216.1,133,1215.1,131.3,1214.6,129.6z"/>
	<path class="st0" d="M698.9,131.4c3.9,0.2,7.9,0.2,12.2,0.2c1,0,1.7,0.1,2,0.5c-5.4,0.2-10.6,0.1-15.7-0.2c0.7,0.1,1,0.1,1,0.1
		C698.4,131.5,698.6,131.4,698.9,131.4z"/>
	<path class="st0" d="M633.6,131.8c1.1,2,2.2,4,3.2,6c-0.8-0.2-1.4-1.1-1.9-2.5c-0.3-0.9-0.8-1.7-1.6-2.3
		C633.1,132.8,633.2,132.4,633.6,131.8z"/>
	<path class="st0" d="M1527.6,132.8c0.1,0,0.1,0,0.2,0c1.2,2.5,2.5,5.6,4,9.2c-0.6,0.1-0.9,0-1.1-0.4
		C1529.6,138.6,1528.5,135.6,1527.6,132.8z"/>
	<path class="st0" d="M486.1,133.6c0.1,1.2,0.1,2.5,0,3.8C485.4,136.5,485.4,135.2,486.1,133.6z"/>
	<path class="st0" d="M22.6,133.8c0,0.5,0,1.1,0,2C21.3,135.1,21.3,134.5,22.6,133.8z"/>
	<path class="st0" d="M1096.1,133.8c0.3,2.6,0.3,5.3,0.3,8C1095.6,139.2,1095.5,136.5,1096.1,133.8z"/>
	<path class="st0" d="M1487.9,135.3c-1.4,1.2-2.7,1.9-4,2.2C1485.1,136.1,1486.5,135.3,1487.9,135.3z"/>
	<path class="st0" d="M348.1,135.6c1.1,0.7,1.1,1.8,0,3.5C348.1,137.9,348.1,136.7,348.1,135.6z"/>
	<path class="st0" d="M1538.6,143.8c-0.1,0.7-0.3,1.4-0.5,2.2c-0.2,1-0.3,0.9-0.3-0.2C1537.7,144.9,1538,144.2,1538.6,143.8z"/>
	<path class="st0" d="M549.1,145.6c0.8,0.1,1.1,0.9,0.7,2.2C549.3,147.2,549.1,146.5,549.1,145.6z"/>
	<path class="st0" d="M550.4,147.7c1.7,6.3,1.9,12.8,0.7,19.3c-0.4,2.2-1.1,4-2,5.5c1.8-6.2,2.6-11.8,2.2-16.8c0-0.3-0.1-0.7-0.2-1
		c-0.5-2.1-0.9-4.4-1.2-7C550,146.9,550.2,146.9,550.4,147.7z"/>
	<path class="st0" d="M1537.4,147.1c0,2.7-1,5.4-2.9,8.1c-0.1,0.1-0.1-0.1-0.1-0.4C1535.3,151.4,1536.3,148.8,1537.4,147.1z"/>
	<path class="st0" d="M493.3,149.8c-0.3,0.7-0.9,1.4-1.7,2.3c-2,2.2-3.4,4.5-4.3,6.9c0-1.3,0.3-2.5,1.2-3.8
		C490,152.9,491.6,151.1,493.3,149.8z"/>
	<path class="st0" d="M478.1,150.6c-0.6,1.3-1.5,2.3-2.7,3C476,152.1,476.9,151.1,478.1,150.6z"/>
	<path class="st0" d="M473.4,156.8c-2.5,5.1-3.5,10.5-3,16.2c0.3,4.2,1.5,7.8,3.5,10.8c0.1,0.4,0.2,0.7,0.2,1
		c-0.4-0.2-0.7-0.5-0.9-0.8c-2.6-3.8-3.8-8.4-3.8-13.7C469.4,164.9,470.7,160.4,473.4,156.8z"/>
	<path class="st0" d="M1545.3,160.1c-1.6,6-3.6,11.1-6,15.2c1.5-4.9,3.3-9.8,5.2-14.5C1544.7,160.5,1545,160.2,1545.3,160.1z"/>
	<path class="st0" d="M535.8,163.8c0,2.6-0.1,4.9-0.5,7c-0.3,1.7-1.2,3.3-2.7,4.8c1.1-2.2,1.9-4.4,2.6-6.5c0.1-0.3,0.1-0.6,0.1-1
		C535.2,166.4,535.4,165,535.8,163.8z"/>
	<path class="st0" d="M1530.3,164.6c-1,2-1.9,3.9-2.7,5.8c-0.5,1.1-1,1.8-1.5,2c0.8-1.7,1.6-3.6,2.5-5.8
		C1529.1,165.5,1529.6,164.8,1530.3,164.6z"/>
	<path class="st0" d="M548.3,174.1c0.1,1-0.5,2-1.7,3C546.6,176,547.2,175,548.3,174.1z"/>
	<path class="st0" d="M491.4,180c-1-0.2-1.7-0.8-2-1.7C490,178.1,490.7,178.7,491.4,180z"/>
	<path class="st0" d="M545.4,178.6c-0.8,2.2-2.2,3.7-4.2,4.5C542.4,181.7,543.8,180.3,545.4,178.6z"/>
	<path class="st0" d="M1536.8,179.6c0,0,0.1,0.1,0.3,0.2c-1,2.7-2.6,5.4-4.6,8.3c-0.4,0.5-0.7,0.8-1.1,0.9
		C1533.3,185.7,1535.1,182.6,1536.8,179.6z"/>
	<path class="st0" d="M473.9,183.8c1.5,1.6,2.6,3,3.2,4.2c-1.3-0.6-2.3-1.6-3-3.2C474,184.5,474,184.2,473.9,183.8z"/>
	<path class="st0" d="M396.5,225.6c4,0.9,6,3.4,6.1,7.4c0.2,8.7,0.2,17.2,0,25.5c-0.2,20.4-0.2,40.8,0,61.2c0,0.4,0.3,0.3,1-0.2
		c11-8.1,22.5-17,34.3-26.6c0.3-0.2,0.2-0.4-0.1-0.4c-4.1-0.3-8.5-0.9-13.1-1.6c-0.8-0.1-1.2-0.6-1.2-1.3c-0.1-2.3,0.2-4.3,1.1-6.1
		c0.1-0.3,0.4-0.5,0.7-0.5c10.4,0,21.1,0,32.1,0c0.9,0,1.5,0.5,1.6,1.4c0.3,1.7,0.4,3.6,0.3,5.6c0,0.3-0.2,0.6-0.4,0.8
		c-11.6,8.6-23,17.4-34.5,26.4c-0.3,0.2-0.3,0.4-0.1,0.7c0.3,0.3,0.6,0.9,1.1,1.9c0,0.9,0.3,1.6,1,2.2c0.6,0.5,1,1,1.2,1.5
		c0,0.3,0.1,0.6,0.4,0.9c0.9,1,1.9,2.4,3,4.1c0,0,0.1-0.1,0.2-0.2c0.2,0.6,0.4,1,0.8,1.2c0,1.1,0.7,2.1,2,3c0.3,1.1,0.9,2.1,2,3
		c1.5,2.3,3.6,5.2,6.3,8.8c0.6,1.2,1.5,2.3,2.7,3.2c2.9,3.6,6.2,6.2,9.9,7.7c3.2,1.3,6.3,2.3,9.4,3.1c0.4,0.1,0.7,0.4,0.7,0.9
		c0.2,2.3,0.1,3.9-0.1,5c-0.1,0.3-0.2,0.6-0.5,0.8c-1.8,1.5-4.2,2.5-7,3c-3.6,0.8-7.3,0.7-10.9-0.3c-3.7-1.1-7-3.5-10-7.2
		c-4.7-5.9-8.7-11.6-12.1-17c-1-2.3-2.4-4.8-4.2-7.5c-0.9-1.7-1.8-3.5-2.9-5.5c-0.5-0.8-0.7-0.8-0.6,0.1c-0.3-1.2-0.7-2-1.2-2.5
		c-0.1-0.8-0.5-1.4-1.2-2c-0.3-0.7-0.5-1.1-0.6-1.2c-0.3-0.2-0.5-0.2-0.9-0.1c-3.5,1.6-6.8,3.4-9.8,5.6c-0.3,0.2-0.4,0.4-0.4,0.8
		c0.2,8,0.3,16.4,0.1,25.3c0,0.2,0.1,0.3,0.2,0.3c3.8,1,8,1.8,12.6,2.4c1,0.1,1.6,0.7,1.7,1.8c0.2,2-0.2,3.8-1.1,5.2
		c-0.4,0.7-1,1-1.8,1c-12.5,0-25.8,0-40.1,0c-0.4,0-0.6-0.2-0.6-0.6c-0.2-1.6-0.5-3.3-0.9-5.1c-0.2-1.3,0.3-2,1.6-2.2
		c5.2-0.9,9.4-1.7,12.6-2.6c0.5,0,0.7-0.4,0.7-1.2c-0.1-27.8-0.1-55.4,0-82.8c-0.1-1-0.2-1.9-0.2-2.8c0.4-10.2,0.5-20.5,0.1-30.8
		c0-0.6-0.1-0.9-0.4-0.9c-4.3,0-9-0.1-13.9-0.1c-0.4,0-0.7-0.4-0.8-1.2c-0.1-1.5-0.4-2.9-0.7-4.2c-0.7-1.7-0.5-2.8,0.7-3.2
		c3.7-1.3,8-2.4,12.8-3.4C389.1,225,392.9,224.9,396.5,225.6z"/>
	<path class="st0" d="M371.4,232.6c0.3,1.4,0.5,2.8,0.7,4.2C371.1,235.8,370.9,234.4,371.4,232.6z"/>
	<path class="st0" d="M22.4,239.1c31.1,0.3,62.1,0.4,93.2,0.1c1.6,0,2.8,0.1,3.6,0.4c0.9,0.5,1.4,1.1,1.8,1.8
		c-0.1,4.2-0.1,8.3,0,12.5c-0.2,0.2-0.3,0.3-0.3,0.5c-0.2,5.9-0.6,10.8-1.2,14.7c-0.2,1.1-0.8,1.6-1.9,1.6c-2.4,0-4.9,0-7.4,0
		c-0.9,0-1.3-0.4-1.4-1.3c-0.2-2.1-0.5-4.1-0.9-6c0.1-2.1,0-4.2-0.4-6.2c0-2.7-0.3-5.2-0.9-7.5c0-0.2-0.2-0.2-0.3-0.2
		c-9.7-0.1-19,0-27.9,0.2c-0.3,0-0.5,0.2-0.4,0.5c0.1,0.5,0.1,1.2,0.1,2c-0.2,25.6-0.2,51.4-0.1,77.3c0.1,8.7,0,17.3-0.1,25.6
		c0,0.3,0.2,0.5,0.5,0.6c5.8,1,11.8,2.2,18,3.4c0.4,0.1,0.6,0.3,0.6,0.7c0.1,2.5,0,4.5-0.2,6c-0.2,1-0.7,1.5-1.7,1.5
		c-15.8,0-32.4,0-49.8,0c-0.4,0-0.6-0.2-0.7-0.6c-0.3-2.2-0.4-4.7-0.5-7.5c0-0.3,0.1-0.4,0.4-0.5c3.5-1,6.9-1.6,10.2-1.9
		c2.4-0.2,4.4-0.5,6.1-0.8c0.3-0.1,0.5-0.3,0.5-0.6c-0.1-34.6-0.1-69.8-0.1-105.5c0-0.2-0.1-0.4-0.3-0.4c-9.4,0-18.7,0-27.9,0
		c-0.8,0-1.2,0.4-1.2,1.2c-0.1,5.3-0.6,11.6-1.4,18.9c-0.1,0.7-0.5,1.1-1.2,1.1c-2.4,0-5,0-7.7,0c-1,0-1.7-0.5-2.1-1.4
		c-0.5-0.9-0.6-2-0.5-3c0.4-3.6,0.1-7.2-0.9-11.1c-0.1-0.3-0.1-0.6-0.1-1c-0.1-5.1,0-9.3,0.2-12.8c0-0.3,0.2-0.6,0.4-0.9
		C18.8,239.5,20.3,239,22.4,239.1z"/>
	<path class="st0" d="M387.1,239.1c0.4,10.3,0.4,20.5-0.1,30.8C386.7,258.9,386.7,248.7,387.1,239.1z"/>
	<path class="st0" d="M777.4,239.1c15.4-0.1,31-0.1,46.7-0.1c5.7,0,11.7,0.3,18,1c8.2,0.9,15.3,3.9,21.5,9.2c2.9,4,5,7.6,6.2,10.9
		c0.1,0.2,0.2,0.8,0.5,2.1c0.7,4.6,1.1,6.9,1.2,6.9c0.1,0,0.2-1.3,0.3-3.7c0.4,2.3,0.6,4.8,0.8,7.3c-0.1,4.3-0.1,8.5,0,12.8
		c0,0.6-0.1,1.2-0.3,1.8c-0.2,0.3-0.3,0.7-0.3,1.2c0,0.3-0.1,0.4-0.3,0.1c-0.3-0.5-0.4-0.1-0.4,1c0.1,2.4-0.3,5.1-1.2,8
		c-0.5,1.4-0.7,2.9-0.8,4.2c-0.3,0.1-0.5,0.5-0.8,1.2c-0.8,2-1.7,3.8-2.9,5.6c-1.7,2.8-4.1,5.2-7.1,7.2c-6.3,4.1-13.2,6.4-20.7,6.8
		c-11.2,0.6-21.6,0.2-31.2-1.2c-0.3-0.2-0.5,0.2-0.5,1c0,10-0.1,20-0.2,30c0,0.8,0.1,1.7,0.3,2.5c-0.1,0.5,0,0.9,0.3,1.2
		c0.7,0.6,2.2,0.8,4.4,0.6c2.3-0.2,4.1,0,5.5,0.6c0.3,0.1,0.6,0.2,1,0.2c3.4,0.2,6.1,0.5,7.9,0.9c1,0.2,1.6,0.8,1.6,1.9
		c0,2.4,0,4.4,0,5.9c0,0.7-0.4,1-1.1,1c-16.6,0-33.2,0-49.6-0.1c-0.5,0-0.8-0.3-0.9-0.8c-0.4-3.5-0.5-6.1-0.2-7.9
		c0.1-0.3,0.3-0.5,0.6-0.6c4.2-0.6,8.7-1.2,13.4-1.8c0.2,0,0.2-0.2,0.2-0.7c0-22-0.1-43.9,0-65.5c0-13.2,0.1-26.4,0.1-39.4
		c0-0.2-0.1-0.3-0.2-0.3c-4.3-0.8-8.5-1.5-12.6-2.1c-1.3-0.9-1.5-2.5-0.8-4.8c0.2-0.6,0.3-1.5,0.3-2.4c-0.1-0.7,0.1-1.1,0.4-1.4
		C776.8,239.2,777.1,239.1,777.4,239.1z M806.1,251.1c-0.5,19.8-0.5,39.7,0,59.5c0,0.1,0.1,0.1,0.2,0.2c6.2,0.7,12.5,1.1,18.8,1.3
		c2.5,0.1,4.7-0.1,6.8-0.6c0.3-0.1,0.7-0.1,1-0.1c6.5-0.5,11.8-3,15.9-7.5c1.7-1.9,2.8-3.9,3.5-6.2c0.1,0.6,0.3,0.6,0.5,0.2
		c1.4-2.8,2.1-6,2.3-9.7c0.3-6.8,0.3-13.7,0-20.5c-0.1-2.5-0.6-4.2-1.7-5.2c-0.8-1.9-1.7-3.5-2.8-4.7c-2.8-3-6.4-4.8-10.9-5.6
		c-2.7-0.6-4.9-1-6.3-1.3c-0.3-0.1-0.7-0.1-1-0.1c-8.1-0.1-16.4-0.2-25-0.2C806.3,250.3,805.9,250.5,806.1,251.1z"/>
	<path class="st0" d="M119.1,239.6c1.3-0.2,2,0.4,2,1.7c-0.1,0-0.1,0-0.2,0C120.6,240.6,120,240,119.1,239.6z"/>
	<path class="st0" d="M494.6,240.3c4.9-0.3,8.3,1.3,10.2,4.8c1.2,2.2,1.5,4.7,1.1,7.7c-0.3,3-1.7,5.3-4.3,7
		c-0.3,0.2-0.6,0.3-0.9,0.5c-4.2,1.8-8.2,1.5-11.8-0.9c-2-1.3-3.3-3.5-3.8-6.5c-0.6-2.5-0.3-5.2,1-7.9
		C487.5,242,490.4,240.5,494.6,240.3z"/>
	<path class="st0" d="M1075.2,240.3l2.7,0c5-0.1,9.1,3.9,9.2,8.9l0,2.9c0.1,5-3.9,9.1-8.9,9.2l-2.7,0c-5,0.1-9.1-3.9-9.2-8.9l0-2.9
		C1066.2,244.5,1070.2,240.4,1075.2,240.3z"/>
	<path class="st0" d="M776.1,240.8c0,1-0.1,1.8-0.3,2.4c-0.7,2.2-0.4,3.8,0.8,4.8c-1.4-0.1-2.1-0.7-2-2
		C774.8,243.7,775.3,242,776.1,240.8z"/>
	<path class="st0" d="M120.9,241.3c0.1,0,0.1,0,0.2,0c0.3,0.8,0.5,2,0.5,3.5c0,3.6-0.2,6.6-0.7,9
		C120.8,249.6,120.8,245.5,120.9,241.3z"/>
	<path class="st0" d="M863.6,249.3c3.5,2.7,5.8,6.4,6.8,11c0,0.7-0.1,1.3-0.1,2c-0.3-1.2-0.5-1.9-0.5-2.1
		C868.6,256.9,866.6,253.3,863.6,249.3z"/>
	<path class="st0" d="M806.1,251.1c0.8,0.8,1,1.6,0.7,2.4c-0.1,0.3-0.2,0.6-0.2,1c0.1,16.6,0.1,33.4,0.2,50.4c0,2.2-0.2,4.2-0.5,6
		c-0.2-0.1-0.2-0.1-0.2-0.2C805.6,290.7,805.6,270.9,806.1,251.1z"/>
	<path class="st0" d="M107.4,257.1c0.4,2.1,0.5,4.1,0.4,6.2C107.3,261.8,107.2,259.7,107.4,257.1z"/>
	<path class="st0" d="M402.6,258.6c0.3-0.1,0.5,0.2,0.5,1c0,15.9,0,31.8,0,47.8c0,5.2,0.2,9.2,0.5,12.2c-0.7,0.5-1,0.6-1,0.2
		C402.4,299.4,402.4,278.9,402.6,258.6z"/>
	<path class="st0" d="M1299,259.9c0.1,6.9,0.1,14.1,0.1,21.8c0,0.9,0.4,1.4,1.3,1.4c8,0.1,16.3,0.1,24.7,0.1c0.2,0,0.3,0.1,0.3,0.3
		c0.4,3.1,0.5,5.9,0.1,8.6c-0.1,0.4-0.3,0.6-0.7,0.6c-8.1,0-16.3,0-24.6,0c-0.8,0-1.1,0.4-1.1,1.1c0.2,18.2,0.3,36.6,0.2,55.1
		c0,2.2,0.5,4.3,1.6,6.2c1.1,2.1,2.8,3.1,5.2,2.9c0.3,0,0.7,0,1,0c6,0.4,12.1-0.6,18.3-2.9c0.6-0.2,1,0,1.3,0.5
		c0.7,1.5,1.5,3.6,2.4,6.2c0.3,0.7,0,1.3-0.7,1.6c-10.4,5.3-20.9,7.3-31.6,5.8c-0.3,0-0.7-0.1-1-0.2c-3.7-1.2-6.6-3.2-8.7-6
		c-0.2-0.3-0.4-0.6-0.5-0.9c-0.9-2-1.6-4.4-2.2-7c-0.4-6.3-0.5-12.2-0.5-17.8c0.1-14.5,0.1-28.9-0.2-43.2c0.1-0.8,0-1.2-0.3-1.2
		c-3-0.4-6.7-0.5-10.9-0.3c-0.3,0-0.5-0.1-0.6-0.5c-0.4-1.3-0.3-3.6,0.2-7c0.1-0.4,0.3-0.7,0.7-0.8c2.8-0.7,6.1-1,9.7-0.9
		c0.9,0,1.3-0.4,1.5-1.2c1.2-8.1,2.4-15.5,3.7-22.2c0.1-0.3,0.3-0.5,0.6-0.6c3.4-0.8,6.8-0.8,10.1,0
		C1298.9,259.3,1299,259.5,1299,259.9z"/>
	<path class="st0" d="M870.4,260.3c0.7,1.5,1.2,3.2,1.5,5.2c-0.1,2.5-0.2,3.7-0.3,3.7c-0.1,0-0.5-2.3-1.2-6.9
		C870.3,261.6,870.4,261,870.4,260.3z"/>
	<path class="st0" d="M853.4,262.3c1.1,1,1.6,2.8,1.7,5.2c0.3,6.8,0.3,13.7,0,20.5c-0.2,3.7-0.9,6.9-2.3,9.7
		c-0.2,0.4-0.4,0.4-0.5-0.2c2.6-9.1,3.3-19.1,2.1-30c0-0.3-0.1-0.7-0.2-1C853.7,265.3,853.4,263.9,853.4,262.3z"/>
	<path class="st0" d="M387.3,272.6c-0.1,27.3-0.1,54.9,0,82.8c0,0.8-0.2,1.3-0.7,1.2c0.2-2,0.2-4.5,0.2-7.5
		c-0.3-22.9-0.4-45.4-0.2-67.8c0-0.3,0-0.7,0.1-1c0.3-2.7,0.4-5.3,0.2-7.8C386.8,272.3,387,272.3,387.3,272.6z"/>
	<path class="st0" d="M872.6,272.8c0.7,4.4,0.7,8.6,0,12.8C872.6,281.3,872.6,277.1,872.6,272.8z"/>
	<path class="st0" d="M722.4,279.8c0.4,0.1,0.7,0.3,0.7,0.8c0.1,4.3,0.1,8.1-0.1,11.3c0,0.3-0.2,0.5-0.5,0.6
		c-1.5,0.2-3.1,0.2-5.1,0.1c-4-0.2-7.1,0.1-9.5,0.7c-0.3,0.1-0.4,0.3-0.3,0.6c0.4,1,0.8,1.7,1.3,2.3c-0.1,0.8,0.1,1.6,0.4,2.3
		c0.8,1.6,1.1,3,1.1,4.2c0,0.3,0,0.7,0.1,1c1,4.3,0.9,9-0.1,14.3c-0.4,2.3-0.9,4.5-1.2,6.8c-1.4,3.5-3.3,6.4-5.6,8.7
		c-4.8,4.9-10.2,8-16.4,9.6c-3.8,0.9-8.3,1.5-13.5,1.7c-0.7-0.3-1.1-0.1-1,0.5c0,0.3,0,0.7-0.1,1c-1.1,3.4-1.5,7-1.1,10.8
		c1.5,2.3,4.1,3.4,7.8,3.2c8.4-0.3,16,0,22.8,1c2.1,0.3,4,0.6,5.8,1c4.9,1.3,8.7,3.4,11.5,6.5c0.7,2.1,1.4,3.8,2,5.3
		c0.1,0.3,0.2,0.6,0.2,1c0.1,0.9,0.2,1.8,0.5,2.8c1.1,3.9,1,8-0.1,12.3c-0.1,0.3-0.1,0.6-0.1,1c-0.1,3.4-1.1,6.6-3.2,9.6
		c-0.3,0.5-0.5,0.9-0.5,1.2c-1.1,2-2.2,3.6-3.5,4.8c-4,3.9-8.2,7-12.6,9.1c-10.8,5.4-22.7,7.3-35.6,5.8c-2.2-0.3-4.3-0.8-6.4-1.6
		c-5-1.5-9.3-4-12.7-7.6c-0.8-1.5-2-3.4-3.7-5.8c-2.4-4.9-3-10.6-1.6-17.3c0.9-4.4,2.5-7.8,4.8-10.2c1.5-1.4,2.8-2.9,4-4.4
		c3.2-2.7,6.4-4.8,9.6-6.2c0.5-0.2,0.5-0.5,0.2-0.9c-1.3-1.3-2.2-2.8-2.8-4.5c0-1.9,0-3.7,0-5.5c0.5-1,1-2.1,1.3-3.2
		c1.5-2.3,2.5-4.6,3-6.7c0.6-1,1.2-2.1,1.5-3.2c0.1-0.3,0-0.5-0.3-0.6c-4.1-0.7-7.8-2.3-11.2-5c-5.6-4.4-9-10.3-10-17.8
		c-0.6-3.9-0.7-9.1-0.2-15.5c0.7-2.6,1.4-5.1,2.3-7.2c0.1,0.4,0.1,0.6,0.3,0.7c0.4,0.1,0.7-0.8,0.9-2.7c0-0.3,0.1-0.5,0.3-0.5
		c0.2,0.6,0.5,0.5,0.8-0.1c1-2,2.6-4,4.7-6c4-3.9,9.4-6.5,16-7.8c3.9-0.8,7.3-1.3,10.3-1.4c0.3,0,0.7-0.1,1-0.1
		c7,0.1,13.2,1.3,18.4,3.7c0.9,0.4,2,1.1,3.4,2.1c0.3,0.2,0.6,0.1,0.8-0.1C706.7,280.8,713.9,278.8,722.4,279.8z M660.6,296.6
		c-0.8,0.9-1.1,1.9-1.2,2.8c-1.6,2.5-2.4,5.4-2.3,8.8c0,1.8-0.1,3.2-0.4,4.3c-0.1,0.3-0.1,0.6,0,1c0.1,1.5,0.4,3.6,0.7,6.3
		c0.7,6.3,3.7,10.6,9.1,12.9c2.5,1.1,5.1,1.7,7.9,1.8c6.9,0.4,12.4-1.6,16.5-5.8c3.4-3.3,5.2-7,5.5-11c0.2-3.1,0.1-6.8-0.2-11.2
		c-0.1-2.1-0.6-4.2-1.6-6.2c-0.1-0.2-0.2,0.1-0.4,0.9c0-0.1-0.1-0.2-0.1-0.2c0.2-0.8,0.1-1.4-0.2-1.8c-0.3-0.5-0.5-0.5-0.6,0.1
		c-0.2,0-0.2-0.2-0.2-0.5c0.1-1.1-0.4-2.1-1.7-3c-3.5-3.6-7.9-5.3-13.3-5.3c-0.3,0-0.7,0-1,0c-5.3-0.5-10.1,0.7-14.2,3.6
		C661.8,294.7,661,295.6,660.6,296.6z M664.9,374.5c-3.1,1.8-5.2,4.7-6.2,8.5c-1.7,4.4-2.2,8.9-1.5,13.5c0.2,1.3,0.6,2.5,1.3,3.5
		c0.7,2.4,2.1,4.1,4.2,5c0.6,0.7,1.4,1.3,2.3,1.7c5.1,2.2,10.6,3.2,16.6,3c4.9-0.2,9.3-1,13.1-2.4c4.2-1.4,7.4-3.9,9.5-7.3
		c1.8-1.8,2.7-4.4,3-7.8c0.3-4.5,0.2-8.3-0.2-11.2c-0.3-1.7-0.9-2.7-1.8-2.8c-0.9-2.6-2.9-4.1-6-4.8c-4.7-0.9-10.4-1.3-17.2-1
		c-3.8,0-7.5-0.3-11.3-0.9c-0.3-0.1-0.7-0.1-1,0C668.1,371.9,666.6,372.9,664.9,374.5z"/>
	<path class="st0" d="M192,280.7c0.7,0.1,1.1,0.5,1.1,1.2c0.2,3.7,0.1,7.7-0.3,11.8c-0.1,1.3-0.8,1.8-2,1.5
		c-1.9-0.2-4.2-0.4-6.9-0.4c-6.3-0.1-11.8,1.3-16.5,4.2c-1.4,0.7-2.6,1.9-3.5,3.5c-1,1.1-1.9,2.1-2.6,3.1c-0.1,0.1-0.1,0.3-0.1,0.5
		c0,17-0.1,33.7-0.2,50.1c0,0.3,0.1,0.4,0.4,0.5c6.9,0.7,13.4,1.4,19.4,2.2c0.4,0,0.7,0.3,0.7,0.7c0.1,2.6,0,4.8-0.3,6.5
		c-0.1,0.7-0.5,1-1.2,1c-15.1,0.1-30.8,0.1-47.2,0.1c-0.4,0-0.7-0.2-0.7-0.7c-0.3-2.6-0.3-4.6-0.1-6.2c0-0.3,0.2-0.5,0.5-0.7
		c3.7-1.2,7.9-2,12.6-2.5c0.6-0.1,0.8-0.6,0.5-1.5c0.1-20.4,0.1-40.8,0-61.2c0.3-0.5,0.4-0.8,0.1-0.8c-4.3-0.4-9.2-0.4-14.8-0.2
		c-0.5,0-0.8-0.2-0.8-0.7c-0.3-1.9-0.7-4.1-1.1-6.5c-0.1-0.7,0.1-1.1,0.8-1.3c6-1.9,11.6-3.3,17-4c2.1-0.3,4.5-0.3,7.1,0.1
		c3,0.6,5,2.1,6.1,4.5c0.1,0.3,0.2,0.6,0.3,1c0.4,2.8,0.4,5.1,0.2,6.8c-0.1,1.6-0.2,3.3,0,5c0,0.4,0.1,0.3,0.3-0.2
		c1.2-1.3,1.9-2.6,2.2-4c0.9-1.3,1.9-2.7,3-4.3c2.8-4.3,6.6-7.1,11.2-8.5C181.4,279.7,186.5,279.6,192,280.7z"/>
	<path class="st0" d="M947.7,280.5c1.4,0.2,2.2,1,2.2,2.4c0.1,3.5,0,7.1-0.2,10.7c-0.1,1.2-0.7,1.8-2,1.6c-2.2-0.2-4.4-0.3-6.8-0.4
		c-5.9-0.4-11.1,0.7-15.7,3.3c-2.5,1.5-4.8,3.8-6.8,6.9c-0.5,0.1-0.7,0.3-0.7,0.5c-0.6,14.7-0.5,28.8,0,42.2c0,3,0,5.9-0.2,8.4
		c0,0.3,0.1,0.5,0.5,0.5c6.6,0.5,13,1.2,19.1,2c0.5,0.1,0.7,0.3,0.8,0.8c0.1,2.7,0.1,4.8-0.2,6.3c-0.1,0.7-0.5,1.1-1.3,1.1
		c-15.2-0.2-30.3-0.2-45.5,0c-1.9,0-2.7-0.6-2.3-2c0.1-0.3,0-0.6,0-1c-0.5-1.8-0.5-3.2-0.1-4.1c0.1-0.3,0.4-0.5,0.7-0.6
		c3.7-1,7.9-1.9,12.6-2.6c0.5-0.1,0.7-0.3,0.5-0.5c-0.2-0.3-0.3-0.6-0.3-0.9c0-18.5,0-36.9,0-55.2c0.1-3,0.1-5.2-0.2-6.6
		c-0.1-0.3-1.2-0.4-3.3-0.2c-4.3,0.4-8,0.4-11.2,0c-0.3,0-0.5-0.2-0.6-0.5c-0.3-0.9-0.5-2.3-0.7-4.2c0-1.1-0.1-2.2-0.2-3.2
		c0.3-0.4,0.5-0.7,0.8-0.8c6.6-2.1,13.1-3.5,19.5-4.2c2.1-0.3,4.3,0.1,6.5,1c2.6,1,4,3,4.2,6c0.4,4.1,0.5,7.5,0.3,10.2
		c0,0.3,0.1,0.4,0.2,0.1c0.9-1.6,2-3.4,3.2-5.5c2.4-4.3,5.7-7.6,9.8-9.8C934.6,280,940.4,279.4,947.7,280.5z"/>
	<path class="st0" d="M1147.7,280.2c3.5,0.1,7,0.5,10.4,1.3c6.2,1.2,11,4.4,14.5,9.5c0.3,1.4,0.8,2.5,1.7,3.5
		c0.3,0.1,0.5,0.3,0.5,0.5c1.7,5.1,2.6,10.3,2.5,15.5c-0.2,1.8,0,3.4,0.5,4.8c0.2,2.2,0.1,3.8-0.3,4.5c-0.1,0.3-0.4,0.5-0.7,0.5
		c-12.3,0.2-24.7,0.3-37,0.5c-0.3,0-0.7,0-1,0.1c-4.1,0.4-9.1,0.6-14.9,0.5c-0.3,0-0.5,0.2-0.5,0.5c0,6.3,0.5,12.5,1.4,18.8
		c0.8,5.5,3.2,9.6,7.1,12.4c0.1,0.9,0.8,1.4,2.2,1.5c1.6,1,3.3,1.7,5,2c5.6,1.3,11.8,1.6,18.4,0.7c5.7-0.8,11.2-2,16.3-3.8
		c0.3-0.1,0.6,0,0.8,0.2c1.3,1.5,2.2,3.6,2.6,6.5c0.1,1-0.2,1.7-1.1,2.1c-6,3.3-12.5,5.5-19.5,6.6c-9,1.3-17.5,1.1-25.5-0.6
		c-7.4-1.6-13.1-5.3-17.1-11.2c-0.2-1.1-0.7-2-1.5-2.7c-0.3-0.2-0.6-0.6-0.8-1.1c-2-5.2-3.4-10.9-4-17.2c-0.1-5.2-0.1-10.5,0-15.8
		c0.4-4.8,1.3-9.9,2.9-15.2c0.5-1.7,1-3.2,1.6-4.5c0.9-0.5,1.3-1.4,1.2-2.8c0.1-0.1,0.2-0.2,0.3-0.3c1.2-0.5,1.7-1.5,1.8-3
		c1.2-0.7,1.9-1.6,2-2.7c2.9-3.4,6.7-6.1,11.3-8.2C1134.1,281.2,1140.4,280,1147.7,280.2z M1124.8,311.6c10.6-0.4,21.3-0.7,32.1-1.1
		c1.4,0,2.8-0.2,4.1-0.4c1.2-0.2,1.4-0.7,0.7-1.6c-0.1-0.1-0.1-1.2-0.2-3.3c-0.1-5.5-2.3-9.7-6.4-12.9c-1.4-1.1-2.9-1.7-4.7-1.8
		c-3.5-0.4-7.1-0.4-10.8,0c-3.2,0.3-6.1,1.4-8.4,3.3c-3.4,2.7-5.3,6.3-5.8,10.9c0,0.3-0.1,0.7-0.2,1c-0.6,1.8-0.9,3.6-1,5.2
		C1124.2,311.4,1124.3,311.6,1124.8,311.6z"/>
	<path class="st0" d="M246.6,281.1c3.5,0.1,7,1.2,10.4,3.3c3.3,2,5.7,5,7.1,8.9c0.9,2.6,1.3,5,1.2,7.2c0,1.6,0.2,2.5,0.6,3
		c0.3,0.2,0.4,0.5,0.4,0.8c0,3.8,0,7.7,0,11.8c0,0.5,0.2,1,0.5,1.3c0,12.9,0,25.3,0,37.5c-0.7,1.9-0.2,2.7,1.5,2.4
		c0.3-0.1,0.7-0.1,1-0.1c4.3,0,8.8,0,13.5,0c0.4,0.3,0.5,1,0.5,2c-0.1,2.6-0.1,4.5-0.2,5.6c0,0.3-0.2,0.6-0.5,0.7
		c-3.3,1.3-6.7,2.3-10.4,2.9c-0.3,0.1-0.6,0.1-0.9,0.3c-1,0.4-2.3,0.7-4,0.8c-2.9,0.4-5.5,0.4-8,0c-3.2-0.5-5.3-2.4-6.3-5.8
		c0.1-1.7-0.1-3.1-0.7-4.3c0.2-1.5,0.2-2.3,0.1-2.3c-0.3,0-0.6,0-0.9,0.3c-6,5.8-12.8,9.7-20.2,11.5c-3.4,0.9-7,1.1-10.8,0.6
		c-5.3-0.3-9.9-2.3-13.9-6.1c-3.2-4.6-4.7-9.8-4.5-15.5c0.2-6.1,2.1-11.3,5.5-15.5c1.9-2.1,4-3.9,6.4-5.2c5.8-3.1,12.2-5,19.2-5.8
		c6.2-0.7,12-1.2,17.5-1.5c0.2,0,0.3-0.1,0.3-0.2c0.2-6.9,0-13-0.5-18.2c0.1-1.7-0.4-2.7-1.5-3.2c-0.2-0.7-0.5-1.2-0.9-1.6
		c-2.6-2.2-5.5-3.2-8.8-3c-0.3,0-0.7,0-1,0c-9.1-0.6-17.9,0.8-26.3,4.3c-0.3,0.1-0.5,0-0.7-0.2c-1.7-2.7-2.8-5.4-3.4-8.1
		c-0.1-0.3,0-0.6,0.3-0.8c7.1-4.2,14.9-6.9,23.6-8c4.9-0.6,9.6-0.6,14,0.1C245.9,281,246.3,281.1,246.6,281.1z M250.7,347.5
		c0.2-5.8,0.2-12.3,0.2-19.2c0-0.2-0.1-0.2-0.2-0.2c-3.6,0.7-7.6,1.2-12,1.5c-0.3,0-0.6,0.1-0.9,0.3c-0.8,0.2-2,0.5-3.6,0.8
		c-3.4,0.6-6.4,1.8-9.2,3.6c-1.9,1-3.3,2.2-4.2,3.8c-1.8,2.8-2.6,6-2.6,9.7c0.1,1.9,0.6,3.7,1.6,5.4c1.2,2.3,3,3.6,5.2,3.8
		c0.3,0,0.6,0.1,1,0.2c0.8,0.3,2,0.4,3.5,0.3c4.4-0.4,8.6-1.5,12.6-3.2c3.4-1.5,6.4-3.3,9.2-5.6c0.2-0.2,0.2-0.3,0-0.4
		C250.8,348.1,250.7,347.8,250.7,347.5z"/>
	<path class="st0" d="M337.9,280.8c5.3,0,10.9,0.8,16.8,2.5c1.5,0.4,3.1,1.1,4.8,2c0.1,2.6,0.1,5.2,0,8c0,2.7-0.4,5.2-1.1,7.5
		c0,0.8-0.1,1.6-0.5,2.2c-0.6,1.3-1.1,2.8-1.3,4.5c0,1.5-0.8,2.3-2.3,2.3c-1.1,0-2,0-2.9,0c-1.7-0.1-3-0.4-4-1.1
		c0-2.6-0.1-5.1-0.3-7.6c0-0.1-0.1,0.4-0.2,1.4c0,0.4-0.1,0.3-0.2-0.5c0.1-1.1,0-1.9-0.2-2.2c-0.6-2.1-0.8-3.9-0.8-5.3
		c0-0.3-0.1-0.6-0.4-0.7c-3.5-1.6-7.5-2.5-11.9-2.7c-0.3,0-0.7-0.1-1-0.2c-2.2-0.7-4.6-0.6-7.3,0.2c-0.3,0.1-0.6,0.2-1,0.2
		c-3.2,0.3-5.8,1.6-7.8,4c-2.4,1.5-3.7,3.7-4,6.7c-0.4,0.3-0.6,0.8-0.8,1.5c-1.4,5.1-2.1,10.2-2.2,15.3c-0.4,4.5-0.4,9,0.1,13.5
		c-0.1,1.9,0.1,3.7,0.5,5.5c0.3,4.9,1.8,8.9,4.7,12c1.4,1.6,2.9,2.9,4.5,3.8c1.7,1.5,3.8,2.4,6.5,2.7c0.8,0.3,1.7,0.4,2.8,0.2
		c4.2,0.4,8.5,0.5,13,0.1c3.3-0.6,6.2-1.4,8.5-2.2c2.3-0.6,4-1.3,5-2c1.2-0.9,2.2-1.2,2.9-1c0.3,0.1,0.5,0.3,0.6,0.7
		c0.1,0.3,0.4,0.7,0.9,1.1c0,0.8,0.1,1.4,0.5,1.9c1.3,1.8,1.7,3.5,1.2,5.1c-1.3,1.4-2.5,2.2-3.7,2.5c-0.3,0.1-0.6,0.2-0.9,0.3
		c-5,2.7-10.6,4.7-16.6,6.1c-0.3,0.1-0.7,0.1-1,0.2c-5.2,0.6-11.2,0.6-18.2,0c-0.3,0-0.7-0.1-1-0.2c-2.1-0.6-4.1-1.2-6.2-1.9
		c-5.4-1.7-9.4-4.6-12.2-8.8c-0.6-0.8-1.2-1.6-1.8-2.2c-0.5-1.9-1.3-3.8-2.5-5.7c-0.9-0.9-1.2-1.5-1.2-1.8c0.1-0.3,0.1-0.6,0-1
		c-0.6-1.9-1.2-4-1.6-6.5c-0.4-1.3-0.5-2.6-0.5-3.8c0-2.5-0.2-4.8-0.6-6.9c-0.6-3.6-0.5-6.5,0.2-8.8c0.1-0.3,0.2-0.6,0.2-1
		c0.1-4.2,0.5-7.9,1.1-11.1c0.6-2.2,1.3-4.4,2-6.5c0.4,0.3,0.7,0.2,1-0.6c1.7-5,4.8-9.7,9.3-13.9c6-4.5,12.3-7.1,19-7.8
		c4.2-0.5,8-0.5,11.3-0.1C337.2,280.8,337.5,280.8,337.9,280.8z"/>
	<path class="st0" d="M494.1,280.3c2.3-0.2,4.5,0.3,6.8,1.4c1.9,0.9,3.1,2.5,3.6,4.8c0.1,0.3,0.1,0.7,0.1,1
		c0.4,22.5,0.4,45.4,0.1,68.7c0,0.3,0.2,0.5,0.5,0.6c4.1,0.7,8.5,1.5,13.3,2.3c1,0.2,1.5,0.8,1.6,1.8c0.2,2.4-0.1,4.2-0.8,5.4
		c-0.2,0.3-0.4,0.5-0.8,0.5c-1.3,0.2-2.9,0.2-4.9,0.2c-12.6,0-25.1-0.1-37.2-0.2c-0.3,0-0.5-0.2-0.6-0.5c-0.6-2-0.7-4-0.4-6.2
		c0-0.3,0.2-0.5,0.5-0.6c3.9-1.2,8.1-2,12.7-2.6c0.7-0.1,1-0.5,1-1.1c-0.2-20.9-0.2-41.2-0.1-61.1c0-0.8-0.4-1.2-1.2-1.2
		c-4.2,0-8.6,0-13,0c-0.4,0-0.7-0.2-0.7-0.6c-0.3-2.4-0.7-4.5-1.1-6.2c-0.2-0.9,0.1-1.5,1-1.8C481.2,282.3,487.7,280.9,494.1,280.3z
		"/>
	<path class="st0" d="M552.1,280.3c2.3-0.2,4.5,0.3,6.7,1.3c2.2,1,3.4,2.6,3.8,4.9c0.2,1.2,0.4,2.3,0.5,3.4c0.1,0.4,0.3,0.5,0.7,0.3
		c6.9-4.8,13.8-7.8,20.8-9.2c5.6-1.1,10.8-1.1,15.8-0.1c0.3,0.1,0.7,0.1,1,0.1c3,0.1,5.9,1.2,8.7,3.3c2.7,2,4.5,4.8,5.6,8.2
		c0.4,3.2,0.7,6.1,0.9,8.6c0,0.3,0.1,0.3,0.2,0c0.2-0.5,0.3-0.4,0.4,0.3c0.1,1.1,0.2,1.8,0.2,2.2c0,1.7,0.1,3.3,0.3,4.8
		c-0.1,15.9-0.1,31.8,0,47.8c-0.2,0.5,0,0.8,0.8,0.9c4.2,0.7,8.2,1.4,11.9,2c0.6,0.1,0.9,0.5,1,1c0.2,1.8,0,3.7-0.7,5.8
		c-0.2,0.6-0.6,1-1.3,1c-12.7,0-25.2,0-37.6-0.1c-0.3,0-0.6-1.1-1.1-3.2c-0.1-0.5-0.2-0.9-0.3-1.1c-1.2-2-0.7-3.2,1.6-3.6
		c3.4-0.7,6.7-1.3,9.8-2c0.2,0,0.2-0.1,0.2-0.3c-0.1-16.5-0.1-32.7,0-48.7c0-1.6-0.2-3-0.5-4.2c-0.4-1.2-0.6-2.6-0.7-4.1
		c0-0.3-0.1-0.7-0.2-1c-1.3-3.1-3.4-4.8-6.4-5.2c-9.9-1.4-19.7,0-29.6,4.2c-0.3,0.1-0.6,0.2-1,0.2c-0.5,0-0.6,0.4-0.4,1.3
		c-0.1,18.9-0.1,37.7,0,56.5c-0.2,0.6,0.1,1,0.8,1.2c4.3,0.9,8.3,1.6,12.1,2.3c0.3,0.1,0.5,0.2,0.6,0.6c0.5,2.1,0.4,4.2-0.1,6.3
		c-0.1,0.3-0.3,0.5-0.6,0.6c-1.3,0.2-3.1,0.4-5.3,0.3c-10.7-0.1-21.3-0.1-32,0c-2.6,0-3.9-0.1-3.9-0.3c-0.3-1.9-0.5-4.1-0.6-6.6
		c0-0.5,0.2-0.8,0.7-0.9c3.9-0.8,7.8-1.6,11.8-2.3c0.7-0.1,1-0.5,1-1.2c-0.2-20.7-0.3-41.2-0.1-61.7c0-0.6-0.3-0.9-0.9-0.9
		c-5.7,0.5-10.2,0.5-13.6,0.1c-0.3,0-0.5-0.2-0.6-0.5c-0.5-2.8-0.8-5.3-0.8-7.5c0-0.2,0.1-0.3,0.2-0.3
		C538.5,282.4,545.2,280.8,552.1,280.3z"/>
	<path class="st0" d="M1016.4,281.6c4.3,0.9,8.7,3.1,13.2,6.5c0.4,1,1.3,2.2,2.9,3.4c0.3,0.2,0.5,0.5,0.7,0.7c2.2,2.8,3.9,6.1,5,9.9
		c0.1,0.3,0.1,0.6,0.1,1c-0.1,0.6,0,1,0.3,1.1c0.3,0.1,0.5,0.3,0.6,0.7c0.1,0.6,0.2,0.4,0.3-0.8c0.4,0.4,0.6,0.9,0.7,1.5
		c0.9,4.3,1.5,9.2,1.8,14.8c-0.1,2.7-0.1,5.3,0,8c-0.2,0.4-0.3,0.7-0.4,0.9c-0.2,3.4-0.6,6.9-1.2,10.3c-0.3-0.2-0.5-0.5-0.6-0.9
		c0-0.3-0.1-0.3-0.2,0c-1.3,6.6-4.2,12.5-8.7,17.4c-1.2,1.3-2.8,3-4.8,5c-6.4,4.8-13.8,7.6-22.2,8.3c-5.1,0.4-10.1,0.3-15-0.2
		c-6.1-0.6-11.4-2.8-15.9-6.6c-2.8-2.3-5-4.8-6.6-7.5c-2.2-4.7-3.7-9.1-4.5-13.2c-0.5-2.4-0.8-4.7-0.8-6.9c0-0.8-0.2-1.3-0.7-1.6
		c0-0.4-0.1-0.8-0.1-1.2c-0.1-4-0.2-7.8-0.2-11.5c0.1-0.8,0.2-1.7,0.3-2.5c0.7,0,0.9-0.6,0.8-1.8c0-0.3,0-0.7,0-1
		c0.7-3.1,1.4-5.8,1.8-8.3c1.4-3.9,3.1-7.5,5.3-10.8c0.2-0.3,0.4-0.5,0.6-0.8c6-7.4,14-12.1,24.1-14.2
		C1000.9,279.7,1008.6,279.8,1016.4,281.6z M978.6,309.8c-0.2-1.1-0.3-1.5-0.4-1.2c-1.8,6.5-2.3,13.8-1.5,21.9
		c0,0.5,0.1,0.2,0.3-1.1c0-0.3,0.1-0.3,0.1,0c0.1,7.1,0.2,10.6,0.4,10.6c0.1,0,0.2-1.6,0.4-4.9c0.2,2.1,0.5,4.2,0.8,6.2
		c0.1,2.9,0.3,4.3,0.6,4.2c0.1,0,0.2-0.3,0.3-0.9c0.4,2,1.1,3.9,2,5.8c2.4,4.8,6.4,7.6,11.8,8.5c5.3,1,10.2,1,14.7-0.1
		c5.7-1.3,9.8-4.7,12.4-9.9c1-1,1.8-2.2,2.2-3.8c2.2-7.9,3-16.3,2.5-25.2c0-0.3-0.1-0.7-0.2-1c-0.2-1.2-0.4-2.4-0.4-3.7
		c0-4.5-0.8-8.5-2.4-12.1c-0.2-0.6-0.5-0.9-1-1c-0.5-0.9-0.9-1.8-1.3-2.8c0.1-0.8-0.3-1.5-1.2-2c-3.4-3.8-7.2-5.8-11.2-6
		c-0.3,0-0.7-0.1-1-0.2c-3.3-1-6.6-1-10-0.2c-0.3,0.1-0.7,0.1-1,0.2c-3.1,0.3-6,1.4-8.8,3.5c-2.5,1.9-4.4,4.4-5.6,7.6
		C980.1,304.6,979.2,307.1,978.6,309.8z"/>
	<path class="st0" d="M1075.4,280.3c2.6-0.2,4.9,0.3,6.8,1.4c1.6,0.8,2.7,2,3.4,3.7c0.1,0.3,0.2,0.6,0.2,1
		c0.4,6.6,0.5,12.5,0.1,17.9c0,0.3,0,0.7,0,1c0.3,22.4,0.4,45.1,0.2,68c-0.1,1.9-0.2,3.8-0.5,5.8c0,0.1-0.1,0.1-0.3,0.1
		c-1,4.4-1.6,9-1.9,13.7c0,0.1-0.1,0.2-0.1,0.2c-1.1,2.7-2.3,5.5-3.4,8.2c-1.9,3.6-4.1,6.7-6.5,9.2c-3.3,3.5-7.6,7-13,10.5
		c-0.6,0.4-1.2,0.3-1.7-0.2c-1.9-2-3.5-3.8-5-5.4c-0.2-0.2-0.3-0.5-0.1-0.8c0.9-1.5,2.1-3.1,3.5-4.6c4.1-4.3,7.3-9.1,9.7-14.5
		c0.1,0.3,0.3,0.3,0.5-0.1c1.8-3.2,2.8-6.9,3.1-10.9c0.1-1.6,0.3-3,0.5-4.2c0.5-2.1,0.4-5.1-0.2-9c-0.2-23.8-0.1-47.5,0.2-71.2
		c0-2.5-0.1-4.6-0.3-6.1c-0.1-0.3-0.3-0.5-0.6-0.5c-4.1-0.2-8.5-0.2-13.2-0.2c-0.3,0-0.6-0.2-0.7-0.5c-0.6-1.5-1-3.8-1.2-6.9
		c0-0.6,0.2-1,0.8-1.1C1062,282.3,1068.6,280.8,1075.4,280.3z"/>
	<path class="st0" d="M1238.9,280.8c7.5,0.1,14.6,1.5,21.4,4.3c0.4,0.2,0.6,0.4,0.6,0.8c0.1,3-0.1,6.2-0.5,9.6c-0.5,1.4-0.7,3-0.8,5
		c-0.4,3.2-1,6-1.7,8.5c-0.1,0.3-0.3,0.6-0.6,0.7c-1.6,0.9-3.2,0.9-4.9,0.1c-0.3-0.1-0.6-0.2-1-0.2c-1.5,0.1-2.6-0.2-3.3-1
		c-0.2-0.3-0.3-0.5-0.3-0.9c0-3.8-0.4-8.3-1.3-13.5c-0.1-0.3-0.2-0.5-0.5-0.6c-3.7-1.5-7.4-2.3-11.3-2.5c-0.3,0-0.7,0-1-0.1
		c-4.7-0.9-9.1-0.3-13.4,1.8c-1.9,1-3.6,2.6-5.1,5c-1.1,0.6-1.6,1.6-1.5,3c-0.1,0.4-0.3,0.8-0.6,1.2c-1.4,2.8-2.2,6-2.4,9.8
		c-0.3,0.6-0.4,1.4-0.3,2.2c-0.5,7-0.5,14.5,0,22.5c0.1,1.9,0.4,3.7,0.9,5.6c0.6,2.7,1.8,5,3.6,7.1c0.4,0.5,0.7,0.7,0.7,0.6
		c3.4,4.3,7.9,6.5,13.7,6.7c0.6,0,0.9,0,0.9,0.1c-0.2,0.3-0.1,0.4,0.2,0.4c3.4,0.1,6.8,0.1,10.1,0c0.3,0,0.4-0.1,0.1-0.3
		c-0.2-0.1-0.1-0.2,0.2-0.2c1.2,0.1,2.1,0.1,2.5-0.2c4.3-0.6,7.8-1.8,10.8-3.5c1.1-0.5,2.5-1,4.1-1.6c0.4-0.2,0.7,0,0.8,0.4
		c0.2,0.9,0.6,1.4,1.2,1.6c0,1.2,0.5,2.7,1.4,4.3c0.8,1.3,0.7,2.2-0.1,2.7c-0.1,0.1-0.2,0.2-0.3,0.3c-1,0.1-1.9,0.7-2.8,1.7
		c-4.8,2.6-9.9,4.5-15.2,5.9c-2.2,0.5-4.6,1-7.2,1.2c-8.6,0.6-16.2-0.3-22.8-2.6c-5.2-1.8-9.5-5.4-13.1-10.7
		c-0.9-2.5-1.9-4.8-3.1-6.9c0-0.1-0.1,0.1-0.2,0.4c-0.2,0-0.2-0.2-0.2-0.5c-0.1-1.6-0.4-3.3-0.9-5.1c-0.2-0.9-0.4-1.1-0.5-0.4
		c-0.1-0.9-0.3-1.8-0.8-2.5c-0.3-3.9-0.6-7.8-1-11.7c-0.3-3.4-0.2-6,0.2-8c0.5-3,0.7-5.9,0.8-8.8c0-0.3,0.1-0.6,0.3-0.9
		c0.2-0.2,0.3-0.6,0.3-1.2c0.3-2.8,1.1-5.2,2.4-7.4c1.4-2.9,2.8-5.5,4.2-7.8c1.3-2,2.8-3.8,4.6-5.4c6.1-5.5,12.8-8.5,20.2-9
		c0.3,0,0.7-0.1,1-0.1c3.6-0.7,7-0.7,10.3,0C1238.2,280.8,1238.5,280.8,1238.9,280.8z"/>
	<path class="st0" d="M359.4,285.3c0.3-0.1,0.5,0,0.5,0.2c0.5,2.3,0.3,4.9-0.5,7.8C359.4,290.5,359.4,287.9,359.4,285.3z"/>
	<path class="st0" d="M885.6,285.3c0.1,1.1,0.2,2.2,0.2,3.2C884.5,287,884.4,285.9,885.6,285.3z"/>
	<path class="st0" d="M872.3,287.3c0.2,5.2-0.8,10.1-3,14.5c0-1.4,0.3-2.8,0.8-4.2c0.9-2.9,1.3-5.6,1.2-8c0-1.1,0.1-1.4,0.4-1
		c0.2,0.3,0.3,0.2,0.3-0.1C872,288,872.1,287.6,872.3,287.3z"/>
	<path class="st0" d="M1029.6,288.1c5.5,4.3,8.8,9.7,9.8,16c-0.1,1.2-0.2,1.4-0.3,0.8c-0.1-0.3-0.2-0.5-0.6-0.7
		c-0.3-0.1-0.4-0.5-0.3-1.1c0-0.3,0-0.7-0.1-1c-1.2-3.8-2.8-7.1-5-9.9c-0.2-0.3-0.4-0.5-0.7-0.7
		C1030.9,290.2,1030,289.1,1029.6,288.1z"/>
	<path class="st0" d="M306.6,288.6c-4.5,4.2-7.6,8.9-9.3,13.9c-0.2,0.7-0.6,0.9-1,0.6c1.5-4.9,4.3-9.2,8.2-13.1
		C305.3,289.2,306,288.8,306.6,288.6z"/>
	<path class="st0" d="M650.2,289.4c0.2-0.1,0.4-0.1,0.7,0c-2.1,2-3.7,4-4.7,6c-0.3,0.7-0.6,0.7-0.8,0.1
		C646.3,293.2,647.9,291.2,650.2,289.4z"/>
	<path class="st0" d="M789.3,289.8c0,21.6,0,43.5,0,65.5c0,0.5-0.1,0.7-0.2,0.7c0.2-3.7,0.2-7.3,0-11c-0.3-12.4-0.3-24.9,0-37.2
		C789.3,301.7,789.3,295.7,789.3,289.8z"/>
	<path class="st0" d="M1172.6,291.1c1,1,1.6,2.2,1.7,3.5C1173.4,293.6,1172.9,292.5,1172.6,291.1z"/>
	<path class="st0" d="M1117.6,291.8c-0.1,1.1-0.8,2-2,2.7C1115.8,293.5,1116.5,292.6,1117.6,291.8z"/>
	<path class="st0" d="M615.6,292.6c1.4,3.1,2,6.8,1.7,11.2c0-0.4-0.1-1.2-0.2-2.2c-0.1-0.7-0.2-0.8-0.4-0.3c-0.1,0.3-0.2,0.3-0.2,0
		C616.3,298.7,616,295.8,615.6,292.6z"/>
	<path class="st0" d="M160.1,293.1c0.2,0.1,0.3,0.3,0.2,0.8c0.4,1.2,0.4,2.6,0,4c-0.2,0.5-0.3,0.6-0.3,0.2
		C160,296.4,160,294.7,160.1,293.1z"/>
	<path class="st0" d="M264.1,293.3c1,1.4,1.7,3.3,2,5.8c0.8,6.8,1.1,12.9,0.8,18.3c-0.3-0.3-0.5-0.8-0.5-1.3c0-4.1,0-8,0-11.8
		c0-0.3-0.1-0.6-0.4-0.8c-0.4-0.4-0.6-1.4-0.6-3C265.4,298.3,265,295.9,264.1,293.3z"/>
	<path class="st0" d="M160.4,293.8c0.7,0.3,1.4,0.3,2.2,0c-0.3,1.3-1,2.7-2.2,4C160.8,296.4,160.8,295,160.4,293.8z"/>
	<path class="st0" d="M1283.9,294.1c0.3,14.3,0.3,28.7,0.2,43.2c-0.1,5.6,0.1,11.5,0.5,17.8c-0.6,0.3-0.9-0.3-0.9-1.8
		C1283.4,333.5,1283.5,313.8,1283.9,294.1z"/>
	<path class="st0" d="M145.3,294.3c0.1,20.4,0.1,40.8,0,61.2c-0.3-19.5-0.4-39.1-0.5-59C144.9,295.4,145,294.7,145.3,294.3z"/>
	<path class="st0" d="M1115.6,294.6c0,1.4-0.6,2.4-1.8,3C1114.3,296.3,1114.9,295.3,1115.6,294.6z"/>
	<path class="st0" d="M316.4,295.3c-1.4,1.8-2.7,4-4,6.7C312.7,299,314,296.8,316.4,295.3z"/>
	<path class="st0" d="M1201.8,295.3c-1.4,2.3-2.8,4.9-4.2,7.8c0.5-2.3,1.4-4.7,2.9-7.1C1200.8,295.6,1201.2,295.4,1201.8,295.3z"/>
	<path class="st0" d="M691.4,295.6c1.3,0.9,1.8,1.9,1.7,3C692.2,297.7,691.7,296.7,691.4,295.6z"/>
	<path class="st0" d="M1260.4,295.6c0.5,1.8,0.2,3.5-0.8,5C1259.7,298.6,1259.9,296.9,1260.4,295.6z"/>
	<path class="st0" d="M645.1,296.1c-0.2,1.9-0.5,2.8-0.9,2.7c-0.1,0-0.2-0.3-0.3-0.7C644,297.4,644.3,296.7,645.1,296.1z"/>
	<path class="st0" d="M708.9,296.1c1.4,2.1,2.3,5,2.8,8.7c0.7,5.3,0.4,10.9-0.9,16.6c-0.3,1.5-0.8,2.6-1.5,3.2
		c0.4-2.2,0.8-4.5,1.2-6.8c1-5.2,1.1-10,0.1-14.3c-0.1-0.3-0.1-0.7-0.1-1c0.1-1.2-0.3-2.6-1.1-4.2
		C708.9,297.7,708.8,296.9,708.9,296.1z"/>
	<path class="st0" d="M660.6,296.6c0.2,1-0.2,1.9-1.2,2.8C659.4,298.4,659.8,297.5,660.6,296.6z"/>
	<path class="st0" d="M1018.6,297.3c0.9,0.5,1.3,1.1,1.2,2C1019,298.8,1018.6,298.1,1018.6,297.3z"/>
	<path class="st0" d="M1113.6,297.8c0.1,1.4-0.3,2.3-1.2,2.8C1112.6,299.4,1112.9,298.5,1113.6,297.8z"/>
	<path class="st0" d="M1215.4,297.8c-0.2,1.1-0.7,2.1-1.5,3C1213.7,299.4,1214.2,298.4,1215.4,297.8z"/>
	<path class="st0" d="M248.9,298.1c1.1,0.5,1.6,1.5,1.5,3.2C249.7,300.5,249.2,299.4,248.9,298.1z"/>
	<path class="st0" d="M693.9,299c0.3,0.4,0.3,1,0.2,1.8c-0.4-0.5-0.7-1.1-0.8-1.8C693.4,298.5,693.6,298.4,693.9,299z"/>
	<path class="st0" d="M167.4,299c0.8-0.1,0.8,0.2,0.1,0.9c-1.4,1.2-2.6,2.1-3.6,2.6C164.7,300.9,165.9,299.7,167.4,299z"/>
	<path class="st0" d="M563.8,299.1c0.4,14.9,0.4,29.8,0.1,44.7c-0.1,2.7-0.1,5.5-0.2,8.3c0,1.7-0.1,2.9-0.5,3.7
		c-0.1-18.8-0.1-37.6,0-56.5C563.6,299.1,563.8,299,563.8,299.1z"/>
	<path class="st0" d="M346.4,299.8c0.2,0.4,0.3,1.1,0.2,2.2c0.1,0.8,0.2,0.9,0.2,0.5c0.1-1.1,0.2-1.6,0.2-1.4
		c0.2,2.5,0.3,5.1,0.3,7.6c-0.6-0.1-0.9-0.5-0.9-1C346.1,305.1,346.1,302.5,346.4,299.8z"/>
	<path class="st0" d="M901.8,300.1c0,18.4,0.1,36.8,0,55.2c0,0.3,0.1,0.6,0.3,0.9c0.2,0.2,0,0.4-0.5,0.5c-0.1-9.8-0.2-19.7-0.3-29.6
		C901.2,318.1,901.3,309,901.8,300.1z"/>
	<path class="st0" d="M358.3,300.8c0.2,1.5,0.1,3-0.5,4.5c-0.4,1-0.5,2.1-0.6,3.4c0,0.8-0.9,1.3-2.9,1.6c-1.3,0.2-2.3,0-3-0.5
		c0.8,0,1.8-0.1,2.9,0c1.5,0,2.3-0.7,2.3-2.3c0.3-1.7,0.7-3.2,1.3-4.5C358.2,302.4,358.3,301.6,358.3,300.8z"/>
	<path class="st0" d="M869.4,301.8c-0.4,2-1.2,3.9-2.4,5.8c-0.4,0.6-0.8,0.9-1.3,0.9c1.2-1.7,2.1-3.6,2.9-5.6
		C868.8,302.3,869.1,301.9,869.4,301.8z"/>
	<path class="st0" d="M1213.3,302.1c-0.9,3.1-1.5,6.3-2,9.5c-0.2,1.5-0.3,1.5-0.5,0.2C1211.1,308.1,1211.9,304.8,1213.3,302.1z"/>
	<path class="st0" d="M918.3,305.1c-0.3,2.1-0.5,4.2-0.5,6.5c0.1,12.2,0,24.3-0.2,36.2c-0.6-13.5-0.6-27.6,0-42.2
		C917.6,305.4,917.8,305.2,918.3,305.1z"/>
	<path class="st0" d="M1110.8,305.1c-1.6,5.3-2.6,10.4-2.9,15.2c-0.4-5,0.3-10,2.2-15C1110.2,305.1,1110.4,305,1110.8,305.1z"/>
	<path class="st0" d="M641.6,305.3c-0.4,6.4-0.3,11.6,0.2,15.5c-0.6-0.1-0.9-0.8-1-2c-0.3-4.2-0.3-8.4,0-12.5
		C640.9,305.9,641.1,305.6,641.6,305.3z"/>
	<path class="st0" d="M963.1,307.1c-0.5,2.4-1.1,5.2-1.8,8.3c-0.1,0.3-0.1,0.7,0,1c0.2,1.1-0.1,1.7-0.8,1.8
		c0.2-3.4,0.8-6.8,1.9-10.3C962.5,307.2,962.7,307,963.1,307.1z"/>
	<path class="st0" d="M617.6,308.6c0.3,2.4,0.5,4.8,0.5,7.2c-0.1,13.6-0.2,27.1-0.5,40.5C617.6,340.4,617.6,324.5,617.6,308.6z"/>
	<path class="st0" d="M978.2,308.6c0.1-0.3,0.2,0.1,0.4,1.2c-0.5,3.3-0.8,6-1,8.2c-0.7,7.2-0.6,12.8,0.3,17.1
		c-0.2,3.3-0.3,4.9-0.4,4.9c-0.1,0-0.3-3.6-0.4-10.6c0-0.3,0-0.3-0.1,0c-0.2,1.3-0.3,1.7-0.3,1.1
		C975.9,322.4,976.4,315.1,978.2,308.6z"/>
	<path class="st0" d="M294.3,309.6c-0.7,3.2-1,6.9-1.1,11.1c0,0.3-0.1,0.7-0.2,1c-0.7,2.3-0.8,5.2-0.2,8.8c0.3,2.1,0.5,4.4,0.6,6.9
		c-0.1,1.2,0.1,2.4,0.5,3.8c-0.4,0.3-0.7,0.2-0.7-0.2c-0.6-3.9-1.1-7.3-1.3-10.2c-0.2-2.5-0.2-4.9-0.1-7.2c0-0.3,0-0.7,0.1-1
		c0.5-1.8,0.8-4.1,0.8-6.8C292.6,313.5,293.2,311.5,294.3,309.6z"/>
	<path class="st0" d="M1177.4,310.6c0.8,1.4,1,3,0.5,4.8C1177.3,313.9,1177.2,312.4,1177.4,310.6z"/>
	<path class="st0" d="M1210.6,314.1c0,4.7,0,9.5,0,14.5c0,7.8,1.8,14.8,5.3,21.2c0,0.1-0.3-0.1-0.7-0.6c-1.8-2.1-3-4.5-3.6-7.1
		c-0.5-1.8-0.8-3.7-0.9-5.6C1210.1,328.5,1210.1,321,1210.6,314.1z"/>
	<path class="st0" d="M309.3,318.8c0.6,3,0.6,7.5,0.1,13.5C309,327.8,308.9,323.3,309.3,318.8z"/>
	<path class="st0" d="M426.2,320c2.3,3.5,4,6.2,5.2,8.3c-0.1,0.1-0.2,0.2-0.2,0.2c-1.1-1.7-2.1-3-3-4.1c-0.2-0.2-0.4-0.5-0.4-0.9
		c-0.2-0.5-0.6-1-1.2-1.5c-0.7-0.6-1-1.4-1-2.2C425.7,319.5,425.9,319.6,426.2,320z"/>
	<path class="st0" d="M1041.9,320.3c0.8,1.6,1,3.5,0.5,5.5c-0.2,0.8-0.4,1.6-0.5,2.5C1041.8,325.6,1041.8,323,1041.9,320.3z"/>
	<path class="st0" d="M960.1,320.6c0.1,3.7,0.1,7.5,0.2,11.5C959.1,328.3,959,324.5,960.1,320.6z"/>
	<path class="st0" d="M806.6,321.3c0.3,10.4,0.3,20.9,0.2,31.5c0,1.1-0.2,1.8-0.7,2c-0.2-0.8-0.3-1.7-0.3-2.5c0.1-10,0.2-20,0.2-30
		C806.1,321.5,806.3,321.2,806.6,321.3z"/>
	<path class="st0" d="M1193.8,321.3c-0.5,2-0.5,4.6-0.2,8c0.4,3.9,0.7,7.8,1,11.7c-0.8-1.8-1.2-4.4-1-7.7c0-0.3,0-0.7-0.1-1
		c-0.4-1.7-0.7-4-0.6-7C1192.9,323.6,1193.2,322.2,1193.8,321.3z"/>
	<path class="st0" d="M414.1,326.1c0.7,0.5,1.1,1.2,1.2,2C414.3,327.8,413.9,327.2,414.1,326.1z"/>
	<path class="st0" d="M432.1,329.6c1,0.5,1.6,1.5,2,3C432.8,331.7,432.2,330.7,432.1,329.6z"/>
	<path class="st0" d="M417.2,330.5c1.1,2,2.1,3.8,2.9,5.5c-0.2,0-0.3,0-0.5,0c-1.1-1.9-2.1-3.7-3.1-5.5
		C416.5,329.7,416.7,329.7,417.2,330.5z"/>
	<path class="st0" d="M207.6,332.3c-3.4,4.2-5.2,9.4-5.5,15.5c-0.2,5.7,1.3,10.8,4.5,15.5c-1.2-0.5-1.9-1.2-2.1-2.2
		c-0.1-0.3-0.2-0.6-0.4-0.9c-0.9-1-1.5-2.2-1.7-3.6c-1.2-7.4-0.8-13.9,1.2-19.5c0.2-0.5,0.3-0.8,0.4-0.8c0.3,0,0.5-0.1,0.5-0.5
		C204.7,334.5,205.7,333.4,207.6,332.3z"/>
	<path class="st0" d="M434.1,332.6c1.3,0.9,2,1.9,2,3C435,334.7,434.4,333.7,434.1,332.6z"/>
	<path class="st0" d="M960.4,333.3c0.4,0.2,0.6,0.8,0.7,1.6c0,2.2,0.3,4.5,0.8,6.9c-0.2,0-0.3,0-0.5,0
		C960.5,339.3,960.2,336.4,960.4,333.3z"/>
	<path class="st0" d="M419.6,336.1c0.2,0,0.3,0,0.5,0c1.8,2.7,3.3,5.2,4.2,7.5C422.6,341.5,421,339.1,419.6,336.1z"/>
	<path class="st0" d="M1107.9,336.1c0.6,6.3,1.9,12,4,17.2c-1.8-2.5-2.9-5.7-3.4-9.5c0-0.3-0.1-0.7-0.2-1
		C1107.4,340.8,1107.3,338.6,1107.9,336.1z"/>
	<path class="st0" d="M310.3,336.9c0.5,3.4,1.4,6.4,2.6,9.1c0.6,1.4,1.2,2.6,1.6,3.8c-2.8-3.1-4.4-7.1-4.7-12
		C310.1,336.9,310.2,336.6,310.3,336.9z"/>
	<path class="st0" d="M1039.7,338.6c0.1,0.4,0.3,0.7,0.6,0.9c-1.9,8.3-6.2,15.2-12.8,20.9c-0.5,0.5-1,0.6-1.4,0.5c2-2,3.5-3.6,4.8-5
		c4.6-5,7.5-10.8,8.7-17.4C1039.6,338.3,1039.7,338.3,1039.7,338.6z"/>
	<path class="st0" d="M978.6,341.3c0.4,0.7,0.7,1.8,0.9,3.2c-0.1,0.6-0.2,0.9-0.3,0.9C979,345.6,978.8,344.2,978.6,341.3z"/>
	<path class="st0" d="M961.4,341.8c0.2,0,0.3,0,0.5,0c0.8,4.2,2.3,8.6,4.5,13.2C963.3,351.2,961.7,346.8,961.4,341.8z"/>
	<path class="st0" d="M1195.9,344c0.5,1.8,0.8,3.5,0.9,5.1c-0.7-1.9-1.2-3.7-1.4-5.5C1195.5,342.9,1195.7,343.1,1195.9,344z"/>
	<path class="st0" d="M442.4,344.3c1.5,0.5,2.4,1.6,2.7,3.2C443.9,346.6,443,345.5,442.4,344.3z"/>
	<path class="st0" d="M673.6,344.5c-1.1,3.5-1.7,7.2-1.7,11c0,0.3-0.1,0.6-0.4,0.8c-0.1,0.1-0.1,0.2-0.1,0.5
		c-0.4-3.7,0-7.3,1.1-10.8c0.1-0.3,0.1-0.6,0.1-1C672.5,344.4,672.9,344.2,673.6,344.5z"/>
	<path class="st0" d="M661.9,347.3c-0.5,2.1-1.5,4.4-3,6.7C659,351.4,660,349.1,661.9,347.3z"/>
	<path class="st0" d="M1197.3,349.1c1.2,2.1,2.2,4.4,3.1,6.9c-0.4,0.1-0.7-0.1-0.9-0.5c-1-1.8-1.8-3.8-2.4-5.9
		C1197.2,349.2,1197.2,349,1197.3,349.1z"/>
	<path class="st0" d="M296.6,350.3c1.1,1.9,2,3.8,2.5,5.7C297.4,354.2,296.6,352.3,296.6,350.3z"/>
	<path class="st0" d="M354.8,352.3c-1,0.8-2.6,1.5-5,2c-0.4-0.1-0.5-0.2-0.4-0.2C351.2,353.1,353,352.5,354.8,352.3z"/>
	<path class="st0" d="M1254.4,352.8c-2.9,1.7-6.5,2.9-10.8,3.5c0.4-0.4,1-0.7,1.8-1c0.3-0.1,0.6-0.2,1-0.1c0.8-0.1,1.5-0.3,2.1-0.7
		C1250.4,353.5,1252.4,353,1254.4,352.8z"/>
	<path class="st0" d="M359.1,353.1c0.7,1,1.4,2.2,2,3.7c0.6,1.3,0.5,2.4-0.3,3.3c0.5-1.6,0.1-3.2-1.2-5.1
		C359.3,354.5,359.1,353.8,359.1,353.1z"/>
	<path class="st0" d="M1131.9,353.1c1.1,0.3,1.8,0.8,2.2,1.5C1132.7,354.5,1132,354,1131.9,353.1z"/>
	<path class="st0" d="M1260.4,353.3c2,2.2,2.9,4.5,2.7,6.8c0,0.3-0.5,0.4-1.5,0.2c0.9-0.5,0.9-1.4,0.1-2.7
		C1260.9,356,1260.4,354.5,1260.4,353.3z"/>
	<path class="st0" d="M319.1,353.6c1.7,0.4,3.6,0.9,5.6,1.6c0.6,0.2,0.9,0.5,0.9,1C322.9,356,320.8,355.1,319.1,353.6z"/>
	<path class="st0" d="M1112.6,354.3c0.7,0.7,1.2,1.6,1.5,2.7C1113,356.5,1112.5,355.6,1112.6,354.3z"/>
	<path class="st0" d="M266.9,354.8c0.4,1.4,0.7,2,0.9,1.8c0.2-0.2,0.5-0.3,0.9-0.4c5.2-0.3,9.9,0,14.2,0.7c-4.7,0.1-9.2,0.1-13.5,0
		c-0.3,0-0.7,0-1,0.1C266.6,357.5,266.2,356.7,266.9,354.8z"/>
	<path class="st0" d="M341.4,356.6c-4.5,0.4-8.8,0.4-13-0.1C332.7,356.1,337.1,356.2,341.4,356.6z"/>
	<path class="st0" d="M1241.1,356.5c-0.3,0-0.4,0.1-0.2,0.2c0.3,0.2,0.3,0.3-0.1,0.3c-3.4,0.1-6.7,0.1-10.1,0
		c-0.3,0-0.4-0.1-0.2-0.4c0.1-0.1-0.2-0.1-0.9-0.1C1233.4,356.2,1237.3,356.2,1241.1,356.5z"/>
	<path class="st0" d="M657.6,357.3c0,1.8,0.1,3.6,0,5.5c-0.3,0.1-0.6-0.2-0.8-0.9C656.4,360.4,656.6,358.8,657.6,357.3z"/>
	<path class="st0" d="M252.4,359.3c0.6,1.2,0.9,2.6,0.7,4.3c-0.6-0.5-0.9-1.2-0.9-2.2c0-0.3-0.1-0.6-0.3-0.9
		C251.3,359.5,251.5,359.2,252.4,359.3z"/>
	<path class="st0" d="M1261.4,360.6c-0.8,1.1-1.8,1.6-2.8,1.7C1259.4,361.3,1260.3,360.7,1261.4,360.6z"/>
	<path class="st0" d="M719.1,368.6c0.7,0.3,1.3,1.1,1.8,2.4c1.8,4.8,2.6,10.3,2.2,16.3c-0.1,1-0.2,2-0.5,2.8c-0.1,0.3-0.2,0.6-0.2,1
		c-0.2,4.2-1.7,7.7-4.4,10.5c0-0.3,0.2-0.7,0.5-1.2c2.1-2.9,3.1-6.1,3.2-9.6c0-0.3,0.1-0.7,0.1-1c1.1-4.2,1.2-8.3,0.1-12.3
		c-0.3-1-0.4-1.9-0.5-2.8c0-0.3-0.1-0.6-0.2-1C720.5,372.4,719.8,370.7,719.1,368.6z"/>
	<path class="st0" d="M1070.6,371.3c0.6,3.9,0.7,6.9,0.2,9c-0.2,1.3-0.4,2.7-0.5,4.2c-0.2,4.1-1.2,7.7-3.1,10.9
		c-0.2,0.3-0.4,0.4-0.5,0.1c1-2.4,1.8-4.8,2.2-7.3C1070.1,382.7,1070.6,377.1,1070.6,371.3z"/>
	<path class="st0" d="M1086.1,373.3c0.2,7.3-0.7,13.8-2.7,19.5c0.3-4.7,0.9-9.3,1.9-13.7c0.2,0.1,0.3,0,0.3-0.1
		C1085.8,377.1,1086,375.2,1086.1,373.3z"/>
	<path class="st0" d="M650.6,374.3c-1.2,1.5-2.5,3-4,4.4C647.5,376.6,648.8,375.1,650.6,374.3z"/>
	<path class="st0" d="M664.9,374.5c0.5,0.3,0.5,0.5,0.1,0.6c-0.3,0-0.6,0.2-0.8,0.4c-2,2.5-3.9,5.1-5.5,7.5
		C659.7,379.2,661.8,376.3,664.9,374.5z"/>
	<path class="st0" d="M706.9,381.1c0.5,3,0.5,6.7,0.2,11.2c-0.2,3.4-1.2,6-3,7.8c1.8-4.1,2.6-8.2,2.7-12.4c0-0.3-0.1-0.7-0.2-1
		c-0.4-1.2-0.5-2.6-0.3-4.3c0-0.3,0-0.6-0.2-1c-0.4-0.9-0.8-1.9-1.1-3C705.9,378.4,706.5,379.3,706.9,381.1z"/>
	<path class="st0" d="M1083.3,393.1c-0.3,3.5-1.5,6.2-3.4,8.2C1081,398.5,1082.2,395.8,1083.3,393.1z"/>
	<path class="st0" d="M658.4,400.1c1.3,1.6,2.7,3.2,4.2,5C660.5,404.1,659.1,402.5,658.4,400.1z"/>
	<path class="st0" d="M643.4,406.3c1.7,2.3,2.9,4.2,3.7,5.8C644.9,410.3,643.7,408.4,643.4,406.3z"/>
</g>
</svg>
