<?xml version="1.0" encoding="utf-8"?>
<!-- Generator: Adobe Illustrator 27.0.0, SVG Export Plug-In . SVG Version: 6.00 Build 0)  -->
<svg version="1.1" id="Capa_1" xmlns="http://www.w3.org/2000/svg" xmlns:xlink="http://www.w3.org/1999/xlink" x="0px" y="0px"
	 viewBox="0 0 3240.98 616" style="enable-background:new 0 0 3240.98 616;" xml:space="preserve">
<style type="text/css">
	.st0{fill:#68686A;}
	.st1{fill:#CCD9CA;}
	.st2{fill:#AEC5AD;}
	.st3{fill:#007635;}
	.st4{fill:#D3DED1;}
	.st5{fill:#BE0528;}
	.st6{fill:#77A179;}
	.st7{fill:#017636;}
	.st8{fill:#FEFEFE;}
</style>
<g>
	<path class="st0" d="M1536.1,50.36c13.44,0.38,25.92,1.4,37.44,3.06c16.52,2.12,32.39,5.58,47.62,10.38
		c16.05,5.05,30.63,11.88,43.75,20.5c12.95,8.53,23.82,19.07,32.63,31.62c8.08,11.61,13.83,24.52,17.25,38.75
		c2.44,10,3.79,20.07,4.06,30.19c0.41,13.19-0.65,25.71-3.19,37.56c-4.13,18.95-11.92,36.57-23.37,52.88
		c-7.41,10.55-16.37,20.34-26.88,29.37c-18.45,15.57-39.53,27.65-63.25,36.25c-25.15,9.38-51.67,14.53-79.56,15.44
		c-15.09,0.49-30.5-0.09-46.25-1.75c-2.32-0.21-4.17-0.44-5.53-0.68c-0.48-0.15-0.72,0.03-0.72,0.53c0.09,22.6,0.09,44.9,0,66.9
		c-0.37,26.68,0.13,51.1,1.5,73.25c0.54,8.63,1.45,16.38,2.75,23.25c1.1,7.3,3.37,14.12,6.81,20.44c1.98,3.48,4.59,6.22,7.84,8.22
		c0.28,0.18,0.56,0.36,0.86,0.51c5.96,2.89,12.62,4.58,19.99,5.08c13.81,0.93,27.45,2.02,40.94,3.27c0.33,0.03,0.5,0.21,0.5,0.54
		c0.1,5.96,0.1,12.03,0,18.21c0,0.32-0.17,0.48-0.49,0.48c-81.3,0-162.56,0-243.78,0c-0.44,0-0.67-0.22-0.67-0.67
		c-0.03-6.12-0.01-12.13,0.06-18.02c0-0.33,0.17-0.51,0.5-0.54c10.01-0.84,19.99-1.75,29.94-2.72c0.33-0.03,0.67-0.05,1-0.06
		c7.71-0.17,14.95-1.46,21.72-3.89c0.31-0.11,0.62-0.23,0.92-0.37c6.72-3.08,11.5-8.74,14.36-16.98c2.45-7.07,4.12-14.49,5-22.25
		c1.74-14.17,2.64-30.11,2.69-47.81c0.39-93.81,0.41-187.7,0.06-281.69c-0.05-12.49-0.38-24.9-1-37.25c-0.4-13.43-1.9-26.1-4.5-38
		c-0.88-4.02-2.24-7.84-4.06-11.44c-1.64-3.58-3.89-6.66-6.75-9.25c-2.99-2.61-6.56-4.46-10.69-5.56c-3.87-1.07-8.21-1.82-13-2.25
		c-11.83-1.06-23.82-2.07-35.97-3.04c-0.19-0.01-0.28-0.11-0.28-0.3c0-5.77,0-11.67,0-17.68c0-0.42,0.21-0.65,0.64-0.67
		c28.24-1.45,57.19-2.39,86.86-2.81c26.87-0.38,53.79-0.71,80.75-1C1495.11,50.04,1515.61,50.04,1536.1,50.36L1536.1,50.36z
		 M1470.71,321.49c13.19,1.12,27.07,1.66,41.64,1.62c18.56-0.05,36.04-2.99,52.44-8.81c12.6-4.63,23.39-11.5,32.37-20.63
		c10.54-10.74,18.12-23.83,22.75-39.25c4.64-15.97,6.87-32.91,6.69-50.81c-0.18-18.32-3.2-35.55-9.06-51.69
		c-4.24-11.36-9.95-21.4-17.13-30.12c-4.85-6.06-10.56-11.43-17.12-16.13c-10.85-7.76-23-12.86-36.44-15.31
		c-10.1-1.83-20.51-2.25-31.25-1.25c-14.92,1.39-29.91,4.2-44.98,8.45c-0.35,0.1-0.52,0.33-0.52,0.69c0,73.66,0,147.85,0,222.57
		C1470.1,321.23,1470.3,321.45,1470.71,321.49L1470.71,321.49z"/>
	<path class="st0" d="M39.54,51.86c80.71-0.03,160.62-0.01,239.75,0.06c0.33,0,0.5,0.17,0.5,0.5c0.07,5.2,0.09,11.2,0.06,18
		c0,0.43-0.22,0.66-0.63,0.7c-12.9,1.46-25.77,2.88-38.62,4.24c-4.57,0.49-8.8,1.34-12.69,2.56c-7.29,2.43-12.62,7.27-16,14.5
		c-1.89,4.06-3.33,8.37-4.31,12.94c-2,9.6-3.25,20.1-3.75,31.5c-0.82,17.31-1.24,34.73-1.25,52.25c-0.19,83.75-0.19,167.5,0,251.25
		c0.02,9.82,0.19,19.65,0.5,29.5c0.09,13.24,0.84,25.83,2.25,37.75c0.61,5.15,1.44,9.9,2.5,14.25c1.44,7.02,3.87,13.11,7.29,18.27
		c0.18,0.28,0.38,0.55,0.58,0.81c3.79,4.79,9.15,7.95,16.07,9.48c3.91,0.87,8.35,1.52,13.31,1.94c11.56,0.95,22.96,1.96,34.19,3.01
		c0.33,0.04,0.5,0.22,0.5,0.55c0.07,5.2,0.09,11.3,0.06,18.32c-0.01,0.25-0.13,0.37-0.38,0.37c-79.91,0-159.89,0-239.92,0
		c-0.47,0-0.7-0.23-0.7-0.7c0-6.03,0-12.01,0-17.92c0-0.38,0.19-0.58,0.56-0.61c11.53-1.1,23.01-2.1,34.44-3.02
		c4.13-0.33,8.02-0.85,11.69-1.56c4.34-0.8,8.18-2.39,11.5-4.75c4.59-3.2,7.94-7.76,10.06-13.69c2.74-7.78,4.55-16.05,5.44-24.81
		c1.24-11.53,2.01-24.67,2.31-39.44c0.33-15.85,0.5-31.93,0.5-48.25c0.11-72.92,0.11-145.83,0-218.75c-0.02-13.34-0.19-26.67-0.5-40
		c-0.2-17.11-1.28-32.94-3.25-47.5c-0.77-5.69-2.02-11.02-3.75-16c-1.27-3.85-3.02-7.35-5.25-10.5c-2.08-3.12-4.91-5.62-8.5-7.5
		c-3.77-1.96-7.85-3.21-12.25-3.75c-7.72-0.89-15.49-1.79-23.31-2.69c-4.76-0.55-9.57-1.07-14.44-1.56
		c-2.03-0.18-3.6-0.39-4.72-0.64c-0.31-0.11-0.47-0.34-0.47-0.67c-0.07-5.2-0.09-11.12-0.06-17.76
		C38.85,52.09,39.08,51.86,39.54,51.86z"/>
	<path class="st0" d="M473.73,51.86c43.4-0.03,86.34-0.01,128.81,0.06c0.33,0,0.65,0.05,0.97,0.16c3.92,1.28,7.68,3.73,11.28,7.34
		c5.34,5.36,10.3,11.24,14.87,17.63c8.97,12.58,17.3,25.58,25,39c11.77,20.49,23.31,42.2,34.63,65.12
		c12.32,24.8,24.1,49.78,35.31,74.94c25.88,58.05,50.01,116.46,72.39,175.22c0.11,0.31,0.34,0.49,0.67,0.52
		c1.73,0.18,3.03,0.13,3.9-0.15c0.32-0.1,0.54-0.31,0.68-0.61c31.11-71.88,61.4-145.54,90.86-220.98
		c12.23-31.33,23.81-62.49,34.75-93.5c7.52-21.19,14.22-42.67,20.12-64.43c0.05-0.21,0.19-0.32,0.41-0.32c56.81,0,113.62,0,170.42,0
		c0.2,0,0.3,0.1,0.3,0.3c0.03,6.37,0.01,12.5-0.06,18.39c0,0.33-0.17,0.51-0.5,0.55c-12.36,1.09-24.84,2.43-37.44,4.01
		c-6.01,0.76-11.49,2.78-16.44,6.06c-6.67,4.27-11.19,10.58-13.56,18.94c-1.89,6.68-2.72,13.84-2.5,21.5
		c0.52,12.71,1.27,25.37,2.25,38c8.29,109.08,17.87,216.75,28.75,323c0.63,6.13,1.48,12.28,2.56,18.44
		c1.25,8.63,3.07,16.82,5.44,24.56c1.27,4.16,2.96,7.97,5.06,11.44c4.11,7.07,10.02,11.57,17.75,13.5c4.5,1.12,9.56,1.81,15.19,2.06
		c10.35,0.8,20.73,1.72,31.12,2.74c0.42,0.03,0.63,0.26,0.63,0.68c0,6.05,0,12.02,0,17.91c0,0.45-0.22,0.67-0.67,0.67
		c-78.55,0-157.12,0-235.7,0c-0.25,0-0.38-0.13-0.38-0.38c0-6.25,0-12.32,0-18.22c0-0.39,0.19-0.59,0.57-0.63
		c10.91-1.03,21.55-2.04,31.93-3.02c5.77-0.55,10.62-1.11,14.56-1.69c6.65-0.7,12.53-2.83,17.63-6.37c2.5-1.74,4.25-3.91,5.25-6.5
		c1.79-3.68,2.9-7.66,3.31-11.94c0.59-4.95,0.76-10.7,0.5-17.25c-0.86-18-2.02-35.92-3.5-53.75c-2.39-29.55-4.89-59.05-7.5-88.5
		c-5.68-64.02-11.64-127.87-17.89-191.56c-0.03-0.34-0.2-0.58-0.49-0.73c-1.02-0.51-2.29-0.53-3.83-0.05
		c-0.32,0.1-0.54,0.31-0.67,0.62c-27.01,64.8-53.96,129.8-80.87,194.97c-25.01,60.59-48.77,120.92-71.26,180.99
		c-0.25,0.69-0.75,1.08-1.48,1.17c-15.78,1.9-31.81,3.19-48.09,3.89c-0.5,0.02-0.84-0.21-1.01-0.68
		c-24.89-67.55-51.8-134.57-80.72-201.06c-25.23-57.98-52.07-116.08-80.53-174.3c-0.15-0.3-0.38-0.5-0.7-0.61
		c-0.77-0.27-1.87-0.3-3.28-0.1c-0.17,0.02-0.26,0.11-0.27,0.28c-6.78,74.27-12.75,148.24-17.91,221.92
		c-2.34,33.43-4.26,66.02-5.75,97.75c-0.26,6.42-0.34,13.5-0.25,21.25c-0.07,6.92,1.2,13.24,3.81,18.94
		c1.37,2.82,3.45,4.9,6.25,6.25c3.61,1.95,7.51,3.31,11.69,4.06c4.15,0.78,8.9,1.45,14.25,2c13.38,1.38,26.83,2.71,40.37,3.99
		c0.42,0.04,0.63,0.27,0.63,0.69c0,6.05,0,12.01,0,17.9c0,0.45-0.22,0.67-0.67,0.67c-70.55,0-141.22,0-212,0
		c-0.55,0-0.83-0.28-0.83-0.83c0-6.2,0-12.23,0-18.11c0-0.18,0.09-0.27,0.26-0.29c11.08-0.99,22.08-1.99,32.99-3.02
		c4.99-0.47,9.49-1.14,13.5-2c7.98-1.53,14.58-4.93,19.81-10.19c4.47-4.49,7.7-10.01,9.69-16.56c3.7-11.22,6.2-22.97,7.5-35.25
		c12.97-122.63,25.96-245.96,38.96-369.98c0.07-0.67-0.08-1.29-0.45-1.85c-4.2-6.44-8.62-12.58-13.26-18.42
		c-5.08-6.46-10.56-11.74-16.44-15.81c-6.85-4.65-14.54-7.37-23.06-8.19c-9.45-0.9-18.61-1.9-27.5-3c-0.33-0.04-0.5-0.22-0.5-0.56
		c0-5.96,0-12.06,0-18.31C473.35,51.99,473.48,51.86,473.73,51.86L473.73,51.86z"/>
	<path class="st0" d="M1860.48,51.86c79.91,0,159.99,0,240.24,0c0.25,0,0.38,0.13,0.38,0.38c0.03,6.82,0.01,12.93-0.06,18.31
		c0,0.33-0.17,0.52-0.5,0.55c-11.91,1.35-24.06,2.69-36.44,4.01c-4.4,0.47-8.4,1.14-12,2c-7.24,1.58-12.72,5.19-16.44,10.81
		c-3.46,5.24-5.73,11.06-6.81,17.44c-2.19,11.46-3.52,23.71-4,36.75c-0.65,15.19-0.98,31.11-1,47.75c-0.2,84.75-0.2,169.5,0,254.25
		c0.04,15.51,0.45,30.92,1.25,46.25c0.5,11.17,1.75,21.58,3.75,31.25c0.7,3.32,1.62,6.41,2.75,9.25c1.78,5.22,4.59,9.65,8.44,13.31
		c2.88,2.75,6.41,4.65,10.56,5.69c6.84,1.63,14.36,2.69,22.56,3.19c9.04,0.54,18.27,1.33,27.69,2.36c0.17,0.01,0.25,0.1,0.25,0.27
		c0,5.95,0,12.03,0,18.24c0,0.46-0.23,0.69-0.69,0.69c-79.54,0-159.37,0-239.48,0c-0.55,0-0.83-0.28-0.83-0.83
		c0-6.2,0-12.23,0-18.11c0-0.18,0.09-0.27,0.26-0.29c12.51-1,24.92-2.09,37.24-3.27c2.64-0.25,4.97-0.59,7-1
		c6.34-0.9,11.7-3.22,16.06-6.94c3.14-2.68,5.44-5.97,6.88-9.87c3.14-8.15,5.16-16.79,6.06-25.94c1.05-10.27,1.8-21.44,2.25-33.5
		c0.36-13.74,0.53-27.58,0.5-41.5c-0.06-85.33-0.06-170.67,0-256c0.01-14.16-0.41-27.58-1.25-40.25c-0.54-9.18-1.37-17.35-2.5-24.5
		c-0.95-6.21-2.47-12.1-4.56-17.69c-1.43-3.78-3.39-7.07-5.88-9.87c-2.54-3.06-5.67-5.27-9.37-6.63
		c-5.76-2.11-11.82-3.29-18.19-3.54c-0.33-0.01-0.67-0.04-1-0.08c-10.38-1.26-21.18-2.43-32.4-3.5c-0.73-0.07-1.1-0.47-1.1-1.21
		c0-6.07,0-12.02,0-17.85C1860.1,51.99,1860.23,51.86,1860.48,51.86L1860.48,51.86z"/>
</g>
<g>
	<g>
		<path class="st1" d="M2542,20.8c11.75,0.58,23.42,1.91,35.1,3.43c21.13,2.73,42.03,6.68,62.79,11.54
			c20.43,4.76,40.61,10.44,60.57,16.86c22.53,7.24,44.69,15.46,66.51,24.57c1.31,0.54,1.66,1.21,1.73,2.52
			c0.21,4.58,0.61,9.15,0.86,13.75c0.12,2.01-0.02,0.51,2.08,1.07c10.62,2.87,24.22,6.16,34.61,9.78
			c22.3,7.78,41.94,19.36,63.14,29.82c15.76,7.78,31.06,16.35,45.86,25.85c0.63,0.4,1.45,0.63,1.77,1.73
			c-3.62-1.42-7.05-2.83-10.55-4.11c-13.94-5.16-28.35-8.48-42.94-11.07c-13.1-2.34-26.29-3.88-39.56-5.04
			c-7.38-0.65-14.78-1.07-22.16-1.38c-9.41-0.4-18.84-0.56-28.26-0.82c-0.19-0.02-0.37-0.07-0.56-0.09
			c-0.56-7.24-1.14-14.45-1.68-21.69c-0.07-1.12-0.23-1.87-1.59-2.03c-6.77-0.82-13.52-1.82-20.32-2.57
			c-10.06-1.1-20.15-2.03-30.26-2.8c-12.4-0.93-24.82-1.61-37.25-1.89c-15.76-0.35-31.52-0.49-47.29,0.21
			c-5.81,0.26-11.65,0.37-17.47,0.63c-1.05,0.05-2.17-0.02-3.04,0.79c-0.23-0.3-0.47-0.61-0.7-0.91
			c-5.58-12.87-11.19-25.73-16.74-38.62c-0.4-0.91-0.65-1.68-1.89-1.66c-3.53,0.07-7.05-0.3-10.55-0.33
			c-9.36-0.07-18.7-0.3-28.07,0.28c-5.37,0.33-10.79,0.23-16.16,0.58c-2.36,0.16-4.74,0.19-7.1,0.42
			c-6.91,0.65-13.85,1.4-20.76,2.08c-7.22,0.7-14.36,1.8-21.53,2.85c-5.04,0.72-10.04,1.63-15.06,2.45c-0.09-0.35-0.16-0.7-0.3-1.03
			c-3.99-8.59-8.01-17.16-11.98-25.76c-3.85-8.34-7.68-16.67-11.51-25.01c0.16-0.12,0.33-0.33,0.51-0.35
			c12.1-1.75,24.22-3.57,36.43-4.04"/>
		<path class="st2" d="M2531.39,19.89"/>
		<path class="st3" d="M2451.81,25.19c3.83,8.34,7.66,16.67,11.51,25.01c3.97,8.59,7.99,17.16,11.98,25.76
			c0.14,0.33,0.21,0.68,0.3,1.03c-0.42,0.14-0.82,0.3-1.24,0.4c-17.09,3.08-33.95,7.17-50.58,12.24
			c-12.82,3.9-25.5,8.24-37.78,13.66c-0.61,0.19-1.26,0.3-1.84,0.54c-17.21,7.36-33.72,15.97-49.11,26.69
			c-16.84,11.72-31.78,25.43-43.43,42.45c-12.05,17.58-19.29,36.9-21.13,58.19c-0.14,1.63,0.14,3.41-0.72,4.95
			c-3.62-14.62-7.22-29.24-10.86-43.83c-0.07-0.26-0.26-0.47-0.4-0.7c0-4.18,0-8.36,0-12.54c0.58-0.19,0.4-0.68,0.44-1.07
			c0.63-6.87,1.68-13.66,3.32-20.39c7.05-29.19,23.09-52.75,45.44-72.3c18.52-16.18,39.63-28.14,62.21-37.62
			c22.7-9.53,46.26-16.16,70.43-20.71C2444.13,26.17,2447.89,25.14,2451.81,25.19z"/>
		<path class="st1" d="M2869.38,158.08c0.26,0.77-1.19,1.98-1.7,2.36c-17.14,12.73-35.05,24.33-53.33,35.35
			c-16.51,9.95-33.25,19.43-50.23,28.58c-10.58,5.7-21.18,11.35-31.9,16.77c-11.23,5.7-22.44,11.49-33.74,17.02
			c-15.44,7.57-30.94,15.02-46.47,22.39c-13.92,6.59-27.88,13.05-41.87,19.43c-16.88,7.68-33.84,15.2-50.74,22.84
			c-12.19,5.49-24.36,11.02-36.55,16.51c-7.01,3.18-14.03,6.3-21.04,9.46c-0.7,0.33-1.38,0.7-2.55,1.31
			c4.93,0.79,9.32,1.59,13.75,2.22c8.87,1.24,17.77,2.36,26.67,3.55c0.42,0.05,0.82,0.28,1.21,0.42c0,3.53,0,7.05,0,10.58
			c0,4.18-0.26,8.38,0.12,12.52c0.47,5.32,0.33,10.6,0.14,15.93c-0.77-0.19-1.52-0.47-2.29-0.56c-9.13-1.07-18.21-2.45-27.27-3.9
			c-22.32-3.57-44.46-8.15-66.36-13.8c-1.19-0.3-2.17-0.19-3.27,0.37c-13.71,7.01-27.23,14.31-40.35,22.35
			c-0.61,0.37-1.33,0.58-1.59,1.35c-0.65,0.3-1.35,0.51-1.94,0.89c-7.94,4.95-15.69,10.16-23.07,15.88
			c-2.45,1.89-5.23,3.5-7.03,6.19c-0.82,0.02-1.24,0.63-1.8,1.1c-5.23,4.55-10.16,9.39-14.64,14.66
			c-6.66,7.87-12.07,16.46-15.51,26.22c-0.7,2.01-0.47,3.34,1.05,4.97c12.56,13.45,27.69,23.33,43.83,31.8
			c18.14,9.5,37.15,16.91,56.63,23.21c32.81,10.62,66.36,18.1,100.39,23.61c1.77,0.28,3.95-0.21,5.3,1.63c0,1.54,0,3.11,0,4.65
			c-0.02,0.07-0.09,0.14-0.09,0.19c0.05,0.12,0.14,0.23,0.21,0.35c0.21,10.95,0.02,21.88,0.51,32.83
			c-6.28-1.03-12.59-1.96-18.84-3.13c-16.21-3.01-32.32-6.52-48.27-10.69c-22.32-5.88-44.3-12.77-65.57-21.83
			c-14.99-6.4-29.49-13.68-42.9-22.98c-10.84-7.5-20.62-16.11-28.16-27.02c-4.95-7.19-7.87-15.23-9.85-23.73
			c-3.55-15.3-7.47-30.52-11.23-45.77c-0.26-1.03-0.93-1.96-0.84-3.08c0.89-0.33,0.72-1.17,0.82-1.82
			c0.51-3.64,1.38-7.17,2.48-10.67c4.76-15.02,13.73-27.37,24.59-38.48c14.43-14.76,31.24-26.43,48.8-37.08
			c11.91-7.22,24.24-13.68,36.59-20.08c6.61-3.15,13.24-6.33,19.85-9.48c15.25-7.24,30.78-13.89,46.38-20.34
			c18.84-7.8,37.83-15.27,56.88-22.56c3.13-1.19,6.45-1.96,9.27-3.9c0.93,0.35,1.68-0.19,2.48-0.49c7.85-2.94,15.67-5.98,23.54-8.9
			c53.08-19.76,106.51-38.62,159.4-58.89c30.61-11.72,61.02-23.96,90.84-37.6c0.77-0.35,1.98-1,2.2-1.4"/>
		<path class="st4" d="M2269.79,236.08c0.86-1.56,0.58-3.32,0.72-4.95c1.84-21.3,9.08-40.61,21.13-58.19
			c11.68-17.02,26.6-30.71,43.43-42.45c15.37-10.72,31.9-19.34,49.11-26.69c0.58-0.26,1.24-0.37,1.84-0.54
			c0.16,0.61,0.23,1.28,0.51,1.84c7.45,15.11,14.95,30.19,22.39,45.3c0.68,1.35,1.33,1.49,2.69,0.98
			c7.57-2.92,15.13-5.88,22.79-8.55c14.71-5.14,29.66-9.5,44.76-13.33c6.38-1.61,12.82-3.01,19.24-4.53
			c0.05,0.21,0.07,0.44,0.14,0.63c7.08,15.25,14.2,30.47,21.23,45.72c0.56,1.24,1.28,1.03,2.22,0.77
			c20.62-5.65,41.45-10.44,62.42-14.52c15.51-3.04,31.08-5.72,46.73-7.99c5.88-0.84,11.72-1.87,17.63-2.5
			c7.89-0.86,15.76-2.05,23.68-2.71c8.48-0.7,16.95-1.73,25.43-2.5c5.93-0.54,11.86-0.96,17.79-1.28c9.6-0.51,19.19-1.05,28.82-1.28
			c9.5-0.23,19.01-0.07,28.51-0.07c0.19,0.02,0.37,0.05,0.56,0.09c-0.23,5.86,0.7,11.63,1.07,17.44c0.19,2.99,0.4,5.95,0.58,8.94
			c-0.19,0.09-0.37,0.26-0.56,0.28c-11.23,1.63-22.49,3.08-33.7,4.9c-19.97,3.25-39.86,6.96-59.69,11.07
			c-31.34,6.49-62.4,14.08-93.2,22.7c-15.39,4.3-30.68,8.99-45.93,13.8c-1.03-0.23-1.14-1.21-1.49-1.96
			c-6.49-13.94-13.01-27.91-19.43-41.87c-0.72-1.56-1.49-1.84-3.13-1.4c-20.01,5.53-39.84,11.7-59.36,18.77
			c-20.64,7.47-40.84,15.95-60.43,25.87c-5.07,2.57-10.09,5.23-15.11,7.85c-7.64-15.46-15.3-30.92-22.88-46.42
			c-0.82-1.66-1.4-1.8-2.94-0.84c-13.24,8.24-25.71,17.49-36.9,28.37c-11.82,11.47-21.76,24.33-28.82,39.3
			c-5.56,11.77-8.76,24.15-9.95,37.08c-1.77-4.48-2.43-9.25-3.62-13.87C2275.25,258.28,2272.54,247.17,2269.79,236.08z"/>
		<path class="st1" d="M2541.16,395.31c0.16-5.3,0.3-10.6-0.14-15.93c-0.35-4.16-0.09-8.34-0.12-12.52c0-3.53,0-7.05,0-10.58
			c5.04,0.54,10.11,1.12,15.16,1.63c3.78,0.37,7.57,0.72,11.35,0.93c8.8,0.49,17.61,1.28,26.46,1.45c2.99,0.05,6.02,0.16,9.04,0.3
			c7.47,0.35,14.97,0.7,22.44,0.35c7.12-0.35,14.24-0.09,21.37-0.42c6.89-0.33,13.78-0.44,20.67-0.82
			c9.39-0.51,18.77-1.07,28.14-1.75c8.08-0.61,16.16-1.21,24.19-2.17c10.37-1.24,20.78-2.2,31.13-3.69
			c4.95-0.72,9.88-1.7,14.92-1.87c0.28,6.49-0.56,12.94-0.44,19.41c0.02,1.21-0.16,2.43-0.23,3.64c-0.28,5.67-0.37,11.35-0.56,17
			c-0.05,1.14,0.33,1.49,1.52,1.31c3.53-0.58,7.1-1.05,10.65-1.56c12.8-1.8,25.55-3.95,38.25-6.28c12.91-2.41,25.78-5.04,38.58-8.06
			c6.42-1.52,12.91-2.83,19.22-4.81c0.28-0.05,0.56-0.07,0.84-0.14c25.29-6.45,50.21-14.17,74.65-23.35
			c10.02-3.76,19.9-7.94,29.77-12.05c0.05,0.49,0.12,1,0.09,1.49c-0.23,8.1,0.16,16.18-0.35,24.29c-0.4,6.45-0.09,12.91-0.09,19.38
			c-0.23,0.14-0.47,0.33-0.72,0.44c-10.53,4.46-21.27,8.34-32.06,12.07c-23.56,8.17-47.52,14.87-71.76,20.71
			c-0.77,0.19-1.54,0.33-2.1,0.98c-0.86-0.14-1.68,0.02-2.55,0.21c-8.8,1.96-17.61,3.97-26.43,5.74
			c-14.08,2.85-28.23,5.44-42.48,7.45c-7.64,1.07-15.27,2.27-22.91,3.36c-4.46,0.63-8.92,1.17-13.4,1.73
			c-0.79,0.02-1.59-0.05-2.36,0.07c-10.53,1.42-21.11,2.41-31.69,3.29c-12.66,1.07-25.34,1.94-38.04,2.59
			c-10.04,0.51-20.11,0.96-30.17,1.05c-6.61,0.07-13.22,0.58-19.83,0.21c0.16-12.49,0.3-25.01,0.51-37.5
			c0.02-1.52-0.28-2.15-1.99-2.15c-9.41-0.02-18.82,0.12-28.23-0.26c-6.02-0.23-12.05-0.42-18.07-0.65
			c-2.71-0.09-5.44-0.19-8.15-0.4c-6.77-0.54-13.54-1.07-20.32-1.68c-3.62-0.33-7.24-0.77-10.88-1.14
			c-4.27-0.47-8.52-0.91-12.8-1.35L2541.16,395.31z"/>
		<path class="st1" d="M3038.45,157.06c-0.58-0.86-1.33-1.31-2.38-1.63c-14.06-4.27-28.4-7.05-42.92-9.01
			c-8.62-1.17-17.23-1.94-25.9-2.62c-17.75-1.42-41.12-0.75-58.87-0.42c-2.87,0.05-2.87-1.56-4.41-2.99
			c-6.42-5.91-16.07-7.45-23.14-12.54c-1.19-0.86,5.14-5.49,6.82-6.45c25.85-15.04,52.66-27.86,82.01-34.61
			c9.9-2.27,19.9-3.69,30.05-4.32c16.07-1,31.76,0.58,46.94,6.12c4.11,1.49,8.17,3.13,11.89,5.53c-0.89,0.7-0.14,1.49,0.05,2.1
			c3.78,12.54,7.66,25.08,11.47,37.62c0.44,1.47,1.17,2.45,2.45,3.29c14.87,9.62,26.43,22.28,34.7,37.97
			c2.36,4.48,4.06,9.27,6.26,13.85l-0.02-0.05c0,0.56-0.07,1.12,0.63,1.35c1.94,7.85,3.9,15.69,5.84,23.54
			c1.1,4.44,2.22,8.9,3.27,13.36c0.16,0.65,0.56,1.35,0.19,2.08c-0.14-0.14-0.37-0.28-0.42-0.44
			c-6.61-18.91-18.03-34.42-33.65-46.82c-14.66-11.63-31.38-19.36-49.08-25.13C3039.55,156.64,3038.94,156.33,3038.45,157.06z"/>
		<path class="st3" d="M2542.21,218.47c15.25-4.81,30.54-9.5,45.93-13.8c30.8-8.62,61.88-16.21,93.2-22.7
			c19.83-4.11,39.7-7.82,59.69-11.07c11.21-1.82,22.46-3.27,33.7-4.9c0.19-0.02,0.37-0.19,0.56-0.28c8.55-1,17.09-2.08,25.64-2.97
			c8.41-0.86,16.84-1.61,25.29-2.29c5.37-0.44,10.74-0.68,16.11-1c-0.37,1-1.42,1.05-2.2,1.4c-29.82,13.64-60.22,25.87-90.84,37.6
			c-52.89,20.27-106.3,39.14-159.4,58.89c-7.87,2.92-15.69,5.95-23.54,8.9c-0.79,0.3-1.54,0.84-2.48,0.49c0-0.82-0.49-1.49-0.82-2.2
			c-7.08-15.25-14.17-30.5-21.25-45.75C2541.95,218.68,2542.07,218.56,2542.21,218.47z"/>
		<path class="st5" d="M2977.97,335.34c-9.9,4.11-19.76,8.27-29.77,12.05c-24.45,9.18-49.34,16.91-74.65,23.35
			c-0.28,0.07-0.56,0.09-0.84,0.14c0.07-0.56,0.21-1.14,0.23-1.7c0.49-13.94,0.98-27.88,1.47-41.82c6.73-2.03,13.47-4.02,20.2-6.09
			c38.34-11.84,75.52-26.46,110.52-46.26c13.03-7.38,25.57-15.53,37.46-24.66c0.63-0.47,1.17-1.05,1.75-1.56
			c1.24,0.09,1.75,1.17,2.52,1.89c8.29,7.78,16.42,15.76,24.22,24.05c0.42,0.44,1.07,0.79,0.89,1.59
			c-20.9,19.5-44.79,34.58-70.1,47.59C2993.99,327.9,2985.91,331.51,2977.97,335.34z"/>
		<path class="st6" d="M2874.38,327.36c-0.49,13.94-0.98,27.88-1.47,41.82c-0.02,0.56-0.14,1.14-0.23,1.7
			c-6.3,1.98-12.8,3.29-19.22,4.81c-12.8,2.99-25.66,5.65-38.58,8.06c-12.7,2.36-25.45,4.51-38.25,6.28
			c-3.55,0.49-7.1,0.96-10.65,1.56c-1.19,0.21-1.56-0.16-1.52-1.31c0.19-5.67,0.3-11.35,0.56-17c0.07-1.21,0.26-2.43,0.23-3.64
			c-0.12-6.47,0.72-12.94,0.44-19.41c3.85-1.12,7.82-1.42,11.77-2.05c13.78-2.22,27.53-4.72,41.19-7.54
			c17.3-3.6,34.51-7.64,51.54-12.33C2871.58,327.9,2872.91,327.26,2874.38,327.36z"/>
		<path class="st6" d="M3038.45,157.06c0.51-0.72-2.41-1.56-1.77-1.35c22.3,7.1,37.92,14.64,52.59,26.27
			c15.65,12.4,27.06,27.88,33.65,46.82c0.07,0.19,0.28,0.3,0.42,0.44c2.22,6.23,3.32,12.73,4.86,19.12
			c1.94,8.01,3.76,16.04,5.63,24.05c-1.66-1.68-2.01-4.04-2.92-6.09c-4.72-10.6-11.09-20.11-18.59-28.89
			c-4.25-4.97-8.69-9.78-13.64-14.08c-0.42-0.37-0.89-0.68-1.35-1.03c-14.9-13.71-38.16-28.28-45.11-30.96
			c2.08,5.23,4.11,10.27,6.09,15.34c2.26,5.74,4.48,11.51,6.73,17.28c-10.51-7.66-21.27-14.94-32.44-21.69
			c-16.32-9.85-33.14-18.75-50.58-26.5c-13.29-5.91-26.78-11.21-40.61-15.6c-5.32-1.68-14.03-3.48-19.55-4.48
			c-1.98-1.84-2.97-3.71-5.46-6.02c3.43,0.35,8.62,0.54,11.4,0.91c40.7,5.44,79.37,17.47,116.08,35.77
			c2.38,1.19,4.76,2.36,7.12,3.55c0.09,0.07,0.26,0.26,0.28,0.23c0.26-0.19,0.12-0.33-0.07-0.44c-2.87-7.33-5.77-14.69-8.64-22.02
			C3041.23,164.13,3039.83,160.58,3038.45,157.06z"/>
		<path class="st7" d="M3113.43,188.95c-2.2-4.55-3.9-9.34-6.26-13.85c-8.27-15.69-19.83-28.35-34.7-37.97
			c-1.31-0.84-2.01-1.82-2.45-3.29c-3.78-12.54-7.66-25.08-11.47-37.62c-0.19-0.63-0.93-1.4-0.05-2.1
			c16.56,8.94,28.75,22.16,37.55,38.65c5.58,10.44,9.22,21.55,11.77,33.07c1.54,6.98,3.5,13.87,5.28,20.81
			C3113.31,187.41,3113.64,188.16,3113.43,188.95z"/>
		<path class="st7" d="M3114.04,190.26c-0.7-0.21-0.65-0.79-0.63-1.35C3114.13,189.12,3113.67,189.89,3114.04,190.26z"/>
		<polygon class="st2" points="2917.72,162.01 2917.68,161.89 2917.79,161.91 		"/>
		<path class="st1" d="M2759.26,556.27l0.02-0.05c-6.23,0.49-12.47,1.05-18.7,1.45c-15.93,1.03-31.87,1.75-47.85,2.12
			c-16.25,0.37-32.53,0.44-48.8,0.09c-1.49-0.02-3.04,0.26-4.48-0.42c0.14-12.03,0.23-24.05,0.49-36.08
			c0.05-2.31-0.21-3.62-2.97-3.46c-1.1,0.07-2.29-0.12-3.43-0.16c-5.67-0.19-11.37-0.23-17.02-0.58c-2.57-0.16-5.16-0.23-7.73-0.44
			c-6.8-0.51-13.59-1.1-20.36-1.68c-4.93-0.42-9.85-0.82-14.78-1.38c-6.84-0.77-13.66-1.59-20.46-2.55
			c-3.53-0.49-7.12-0.72-10.58-1.68c-0.16-12.82-0.33-25.64-0.47-38.46l0.02-0.12c1.42,0.19,2.85,0.37,4.27,0.58
			c13.99,2.08,28.07,3.41,42.17,4.62c13.31,1.14,26.67,1.89,40.02,2.12c14.31,0.26,28.63,0.35,42.97-0.19
			c8.55-0.33,17.09-0.49,25.64-0.89c9.83-0.44,19.66-1.05,29.47-1.75c11.75-0.82,23.49-1.84,35.19-3.13
			c1.77-0.16,3.57-0.28,5.35-0.51c7.8-0.96,15.62-1.94,23.42-2.97c7.59-1,15.18-1.98,22.74-3.22c1.89-0.3,2.08,0.26,2.05,1.77
			c-0.19,8.78-0.28,17.54-0.47,26.32c-0.09,4.39,0.37,8.78-0.4,13.12c-3.29,0.75-6.66,1.03-9.99,1.49
			c-9.08,1.31-18.21,2.31-27.32,3.29c-4.93,0.54-9.85,0.93-14.78,1.42c-1.21,0.12-1.99,0.42-2.12,2.01
			c-0.33,3.46-0.16,6.89-0.3,10.34C2759.77,537.06,2759.17,546.65,2759.26,556.27z"/>
		<path class="st6" d="M2542.21,218.47c-0.14,0.09-0.26,0.21-0.4,0.3c-8.73,2.64-17.35,5.65-25.97,8.69
			c-31.78,11.19-62.96,23.77-93.06,38.95c-5.14,2.59-10.34,5-15.16,8.17c-1.33-0.09-2.29,0.77-3.34,1.35
			c-8.48,4.72-16.79,9.67-24.94,14.94c-19.76,12.77-38.18,27.13-53.33,45.33c-6.8,8.15-12.45,17.02-16.65,26.83
			c-1.84,4.3-2.97,8.78-4.48,13.17c-1.59-4.06-2.29-8.38-3.36-12.59c-2.69-10.41-5.21-20.88-7.78-31.31
			c-0.16-0.63-0.19-1.26-0.28-1.91c0.61-4.79,1.63-9.48,3.01-14.1c5.63-18.8,16.49-34.4,29.98-48.27
			c12.73-13.05,27.2-23.94,42.62-33.6c4.69-2.94,9.43-5.77,14.15-8.64c5.04-2.62,10.04-5.3,15.11-7.85
			c19.59-9.9,39.79-18.4,60.43-25.87c19.52-7.08,39.35-13.24,59.36-18.77c1.66-0.47,2.41-0.16,3.13,1.4
			c6.42,13.99,12.94,27.93,19.43,41.87C2541.06,217.26,2541.18,218.24,2542.21,218.47z"/>
		<path class="st7" d="M2639.47,559.5c1.45,0.65,2.99,0.37,4.48,0.42c16.28,0.35,32.55,0.28,48.8-0.09
			c15.95-0.37,31.9-1.1,47.85-2.12c6.23-0.4,12.47-0.96,18.7-1.45c-0.44,13.08-0.91,26.15-1.28,39.23
			c-0.05,1.33-0.42,1.66-1.68,1.73c-14.99,1-30.01,1.73-45.02,2.17c-14.73,0.42-29.49,0.86-44.23,0.7
			c-16.02-0.19-32.04-0.79-48.06-1.96c-13.05-0.96-26.08-2.1-39.07-3.64c-12.05-1.42-24.1-2.94-36.03-5.11
			c-0.49-10.93-0.33-21.88-0.51-32.83c0.02-0.07,0.07-0.14,0.05-0.19c-0.05-0.12-0.12-0.23-0.16-0.35c0-1.54,0-3.11,0-4.65
			c1-0.98,2.15-0.44,3.25-0.3c3.62,0.49,7.22,1.05,10.84,1.54c6.09,0.82,12.19,1.7,18.31,2.29c6.26,0.61,12.49,1.49,18.77,2.01
			c6.28,0.51,12.56,1.07,18.87,1.42C2622,558.77,2630.71,559.64,2639.47,559.5z"/>
		<path class="st3" d="M2304.89,376.16c1.52-4.39,2.64-8.87,4.48-13.17c4.2-9.78,9.85-18.66,16.65-26.83
			c15.13-18.21,33.56-32.55,53.33-45.33c8.15-5.28,16.49-10.2,24.94-14.94c1.05-0.58,2.01-1.42,3.34-1.35
			c0.14,0.33,0.28,0.65,0.42,0.98c7.82,15.81,15.65,31.62,23.44,47.45c-12.38,6.4-24.68,12.87-36.59,20.08
			c-17.56,10.65-34.37,22.32-48.8,37.08c-10.86,11.12-19.83,23.47-24.59,38.48c-1.1,3.48-1.98,7.03-2.48,10.67
			c-0.09,0.63,0.09,1.49-0.82,1.82c-2.69-10.86-5.35-21.72-8.03-32.58c-1.73-6.96-3.48-13.92-5.18-20.88
			C2304.89,377.17,2304.91,376.65,2304.89,376.16z"/>
		<path class="st5" d="M2383.23,225.73c-4.72,2.87-9.48,5.72-14.15,8.64c-15.41,9.67-29.89,20.53-42.62,33.6
			c-13.52,13.87-24.36,29.47-29.98,48.27c-1.38,4.62-2.41,9.32-3.01,14.1c-2.03-6.42-3.36-13.03-5.04-19.55
			c-2.17-8.41-4.2-16.84-6.28-25.27c-0.19-0.77-0.3-1.54-0.44-2.31c1.19-12.94,4.39-25.31,9.95-37.08
			c7.08-14.97,17.02-27.84,28.82-39.3c11.21-10.88,23.68-20.11,36.9-28.37c1.56-0.98,2.15-0.82,2.94,0.84
			C2367.91,194.82,2375.59,210.27,2383.23,225.73z"/>
		<path class="st5" d="M2865.95,543.13c0.28-0.93,1.14-0.75,1.77-0.86c21.13-3.88,42.13-8.38,62.96-13.73
			c14.57-3.74,29-7.92,43.36-12.42c0.4-0.12,0.82-0.19,1.14-0.26c0,5.6,0.02,11.14,0,16.65c-0.05,6.7-0.14,13.38-0.26,20.08
			c-0.05,2.45-0.19,4.88-0.3,7.33c-36.17,10.74-72.95,18.82-110.5,25.01C2864.74,570.98,2865.34,557.04,2865.95,543.13z"/>
		<path class="st6" d="M2759.26,556.27c-0.09-9.62,0.49-19.24,0.84-28.86c0.12-3.43-0.02-6.89,0.3-10.34
			c0.14-1.59,0.93-1.89,2.12-2.01c4.93-0.47,9.85-0.89,14.78-1.42c9.13-0.98,18.24-1.98,27.32-3.29c3.34-0.49,6.7-0.75,9.99-1.49
			c0.72-0.02,1.45,0,2.15-0.12c16.93-2.52,33.81-5.32,50.6-8.64c-0.58,14.31-1.17,28.63-1.75,42.97
			c-5.42,0.16-10.65,1.59-15.97,2.41c-14.92,2.31-29.87,4.51-44.86,6.3c-13.36,1.61-26.74,2.87-40.14,4.16
			C2762.85,556.11,2761.06,556.18,2759.26,556.27z"/>
		<path class="st6" d="M2871,414.74c0.56-0.65,1.33-0.79,2.1-0.98c24.24-5.84,48.2-12.56,71.76-20.71
			c10.79-3.74,21.53-7.64,32.06-12.07c0.26-0.12,0.49-0.28,0.72-0.44c0.47-0.14,0.98-0.26,1.42-0.44
			c19.43-8.03,38.32-17.14,56.46-27.81c13.85-8.15,26.97-17.37,39.35-27.6c0.07,4.16,0.44,8.29,0.61,12.45
			c0.12,3.36,0.16,6.73,0.37,10.09c0.58,8.78,1,17.56,1.21,26.36c-0.82-0.07-1.28,0.61-1.82,1.03
			c-20.06,15.06-41.89,27.04-64.61,37.5c-10.58,4.88-21.3,9.39-32.2,13.47c-0.89,0.33-1.61,0.65-1.61,1.91
			c-0.12,14.45-0.3,28.91-0.49,43.36c-9.32,3.62-18.87,6.49-28.42,9.39c-17.05,5.16-34.23,9.74-51.61,13.64
			c-9.04,2.03-18.1,3.92-27.13,5.86c-0.49,0.09-1,0.07-1.49,0.09C2868.75,471.48,2869.88,443.11,2871,414.74z"/>
		<path class="st8" d="M2871,414.74c-1.12,28.37-2.24,56.74-3.36,85.14c-0.16,0.02-0.23,0.09-0.26,0.26
			c-16.79,3.32-33.67,6.12-50.6,8.64c-0.7,0.09-1.42,0.07-2.15,0.12c0.77-4.37,0.3-8.76,0.4-13.12c0.19-8.78,0.28-17.54,0.47-26.32
			c0.02-1.54-0.16-2.08-2.05-1.77c-7.57,1.24-15.16,2.22-22.74,3.22c-7.8,1.03-15.62,1.98-23.42,2.97
			c-1.77,0.21-3.57,0.35-5.35,0.51c0.44-13.68,0.86-27.39,1.31-41.08c4.46-0.58,8.94-1.1,13.4-1.73c7.64-1.1,15.27-2.29,22.91-3.36
			c14.24-2.03,28.37-4.6,42.48-7.45c8.85-1.77,17.63-3.81,26.43-5.74C2869.29,414.74,2870.13,414.6,2871,414.74z"/>
		<path class="st8" d="M3074.85,324.67c-12.38,10.25-25.5,19.45-39.35,27.6c-18.12,10.67-37.01,19.78-56.46,27.81
			c-0.47,0.19-0.96,0.3-1.42,0.44c0-6.47-0.3-12.94,0.09-19.38c0.51-8.1,0.12-16.21,0.35-24.29c0.02-0.49-0.07-1-0.09-1.49
			c7.94-3.83,16.02-7.45,23.87-11.49c25.31-13.01,49.2-28.09,70.1-47.59c1.73,0.49,2.62,1.98,3.69,3.18
			c6.02,6.63,12,13.33,17.91,20.06c0.96,1.1,2.2,2.08,2.57,3.62c-1.96,2.27-3.9,4.58-5.93,6.8
			C3085.39,315.17,3080.06,319.86,3074.85,324.67z"/>
		<path class="st8" d="M2976.31,470.85c0.16-14.45,0.35-28.91,0.49-43.36c0-1.26,0.72-1.59,1.61-1.91
			c10.91-4.09,21.62-8.59,32.2-13.47c22.72-10.46,44.55-22.46,64.61-37.5c0.54-0.42,1-1.07,1.82-1.03c0.19,4.02,0.4,8.03,0.56,12.05
			c0.54,11.7,1.07,23.4,1.61,35.1c-10.81,7.5-22.11,14.17-33.72,20.39c-16.11,8.66-32.83,15.9-49.81,22.65
			C2989.32,466.28,2982.78,468.49,2976.31,470.85z"/>
		<path class="st7" d="M3079.22,420.72c-0.54-11.7-1.07-23.4-1.61-35.1c-0.19-4.02-0.37-8.03-0.56-12.05
			c-0.23-8.8-0.63-17.58-1.21-26.36c-0.23-3.36-0.26-6.73-0.37-10.09c-0.16-4.16-0.51-8.29-0.61-12.45
			c5.23-4.81,10.55-9.5,15.34-14.76c2.03-2.22,3.95-4.53,5.93-6.8c2.08,1.03,3.11,3.08,4.48,4.76
			c12.19,14.83,23.63,30.24,33.77,46.59c1,1.61,1.21,2.92,0.47,4.74c-4.86,11.68-11.86,21.93-20.18,31.36
			c-9.81,11.14-21.16,20.53-33.14,29.17C3080.83,420.2,3080.27,421.09,3079.22,420.72z"/>
		<path class="st8" d="M3065.07,224c-2.24-5.77-4.46-11.51-6.73-17.28c-1.98-5.07-4.02-10.13-6.09-15.34
			c6.96,2.69,30.22,17.26,45.12,30.96c0.65,4.55,2.45,8.8,3.74,13.19c2.55,8.71,5.28,17.37,7.94,26.06
			c0.07,0.26,0.05,0.56,0.07,0.86l-0.05,0.05c-1.33-0.09-1.56-1.38-2.29-2.12c-12.45-12.8-25.8-24.57-40.19-35.14
			C3066.05,224.82,3065.56,224.4,3065.07,224z"/>
		<path class="st8" d="M3109.09,262.44c0.09,0.16,0.21,0.33,0.3,0.49c0,0-0.09,0.07-0.16,0.12c-0.07-0.19-0.12-0.37-0.19-0.56
			C3109.04,262.49,3109.09,262.44,3109.09,262.44z"/>
		<path class="st8" d="M2498.42,124.95c-6.42,1.49-12.84,2.92-19.24,4.53c-15.11,3.81-30.05,8.2-44.76,13.33
			c-7.66,2.66-15.23,5.63-22.79,8.55c-1.35,0.54-2.03,0.37-2.69-0.98c-7.43-15.11-14.92-30.19-22.39-45.3
			c-0.28-0.56-0.35-1.24-0.51-1.84c12.28-5.42,24.96-9.76,37.78-13.66c16.63-5.04,33.49-9.15,50.58-12.24
			c0.42-0.07,0.82-0.26,1.24-0.4c5.02-0.82,10.04-1.7,15.06-2.45c7.17-1.03,14.31-2.15,21.53-2.85c6.91-0.68,13.82-1.42,20.76-2.08
			c2.36-0.21,4.74-0.26,7.1-0.42c5.37-0.35,10.79-0.26,16.16-0.58c9.36-0.58,18.7-0.35,28.07-0.28c3.5,0.02,7.03,0.4,10.55,0.33
			c1.24-0.02,1.52,0.75,1.89,1.66c5.56,12.89,11.16,25.76,16.74,38.62c-3.5,0.3-7.01,0.68-10.51,0.89
			c-12.73,0.75-25.41,2.1-38.06,3.64c-9.81,1.19-19.57,2.66-29.33,4.23C2523.13,119.67,2510.71,122.03,2498.42,124.95z"/>
		<path class="st5" d="M2498.42,124.95c12.28-2.92,24.71-5.28,37.15-7.29c9.74-1.56,19.52-3.04,29.33-4.23
			c12.66-1.54,25.34-2.9,38.06-3.64c3.5-0.21,7.01-0.58,10.51-0.89c0.23,0.3,0.47,0.61,0.7,0.91c1.31,3.08,2.62,6.16,3.92,9.25
			c4.37,10.16,8.73,20.32,13.08,30.5c-15.65,2.27-31.22,4.95-46.73,7.99c-20.99,4.09-41.8,8.87-62.42,14.52
			c-0.93,0.26-1.63,0.47-2.22-0.77c-7.05-15.25-14.15-30.5-21.23-45.72C2498.49,125.39,2498.47,125.16,2498.42,124.95z"/>
		<path class="st8" d="M2631.2,149.58c-4.37-10.16-8.73-20.32-13.08-30.5c-1.31-3.08-2.62-6.16-3.92-9.25
			c0.86-0.82,2.01-0.75,3.04-0.79c5.81-0.23,11.65-0.37,17.47-0.63c15.76-0.68,31.52-0.54,47.29-0.21
			c12.42,0.26,24.85,0.93,37.25,1.89c10.11,0.77,20.2,1.7,30.26,2.8c6.77,0.75,13.54,1.75,20.32,2.57c1.35,0.16,1.52,0.91,1.59,2.03
			c0.51,7.24,1.12,14.48,1.68,21.69c-9.5,0-19.01-0.14-28.51,0.07c-9.6,0.23-19.22,0.77-28.82,1.28
			c-5.93,0.33-11.86,0.75-17.79,1.28c-8.48,0.77-16.93,1.77-25.43,2.5c-7.92,0.65-15.79,1.84-23.68,2.71
			C2642.92,147.72,2637.06,148.72,2631.2,149.58z"/>
		<path class="st6" d="M2639.47,559.5c-8.76,0.14-17.47-0.72-26.22-1.21c-6.3-0.35-12.59-0.91-18.87-1.42
			c-6.26-0.51-12.52-1.4-18.77-2.01c-6.12-0.58-12.21-1.45-18.31-2.29c-3.62-0.49-7.22-1.05-10.83-1.54c-1.1-0.14-2.24-0.7-3.25,0.3
			c-1.35-1.87-3.53-1.35-5.3-1.63c-34.02-5.51-67.56-12.98-100.39-23.61c-19.48-6.3-38.48-13.71-56.63-23.21
			c-16.14-8.48-31.29-18.33-43.83-31.8c-1.52-1.61-1.75-2.94-1.05-4.97c3.46-9.78,8.87-18.38,15.51-26.22
			c4.48-5.28,9.41-10.13,14.64-14.66c0.54-0.47,0.98-1.07,1.8-1.1c1.68,1.05,3.55,1.77,5.32,2.64
			c15.04,7.24,30.61,13.15,46.42,18.42c7.82,2.62,15.65,5.18,23.66,7.15c0.12,0.09,0.19,0.21,0.19,0.37
			c0.05,6.23,0.42,12.47,0.79,18.68c0.3,5.23,0.37,10.48,0.51,15.72c0.02,0.86,0.16,1.7,0.3,2.55c0.16,1.03,0.56,1.38,1.56,1.63
			c4.88,1.28,9.71,2.8,14.59,4.09c13.03,3.43,26.13,6.47,39.32,9.18c9.41,1.91,18.89,3.62,28.37,5.16
			c4.51,0.72,8.97,1.84,13.57,1.84c3.46,0.96,7.05,1.19,10.58,1.68c6.8,0.96,13.64,1.8,20.46,2.55c4.9,0.56,9.85,0.96,14.78,1.38
			c6.8,0.58,13.57,1.17,20.36,1.68c2.57,0.19,5.16,0.28,7.73,0.44c5.67,0.35,11.35,0.4,17.02,0.58c1.14,0.05,2.34,0.21,3.43,0.16
			c2.76-0.16,3.01,1.14,2.97,3.46C2639.7,535.44,2639.61,547.47,2639.47,559.5z"/>
		<path class="st5" d="M2443.59,452.64c0-0.16-0.07-0.28-0.19-0.37c-0.54-12.21-1.07-24.4-1.56-36.59c-0.05-1.05-0.4-1.56-1.38-1.82
			c-13.66-3.67-27.09-8.08-40.44-12.73c0.26-0.77,0.98-1,1.59-1.35c13.12-8.03,26.64-15.34,40.35-22.35
			c1.1-0.56,2.08-0.68,3.27-0.37c21.9,5.65,44.02,10.23,66.36,13.8c9.06,1.45,18.14,2.85,27.27,3.9c0.77,0.09,1.54,0.37,2.29,0.56
			l0.07-0.05c0.02,4.83,0.05,9.64,0.12,14.48c0.12,8.13,0.3,16.25,0.44,24.38c-0.02,0.79-0.05,1.59-0.05,2.36
			c0.14,12.14,0.3,24.31,0.44,36.45l-0.02,0.12c-0.77-0.14-1.56-0.28-2.34-0.4c-19.17-2.69-38.2-6.14-57.09-10.27
			C2469.58,459.53,2456.55,456.17,2443.59,452.64z"/>
		<path class="st8" d="M2431.5,322.99c-7.82-15.81-15.65-31.62-23.44-47.45c-0.16-0.33-0.28-0.65-0.42-0.98
			c4.81-3.18,10.04-5.58,15.16-8.17c30.1-15.16,61.3-27.76,93.06-38.95c8.62-3.04,17.23-6.02,25.97-8.69
			c7.08,15.25,14.17,30.5,21.25,45.75c0.33,0.7,0.79,1.35,0.82,2.2c-2.83,1.94-6.14,2.71-9.27,3.9
			c-19.05,7.29-38.02,14.76-56.88,22.56c-15.6,6.45-31.13,13.08-46.38,20.34C2444.74,316.66,2438.11,319.82,2431.5,322.99z"/>
		<path class="st8" d="M2400.02,401.13c13.36,4.65,26.78,9.06,40.44,12.73c0.98,0.26,1.33,0.77,1.38,1.82
			c0.49,12.21,1.03,24.4,1.56,36.59c-8.01-1.94-15.83-4.53-23.66-7.15c-15.81-5.28-31.38-11.19-46.42-18.42
			c-1.8-0.86-3.64-1.59-5.32-2.64c1.8-2.66,4.58-4.27,7.03-6.19c7.38-5.72,15.13-10.93,23.07-15.88
			C2398.66,401.64,2399.37,401.43,2400.02,401.13z"/>
		<path class="st6" d="M2543.23,555.99c0.07,0.12,0.14,0.23,0.16,0.35c0.02,0.05-0.02,0.12-0.05,0.19
			c-0.07-0.12-0.16-0.21-0.21-0.35C2543.14,556.13,2543.21,556.04,2543.23,555.99z"/>
		<path class="st6" d="M2542.18,472.93c-0.14-12.14-0.3-24.31-0.44-36.45c0-0.79,0.02-1.59,0.05-2.36c5.7,0.7,11.4,1.47,17.12,2.08
			c18.96,1.98,37.95,3.5,57,4.04c8.41,0.23,16.84,0.47,25.24,0.21c6.61,0.37,13.22-0.14,19.83-0.21
			c10.06-0.09,20.13-0.54,30.17-1.05c12.68-0.65,25.38-1.52,38.04-2.59c10.58-0.89,21.16-1.87,31.69-3.29
			c0.77-0.09,1.59-0.05,2.36-0.07c-0.44,13.68-0.86,27.39-1.31,41.08c-11.7,1.26-23.44,2.29-35.19,3.13
			c-9.83,0.7-19.64,1.28-29.47,1.75c-8.55,0.4-17.09,0.56-25.64,0.89c-14.31,0.54-28.65,0.44-42.97,0.19
			c-13.36-0.26-26.71-0.98-40.02-2.12c-14.08-1.21-28.16-2.52-42.17-4.62C2545.03,473.31,2543.61,473.14,2542.18,472.93z"/>
		<path class="st8" d="M2641.15,440.43c-8.41,0.26-16.84,0.02-25.24-0.21c-19.05-0.54-38.04-2.05-57-4.04
			c-5.72-0.61-11.42-1.38-17.12-2.08c-0.16-8.13-0.33-16.25-0.44-24.38c-0.07-4.83-0.07-9.64-0.12-14.48
			c4.27,0.47,8.52,0.91,12.8,1.38c3.62,0.4,7.24,0.84,10.88,1.14c6.77,0.61,13.54,1.14,20.32,1.68c2.71,0.21,5.44,0.28,8.15,0.4
			c6.02,0.23,12.05,0.42,18.07,0.65c9.41,0.37,18.82,0.23,28.23,0.26c1.7,0,2.01,0.63,1.98,2.15
			C2641.45,415.42,2641.31,427.93,2641.15,440.43z"/>
		<path class="st8" d="M3051.25,189.7c0.19,0.14,0.33,0.28,0.07,0.44c-0.02,0.02-0.19-0.14-0.28-0.23
			C3051.11,189.84,3051.18,189.77,3051.25,189.7z"/>
		<path class="st8" d="M2443.59,452.64c12.98,3.53,25.99,6.89,39.11,9.74c18.91,4.11,37.95,7.57,57.09,10.27
			c0.79,0.12,1.56,0.26,2.34,0.4c0.16,12.82,0.33,25.64,0.47,38.46c-4.6-0.02-9.06-1.12-13.57-1.84
			c-9.48-1.54-18.96-3.25-28.37-5.16c-13.19-2.69-26.32-5.74-39.32-9.18c-4.88-1.28-9.71-2.8-14.59-4.09c-1-0.26-1.4-0.61-1.56-1.63
			c-0.14-0.84-0.28-1.68-0.3-2.55c-0.14-5.23-0.21-10.48-0.51-15.72C2444.01,465.11,2443.64,458.9,2443.59,452.64z"/>
	</g>
	<path class="st8" d="M2758,597.16l106.13-12.24l2.43-42.5c0,0-87.01,13.61-107.79,13.85L2758,597.16z"/>
	<path class="st1" d="M3158.38,427.09c0.89-4.93-0.02-23.8-0.02-23.8c-0.07-2.8-0.58-5.56-0.84-8.34
		c-0.7-7.64-2.06-15.18-3.25-22.74c-1.31-8.27-2.97-16.49-4.46-24.73c-2.78-15.51-6.17-30.89-9.41-46.31
		c-2.03-9.62-3.95-19.26-6.56-28.77c-1.66-1.68-2.01-4.04-2.92-6.09c-4.72-10.6-11.09-20.11-18.59-28.89
		c-4.25-4.97-8.69-9.78-13.64-14.08c-0.42-0.37-0.89-0.68-1.35-1.03c0.65,4.55,2.45,8.8,3.74,13.19c2.55,8.71,5.28,17.37,7.94,26.06
		c0.07,0.26,0.05,0.56,0.07,0.86c0.09,0.16,0.21,0.33,0.3,0.49c0,0-0.09,0.07-0.16,0.12c-0.07-0.19-0.12-0.37-0.19-0.56
		c-1.33-0.09-1.56-1.38-2.29-2.12c-12.45-12.8-25.8-24.57-40.19-35.14c-0.51-0.37-1-0.82-1.49-1.21
		c-10.51-7.66-21.27-14.94-32.44-21.69c-16.32-9.85-33.14-18.75-50.58-26.5c-13.29-5.91-26.78-11.21-40.61-15.6
		c-5.32-1.68-10.65-3.48-16.16-4.48c0.12,0.86,0.82,1.33,1.38,1.87c3.64,3.67,7.31,7.33,10.98,11c0.47,0.44,0.91,0.96,1.45,1.26
		c7.22,4.16,14.36,8.38,21.39,12.87c6.12,3.88,12.12,7.94,18.05,12.12c9.9,6.96,19.62,14.22,29.05,21.81
		c5.53,4.44,11.05,8.92,16.37,13.61c4.13,3.64,8.45,7.1,12.47,10.91c2.64,2.5,5.72,4.6,7.89,7.59c1.24,0.09,1.75,1.17,2.52,1.89
		c8.29,7.78,16.42,15.76,24.22,24.05c0.42,0.44,1.07,0.79,0.89,1.59c1.73,0.49,2.62,1.98,3.69,3.18c6.02,6.63,12,13.33,17.91,20.06
		c0.96,1.1,2.2,2.08,2.57,3.62c2.08,1.03,3.11,3.08,4.48,4.76c12.19,14.83,23.63,30.24,33.77,46.59c1,1.61,1.21,2.92,0.47,4.74
		c-4.86,11.68-11.86,21.93-20.18,31.36c-9.81,11.14-21.16,20.53-33.14,29.17c-0.63,0.47-1.21,1.33-2.24,0.96
		c-10.81,7.5-22.11,14.17-33.72,20.39c-16.11,8.66-32.83,15.9-49.81,22.65c-6.4,2.55-12.94,4.76-19.41,7.12
		c-9.32,3.62-18.87,6.49-28.42,9.39c-17.05,5.16-34.23,9.74-51.61,13.64c-9.04,2.03-18.1,3.92-27.13,5.86
		c-0.49,0.09-1,0.07-1.49,0.09c-0.16,0.02-0.23,0.09-0.26,0.26c-0.58,14.31-1.17,28.63-1.75,42.97c0.12,0.05,0.21,0.07,0.33,0.05
		c0.28-0.93,1.14-0.75,1.77-0.86c21.13-3.88,42.13-8.38,62.96-13.73c14.57-3.74,29-7.92,43.36-12.42c0.4-0.12,0.82-0.19,1.14-0.26
		c0,5.6,0.02,11.14,0,16.65c-0.05,6.7-0.14,13.38-0.26,20.08c-0.05,2.45-0.19,4.88-0.3,7.33c0.35-0.05,0.72-0.07,1.05-0.16
		c13.59-4.18,27.11-8.62,40.42-13.61c19.69-7.36,38.88-15.79,57.42-25.71c14.55-7.78,28.33-16.65,41.05-27.16
		c8.34-6.89,16.04-14.36,22.77-22.84c10.16-12.82,18.1-26.76,20.97-43.13C3158.36,427.23,3158.36,427.16,3158.38,427.09z"/>
	<path class="st8" d="M3051.32,190.14c0,0-9.15-26.92-13.29-33.6c-0.89-1.45-43.88-16.67-133.87-14.24
		c6.8,7.19,14.64,7.38,14.64,7.38S2988.17,156.29,3051.32,190.14z"/>
	<path class="st8" d="M2773.04,139.22l1.68,26.78c0,0,60.55-7.89,92.52-7.29c31.97,0.61,71.85,11.14,71.85,11.14
		s-10.69-3.83-21.41-7.96C2906.96,157.78,2868.15,139.5,2773.04,139.22z"/>
	<path class="st8" d="M2939.77,170.25c4.41,0.63-71.83-46.12-49.44-32.27C2915.48,153.48,2939.77,170.25,2939.77,170.25
		s-173.5-187.79-487.95-145.06c19.9,43.04,23.8,51.79,23.8,51.79s229.9-49.97,442.16,85.68"/>
	<path class="st8" d="M2810.84,128.75"/>
	<path class="st1" d="M2769.84,94.54l-3.53-34.09c0,0-139.06-62.37-314.5-35.28l23.8,51.79C2475.61,76.96,2589,48.03,2769.84,94.54z
		"/>
	<polygon class="st1" points="2770.82,115.86 2769.84,94.54 2720.4,77.59 2701.53,96.74 	"/>
</g>
</svg>
