<?xml version="1.0" encoding="utf-8"?>
<!-- Generator: Adobe Illustrator 27.0.0, SVG Export Plug-In . SVG Version: 6.00 Build 0)  -->
<svg version="1.1" id="Capa_1" xmlns="http://www.w3.org/2000/svg" xmlns:xlink="http://www.w3.org/1999/xlink" x="0px" y="0px"
	 viewBox="0 0 1041 196" style="enable-background:new 0 0 1041 196;" xml:space="preserve">
<style type="text/css">
	.st0{fill:#FFFFFF;}
	.st1{fill:url(#SVGID_1_);}
	.st2{fill:url(#SVGID_00000165220571439748234620000017744801359961804186_);}
</style>
<path d="M203.92,45.94c13.71-0.5,25.09-0.51,34.16-0.04c0.47,0.01,0.71,0.27,0.71,0.74c0.06,25.92,0.11,51.84,0.17,77.76
	c0,0.47,0.24,0.71,0.71,0.71c12.3,0.1,24.71,0.13,37.25,0.09c0.93,0,1.34,0.46,1.2,1.38c-1.12,8-2.29,16.25-3.47,24.78
	c-0.06,0.36-0.26,0.53-0.61,0.53c-22.73,0-46.05,0-69.96,0c-0.47,0-0.7-0.23-0.68-0.7c0.34-35,0.4-69.96,0.17-104.89
	C203.56,46.07,203.67,45.94,203.92,45.94L203.92,45.94z"/>
<path d="M351.72,45.59c0.48-0.01,0.8,0.21,0.94,0.68c10.38,35.97,20.35,71.03,29.95,105.14c0.09,0.31-0.04,0.47-0.37,0.47
	c-11.6,0-23.63,0-36.11,0c-0.46,0-0.73-0.23-0.8-0.68c-0.91-5.51-1.94-11.43-3.09-17.74c-0.09-0.48-0.36-0.71-0.84-0.71
	c-7.03,0.13-13.71,0.3-20.06,0.51c-0.47,0.01-0.75,0.26-0.85,0.73c-1.1,5.69-1.99,11.22-2.69,16.57c-0.11,0.88-0.61,1.32-1.51,1.32
	c-11.76,0-23.44,0-35.04,0c-0.53,0-0.71-0.26-0.57-0.75c10.01-35.14,20.01-70.06,30.02-104.77c0.1-0.36,0.34-0.53,0.71-0.53
	C325.39,45.97,338.82,45.89,351.72,45.59z M331.09,71.64c-2.16,11.86-4.21,23.88-6.15,36.07c-0.09,0.51,0.13,0.77,0.65,0.77
	c3.86,0,7.67,0,11.44,0c0.48,0,0.7-0.24,0.61-0.73c-2.01-12.31-4.07-24.35-6.19-36.11C331.34,70.95,331.22,70.95,331.09,71.64
	L331.09,71.64z"/>
<path d="M417.45,45.75c11.91,0.11,23.96,0.14,36.11,0.1c0.51,0,0.83,0.26,0.9,0.77c4.13,24.62,8.18,49.16,12.16,73.6
	c0.4,2.43,0.87,4.55,1.39,6.32c0.23,0.65,0.38,0.63,0.47-0.04c3.69-27.39,7.44-54.16,11.26-80.32c0.03-0.23,0.17-0.34,0.4-0.34
	c12.28,0.14,23.88,0.06,34.82-0.24c0.65-0.03,0.91,0.28,0.75,0.93c-8.2,34.83-16.45,69.55-24.75,104.15
	c-0.19,0.81-0.71,1.22-1.55,1.22c-14.72,0-29.45,0-44.21,0c-0.56,0-0.91-0.27-1.04-0.81c-8.9-34.74-17.88-69.73-26.97-104.99
	C417.12,45.86,417.21,45.75,417.45,45.75L417.45,45.75z"/>
<path d="M545.61,45.84c16.33,0.16,32.2,0.19,47.6,0.09c0.47,0,0.68,0.24,0.65,0.71c-0.48,6.09-1.54,13.68-3.13,22.76
	c-0.09,0.43-0.33,0.64-0.75,0.64c-10.6,0-21.41,0-32.41,0c-0.38,0-0.57,0.19-0.57,0.57c0,5.31,0,10.43,0,15.37
	c0,0.28,0.14,0.43,0.43,0.43c9.21,0,18.73,0,28.57,0c0.36,0,0.54,0.19,0.54,0.54c0,6.99,0,14.35,0,22.05c0,0.23-0.11,0.36-0.36,0.37
	c-8.57,0.67-17.82,0.7-27.78,0.1c-0.93-0.04-1.39,0.38-1.39,1.31c-0.04,6.19-0.01,11.57,0.07,16.11c0.01,0.47,0.26,0.71,0.73,0.71
	c11.12,0.1,22.67,0.13,34.67,0.09c0.31,0,0.47,0.16,0.47,0.46c0,7.53,0,15.26,0,23.2c0,0.36-0.19,0.54-0.54,0.54
	c-23.6,0-46.96,0-70.09,0c-0.36,0-0.54-0.19-0.54-0.54c0-34.99,0-69.93,0-104.83c0-0.5,0.24-0.75,0.74-0.77
	C530.96,45.75,538.66,45.77,545.61,45.84L545.61,45.84z"/>
<path d="M709.23,45.76c12.88,0.07,25.71,0.1,38.5,0.09c9.22,0,17.74,1.32,25.54,4c11.49,3.71,19.56,10.96,24.2,21.71
	c3.05,7.09,4.63,14.66,4.71,22.69c0.46,10.65-0.83,20.41-3.83,29.26c-1.71,5.05-4.44,9.57-8.18,13.52
	c-7.33,7.52-17.09,12.11-29.26,13.79c-2.85,0.4-6.53,0.75-11.03,1.07c-13.64,0.06-27.2,0.06-40.68,0c-0.64,0-0.95-0.31-0.95-0.95
	c0-35.07,0-69.8,0-104.19C708.23,46.07,708.56,45.75,709.23,45.76z M762.05,121.37c1.61-2.31,2.6-4.98,3.03-8
	c1.45-10.55,1.39-20.38-0.18-29.53c-1.08-6.73-4.1-10.95-9.07-12.64c-3.12-1.01-6.95-1.27-11.52-0.77c-0.57,0.03-0.85,0.33-0.85,0.9
	c0,18.6,0,36.96,0,55.1c0,0.53,0.27,0.81,0.8,0.85c4.57,0.31,8.37,0,11.39-0.93C758.32,125.52,760.45,123.86,762.05,121.37z"/>
<path d="M949.49,45.84c11.8-0.14,22.56,2.38,32.3,7.56c9.95,5.44,16.25,14.19,18.95,26.25c3.46,13.34,3.32,26.6-0.44,39.77
	c-2.01,7.05-5.15,12.81-9.44,17.25c-3.02,3.43-6.63,6.33-10.85,8.73c-9.2,4.4-19.24,6.56-30.16,6.49c-13.28-0.09-26.74-0.09-40.38,0
	c-0.36,0-0.54-0.19-0.54-0.54c0-34.99,0-69.93,0-104.83c0-0.51,0.26-0.77,0.77-0.75C922.7,45.99,935.97,46.02,949.49,45.84z
	 M962.39,121.72c1.51-2.16,2.52-4.6,3.03-7.29c2.36-12.34,2.15-23.59-0.63-33.72c-1.68-6.38-5.62-9.79-11.83-10.23
	c-2.53-0.23-5.27-0.28-8.2-0.19c-0.41-0.01-0.61,0.19-0.61,0.6c0,18.4,0,37.05,0,55.91c0,0.3,0.14,0.46,0.44,0.47
	c4.48,0.38,8.21,0.13,11.22-0.74C958.84,125.64,961.03,124.04,962.39,121.72z"/>
<path d="M607,45.84c14.7,0.03,29.24,0.03,43.58,0c6.99-0.01,13.75,0.83,20.28,2.49c5.01,1.3,9.39,3.43,13.17,6.41
	c4.5,3.37,7.56,7.91,9.17,13.61c1.91,6.05,2.26,12.16,1.07,18.33c-0.93,4.78-2.65,8.64-5.17,11.56c-2.7,3.5-6.68,7.1-11.9,10.82
	c-0.24,0.16-0.3,0.36-0.14,0.61c8.5,13.96,16.71,27.73,24.64,41.29c0.36,0.61,0.19,0.93-0.53,0.93
	c-12.82,0.04-25.15,0.01-36.98-0.09c-0.47,0-0.81-0.21-1.02-0.64c-5.94-11.22-11.66-22.49-17.21-33.79c-0.7-1.44-1.91-1.79-3.63-1.1
	c-0.43,0.17-0.64,0.5-0.64,0.97c0.04,11.69,0.01,22.97-0.09,33.85c0,0.47-0.24,0.71-0.71,0.71c-10.87,0.1-22.02,0.13-33.43,0.09
	c-0.67,0-1-0.34-1-1c0-34.69,0-69.52,0-104.5C606.46,46.03,606.64,45.84,607,45.84L607,45.84z M657.07,88.28
	c1.85-3.09,2.38-6.76,1.61-11.03c-0.63-3.26-2.49-5.42-5.61-6.49c-3.02-1.04-6.52-1.39-10.49-1.05c-0.6,0.04-0.9,0.36-0.9,0.95
	c0,7.19,0,14.15,0,20.88c0,0.58,0.28,0.88,0.87,0.91c3.23,0.19,6.13,0.07,8.74-0.34C653.93,91.61,655.85,90.34,657.07,88.28z"/>
<path d="M831.68,45.84c13.31,0,26.93,0,40.86,0c0.33,0,0.54,0.16,0.63,0.47c9.92,35.16,19.83,70.1,29.69,104.83
	c0.14,0.5-0.04,0.74-0.56,0.74c-11.96,0-23.87,0-35.73,0c-0.57,0-0.9-0.28-0.98-0.84c-0.85-5.45-1.85-11.19-2.97-17.21
	c-0.11-0.57-0.46-0.85-1.04-0.84c-7.22,0.16-13.81,0.07-19.76-0.23c-0.65-0.03-1.02,0.27-1.11,0.93
	c-0.84,5.75-1.79,11.49-2.89,17.18c-0.13,0.67-0.53,1-1.21,1.01c-12.27,0.04-23.97,0.01-35.09-0.09c-0.51,0-0.7-0.26-0.56-0.75
	c10.38-35.81,20.3-70.64,29.78-104.49C830.88,46.09,831.19,45.84,831.68,45.84L831.68,45.84z M851.31,71.79
	c-2.19,12.4-4.14,24.35-5.88,35.88c-0.07,0.47,0.13,0.71,0.6,0.74c3.74,0.13,7.49,0.13,11.22-0.01c0.47-0.01,0.67-0.26,0.6-0.73
	c-1.81-11.9-3.81-23.86-6.04-35.88C851.63,70.88,851.46,70.88,851.31,71.79z"/>
<path class="st0" d="M119.86,54.51c0.54,0.58,1.12,1.33,1.75,2.25c0.45,2.24,0.98,4.5,1.58,6.77c0.09,0.32,0.15,0.65,0.18,0.98
	c0.59,6.13-1.86,11-7.37,14.6c-0.6,0.4-0.83,0.95-0.68,1.66c1.29,5.97,0.79,12.03-1.5,18.2c-3.25,7.04-8.25,12.21-15,15.5
	c-4.77,2.3-10.02,3.15-15.75,2.54c-8.8-0.93-15.78-5.03-20.94-12.31c-4.29-5.87-6.06-12.6-5.31-20.19
	c0.54-6.04,2.97-11.62,7.29-16.75c4.25-4.34,9.15-7.33,14.71-8.96c3.93-0.99,8.02-1.17,12.25-0.54c6.53,0.98,12.35,4.09,17.46,9.33
	c0.24,0.24,0.52,0.35,0.85,0.33c2.18-0.11,4.24-0.58,6.19-1.41c3.32-1.41,4.99-3.66,5-6.75C120.57,58.18,120.34,56.43,119.86,54.51
	L119.86,54.51z"/>
<linearGradient id="SVGID_1_" gradientUnits="userSpaceOnUse" x1="40.4897" y1="83.2916" x2="127.4689" y2="133.5091" gradientTransform="matrix(1 0 0 -1 0 198)">
	<stop  offset="0" style="stop-color:#A22A20"/>
	<stop  offset="0.2753" style="stop-color:#A42B20"/>
	<stop  offset="0.3745" style="stop-color:#AB2E21"/>
	<stop  offset="0.4449" style="stop-color:#B63221"/>
	<stop  offset="0.5017" style="stop-color:#C73923"/>
	<stop  offset="0.5117" style="stop-color:#CB3B23"/>
	<stop  offset="1" style="stop-color:#EB4924"/>
</linearGradient>
<path class="st1" d="M135.07,85.55c-0.3-0.13-0.47-0.31-0.5-0.54c-1.26-9.17-4.57-17.44-9.94-24.81c-1.06-1.46-2.07-2.6-3.02-3.44
	c0.45,2.24,0.98,4.5,1.58,6.77c0.09,0.32,0.15,0.65,0.18,0.98c0.59,6.13-1.86,11-7.37,14.6c-0.6,0.4-0.83,0.95-0.68,1.66
	c1.29,5.97,0.79,12.03-1.5,18.2c-3.25,7.04-8.25,12.21-15,15.5c0.07,0.04,0.11,0.09,0.13,0.15c-0.02-0.06-0.07-0.11-0.13-0.15
	c-4.77,2.3-10.02,3.15-15.75,2.54c-8.8-0.93-15.78-5.03-20.94-12.31c-4.29-5.87-6.06-12.6-5.31-20.19
	c0.54-6.04,2.97-11.62,7.29-16.75c4.25-4.34,9.15-7.33,14.71-8.96c3.93-0.99,8.02-1.17,12.25-0.54c6.53,0.98,12.35,4.09,17.46,9.33
	c0.24,0.24,0.52,0.35,0.85,0.33c2.18-0.11,4.24-0.58,6.19-1.41c3.32-1.41,4.99-3.66,5-6.75c0-1.58-0.23-3.33-0.71-5.25
	c-3.54-3.42-7.55-6.34-12.04-8.75c-7.77-4.18-16.19-6.18-25.25-6c-6.25,0.14-12.16,1.38-17.75,3.71c-6.04,2.43-11.29,5.77-15.75,10
	c-7.18,6.77-12.33,15.12-15.46,25.04c0.53,0.29,0.74,0.6,0.65,0.94c-0.24,1.25-0.39,2.11-0.44,2.56
	c-1.34,11.89,0.93,22.87,6.81,32.94c4.47,7.52,10.47,13.43,18,17.75c5.78,3.38,12.17,5.55,19.19,6.52
	c5.67,0.56,11.25,0.34,16.75-0.67c6.68-1.6,12.53-4.11,17.54-7.54c6.8-4.63,12.29-10.36,16.46-17.21c4.5-7.69,6.59-16.37,6.25-26.04
	C134.8,87.1,134.88,86.37,135.07,85.55z M66.92,43.44c-0.03-0.02-0.07-0.03-0.12-0.02C66.86,43.41,66.9,43.42,66.92,43.44z
	 M49.89,53.31c0.26-0.23,0.51-0.39,0.77-0.49c0.13-0.05,0.25-0.08,0.38-0.1c-0.12,0.02-0.25,0.05-0.38,0.1
	C50.41,52.92,50.15,53.08,49.89,53.31z M98.94,114.84c-0.05,0.16-0.2,0.37-0.44,0.61C98.75,115.21,98.89,115,98.94,114.84z"/>
<linearGradient id="SVGID_00000011716162786063509610000007281916815607545242_" gradientUnits="userSpaceOnUse" x1="36.3453" y1="73.7098" x2="167.9437" y2="108.9715" gradientTransform="matrix(1 0 0 -1 0 198)">
	<stop  offset="0" style="stop-color:#C64827"/>
	<stop  offset="0.1197" style="stop-color:#C84D27"/>
	<stop  offset="0.2561" style="stop-color:#CF5A26"/>
	<stop  offset="0.3293" style="stop-color:#D46526"/>
	<stop  offset="0.3481" style="stop-color:#D66826"/>
	<stop  offset="0.541" style="stop-color:#E37F22"/>
	<stop  offset="0.6626" style="stop-color:#E88721"/>
	<stop  offset="0.8585" style="stop-color:#F39A1D"/>
	<stop  offset="1" style="stop-color:#F8A21B"/>
</linearGradient>
<path style="fill:url(#SVGID_00000011716162786063509610000007281916815607545242_);" d="M155.51,66.57
	c-2.56-4.73-5.87-9.4-9.94-14.02c-4.96-4.95-10.15-8.97-15.57-12.04c-0.29-0.17-0.58-0.17-0.87-0.01c-0.37,0.2-0.41,0.35-0.1,0.43
	c0.32,0.1,0.59,0.26,0.82,0.5c4.69,4.95,8.28,10.54,10.78,16.77c1.82,4.01,2.46,8.37,1.94,13.06c-0.53,4.8-2.72,9.3-6.54,13.5l0,0
	c-0.27,0.22-0.59,0.48-0.96,0.79c-0.19,0.82-0.27,1.55-0.25,2.21c0.34,9.67-1.75,18.35-6.25,26.04
	c-4.17,6.85-9.66,12.58-16.46,17.21c-5.01,3.43-10.86,5.94-17.54,7.54c-5.5,1.01-11.08,1.23-16.75,0.67
	c-7.02-0.97-13.41-3.14-19.19-6.52c-7.53-4.32-13.53-10.23-18-17.75c-5.88-10.07-8.15-21.05-6.81-32.94
	c0.05-0.45,0.2-1.31,0.44-2.56c0.09-0.34-0.12-0.65-0.65-0.94l0,0c-1.71,5.57-2.72,11.92-3.04,19.04
	c-0.01,17.06,5.51,31.94,16.56,44.65c7.09,8.14,15.75,14.14,26,18c2.07,0.83,4.12,1.43,6.15,1.81c6.91,2.24,14.76,3,23.54,2.29
	c9.65-0.75,18.75-3.57,27.31-8.48c6.3-3.61,11.94-8.21,16.9-13.81c-0.12-0.1-0.16-0.24-0.1-0.44c-0.06,0.2-0.03,0.35,0.1,0.44
	c9.58-10.76,15.01-23.34,16.29-37.75C164.52,90.76,161.91,78.19,155.51,66.57z M79.29,160.83c-0.02-0.17,0.09-0.25,0.34-0.25
	C79.38,160.57,79.27,160.66,79.29,160.83z"/>
</svg>
