<?xml version="1.0" encoding="utf-8"?>
<!-- Generator: Adobe Illustrator 27.0.0, SVG Export Plug-In . SVG Version: 6.00 Build 0)  -->
<svg version="1.1" id="Capa_1" xmlns="http://www.w3.org/2000/svg" xmlns:xlink="http://www.w3.org/1999/xlink" x="0px" y="0px"
	 viewBox="0 0 800 196" style="enable-background:new 0 0 800 196;" xml:space="preserve">
<style type="text/css">
	.st0{fill:#FFFFFF;}
	.st1{fill:url(#SVGID_1_);}
	.st2{fill-opacity:0.998;}
	.st3{fill:url(#SVGID_00000067200419914125017670000008753147260660320415_);}
	.st4{fill-opacity:0;}
</style>
<path d="M219.76,45.83c9.63-0.35,17.63-0.36,24-0.03c0.33,0.01,0.5,0.19,0.5,0.52c0.04,18.21,0.08,36.42,0.12,54.63
	c0,0.33,0.17,0.5,0.5,0.5c8.64,0.07,17.36,0.09,26.17,0.06c0.65,0,0.94,0.32,0.84,0.97c-0.79,5.62-1.61,11.42-2.44,17.41
	c-0.04,0.25-0.18,0.37-0.43,0.37c-15.97,0-32.35,0-49.15,0c-0.33,0-0.49-0.16-0.48-0.49c0.24-24.59,0.28-49.15,0.12-73.69
	C219.51,45.92,219.59,45.83,219.76,45.83L219.76,45.83z"/>
<path d="M323.6,45.58c0.34-0.01,0.56,0.15,0.66,0.48c7.29,25.27,14.3,49.9,21.04,73.87c0.06,0.22-0.03,0.33-0.26,0.33
	c-8.15,0-16.6,0-25.37,0c-0.32,0-0.51-0.16-0.56-0.48c-0.64-3.87-1.36-8.03-2.17-12.46c-0.06-0.34-0.25-0.5-0.59-0.5
	c-4.94,0.09-9.63,0.21-14.09,0.36c-0.33,0.01-0.53,0.18-0.6,0.51c-0.77,4-1.4,7.88-1.89,11.64c-0.08,0.62-0.43,0.93-1.06,0.93
	c-8.26,0-16.47,0-24.62,0c-0.37,0-0.5-0.18-0.4-0.53c7.03-24.69,14.06-49.22,21.09-73.61c0.07-0.25,0.24-0.37,0.5-0.37
	C305.1,45.85,314.54,45.79,323.6,45.58z M309.11,63.88c-1.52,8.33-2.96,16.78-4.32,25.34c-0.06,0.36,0.09,0.54,0.46,0.54
	c2.71,0,5.39,0,8.04,0c0.34,0,0.49-0.17,0.43-0.51c-1.41-8.65-2.86-17.11-4.35-25.37C309.28,63.4,309.2,63.4,309.11,63.88
	L309.11,63.88z"/>
<path d="M369.78,45.69c8.37,0.08,16.83,0.1,25.37,0.07c0.36,0,0.58,0.18,0.63,0.54c2.9,17.3,5.75,34.54,8.54,51.71
	c0.28,1.71,0.61,3.2,0.98,4.44c0.16,0.46,0.27,0.44,0.33-0.03c2.59-19.24,5.23-38.05,7.91-56.43c0.02-0.16,0.12-0.24,0.28-0.24
	c8.63,0.1,16.78,0.04,24.46-0.17c0.46-0.02,0.64,0.2,0.53,0.65c-5.76,24.47-11.56,48.86-17.39,73.17c-0.13,0.57-0.5,0.86-1.09,0.86
	c-10.34,0-20.69,0-31.06,0c-0.39,0-0.64-0.19-0.73-0.57c-6.25-24.41-12.56-48.99-18.95-73.76
	C369.55,45.77,369.61,45.69,369.78,45.69L369.78,45.69z"/>
<path d="M459.82,45.76c11.47,0.11,22.62,0.13,33.44,0.06c0.33,0,0.48,0.17,0.46,0.5c-0.34,4.28-1.08,9.61-2.2,15.99
	c-0.06,0.3-0.23,0.45-0.53,0.45c-7.45,0-15.04,0-22.77,0c-0.27,0-0.4,0.13-0.4,0.4c0,3.73,0,7.33,0,10.8c0,0.2,0.1,0.3,0.3,0.3
	c6.47,0,13.16,0,20.07,0c0.25,0,0.38,0.13,0.38,0.38c0,4.91,0,10.08,0,15.49c0,0.16-0.08,0.25-0.25,0.26
	c-6.02,0.47-12.52,0.49-19.52,0.07c-0.65-0.03-0.98,0.27-0.98,0.92c-0.03,4.35-0.01,8.13,0.05,11.32c0.01,0.33,0.18,0.5,0.51,0.5
	c7.81,0.07,15.93,0.09,24.36,0.06c0.22,0,0.33,0.11,0.33,0.32c0,5.29,0,10.72,0,16.3c0,0.25-0.13,0.38-0.38,0.38
	c-16.58,0-32.99,0-49.24,0c-0.25,0-0.38-0.13-0.38-0.38c0-24.58,0-49.13,0-73.65c0-0.35,0.17-0.53,0.52-0.54
	C449.53,45.69,454.94,45.71,459.82,45.76L459.82,45.76z"/>
<path d="M574.77,45.7c9.05,0.05,18.06,0.07,27.05,0.06c6.48,0,12.46,0.93,17.94,2.81c8.07,2.61,13.74,7.7,17,15.25
	c2.14,4.98,3.25,10.3,3.31,15.94c0.32,7.48-0.58,14.34-2.69,20.56c-1.2,3.55-3.12,6.72-5.75,9.5c-5.15,5.28-12.01,8.51-20.56,9.69
	c-2,0.28-4.59,0.53-7.75,0.75c-9.58,0.04-19.11,0.04-28.58,0c-0.45,0-0.67-0.22-0.67-0.67c0-24.64,0-49.04,0-73.2
	C574.07,45.92,574.3,45.69,574.77,45.7z M611.88,98.82c1.13-1.62,1.83-3.5,2.13-5.62c1.02-7.41,0.98-14.32-0.13-20.75
	c-0.76-4.73-2.88-7.69-6.37-8.88c-2.19-0.71-4.88-0.89-8.09-0.54c-0.4,0.02-0.6,0.23-0.6,0.63c0,13.07,0,25.97,0,38.71
	c0,0.37,0.19,0.57,0.56,0.6c3.21,0.22,5.88,0,8-0.65C609.26,101.74,610.76,100.57,611.88,98.82z"/>
<path d="M743.57,45.76c8.29-0.1,15.85,1.67,22.69,5.31c6.99,3.82,11.42,9.97,13.31,18.44c2.43,9.37,2.33,18.69-0.31,27.94
	c-1.41,4.95-3.62,9-6.63,12.12c-2.12,2.41-4.66,4.45-7.62,6.13c-6.46,3.09-13.52,4.61-21.19,4.56c-9.33-0.06-18.79-0.06-28.37,0
	c-0.25,0-0.38-0.13-0.38-0.38c0-24.58,0-49.13,0-73.65c0-0.36,0.18-0.54,0.54-0.53C724.75,45.86,734.07,45.88,743.57,45.76z
	 M752.63,99.07c1.06-1.52,1.77-3.23,2.13-5.12c1.66-8.67,1.51-16.57-0.44-23.69c-1.18-4.48-3.95-6.88-8.31-7.19
	c-1.78-0.16-3.7-0.2-5.76-0.13c-0.29-0.01-0.43,0.13-0.43,0.42c0,12.93,0,26.03,0,39.28c0,0.21,0.1,0.32,0.31,0.33
	c3.15,0.27,5.77,0.09,7.88-0.52C750.14,101.82,751.68,100.7,752.63,99.07z"/>
<path d="M502.95,45.76c10.33,0.02,20.54,0.02,30.62,0c4.91-0.01,9.66,0.58,14.25,1.75c3.52,0.91,6.6,2.41,9.25,4.5
	c3.16,2.37,5.31,5.56,6.44,9.56c1.34,4.25,1.59,8.54,0.75,12.88c-0.65,3.36-1.86,6.07-3.63,8.12c-1.9,2.46-4.69,4.99-8.36,7.6
	c-0.17,0.11-0.21,0.25-0.1,0.43c5.97,9.81,11.74,19.48,17.31,29.01c0.25,0.43,0.13,0.65-0.37,0.65c-9.01,0.03-17.67,0.01-25.98-0.06
	c-0.33,0-0.57-0.15-0.72-0.45c-4.17-7.88-8.19-15.8-12.09-23.74c-0.49-1.01-1.34-1.26-2.55-0.77c-0.3,0.12-0.45,0.35-0.45,0.68
	c0.03,8.21,0.01,16.14-0.06,23.78c0,0.33-0.17,0.5-0.5,0.5c-7.64,0.07-15.47,0.09-23.49,0.06c-0.47,0-0.7-0.24-0.7-0.7
	c0-24.37,0-48.84,0-73.42C502.57,45.89,502.7,45.76,502.95,45.76L502.95,45.76z M538.13,75.57c1.3-2.17,1.67-4.75,1.13-7.75
	c-0.44-2.29-1.75-3.81-3.94-4.56c-2.12-0.73-4.58-0.98-7.37-0.74c-0.42,0.03-0.63,0.25-0.63,0.67c0,5.05,0,9.94,0,14.67
	c0,0.41,0.2,0.62,0.61,0.64c2.27,0.13,4.31,0.05,6.14-0.24C535.92,77.91,537.27,77.02,538.13,75.57z"/>
<path d="M660.8,45.76c9.35,0,18.92,0,28.71,0c0.23,0,0.38,0.11,0.44,0.33c6.97,24.7,13.93,49.25,20.86,73.65
	c0.1,0.35-0.03,0.52-0.39,0.52c-8.4,0-16.77,0-25.1,0c-0.4,0-0.63-0.2-0.69-0.59c-0.6-3.83-1.3-7.86-2.09-12.09
	c-0.08-0.4-0.32-0.6-0.73-0.59c-5.07,0.11-9.7,0.05-13.88-0.16c-0.46-0.02-0.72,0.19-0.78,0.65c-0.59,4.04-1.26,8.07-2.03,12.07
	c-0.09,0.47-0.37,0.7-0.85,0.71c-8.62,0.03-16.84,0.01-24.65-0.06c-0.36,0-0.49-0.18-0.39-0.53c7.29-25.16,14.26-49.63,20.92-73.41
	C660.24,45.93,660.46,45.76,660.8,45.76L660.8,45.76z M674.59,63.99c-1.54,8.71-2.91,17.11-4.13,25.21
	c-0.05,0.33,0.09,0.5,0.42,0.52c2.63,0.09,5.26,0.09,7.88-0.01c0.33-0.01,0.47-0.18,0.42-0.51c-1.27-8.36-2.68-16.76-4.24-25.21
	C674.82,63.35,674.7,63.35,674.59,63.99z"/>
<path class="st0" d="M119.86,54.51c0.54,0.58,1.12,1.33,1.75,2.25c0.45,2.24,0.98,4.5,1.58,6.77c0.09,0.32,0.15,0.65,0.18,0.98
	c0.59,6.13-1.86,11-7.37,14.6c-0.6,0.4-0.83,0.95-0.68,1.66c1.29,5.97,0.79,12.03-1.5,18.2c-3.25,7.04-8.25,12.21-15,15.5
	c-4.77,2.3-10.02,3.15-15.75,2.54c-8.8-0.93-15.78-5.03-20.94-12.31c-4.29-5.87-6.06-12.6-5.31-20.19
	c0.54-6.04,2.97-11.62,7.29-16.75c4.25-4.34,9.15-7.33,14.71-8.96c3.93-0.99,8.02-1.17,12.25-0.54c6.53,0.98,12.35,4.09,17.46,9.33
	c0.24,0.24,0.52,0.35,0.85,0.33c2.18-0.11,4.24-0.58,6.19-1.41c3.32-1.41,4.99-3.66,5-6.75C120.57,58.18,120.34,56.43,119.86,54.51
	L119.86,54.51z"/>
<linearGradient id="SVGID_1_" gradientUnits="userSpaceOnUse" x1="40.4897" y1="83.2916" x2="127.4689" y2="133.5091" gradientTransform="matrix(1 0 0 -1 0 198)">
	<stop  offset="0" style="stop-color:#A22A20"/>
	<stop  offset="0.2753" style="stop-color:#A42B20"/>
	<stop  offset="0.3745" style="stop-color:#AB2E21"/>
	<stop  offset="0.4449" style="stop-color:#B63221"/>
	<stop  offset="0.5017" style="stop-color:#C73923"/>
	<stop  offset="0.5117" style="stop-color:#CB3B23"/>
	<stop  offset="1" style="stop-color:#EB4924"/>
</linearGradient>
<path class="st1" d="M135.07,85.55c-0.3-0.13-0.47-0.31-0.5-0.54c-1.26-9.17-4.57-17.44-9.94-24.81c-1.06-1.46-2.07-2.6-3.02-3.44
	c0.45,2.24,0.98,4.5,1.58,6.77c0.09,0.32,0.15,0.65,0.18,0.98c0.59,6.13-1.86,11-7.37,14.6c-0.6,0.4-0.83,0.95-0.68,1.66
	c1.29,5.97,0.79,12.03-1.5,18.2c-3.25,7.04-8.25,12.21-15,15.5c0.07,0.04,0.11,0.09,0.13,0.15c-0.02-0.06-0.07-0.11-0.13-0.15
	c-4.77,2.3-10.02,3.15-15.75,2.54c-8.8-0.93-15.78-5.03-20.94-12.31c-4.29-5.87-6.06-12.6-5.31-20.19
	c0.54-6.04,2.97-11.62,7.29-16.75c4.25-4.34,9.15-7.33,14.71-8.96c3.93-0.99,8.02-1.17,12.25-0.54c6.53,0.98,12.35,4.09,17.46,9.33
	c0.24,0.24,0.52,0.35,0.85,0.33c2.18-0.11,4.24-0.58,6.19-1.41c3.32-1.41,4.99-3.66,5-6.75c0-1.58-0.23-3.33-0.71-5.25
	c-3.54-3.42-7.55-6.34-12.04-8.75c-7.77-4.18-16.19-6.18-25.25-6c-6.25,0.14-12.16,1.38-17.75,3.71c-6.04,2.43-11.29,5.77-15.75,10
	c-7.18,6.77-12.33,15.12-15.46,25.04c0.53,0.29,0.74,0.6,0.65,0.94c-0.24,1.25-0.39,2.11-0.44,2.56
	c-1.34,11.89,0.93,22.87,6.81,32.94c4.47,7.52,10.47,13.43,18,17.75c5.78,3.38,12.17,5.55,19.19,6.52
	c5.67,0.56,11.25,0.34,16.75-0.67c6.68-1.6,12.53-4.11,17.54-7.54c6.8-4.63,12.29-10.36,16.46-17.21c4.5-7.69,6.59-16.37,6.25-26.04
	C134.8,87.1,134.88,86.37,135.07,85.55z M66.92,43.44c-0.03-0.02-0.07-0.03-0.12-0.02C66.86,43.41,66.9,43.42,66.92,43.44z
	 M49.89,53.31c0.26-0.23,0.51-0.39,0.77-0.49c0.13-0.05,0.25-0.08,0.38-0.1c-0.12,0.02-0.25,0.05-0.38,0.1
	C50.41,52.92,50.15,53.08,49.89,53.31z M98.94,114.84c-0.05,0.16-0.2,0.37-0.44,0.61C98.75,115.21,98.89,115,98.94,114.84z"/>
<path class="st2" d="M748.02,131.52c0.66,0.56,0.92,1.09,0.76,1.58c-0.1,0.31-0.3,0.54-0.61,0.67c-1.64,0.73-3.35,1.34-5.12,1.85
	c-0.32,0.09-0.63,0.07-0.94-0.07c-0.97-0.44-0.98-0.95-0.04-1.54c1.87-1.16,3.57-2.04,5.1-2.63
	C747.48,131.26,747.76,131.31,748.02,131.52z"/>
<path class="st2" d="M310.32,137.76c2.73-0.02,5,1.04,6.81,3.19c1.9,2.72,2.57,6.17,2,10.37c-0.48,4.49-2.51,7.3-6.06,8.44
	c-3.8,1.22-6.9,0.4-9.31-2.44c-1.39-1.53-2.28-3.63-2.69-6.31c-0.37-3.83,0.23-7,1.8-9.51c0.17-0.29,0.37-0.55,0.6-0.79
	C305.28,138.76,307.56,137.78,310.32,137.76L310.32,137.76z M314.13,141.95c-0.96-1.07-2.15-1.63-3.56-1.69
	c-2.49-0.13-4.16,0.71-5,2.5c-1.38,2.92-1.65,6.28-0.81,10.06c0.55,2.68,1.91,4.24,4.06,4.69c2.39,0.46,4.18-0.02,5.37-1.43
	c0.21-0.26,0.39-0.53,0.54-0.83c1.9-3.93,1.93-8.1,0.09-12.49C314.52,142.4,314.29,142.13,314.13,141.95z"/>
<path class="st2" d="M371.32,137.76c3.03-0.31,5.53,0.32,7.48,1.87c0.35,0.29,0.4,0.62,0.14,1c-0.8,1.18-1.57,1.46-2.31,0.82
	c-1.28-1.18-2.97-1.57-5.06-1.19c-1.6,0.29-2.49,1.12-2.67,2.48c-0.27,1.76,0.45,2.91,2.15,3.44c2.39,0.62,4.45,1.42,6.21,2.39
	c2.33,1.22,3.27,3.28,2.81,6.19c-0.46,2.71-2.19,4.39-5.19,5.06c-3.62,0.81-6.73,0.2-9.35-1.82c-0.26-0.2-0.39-0.47-0.38-0.8
	c0-0.41,0.35-0.87,1.02-1.39c0.27-0.2,0.53-0.2,0.79,0.01c1.88,1.46,4.17,2.03,6.86,1.69c1.75-0.22,2.76-1.2,3.03-2.95
	c0.3-1.99-0.55-3.34-2.53-4.05c-2.14-0.62-4.03-1.4-5.69-2.31c-2.55-1.35-3.47-3.4-2.75-6.13
	C366.58,139.49,368.39,138.06,371.32,137.76L371.32,137.76z"/>
<path class="st2" d="M416.91,151.22l0.02-4.55c0.02-4.94,4.04-8.93,8.97-8.91l0,0h0.24c4.94,0.02,8.93,4.04,8.91,8.97l-0.02,4.55
	c-0.02,4.94-4.04,8.93-8.97,8.91l0,0h-0.24C420.88,160.17,416.89,156.15,416.91,151.22z M420.2,146.03v5.73
	c0,3.16,2.56,5.72,5.72,5.72l0,0h0.12c3.16,0,5.72-2.56,5.72-5.72l0,0v-5.73c0-3.16-2.56-5.72-5.72-5.72l0,0h-0.12
	C422.76,140.31,420.2,142.87,420.2,146.03L420.2,146.03z"/>
<path d="M604.32,137.76c2.44-0.11,4.6,0.47,6.5,1.75c0.56,0.41,0.61,0.89,0.16,1.43c-0.9,1.06-1.67,1.21-2.33,0.45
	c-0.22-0.25-0.48-0.45-0.79-0.58c-2.69-1.2-4.74-0.99-6.15,0.64c-0.22,0.25-0.39,0.53-0.5,0.84c-0.69,1.84,0.04,3.14,2.17,3.91
	c2.26,0.72,4.39,1.59,6.38,2.62c1.83,0.95,2.68,2.6,2.56,4.94c-0.13,3.29-1.86,5.31-5.19,6.06c-3.68,0.84-6.8,0.23-9.36-1.81
	c-0.26-0.21-0.39-0.48-0.38-0.81c0-0.86,0.4-1.32,1.18-1.39c0.33-0.03,0.63,0.05,0.9,0.24c1.9,1.57,4.16,2.04,6.79,1.4
	c2.16-0.53,3.11-1.93,2.83-4.21c-0.12-1.18-0.73-1.99-1.83-2.42c-2.01-0.69-3.96-1.48-5.88-2.37c-2.09-0.98-3.2-2.47-3.33-4.46
	c-0.11-1.24,0.15-2.38,0.8-3.44C600,138.81,601.83,137.87,604.32,137.76L604.32,137.76z"/>
<path class="st2" d="M669.08,139.22c0.46,0.26,0.59,0.64,0.39,1.14c-0.46,1.25-1.34,1.47-2.65,0.65c-2.38-1.49-4.64-1.41-6.79,0.26
	c-0.27,0.2-0.5,0.43-0.71,0.7c-1.26,1.59-1.92,3.69-2,6.29c-0.25,2.84,0.18,5.24,1.31,7.19c1.19,2.04,3.43,2.67,6.73,1.88
	c1.16-0.26,1.8-0.98,1.9-2.16c0.18-2.01,0.14-3.46-0.12-4.37c-0.09-0.32-0.3-0.48-0.63-0.47c-1.15,0.01-1.99-0.05-2.51-0.16
	c-0.33-0.06-0.58-0.24-0.75-0.53c-0.55-0.92-0.56-1.53-0.05-1.82c0.29-0.16,0.6-0.23,0.93-0.19c1.17,0.14,2.97,0.2,5.38,0.19
	c0.33,0,0.52,0.17,0.58,0.49c0.26,1.5,0.32,4.42,0.2,8.78c-0.02,0.73-0.36,1.26-1.02,1.57c-3.15,1.61-6.3,1.98-9.45,1.1
	c-2.01-0.56-3.49-1.83-4.44-3.81c-0.85-2.04-1.29-4.27-1.31-6.69c-0.03-3.77,0.96-6.79,2.98-9.06c0.22-0.25,0.47-0.47,0.74-0.67
	C661.26,137.01,665.03,136.91,669.08,139.22L669.08,139.22z"/>
<path class="st2" d="M707.82,137.76c3.01-0.28,5.22,0.27,6.64,1.65c0.24,0.23,0.3,0.51,0.19,0.82c-0.44,1.19-1.03,1.6-1.77,1.22
	c-3.04-1.58-5.5-1.56-7.37,0.05c-0.25,0.21-0.47,0.46-0.65,0.74c-1.6,2.64-2.03,5.98-1.29,10.02c0.46,2.54,1.57,4.18,3.31,4.94
	c2.31,0.9,4.33,0.62,6.06-0.87c0.25-0.21,0.54-0.26,0.85-0.15c0.79,0.3,1.22,0.91,1.28,1.83c0.05,0.79-1.36,1.46-4.25,2
	c-3.44,0.64-6.23-0.25-8.36-2.69c-0.22-0.25-0.41-0.52-0.58-0.8c-2.96-4.88-3-9.82-0.12-14.82
	C703.21,139.17,705.23,137.86,707.82,137.76L707.82,137.76z"/>
<path class="st2" d="M735.89,150.96l0.05-4.2c0.06-5.03,4.18-9.06,9.21-9.01h0.05c5.03,0.06,9.06,4.18,9.01,9.21l0,0l-0.05,4.2
	c-0.06,5.03-4.18,9.06-9.21,9.01l0,0h-0.05C739.87,160.12,735.83,155.99,735.89,150.96z M740.57,142.55
	c-2.19,3.96-2.25,8.09-0.19,12.4c1.15,2.49,3.27,3.33,6.38,2.5c2.31-0.65,3.67-2.63,4.06-5.94c0.36-2.98,0.11-5.65-0.75-8
	c-0.97-2.43-3.02-3.49-6.17-3.19C742.39,140.46,741.28,141.2,740.57,142.55L740.57,142.55z"/>
<path class="st2" d="M233.13,139.9c1.87,1.64,2.43,3.93,1.69,6.86c-0.58,2.29-2.08,3.79-4.5,4.5c-1.54,0.46-3.32,0.62-5.34,0.49
	c-0.83-0.06-1.18,0.32-1.05,1.15c0.28,1.65,0.2,3.71-0.22,6.16c-0.04,0.26-0.2,0.43-0.46,0.51c-1.66,0.52-2.47,0.09-2.43-1.31
	c0.18-6.66,0.19-13.16,0.01-19.5c-0.01-0.33,0.15-0.53,0.48-0.58c4.59-0.71,8.26-0.33,11.01,1.15
	C232.61,139.49,232.88,139.68,233.13,139.9L233.13,139.9z M229.88,141.19c-1.39-0.69-3.16-0.95-5.31-0.77
	c-0.52,0.04-0.76,0.33-0.69,0.86c0.3,2.54,0.32,4.93,0.06,7.17c-0.04,0.33,0.1,0.54,0.42,0.64c1.66,0.65,3.42,0.56,5.27-0.27
	c1.98-0.88,2.61-2.72,1.91-5.53C231.31,142.33,230.76,141.63,229.88,141.19L229.88,141.19z"/>
<path class="st2" d="M244.27,138.01c3.7,0,7.26,0,10.68,0c0.19,0,0.3,0.1,0.34,0.29c0.29,1.59-0.36,2.33-1.97,2.21
	c-1.99-0.14-4.03-0.14-6.13,0c-0.31,0-0.46,0.15-0.45,0.46c0.05,2.44,0.1,4.44,0.13,5.98c0.01,0.33,0.18,0.5,0.51,0.51
	c1.96,0.03,3.92,0.07,5.88,0.1c0.33,0.01,0.6,0.14,0.81,0.4c0.27,0.34,0.24,0.85-0.09,1.54c-0.15,0.3-0.39,0.45-0.72,0.47
	c-1.63,0.06-3.54,0.07-5.74,0.04c-0.82-0.01-1.14,0.39-0.96,1.18c0.4,1.88,0.43,3.65,0.07,5.32c-0.13,0.58,0.1,0.86,0.7,0.84
	c2.83-0.12,5.3-0.14,7.43-0.05c0.33,0.01,0.62,0.14,0.86,0.36c0.58,0.54,0.59,1.11,0.03,1.73c-0.22,0.25-0.5,0.37-0.83,0.37
	c-3.25,0-6.77,0-10.56,0c-0.46,0-0.69-0.23-0.69-0.69c0-6.87,0-13.66,0-20.36C243.57,138.24,243.8,138.01,244.27,138.01
	L244.27,138.01z"/>
<path d="M265.41,138.11c4.38-0.38,7.88-0.1,10.5,0.84c1.16,0.41,1.98,1.18,2.46,2.31c1.12,2.6,0.94,4.86-0.56,6.79
	c-0.2,0.26-0.45,0.47-0.74,0.63c-0.93,0.49-1.63,0.91-2.1,1.28c-0.27,0.2-0.32,0.45-0.16,0.74c1.5,2.71,3.16,5.43,4.97,8.15
	c0.26,0.39,0.16,0.64-0.31,0.73c-2.26,0.45-3.51,0.07-3.74-1.14c-0.07-0.33-0.18-0.64-0.34-0.93c-1.24-2.18-2.49-4.31-3.75-6.38
	c-0.17-0.29-0.42-0.47-0.74-0.56c-1.07-0.28-1.85-0.28-2.34,0c-0.28,0.17-0.43,0.42-0.44,0.75c-0.03,2.63-0.07,5.25-0.1,7.88
	c-0.01,0.33-0.18,0.51-0.51,0.55c-0.62,0.07-1.25,0.07-1.88,0c-0.33-0.03-0.5-0.22-0.5-0.55c-0.07-6.47-0.09-13.38-0.06-20.72
	C265.07,138.25,265.19,138.13,265.41,138.11L265.41,138.11z M275.13,146.57c1.39-2.11,1.22-3.84-0.48-5.19
	c-0.26-0.21-0.55-0.36-0.87-0.46c-1.39-0.42-3.11-0.62-5.15-0.6c-0.33,0-0.5,0.17-0.52,0.5c-0.06,1.71-0.07,4-0.03,6.85
	c0,0.29,0.15,0.45,0.43,0.48C271.95,148.59,274.15,148.07,275.13,146.57L275.13,146.57z"/>
<path class="st2" d="M289.18,138.02h2.02c0.34,0,0.61,0.27,0.61,0.61v20.53c0,0.34-0.27,0.61-0.61,0.61h-2.02
	c-0.34,0-0.61-0.27-0.61-0.61v-20.53C288.57,138.3,288.84,138.02,289.18,138.02z"/>
<path class="st2" d="M329.02,138.06c4.06-0.54,7.63-0.12,10.74,1.26c1.8,0.8,3,2.26,3.62,4.38c1.24,3.55,1.2,7.05-0.12,10.5
	c-1.13,2.94-3.19,4.72-6.19,5.31c-2.17,0.47-4.84,0.53-7.99,0.2c-0.32-0.02-0.48-0.18-0.48-0.5c-0.11-7.62-0.06-14.58,0.16-20.87
	C328.77,138.17,328.85,138.08,329.02,138.06z M339.63,154.57c1.57-2.76,1.8-6.12,0.69-10.06c-0.65-2.45-2.32-3.79-5-4
	c-1.17-0.11-2.07-0.15-2.71-0.13c-0.53-0.14-0.79,0.07-0.79,0.61c0,5.43,0,10.67,0,15.71c0,0.28,0.14,0.44,0.43,0.47
	C335.95,157.6,338.41,156.73,339.63,154.57z"/>
<path d="M353.82,138.03h2.47c0.15,0,0.28,0.13,0.28,0.28v21.16c0,0.15-0.13,0.28-0.28,0.28h-2.47c-0.15,0-0.28-0.13-0.28-0.28
	v-21.16C353.54,138.16,353.66,138.03,353.82,138.03z"/>
<path class="st2" d="M392.5,138.2c0.9,0.17,1.47,0.71,1.72,1.59c1.14,4.21,2.32,8.45,3.54,12.73c0.29,1,0.56,1,0.81-0.01
	c1.23-4.85,2.49-9.47,3.8-13.83c0.09-0.32,0.29-0.54,0.61-0.66c0.23-0.09,0.94-0.08,2.13,0.05c1.02,0.1,1.58,0.67,1.67,1.69
	c0.56,6.41,1.09,12.81,1.57,19.2c0.04,0.45-0.17,0.7-0.62,0.75c-1.01,0.12-1.6,0.14-1.77,0.06c-0.3-0.13-0.47-0.36-0.5-0.7
	c-0.52-5.26-0.9-10.69-1.14-16.31c-0.05-1.16-0.24-1.19-0.56-0.06c-1.35,4.65-2.68,9.31-4,14c-0.06,0.22-0.73,0.43-2,0.62
	c-0.83,0.12-1.37-0.33-1.63-1.37c-1.19-4.86-2.59-9.41-4.2-13.66c-0.11-0.31-0.18-0.3-0.2,0.03c-0.27,5.29-0.59,10.75-0.94,16.38
	c-0.02,0.33-0.13,0.63-0.31,0.91c-0.33,0.47-1.06,0.5-2.19,0.07c-0.31-0.11-0.46-0.34-0.44-0.67c0.42-6.18,0.89-12.35,1.43-18.5
	c0.03-0.33,0.01-0.66-0.05-0.99C388.97,138.15,390.07,137.71,392.5,138.2L392.5,138.2z"/>
<path class="st2" d="M457.83,138.06c2.91-0.33,5.55-0.24,7.93,0.26c3.87,0.84,6.14,3.32,6.81,7.44c0.68,4.43-0.05,8.03-2.19,10.81
	c-1.45,1.9-3.64,2.96-6.56,3.19c-2.8,0.18-4.74,0.15-5.82-0.11c-0.33-0.05-0.5-0.25-0.51-0.58c-0.21-5.97-0.25-12.8-0.14-20.51
	C457.35,138.25,457.51,138.08,457.83,138.06L457.83,138.06z M468.13,154.82c1.75-2.94,2.04-6.35,0.88-10.25
	c-0.75-2.63-2.65-3.99-5.69-4.06c-1.95-0.07-2.93,0.03-2.94,0.31c-0.07,4.71-0.09,9.98-0.06,15.8c0.01,0.33,0.17,0.51,0.49,0.54
	C464.53,157.56,466.97,156.78,468.13,154.82z"/>
<path class="st2" d="M482.44,138.01c4.16-0.03,7.69-0.01,10.57,0.05c0.33,0.01,0.58,0.15,0.76,0.44c0.45,0.71,0.34,1.27-0.34,1.68
	c-0.28,0.18-0.59,0.27-0.92,0.29c-2.34,0.09-4.59,0.09-6.75,0c-0.33-0.02-0.53,0.14-0.59,0.47c-0.15,0.92-0.17,2.75-0.06,5.5
	c0.04,0.95,0.52,1.34,1.46,1.19c0.99-0.01,2.49-0.05,4.5-0.12c1.2-0.04,1.67,0.55,1.4,1.78c-0.09,0.48-0.38,0.72-0.87,0.72
	c-1.85,0-3.8,0-5.85,0c-0.44,0-0.66,0.22-0.67,0.66c-0.04,2.45-0.02,4.51,0.05,6.18c0.01,0.29,0.16,0.42,0.44,0.42
	c3.26-0.04,5.83-0.02,7.69,0.04c0.33,0.01,0.61,0.13,0.83,0.38c0.5,0.53,0.51,1.09,0.04,1.68c-0.21,0.26-0.48,0.39-0.81,0.39
	c-3.42,0-7.07,0-10.95,0c-0.2,0-0.3-0.1-0.3-0.3c0-6.8,0-13.82,0-21.07C482.07,138.14,482.19,138.01,482.44,138.01L482.44,138.01z"
	/>
<path class="st2" d="M516.61,138.02h2.37c0.18,0,0.32,0.14,0.32,0.32l0.04,21.09c0,0.18-0.14,0.32-0.32,0.32h-2.37
	c-0.18,0-0.32-0.14-0.32-0.32l-0.04-21.09C516.3,138.16,516.44,138.02,516.61,138.02z"/>
<path class="st2" d="M530.63,138.01c1.25-0.17,2.3-0.12,3.15,0.16c0.32,0.1,0.55,0.3,0.69,0.6c2.49,5.33,5.11,10.81,7.85,16.43
	c0.31,0.64,0.45,0.6,0.43-0.1c-0.19-4.94-0.25-9.88-0.19-14.84c0.01-0.33-0.04-0.66-0.13-0.98c-0.36-1.18,0.49-1.56,2.54-1.14
	c0.23,0.05,0.35,0.19,0.35,0.43c0.03,7.28,0.01,14.16-0.06,20.63c0,0.33-0.17,0.51-0.5,0.54c-1.36,0.14-2.36,0.12-3.02-0.05
	c-0.32-0.08-0.56-0.27-0.7-0.57c-2.55-5.2-5.18-10.62-7.88-16.25c-0.62-1.3-0.86-1.24-0.7,0.19c0.47,4.19,0.58,9.57,0.32,16.14
	c-0.01,0.33-0.18,0.54-0.51,0.62c-1.98,0.5-2.76-0.11-2.32-1.83c0.08-0.32,0.12-0.65,0.12-0.98c-0.03-6.15-0.01-12.3,0.06-18.44
	C530.13,138.24,530.3,138.05,530.63,138.01L530.63,138.01z"/>
<path class="st2" d="M553.9,138.1c1.71-0.21,2.68,0.18,2.92,1.16c1.31,5.31,2.85,10.57,4.61,15.78c0.32,1.05,0.63,1.05,0.92-0.02
	c1.75-6.52,3.38-12.01,4.87-16.47c0.11-0.32,0.33-0.5,0.66-0.54c0.28-0.03,0.87-0.03,1.77,0.02c0.48,0.02,0.65,0.26,0.5,0.71
	c-2.22,6.93-4.34,13.56-6.37,19.88c-0.17,0.53-0.53,0.86-1.08,0.97c-1.75,0.33-2.77-0.05-3.07-1.14
	c-1.76-6.52-3.85-13.02-6.25-19.52C553.22,138.44,553.39,138.17,553.9,138.1L553.9,138.1z"/>
<path class="st2" d="M578.45,138.01c4.23-0.03,7.75-0.01,10.56,0.05c0.33,0.01,0.59,0.15,0.76,0.44c0.45,0.71,0.34,1.27-0.34,1.68
	c-0.28,0.18-0.59,0.27-0.92,0.27c-2.29,0.04-4.59,0.08-6.88,0.12c-0.33,0-0.51,0.17-0.52,0.5c-0.06,1.41-0.07,3.18-0.04,5.3
	c0.01,0.76,0.4,1.14,1.16,1.14c1.66,0.14,3.1,0.14,4.34,0c1.9-0.21,2.56,0.41,1.98,1.84c-0.11,0.32-0.33,0.48-0.67,0.5
	c-2.04,0.11-4.08,0.21-6.12,0.32c-0.34,0.02-0.53,0.19-0.58,0.52c-0.16,1.04-0.19,3-0.09,5.9c0.02,0.46,0.26,0.69,0.72,0.68
	c3.18-0.04,5.66-0.02,7.45,0.03c0.33,0.02,0.6,0.15,0.82,0.4c0.56,0.65,0.59,1.22,0.1,1.71c-0.24,0.23-0.53,0.35-0.86,0.35
	c-3.17,0-6.79,0-10.87,0c-0.25,0-0.38-0.13-0.38-0.38c0-6.91,0-13.91,0-20.98C578.07,138.14,578.2,138.02,578.45,138.01
	L578.45,138.01z"/>
<path class="st2" d="M618.63,138.07c4.06-0.07,8.79-0.09,14.21-0.06c0.42,0.01,0.66,0.22,0.72,0.64c0.21,1.48-0.53,2.19-2.24,2.11
	c-1.46-0.07-2.58-0.11-3.36-0.14c-0.43-0.1-0.64,0.07-0.64,0.5c0,6.18,0,12.2,0,18.07c0,0.24-0.12,0.38-0.35,0.43
	c-2.12,0.45-3.04-0.01-2.75-1.37c0.07-0.33,0.1-0.66,0.1-0.99c0-4.92,0-10.33,0-16.23c0-0.33-0.16-0.48-0.49-0.43
	c-1.63,0.21-3.28,0.26-4.95,0.13c-0.33-0.02-0.58-0.17-0.75-0.46c-0.21-0.35-0.24-0.92-0.09-1.71
	C618.1,138.24,618.3,138.07,618.63,138.07L618.63,138.07z"/>
<path class="st2" d="M641.88,138.01h2.38c0.17,0,0.31,0.14,0.31,0.31l-0.01,21.13c0,0.17-0.14,0.31-0.31,0.31h-2.38
	c-0.17,0-0.31-0.14-0.31-0.31l0.01-21.13C641.57,138.15,641.71,138.01,641.88,138.01z"/>
<path class="st2" d="M684.38,138c1.16-0.16,2.13-0.11,2.9,0.16c0.32,0.11,0.52,0.32,0.62,0.64c2.1,6.99,4.27,13.73,6.51,20.24
	c0.11,0.31,0.01,0.53-0.3,0.66c-0.65,0.26-1.44,0.26-2.37,0.01c-0.32-0.09-0.54-0.3-0.64-0.61c-0.43-1.33-0.84-2.68-1.21-4.05
	c-0.09-0.32-0.3-0.49-0.63-0.51c-2-0.11-4.56-0.12-7.69-0.03c-0.32,0.01-0.76,1.4-1.31,4.19c-0.21,1.07-1.18,1.44-2.89,1.1
	c-0.32-0.07-0.44-0.26-0.35-0.58c2-6.93,4.23-13.82,6.69-20.68C683.83,138.23,684.05,138.05,684.38,138L684.38,138z M683.3,151.87
	c1.97-0.13,3.62-0.12,4.96,0.02c0.33,0.04,0.46-0.11,0.39-0.43c-0.66-2.93-1.61-6.25-2.83-9.96c-0.18-0.53-0.35-0.53-0.5,0.01
	c-0.96,3.32-1.9,6.41-2.85,9.29C682.23,151.56,682.5,151.91,683.3,151.87L683.3,151.87z"/>
<path d="M723.92,138.04h2.28c0.2,0,0.37,0.17,0.37,0.37v21.03c0,0.2-0.17,0.37-0.37,0.37h-2.28c-0.2,0-0.37-0.17-0.37-0.37v-21.03
	C723.55,138.21,723.71,138.04,723.92,138.04z"/>
<path class="st2" d="M764.19,138.02c1.38-0.14,2.42-0.09,3.09,0.14c0.32,0.11,0.55,0.31,0.69,0.61c2.4,5.14,4.91,10.41,7.54,15.8
	c0.54,1.11,0.78,1.05,0.72-0.18c-0.22-5.19-0.26-10.47-0.11-15.82c0.01-0.33,0.18-0.52,0.51-0.56c0.54-0.06,1.08-0.06,1.63,0
	c0.33,0.04,0.5,0.23,0.5,0.56c0.1,6.87,0.1,13.75,0.01,20.63c-0.01,0.33-0.18,0.51-0.51,0.54c-1.36,0.14-2.36,0.12-3.02-0.05
	c-0.32-0.08-0.56-0.27-0.7-0.57c-2.68-5.48-5.32-10.93-7.94-16.35c-0.15-0.3-0.22-0.28-0.22,0.05c0,5,0.04,9.83,0.12,14.5
	c0,0.33,0.06,0.66,0.16,0.98c0.45,1.43-0.4,1.93-2.54,1.5c-0.32-0.07-0.49-0.27-0.49-0.6c-0.07-6.39-0.09-13.22-0.06-20.5
	C763.58,138.29,763.78,138.06,764.19,138.02L764.19,138.02z"/>
<linearGradient id="SVGID_00000071533311279515914210000009438291573143260061_" gradientUnits="userSpaceOnUse" x1="36.3453" y1="73.7098" x2="167.9437" y2="108.9715" gradientTransform="matrix(1 0 0 -1 0 198)">
	<stop  offset="0" style="stop-color:#C64827"/>
	<stop  offset="0.1197" style="stop-color:#C84D27"/>
	<stop  offset="0.2561" style="stop-color:#CF5A26"/>
	<stop  offset="0.3293" style="stop-color:#D46526"/>
	<stop  offset="0.3481" style="stop-color:#D66826"/>
	<stop  offset="0.541" style="stop-color:#E37F22"/>
	<stop  offset="0.6626" style="stop-color:#E88721"/>
	<stop  offset="0.8585" style="stop-color:#F39A1D"/>
	<stop  offset="1" style="stop-color:#F8A21B"/>
</linearGradient>
<path style="fill:url(#SVGID_00000071533311279515914210000009438291573143260061_);" d="M155.51,66.57
	c-2.56-4.73-5.87-9.4-9.94-14.02c-4.96-4.95-10.15-8.97-15.57-12.04c-0.29-0.17-0.58-0.17-0.87-0.01c-0.37,0.2-0.41,0.35-0.1,0.43
	c0.32,0.1,0.59,0.26,0.82,0.5c4.69,4.95,8.28,10.54,10.78,16.77c1.82,4.01,2.46,8.37,1.94,13.06c-0.53,4.8-2.72,9.3-6.54,13.5l0,0
	c-0.27,0.22-0.59,0.48-0.96,0.79c-0.19,0.82-0.27,1.55-0.25,2.21c0.34,9.67-1.75,18.35-6.25,26.04
	c-4.17,6.85-9.66,12.58-16.46,17.21c-5.01,3.43-10.86,5.94-17.54,7.54c-5.5,1.01-11.08,1.23-16.75,0.67
	c-7.02-0.97-13.41-3.14-19.19-6.52c-7.53-4.32-13.53-10.23-18-17.75c-5.88-10.07-8.15-21.05-6.81-32.94
	c0.05-0.45,0.2-1.31,0.44-2.56c0.09-0.34-0.12-0.65-0.65-0.94l0,0c-1.71,5.57-2.72,11.92-3.04,19.04
	c-0.01,17.06,5.51,31.94,16.56,44.65c7.09,8.14,15.75,14.14,26,18c2.07,0.83,4.12,1.43,6.15,1.81c6.91,2.24,14.76,3,23.54,2.29
	c9.65-0.75,18.75-3.57,27.31-8.48c6.3-3.61,11.94-8.21,16.9-13.81c-0.12-0.1-0.16-0.24-0.1-0.44c-0.06,0.2-0.03,0.35,0.1,0.44
	c9.58-10.76,15.01-23.34,16.29-37.75C164.52,90.76,161.91,78.19,155.51,66.57z M79.29,160.83c-0.02-0.17,0.09-0.25,0.34-0.25
	C79.38,160.57,79.27,160.66,79.29,160.83z"/>
<path class="st4" d="M425.92,140.3h0.12c3.16,0,5.72,2.56,5.72,5.72v5.73c0,3.16-2.56,5.72-5.72,5.72h-0.12
	c-3.16,0-5.72-2.56-5.72-5.72v-5.73C420.2,142.87,422.76,140.3,425.92,140.3z"/>
</svg>
