<?xml version="1.0" encoding="utf-8"?>
<!-- Generator: Adobe Illustrator 27.0.0, SVG Export Plug-In . SVG Version: 6.00 Build 0)  -->
<svg version="1.1" id="Capa_1" xmlns="http://www.w3.org/2000/svg" xmlns:xlink="http://www.w3.org/1999/xlink" x="0px" y="0px"
	 viewBox="0 0 1046 138.18" style="enable-background:new 0 0 1046 138.18;" xml:space="preserve">
<style type="text/css">
	.st0{fill:url(#SVGID_1_);}
	.st1{fill:url(#SVGID_00000132072044785012134660000008508322930311767470_);}
	.st2{fill:url(#SVGID_00000036968645250115104250000006983995274742216071_);}
	.st3{fill:url(#SVGID_00000105413973765108365400000011865591977155133835_);}
	.st4{fill:url(#SVGID_00000121959852877863814230000012457077881995285915_);}
	.st5{fill:#666666;}
</style>
<g id="figura">
	<g>
		
			<linearGradient id="SVGID_1_" gradientUnits="userSpaceOnUse" x1="-19.7532" y1="145.8102" x2="103.6525" y2="22.4046" gradientTransform="matrix(1 0 0 -1 0 134.38)">
			<stop  offset="0.0879" style="stop-color:#3E164F"/>
			<stop  offset="0.5916" style="stop-color:#DA2CC8"/>
			<stop  offset="0.67" style="stop-color:#D427B4"/>
			<stop  offset="0.8299" style="stop-color:#C31A80"/>
			<stop  offset="0.9758" style="stop-color:#B30D4B"/>
		</linearGradient>
		<path class="st0" d="M22.33,13.52c-2.24-2.51-5.88-4.14-9.99-4.14C5.52,9.38,0,13.86,0,19.39c0,2.67,1.29,5.09,3.39,6.89l0,0
			l49.26,51.85h32.37L22.33,13.52z"/>
		
			<linearGradient id="SVGID_00000029766328558912198810000016846901037422747778_" gradientUnits="userSpaceOnUse" x1="12.34" y1="68.425" x2="178.69" y2="68.425" gradientTransform="matrix(1 0 0 -1 0 134.38)">
			<stop  offset="0.1756" style="stop-color:#9E2DD3"/>
			<stop  offset="0.5916" style="stop-color:#9E2DD3"/>
			<stop  offset="0.9546" style="stop-color:#9D2DD1"/>
		</linearGradient>
		<path style="fill:url(#SVGID_00000029766328558912198810000016846901037422747778_);" d="M116.7,13.36L116.7,13.36
			c-2.16-2.52-5.76-4.17-9.84-4.17c-0.8,0-1.59,0.07-2.34,0.19l0,0H12.34c4.11,0,7.75,1.63,9.99,4.14l62.38,64.26l39.17,40.59l0,0
			c2.12,2.62,5.78,4.35,9.93,4.35c4.3,0,8.06-1.85,10.15-4.63l0,0l34.73-40.68L116.7,13.36z"/>
		
			<linearGradient id="SVGID_00000036253220796384985160000003004782799609398441_" gradientUnits="userSpaceOnUse" x1="126.8693" y1="62.7287" x2="323.3734" y2="3.9872" gradientTransform="matrix(1 0 0 -1 0 134.38)">
			<stop  offset="0.1756" style="stop-color:#EB1C9D"/>
			<stop  offset="0.2303" style="stop-color:#C91C85"/>
			<stop  offset="0.2848" style="stop-color:#AE1B72"/>
			<stop  offset="0.3332" style="stop-color:#9E1B66"/>
			<stop  offset="0.3704" style="stop-color:#981B62"/>
			<stop  offset="0.4869" style="stop-color:#841F6F"/>
			<stop  offset="0.6272" style="stop-color:#662483"/>
		</linearGradient>
		<path style="fill:url(#SVGID_00000036253220796384985160000003004782799609398441_);" d="M188.48,65.95l-44.84,52.53
			c-0.05,0.07-0.11,0.13-0.17,0.19l-0.05,0.06h-0.01c-2.09,2.33-5.44,3.87-9.23,3.96l-0.02,0.01l81.07-0.31
			c4.49,0,8.44-1.85,10.78-4.66l45.3-51.77L188.48,65.95z"/>
		
			<linearGradient id="SVGID_00000118375685199763943430000008887286125355639485_" gradientUnits="userSpaceOnUse" x1="59.4536" y1="128.141" x2="162.0027" y2="24.6627" gradientTransform="matrix(1 0 0 -1 0 134.38)">
			<stop  offset="0.1756" style="stop-color:#9E2DD3;stop-opacity:0"/>
			<stop  offset="0.5916" style="stop-color:#9E2DD3;stop-opacity:0"/>
			<stop  offset="0.6718" style="stop-color:#8F29BF;stop-opacity:0.1105"/>
			<stop  offset="0.8356" style="stop-color:#681E8B;stop-opacity:0.3361"/>
			<stop  offset="0.9546" style="stop-color:#491561;stop-opacity:0.5"/>
		</linearGradient>
		<path style="fill:url(#SVGID_00000118375685199763943430000008887286125355639485_);" d="M116.7,13.36L116.7,13.36
			c-2.16-2.52-5.76-4.17-9.84-4.17c-0.8,0-1.59,0.07-2.34,0.19l0,0H12.34c4.11,0,7.75,1.63,9.99,4.14l62.38,64.26l39.17,40.59l0,0
			c2.12,2.62,5.78,4.35,9.93,4.35c4.3,0,8.06-1.85,10.15-4.63l0,0l34.73-40.68L116.7,13.36z"/>
		
			<linearGradient id="SVGID_00000120543546767913429710000009702393188552094863_" gradientUnits="userSpaceOnUse" x1="-49.613" y1="2.9256" x2="68.2263" y2="111.1287" gradientTransform="matrix(1 0 0 -1 0 134.38)">
			<stop  offset="0.0879" style="stop-color:#3E164F;stop-opacity:0"/>
			<stop  offset="0.679" style="stop-color:#D928B5;stop-opacity:0"/>
			<stop  offset="0.7149" style="stop-color:#C527B2;stop-opacity:0.1584"/>
			<stop  offset="0.7883" style="stop-color:#9124A9;stop-opacity:0.482"/>
			<stop  offset="0.815" style="stop-color:#7C23A5;stop-opacity:0.6"/>
		</linearGradient>
		<path style="fill:url(#SVGID_00000120543546767913429710000009702393188552094863_);" d="M22.33,13.52
			c-2.24-2.51-5.88-4.14-9.99-4.14C5.52,9.38,0,13.86,0,19.39c0,2.67,1.29,5.09,3.39,6.89l0,0l49.26,51.85h32.37L22.33,13.52z"/>
	</g>
</g>
<path class="st5" d="M515.52,13.83c3.2,0.15,6.12,1.1,8.75,2.84c2.11,1.4,3.8,3.28,5.06,5.63c1.89,3.63,2.68,7.56,2.39,11.79
	c-0.3,4.28-1.73,7.98-4.3,11.11c-3.16,3.73-7.31,5.61-12.46,5.65c-3.74,0.03-7.13-0.97-10.15-3.01c-1.41-0.94-2.7-2.23-3.88-3.88
	c-2.43-3.57-3.57-7.68-3.4-12.35c0.18-4.92,1.74-9.06,4.7-12.41c1.7-1.93,3.76-3.35,6.19-4.28
	C510.64,14.08,513.02,13.71,515.52,13.83z M507.06,22.13c-1.18,1.31-2.04,2.9-2.56,4.75c-0.85,3.02-0.96,6.17-0.34,9.45
	c0.29,1.83,0.98,3.55,2.05,5.15c1.66,2.46,3.91,3.88,6.75,4.28c2.1,0.33,4.11,0.07,6.02-0.79c2.44-1.05,4.18-2.94,5.23-5.69
	c1.12-2.9,1.52-5.8,1.21-8.69c-0.27-3.07-1.17-5.7-2.71-7.89c-0.09-0.12-0.18-0.24-0.27-0.36c-2.12-2.51-4.95-3.66-8.49-3.46
	C511.13,19.06,508.84,20.14,507.06,22.13z"/>
<path class="st5" d="M773.46,13.83c1.85-0.05,3.72,0.17,5.63,0.66c2.67,0.61,4.85,1.85,6.55,3.7c1.59,1.73,2.65,3.96,3.18,6.7
	c0.03,0.13-0.03,0.19-0.16,0.19c-1.36,0-2.77,0-4.23,0c-0.26,0-0.43-0.13-0.5-0.38c-0.52-2.23-1.54-3.89-3.08-5
	c-2.39-1.71-5.08-2.39-8.08-2.05c-2.17,0.18-4.12,0.9-5.87,2.15c-0.12,0.09-0.24,0.18-0.35,0.28c-2.83,2.58-4.36,6.09-4.59,10.51
	c-0.16,3.14,0.18,6.02,1.04,8.64c0.68,2.03,1.77,3.72,3.26,5.06c2.15,1.93,4.69,2.84,7.63,2.74c0.15,0,0.3,0,0.45,0
	c3.05,0.16,5.57-0.99,7.57-3.48c1.53-1.9,2.39-4.11,2.57-6.64c0.01-0.15,0.1-0.22,0.25-0.21c1.34,0.07,2.71,0.1,4.11,0.1
	c0.15,0,0.22,0.08,0.21,0.23c-0.26,3.13-1.27,5.92-3.02,8.39c-1.21,1.7-2.82,3.01-4.84,3.94c-1.5,0.68-3.16,1.13-4.95,1.35
	c-3.2,0.44-6.26,0.1-9.17-1.01c-3.3-1.21-5.78-3.38-7.43-6.53c-1.84-3.51-2.64-7.44-2.39-11.79c0.13-3.08,0.81-6.05,2.04-8.89
	c1.16-2.24,2.62-4.03,4.4-5.37C766.54,14.96,769.8,13.87,773.46,13.83L773.46,13.83z"/>
<path class="st5" d="M830.61,13.83c2.01,0.14,3.84,0.55,5.49,1.26c3.2,1.27,5.68,3.41,7.43,6.41c1.69,2.92,2.6,6.06,2.73,9.43
	c0.32,5.29-0.93,9.86-3.74,13.7c-2.18,2.98-5.14,4.89-8.89,5.74c-4.35,1.04-8.42,0.62-12.21-1.24c-3.02-1.49-5.32-3.73-6.89-6.72
	c-1.71-3.27-2.49-6.87-2.36-10.8c0.14-4.68,1.52-8.66,4.14-11.96c1.43-1.8,3.16-3.18,5.2-4.14
	C824.25,14.17,827.29,13.61,830.61,13.83L830.61,13.83z M820.34,21.57c-2.25,2.72-3.4,6.07-3.46,10.04
	c-0.1,3.43,0.58,6.59,2.03,9.45c1.29,2.49,3.21,4.25,5.77,5.26c1.74,0.7,3.72,0.94,5.94,0.7c3.4-0.36,6.08-1.88,8.05-4.57
	c0.09-0.12,0.18-0.25,0.25-0.37c1.69-2.75,2.56-5.98,2.61-9.68c0.05-3.55-0.75-6.73-2.39-9.54c-1.03-1.55-2.21-2.73-3.55-3.54
	c-2.06-1.19-4.39-1.74-7-1.66C825.2,17.71,822.45,19.01,820.34,21.57z"/>
<path class="st5" d="M583.24,14.74c3.28,9.12,6.52,18.28,9.72,27.51c0.1,0.28,0.2,0.28,0.3,0c3.21-9.26,6.37-18.43,9.47-27.5
	c0.05-0.14,0.15-0.22,0.3-0.22c2.69-0.03,5.52-0.04,8.5-0.03c0.09,0,0.14,0.05,0.14,0.14c0.04,8.5,0.04,16.97,0,25.41
	c-0.01,2.83-0.01,5.68,0,8.55c0.02,1.03-0.03,1.54-0.14,1.55c-1.74,0.03-3.62,0.04-5.65,0.03c-0.19,0-0.28-0.1-0.28-0.29
	c-0.01-9.19,0-18.13,0.03-26.81c0-0.56-0.09-0.57-0.28-0.05c-3.32,9.16-6.54,18.11-9.66,26.85c-0.05,0.14-0.15,0.22-0.3,0.23
	c-1.59,0.13-3.19,0.13-4.78,0c-0.15-0.01-0.25-0.09-0.3-0.23c-3.25-8.97-6.5-17.95-9.75-26.92c-0.05-0.14-0.15-0.23-0.3-0.26
	c-0.04-0.01-0.06,0-0.06,0.05c0.05,9.11,0.05,18.15,0,27.12c0,0.15-0.07,0.23-0.23,0.24c-1.78,0.13-3.57,0.13-5.34,0
	c-0.15-0.01-0.23-0.09-0.23-0.24c-0.09-11.5-0.12-23.22-0.08-35.16c0-0.14,0.07-0.2,0.2-0.2c3.07-0.01,5.88,0,8.44,0.03
	C583.09,14.53,583.19,14.6,583.24,14.74z"/>
<path class="st5" d="M302.87,14.5c5.02,0.1,9.94,0.1,14.74,0c2.35-0.05,4.48,0.21,6.41,0.79c2.8,0.95,4.71,2.69,5.71,5.2
	c1.38,3.34,1.38,6.65,0,9.96c-0.71,1.7-1.76,2.98-3.15,3.83c-1.58,1.05-3.36,1.69-5.37,1.94c-1.49,0.18-3.18,0.26-5.06,0.23
	c-2.57-0.04-4.88-0.03-6.95,0.02c-0.15,0-0.23,0.08-0.23,0.23c-0.03,4.34-0.04,8.73-0.03,13.18c0,0.2-0.1,0.3-0.3,0.3
	c-2.05,0-3.96,0-5.73,0c-0.11,0-0.16-0.05-0.16-0.16c0.05-6.18,0.01-12.09-0.1-17.73c0-0.15,0-0.3,0-0.45
	c0.15-5.37,0.14-11.06-0.02-17.08C302.63,14.59,302.71,14.5,302.87,14.5z M322.36,20.55c-0.96-0.72-2.1-1.09-3.4-1.1
	c-3.3-0.03-6.59-0.03-9.87,0c-0.09,0-0.14,0.05-0.14,0.14c0,3.73,0,7.58,0,11.53c0,0.15,0.07,0.23,0.22,0.23
	c2.27,0.03,4.68,0.04,7.21,0.03c0.15,0,0.3,0.01,0.45,0.03c2.01,0.24,3.8-0.15,5.37-1.18c1.16-0.77,1.85-1.83,2.08-3.21
	c0.23-1.17,0.23-2.31,0-3.43C324.01,22.31,323.37,21.29,322.36,20.55z"/>
<path class="st5" d="M338.39,14.51c2.24-0.02,4.16-0.01,5.75,0.02c0.15,0,0.23,0.08,0.23,0.23c0.02,6,0,12.02-0.06,18.06
	c-0.03,3.82-0.04,7.64,0,11.48c0,0.15,0.08,0.23,0.23,0.23c5.66,0.15,11.58,0.16,17.76,0.04c0.21,0,0.31,0.09,0.3,0.3
	c-0.05,1.68-0.05,3.38,0,5.08c0,0.15-0.07,0.23-0.22,0.23c-8.16,0-16.19,0-24.07,0c-0.23,0-0.34-0.12-0.33-0.35
	c0.09-1.97,0.12-4.07,0.12-6.29c-0.03-9.6-0.03-19.18,0-28.73C338.1,14.61,338.2,14.51,338.39,14.51z"/>
<path class="st5" d="M381.87,14.53c1.79-0.03,3.88-0.04,6.27-0.03c0.19,0,0.32,0.09,0.38,0.27c4.47,11.73,9.02,23.47,13.67,35.21
	c0.05,0.12,0,0.18-0.13,0.19c-2.44,0.01-4.56,0-6.36-0.02c-0.15,0-0.25-0.08-0.3-0.22c-1.12-2.93-2.18-5.91-3.2-8.96
	c-0.06-0.19-0.19-0.28-0.4-0.28c-5.05,0.11-9.63,0.13-13.77,0.05c-0.15,0-0.25,0.07-0.3,0.21c-1.1,2.99-2.19,5.98-3.28,8.98
	c-0.05,0.14-0.15,0.21-0.3,0.22c-1.93,0.05-3.92,0.04-5.95,0c-0.18,0-0.23-0.09-0.17-0.26c4.61-11.85,9.12-23.57,13.52-35.15
	C381.61,14.6,381.72,14.53,381.87,14.53L381.87,14.53z M384.78,20.64c-1.71,4.98-3.45,9.95-5.23,14.89c-0.06,0.16,0,0.23,0.17,0.23
	c3.44,0,6.88,0,10.33,0c0.23,0,0.31-0.11,0.23-0.33c-1.67-5-3.39-9.93-5.15-14.8C385.01,20.32,384.89,20.32,384.78,20.64
	L384.78,20.64z"/>
<path class="st5" d="M401.26,14.5c9.55,0,19.1,0,28.66,0c0.11,0,0.17,0.06,0.17,0.17c0,1.61,0,3.29,0,5.04c0,0.2-0.1,0.3-0.3,0.3
	c-3.55,0-7.13,0-10.75,0c-0.21,0-0.32,0.1-0.32,0.32c0,9.77,0,19.63,0,29.59c0,0.14-0.07,0.22-0.22,0.23
	c-1.99,0.08-3.92,0.06-5.77-0.05c-0.15-0.01-0.23-0.09-0.23-0.24c-0.09-9.59-0.12-19.42-0.08-29.49c0-0.24-0.12-0.36-0.36-0.36
	c-3.7,0-7.27,0-10.72,0c-0.14,0-0.2-0.07-0.21-0.2c-0.02-1.67-0.05-3.37-0.09-5.1C401.05,14.57,401.12,14.5,401.26,14.5L401.26,14.5
	z"/>
<path class="st5" d="M442.4,14.5c2.14,0,4.29,0,6.46,0c0.07,0,0.13,0.04,0.15,0.1c4.58,11.78,9.13,23.54,13.65,35.28
	c0.05,0.14,0.01,0.21-0.14,0.22c-2.08,0.14-4.16,0.14-6.24,0c-0.15-0.01-0.25-0.08-0.31-0.23c-0.99-2.64-2.05-5.6-3.18-8.87
	c-0.07-0.19-0.2-0.29-0.41-0.29c-4.65,0.08-9.22,0.09-13.72,0.03c-0.15,0-0.25,0.07-0.31,0.21c-1.07,2.77-2.15,5.77-3.25,8.99
	c-0.05,0.15-0.16,0.22-0.32,0.22c-2.02,0-3.98,0-5.9,0c-0.23,0-0.3-0.1-0.22-0.31c4.52-11.75,9.04-23.5,13.56-35.26
	C442.28,14.54,442.33,14.5,442.4,14.5L442.4,14.5z M445.4,20.68c-1.71,4.95-3.47,9.92-5.28,14.92c-0.04,0.11,0,0.17,0.12,0.17
	c3.51,0,6.99,0,10.43,0c0.23,0,0.32-0.11,0.24-0.33c-1.68-4.96-3.41-9.88-5.18-14.76C445.61,20.37,445.5,20.37,445.4,20.68
	L445.4,20.68z"/>
<path class="st5" d="M491.76,14.51c0.18,0,0.23,0.08,0.16,0.24c-0.05,0.3-0.06,0.66-0.04,1.1c0.08,1.27,0.08,2.55,0,3.84
	c0,0.22-0.11,0.32-0.32,0.32c-6.16-0.01-12.16,0-18,0.03c-0.15,0-0.23,0.08-0.23,0.23c-0.04,2.84-0.02,5.81,0.05,8.89
	c0,0.15,0.08,0.23,0.23,0.23c5.19,0.08,10.41,0.12,15.64,0.11c0.15,0,0.23,0.08,0.25,0.23c0.2,1.47,0.21,2.97,0.03,4.47
	c-0.02,0.15-0.1,0.23-0.25,0.23c-4.97,0.09-10.2,0.13-15.7,0.11c-0.11,0-0.17,0.05-0.17,0.16c-0.15,5.06-0.15,10.09,0,15.07
	c0,0.27-0.13,0.41-0.4,0.41c-1.91,0-3.76,0-5.56,0c-0.23,0-0.35-0.12-0.35-0.35c0.01-11.96,0-23.64-0.03-35.02
	c0-0.15,0.08-0.23,0.23-0.23C474.92,14.49,483.07,14.46,491.76,14.51L491.76,14.51z"/>
<path class="st5" d="M538.27,14.5c6,0.04,12.01,0.04,18.01,0c2.58-0.02,4.9,0.59,6.95,1.83c1.61,1,2.7,2.35,3.26,4.05
	c0.51,1.42,0.71,3.03,0.59,4.81c-0.11,1.76-0.63,3.37-1.58,4.84c-0.96,1.37-2.31,2.43-4.05,3.15c-0.22,0.09-0.2,0.19,0.03,0.31
	c1.84,0.36,3.21,1.35,4.11,2.98c0.69,1.26,1,2.71,0.93,4.36c-0.04,2.78,0.3,5.33,1.01,7.65c0.18,0.56,0.44,1.01,0.78,1.34
	c0.19,0.21,0.15,0.31-0.14,0.32c-1.85,0.04-3.81,0.05-5.89,0.03c-0.49,0-0.8-0.24-0.93-0.71c-0.32-1.17-0.48-2.43-0.47-3.79
	c0.01-2.2-0.21-4.19-0.68-5.96c-0.25-0.98-0.73-1.77-1.44-2.39c-1.02-0.99-2.31-1.5-3.85-1.55c-3.48-0.1-6.89-0.09-10.21,0.02
	c-0.15,0-0.23,0.08-0.23,0.23c-0.03,4.34-0.04,8.89-0.03,13.67c0,0.32-0.16,0.49-0.48,0.49c-1.78,0-3.56,0-5.33,0
	c-0.32,0-0.49-0.16-0.49-0.49c0-11.68,0-23.37,0-35.07C538.16,14.54,538.2,14.5,538.27,14.5z M544.43,19.73
	c0.02,3.84,0.04,7.41,0.06,10.72c0,0.15,0.08,0.23,0.23,0.23c3.55,0.06,7.18,0.07,10.89,0.02c1.55,0.02,2.83-0.5,3.83-1.58
	c0.99-1.06,1.48-2.41,1.46-4.05c0.06-1.02-0.14-2.02-0.59-3.01c-0.56-1.2-1.52-1.97-2.87-2.3c-0.98-0.23-2.12-0.33-3.4-0.31
	c-2.89,0.04-5.99,0.04-9.32,0C544.53,19.46,544.43,19.55,544.43,19.73z"/>
<path class="st5" d="M633.89,14.5c2.11,0,4.21,0,6.28,0c0.21,0,0.36,0.1,0.43,0.3c1.44,3.9,2.88,7.63,4.31,11.18
	c2.94,7.81,6,15.72,9.19,23.73c0.13,0.31,0.02,0.47-0.32,0.47c-2.08,0-4.04,0-5.9,0c-0.23,0-0.39-0.11-0.47-0.33
	c-1.08-2.92-2.16-5.91-3.21-8.95c-0.04-0.13-0.13-0.18-0.26-0.18c-4.99,0.15-9.58,0.16-13.8,0.05c-0.24,0-0.4,0.1-0.48,0.33
	c-1,2.9-2.04,5.86-3.12,8.87c-0.05,0.15-0.16,0.22-0.31,0.22c-2.16,0-4.11,0-5.87,0c-0.24,0-0.32-0.11-0.23-0.33
	c3.51-9.01,6.94-17.97,10.29-26.88c1.13-2.69,2.19-5.45,3.2-8.27C633.67,14.57,633.76,14.5,633.89,14.5L633.89,14.5z M636.91,20.6
	c-1.77,5.03-3.54,10.02-5.33,14.95c-0.02,0.07,0,0.1,0.08,0.11c3.35,0.12,6.82,0.16,10.42,0.11c0.29,0,0.39-0.14,0.29-0.41
	c-1.75-4.96-3.47-9.88-5.18-14.75C637.09,20.34,637,20.34,636.91,20.6L636.91,20.6z"/>
<path class="st5" d="M682.7,14.53c1.26-0.03,2.83-0.04,4.72-0.02c0.15,0,0.26,0.07,0.34,0.19c6.18,9.54,12.35,19.05,18.52,28.5
	c0.19,0.29,0.28,0.27,0.28-0.08c-0.02-9.65-0.04-19.08-0.05-28.3c0-0.15,0.07-0.23,0.23-0.24c1.33-0.1,2.68-0.12,4.05-0.05
	c0.15,0,0.22,0.09,0.22,0.23c-0.15,4.27-0.14,8.61,0.05,13.03c-0.18,1.59-0.19,2.94-0.05,4.05c0.02,0.15,0.03,0.3,0.03,0.45
	c-0.16,5.79-0.17,11.65-0.02,17.58c0,0.21-0.1,0.32-0.31,0.32c-1.2,0-2.4,0-3.6,0c-0.87,0-1.39-0.12-1.55-0.36
	c-6.14-9.45-12.26-18.87-18.36-28.25c-0.08-0.13-0.16-0.12-0.23,0.01c0.07,0.09,0.11,0.44,0.11,1.04
	c-0.01,8.98-0.04,18.11-0.11,27.39c0,0.12-0.06,0.18-0.18,0.18c-1.31,0-2.65,0-4.03,0c-0.2,0-0.3-0.1-0.3-0.3
	c-0.03-7.8,0-15.58,0.09-23.33c0.06-4.03,0.04-7.96-0.06-11.79C682.48,14.61,682.55,14.53,682.7,14.53z"/>
<path class="st5" d="M733.94,14.52c1.92-0.05,3.58-0.03,4.99,0.06c0.15,0.01,0.25,0.08,0.31,0.23c1.37,3.57,2.79,7.18,4.26,10.84
	c3.12,8.12,6.27,16.2,9.46,24.27c0.07,0.18,0.01,0.26-0.18,0.26c-1.52,0-3.07,0-4.64,0c-0.19,0-0.33-0.09-0.4-0.27
	c-1.26-3.34-2.5-6.72-3.71-10.11c-0.05-0.13-0.14-0.2-0.28-0.2c-4.96,0-9.86,0-14.71,0c-0.24,0-0.4,0.11-0.48,0.34
	c-1.19,3.26-2.42,6.6-3.69,10.02c-0.05,0.15-0.16,0.22-0.32,0.22c-1.38,0-2.78,0-4.21,0c-0.3,0-0.4-0.14-0.28-0.42
	c2.98-7.53,5.9-15,8.74-22.42c1.58-4.08,3.25-8.31,5-12.71C733.82,14.55,733.87,14.52,733.94,14.52L733.94,14.52z M736.12,19.36
	c-1.84,5.31-3.79,10.71-5.85,16.19c-0.03,0.07,0,0.1,0.07,0.11c3.77,0.13,7.7,0.17,11.79,0.11c0.2,0,0.27-0.1,0.2-0.29
	c-1.91-5.37-3.82-10.74-5.71-16.11C736.45,18.88,736.28,18.88,736.12,19.36z"/>
<path class="st5" d="M804.55,14.52c0.1,0,0.16,0.06,0.16,0.16c0.01,11.88,0,23.59-0.03,35.13c0,0.15-0.08,0.24-0.22,0.27
	c-0.7,0.13-2.05,0.16-4.05,0.08c-0.28-0.01-0.43-0.16-0.43-0.45c-0.04-11.88-0.01-23.51,0.08-34.9c0-0.15,0.08-0.23,0.23-0.24
	C801.48,14.49,802.89,14.47,804.55,14.52z"/>
<path class="st5" d="M852.05,14.53c1.56-0.05,3.11-0.05,4.67,0c0.15,0,0.27,0.07,0.35,0.19c6.14,9.48,12.32,18.95,18.51,28.42
	c0.26,0.39,0.38,0.35,0.38-0.12c-0.09-9.2-0.12-18.65-0.08-28.34c0-0.12,0.06-0.18,0.18-0.18c1.38,0,2.75,0,4.11,0
	c0.08,0,0.12,0.04,0.12,0.12c-0.03,11.86-0.04,23.6-0.03,35.22c0,0.22-0.11,0.33-0.33,0.33c-1.43,0-2.87,0-4.32,0
	c-0.33,0-0.59-0.14-0.77-0.41c-6.11-9.36-12.23-18.79-18.38-28.27c-0.17-0.27-0.26-0.24-0.25,0.08c0.09,9.19,0.12,18.59,0.08,28.19
	c0,0.28-0.14,0.42-0.42,0.42c-1.37,0-2.63,0-3.77,0c-0.21,0-0.32-0.1-0.32-0.32c-0.01-11.86,0-23.56,0.03-35.11
	C851.82,14.61,851.9,14.53,852.05,14.53L852.05,14.53z"/>
<path class="st5" d="M900.33,14.53c1.63-0.05,3.26-0.05,4.9,0c0.15,0,0.25,0.08,0.31,0.22c4.49,11.52,9.07,23.25,13.73,35.19
	c0.06,0.14,0.01,0.22-0.14,0.22c-1.24,0.03-2.79,0.04-4.65,0.02c-0.18,0-0.31-0.09-0.37-0.26c-1.17-2.99-2.43-6.4-3.78-10.2
	c-0.03-0.07-0.08-0.11-0.15-0.11c-4.84,0-9.82,0-14.94,0c-0.16,0-0.27,0.08-0.32,0.23c-1.2,3.33-2.44,6.72-3.73,10.17
	c-0.04,0.12-0.13,0.18-0.26,0.18c-1.75,0.01-3.22,0-4.42-0.02c-0.15,0-0.2-0.08-0.14-0.22c4.55-11.73,9.11-23.46,13.68-35.2
	C900.08,14.6,900.18,14.53,900.33,14.53L900.33,14.53z M902.49,19.09c-1.89,5.51-3.84,10.96-5.84,16.37c-0.08,0.21,0,0.32,0.22,0.32
	c3.87,0,7.72,0,11.57,0c0.18,0,0.25-0.09,0.19-0.26c-1.95-5.58-3.88-11.06-5.78-16.43C902.72,18.75,902.61,18.75,902.49,19.09z"/>
<path class="st5" d="M924.35,14.5c1.46,0,2.87,0,4.24,0c0.21,0,0.32,0.1,0.32,0.32c0,10.37,0,20.83,0,31.39
	c0,0.15,0.07,0.23,0.22,0.23c6.16,0.03,12.32,0.04,18.49,0.03c0.21,0,0.31,0.1,0.31,0.31c0,1.14,0,2.17,0,3.09
	c0,0.21-0.1,0.32-0.32,0.32c-7.59,0-15.28,0-23.06,0c-0.25,0-0.38-0.13-0.37-0.38c0.04-11.76,0.04-23.47,0-35.12
	C924.18,14.56,924.24,14.5,924.35,14.5L924.35,14.5z"/>
<path class="st5" d="M970.21,14.5c4.43-0.04,8.86-0.04,13.28,0c4.14,0.03,7.67,1.22,10.61,3.57c2.59,2.04,4.16,4.85,4.73,8.44
	c0.51,3.2,0.54,6.44,0.09,9.7c-0.56,4.4-2.24,7.87-5.04,10.4c-0.11,0.1-0.23,0.2-0.35,0.29c-2.85,2.15-6.31,3.24-10.37,3.27
	c-4.35,0.03-8.73,0.03-13.14,0c-0.09,0-0.14-0.05-0.14-0.14c-0.03-9.96-0.03-19.9,0-29.8c0-1.9-0.04-3.65-0.12-5.26
	C969.74,14.67,969.89,14.5,970.21,14.5z M990.5,20.55c-1.9-1.54-4.2-2.32-6.89-2.34c-2.93-0.02-5.88-0.02-8.87,0
	c-0.09,0-0.14,0.05-0.14,0.14c0,9.21,0,18.55,0,28c0,0.08,0.04,0.11,0.11,0.11c2.66-0.03,5.21-0.03,7.65,0
	c1.83,0.05,3.61-0.27,5.32-0.99c2.1-0.84,3.69-2.24,4.78-4.22c1.37-2.49,2.06-5.25,2.05-8.3c0.02-2.48-0.21-4.77-0.68-6.86
	C993.29,23.74,992.18,21.9,990.5,20.55z"/>
<path class="st5" d="M1005.38,14.53c8.02-0.04,16.11-0.05,24.28-0.01c-0.18,1.24-0.21,2.43-0.11,3.57
	c-6.56,0.02-13.04,0.07-19.44,0.16c-0.15,0-0.23,0.08-0.23,0.23c-0.05,3.81-0.05,7.62,0,11.42c0,0.15,0.08,0.23,0.23,0.23
	c5.84,0.02,11.76,0.04,17.75,0.05c0.03,0.07,0.05,0.11,0.09,0.11c0.15,0,0.23,0.09,0.24,0.23c0.07,1.26,0.04,2.37-0.1,3.33
	c-5.61,0.02-11.56,0.03-17.86,0.02c-0.25,0-0.37,0.12-0.37,0.37c0,3.95,0,7.9,0,11.86c0,0.25,0.13,0.37,0.37,0.37
	c6.65,0,13.18,0,19.57,0c0.14,0,0.2,0.07,0.2,0.2c0,1.14,0,2.27,0,3.4c0,0.08-0.04,0.11-0.11,0.11c-8.21,0-16.39,0-24.53,0
	c-0.08,0-0.12-0.04-0.12-0.12c0.04-12.1,0.01-23.86-0.08-35.3C1005.16,14.61,1005.23,14.53,1005.38,14.53z"/>
<path class="st5" d="M561.24,65.77c5.14,0.19,9.5,1.62,13.07,4.28c0.12,0.09,0.23,0.18,0.35,0.29c3.02,2.75,4.51,6.35,4.47,10.8
	c0,0.18-0.09,0.27-0.27,0.27c-3.3,0-6.61,0-9.91,0c-0.25,0-0.38-0.13-0.39-0.37c-0.08-2.02-0.75-3.63-2-4.84
	c-0.11-0.1-0.23-0.2-0.35-0.29c-2.03-1.46-4.44-2.08-7.24-1.85c-0.15,0.01-0.3,0.01-0.45,0c-2.31-0.14-4.2,0.64-5.69,2.32
	c-1.14,1.3-1.42,2.85-0.85,4.68c0.04,0.14,0.09,0.28,0.16,0.42c0.49,1.01,1.47,1.77,2.94,2.27c3.68,1.25,7.45,2.31,11.34,3.18
	c2.01,0.45,3.91,1.06,5.71,1.83c3.33,1.31,5.81,3.52,7.43,6.64c1.15,2.22,1.53,4.8,1.15,7.74c-0.24,3.01-1.33,5.66-3.29,7.96
	c-2.08,2.44-4.8,4.11-8.16,5.01c-2.87,0.77-5.99,1.13-9.37,1.1c-4.14,0.02-7.96-0.78-11.45-2.39c-1.53-0.71-2.9-1.67-4.11-2.87
	c-3.01-2.8-4.62-6.61-4.83-11.43c-0.01-0.35,0.16-0.52,0.5-0.53c3.46-0.01,6.7,0,9.72,0.03c0.15,0,0.23,0.08,0.25,0.23
	c0.11,1.08,0.3,2.05,0.57,2.9c0.54,1.68,1.58,3,3.12,3.97c1.61,1,3.42,1.59,5.43,1.77c1.61,0.14,3.29,0.09,5.04-0.14
	c1.53-0.22,2.9-0.8,4.11-1.75c1.67-1.24,2.33-2.86,2-4.87c-0.28-1.69-1.4-2.97-3.35-3.85c-1.65-0.79-3.39-1.42-5.2-1.89
	c-2.81-0.71-5.62-1.47-8.41-2.28c-1.82-0.53-3.56-1.23-5.2-2.11c-1.78-0.89-3.23-2.06-4.36-3.52c-1.7-2.32-2.53-4.94-2.5-7.85
	c0.03-2.39,0.56-4.6,1.6-6.61c1.48-2.63,3.58-4.62,6.3-5.96C552.76,66.37,556.8,65.61,561.24,65.77L561.24,65.77z"/>
<path class="st5" d="M902.34,66.34c4.77,0.09,9.04,1.3,12.8,3.63c1.53,0.99,2.81,2.12,3.83,3.38c2.32,2.82,3.73,6.2,4.22,10.13
	c0.03,0.21-0.07,0.31-0.27,0.31c-3.18,0-6.47,0-9.87,0c-0.2,0-0.33-0.1-0.38-0.3c-0.5-2.17-1.52-3.94-3.04-5.3
	c-2.46-2.14-5.38-3.08-8.75-2.84c-1.48,0.11-2.89,0.45-4.25,1.04c-2.34,1.1-4.16,2.88-5.46,5.35c-1.18,2.32-1.88,4.85-2.11,7.57
	c-0.32,3.77,0.07,7.28,1.15,10.55c0.55,1.64,1.41,3.14,2.59,4.5c2.53,2.86,5.89,4.18,10.1,3.97c3.34-0.17,5.92-1.53,7.74-4.08
	c1.31-1.89,2.12-4.06,2.43-6.54c0.02-0.12,0.09-0.18,0.21-0.18c3.58-0.01,6.94,0,10.08,0.03c0.15,0,0.22,0.08,0.21,0.23
	c-0.31,4.42-1.75,8.36-4.32,11.82c-2.04,2.75-4.75,4.8-8.13,6.16c-3.1,1.12-6.51,1.6-10.24,1.46c-5.59-0.19-10.4-1.94-14.43-5.26
	c-2.3-1.89-4.1-4.14-5.4-6.75c-1.83-3.62-2.84-7.53-3.01-11.73c-0.18-5.3,0.8-10.21,2.95-14.71c1.5-3.14,3.72-5.81,6.64-7.99
	C891.93,67.7,896.83,66.23,902.34,66.34z"/>
<path class="st5" d="M303.14,67.01c12.97,0,26.13,0,39.47,0c0.18,0,0.27,0.09,0.28,0.27c0.05,2.74,0.05,5.46,0,8.14
	c0,0.15-0.08,0.23-0.23,0.23c-4.52,0.08-9.26,0.13-14.21,0.14c-0.11,0-0.17,0.06-0.17,0.17c0,13.31,0,26.6,0,39.87
	c0,0.09-0.05,0.14-0.14,0.14c-3.51,0-7,0-10.47,0c-0.21,0-0.32-0.11-0.32-0.32c0.01-13.36,0-26.56-0.03-39.6
	c0-0.15-0.08-0.23-0.23-0.23c-4.34-0.03-9.01-0.04-14.01-0.02c-0.31,0-0.45-0.15-0.44-0.46c0.13-2.58,0.12-5.18-0.03-7.79
	C302.61,67.19,302.78,67.01,303.14,67.01L303.14,67.01z"/>
<path class="st5" d="M361.13,67.04c8.93,0,17.76,0,26.49-0.03c2.52-0.01,4.84,0.53,6.95,1.6c2.84,1.49,4.83,3.63,5.96,6.41
	c0.75,1.85,1.09,3.75,1.04,5.71c0.04,3.24-0.83,6-2.62,8.3c-1.2,1.54-2.74,2.63-4.62,3.29c-0.32,0.13-0.32,0.26,0,0.37
	c2.67,0.95,4.51,2.86,5.52,5.73c0.73,2.09,1.12,4.37,1.15,6.84c0.07,2.9,0.33,5.49,0.79,7.76c0.18,0.9,0.52,1.72,1.01,2.48
	c0.18,0.3,0.1,0.45-0.25,0.45c-3.28,0-6.67,0-10.16,0c-0.21,0-0.35-0.1-0.41-0.31c-0.47-1.39-0.76-2.83-0.88-4.31
	c-0.24-2.24-0.45-4.46-0.65-6.67c-0.17-1.98-0.71-3.76-1.63-5.35c-0.98-1.58-2.51-2.44-4.59-2.62c-3.59-0.35-7.7-0.42-12.35-0.21
	c-0.15,0.01-0.23,0.09-0.23,0.23c-0.03,6.14-0.04,12.49-0.03,19.04c0,0.12-0.06,0.18-0.18,0.18c-3.41,0-6.9,0-10.46,0
	c-0.11,0-0.17-0.06-0.17-0.17c0.03-14.36,0.03-28.67,0-42.93c0-1.97,0.04-3.86,0.14-5.68C360.99,67.09,361.04,67.04,361.13,67.04z
	 M389.34,86.62c0.62-0.92,1.02-1.99,1.21-3.18c0.27-1.76,0.12-3.39-0.48-4.92c-0.68-1.5-1.83-2.44-3.46-2.84
	c-1.45-0.32-3.1-0.47-4.95-0.45c-3.26,0.03-6.56,0.03-9.88,0c-0.09,0-0.14,0.05-0.14,0.14c0,4.26,0,8.67,0,13.23
	c0,0.23,0.12,0.35,0.35,0.35c4.41,0.1,8.61,0.07,12.59-0.1C386.68,88.75,388.27,88.01,389.34,86.62z"/>
<path class="st5" d="M449.65,67.12c0.07,0,0.13,0.04,0.15,0.11c5.98,16.17,12.01,32.3,18.06,48.4c0.08,0.2,0,0.3-0.2,0.3
	c-3.53,0.03-7.14,0.04-10.83,0.03c-0.18,0-0.29-0.09-0.35-0.25c-1.14-3.45-2.31-6.85-3.51-10.2c-0.05-0.14-0.15-0.21-0.3-0.21
	c-5.18-0.05-10.35-0.03-15.5,0.08c-0.15,0-0.3-0.01-0.45-0.04c-0.7-0.15-1.35-0.11-1.94,0.13c-0.01,0-0.26,0.66-0.73,1.97
	c-0.99,2.74-1.99,5.51-2.97,8.34c-0.05,0.12-0.13,0.18-0.26,0.18c-3.56,0.01-7.11,0-10.66-0.03c-0.09,0-0.12-0.04-0.09-0.13
	c6.22-16.56,12.31-32.72,18.26-48.47c0.05-0.14,0.16-0.22,0.31-0.22C442.24,66.94,445.91,66.95,449.65,67.12z M443.83,79.68
	c-2.07,5.84-4.13,11.62-6.19,17.33c-0.04,0.1,0,0.16,0.11,0.16c4.04,0,8.04,0,12.01,0c0.24,0,0.32-0.11,0.25-0.34
	c-2.01-5.78-3.96-11.49-5.83-17.15C444.06,79.35,443.94,79.35,443.83,79.68L443.83,79.68z"/>
<path class="st5" d="M492.44,67.34c6.66,10.61,13.28,21.28,19.88,31.98c0.12,0.19,0.18,0.18,0.17-0.05
	c0.04-3.41,0.08-6.77,0.11-10.09c0.03-2.73,0.03-5.51,0-8.33c0.1-4.69,0.09-9.2-0.02-13.53c0-0.15,0.07-0.23,0.22-0.23
	c2.72-0.09,5.55-0.12,8.47-0.08c0.98,0.01,1.46,0.05,1.46,0.11c0,16.07,0,32.31,0,48.69c0,0.1-0.05,0.15-0.15,0.15
	c-3.35,0-6.77,0-10.24,0c-0.31,0-0.54-0.13-0.71-0.4c-6.54-10.61-13.08-21.17-19.63-31.65c-0.2-0.32-0.3-0.29-0.3,0.09
	c-0.03,10.43-0.04,21.03-0.03,31.78c0,0.12-0.06,0.18-0.18,0.18c-3.22,0-6.47,0-9.75,0c-0.2,0-0.31-0.1-0.32-0.31
	c-0.05-3.02-0.01-5.43,0.1-7.23c0.01-0.15,0.01-0.3,0.01-0.45c-0.18-9.08-0.18-18.46,0-28.13c0-0.15,0-0.3,0-0.45
	c-0.1-3.91-0.14-7.95-0.11-12.14c0-0.08,0.04-0.12,0.11-0.12c3.91-0.21,7.42-0.21,10.55,0C492.25,67.15,492.37,67.21,492.44,67.34
	L492.44,67.34z"/>
<path class="st5" d="M601.1,67.01c7.72,0,15.33,0.04,22.84,0.11c0.15,0,0.3,0.01,0.45,0.02c2.6,0.26,5.15,1.24,7.63,2.93
	c1.32,0.91,2.41,2.03,3.26,3.38c1.56,2.44,2.39,5.2,2.5,8.3c0.08,2.11-0.16,4.2-0.7,6.27c-0.98,3.54-3.08,6.24-6.3,8.1
	c-2.71,1.56-5.69,2.32-8.98,2.28c-4.05,0-8.01,0.01-11.9,0.03c-0.15,0-0.23,0.08-0.23,0.23c-0.03,5.61-0.04,11.34-0.03,17.17
	c0,0.09-0.04,0.14-0.14,0.14c-3.36,0-6.87,0-10.53,0c-0.14,0-0.22-0.07-0.22-0.22c0.14-16.16,0.14-32.28,0-48.37
	c0-0.15,0.07-0.23,0.22-0.25C599.52,67.05,600.22,67.01,601.1,67.01L601.1,67.01z M625.77,87.52c1.13-1.41,1.62-3.07,1.45-4.98
	c-0.01-0.15-0.01-0.3-0.01-0.45c0.09-2.23-0.74-3.99-2.51-5.26c-1.42-0.95-3.1-1.45-5.04-1.49c-3.31-0.07-6.56-0.1-9.76-0.09
	c-0.15,0-0.23,0.08-0.23,0.23c-0.03,4.71-0.04,9.51-0.03,14.39c0,0.21,0.11,0.32,0.32,0.32c3.15,0.03,6.12-0.01,8.91-0.1
	c1.28-0.06,2.38-0.21,3.29-0.42C623.73,89.27,624.93,88.56,625.77,87.52L625.77,87.52z"/>
<path class="st5" d="M672.29,67.36c5.83,15.89,11.83,32,17.99,48.31c0.07,0.17,0,0.26-0.18,0.26c-3.55,0.03-7.21,0.04-10.99,0.03
	c-0.07,0-0.13-0.04-0.15-0.11c-1.3-3.61-2.44-7.02-3.43-10.23c-0.04-0.14-0.14-0.22-0.29-0.23c-0.93-0.03-1.85-0.04-2.79-0.02
	c-5.08,0.1-10.06,0.08-14.94-0.08c-0.15,0-0.25,0.06-0.31,0.2c-1.28,3.28-2.52,6.7-3.7,10.25c-0.05,0.13-0.14,0.2-0.27,0.2
	c-3.57,0.01-7.11,0-10.62-0.03c-0.15,0-0.19-0.07-0.14-0.21c6.18-16.34,12.26-32.46,18.23-48.36c0.05-0.14,0.15-0.22,0.3-0.23
	c3.66-0.22,7.31-0.22,10.97,0C672.13,67.15,672.23,67.22,672.29,67.36L672.29,67.36z M666.33,79.48
	c-2.01,5.41-3.92,10.77-5.71,16.09c-0.16,0.48-0.34,0.87-0.54,1.18c-0.21,0.28-0.14,0.42,0.21,0.42c4.06,0,8.03,0,11.9,0
	c0.21,0,0.27-0.1,0.21-0.29c-2.02-5.86-3.99-11.66-5.91-17.4C666.44,79.32,666.38,79.32,666.33,79.48L666.33,79.48z"/>
<path class="st5" d="M702.55,67.04c8.19,0.08,16.25,0.07,24.19-0.03c1.9-0.02,3.7,0.05,5.37,0.23c0.15,0.02,0.3,0.05,0.44,0.08
	c3.38,0.72,6.08,2.43,8.11,5.13c1.17,1.57,1.9,3.21,2.17,4.92c0.46,2.56,0.36,5.08-0.31,7.57c-0.44,1.64-1.21,3.12-2.3,4.45
	c-1.28,1.44-2.74,2.43-4.36,2.95c-0.33,0.11-0.33,0.23,0,0.34c1.69,0.53,3.11,1.58,4.25,3.18c1.12,1.59,1.81,3.35,2.05,5.26
	c0.25,2.33,0.48,5.18,0.68,8.55c0.13,2.17,0.68,4.22,1.66,6.17c0.04,0.09,0.01,0.14-0.09,0.14c-3.45,0-6.93,0-10.44,0
	c-0.23,0-0.37-0.11-0.44-0.33c-0.43-1.39-0.71-2.86-0.83-4.4c-0.18-2-0.36-3.99-0.56-5.96c-0.18-1.81-0.6-3.49-1.26-5.04
	c-0.86-2.05-2.51-3.21-4.95-3.49c-3.58-0.41-7.71-0.47-12.38-0.18c-0.15,0.01-0.23,0.09-0.23,0.24c-0.09,6.02-0.12,12.29-0.08,18.81
	c0,0.23-0.12,0.35-0.35,0.35c-3.48,0-6.87,0-10.15,0c-0.21,0-0.32-0.1-0.32-0.32c0-16.07,0-32.23,0-48.5
	C702.44,67.07,702.48,67.04,702.55,67.04L702.55,67.04z M713.33,76.55c-0.12,3.92-0.15,7.99-0.08,12.21c0,0.12,0.06,0.18,0.19,0.19
	c5.26,0.2,9.81,0.13,13.65-0.22c1.49-0.08,2.68-0.65,3.57-1.72c1.25-1.5,1.78-3.4,1.6-5.71c-0.12-2.26-0.95-3.9-2.5-4.92
	c-1.34-0.8-2.95-1.18-4.81-1.15c-3.79,0.05-7.59,0.05-11.41,0c-0.14,0-0.2,0.07-0.19,0.2C713.34,75.9,713.34,76.27,713.33,76.55
	L713.33,76.55z"/>
<path class="st5" d="M771.31,67.12c8-0.07,16.11-0.1,24.31-0.11c0.6,0,1.24,0.07,1.9,0.2c0.1,0.03,0.16,0.09,0.16,0.21
	c-0.04,2.48-0.04,5.17-0.03,8.07c0,0.12-0.06,0.18-0.18,0.18c-8.28,0.09-16.73,0.14-25.34,0.14c-0.15,0-0.23,0.08-0.23,0.23
	c-0.03,3.21-0.04,6.66-0.03,10.33c0,0.08,0.04,0.11,0.12,0.11c7.84,0,15.64,0,23.41,0c0.09,0,0.14,0.05,0.14,0.14
	c-0.05,2.57-0.05,5.17,0,7.79c0,0.12-0.05,0.17-0.17,0.17c-7.79-0.01-15.54,0-23.26,0.03c-0.17,0-0.26,0.09-0.26,0.26
	c0.05,4.37,0.02,8.4-0.07,12.1c0,0.14,0.07,0.22,0.21,0.22c8.69,0,17.37,0,26.03,0c0.11,0,0.17,0.06,0.17,0.17c0,2.81,0,5.62,0,8.44
	c0,0.11-0.06,0.17-0.17,0.17c-12.27,0-24.51,0-36.75,0c-0.23,0-0.33-0.11-0.32-0.34c0.07-0.49,0.11-1.01,0.11-1.58
	c0-12.68,0-25.36,0-38.04c0-2.95-0.04-5.87-0.11-8.77c0-0.08,0.04-0.12,0.11-0.12c3.31-0.18,6.57-0.18,9.79-0.01
	C771.01,67.12,771.16,67.12,771.31,67.12L771.31,67.12z"/>
<path class="st5" d="M818.25,67.02c3.68-0.06,7.13-0.02,10.37,0.1c0.15,0,0.27,0.07,0.35,0.2c6.85,10.89,13.48,21.56,19.88,32
	c0.08,0.13,0.12,0.12,0.14-0.03c0.08-0.93,0.12-1.93,0.12-3.01c0.01-9.75,0.02-19.41,0.03-29.01c0-0.15,0.08-0.23,0.23-0.23
	c3.14-0.03,6.36-0.04,9.67-0.03c0.21,0,0.32,0.11,0.32,0.32c0,16.07,0,32.18,0,48.34c0,0.2-0.1,0.3-0.3,0.3c-3.44,0-6.86,0-10.28,0
	c-0.21,0-0.37-0.09-0.49-0.27c-6.7-10.83-13.28-21.46-19.75-31.87c-0.22-0.36-0.33-0.33-0.33,0.09c-0.04,10.57-0.04,21.15,0,31.73
	c0,0.15-0.08,0.23-0.23,0.23c-3.2,0.11-6.43,0.13-9.68,0.05c-0.15,0-0.23-0.08-0.23-0.23c-0.03-15.83-0.04-31.99-0.03-48.48
	C818.04,67.09,818.11,67.02,818.25,67.02L818.25,67.02z"/>
<path class="st5" d="M946.68,67.02h10.41c0.11,0,0.2,0.09,0.2,0.2v48.55c0,0.11-0.09,0.2-0.2,0.2h-10.41c-0.11,0-0.2-0.09-0.2-0.2
	V67.21C946.49,67.1,946.58,67.02,946.68,67.02z"/>
<path class="st5" d="M1009.91,67.36c5.95,16.1,11.93,32.18,17.96,48.25c0.05,0.14,0,0.22-0.14,0.23c-2.61,0.15-6.23,0.19-10.86,0.12
	c-0.17,0-0.28-0.09-0.34-0.25c-1.18-3.48-2.33-6.86-3.44-10.11c-0.05-0.14-0.15-0.22-0.3-0.22c-4.94-0.16-9.89-0.16-14.85,0
	c-0.15,0-0.3,0-0.45-0.02c-0.93-0.1-1.74-0.1-2.45,0.02c-0.14,0.03-0.24,0.11-0.3,0.25c-1.13,3.17-2.35,6.58-3.68,10.23
	c-0.02,0.07-0.08,0.11-0.15,0.11c-3.42,0-6.96,0-10.64,0c-0.17,0-0.22-0.08-0.16-0.23c6.05-15.98,12.15-32.14,18.3-48.5
	c0.03-0.07,0.08-0.11,0.15-0.11c3.98-0.19,7.67-0.19,11.06,0.02C1009.76,67.15,1009.86,67.22,1009.91,67.36L1009.91,67.36z
	 M1003.94,79.52c-1.93,5.4-3.83,10.74-5.69,16.04c-0.16,0.45-0.4,0.94-0.72,1.48c-0.05,0.09-0.03,0.13,0.07,0.13
	c4.13,0,8.21,0,12.26,0c0.24,0,0.32-0.11,0.24-0.34c-2.03-5.69-4-11.46-5.92-17.3C1004.1,79.3,1004.02,79.3,1003.94,79.52z"/>
</svg>
