<?xml version="1.0" encoding="utf-8"?>
<!-- Generator: Adobe Illustrator 27.0.0, SVG Export Plug-In . SVG Version: 6.00 Build 0)  -->
<svg version="1.1" id="propublica-wordmark" xmlns="http://www.w3.org/2000/svg" xmlns:xlink="http://www.w3.org/1999/xlink"
	 x="0px" y="0px" viewBox="0 0 574.2 75" style="enable-background:new 0 0 574.2 75;" xml:space="preserve">
<style type="text/css">
	.st0{fill:#314154;}
</style>
<path class="st0" d="M66.4,13.5L66,14.9l6.2,11.5l1.2,0.5l1.6-0.5V75H51c7.2-7.6,11.2-17.7,11.2-28.1c0-5.6-1.2-11.1-3.4-16.3
	c2.4-1.9,5-3.6,7.8-4.9l1.7-0.2l0.1-0.4L65,18.8h-0.5l-0.9,1.3c-2.9,1.9-4.7,2.3-8.5,3.8C47.4,12.3,34.4,5.4,20.5,5.4
	C13.3,5.4,6.2,7.3,0,10.9V0h75v8.8L66.4,13.5z M57.3,47c0,10.7-4.6,20.9-12.7,28H0V16C17.1,4.8,40,9.5,51.2,26.6
	C55.2,32.7,57.3,39.8,57.3,47z M43.7,37.1c0-8.1-6-12-17.8-12H7.2v3.7l4.2,1v32.5l-4.2,1v3.7h20.7v-3.7l-7.2-1v-12h5.1
	C37.3,50.1,43.7,45.5,43.7,37.1z M33.9,37.3c0,5.2-2.8,8.3-7.2,8.3h-6V29.5H27C31.4,29.5,33.9,32.3,33.9,37.3z"/>
<path class="st0" d="M116.5,60.1l9.2,1.1v4.2H99.4v-4.2l5.3-1.4v-44l-5.3-1.4v-4H123c15.3,0,22.9,5.3,22.9,16.1
	c0,11.2-8.3,17.4-23.1,17.4h-6.3L116.5,60.1z M116.5,38.9h6.8c6.4,0,10.5-4.6,10.5-12.1c0-7.2-3.7-11.4-10.1-11.4h-7.2V38.9z"/>
<path class="st0" d="M200.7,61.2v4.2h-14.8l-16-20.6h-2.5v15l5.3,1.4v4.2h-22.4v-4.2l5.3-1.4V23.4l-5-1.4v-4.1h24.6
	c10.5,0,17.6,5.1,17.6,12.7c0,8.4-5.8,12.2-11,13.6l13.5,15.8L200.7,61.2z M167.4,39.7h4.5c5.8,0,8.8-3.2,8.8-8.9
	c0-5.4-2.9-7.9-8.8-7.9h-4.5V39.7z"/>
<path class="st0" d="M199.6,41.6c0-14.8,9.8-24.7,25.7-24.7s25.7,10,25.7,24.7s-9.8,24.7-25.7,24.7S199.6,56.5,199.6,41.6z
	 M238.5,41.6c0-9.7-3.2-19.2-13.2-19.2s-13.2,9.5-13.2,19.2s3.2,19.2,13.2,19.2S238.5,51.3,238.5,41.6z"/>
<path class="st0" d="M270.8,60.1l9.1,1.1v4.2h-26.6v-4.2l5.6-1.4v-44l-5.6-1.4v-4h24c15.3,0,22.9,5.3,22.9,16.1
	c0,11.2-8.3,17.4-23.1,17.4h-6.3L270.8,60.1z M270.8,38.9h6.8c6.4,0,10.5-4.6,10.5-12.1c0-7.2-3.7-11.4-10.1-11.4h-7.2L270.8,38.9z"
	/>
<path class="st0" d="M354.3,22l-5,1.4V47c0,12.9-7.8,19.4-20,19.4c-13.6,0-20.7-7.9-20.7-20v-23l-5-1.4v-4.1h22V22l-5.1,1.4v24.4
	c0,7.2,4.3,12.1,11.5,12.1c6.8,0,11.2-4.5,11.2-11.3V23.4l-5.1-1.4v-4.1h16.1V22z"/>
<path class="st0" d="M403.9,52.2c0,8.9-7.1,13.1-22,13.1h-24.3v-4.2l5.6-1.4V23.4l-4.9-1.4v-4.1h23.9c12.6,0,19.5,3.8,19.5,11.7
	c0,6.2-4.1,9.1-10.9,9.9v0.3C399.3,40.8,403.9,45.1,403.9,52.2z M375,38.3h5.8c6.1,0,9-2.8,9-7.8c0-5.2-3.1-7.6-9-7.6H375V38.3z
	 M391.8,51.7c0-5.6-3.8-8.7-11.2-8.7H375v17.3h6.6C388.1,60.3,391.8,57.3,391.8,51.7L391.8,51.7z"/>
<path class="st0" d="M451.1,48.6l-4.4,16.7H408v-4.2l5.3-1.4V23.4l-5.6-1.4v-4.1h22.8V22l-5.3,1.4v37l14.2-0.8l7.7-12.3L451.1,48.6z
	"/>
<path class="st0" d="M475.4,61.2v4.2H453v-4.2l5.3-1.4V23.4L453,22v-4.1h22.4V22l-5.3,1.4v36.4L475.4,61.2z"/>
<path class="st0" d="M478,41.8c0-15.9,12.1-24.9,27-24.9c6.5,0,12.8,1.8,18.3,5.1l-2,13.2h-4.2l-1.7-9.1c-2.6-2.8-6.3-4.3-10.1-4.1
	c-9.1,0-14.7,6.6-14.7,18.2c0,13.2,6.8,19.3,15.2,19.3c6.2,0,10.2-3.4,13.4-9.5l4.3,2c-4.3,10-11.6,14.4-21.1,14.4
	C488.4,66.4,478,56.5,478,41.8z"/>
<path class="st0" d="M574.2,61.2v4.2h-22.8v-4.2L557,60l-2.8-8.1h-16.6l-3.1,8.2l5.4,1.2l-0.1,4.2l-16.5-0.1v-4.2l4.3-1.1l14.9-37.3
	l-4-1.3v-3.5h13.7L569.3,60L574.2,61.2z M546.7,30.2l-0.5-1.6l-0.5,1.6l-6.2,16.7h12.9L546.7,30.2z"/>
</svg>
