<?xml version="1.0" encoding="utf-8"?>
<!-- Generator: Adobe Illustrator 27.0.0, SVG Export Plug-In . SVG Version: 6.00 Build 0)  -->
<svg version="1.1" id="Capa_1" xmlns="http://www.w3.org/2000/svg" xmlns:xlink="http://www.w3.org/1999/xlink" x="0px" y="0px"
	 viewBox="0 0 524.5 54.2" style="enable-background:new 0 0 524.5 54.2;" xml:space="preserve">
<style type="text/css">
	.st0{fill:#9F2241;}
	.st1{fill:#BD945C;}
</style>
<path class="st0" d="M64.7,28.7c0-0.6,0.1-4.3,0.1-5.8v-5.6c0.1-1.8,0-3.6-0.2-5.4c-0.3-0.4-1.7-0.7-2.7-1l0.3-1.6h4.5l6-0.2
	c5.2,0,8.3,2.1,8.3,6.1s-2.1,4.6-4,5.6c1.3,2.5,3.7,6.8,4.4,7.9l2.4,0.8L83.4,31h-5.5c-0.6-1.5-2.9-6.1-4.5-9.1h-4.5v1
	c-0.1,1.8,0,3.6,0.2,5.4c0.8,0.5,1.7,0.9,2.7,1.1l-0.3,1.5h-9.3l-0.3-1.5L64.7,28.7z M68.9,19.5l5.5,0.2c1.5-0.9,2.4-2.5,2.4-4.3
	c0.1-1.2-0.3-2.3-1.1-3.2c-1.1-0.6-2.4-0.9-3.7-0.8c-1,0-1.9,0.1-2.9,0.3c-0.1,0.6-0.2,4.2-0.2,5.8L68.9,19.5z"/>
<path class="st0" d="M88.9,28.7c0.1-0.6,0.2-4.3,0.2-5.8v-5.6c0-1.9,0-5.1-0.3-5.4c-0.8-0.5-1.7-0.9-2.7-1l0.4-1.6h8.1
	c3.7,0,6.7,0,9.2-0.2c0.3,0.3,0.5,0.7,0.7,1.1c-0.2,1.4-0.6,3.8-0.9,5.3l-2.4-0.2l-0.7-3.7l-3.8-0.2h-3.4c0,0.6-0.2,4.4-0.2,5.9v1.9
	l6.9-0.3l0.6,0.6l-0.4,2.1l-7.1-0.3v1.6c0,2,0,4.9,0.3,5.5c1.2,0.3,2.5,0.5,3.7,0.4l3.8-0.2l0.9-3.8c0.9-0.1,1.7,0,2.6,0.1
	c0.1,2,0.1,4,0,6H86.5l-0.4-1.5L88.9,28.7z"/>
<path class="st0" d="M110.4,28.7c0-0.6,0.1-4.3,0.1-5.8v-5.6c0.1-1.8,0-3.6-0.2-5.4c-0.3-0.4-1.7-0.7-2.7-1l0.3-1.6h9.3l0.3,1.6
	l-2.7,0.8c-0.1,0.5-0.2,4.2-0.2,5.8V23c0,2.2,0,5.1,0.3,5.5s2.3,0.4,3.7,0.4l3.4-0.2l1-4.1h2.6c0.1,2,0.1,4.1,0,6.3h-17.7l-0.3-1.5
	L110.4,28.7z"/>
<path class="st0" d="M136.4,31h-8.5l-0.3-1.5l2.5-0.8c2.1-5.1,4.2-10.9,6.3-16.3l0.9-3.1c1.7-0.2,3.5-0.3,5.2-0.3
	c0.3,1.2,0.7,2.3,1.1,3.4l6.1,16.3l2.6,0.8L152,31h-9.5l-0.3-1.5l3.1-0.8l-1.7-4.9h-8.4c-0.6,1.7-1,3.3-1.5,4.8l3.1,0.8L136.4,31z
	 M142.8,21.6c-1.1-3-2.3-6.4-3.6-9.7c-1.1,3.1-2.2,6.4-3.2,9.6L142.8,21.6z"/>
<path class="st0" d="M167.8,27.9l0.9-3.9c0.9-0.1,1.9,0,2.8,0.1v4.4l-0.4,0.8c-2.3,1.5-4.9,2.2-7.6,2.2c-6.7,0-10.9-4.2-10.9-11.1
	c-0.2-6.1,4.6-11.3,10.7-11.5c0.2,0,0.5,0,0.7,0c2.5,0,5,0.6,7.2,1.8l0.5,0.8l-1,5.4c-0.8,0-1.7,0-2.5-0.2c-0.3-1.8-0.6-3.5-0.8-4.4
	c-2.6-1.2-5.6-1-8,0.5c-1.7,2.1-2.5,4.7-2.4,7.4c0,5.1,2.5,8.5,6.9,8.5C165.2,28.8,166.6,28.5,167.8,27.9z"/>
<path class="st0" d="M177.4,28.7c0.1-0.6,0.2-4.3,0.2-5.8v-5.6c0-1.9,0-5.1-0.3-5.4s-1.7-0.7-2.7-1l0.4-1.6h9.2l0.4,1.6l-2.8,0.8
	c-0.1,0.5-0.2,4.2-0.2,5.8V23c0,2,0,5.1,0.3,5.4s1.7,0.8,2.7,1.1l-0.4,1.5H175l-0.4-1.5L177.4,28.7z"/>
<path class="st0" d="M186.7,20.8c0-7.2,4.6-11.9,11.1-11.9s10.1,4.2,10.1,10.7s-4.4,11.9-10.8,11.9S186.7,27.3,186.7,20.8z
	 M201.7,27.4c1.4-2.1,2-4.7,1.9-7.2c0-5.3-1.9-8.6-6.3-8.6c-1.5,0-3,0.5-4.3,1.3c-1.4,2.2-2.1,4.9-2,7.5c0,5.2,2.2,8.4,6.4,8.4
	C199,28.9,200.5,28.4,201.7,27.4z"/>
<path class="st0" d="M227.6,31.1l-2.8-3.7c-2.8-3.8-6.4-8.2-9.3-11.8c0.1,5.6,0.2,12.2,0.5,12.8s2.2,0.8,3.6,1.1l-0.3,1.5h-8.9
	l-0.3-1.5l2.7-0.8c0.1-1.1,0.2-3.9,0.2-8.4s0-7.9-0.3-8.3c-0.9-0.5-1.8-0.8-2.7-1.1l0.3-1.6h6c2.1,3.6,7.4,10.1,11.8,15.6
	c0-6.3-0.2-12.3-0.5-12.8s-2.1-0.8-3.3-1.1l0.4-1.6h8.8l0.3,1.6l-2.8,0.8c-0.2,2.4-0.4,9.8-0.4,19.1L227.6,31.1z"/>
<path class="st0" d="M239.4,28.7c0.1-0.6,0.2-4.3,0.2-5.8v-5.6c0-1.9,0-5.1-0.3-5.4c-0.8-0.5-1.7-0.9-2.7-1l0.3-1.6h8.1
	c3.7,0,6.7,0,9.2-0.2l0.8,1.1c-0.3,1.4-0.7,3.8-0.9,5.3l-2.5-0.2l-0.6-3.7l-3.9-0.2h-3.3c-0.1,0.6-0.2,4.4-0.2,5.9v1.9l6.9-0.3
	l0.5,0.6l-0.4,2.1l-7-0.3v1.6c0,2,0,4.9,0.3,5.5s2.3,0.4,3.7,0.4l3.8-0.2l0.9-3.8c0.9-0.1,1.7,0,2.6,0.1c0.1,2,0.1,4,0,6h-18
	l-0.3-1.5L239.4,28.7z"/>
<path class="st0" d="M273.7,10.5l0.5,0.9c-0.2,1.6-0.5,3.2-0.9,4.7h-2.5c-0.1-1.2-0.3-2.5-0.6-3.7c-1-0.7-2.2-1-3.4-0.9
	c-1.1-0.1-2.3,0.3-3.2,0.9c-0.5,0.6-0.7,1.4-0.7,2.2c0,5.2,11.6,3.8,11.6,10.9c0,3.6-3.1,6.1-8.2,6.1c-2.6-0.1-5.2-0.7-7.6-1.9v-0.3
	c0-1.4,0-3.2,0.1-4.6c0.9-0.1,1.8-0.2,2.7-0.1c0.3,1.5,0.5,2.4,0.8,3.4c1.3,0.7,2.7,1.1,4.2,1c1.1,0.1,2.2-0.1,3.2-0.6
	c0.5-0.7,0.7-1.5,0.7-2.3c0-4.9-11.5-3.4-11.5-10.8c0-3.8,3.8-6.4,8.4-6.4C269.5,8.9,271.7,9.4,273.7,10.5z"/>
<path class="st0" d="M288.7,28.7c0.1-0.6,0.2-4.3,0.2-5.8v-5.6c0-1.9,0-5.1-0.3-5.4c-0.8-0.5-1.7-0.9-2.7-1l0.4-1.6h8.1
	c3.7,0,6.7,0,9.2-0.2c0.3,0.3,0.5,0.7,0.7,1.1c-0.2,1.4-0.6,3.8-0.8,5.3l-2.5-0.2l-0.7-3.7l-3.8-0.2h-3.4c0,0.6-0.1,4.4-0.1,5.9v1.9
	l6.9-0.3l0.5,0.6l-0.4,2.1l-7-0.3v1.6c0,2-0.1,4.9,0.2,5.5c1.2,0.3,2.5,0.5,3.7,0.4l3.9-0.2l0.8-3.8c0.9-0.1,1.8,0,2.7,0.1
	c0.1,2,0.1,4,0,6h-18l-0.4-1.5L288.7,28.7z"/>
<path class="st0" d="M317.1,22.1l-4,6.4l3,1l-0.4,1.5H307l-0.3-1.5c0.8-0.4,1.6-0.7,2.5-0.9c1.7-2.1,3.9-5.1,6.4-8.6
	c-2.4-3.4-4.7-6.5-6-8.2l-2.8-0.9l0.3-1.6h6.2c1.3,2.2,3.5,5.6,5.7,8.9c1.5-2.3,2.8-4.5,3.9-6.3l-3-0.9l0.3-1.6h8.7l0.4,1.6
	l-2.5,0.8c-1.7,2.1-3.8,5.1-6.3,8.5c2.4,3.5,4.8,6.7,6.1,8.3s2.3,0.7,2.8,1l-0.3,1.5H323C321.6,28.8,319.4,25.4,317.1,22.1z"/>
<path class="st0" d="M339.2,28.7c0-0.6,0.1-3.4,0.1-5.8V11.4h-0.6l-3.7,0.2l-0.9,4h-2.7c-0.1-2-0.1-4.1,0-6.2h10.4
	c3.7,0,6.7,0,9-0.2c0.3,0.3,0.5,0.7,0.7,1.1c0,1.6-0.3,3.6-0.5,5.4h-2.4l-0.8-3.9l-3.6-0.2h-0.8V23c-0.1,1.8,0,3.6,0.2,5.4
	c0.8,0.5,1.7,0.9,2.7,1.1L346,31h-9.3l-0.4-1.5L339.2,28.7z"/>
<path class="st0" d="M357,28.7c0.1-0.6,0.2-4.3,0.2-5.8v-5.6c0-1.9,0-5.1-0.3-5.4c-0.8-0.5-1.7-0.9-2.7-1l0.4-1.6h8
	c3.8,0,6.8,0,9.2-0.2c0.3,0.3,0.6,0.7,0.8,1.1c-0.2,1.4-0.7,3.8-0.9,5.3l-2.5-0.2l-0.6-3.7l-3.8-0.2h-3.4c-0.1,0.6-0.2,4.4-0.2,5.9
	v1.9l6.9-0.3l0.6,0.6l-0.4,2.1l-7.1-0.3v1.6c0,2,0,4.9,0.3,5.5s2.3,0.4,3.7,0.4l3.8-0.2l0.9-3.8c0.9-0.1,1.7,0,2.6,0.1
	c0.1,2,0.1,4,0,6h-17.9l-0.4-1.5L357,28.7z"/>
<path class="st0" d="M378.4,28.7c0.1-0.6,0.2-4.3,0.2-5.8v-5.6c0.1-1.8,0-3.6-0.2-5.4c-0.3-0.4-1.7-0.7-2.8-1l0.4-1.6h4.5l6-0.2
	c5.2,0,8.3,2.1,8.3,6.1s-2.1,4.6-4,5.6c1.3,2.5,3.7,6.8,4.4,7.9l2.4,0.8l-0.4,1.5h-5.5c-0.7-1.5-2.9-6.1-4.5-9.1h-4.6v1
	c0,2,0,5.1,0.3,5.4c0.8,0.5,1.7,0.9,2.7,1.1l-0.3,1.5H376l-0.4-1.5L378.4,28.7z M382.6,19.5l5.6,0.2c1.5-0.9,2.4-2.5,2.4-4.3
	c0-1.2-0.3-2.3-1.1-3.2c-1.1-0.6-2.4-0.9-3.7-0.8c-1,0-2,0.1-3,0.3c-0.1,0.6-0.2,4.2-0.2,5.8L382.6,19.5z"/>
<path class="st0" d="M402.7,28.7c0.1-0.6,0.2-4.3,0.2-5.8v-5.6c0-1.9,0-5.1-0.3-5.4s-1.7-0.7-2.7-1l0.4-1.6h9.3l0.3,1.6l-2.8,0.8
	c-0.1,0.5-0.2,4.2-0.2,5.8V23c0,2,0,5.1,0.3,5.4s1.7,0.8,2.7,1.1l-0.3,1.5h-9.3l-0.4-1.5L402.7,28.7z"/>
<path class="st0" d="M412.1,20.8c0-7.2,4.5-11.9,11-11.9s10.1,4.2,10.1,10.7s-4.4,11.9-10.8,11.9S412.1,27.3,412.1,20.8z M427,27.4
	c1.4-2.1,2-4.7,1.9-7.2c0-5.3-1.9-8.6-6.3-8.6c-1.5,0-3,0.5-4.3,1.3c-1.4,2.2-2.1,4.9-2,7.5c0,5.2,2.2,8.4,6.4,8.4
	C424.3,28.9,425.8,28.4,427,27.4z"/>
<path class="st0" d="M438.2,28.7c0.1-0.6,0.2-4.3,0.2-5.8v-5.6c0-1.9,0-5.1-0.3-5.4s-1.7-0.7-2.7-1l0.3-1.6h4.5l6-0.2
	c5.2,0,8.3,2.1,8.3,6.1s-2,4.6-4,5.6c1.3,2.5,3.7,6.8,4.4,7.9l2.4,0.8L457,31h-5.5l-4.5-9.1h-4.6v1c-0.1,1.8,0,3.6,0.2,5.4
	c0.9,0.5,1.8,0.9,2.8,1.1l-0.4,1.5h-9.3l-0.3-1.5L438.2,28.7z M442.4,19.5l5.6,0.2c1.5-0.9,2.4-2.5,2.4-4.3c0.1-1.2-0.4-2.3-1.2-3.2
	c-1.1-0.6-2.3-0.9-3.6-0.8c-1,0-2,0.1-3,0.3c-0.1,0.6-0.2,4.2-0.2,5.8L442.4,19.5z"/>
<path class="st0" d="M462.5,28.7c0-0.6,0.1-4.3,0.1-5.8v-5.6c0.1-1.8,0-3.6-0.2-5.4c-0.8-0.5-1.7-0.9-2.7-1l0.3-1.6h8.1
	c3.7,0,6.7,0,9.2-0.2c0.3,0.3,0.5,0.7,0.7,1.1c-0.2,1.4-0.6,3.8-0.8,5.3l-2.5-0.2l-0.7-3.7l-3.8-0.2h-3.3c-0.1,0.6-0.2,4.4-0.2,5.9
	v1.9l6.9-0.3l0.5,0.6l-0.4,2.1l-7-0.3v1.6c0,2-0.1,4.9,0.2,5.5c1.2,0.3,2.5,0.5,3.8,0.4l3.8-0.2l0.8-3.8c0.9-0.1,1.8,0,2.7,0.1
	c0.1,2,0.1,4,0,6h-18l-0.3-1.5L462.5,28.7z"/>
<path class="st0" d="M496.8,10.5l0.5,0.9c-0.2,1.4-0.7,3.7-0.9,4.7h-2.5c-0.1-1.2-0.3-2.5-0.6-3.7c-1-0.7-2.2-1-3.4-0.9
	c-1.1-0.1-2.3,0.3-3.2,0.9c-0.5,0.6-0.7,1.4-0.7,2.2c0,5.2,11.6,3.8,11.6,10.9c0,3.6-3.1,6.1-8.2,6.1c-2.6-0.1-5.2-0.7-7.6-1.9v-0.3
	c0-1.4,0-3.2,0.1-4.6c0.9-0.1,1.8-0.2,2.7-0.1c0.3,1.5,0.5,2.4,0.8,3.4c1.3,0.7,2.7,1.1,4.2,1c1.1,0.1,2.2-0.2,3.2-0.6
	c0.5-0.7,0.7-1.5,0.7-2.3c0-4.9-11.5-3.4-11.5-10.8c0-3.8,3.7-6.4,8.4-6.4C492.6,8.9,494.8,9.4,496.8,10.5z"/>
<path class="st1" d="M62.7,44.5c-0.3,0-0.6-0.2-0.8-0.4l0.3-0.8l0.7,0.4h1.5c0.1-0.1,0.2-0.2,0.2-0.4c0-0.1,0-0.1-0.1-0.2
	c-0.1-0.1-0.2-0.2-0.4-0.2h-0.5l-0.8-0.3c-0.2-0.1-0.4-0.2-0.6-0.4c-0.3-0.4-0.3-1,0-1.4c0.1-0.2,0.3-0.4,0.6-0.5
	c0.3-0.2,0.7-0.2,1.1-0.2h0.8c0.3,0.1,0.5,0.1,0.7,0.3l-0.3,0.8c-0.3-0.3-0.8-0.4-1.2-0.4L63.2,41c-0.1,0.1-0.2,0.2-0.2,0.3
	c0,0.2,0.1,0.3,0.2,0.4l0.8,0.2l0.8,0.2l0.6,0.4c0.3,0.5,0.3,1,0,1.5c-0.1,0.2-0.3,0.3-0.6,0.5l-1.1,0.2L62.7,44.5z"/>
<path class="st1" d="M70.8,43.7v0.9h-3.5v-4.5h3.4v0.8h-2.4v1h2.1v0.8h-2.1v1L70.8,43.7z"/>
<path class="st1" d="M73.4,44.4c-0.4-0.2-0.7-0.5-0.9-0.9c-0.2-0.4-0.3-0.8-0.3-1.2c0-0.4,0.1-0.8,0.3-1.2c0.2-0.3,0.5-0.6,0.9-0.8
	c0.4-0.2,0.8-0.3,1.2-0.3c0.4,0,0.8,0,1.1,0.2c0.3,0.1,0.6,0.3,0.8,0.6l-0.7,0.6c-0.3-0.3-0.7-0.5-1.1-0.5c-0.3,0-0.6,0-0.8,0.2
	c-0.2,0.1-0.4,0.3-0.5,0.5c-0.1,0.2-0.2,0.5-0.2,0.7c0,0.3,0.1,0.5,0.2,0.8c0.1,0.2,0.3,0.4,0.5,0.5l0.8,0.2c0.4,0,0.8-0.2,1.1-0.6
	l0.7,0.6c-0.2,0.3-0.5,0.5-0.8,0.7l-1.1,0.2C74.2,44.7,73.8,44.6,73.4,44.4z"/>
<path class="st1" d="M80.9,44.6L80,43.3h-0.9v1.3H78v-4.5h2c0.3,0,0.7,0,1,0.2c0.3,0.1,0.5,0.3,0.7,0.5c0.3,0.6,0.3,1.2,0,1.8
	c-0.2,0.2-0.4,0.4-0.7,0.5l1,1.5H80.9z M80.6,41.1l-0.7-0.2h-0.8v1.6h0.8l0.7-0.2c0.2-0.2,0.3-0.4,0.3-0.6
	C80.9,41.5,80.8,41.2,80.6,41.1z"/>
<path class="st1" d="M87.2,43.7v0.9h-3.5v-4.5h3.4v0.8h-2.4v1h2.1v0.8h-2.1v1L87.2,43.7z"/>
<path class="st1" d="M89.9,40.9h-1.5v-0.8h4v0.8h-1.5v3.7h-1V40.9z"/>
<path class="st1" d="M96.3,43.6h-2.1l-0.4,1h-1l2-4.5h1l2,4.5h-1.1L96.3,43.6z M96,42.8l-0.7-1.7l-0.7,1.7H96z"/>
<path class="st1" d="M102.1,44.6l-0.9-1.3h-0.9v1.3h-1.1v-4.5h2c0.3,0,0.7,0,1,0.2c0.3,0.1,0.5,0.3,0.7,0.5c0.3,0.6,0.3,1.2,0,1.8
	c-0.2,0.2-0.4,0.4-0.7,0.5l1,1.5H102.1z M101.8,41.1l-0.7-0.2h-0.8v1.6h0.8l0.7-0.2c0.2-0.2,0.3-0.4,0.3-0.6
	C102.1,41.5,102,41.2,101.8,41.1z"/>
<path class="st1" d="M105.7,38.8h1.1l-1.2,0.9h-0.8L105.7,38.8z M104.9,40.1h1v4.5h-1V40.1z"/>
<path class="st1" d="M110.9,43.6h-2.1l-0.4,1h-1.1l2-4.5h1l2.1,4.5h-1.1L110.9,43.6z M110.5,42.8l-0.7-1.7l-0.7,1.7H110.5z"/>
<path class="st1" d="M116.5,40.1h2c0.4-0.1,0.9,0,1.3,0.2c0.4,0.2,0.7,0.5,0.9,0.8c0.2,0.4,0.3,0.8,0.3,1.2c0,0.4-0.1,0.8-0.3,1.2
	c-0.2,0.3-0.5,0.6-0.9,0.8c-0.4,0.2-0.8,0.3-1.3,0.3h-2V40.1z M118.5,43.7c0.4,0,0.8-0.1,1.1-0.4c0.6-0.5,0.6-1.4,0-2c0,0,0,0,0,0
	c-0.3-0.3-0.7-0.4-1.1-0.4h-1v2.8L118.5,43.7z"/>
<path class="st1" d="M126.2,43.7v0.9h-3.5v-4.5h3.4v0.8h-2.4v1h2.1v0.8h-2.1v1L126.2,43.7z"/>
<path class="st1" d="M133.6,44.6l-0.9-1.3h-1v1.3h-1v-4.5h1.9c0.4,0,0.8,0,1.1,0.2c0.3,0.1,0.5,0.3,0.7,0.5c0.3,0.6,0.3,1.2,0,1.8
	c-0.2,0.2-0.4,0.4-0.7,0.5l1,1.5H133.6z M133.3,41.1l-0.7-0.2h-0.9v1.6h0.9l0.7-0.2c0.2-0.2,0.2-0.4,0.2-0.6
	C133.5,41.4,133.5,41.2,133.3,41.1z"/>
<path class="st1" d="M139.8,43.7v0.9h-3.5v-4.5h3.4v0.8h-2.3v1h2.1v0.8h-2.1v1L139.8,43.7z"/>
<path class="st1" d="M141.6,40.1h1v3.6h2.3v0.9h-3.3V40.1z"/>
<path class="st1" d="M149.6,43.6h-2.1l-0.4,1H146l2-4.5h1.1l2,4.5H150L149.6,43.6z M149.3,42.8l-0.8-1.7l-0.7,1.7H149.3z"/>
<path class="st1" d="M153.2,44.4c-0.4-0.2-0.7-0.5-0.9-0.9c-0.2-0.4-0.3-0.8-0.3-1.2c0-0.4,0.1-0.8,0.3-1.2c0.5-0.7,1.3-1.1,2.1-1.1
	c0.4,0,0.8,0,1.1,0.2c0.3,0.1,0.6,0.3,0.8,0.6l-0.7,0.6c-0.3-0.3-0.7-0.5-1.1-0.5c-0.3,0-0.6,0-0.8,0.2c-0.2,0.1-0.4,0.3-0.5,0.5
	c-0.1,0.2-0.2,0.5-0.2,0.7c0,0.3,0.1,0.5,0.2,0.8c0.1,0.2,0.3,0.4,0.5,0.5l0.8,0.2c0.4,0,0.8-0.2,1.1-0.6l0.7,0.6
	c-0.2,0.3-0.5,0.5-0.8,0.7l-1.1,0.2C154,44.7,153.6,44.6,153.2,44.4z"/>
<path class="st1" d="M157.8,40.1h1.1v4.5h-1.1V40.1z"/>
<path class="st1" d="M161.8,44.4c-0.4-0.2-0.7-0.5-0.9-0.9c-0.2-0.4-0.3-0.8-0.3-1.2c0-0.4,0.1-0.8,0.3-1.2c0.5-0.7,1.3-1.1,2.1-1.1
	c0.5,0,0.9,0.1,1.3,0.3c0.4,0.2,0.7,0.5,0.9,0.8c0.2,0.4,0.3,0.8,0.3,1.2c0,0.4-0.1,0.8-0.3,1.2c-0.2,0.4-0.5,0.7-0.9,0.9
	c-0.4,0.2-0.8,0.3-1.3,0.3C162.6,44.7,162.2,44.6,161.8,44.4z M163.8,43.6c0.2-0.1,0.3-0.3,0.5-0.5c0.1-0.3,0.1-0.5,0.1-0.8
	c0-0.2,0-0.5-0.1-0.7c-0.1-0.2-0.3-0.4-0.5-0.5c-0.2-0.2-0.5-0.2-0.8-0.2c-0.3,0-0.5,0-0.7,0.2c-0.2,0.1-0.4,0.3-0.5,0.5
	c-0.1,0.2-0.2,0.5-0.2,0.7c0,0.3,0.1,0.5,0.2,0.8l0.5,0.5l0.7,0.2L163.8,43.6z"/>
<path class="st1" d="M171.3,40.1v4.5h-0.8l-2.3-2.8v2.8h-1v-4.5h0.8l2.3,2.7v-2.7H171.3z"/>
<path class="st1" d="M176.8,43.7v0.9h-3.5v-4.5h3.4v0.8h-2.4v1h2.1v0.8h-2.1v1L176.8,43.7z"/>
<path class="st1" d="M179,44.5l-0.8-0.4l0.3-0.8l0.7,0.4h1.5c0.1-0.1,0.2-0.2,0.2-0.4c0-0.1,0-0.2-0.1-0.2l-0.3-0.2h-0.6l-0.8-0.3
	l-0.6-0.4c-0.1-0.2-0.2-0.5-0.2-0.7c0-0.3,0-0.5,0.2-0.7c0.1-0.2,0.3-0.4,0.6-0.5c0.3-0.2,0.7-0.2,1.1-0.2h0.8l0.8,0.3l-0.4,0.8
	c-0.3-0.3-0.8-0.4-1.2-0.4l-0.7,0.2c-0.1,0.1-0.2,0.2-0.2,0.3s0.1,0.3,0.3,0.4l0.7,0.2l0.8,0.2c0.2,0.1,0.4,0.2,0.6,0.4
	c0.3,0.5,0.3,1,0,1.5c-0.1,0.2-0.3,0.3-0.6,0.5l-1.1,0.2L179,44.5z"/>
<path class="st1" d="M189.8,43.7v0.9h-3.5v-4.5h3.4v0.8h-2.4v1h2.1v0.8h-2.1v1L189.8,43.7z"/>
<path class="st1" d="M194.5,44.6l-1.1-1.6l-1.1,1.6h-1.2l1.7-2.3l-1.6-2.2h1.2l1,1.4l1-1.4h1.2l-1.6,2.1l1.7,2.4H194.5z"/>
<path class="st1" d="M198.2,40.9h-1.4v-0.8h3.9v0.8h-1.4v3.7h-1.1V40.9z"/>
<path class="st1" d="M205.7,43.7v0.9h-3.5v-4.5h3.4v0.8h-2.4v1h2.1v0.8h-2.1v1L205.7,43.7z"/>
<path class="st1" d="M210.3,44.6l-0.9-1.3h-0.9v1.3h-1.1v-4.5h2c0.3,0,0.7,0,1,0.2c0.3,0.1,0.5,0.3,0.7,0.5c0.3,0.6,0.3,1.2,0,1.8
	c-0.2,0.2-0.4,0.4-0.7,0.5l1,1.5H210.3z M210,41.1l-0.7-0.2h-0.8v1.6h0.8l0.7-0.2c0.2-0.2,0.3-0.4,0.3-0.6
	C210.3,41.5,210.2,41.2,210,41.1z"/>
<path class="st1" d="M213.1,40.1h1v4.5h-1V40.1z"/>
<path class="st1" d="M217,44.4c-0.4-0.2-0.7-0.5-0.9-0.9c-0.2-0.4-0.3-0.8-0.3-1.2c0-0.4,0.1-0.8,0.3-1.2c0.2-0.3,0.5-0.6,0.9-0.8
	c0.4-0.2,0.8-0.3,1.3-0.3c0.8,0,1.6,0.4,2.1,1.1c0.2,0.4,0.3,0.8,0.3,1.2c0,0.4-0.1,0.8-0.3,1.2c-0.2,0.4-0.5,0.7-0.9,0.9
	c-0.4,0.2-0.8,0.3-1.2,0.3C217.8,44.7,217.4,44.6,217,44.4z M219,43.6c0.2-0.1,0.4-0.3,0.5-0.5c0.1-0.3,0.2-0.5,0.2-0.8
	c0-0.2-0.1-0.5-0.2-0.7c-0.1-0.2-0.3-0.4-0.5-0.5c-0.2-0.2-0.4-0.2-0.7-0.2c-0.3,0-0.6,0-0.8,0.2c-0.2,0.1-0.4,0.3-0.5,0.5
	c-0.1,0.2-0.2,0.5-0.2,0.7c0,0.3,0.1,0.5,0.2,0.8c0.2,0.2,0.3,0.4,0.5,0.5l0.8,0.2L219,43.6z"/>
<path class="st1" d="M225.3,44.6l-0.9-1.3h-0.9v1.3h-1.1v-4.5h2c0.3,0,0.7,0,1,0.2c0.3,0.1,0.5,0.3,0.7,0.5c0.3,0.6,0.3,1.2,0,1.8
	c-0.2,0.2-0.4,0.4-0.7,0.5l1,1.5H225.3z M225,41.1l-0.7-0.2h-0.8v1.6h0.8l0.7-0.2c0.2-0.2,0.3-0.4,0.3-0.6
	C225.3,41.5,225.2,41.2,225,41.1z"/>
<path class="st1" d="M231.5,43.7v0.9H228v-4.5h3.5v0.8h-2.4v1h2.1v0.8h-2.1v1L231.5,43.7z"/>
<path class="st1" d="M233.7,44.5c-0.3-0.1-0.6-0.2-0.8-0.4l0.4-0.8l0.7,0.4h1.5c0.1-0.1,0.2-0.2,0.2-0.4c0-0.1-0.1-0.2-0.2-0.2
	l-0.3-0.2h-0.5l-0.9-0.3c-0.2-0.1-0.4-0.2-0.5-0.4c-0.2-0.2-0.3-0.4-0.3-0.7c0-0.2,0.1-0.5,0.2-0.7c0.2-0.2,0.4-0.4,0.7-0.5
	c0.3-0.2,0.7-0.2,1-0.2h0.9c0.3,0.1,0.5,0.1,0.7,0.3l-0.3,0.8c-0.4-0.3-0.8-0.4-1.3-0.4c-0.2,0-0.4,0.1-0.6,0.2
	c-0.2,0.1-0.2,0.2-0.2,0.3c0,0.2,0.1,0.3,0.2,0.4l0.8,0.2l0.8,0.2l0.6,0.4c0.1,0.2,0.2,0.5,0.2,0.8c0,0.2-0.1,0.5-0.2,0.7l-0.7,0.5
	l-1,0.2L233.7,44.5z"/>
<path class="st1" d="M46,24.9c-0.1-1.3-0.4-2.5-0.9-3.7L44.8,21h-0.2c0.4,1.1,0.7,2.3,0.8,3.5c0.1,0.8,0,1.6-0.3,2.3
	c-0.1,0.6-0.1,1.2,0,1.8c0,0.3-0.2,0.4-0.3,0.4s-0.2-0.1-0.2-0.4c-0.1-0.6-0.1-1.2-0.1-1.8l0,0c0-0.8-0.1-1.7-0.2-2.5
	c-0.3-0.7-0.7-1.3-1.2-1.8l-0.7-1.4c0-0.1,0-0.2-0.1-0.3c0-0.2,0-0.3-0.1-0.4L42,19.6h-0.2l-0.3,0.2c-0.1,0-0.1,0-0.1,0.1
	s0,0.1,0.1,0.1l0,0l0.6,2.3c0.2,0.4,0.5,0.8,0.8,1.1l0,0l0.5,0.6c0.2,0.3,0.4,0.7,0.4,1.1c0.1,0.8,0.2,1.8,0.3,3.4l0.4,2.3
	c0.1,0.8,0.1,1.7-0.1,2.5c0,0.2,0,0.3,0.1,0.5l0,0c0.1,0,0.2,0,0.4-0.3s0.6-3.3,0.6-5.4c0-0.6,0.1-1.1,0.3-1.7
	C45.9,25.9,46,25.4,46,24.9"/>
<path class="st1" d="M43.8,21.5v-0.4c0-0.1,0-0.2-0.1-0.2c-0.1-0.2-0.2-0.3-0.4-0.4h-0.2c0.1,0.8,0.5,1.6,1.1,2.1h0.1v-0.2L44,21.7
	c-0.1-0.1-0.1-0.2-0.1-0.3"/>
<path class="st1" d="M41,27.5L41,27.5c-0.2,0-0.3-0.1-0.3-0.3c-0.3-0.6-0.5-1.2-0.6-1.9c0-0.3-0.1-0.6-0.2-0.9
	c0-0.5-0.3-0.9-0.7-1.2c-0.8-0.6-1.4-1.5-1.8-2.5c-0.1-0.2-0.2-0.3-0.4-0.3h-0.1c-0.1,0.2-0.1,0.3,0,0.5c0.2,0.5,0.5,1,0.8,1.5
	l0.3,0.3h0.1c0.4,0.3,0.8,0.7,1.1,1.1c0.2,0.4,0.4,0.8,0.4,1.2c0,0.1,0,0.2,0.1,0.3l0,0c0.2,1.1,0.6,2.2,1.1,3.2
	c0.2,0.3,0.3,0.7,0.3,1.1l0.2,1.3c0.1,0.3,0.2,0.4,0.3,0.4l0,0c0.1-0.1,0.1-0.2,0.1-0.4c0-1.3-0.1-2.6-0.2-3.9
	c-0.1-1.1-0.3-2.2-0.8-3.2c-0.1-0.2-0.2-0.2-0.3-0.2h-0.1c0,0.1,0,0.1,0.1,0.2c0.4,1,0.7,2.1,0.7,3.2L41,27.5L41,27.5z"/>
<path class="st1" d="M38.5,20.6c0-0.1-0.2-0.2-0.3-0.2h-0.1c0.2,0.6,0.5,1.2,0.9,1.6h0.2v-0.2c-0.3-0.5-0.5-1-0.7-1.5"/>
<path class="st1" d="M42.9,27.6L42.9,27.6l-0.3-0.2c-0.1-0.1-0.1-0.2-0.1-0.3l-0.4-2.3c-0.1-0.7-0.4-1.3-0.8-1.8
	c-0.8-0.8-1.4-1.8-1.7-2.9c-0.1-0.3-0.2-0.4-0.3-0.4c-0.1,0.1-0.1,0.2-0.1,0.3v0.4c0.3,1,0.8,1.9,1.5,2.6c0.4,0.4,0.7,0.9,0.8,1.4
	l0,0c0,0.2,0.1,0.5,0.1,0.8l0,0c0.3,1.2,0.6,2.5,1,3.6c0.2,0.3,0.3,0.7,0.3,1.1c0,0.8,0.1,1.4,0.1,1.8c0,0.4,0.2,0.5,0.3,0.5
	l0.2-0.4c0.1-1.5,0.1-2.9,0-4.4c-0.1-1-0.2-1.7-0.3-2.4c-0.1-0.3-0.3-0.6-0.5-0.9l-0.2-0.2v0.2c0.2,1,0.4,2,0.5,3
	c0,0.2,0,0.3-0.1,0.4V27.6z"/>
<path class="st1" d="M41.4,22c-0.2-0.3-0.4-0.6-0.5-1v-0.6c0-0.1,0-0.2-0.1-0.3l-0.4-0.2h-0.1c0.1,0.8,0.5,1.6,1.1,2.2h0.2
	c0-0.1-0.1-0.2-0.1-0.3"/>
<path class="st1" d="M38.9,27.5L38.9,27.5c0,0.2,0.1,0.3,0.1,0.5l0.2,0.3h0.2c0.1,0,0.1,0,0.1-0.1v-0.4c-0.1-2.3-0.4-3.6-1-4.3h-0.2
	v0.3c0.1,0.4,0.2,0.7,0.3,1.1c0.1,0.1,0,0.2,0,0.3h0c-0.1,0-0.2-0.1-0.3-0.3c-0.2-0.6-0.7-1.1-1.2-1.5c-0.6-0.4-1.2-0.8-1.7-1.3
	c-0.2-0.2-0.4-0.5-0.5-0.8h-0.1c-0.1,0-0.2,0.2-0.3,0.3s0,0.2,0.1,0.2c0.3,0.7,0.8,1.2,1.5,1.6c0.9,0.4,1.6,1.1,2,2
	C38.5,26.3,38.7,27,38.9,27.5"/>
<path class="st1" d="M35.8,21h-0.3c0.3,0.5,0.7,0.9,1.2,1.2h0.2c0-0.1,0-0.1-0.1-0.2c-0.4-0.3-0.7-0.7-0.8-1.1h-0.2"/>
<path class="st1" d="M33.6,23.4L33.6,23.4l0.8,0.3l0.6,0.4l1.2,1.4l0,0l1,1.2c0,0.1,0.1,0.1,0.2,0.1h0.1v-0.3
	c-0.3-0.8-0.6-1.6-1-2.4c-0.1-0.2-0.3-0.3-0.5-0.3l0,0l0.2,0.4H36c-0.2-0.3-0.4-0.6-0.7-0.8L35,23.2l-0.9-0.4
	c-0.2,0-0.5-0.2-0.6-0.4c-0.3-0.1-0.5-0.3-0.7-0.6h-0.1c-0.1,0-0.1,0-0.1,0.1s-0.1,0.2,0,0.3l0.6,0.6l0.4,0.2"/>
<path class="st1" d="M42.2,32.6c-0.5-0.2-1-0.5-1.4-0.9l-7.4-5.3h-0.2c-0.1,0.1,0,0.4,0.2,0.5l7.8,5.7h0.1l0.3,0.3
	c0,0.2-0.1,0.3-0.2,0.4l-0.7,0.2c-0.5,0-1-0.2-1.4-0.6l-6-4.8h-0.2v0.3l0.2,0.3l6,4.8c0.4,0.2,0.8,0.3,1.3,0.3
	c0.6,0,1.2-0.3,1.7-0.7C42.4,33,42.3,32.8,42.2,32.6"/>
<path class="st1" d="M39.3,32.2c0.3,0.3,0.6,0.5,0.9,0.6h0.2c0.1,0,0-0.1-0.1-0.2l-6.9-5.4h-0.1c-0.1,0.1,0,0.2,0.2,0.4L39.3,32.2z"
	/>
<path class="st1" d="M37.6,32.5l-4.5-3.7h-0.2c0,0.1,0,0.2,0.1,0.3l4.3,3.7l0.6,0.5h0.2c0.1,0,0.2,0,0.2-0.1l0,0L37.6,32.5z"/>
<path class="st1" d="M34.1,22.7h0.2l-0.2-0.3l-0.4-0.2h-0.2c-0.1,0-0.1,0-0.1,0.1l0,0l0.7,0.5"/>
<path class="st1" d="M38.4,34.2l0.7-0.2c0.1,0,0.1,0,0.1-0.1c0-0.1-0.1-0.1-0.1-0.2h-0.6c-0.4,0-0.8-0.1-1.1-0.4l-2.7-2.4h-0.1
	l-1.7-1.5c0-0.1,0-0.1-0.1-0.1h-0.1v0.2c0.1,0,0.1,0.1,0.2,0.2l0.2,0.2l3.9,3.6c0.3,0.2,0.6,0.4,0.9,0.6h0.5"/>
<path class="st1" d="M32.3,29.8l3.2,3.3l0.8,0.5l0,0c-1.1-0.9-2.1-1.9-3-2.9c-0.1,0-0.2-0.1-0.2-0.2v0H33l-0.6-0.6L32.3,29.8"/>
<path class="st1" d="M36.8,34.4h0.3c0-0.1,0-0.2-0.2-0.2c-0.5-0.1-0.9-0.2-1.3-0.5c-1.2-1.1-2.3-2.2-3.4-3.4H32c0,0.1,0,0.2,0.1,0.3
	v0.3h0.1c0.6,0.7,1.5,1.5,2.6,2.6c0.3,0.4,0.7,0.7,1.1,0.9l0.8,0.2"/>
<path class="st1" d="M35.1,34L35.1,34c0.1-0.1,0-0.2-0.1-0.3s-1.3-0.9-2.1-1.7l-0.4-0.5h-0.1l1.6,1.8c0.3,0.3,0.7,0.5,1.1,0.5
	L35.1,34z"/>
<path class="st1" d="M15,14.3h0.8l0.6-0.5h0.3l0.7,0.2c0,0.1,0.1,0.2,0,0.3h-1.1c-0.6,0.2-0.8,0.5-0.8,1.2l0,0c0,0.1,0,0.4-0.2,0.4
	L15,15.7c-0.4-0.3-0.5-1-0.2-1.4c0.1-0.1,0.1-0.1,0.2-0.2 M14.3,14.6c-0.2,0.2-0.2,0.5-0.1,0.8c0.2,0.8,0.9,1.4,1.7,1.4H16
	c0.2,0,0.3-0.1,0.3-0.2s0-0.1-0.1-0.2c-0.3-0.3-0.5-0.7-0.4-1.1c0.2-0.4,0.6-0.6,1.1-0.6h0.3l0.7-0.2c0.2-0.3,0.6-0.4,0.9-0.4h0.4
	c0.1,0.1,0.1,0.3,0,0.4l-0.4,0.2L18.1,15c0,0.1-0.1,0.1,0,0.1h0.6c0.5-0.2,1-0.5,1.4-0.9c0.1-0.1,0.1-0.2,0-0.3c0,0,0,0,0,0
	c-0.3-0.3-0.7-0.5-1.2-0.5h-1.6l-0.9-0.3h-0.9c0.1,0,0.1,0,0.1,0.1v0c0.1,0.1,0.2,0.1,0.1,0.2l-0.3,0.2h-0.5l-0.6,0.8"/>
<path class="st1" d="M16,12.8l0.7,0.2h0.2c0.1-0.2,0.2-0.4,0.2-0.6l0.4-0.8h0.1c0.2-0.1,0.2-0.2,0.3-0.4c0.1-0.3,0-0.7-0.2-0.9v0.2
	l0,0c-0.1,0.6-0.4,1.1-0.9,1.4h-0.2l-0.5,0.4c-0.2,0.2-0.2,0.3-0.2,0.4v0.1"/>
<path class="st1" d="M17.6,11.9c0,0-0.1,0,0,0.1s0.1,0.7-0.3,1s-0.1,0.2,0,0.2h0.2c0.4-0.1,0.6-0.5,0.5-0.9c0,0,0-0.1-0.1-0.1
	C17.8,12,17.7,12,17.6,12"/>
<path class="st1" d="M18.4,10.8c0.1-0.1,0.1-0.2,0.1-0.3c0-0.1,0-0.4,0.2-0.4s0.1,0.2,0.2,0.2H19c0-0.3-0.1-0.6-0.3-0.8h-0.1
	c-0.2,0.4-0.3,0.8-0.3,1.2h0.1"/>
<path class="st1" d="M18.3,11.6L18.3,11.6c1.3-0.6,1.6-1.4,1.6-1.8c0.1-0.4,0-0.8-0.3-1l0,0c0.1,0.6,0,1.2-0.3,1.7l-1,0.7v0.2h-0.1
	c0,0.1,0.1,0.1,0.2,0.1"/>
<path class="st1" d="M19.9,11.7l-1,0.6l-0.5,0.3l0,0c0.7-0.2,1.3-0.5,1.8-1c0.4-0.3,0.5-0.6,0.4-0.9h-0.3c-0.6,0.4-1.2,0.8-1.8,1.1
	h-0.1c0,0.1,0,0.1,0.1,0.1c0.5-0.2,0.9-0.4,1.3-0.7h0.3c0.1,0.1-0.1,0.2-0.2,0.3"/>
<path class="st1" d="M18.1,13.4h0.4c0.6-0.3,1.2-0.5,1.8-0.7c0.1,0,0.2-0.1,0.2,0s0.2,0.2,0,0.4l-0.8,0.3h0.2c0.8-0.1,1.1-0.4,1-0.9
	c-0.1-0.1-0.2-0.2-0.4-0.2h-0.7l-1.3,0.6l-0.4,0.2C18,13.2,17.8,13.4,18.1,13.4"/>
<path class="st1" d="M20.5,10c0.2-0.2,0.5-0.7,0.6-0.4c0.1,0.3,0,0.6-0.1,0.8c-0.1,0.1,0,0.2,0.1,0.2h0.1c0.2-0.4,0.3-0.8,0.2-1.2
	c0-0.2-0.1-0.4-0.3-0.6h-0.2l-0.2,0.4c0,0.2-0.1,0.4-0.2,0.5c-0.1,0.1-0.2,0.2-0.2,0.3H20.5"/>
<path class="st1" d="M21.7,10.6c0.4,0.1,0.8,0.3,1.1,0.5h0.3l0.9,0.4h0.2c0.3-0.2,0.5-0.5,0.5-0.9h-0.8c-0.6-0.3-1.3-0.5-2-0.6h-0.1
	c0.8,0.2,1.5,0.5,2.1,0.9h-0.2c-0.6-0.3-1.2-0.6-1.9-0.8h-0.2v0.2"/>
<path class="st1" d="M20.9,14.1c-0.1,0-0.2-0.2-0.3-0.4h-0.1v0.2c0.1,0.2,0.2,0.4,0.4,0.6h0.2c0.2,0,0.3-0.1,0.3-0.3
	c0-0.3-0.2-0.6-0.4-0.7l0,0c0.1,0.1,0.2,0.3,0.2,0.5H21"/>
<path class="st1" d="M21.9,13.6c-0.1,0-0.4-0.4-0.4-0.6h-0.2c0.1,0.3,0.2,0.6,0.4,0.8H22c0.3,0,0.5-0.2,0.6-0.4
	c0.1-0.1,0.2-0.3,0.1-0.4c0,0-0.1-0.1-0.1-0.1c-0.4-0.4-0.9-0.7-1.4-0.9l0,0c0.1,0.2,0.3,0.3,0.4,0.4l0,0c0.3,0.1,0.5,0.3,0.6,0.5
	c0.1,0.1,0.1,0.2,0.1,0.3c-0.1,0-0.2,0.2-0.4,0.2"/>
<path class="st1" d="M21.1,11.7L21.1,11.7c0.6,0.5,1.3,0.9,2,1.2h0.5c0.1-0.2,0.2-0.5,0.1-0.7c-0.6-0.6-1.4-1-2.3-1.2h0.1
	c0.6,0.2,1.1,0.5,1.6,0.9l0,0l0.2,0.3c0,0.1-0.1,0.2-0.2,0.2l0,0H23l-0.5-0.2h-0.1l-1.2-0.5H21.1z"/>
<path class="st1" d="M37.5,10.4v0.2c2.9,2.3,5.2,5.3,6.7,8.7c0,0.1,0,0.3-0.1,0.3H44l-0.6-0.2c-0.6-0.5-1.1-1-1.6-1.6
	c-1.6-2.6-3.7-4.8-6.2-6.6h-0.2c0,0.2,0.1,0.3,0.2,0.4c1.9,1.3,4,3.6,6.3,7.2c0.8,1.1,2,1.7,3.3,1.6h0.6c0-0.1,0-0.1-0.1-0.2
	c-0.6-0.4-0.9-1-1.1-1.7c-1.6-3.2-3.9-6-6.8-8.1H37.5"/>
<path class="st1" d="M43.1,18.8l0.3,0.2h0.1c0.1-0.1,0-0.2-0.1-0.4c-1.6-3-3.8-5.6-6.6-7.5h-0.5l0.3,0.2
	C39.2,13.4,41.4,16,43.1,18.8"/>
<path class="st1" d="M40.4,18.8c-0.2,0-0.3-0.1-0.4-0.3c-1.3-1.8-2.8-3.4-4.5-4.8h-0.1c-0.1,0.2-0.1,0.4,0,0.6c1.1,1,2.2,2,3.1,3.2
	l0,0l1.6,1.8l0.7,0.2l0.4-0.2c0.1-0.2,0.2-0.3,0.1-0.5c-1.3-2.5-3.3-4.7-5.6-6.3h-0.1c-0.1,0.1,0,0.4,0.2,0.5
	c1.8,1.6,3.3,3.4,4.7,5.3c0.1,0.1,0.1,0.3,0.1,0.4h-0.2"/>
<path class="st1" d="M35.1,14.8L35.1,14.8c-0.1,0.1-0.1,0.3,0,0.4c1.2,1,2.2,2.2,3.2,3.4c0.1,0.2,0.1,0.3,0,0.5
	c0,0.2-0.2,0.3-0.4,0.3c-0.2,0-0.3-0.1-0.4-0.2l-2.1-2c-0.3-0.3-0.6-0.6-0.9-0.9h-0.1c-0.1,0.1-0.1,0.3,0,0.4l2.1,2.3
	c0.3,0.3,0.7,0.6,1.1,0.8h0.5l0.7-0.2c0.1-0.3,0.1-0.5,0-0.8C37.8,17.2,36.6,15.9,35.1,14.8z"/>
<path class="st1" d="M34.5,15.4v0.2c0.9,1.1,1.9,2.1,3,3h0.2c0-0.1,0-0.1-0.1-0.1c-0.9-1.2-1.9-2.3-3.1-3.2L34.5,15.4z"/>
<path class="st1" d="M34.2,17.1h-0.3c0,0.1,0,0.2,0.1,0.3c0.7,0.6,1.3,1.2,1.8,2c0.1,0.1,0.1,0.3,0,0.4c0,0.2-0.2,0.3-0.4,0.3
	L35,19.9c-0.7-0.4-1.3-0.9-1.8-1.5H33v0.3c0.6,0.7,1.2,1.3,2,1.8h0.7c0.2,0,0.5-0.1,0.6-0.3c0.1-0.1,0.1-0.4,0-0.8
	c-0.5-0.9-1.3-1.7-2.1-2.4"/>
<path class="st1" d="M33.4,17.9l1.8,1.7h0.2c-0.6-0.8-1.3-1.5-2.1-2c0,0.2,0,0.3,0.1,0.4"/>
<path class="st1" d="M33.2,21.6c0.3,0,0.7-0.2,0.9-0.4c0.1-0.2,0.1-0.4,0.1-0.6c-0.4-0.6-0.9-1.1-1.5-1.6h-0.2v0.2
	c0.4,0.3,0.8,0.7,1.1,1.2c0.1,0.1,0.1,0.4,0,0.5c-0.1,0.2-0.3,0.3-0.5,0.3h-0.3l-1.1-1h-0.1c0,0.1,0,0.1-0.1,0.1l0,0v0.2
	c0.3,0.5,0.8,1,1.4,1.2h0.3"/>
<path class="st1" d="M32.7,20.5h0.4c0-0.1,0-0.2-0.1-0.3c-0.2-0.3-0.5-0.6-0.9-0.8H32c-0.1,0-0.2,0.1-0.2,0.2v0
	c0,0.1,0.1,0.1,0.2,0.2l0.7,0.8"/>
<path class="st1" d="M32,21.5l-0.8-0.9H31v0.2l0.5,0.6c0.1,0.1,0.2,0.2,0.1,0.3c0,0.2-0.1,0.4-0.3,0.5l0,0L31,22.5v0.2
	c0,0.1,0,0.1,0.1,0.1l0,0h0.1l0.7-0.6C32.1,22,32.2,21.7,32,21.5L32,21.5"/>
<path class="st1" d="M30.9,21.9h0.2v-0.2L30.7,21h-0.3L30.9,21.9z"/>
<path class="st1" d="M31,9.5l0.4,0.4c1.1,0.3,2.2,0.9,3.1,1.6c0.1,0.1,0.2,0.2,0.1,0.4h-0.5c-0.8-0.6-1.7-1.1-2.6-1.4l0,0
	c0,0.1,0,0.2,0.1,0.3c1,0.4,1.9,0.9,2.8,1.6h0.3c0.2,0,0.3,0,0.3-0.1s0-1.1-0.7-1.6c-1-0.5-2.1-1-3.2-1.4L31,9.5z"/>
<path class="st1" d="M31.7,11.4L31.7,11.4c-0.1,0,0,0.2,0.1,0.2l0.9,0.6c0.7,0.4,1.4,0.8,1.5,1.1c0.2,0.2,0.2,0.4,0.1,0.6
	c-0.1,0.2-0.2,0.2-0.4,0.2h-0.2l-1.6-0.9l0,0c-0.1,0.1,0,0.4,0.2,0.6l1.1,0.7h0.1l0.7,0.2h0.2c0.4-0.4,0.5-0.9,0.3-1.4
	C33.8,12.5,32.8,11.8,31.7,11.4"/>
<path class="st1" d="M33.5,13.7h0.4c-0.6-0.4-1.3-0.8-2-1.2v0.2c0.5,0.4,1,0.8,1.5,1.1"/>
<path class="st1" d="M32,16.1l1,0.7h0.3c0.1,0,0.2,0,0.2-0.1c0.2-0.1,0.4-0.3,0.5-0.6c0.1-0.3,0-0.7-0.3-0.9l-1.3-1h-0.1
	c-0.1,0-0.1,0.1,0,0.2l1,0.9c0.2,0.2,0.2,0.4,0.1,0.6l-0.3,0.2h-0.2l-0.8-0.5H32v0.3"/>
<path class="st1" d="M32.8,15.8H33c0-0.1,0-0.2-0.1-0.2l-0.6-0.4h-0.1L32.8,15.8L32.8,15.8z"/>
<path class="st1" d="M30.9,17.8c-0.1,0.1-0.1,0.2,0,0.3c0,0,0,0,0,0l1,0.7H32c0.2,0,0.3,0,0.4-0.2l0.2-0.2c0.2-0.4,0.4-0.7,0.1-1.1
	c-0.2-0.3-0.5-0.6-0.9-0.8c-0.1,0-0.1,0-0.1,0.1c-0.1,0.1,0,0.2,0,0.3l0.5,0.5c0.1,0.1,0.1,0.4,0,0.5c-0.1,0.2-0.2,0.3-0.4,0.3h-0.2
	l-0.5-0.3H31c-0.1,0-0.1,0-0.1,0.1l0,0"/>
<path class="st1" d="M31.2,17.3c0,0.1,0,0.1,0.1,0.1l0,0l0.3,0.3h0.2v-0.2l-0.4-0.2L31.2,17.3"/>
<path class="st1" d="M29.5,19.1h-0.1c-0.1,0.1-0.1,0.2,0,0.3c0,0,0,0,0,0l0.7,0.8h0.3c0.3,0,0.6-0.3,0.8-0.6
	c0.2-0.2,0.2-0.5,0.1-0.8l-0.7-0.9h-0.2c0,0.1-0.1,0.2,0,0.3l0.3,0.4c0.1,0.2,0.1,0.4,0,0.6c-0.1,0.2-0.2,0.3-0.4,0.3L30,19.3
	l-0.4-0.4L29.5,19.1z"/>
<path class="st1" d="M30.3,19.4c0.1,0,0.1,0,0.1-0.1l0,0c0.1-0.1,0.1-0.1,0-0.2L30,18.8h-0.1V19L30.3,19.4z"/>
<path class="st1" d="M31.6,29c0,0.1,0.1,0.3,0.2,0.3l0.3-0.2c0.8-1,0.5-4.3-0.5-5.9h-0.2v0.3c0.7,1.3,1,2.8,0.9,4.3
	c-0.1,0.1-0.1,0.3-0.3,0.3c-0.2,0-0.2,0-0.3-0.4c-0.1-1.2-0.5-2.3-1.1-3.3c-0.1,0.2-0.1,0.5,0,0.7C31.2,26.3,31.5,27.6,31.6,29"/>
<path class="st1" d="M31,23.6h-0.1c0,0.1-0.1,0.3,0,0.4c0.5,0.8,0.8,1.7,0.9,2.7h0.1C31.8,25.6,31.5,24.6,31,23.6z"/>
<path class="st1" d="M26.1,8.7l0.4,0.2l0.7,0.3c1,0.6,1.7,1.7,1.9,2.9v0.2c0.4,1.7,0.6,2.8-1.1,4.2c-0.1,0.1-0.1,0.3-0.1,0.4h0.3
	c0.6-0.3,1-0.7,1.3-1.3c1-1.3-0.1-4.4-0.5-5.4c-0.3-0.7-0.8-1.2-1.5-1.4L25.6,8c-0.2-0.2-0.3-0.4-0.3-0.6c0.1-0.3,0.2-0.3,0.5-0.5
	h1.5C30.4,7,33.4,8,35.9,9.8l0,0C36,9.9,36,10,36,10.1c-0.1,0.2-0.3,0.2-0.7,0.3s-0.4-0.1-0.5-0.3l-0.2-0.5c-0.1,0-0.1,0-0.1-0.1
	c-0.1,0-0.1,0.1-0.1,0.2v0.5h0.1l1.2,0.2c0.7,0,1.4-0.2,1.9-0.7c0.1-0.1,0.2-0.2,0.1-0.3h-0.5c-0.6,0-1.2-0.2-1.7-0.5
	c-2.8-1.7-6-2.5-9.2-2.4h-0.8C25.2,6.7,25,6.9,25,7.2c-0.1,0.3,0,0.6,0.2,0.8c0.3,0.3,0.6,0.5,1,0.6"/>
<path class="st1" d="M11.8,15.1c0.1,0.3,0.3,0.6,0.6,0.7h1.3c0.1,0,0.2-0.2,0.2-0.3l-0.2-0.2h-1c-0.3,0-0.5-0.5-0.7-1
	c-0.2-0.9,0.1-1.9,0.8-2.6h-0.1v-0.2l0.2-0.2h-0.1c-0.6,0.4-1.1,0.9-1.5,1.4c-0.1,0.2-0.2,0.5-0.1,0.8L11.8,15.1z"/>
<path class="st1" d="M14.3,14.1h-0.7c-0.3,0-0.5-0.1-0.7-0.3h-0.2V14c0.3,0.2,0.5,0.4,0.8,0.3l0.8-0.3l0,0"/>
<path class="st1" d="M12.6,13c-0.1,0.1-0.1,0.3-0.1,0.4H13c0.7-0.1,1.3-0.4,1.8-0.9l0,0c-0.5,0.3-1,0.5-1.6,0.6
	c-0.1,0-0.2-0.1-0.2-0.2c-0.1-0.1,0-0.2,0.1-0.4l0.6-0.7c0.1,0,0.1-0.1,0-0.2v-0.2l0,0c0-0.2,0.1-0.3,0.2-0.4c0-0.1,0.1-0.2,0.3-0.2
	c0.1-0.1,0.1-0.2,0-0.3c0,0,0,0,0,0c0-0.1-0.1-0.2-0.3-0.2s-0.5,0.3-0.4,0.6c0.1,0.3,0,0.7-0.2,0.9C13,12.1,12.7,12.5,12.6,13"/>
<path class="st1" d="M14,11.3v0.2c0.2,0.2,0.2,0.4,0.2,0.7l0,0l0.3-0.4c0-0.2-0.1-0.4-0.2-0.5c0-0.1-0.1-0.2-0.2-0.1H14"/>
<path class="st1" d="M23.5,41.7c0.5,0.5,0.9,1.1,1,1.8c0.4,0.9,0.7,1.8,1.4,2h0.2c-0.4-0.2-0.6-0.9-0.9-1.7s-0.7-2.1-1.4-2.3h-0.4
	L23.5,41.7"/>
<path class="st1" d="M24.8,41.5h-0.1c0.5,0.5,0.9,1.2,1.1,1.9c0.4,1,0.8,2.1,1.5,2h0.2c-0.5-0.2-0.7-0.9-1-1.7S25.7,41.5,24.8,41.5"
	/>
<path class="st1" d="M27.2,43.7L27.2,43.7c0.3,0.8,0.7,1.8,1.5,1.9h0.1c-0.5-0.4-0.9-1-1-1.6c-0.2-0.6-0.4-1.1-1-1.3h-0.1
	C26.9,42.8,27,43.2,27.2,43.7"/>
<path class="st1" d="M24.9,40.9h0.2c0.1,0,0.2-0.1,0.3-0.2c0-0.1-0.1-0.2-0.2-0.2h0h-2.1c-0.1,0.1-0.1,0.2,0,0.3c0,0,0,0,0,0
	c0.2,0.3,0.6,0.4,1.3,0.4h0.5"/>
<path class="st1" d="M31.7,40.9c-0.1-0.3-0.4-0.6-0.8-0.6c-0.5,0-0.9,0.4-1,0.9v0.2h0.2c0.1,0,0.2-0.1,0.2-0.2l0,0
	c0.1-0.4,0.3-0.5,0.5-0.5l0.4,0.3c0,0.2-0.1,0.4-0.2,0.5c-0.3,0.1-0.3,0.4-0.2,0.7c0.4,0.5,0.4,1.1,0,1.6c-0.1,0.3,0,0.7,0.3,0.8
	c0,0,0,0,0,0h0.1c0,0.1,0.1,0.3,0,0.4c-0.1,0.1-0.2,0.2-0.4,0.2c-0.2,0-0.3-0.1-0.4-0.3c0-0.2-0.1-0.3-0.3-0.3h-0.2v0.2
	c0.3,0.6,0.6,0.8,1,0.8h0.6c0.2-0.2,0.3-0.4,0.3-0.6c0-0.2,0-0.4-0.2-0.5s-0.2-0.4-0.1-0.8c0.2-0.4,0.2-1,0-1.4
	c-0.1-0.3-0.1-0.6,0.1-0.8C31.8,41.4,31.8,41.1,31.7,40.9"/>
<path class="st1" d="M22.9,44.7l-0.3-0.2h-0.1l-0.2,0.4L22,45.1h-0.3c-0.1-0.1-0.1-0.2-0.1-0.4c0-0.2,0.1-0.3,0.3-0.4
	c0.1-0.1,0.1-0.4,0-0.5c-0.2-0.4-0.2-0.9-0.1-1.3v-0.7c0.1-0.3,0-0.4-0.2-0.6c-0.1-0.1-0.2-0.2-0.2-0.4c0.1-0.2,0.2-0.3,0.4-0.3h0.1
	c0.2,0.1,0.2,0.2,0.3,0.3l0,0l0.3,0.2h0.2v-0.3c-0.1-0.4-0.5-0.7-1-0.7c-0.2,0-0.4,0.1-0.6,0.2c-0.2,0.1-0.2,0.3-0.2,0.6
	c0,0.2,0.1,0.4,0.2,0.5l0,0c0.2,0.3,0.2,0.6,0,0.9c-0.2,0.5-0.2,0.9,0,1.1c0.1,0.3,0.1,0.7,0,1H21c-0.1,0.2-0.1,0.4-0.1,0.6
	c0.1,0.4,0.5,0.6,0.9,0.6c0.2,0,0.4,0,0.6-0.2c0.2-0.2,0.3-0.4,0.4-0.7"/>
<path class="st1" d="M29.8,45.8h-0.3c-0.2,0.1-0.4,0.2-0.6,0.2h-5.4L23,45.8h-0.5c-0.1,0.1,0,0.2,0,0.3s3.3,0.5,4.4,0.4h2
	c0.4,0,0.7-0.1,1-0.3c0.1,0,0.2-0.1,0.1-0.2C30,45.9,29.9,45.8,29.8,45.8L29.8,45.8"/>
<path class="st1" d="M23.5,9.4c1.7,0.4,2.8,0.9,3.2,2.3s0.1,1,0.3,1.1h0.1c0.1-1.1-0.4-2.2-1.4-2.8c-0.6-0.4-1.3-0.7-2-0.8
	c-0.4,0-0.6-0.3-0.6-0.8c0-0.4,0.4-0.8,0.8-0.8H24c0.2,0,0.2-0.1,0.2-0.1h-0.3c-0.5,0-1.1,0.1-1.1,1s0.1,1,0.7,1.1"/>
<path class="st1" d="M23.7,8L23.7,8c0.3,0,0.4,0.1,0.4,0.2S24,8.4,23.7,8.5h-0.1c0.1,0,0.1,0,0.1,0.1v0h0.4l0.5-0.2V8.1L24,7.9
	L23.7,8"/>
<path class="st1" d="M26,9.6h0.5c-0.3-0.4-1.4-0.8-1.8-0.5S25.8,9.1,26,9.6"/>
<path class="st1" d="M26.3,12.3c-0.3-0.5-0.7-0.9-1.2-1.2c-0.1-0.1-0.1,0-0.1,0c0.8,0.6,1.3,1.4,1.5,2.4c0.1,0.2,0.1,0.3-0.1,0.5
	l0,0l-0.3,0.2v0.2l0.3,0.2l0,0l0.8-0.6c0.1-0.1,0.1-0.2,0.1-0.3l0,0C26.9,13.3,26.5,12.8,26.3,12.3"/>
<path class="st1" d="M24,12.9L24,12.9c0.1,0.8,0.2,1.5,0.2,2.3v0.2h0.3c0.3,0,0.6-0.1,0.9-0.3c0.2-0.2,0.3-0.4,0.3-0.6
	c-0.1-0.9-0.4-1.8-1-2.6h-0.1c0.7,1.3,0.9,2.1,0.6,2.6l-0.5,0.2c-0.1,0-0.2,0-0.3-0.3c0-0.6-0.1-1.2-0.3-1.7L24,12.9z"/>
<path class="st1" d="M25,14.2V14c-0.1-0.6-0.3-1.2-0.6-1.8l0,0c0.2,0.6,0.3,1.2,0.5,2s0.1,0.2,0.2-0.1"/>
<path class="st1" d="M26,13.7c0.1,0.2,0.2-0.1,0.2-0.1s-1-2-1.2-1.9C25.4,12.3,25.7,13,26,13.7"/>
<path class="st1" d="M22.5,15.3v-1h-0.2c-0.1,0.3-0.5,1.3-0.3,1.7h0.6c0.3,0,0.6-0.1,0.8-0.3c0.4-0.6,0.5-1.4,0.3-2.1v-0.2
	c0-0.2-0.1-0.2-0.1-0.2h-0.1v0.2c0.1,0.6,0,1.2-0.2,1.8c-0.1,0.2-0.3,0.3-0.5,0.3C22.7,15.5,22.6,15.4,22.5,15.3"/>
<path class="st1" d="M23,14.9c0.1-0.4,0.1-0.7,0.1-1.1h-0.2c0,0.3,0,0.7-0.1,1H23"/>
<path class="st1" d="M22.6,12c0,0.1,0,0.1,0.1,0.1l0,0l0,0v-0.3l-1.2-0.5l0,0l1.2,0.5"/>
<path class="st1" d="M20.3,16.1h0.6c0.3,0,0.7-0.2,0.8-0.5l0.2-1.1v-0.2h-0.1l-0.3,0.3c0,0.4-0.1,0.7-0.3,1L21,15.8h-0.2v-0.2
	l0.3-0.5v-0.2h-0.2l-0.5,0.7C20.3,15.7,20.3,15.9,20.3,16.1"/>
<path class="st1" d="M17.4,15H17c-0.1,0,0,0.1,0,0.1c1,0.6,1.4,1.9,0.9,3v0.2h0.2c0.7-1.2,0.5-2.2-0.7-3.2"/>
<path class="st1" d="M7.4,20c0,0.1,0,0.2,0.1,0.2h0.3V20c-0.3-0.4-0.1-0.6,0.1-0.8l0,0L8.1,19c0-0.1,0.1-0.1,0.1-0.2L8,18.6H7.8
	l-0.4,0.3H7.1c0,0-0.1,0.1,0,0.3c0.1,0.2,0.2,0.4,0.3,0.6"/>
<path class="st1" d="M8.2,20.4l0.3,0.2h0.1c0-0.1,0.1-0.2,0-0.3s0-0.7,0.3-1H9v-0.2H8.7c-0.6,0.3-0.7,0.7-0.5,1.5"/>
<path class="st1" d="M8.9,19.9l0.2,0.8c0,0.1,0.1,0.1,0.2,0.1h0.1c0.1-0.1,0.1-0.2,0.1-0.3c-0.1-0.2-0.1-0.6,0-0.8l0.3-0.2
	c0-0.1,0.1-0.2,0-0.3H9.5l-0.3,0.3C9,19.6,8.9,19.8,8.9,20"/>
<path class="st1" d="M16.4,15.4h-0.3c-0.1,0.1,0,0.3,0.1,0.5c0.4,0.2,0.8,0.6,0.9,1.1c0.1,0.4,0,0.9-0.3,1.2l-2.3,2
	c-1.4,1.4-1.6,2.7-0.6,3.9l0,0c-0.8-1.7,0.3-2.6,1.7-3.8l0,0c0.7-0.6,1.3-1.2,1.9-1.9C18,17.3,17.7,16.4,16.4,15.4"/>
<path class="st1" d="M17.3,23.8h-1.7c-0.6,0-1.1-0.2-1.3-1.3s0-0.2-0.1-0.2c-0.1,0.1-0.1,0.1-0.1,0.2c0,1.5,1,1.5,2.3,1.5h1.3
	c0.7,0.2,1.2,0.6,1.4,1.3c0.2,0.5-0.1,1.1-0.7,1.6c-0.1,0.1-0.1,0.2-0.1,0.3l0.3,0.2h0.2c0.7-0.5,1-1.3,0.8-2.1
	c-0.3-0.8-1-1.4-1.9-1.5H17.3"/>
<path class="st1" d="M14.8,18.4c-1.8,0.8-2.8,2.7-2.5,4.7c0.2,1.4,1.3,2.4,2.7,2.5h2.5c0.2,0.1,0.3,0.1,0.4,0.3
	c0.1,0.2,0,0.4-0.1,0.5c-0.1,0.1-0.1,0.1-0.1,0.2H18c0.3-0.2,0.4-0.6,0.3-0.9c-0.1-0.3-0.5-0.5-0.8-0.5h-1.1c-0.7,0.1-1.4,0-2-0.2
	c-1-0.4-1.6-1.4-1.6-2.5c0-1.6,0.9-3,2.3-3.7c0.7-0.3,1.2-0.8,1.7-1.4v-0.3h-0.2C16.1,17.7,15.5,18.2,14.8,18.4"/>
<path class="st1" d="M10.6,23.3c-0.2,0.4-0.1,0.9,0.2,1.2l1.4,1c0.4,0.4,0.7,0.9,0.7,1.5l0,0c0.1,0.1,0.1,0.3,0.1,0.4
	c0.1,0.5,0.5,0.9,1,0.9h0.3c0-0.1-0.1-0.1-0.1-0.2s-0.8-0.4-0.8-0.7c-0.1-0.7-0.4-1.4-0.8-2l-1.3-0.9c-0.2-0.1-0.3-0.2-0.3-0.4
	s0-1,0.5-2c0.3-1-0.2-2-1.2-2.4h-0.2c-0.1,0.1,0,0.1,0,0.2s1.5,1.4,0.5,3.5"/>
<path class="st1" d="M11,26c0.6,0.3,0.9,0.9,0.9,1.6c0.1,1.6,0.9,2.4,2.4,2.4l0,0l0.6-0.2c0.1,0,0.1,0,0.1-0.1l0,0l-0.2-0.3h-1.3
	c-0.7-0.2-1.2-0.9-1.2-1.6c0.1-0.7-0.2-1.4-0.8-1.8c-0.6-0.3-1.1-0.7-1.4-1.3c-0.4-0.6-0.4-1.3,0-1.9c0.1-0.1,0.2-0.3,0.2-0.4
	c0.1-0.3,0.2-0.5,0.2-0.8c0-0.8-0.2-1.2-0.7-1.4H9.6c0,0.1,0.1,0.2,0.2,0.3c0.5,0.4,0.5,1.2-0.1,2.4c-0.3,0.5-0.4,1.2-0.1,1.8
	C10,25.2,10.5,25.6,11,26"/>
<path class="st1" d="M15.7,29.8h-0.3l0.3,0.2"/>
<path class="st1" d="M16.6,29.6L16.6,29.6L16,29.4h-0.1c0.2,0.1,0.4,0.2,0.6,0.1h0.1V29.6z"/>
<path class="st1" d="M16.7,29h-0.1c0.1,0.2,0.3,0.3,0.5,0.3h0.3C17.2,29.1,17,29,16.7,29"/>
<path class="st1" d="M17,27.6l0.3-0.2l0.3-0.2l0,0c-0.2-0.2-0.3-0.4-0.2-0.7c0.1-0.1,0.1-0.2,0-0.2h-0.3c-0.3,0.2-0.5,0.6-0.4,1
	C16.7,27.5,16.8,27.6,17,27.6z"/>
<path class="st1" d="M15.2,29.2h0.1C15.1,29,15,28.7,15,28.4c0-0.3-0.1-0.7-0.3-0.9h-0.1v0.3c0.1,0.2,0.2,0.4,0.1,0.6
	C14.7,28.8,14.9,29.1,15.2,29.2"/>
<path class="st1" d="M15.8,29h0.3C16,29,16,29,16,28.9l0,0c-0.3-0.2-0.5-0.4-0.4-0.8c0.1-0.2,0.1-0.5-0.1-0.7
	c-0.2-0.2-0.2-0.4-0.1-0.6h-0.2L15,27.1c0,0.2,0.1,0.5,0.2,0.7c0.1,0.1,0.2,0.3,0.1,0.5c0,0.2,0.1,0.5,0.2,0.7H15.8"/>
<path class="st1" d="M16.7,26.3h-0.2c-0.3,0-0.5,0.1-0.7,0.3c-0.1,0.2-0.1,0.5,0,0.7c0.2,0.2,0.2,0.4,0.1,0.6
	c-0.1,0.2-0.1,0.3,0,0.5c0.1,0.3,0.3,0.4,0.6,0.5h0.1c-0.1-0.1-0.2-0.3-0.1-0.4c0,0,0.1-0.1,0.1-0.1c0-0.1,0-0.1,0.1-0.1l0,0
	c0-0.1-0.1-0.1-0.1-0.2s-0.4-1,0.1-1.5"/>
<path class="st1" d="M19.1,29l0.7-0.4l0.7-0.5c0.2-0.5,0.1-1.2-0.3-1.6H20c-0.1,0-0.1,0-0.1,0.1l0,0c-0.1,0.1-0.1,0.2-0.1,0.3
	l0.3,0.4c0.1,0.3,0,0.5-0.3,0.7c-0.4,0.2-0.8,0.5-1.1,0.8L18.4,29h-0.2l-0.5-0.4c0-0.1-0.1-0.2,0-0.3H18l0.3,0.2h0.1
	c0.1-0.2-0.1-0.5-0.3-0.6h-0.3c-0.3,0-0.6,0.2-0.8,0.5c-0.2,0.4,0.2,0.7,0.7,1l0.4,0.3h0.5c0.2-0.1,0.4-0.3,0.5-0.5"/>
<path class="st1" d="M20.4,29.6h0.1c0.4,0,0.8,0.2,1.1,0.4h0.1c0.1,0,0.1-0.1,0-0.1s-0.1-0.1-0.1,0c-0.5-0.3-1-0.5-1.6-0.5h-0.4
	c-0.2,0.1-0.3,0.2-0.3,0.4s0.1,0.1,0.1,0.2l1,0.2l0.7,0.3h0.2c-0.3-0.2-0.6-0.3-0.9-0.4c-0.2-0.1-0.2-0.2-0.2-0.2h0.2"/>
<path class="st1" d="M21,28.2l-0.4,0.3v0.4c0.2,0.4,0.9,0.6,1.3,0.7h0.2l-1-0.6v-0.4H22l-0.4-0.2c-0.2,0-0.4,0-0.6,0.2"/>
<path class="st1" d="M21.6,28.6h-0.1v0.2l1,0.4h0.1c0-0.1,0-0.2-0.1-0.2C22.2,28.8,21.9,28.7,21.6,28.6"/>
<path class="st1" d="M21.8,31.2h0.5c0.4-0.2,0.9-0.3,1.4-0.3c0.1,0,0.1-0.1,0.2-0.2h-0.4l-1.3,0.2h-0.1c0,0.1,0,0.1-0.1,0.1
	s-0.1,0-0.1-0.1c0-0.1,0-0.2,0.1-0.3c0.4-0.4,0.9-0.7,1.4-0.9l0.2-0.2h-0.2c-0.7,0.2-1.4,0.6-1.9,1.2c-0.1,0.1-0.1,0.4,0,0.5
	c0,0.2,0.1,0.2,0.3,0.2"/>
<path class="st1" d="M22.8,30.2c-0.1,0-0.1,0-0.1,0.1l0,0H23c0.3,0,0.6-0.1,0.6-0.2h-0.2l-0.6,0.2"/>
<path class="st1" d="M21.3,27.2c-0.1-0.1-0.1-0.1-0.1-0.2l0.3-0.2l0,0c-0.1-0.2-0.4-0.4-0.7-0.4h-0.1c-0.1,0.5,0.3,0.9,0.9,1.2h0.2
	L21.3,27.2z"/>
<path class="st1" d="M20.5,24.6L20.5,24.6c-0.1,0.5,0.1,1,0.4,1.4l0.5,0.3c0.1,0,0.1,0,0.1-0.1s0.1-0.1,0-0.3s-0.1-0.2-0.2-0.3h-0.2
	c-0.1,0-0.3-0.2-0.3-0.5s-0.1-0.5-0.3-0.6"/>
<path class="st1" d="M22.1,26.5l-0.2-0.2h-0.1c0.1,1,0.6,1.9,1.3,2.6h0.2c0.2,0,0.3-0.1,0.3-0.3c0-0.3,0-0.6-0.1-0.9h-0.2
	c-0.1,0-0.1,0-0.1,0.1v0.5h-0.3c-0.4-0.4-0.7-1-0.7-1.6C22.3,26.6,22.2,26.5,22.1,26.5"/>
<path class="st1" d="M24.7,31.2H25c0.1,0,0.2,0,0.2-0.1c0.2-0.3,0.2-0.7,0.1-1.1l0,0c-0.1-0.2-0.1-0.3-0.2-0.3l0,0
	c0,0.1,0,0.1-0.1,0.1l0,0v0.6c0,0.2,0,0.3-0.1,0.3h-0.2c-0.4-0.6-0.5-1.3-0.5-2c0-0.3-0.1-0.4-0.2-0.4s-0.1,0.1-0.1,0.2
	c-0.1,1,0.1,1.9,0.7,2.7L24.7,31.2z"/>
<path class="st1" d="M24.7,30.1L24.7,30.1c0.1-0.1,0.1-0.1,0.1-0.3v-0.5c0-0.1,0-0.1-0.1-0.1l0,0c-0.1,0-0.1,0-0.1,0.1
	C24.5,29.5,24.6,29.8,24.7,30.1c0,0,0,0,0.1,0l0,0"/>
<path class="st1" d="M22.9,27.8H23c0-0.1-0.1-0.3-0.2-0.4c0-0.1,0-0.1-0.1-0.1l0,0l0,0c-0.1,0.1-0.1,0.3,0,0.4h0.2"/>
<path class="st1" d="M26.8,10h-0.1c-0.1,0-0.1,0-0.1,0.1v0h0.2c0.4-0.1,0.8,0.1,0.9,0.5v0.3h-0.1l0.3-0.2c0.1,0,0.1-0.2,0-0.3
	c-0.1-0.5-0.7-0.9-1.2-0.8"/>
<path class="st1" d="M27.3,10.8h0.1c0-0.1-0.1-0.2-0.3-0.2l0,0C27.1,10.7,27.1,10.7,27.3,10.8L27.3,10.8"/>
<path class="st1" d="M27.6,11.7L27.6,11.7c0.5,0.1,0.7,0.3,0.7,1S28.1,13,28,13h-0.5c0,0.1,0.4,0.3,0.7,0.3h0.2
	c0.2-0.1,0.3-0.4,0.2-0.8c0-0.5-0.4-0.9-0.9-0.9C27.7,11.6,27.6,11.6,27.6,11.7"/>
<path class="st1" d="M27.8,12.7h0.1c0.1-0.2,0-0.3,0-0.3h-0.4c0,0.1,0,0.2,0.1,0.2h0.2"/>
<path class="st1" d="M27.9,15.9H28c0.4-0.2,0.8-0.6,0.9-1.1c0-0.3,0-0.5-0.2-0.6s-0.3-0.3-0.7-0.3h-0.1l-0.3,0.2
	c0,0.1,0,0.1,0.1,0.1l0,0h0.5l0.2,0.2c0.1,0.1,0,0.4-0.1,0.6s-0.5,0.5-0.4,0.7V15.9"/>
<path class="st1" d="M27.7,14.9h0.4c0-0.3-0.1-0.3-0.2-0.3h-0.2L27.7,14.9"/>
<path class="st1" d="M29,9.1L29,9.1c0.2,0.2,0.6,0.3,0.9,0.3h0.2V9.2c-0.7-1.1-2-1.8-3.3-1.7h-0.6c0,0.1,0.2,0.2,0.4,0.2h0.6
	c0.8-0.1,1.5,0.2,2,0.8c0.1,0.1,0.1,0.2,0.1,0.3c0,0.1-0.2,0.2-0.4,0.2"/>
<path class="st1" d="M28.2,8.3h-0.3c-0.1,0,0,0.1,0.1,0.1h0.2"/>
<path class="st1" d="M31.1,8.7l-0.3-0.2c-0.3-0.3-0.7-0.6-1.1-0.7h-0.1c0.5,0.7,1.3,1.2,2.1,1.4H32c0-0.4-0.3-0.8-0.7-0.9
	c0.1,0.2,0.1,0.3,0,0.4H31.1"/>
<path class="st1" d="M32.6,40h0.2c-0.1,0-0.1-0.1-0.2-0.2c0-0.2,0.1-0.4,0.3-0.6c1.2-0.6,1.5-1.1,1.4-2.1H34c-0.1,0-0.3,0-0.3,0.2
	c0,0.5-0.3,0.9-0.7,1.2c-1,0.6-2.1,1-3.2,1c-0.5-0.1-1,0.2-1.1,0.7l-0.4,1c-0.1,0.3-0.2,0.4-0.5,0.4h-1.3v-0.2
	c0-0.8,0.1-1.7,0.3-2.5c0.1-0.3,0-0.6-0.1-0.8h-0.1c0,0.1,0,0.1-0.1,0.2c-0.5,1.1-0.7,2.2-0.6,3.4c-0.1,0.3,0.1,0.5,0.4,0.6
	c0,0,0,0,0,0l2.1,0.2c0.3-0.1,0.4-0.2,0.4-0.4s0.5-1.6,1.1-1.7l1.6-0.2h0.1c0.3,0,0.4,0,0.4,0.1c0.2,0.1,0.4,0.2,0.6,0.2"/>
<path class="st1" d="M31.5,36.4h-0.1c-0.3,0.1-0.4,0.3-0.4,0.4c0,0.2,0.1,0.3,0.3,0.3h0.1l0.7-0.4L31.5,36.4"/>
<path class="st1" d="M31,38.4h0.1c0.2-0.1,0.5-0.2,0.6-0.4h-0.9l-0.2,0.2c0,0.1,0,0.2,0.1,0.2H31"/>
<path class="st1" d="M30.2,36.9c0.1-0.3,0.2-0.6,0.5-0.7h-0.8c-0.2,0.1-0.3,0.3-0.2,0.5c0,0.1,0.1,0.2,0.3,0.2H30.2"/>
<path class="st1" d="M27.6,40.2c0.1,0,0.2-0.1,0.2-0.2l0,0c0.1-0.2,0.2-0.5,0.3-0.7c-0.3,0-0.5,0.1-0.7,0.3
	c-0.1,0.1-0.1,0.3-0.1,0.4L27.6,40.2"/>
<path class="st1" d="M36.5,39.4l1-0.3c-0.3-0.2-0.6-0.4-0.9-0.4C35.7,38.7,36,39.6,36.5,39.4"/>
<path class="st1" d="M37.6,38.1c0-0.3,0.1-0.5,0.2-0.8c-0.2,0-0.4,0.1-0.6,0.3c-0.1,0.2-0.1,0.3-0.1,0.5l0.3,0.2
	C37.5,38.3,37.6,38.2,37.6,38.1L37.6,38.1"/>
<path class="st1" d="M39.2,37.7H39l-0.6,0.2c-0.2,0.1-0.3,0.3-0.2,0.4s0.2,0.3,0.3,0.2h0.2c0.1-0.3,0.3-0.5,0.5-0.6"/>
<path class="st1" d="M38.2,39.4h0.2L39,39h-1c-0.1,0-0.2,0.1-0.2,0.2l0,0c0,0.1,0,0.2,0.1,0.2H38.2"/>
<path class="st1" d="M29,38.2c0,0.2,0.1,0.3,0.3,0.3c0.1,0,0.2-0.1,0.3-0.3c0.1-0.2,0.2-0.4,0.2-0.6L29.1,38C29,38,29,38.1,29,38.2"
	/>
<path class="st1" d="M25.2,36.3c-0.3,0.1-0.6,0.3-0.9,0.5c0.3,0,0.7,0,1,0.2C25.9,37.3,26,36.3,25.2,36.3"/>
<path class="st1" d="M23.2,35.6c0.1,0,0.2-0.1,0.2-0.2l0,0c0-0.2-0.1-0.3-0.3-0.4h-0.7c0.2,0.1,0.4,0.3,0.5,0.6L23.2,35.6"/>
<path class="st1" d="M22,35.6c0-0.2-0.1-0.4-0.5-0.4l-0.6,0.2c0.2,0,0.4,0.1,0.7,0.4h0.2C21.9,35.8,22,35.7,22,35.6L22,35.6"/>
<path class="st1" d="M22.3,36.6l-0.9,0.3c0.2,0.2,0.5,0.4,0.8,0.4C23,37.3,22.8,36.4,22.3,36.6"/>
<path class="st1" d="M23.4,36.6h0.2c0.2,0,0.3-0.1,0.3-0.3S23.8,36,23.6,36c0,0,0,0,0,0h-0.8L23.4,36.6"/>
<path class="st1" d="M17.9,35.4h0.3c0.2,0,0.3-0.1,0.3-0.3c0-0.1,0-0.2-0.3-0.2l-0.7-0.2c0.1,0.2,0.2,0.4,0.4,0.6"/>
<path class="st1" d="M15.9,35.6h0.3c0.2,0,0.3-0.1,0.3-0.3c0-0.2-0.1-0.3-0.3-0.3h-0.7C15.6,35.2,15.7,35.4,15.9,35.6"/>
<path class="st1" d="M15.1,33.8h-0.7l0.4,0.4h0.3c0.2,0,0.3-0.1,0.3-0.2s-0.1-0.3-0.3-0.4"/>
<path class="st1" d="M11.6,31.6L11.6,31.6c0,0.2,0.1,0.2,0.3,0.2H12c0.1-0.1,0.1-0.2,0.1-0.4l-0.5-0.6v0.6
	C11.5,31.5,11.5,31.6,11.6,31.6"/>
<path class="st1" d="M10.9,30.9c-0.1-0.2-0.3-0.5-0.5-0.6c0.1,0.2,0,0.4,0,0.6v0.2l0,0c0,0.2,0.2,0.2,0.3,0.2h0.2
	C10.9,31.2,11,31.1,10.9,30.9"/>
<path class="st1" d="M10.8,31.9h-0.2c-0.2,0-0.4-0.1-0.6-0.2c0.1,0.3,0.2,0.5,0.4,0.7h0.3c0.1,0,0.2-0.1,0.2-0.2l0,0
	C10.9,32.1,11,31.9,10.8,31.9"/>
<path class="st1" d="M11.8,33.2h0.3l0.3-0.2l-0.2-0.3h-0.1l-0.6-0.3C11.5,32.7,11.6,32.9,11.8,33.2"/>
<path class="st1" d="M26.4,35.3v-0.8c0-0.1,0-0.2-0.3-0.2H26c-0.5,0-0.9,0.3-1,0.7c-0.1,0.4,0.1,0.9,0.5,1.1c0,0.1,0,0.1,0.1,0.1
	l0,0v-0.6C25.7,35.4,25.9,35.4,26.4,35.3L26.4,35.3z"/>
<path class="st1" d="M27.6,38h0.1c0.1,0,0.1,0,0.1-0.1l0,0c-0.2-0.2-0.3-0.3-0.3-0.5s0.2-0.3,0.3-0.4c0.1,0,0.2,0,0.2-0.2
	c0-0.1,0-0.2-0.1-0.2c-0.2-0.1-0.3-0.3-0.5-0.5H27c-0.4,0.3-0.5,0.8-0.3,1.2C26.8,37.7,27.2,38,27.6,38"/>
<path class="st1" d="M34.6,37.8H35c0.4,0,0.7-0.3,0.8-0.7c0.2-0.5,0-1-0.5-1.3H35l-0.5,0.6v0.2c0,0.1,0,0.1,0.1,0.1l0.4,0.5
	c0,0.1-0.1,0.3-0.4,0.5"/>
<path class="st1" d="M32.9,36.4l0.4,0.2h0.3c0.5-0.1,0.9-0.5,1.1-0.9c0.1-0.2,0-0.4-0.1-0.6c-0.2-0.2-0.4-0.4-0.7-0.4h-0.2
	c-0.4,0-0.8-0.2-1-0.5c-0.2-0.2-0.3-0.4-0.5-0.4H32c0,0.2,0.2,0.4,0.4,0.6l0.9,0.5c0.2,0.1,0.3,0.2,0.3,0.4c0,0.1-0.1,0.2-0.4,0.3
	h-0.1c-0.2,0-0.3-0.2-0.5-0.4c-0.3-0.4-0.6-0.9-1-1.2h-0.2l-0.3,0.3l-0.2,0.2h-0.3c-0.5,0.3-1,0.7-1.4,1.2h-0.4
	c-0.1-0.1,0-0.2,0.1-0.3l1.2-1v-0.2H30c-0.2-0.1-0.3-0.2-0.5-0.1h-2.1c-0.2,0-0.3,0.1-0.4,0.2c0,0.1,0,0.2-0.1,0.2
	c0,0.3,0,0.5,0.1,0.8c0,0.1,0,0.2,0.1,0.2c0,0.1,0,0.1,0.1,0.1h0.3c0.3-0.1,0.4-0.4,0.4-0.7c0-0.1,0.1-0.2,0.3-0.2
	c0.3-0.2,0.6-0.2,0.9-0.2h0.5c0,0.1-0.1,0.2-0.2,0.3l-1.2,0.6c-0.3,0.1-0.4,0.4-0.4,0.7c0.1,0.3,0.3,0.6,0.6,0.7h0.3
	c0.3,0.1,0.5-0.1,0.6-0.4c0,0,0,0,0,0c0-0.1,0.2-0.2,0.4-0.4c0.3-0.2,0.6-0.4,0.8-0.7h0.2c0.1,0,0.1,0.2,0.2,0.3l0,0
	c0.1,0.2,0.2,0.2,0.3,0.2l0.3-0.2h0.3c0.1,0,0.1,0.1,0,0.3c0,0.1,0,0.1,0.1,0.1H32l0.3,0.2L32.9,36.4z"/>
<path class="st1" d="M27.5,31.8c-0.1,0-0.1,0-0.1,0.1s-0.1,0.1,0,0.1l0.9,1.3l0.5,0.3H29c0.1-0.1,0.1-0.2,0.1-0.4V33h-0.5l-0.8-1.1
	h-0.2"/>
<path class="st1" d="M30.5,34h0.2c0.1,0,0.2-0.1,0.3-0.4c0.1-0.4,0-0.8-0.2-1.1l-0.7-1.7H30c0,0-0.1,0-0.1,0.2
	c-0.1,0.3,0,0.6,0.2,0.8l0.3,0.7l0.2,0.3c0.1,0.1,0.1,0.4,0,0.5c-0.1,0.1-0.1,0.2-0.2,0.2l-0.3-0.2l-0.8-1.1
	c-0.1-0.3-0.4-0.6-0.7-0.7h-0.2c0.2,0.3,0.4,0.6,0.6,0.9l0,0C29.4,33,29.9,33.6,30.5,34"/>
<path class="st1" d="M29.5,31.6h-0.1l0.6,1h0.2v-0.2l-0.6-0.9L29.5,31.6z"/>
<path class="st1" d="M28.6,32.7h0.2c0-0.1,0-0.2-0.1-0.2l-0.5-0.7h-0.1L28.6,32.7z"/>
<path class="st1" d="M31.9,33.2h0.3V33c-0.1-0.7-0.2-1.3-0.4-2c-0.1-0.2-0.2-0.4-0.2-0.6c0-0.1,0-0.1-0.1-0.1l0,0h-0.1
	c-0.1,0.3-0.1,0.5,0,0.8l0.4,1v0.3h-0.3c-0.2-0.3-0.3-0.6-0.4-1c0-0.2-0.1-0.4-0.3-0.5h-0.1c0.1,0.9,0.5,1.6,1.2,2.2"/>
<path class="st1" d="M30.3,25.5h-0.2c0,0.1-0.1,0.2,0,0.3c0.5,1,0.8,2.1,0.7,3.2c0,0.4-0.2,0.4-0.2,0.4s-0.3,0-0.3-0.2
	s-0.5-0.9-0.8-1.4l0,0c-0.1-0.4-0.3-0.8-0.5-1.2h-0.1v0.2c0,0.2,0,0.4,0.1,0.6l0.5,1.1l0,0c0.3,0.6,0.6,1.2,1,1.7h0.3l0.3-0.2
	c0.4-0.8,0-3.4-0.6-4.6h-0.1"/>
<path class="st1" d="M30.3,28.6c0.1,0,0.1-0.1,0.1-0.2c0-0.9-0.4-1.7-1-2.3h-0.2c0,0.1,0,0.2,0.1,0.2c0.4,0.7,0.7,1.4,0.9,2.2
	C30.2,28.6,30.2,28.6,30.3,28.6L30.3,28.6"/>
<path class="st1" d="M28.9,31h0.2c0.2,0,0.4-0.2,0.4-0.4c0-1.2-0.3-2.5-1-3.5h-0.4c0,0.1-0.1,0.1,0,0.2s0.3,0.8,0.4,1.1h0.1
	c0.2,0.4,0.4,0.9,0.5,1.4c0.1,0.1,0,0.3,0,0.4h-0.2L28.6,30c-0.4-0.5-0.8-1-1.1-1.6h-0.1c-0.1-0.3-0.3-0.6-0.5-0.9h-0.3
	c-0.1,0.1-0.1,0.2,0,0.4c0.6,1.1,1.3,2.2,2.3,3"/>
<path class="st1" d="M26.8,27L26.8,27c0.6,0.7,1.1,1.5,1.5,2.4h0.1c0,0,0.1,0,0-0.2c-0.2-0.9-0.7-1.8-1.5-2.3L26.8,27z"/>
<path class="st1" d="M27.3,31.3c0.2,0,0.4-0.3,0.4-0.5c-0.3-1.1-0.9-2-1.7-2.7h-0.2c0.6,0.6,1.1,1.3,1.5,2.1c0.1,0.2,0.1,0.3,0,0.5
	h-0.2l-0.3-0.2c-0.8-1.1-1.7-2-2.3-2.7h-0.2l2.5,3.1l0.5,0.2"/>
<path class="st1" d="M24.8,27.5L24.8,27.5v0.3l1.9,2.3h0.1l-1.9-2.5L24.8,27.5z"/>
<path class="st1" d="M32.5,9.4c0.3,0.3,0.8,0.5,1.2,0.6h0.1c0.1-0.1,0.1-0.2,0.1-0.4s-0.2-0.3-0.4-0.4l0,0v0.3h-0.2
	c-0.2,0-0.4-0.1-0.4-0.3c0-0.2-0.2-0.5-0.4-0.6l0,0c0.1,0.1,0.1,0.3,0.1,0.5L32.5,9.4"/>
<path class="st1" d="M30.1,10.8h-0.3c0.2,0.2,0.5,0.3,0.8,0.3l0.4-0.2c0-0.3-0.1-0.6-0.2-0.8h-0.1c0-0.1,0-0.2-0.3-0.4l0,0l-0.3,0.2
	h-0.7c0,0.1,0,0.2,0.2,0.2s0.9,0.3,0.9,0.5s-0.2,0.3-0.4,0.3"/>
<path class="st1" d="M30.4,12c0.5,0.2,0.7,0.5,0.6,0.8c0,0.2-0.1,0.3-0.3,0.3h-0.4c-0.1,0-0.1,0.1,0,0.2c0.2,0.4,0.6,0.6,1,0.7
	l0.3-0.2c0-0.2,0-0.3-0.1-0.5c-0.2-0.5-0.3-1-0.3-1.5H30L30.4,12z"/>
<path class="st1" d="M28.5,20.3c0,0-0.1,0.2,0,0.3c0.4,0.5,0.7,1,1,1.6l0,0c0.2,0.4,0.4,0.8,0.7,1.1h0.2c0.1,0,0.1-0.1,0.1-0.3
	s-0.6-2.2-1.6-3.8h-0.1c0,0.1,0,0.2,0.1,0.3c0.5,0.7,0.8,1.5,1.1,2.3V22h-0.1l-0.3-0.2c-0.2-0.6-0.6-1.1-1-1.6h-0.1V20.3z"/>
<path class="st1" d="M27.5,22.3h-0.1c-0.1,0.1-0.1,0.3,0,0.4c0.4,0.8,0.8,1.7,1.3,2.5c0.1,0.2,0.3,0.4,0.6,0.4l0.6-0.3
	c0.2-0.5,0.2-1.1,0-1.6c-0.5-0.9-1-1.8-1.6-2.7H28c0,0.1,0,0.2,0.1,0.3c0.6,0.9,1.1,1.8,1.5,2.8c0.1,0.2,0.1,0.5,0,0.7L29.3,25
	l-0.4-0.2l-1.3-2.4C27.6,22.3,27.6,22.3,27.5,22.3L27.5,22.3"/>
<path class="st1" d="M29,24.1h0.2v-0.3L28,21.7h-0.1c-0.1,0.1-0.1,0.3-0.1,0.4l1.1,2H29"/>
<path class="st1" d="M27.7,26.9c0.3,0,0.5-0.2,0.7-0.4c0.2-0.4,0.1-0.8-0.1-1.2c-0.5-0.8-0.8-1.6-1.1-2.4l-0.3-0.2
	c-0.1,0-0.1,0-0.1,0.1l0,0c-0.1,0.1-0.1,0.1,0,0.2c0.3,0.9,0.7,1.8,1.2,2.6c0.1,0.2,0.2,0.4,0.1,0.6c-0.1,0.1-0.2,0.2-0.4,0.2
	c-0.2,0-0.3-0.1-0.4-0.3c-0.4-0.4-0.8-0.9-1-1.4h-0.1l-0.6-1h-0.2c-0.1,0-0.1,0.1-0.2,0.2c0,0.1,0,0.1,0.1,0.2l1.7,2.5
	c0.2,0.3,0.4,0.5,0.7,0.5"/>
<path class="st1" d="M26,23.3l1.2,2.2l0.3,0.2l0,0c0,0,0.1-0.1,0-0.3l-1.4-2.6H26c-0.1,0.1-0.1,0.2,0,0.3c0,0,0,0,0,0"/>
<path class="st1" d="M26.3,27.5c0.1-0.3,0.1-0.5,0-0.8c-0.4-0.9-0.8-1.8-1.4-2.6v-0.2h-0.3c-0.1,0-0.1,0-0.1,0.1l0,0
	c0.6,0.8,1.1,1.6,1.5,2.5c0.1,0.2,0.1,0.3,0,0.4s-0.1,0.2-0.2,0.2h-0.3l-2.2-2.7c0-0.1-0.1-0.1-0.2-0.1c-0.1,0-0.1,0-0.1,0.1l0,0
	v0.2c0.7,1,1.4,2,2.3,2.9c0.2,0.2,0.4,0.3,0.7,0.2h0.4"/>
<path class="st1" d="M23.5,23.8c0.4,0.9,1,1.8,1.7,2.5h0.1c0.1-0.1,0.1-0.1,0-0.2c-0.5-0.8-1.1-1.6-1.7-2.4h-0.1"/>
<path class="st1" d="M24.1,27.5h0.2v-0.3c-0.6-1-1.3-1.9-2.1-2.7c0-0.1-0.1-0.1-0.2-0.1l0,0l1.4,1.8v0.3h-0.3L21,23.8h-0.4V24
	l0.2,0.2C21.6,25.5,22.7,27.1,24.1,27.5L24.1,27.5z"/>
<path class="st1" d="M26.9,17.5c0,0.1-0.1,0.2-0.1,0.3s0,0.4,0,0.4h0.1c0.4-0.3,0.6-0.7,0.6-1.2v-2l-0.2-0.2h-0.1v2
	C27.3,17.1,27.2,17.3,26.9,17.5L26.9,17.5z"/>
<path class="st1" d="M25.4,15.7h-0.2c-0.2,0.8-0.3,1.7-0.3,2.5c0,0.3,0.3,0.5,0.6,0.5c0.5,0,0.9-0.4,1-0.9c0.2-0.9,0.2-1.7,0.1-2.6
	c0-0.2,0-0.3-0.1-0.3h-0.1c0,0.1-0.1,0.2-0.1,0.3c0.1,0.8,0.1,1.6-0.1,2.4c-0.3,0.4-0.5,0.6-0.6,0.6c-0.1,0-0.3-0.1-0.3-0.4
	c0-0.7,0.1-1.4,0.2-2.1H25.4"/>
<path class="st1" d="M25.9,17.5c0.1-0.7,0.2-1.4,0.1-2.1h-0.2v2.2H26"/>
<path class="st1" d="M23.1,18.8l-0.3-0.2c-0.1-0.1,0-0.2,0-0.5l0.5-1.6H23c-0.1,0.4-0.2,0.8-0.4,1.1l-0.3,0.9c0,0.2-0.1,0.2,0,0.4
	s0.4,0.3,0.8,0.3l0,0c0.8-0.1,1.2-0.4,1.3-0.9l0.3-2.1c0-0.1,0-0.2-0.1-0.2h-0.1l-0.2,0.3l-0.2,1.5C24.1,18.3,23.6,18.8,23.1,18.8"
	/>
<path class="st1" d="M23.9,16.1h-0.2c-0.1,0.6-0.2,1.2-0.3,1.8h0.1l0.2-0.2c0.1-0.6,0.2-1.1,0.2-1.7l0,0"/>
<path class="st1" d="M20.8,18.8h0.5c0.3,0,0.6-0.2,0.7-0.4l0.6-1.6c0-0.2,0-0.2-0.1-0.2l0,0l-0.8,1.6c-0.1,0.2-0.2,0.3-0.4,0.3
	L21,18.3c-0.1-0.1-0.1-0.3,0-0.4c0.3-0.5,0.5-1,0.7-1.5v-0.2h-0.1c-0.2,0.6-0.5,1.2-0.8,1.7c-0.1,0.2-0.2,0.3-0.1,0.5l0.2,0.2"/>
<path class="st1" d="M21.9,16.6c-0.1,0.5-0.3,0.9-0.6,1.3v0.2h0.2c0.3-0.4,0.5-0.9,0.6-1.4c0-0.1,0-0.2-0.1-0.2
	C21.9,16.5,21.9,16.5,21.9,16.6L21.9,16.6"/>
<path class="st1" d="M20.9,16.5L20.9,16.5l-0.7,1.1h0.1c0.3-0.3,0.6-0.7,0.7-1.2h-0.1"/>
<path class="st1" d="M19.4,18.2c0.2,0.2,0.4,0.3,0.6,0.3h0.2l-0.3-0.2c-0.1,0-0.1,0-0.1-0.1l0,0c0-0.1,0-0.3,0.1-0.3
	c0.3-0.3,0.5-0.6,0.6-0.9c0-0.1,0.1-0.2,0-0.2h-0.1l-0.9,1C19.4,18,19.4,18.1,19.4,18.2"/>
<path class="st1" d="M19.3,18.8c-0.5,0.6-0.7,1.3-0.6,2.1c0.1,0.3,0.2,0.7,0.4,1l0.3,0.6c0.1,0.3,0.1,0.6,0.1,0.9
	c0,0.1,0,0.2,0.3,0.2h0.3c0.3-0.1,0.5-0.2,0.5-0.4s0.1-0.2,0-0.4s-0.7-2.6-0.1-3.4v-0.2c0-0.1-0.1-0.1-0.2-0.1c-0.1,0-0.1,0-0.1,0.1
	l0,0c-0.4,0.3-0.5,0.7-0.5,1.4c0,0.3,0.1,0.7,0.2,1c0.1,0.3,0.2,0.6,0.2,0.9c0.1,0,0.1,0,0.1,0.1s0,0.1-0.1,0.1h-0.2
	c0,0-0.1,0-0.2-0.2l-0.3-0.8l0,0l-0.3-1.1c0-0.6,0.2-1.1,0.5-1.6l0,0c0.1-0.1,0.1-0.1,0.1-0.2H19.3"/>
<path class="st1" d="M20.7,21.8c0.1,0.7,0.4,1.4,0.9,1.9c0.2,0.2,0.4,0.3,0.7,0.3c0.4-0.1,0.7-0.3,0.8-0.7c0-0.2,0-0.3-0.1-0.5
	c0-0.1,0-0.1-0.1-0.2c-0.2-0.9-0.2-1.8,0-2.7v-0.2h-0.2c-0.1,0-0.2,0-0.2,0.1c-0.3,0.9-0.3,2,0,2.9c0,0.2,0,0.4-0.1,0.5h-0.3
	c-0.2,0-0.3-0.1-0.4-0.2c-0.8-1.3-1-2.5-0.4-3.5v-0.3h-0.2c-0.1,0-0.1,0.1-0.2,0.2C20.5,20.1,20.4,21,20.7,21.8"/>
<path class="st1" d="M22.1,19.4c0-0.1,0-0.1-0.1-0.1l0,0c-0.1,0-0.2,0-0.2,0.1c-0.5,1-0.4,2.1,0.1,3.1H22c0.1,0,0.1,0,0-0.2
	c-0.3-0.9-0.3-1.9,0.1-2.8l0,0"/>
<path class="st1" d="M23.7,19.6h-0.1c-0.1,0-0.2,0.1-0.2,0.2v0c-0.3,0.9-0.3,1.9,0,2.8c0.1,0.5,0.6,0.8,1.1,0.8
	c0.5,0,0.9-0.4,0.9-0.9c-0.2-1-0.2-2-0.1-3v-0.2c0-0.1-0.1-0.1-0.2-0.1c-0.1,0-0.1,0-0.1,0.1l0,0c-0.2,0.8-0.2,1.7-0.2,2.5
	c0,0.1,0,0.1,0.1,0.2c0,0.2,0,0.4-0.1,0.6h-0.3c-0.2,0.1-0.3-0.1-0.5-0.3c-0.3-0.8-0.4-1.7-0.2-2.6v-0.2"/>
<path class="st1" d="M24.4,19.4h-0.2C24,20.2,24,21,24.1,21.8V22l0.2-0.2c-0.1-0.8-0.1-1.6,0-2.4H24.4z"/>
<path class="st1" d="M26.7,18.7c-0.1,0-0.1,0.2-0.1,0.4c0.3,0.7,0.4,1.4,0.4,2.2c-0.1,0.2-0.3,0.4-0.5,0.4c-0.2,0-0.3-0.1-0.4-0.3
	c-0.2-0.7-0.2-1.3-0.2-2c0-0.2-0.1-0.2-0.2-0.2h-0.1c-0.1,0.1-0.1,0.1-0.1,0.2c-0.1,1,0.1,1.9,0.5,2.8l0.5,0.2
	c0.3,0,0.6-0.3,0.9-0.9C27.6,20.5,27.3,19.5,26.7,18.7L26.7,18.7z"/>
<path class="st1" d="M26.5,20.9c0.1,0,0.1,0,0.1-0.1l0,0c-0.1-0.6-0.2-1.1-0.2-1.7l-0.2-0.2v0.2c0,0.6,0.1,1.2,0.2,1.8L26.5,20.9z"
	/>
<path class="st1" d="M27.9,17.7c-0.1,0-0.1,0-0.1,0.1l0,0c0,0.2,0.1,0.5,0.2,0.7l0,0c0.1,0.2,0.2,0.5,0.2,0.7
	c-0.1,0.2-0.2,0.2-0.2,0.2h-0.2c-0.2,0-0.3-0.3-0.3-0.5s0.1-0.2,0.1-0.1c0.1,0,0.1,0,0.1,0.1l0,0c0.2,0,0-0.5,0-0.5h-0.2
	c-0.1,0-0.2,0-0.2,0.1s-0.2,0.1-0.2,0.3c0.1,0.5,0.4,1,0.7,1.4H28l0.2-0.2c0.4-0.7,0.3-1.5-0.2-2.1h-0.1"/>
<path class="st1" d="M28.8,17.4h-0.1c-0.1,0-0.1,0-0.1,0.1l0,0c-0.1,0,0,0,0,0.1s0.1,0.2,0.2,0.3s0.4,0.5,0.1,0.8l0,0l0.2,0.2h0.3
	l0.4-0.5h-0.1c-0.2,0-0.4-0.3-0.5-0.4s-0.3-0.4-0.4-0.4"/>
<path class="st1" d="M29.9,17.3c-0.1,0-0.2,0-0.2-0.1l-0.5-0.3H29l0.7,0.7H30c0.1,0,0.1,0,0.1-0.1l0,0c0.2-0.1,0.3-0.2,0.4-0.4
	c0.2-0.2,0.4-0.3,0.5-0.6v-0.2h-0.1c-0.4-0.1-0.7-0.2-1-0.5h-0.2c0,0.1-0.1,0.1,0,0.2l0.4,0.5c0.1,0.1,0.1,0.2,0,0.3c0,0,0,0,0,0
	L29.9,17"/>
<path class="st1" d="M30.8,15.5l-0.3-0.2h-0.2c-0.1,0.1-0.2,0.3-0.1,0.5c0.2,0.2,0.5,0.4,0.8,0.4c0.2,0,0.3-0.1,0.4-0.3l0.3-1.1
	v-0.2c-0.1,0-0.2,0-0.2-0.1h-0.1c-0.3-0.1-0.6-0.3-0.9-0.6l0,0c0,0.2,0,0.3,0.1,0.3l0.4,0.4c0.2,0.2,0.2,0.4,0.1,0.6
	c0,0.1-0.1,0.2-0.3,0.2"/>
<path class="st1" d="M39.5,36.6c0-0.1,0-0.3-0.1-0.4c0-0.1,0-0.2-0.2-0.2s-0.7-0.1-0.7-0.6h-0.1c-0.2,0.1-0.4,0.3-0.5,0.5
	c0,0.1-0.1,0.2-0.2,0.3l-0.4,0.2c-0.2,0-0.3-0.1-0.5-0.4l0,0c-0.1,0.1-0.1,0.1-0.1,0.2c-0.2,0.1-0.1,0.3-0.1,0.5
	c0,0.3-0.1,0.6-0.2,0.9c-0.3,0.6-0.8,0.9-1.4,1c-0.1,0.1-0.2,0-0.4,0l0,0c-0.1,0-0.2,0.1-0.2,0.2l0,0l0,0l0.7,0.2
	c0.5,0,1-0.3,1.3-0.8c0.6-0.8,1.3-1.8,2.1-1.8l0.5,0.2l0,0l0.3,0.2h0.2"/>
<path class="st1" d="M41.4,39c-0.3,0-0.4,0-0.5-0.2c-0.1-0.1-0.1-0.4,0-0.5h-0.1c-0.4,0.1-0.5,0.2-0.6,0.5s0,0.3-0.2,0.4
	c-0.9,0.4-1.8,0.7-2.8,0.8c-0.8,0-1.6-0.2-2.3-0.4l-1.1-0.3c-0.2,0-0.4,0.1-0.5,0.2c0,0.1,0.1,0.1,0.1,0.2l0.9,0.3
	c0.2,0,0.4,0.2,0.5,0.4c0.1,0.4,0.2,0.6,0.5,0.6h0.1c-0.1-0.1-0.1-0.3,0-0.4c0-0.1,0.1-0.1,0.2-0.1h0.1l1.6,0.2h1.3
	c0.2,0.2,0.5,0.3,0.8,0.3h0.3l-0.3-0.4c0-0.2,0-0.3,0.2-0.3l0.9-0.4l0.3-0.2h0.1c0.5,0,0.7-0.2,0.7-0.3h-0.2"/>
<path class="st1" d="M41.5,36.9c-0.2,0.4-0.6,0.6-1,0.6h-0.4c-0.1-0.1-0.2-0.2-0.2-0.3c0.1-0.3,0.3-0.6,0.5-0.8l0.6-0.2l0.5,0.2
	C41.6,36.6,41.6,36.8,41.5,36.9 M40.9,35.8c-0.2,0-0.4,0-0.6,0.2c-0.8,0.7-1,1.2-0.6,1.8l0.8,0.2c0.5,0,1-0.2,1.3-0.6
	c0.2-0.3,0.2-0.7,0.1-1C41.7,36,41.3,35.8,40.9,35.8"/>
<path class="st1" d="M43.4,36.6c0-0.1-0.1-0.2-0.2-0.1h-0.6c-0.1,0-0.1,0.1-0.1,0.2c0,0.1,0,0.1,0.1,0.2l0.6,0.2h0.2v-0.4"/>
<path class="st1" d="M43.1,35.8c-0.2-0.2-0.3-0.3-0.3-0.4h-0.3l-0.4,0.5c0,0.1,0,0.2,0.1,0.2s0.1,0.1,0.2,0.2l0.7-0.3V35.8"/>
<path class="st1" d="M42,34.8h-0.2c-0.1,0-0.1,0-0.1,0.1c-0.1,0.1-0.2,0.2-0.2,0.4v0.3h0.4l0.4-0.3l0,0L42,35.1"/>
<path class="st1" d="M43.9,34.4l-0.3,0.2c0,0.2-0.2,0.5-0.4,0.5c-0.1,0.1-0.1,0.1-0.1,0.2l0.3,0.3h0.1l0.5-0.2h0.2
	c0.2,0,0.2-0.1,0.3-0.2c0-0.2-0.1-0.4-0.2-0.5C44.2,34.5,44.1,34.5,43.9,34.4"/>
<path class="st1" d="M22.2,38.6c0.1,0.2-0.1,0.3-0.3,0.4h0.3l0.6-0.2c0.2-0.2,0.4-0.3,0.6-0.3H24c0.2,0.1,0.3,0.2,0.3,0.4v0.2h0.1
	c0.4,0,0.6-0.2,0.8-0.6c0.1-0.2,0.4-0.4,0.6-0.4c0.1-0.1,0.2-0.3,0.3-0.5c0-0.1,0-0.2-0.1-0.2h-0.1c-0.6,0.3-1.3,0.5-2,0.5
	c-1.3-0.1-2.7-0.4-3.9-1c-0.3-0.2-0.5-0.5-0.4-0.9l0.5-1.5c0.2-0.5,0.7-0.8,1.2-0.7c1.2,0.2,2.4,0.8,3.3,1.6h0.1
	c0.1-0.1,0-0.3,0-0.4l-0.6-0.4c-0.1-0.1-0.2-0.3-0.2-0.5c-0.1-0.5-0.3-0.7-0.5-0.7h-0.1v0.4C23.2,34,23.1,34,23.1,34h-0.2
	c-0.5,0-1-0.3-1.3-0.8c-0.2-0.3-0.4-0.5-0.7-0.5l0,0C21,32.8,21,32.9,21,33c0,0.1-0.1,0.2-0.3,0.3h-0.9l-0.5-0.2h-0.2
	c0.4,0.1,0.5,0.5,0.4,0.9l-0.7,1.9c-0.1,0.5,0.1,1,0.4,1.3c0.3,0.1,0.6,0.2,0.7,0.5L19.6,38h0.3l0.5-0.2l0.5-0.2h0.3
	c0.7,0.2,1,0.4,1,0.6"/>
<path class="st1" d="M18.9,34.7c0.1,0,0.1,0,0.1-0.1l0,0c-0.2-0.4-0.5-0.7-0.9-0.9h-0.2v0.1l0.9,0.9H18.9z"/>
<path class="st1" d="M12.9,34.7c0,0.4,0,0.9-0.4,0.9l0,0l0.5,0.2h0.4c0-0.1,0.1-0.1,0.2-0.1h0.1l1.2,0.6c0.2,0.1,0.3,0.2,0.3,0.3
	L15,36.9h0.3c0.2,0,0.4,0,0.6-0.2h1l1.4-0.2c0.2-0.2,0.3-0.3,0.2-0.5h-0.2l-1.4,0.2c-1.1,0-2.2-0.4-3.1-1c-0.2-0.1-0.3-0.4-0.2-0.8
	c0.1-0.5,0.4-1.1,0.7-1.5l0.3-0.2h0.3c0.4,0,0.5-0.1,0.5-0.3h-0.2c-0.3,0-0.5-0.1-0.7-0.3l-0.4-0.3H14c0.1,0.1,0.1,0.2,0.1,0.3
	c0,0.2,0,0.3-0.2,0.4c-0.6,0.6-0.9,1.4-1,2.3"/>
<path class="st1" d="M16.1,33.7L16.1,33.7c-0.2-0.4-0.2-0.9,0-1.3l0.5-0.2l0.4,0.2c0.1,0.3,0.1,0.5,0,0.8c-0.1,0.4-0.3,0.7-0.5,0.7
	L16.1,33.7 M17.6,33.3c0.1-0.3,0-0.7-0.2-1c-0.2-0.3-0.5-0.4-0.8-0.4c-0.2,0-0.5,0.1-0.6,0.3c-0.2,0.1-0.3,0.5-0.3,1
	c0,0.4,0.2,0.8,0.5,1.1h0.4c0.4-0.1,0.7-0.4,1-1.1"/>
<path class="st1" d="M17.9,32l0.5-0.2c0.1-0.2,0.1-0.3,0-0.3l-0.3-0.2H18c-0.1,0-0.1,0.1-0.2,0.2c-0.1,0.1-0.2,0.2-0.2,0.4
	c0.1,0.2,0.2,0.2,0.3,0.2L17.9,32z"/>
<path class="st1" d="M17.4,30.9h-0.5c-0.1,0-0.1,0-0.1,0.1s0,0.1,0.1,0.1v0.5c0,0.1,0.1,0.1,0.2,0.1h0.2l0.2-0.3
	c0.1-0.1,0.1-0.1,0.1-0.2h-0.2"/>
<path class="st1" d="M16.4,30.8h-0.5c0,0-0.1,0.1,0,0.3s0.2,0.5,0.4,0.5s0.1-0.1,0.2-0.2v-0.5c0-0.1,0-0.2-0.1-0.2V30.8z"/>
<path class="st1" d="M11.2,34h0.2l0.8,0.2h0.4c0-0.1-0.1-0.1-0.1-0.2C11,33.9,9.7,33.1,9,31.8c-0.1-0.3-0.1-0.6,0.1-0.9
	c0.3-0.5,0.7-0.8,1.2-1l0.4-0.2l0.5,0.2c0.8,0.7,1.4,1.7,1.7,2.7c0,0.2,0.1,0.3,0.2,0.3c0.1,0,0.2-0.1,0.2-0.2l0,0v-0.6
	c-0.1-0.2-0.1-0.3,0-0.4s0.4-0.8,0.1-1.1l0,0C13.3,30.9,13.1,31,13,31c-0.2,0-0.3-0.1-0.4-0.2c-0.3-0.5-0.6-1-1.1-1.3
	c-0.2-0.1-0.3-0.2-0.2-0.3s-0.3-0.6-0.5-0.7h-0.2c0.1,0.3,0,0.7-0.4,0.8c0,0-0.1,0-0.1,0c-0.8,0.2-1.4,0.8-1.7,1.5
	C8.3,31,8.2,31,8.1,31c-0.2,0-0.3-0.1-0.4-0.2l0,0c0,0.3,0.1,0.6,0.4,0.7c0.2,0,0.3,0.1,0.4,0.3l0.4,0.6l0.2,0.2
	c-0.1,0.1-0.3,0.2-0.5,0.2h0.1C8.9,33,9.1,33,9.4,33h0.4l0.5,0.3c0.1,0.1,0.2,0.2,0.2,0.3s-0.1,0.2-0.3,0.3l0,0l0.4,0.2
	c0.2,0,0.3-0.1,0.4-0.3h0.2"/>
<path class="st1" d="M8.4,27.5c0.2,0,0.5,0,0.6,0.5s0.2,0.7,0.1,0.8L8.8,29H8.7c-0.4-0.2-0.6-0.6-0.7-1C8,27.8,8.2,27.5,8.4,27.5
	 M7.7,27.6c-0.1,0.3-0.1,0.6,0.1,0.9c0.2,0.4,0.6,0.8,1.1,0.9H9c0.3,0.1,0.5-0.1,0.6-0.4c0,0,0,0,0,0c0.2-0.4,0.1-0.9-0.2-1.3
	c-0.2-0.3-0.5-0.6-0.9-0.6C8.2,27.1,7.9,27.3,7.7,27.6"/>
<path class="st1" d="M8.6,26.8l0.3-0.2c0-0.1,0.1-0.3,0.1-0.4S8.9,26,8.9,26H8.4c-0.1,0.1-0.1,0.2-0.1,0.3
	C8.3,26.7,8.5,26.9,8.6,26.8"/>
<path class="st1" d="M8,26.9c0.1-0.2,0.1-0.5,0-0.7H7.8l-0.5,0.2c0,0.1,0,0.1,0.1,0.2S7.8,27,7.9,27H8"/>
<path class="st1" d="M7.1,26.6c-0.2,0-0.4,0.2-0.4,0.4l0,0c0.2,0.2,0.4,0.3,0.6,0.3h0.2C7.5,27.1,7.4,26.9,7.1,26.6L7.1,26.6z"/>
<path class="st1" d="M6.9,25.4c0.2,0.1,0.3,0.2,0.3,0.3c0,0.1,0.1,0.2,0.2,0.2h0h0.2c0-0.1,0-0.2-0.1-0.3v-0.4c0.1-0.2,0-0.3,0-0.4
	H7.2c-0.3,0-0.5,0.2-0.6,0.4c0,0.2,0.2,0.3,0.3,0.4"/>
<path class="st1" d="M18,38.3c0,0.1-0.1,0.1-0.2,0.1s-0.4-0.1-0.4-0.2c-0.1-0.2-0.1-0.4,0-0.6h0.3c0.2,0,0.3,0.1,0.4,0.3
	S18.2,38.2,18,38.3 M18.5,38.4c0.1-0.3,0.1-0.7-0.2-0.9c-0.1-0.2-0.4-0.3-0.6-0.2c-0.3,0-0.6,0.1-0.7,0.4c-0.1,0.3-0.1,0.6,0.1,0.9
	c0.2,0.2,0.4,0.3,0.7,0.3C18.1,38.9,18.4,38.7,18.5,38.4"/>
<path class="st1" d="M14.1,41.3h-0.3c-0.2,0-0.3-0.1-0.3-0.3c-0.1-0.1-0.1-0.4,0-0.5h0.3c0.2,0,0.3,0.1,0.4,0.2
	C14.3,40.9,14.3,41.1,14.1,41.3 M13.8,40.1c-0.3,0-0.6,0.2-0.7,0.4c-0.1,0.3-0.1,0.7,0.1,1c0.2,0.2,0.4,0.3,0.7,0.3l0,0
	c0.3,0,0.6-0.2,0.7-0.5c0.1-0.3,0.1-0.7-0.2-0.9C14.3,40.2,14,40.1,13.8,40.1"/>
<path class="st1" d="M35.5,44.6h-0.3c-0.2,0-0.4-0.1-0.5-0.3c-0.1-0.2,0-0.4,0.1-0.5h0.3c0.2,0,0.4,0.1,0.5,0.3
	C35.6,44.3,35.6,44.4,35.5,44.6 M35.1,43.4c-0.4,0-0.7,0.1-0.8,0.4c-0.1,0.3,0,0.7,0.2,1c0.2,0.2,0.4,0.3,0.7,0.3
	c0.3,0,0.6-0.2,0.8-0.5c0.1-0.3,0-0.7-0.2-0.9C35.6,43.5,35.4,43.4,35.1,43.4"/>
<path class="st1" d="M20.3,40.6c-0.7-0.4-1.3-0.9-1.7-1.5h-0.3v0.3c0.4,0.8,1.2,1.3,2,1.6c0.1,0,0.1,0,0.1-0.1S20.4,40.8,20.3,40.6"
	/>
<path class="st1" d="M20.2,43.9l-1.6-0.3h-0.2c0,0.1,0,0.2,0.2,0.2l1.6,0.6h0.2v-0.3L20.2,43.9"/>
<path class="st1" d="M17.3,43.1c-0.5,0-0.9,0.2-1.2,0.5v0.2h0.5c0.2-0.2,0.5-0.3,0.8-0.3h0.1c0.2,0,0.3,0.1,0.3,0.3
	c0,0.1-0.1,0.2-0.2,0.2h0h-0.5l-0.5,0.2h-0.2c0,0.1,0,0.1-0.1,0.1h0.1l0.9,0.2c0.3,0,0.5-0.1,0.7-0.3c0.1-0.2,0.1-0.5,0-0.7
	c-0.2-0.2-0.4-0.4-0.7-0.3"/>
<path class="st1" d="M11.1,36.6h-0.2c0,0.1,0.2,0.3,0.5,0.3c0.4,0,0.8,0.1,1.1,0.4c0.2,0.1,0.2,0.3,0.1,0.3c0,0.1-0.1,0.2-0.2,0.2
	c-0.1,0-0.2-0.1-0.2-0.2c-0.1-0.1-0.1-0.2-0.3-0.2c-0.2-0.1-0.5-0.2-0.7-0.2h-0.3c0.7,0.9,1.2,1,1.4,1c0.2,0,0.5-0.1,0.6-0.3
	c0.1-0.2,0.1-0.5-0.1-0.7c-0.2-0.5-0.9-0.7-1.7-0.7"/>
<path class="st1" d="M38.2,41.4l-1.3-0.3c-0.3,0-0.6,0.1-0.8,0.3c-0.2,0.2-0.3,0.4-0.3,0.6c0.1,0.4,0.4,0.8,0.9,0.7c0,0,0,0,0,0
	c0.5,0,1-0.2,1.4-0.5H37l-0.4,0.2h-0.1c-0.2,0-0.3-0.1-0.3-0.3c0,0-0.1-0.2,0.2-0.3h0.5l0.7,0.2h0.7v-0.2"/>
<path class="st1" d="M33.7,42.2c0.5,0,1.1-0.1,1.6-0.3c0-0.1,0.1-0.1,0.1-0.2s-0.2-0.2-0.3-0.2H35l-1.6,0.2h-1.1
	c-0.2,0-0.2,0.1-0.2,0.1s0,0.2,0.3,0.3h1.3"/>
<path class="st1" d="M33.8,43.5c-0.1-0.1-0.1-0.1-0.1-0.2c0-0.1,0.1-0.2,0.3-0.2l1.4-0.5h0.1c0-0.1-0.1-0.2-0.3-0.2l0,0
	c-1.4,0.2-2.1,0.5-2.2,0.9s0.2,0.4,0.6,0.7h0.2c0.1,0,0.2,0,0.2-0.1c0-0.1,0-0.1-0.1-0.1L33.8,43.5z"/>
<path class="st1" d="M33.6,44.3l-1.3,0.3c-0.1,0.1-0.1,0.1-0.1,0.2c0,0.2,0.1,0.3,0.3,0.3l0,0l1.3-0.3c0.1,0,0.1-0.1,0.1-0.2
	L33.6,44.3"/>
<path class="st1" d="M18.9,42.4c-0.2-0.7-1.7-1.3-3.6-1.6H15c0,0.1,0.1,0.2,0.2,0.3c1.1,0.1,2.1,0.4,3,1l0.3,0.4
	c0,0.1-0.1,0.1-0.2,0.2c-0.1,0.1-0.1,0.1-0.1,0.2c0,0.2,0.1,0.2,0.2,0.2h0.2C18.9,42.8,19,42.5,18.9,42.4"/>
<path class="st1" d="M15.4,40.2c0-0.3-0.3-1-2-1.8h-0.2c0,0.1,0,0.1,0.1,0.2l0.3,0.2c0,0.1,0.1,0.1,0.2,0.1c0.3,0.2,0.6,0.5,0.9,0.8
	l0.2,0.2c0,0.1-0.1,0.1-0.1,0.2s-0.1,0.1,0,0.1h0.3C15.3,40.2,15.4,40.2,15.4,40.2"/>
<path class="st1" d="M15.7,39.2l0.7,0.3l0.9,0.3h0.1c0.2,0,0.4-0.1,0.5-0.2c0-0.2-0.1-0.3-0.2-0.4h-0.2c0,0.1-0.1,0.2-0.3,0.2H17
	l-3.3-1.6h-0.2c0,0.1,0,0.1-0.1,0.1v0.2c0.8,0.6,1.6,0.9,2.2,1.3"/>
<path class="st1" d="M3.5,22.1L3.5,22.1C3.8,22.3,4,22.4,4,22.6s0.1,0.4,0.1,0.6v0.5c0,0.1-0.1,0.1-0.2,0.1l-1.3-0.2v-0.4l0.2-0.4
	h0.4v-0.2l-1.4-0.2v0.2h0.1l0.4,0.2v0.8l-1.2-0.2H0.8v-0.6c0.1-0.3,0.1-0.4,0.2-0.5h0.6v-0.2H0.7l-0.3,2.2h0.2c0-0.1,0-0.2,0.1-0.3
	h0.4l2.5,0.3h0.3C4,24.3,4,24.4,4,24.6h0.2l0.3-2.5l-1-0.4V22.1z"/>
<path class="st1" d="M4.1,19.5H3.5l-0.6,0.4l-0.4,0.3l-0.4,0.2H1.7l-0.3-0.2v-0.3c0-0.2,0.1-0.3,0.3-0.4h0.8v-0.2l-1.3-0.2h0.1v0.2
	c-0.1,0.1-0.2,0.3-0.2,0.4C1,19.9,1,20.2,1.2,20.4c0.1,0.2,0.4,0.3,0.7,0.4h0.6l0.4-0.2l0.3-0.3L3.7,20c0.2-0.1,0.3-0.1,0.5,0
	l0.4,0.2c0.1,0.1,0.1,0.3,0,0.4c0,0.2-0.2,0.4-0.5,0.5H3.5v0.2l1.3,0.2v-0.2H4.6c0-0.1,0-0.2,0.1-0.3L5,20.6c0-0.3,0-0.6-0.2-0.8
	C4.7,19.6,4.4,19.5,4.1,19.5"/>
<path class="st1" d="M5.7,17.6c-0.1,0.1-0.1,0.2-0.2,0.2H5.2l-2.7-1.1v-0.2l0.3-0.4h0.6v-0.2l-1-0.4l-0.8,2.6l1,0.4v-0.2l0,0
	l-0.4-0.4c-0.1-0.1-0.1-0.2,0-0.5v-0.2l2.6,1l0.4,0.3c0,0.1,0,0.2-0.1,0.3h0.2l0.5-1.3H5.7V17.6z"/>
<path class="st1" d="M5.6,14.8l-0.5,0.8l-0.9-1L5.6,14.8z M7.3,14.3v0.2H6.8L3.4,14v0.2l2,2.1c0.3,0.3,0.5,0.5,0.5,0.6
	C6,17,6,17.1,6,17.2h0.1l0.5-0.8H6.3v0.2H5.8l-0.4-0.8l0.5-0.9h0.9c0,0.1,0,0.1,0.1,0.1c0,0,0,0,0,0c-0.1,0.1-0.1,0.2-0.1,0.3h0.1
	l0.6-1.1L7.3,14.3L7.3,14.3z"/>
<path class="st1" d="M8.3,12.4c0,0.3-0.1,0.6-0.3,0.8H7.7l-2.3-1.6H5.3v-0.2c0.2-0.3,0.5-0.5,0.8-0.5h0.2c0.4,0,0.8,0.1,1.1,0.4
	c0.4,0.3,0.7,0.7,0.8,1.2 M8.3,11.4l-0.5-0.6c-0.5-0.5-1.3-0.6-1.9-0.3c-0.3,0.1-0.6,0.4-0.8,0.7l-0.7,1h0.2L4.9,12l0.3,0.2l2.1,1.4
	l0.2,0.3v0.3h0.1l0.7-1c0.2-0.2,0.3-0.5,0.4-0.8v-0.5c0-0.3-0.1-0.5-0.3-0.7"/>
<path class="st1" d="M10.4,10.4c-0.2,0.2-0.4,0.3-0.7,0.2c-0.4-0.1-0.8-0.4-1.1-0.7C8.3,9.6,8,9.2,7.8,8.8c0-0.3,0-0.6,0.2-0.7
	C8.2,8,8.3,7.9,8.5,7.9h0.2c0.4,0,0.7,0.3,1.2,0.7c0.3,0.3,0.6,0.7,0.7,1.1C10.7,10,10.6,10.2,10.4,10.4 M10.3,8.2
	C9.9,7.8,9.4,7.5,8.9,7.4c-0.4,0-0.8,0.1-1.1,0.4C7.5,8.1,7.4,8.6,7.4,9c0.1,0.5,0.4,1,0.8,1.3C8.5,10.7,9,11,9.5,11h0.2
	c0.3,0,0.7-0.1,0.9-0.4c0.3-0.3,0.5-0.7,0.4-1.1C10.9,9,10.7,8.5,10.3,8.2"/>
<path class="st1" d="M12.4,6.8h-1.7l-0.3-0.2c-0.1-0.1-0.1-0.2-0.1-0.3c0-0.2,0.1-0.3,0.2-0.3s0.2-0.2,0.4-0.1
	c0.3,0,0.6,0.1,0.8,0.3h0.2L11,5.3h-0.8C10,5.5,9.9,5.7,9.9,6c0,0.3,0.1,0.5,0.3,0.7c0.1,0.2,0.3,0.3,0.5,0.4h1.5l0.4,0.3
	c0.1,0.2,0.2,0.3,0.2,0.4l-0.2,0.4c-0.2,0.1-0.5,0.2-0.7,0.1L11.3,8l0,0l-0.2,0.2L12,9.1h0.4l0.4-0.2c0.2-0.2,0.4-0.4,0.4-0.7
	c0-0.3-0.1-0.6-0.3-0.8c-0.1-0.2-0.3-0.3-0.5-0.4"/>
<path class="st1" d="M16.6,2.9c-0.1-0.3-0.2-0.5-0.1-0.5s0-0.2,0.2-0.3l0,0V1.9l-1,0.5v0.2H16c0.1,0,0.2,0.1,0.4,0.4L17,4.4
	c0.1,0.2,0.2,0.5,0.2,0.7c0.1,0.3-0.1,0.5-0.4,0.7c-0.3,0.1-0.6,0.1-0.8-0.1c-0.1-0.2-0.2-0.4-0.3-0.6l-0.8-1.6
	c-0.1-0.1-0.1-0.2-0.1-0.3c0-0.1,0-0.2,0.2-0.3h0.1V2.7l-1.3,0.6v0.2h0.1c0.1-0.1,0.2-0.1,0.3,0c0,0,0,0,0,0l0.2,0.2l0.7,1.6
	c0.2,0.3,0.4,0.6,0.6,0.8l0.6,0.2h0.6c0.4-0.3,0.7-0.6,0.6-1.1c0-0.3-0.1-0.6-0.2-0.9L16.6,2.9z"/>
<path class="st1" d="M20,1.2l0.3-0.3l0,0V0.7l-1.2,0.4v0.2h0.1c0.1-0.1,0.2-0.1,0.3,0c0,0,0,0,0,0c0.1,0.1,0.2,0.3,0.2,0.5l0.5,1.6
	L18,1.5l-0.8,0.2v0.2h0.5l0.8,2.4c0.1,0.2,0.1,0.3,0.1,0.5l-0.3,0.3l0,0v0.2l1.1-0.4V4.8H19c-0.1-0.1-0.2-0.3-0.2-0.5l-0.7-1.9
	l2.8,2.2H21l-0.9-2.9C20,1.5,20,1.4,20,1.2"/>
<path class="st1" d="M22.8,4h-0.1c-0.2,0-0.2-0.1-0.2-0.1s-0.1-0.1-0.2-0.3l-0.5-2.5V0.7h0.4V0.4l-1.5,0.3v0.2l0,0
	c0.2-0.1,0.3-0.1,0.4,0v0.3l0.5,2.5v0.4h-0.4v0.2L22.6,4V3.9L22.8,4z"/>
<path class="st1" d="M24.1,3.7h-0.2l-0.3-3.1c0-0.1,0-0.1,0.1-0.1l0,0H24c0.3,0,0.6,0,0.8,0.2C25.1,1,25.3,1.5,25.3,2
	c0.1,0.6,0,1.1-0.3,1.3C24.7,3.5,24.4,3.6,24.1,3.7z M25,0.3l-1.1-0.2l-1.3,0.2v0.2h0.3C23,0.6,23,0.8,23,0.9l0.2,2.5v0.3
	c0,0.1-0.1,0.1-0.3,0.2l0,0v0.2h1.3C24.5,4,24.8,4,25,3.8s0.3-0.1,0.4-0.3c0.2-0.2,0.3-0.4,0.4-0.7c0.1-0.3,0.1-0.5,0-0.8
	C25.9,1.3,25.6,0.7,25,0.3"/>
<path class="st1" d="M28.8,2c0,0.5-0.1,0.9-0.3,1.3c-0.2,0.2-0.4,0.4-0.7,0.3c-0.3,0-0.5-0.2-0.6-0.4C27,2.8,26.9,2.3,27,1.9
	c0-0.4,0.1-0.9,0.3-1.3c0.2-0.2,0.4-0.3,0.7-0.3l0,0c0.3-0.1,0.5,0.1,0.6,0.4c0,0,0,0,0,0C28.8,1.1,28.9,1.6,28.8,2 M28,0
	c-0.4-0.1-0.8,0.1-1.1,0.4c-0.3,0.4-0.5,1-0.5,1.5c0,0.5,0.1,1,0.4,1.4c0.2,0.4,0.6,0.6,1,0.7h0.1c0.4,0,0.8-0.2,1-0.5
	c0.4-0.4,0.5-1,0.5-1.5c0.1-0.5,0-1.1-0.3-1.5C28.8,0.2,28.4,0,28,0"/>
<path class="st1" d="M32,0.5h-0.3l-0.4-0.2l-0.7,0.2c-0.2,0.2-0.3,0.4-0.4,0.7c0,0.2,0,0.5,0.1,0.7l0.3,0.3l0.3,0.4
	c0.2,0.2,0.3,0.3,0.3,0.4c0.1,0.1,0.1,0.3,0.1,0.5c0,0.2-0.1,0.3-0.2,0.4h-0.4c-0.2-0.1-0.4-0.3-0.5-0.5C30.1,3.2,30.1,3,30,2.8
	h-0.2v1.3h0.6l0.4,0.2H31l0.6-0.2c0.2-0.2,0.3-0.4,0.4-0.7c0-0.2,0-0.4-0.1-0.6c0-0.2-0.2-0.4-0.4-0.7l-0.4-0.3l-0.3-0.4V1L31,0.7
	h0.3c0.2,0,0.3,0.1,0.4,0.3c0.1,0.2,0.2,0.5,0.2,0.7h0.2V0.5H32z"/>
<path class="st1" d="M37.5,6.3c-0.2-0.1-0.2-0.1-0.2-0.2S37.2,6,37.4,5.8l1-2.3c0.1-0.3,0.1-0.3,0.2-0.3s0.1-0.1,0.3,0l0,0V3L38,2.6
	l-2,2.1l0.3-2.9l-0.9-0.4v0.2h0.1l0.1,0.2c0,0.1,0,0.3-0.1,0.4l-0.9,2.1l-0.3,0.5h-0.4V5L35,5.5V5.2h-0.1L34.7,5
	c0-0.1,0-0.2,0.2-0.6l0.8-1.8l-0.2,3.1h0.1l2.2-2.3l-0.9,2.1c-0.2,0.2-0.2,0.3-0.3,0.3h-0.3V6l1.2,0.5V6.3z"/>
<path class="st1" d="M40.2,7.1L40.2,7.1l-0.7,0.3l0,0l-0.6-0.3l-0.4-0.3h0.1l0.7-1.2l0.3,0.2L39.9,6c0,0.2,0,0.3-0.1,0.5h0.1
	l0.8-1.2h-0.2l-0.4,0.3h-0.3l-0.4-0.2l0.7-1.1h0.1l0.6,0.3l0.3,0.3c0,0.2,0,0.3-0.1,0.5h0.2l0.4-0.8l-2.1-1.2l0,0l0.2,0.3L39.5,4
	l-1.3,2.2l-0.3,0.3h-0.3v0.2l2,1.2l0.8-0.7L40.2,7.1z"/>
<path class="st1" d="M42.4,9.9l-0.2-0.2V9.3l0.4-1.7l1.1-0.3h1l-0.9-0.8v0.2H44v0.2h-0.3l-0.8,0.3V6.4H43V6.1h0.4l-1.1-0.9h-0.1
	c0.1,0.1,0.2,0.2,0.2,0.4c-0.1,0.3-0.1,0.5-0.1,0.8l-0.2,1l-1.2,0.4L40.2,8h-0.3v0.2l0.9,0.7V8.6l0,0V8.4c-0.1,0-0.1-0.1,0-0.1h0.4
	L42.1,8l-0.2,1.1v0.3h-0.4v0.2l1.1,0.9h0.1L42.4,9.9z"/>
<path class="st1" d="M43.5,10.5l1.8-1.7c0.2-0.2,0.3-0.2,0.3-0.3l0.3,0.2l0,0l0.2-0.2l-1-1H45v0.3c0,0.1,0,0.2-0.2,0.3L43,9.9
	l-0.3,0.2l-0.3-0.2h-0.2l1,1.1l0.2-0.2h-0.1v0L43.5,10.5"/>
<path class="st1" d="M45.7,13.2L45.7,13.2V13h-0.6c-0.2-0.1-0.4-0.2-0.5-0.4c-0.2-0.2-0.2-0.5-0.1-0.8c0.1-0.4,0.4-0.8,0.7-1
	c0.4-0.3,0.8-0.5,1.2-0.6c0.3,0,0.6,0.1,0.8,0.3c0.2,0.3,0.2,0.6,0.1,0.9L47,11.9h-0.1l0.2,0.2l1-0.9h-0.4v-0.3l-0.3-0.5
	c-0.3-0.4-0.7-0.6-1.2-0.5l0,0c-0.5,0-1,0.2-1.4,0.5c-0.4,0.3-0.7,0.7-0.8,1.2c-0.1,0.5,0,1,0.3,1.3c0.1,0.2,0.4,0.4,0.7,0.4
	L45.7,13.2"/>
<path class="st1" d="M48.4,13.4l-0.9,1.1l-0.4-0.8L48.4,13.4z M47,16.2c0-0.1-0.1-0.1,0-0.2l0.2-0.3l2.2-2.6v-0.2l-2.9,0.6h-1.3
	l0.5,0.8h0.2v-0.2c0-0.1,0-0.1,0.1-0.1h0.8l0.6,0.9L47,15.3v0.2h-0.4l-0.2-0.2h-0.2l0.6,1.1H47V16.2z"/>
<path class="st1" d="M51.2,17.8l0.2,0.2h0.2l-0.4-1.1H51v0.3c0,0.1-0.1,0.2-0.5,0.3l-1.6,0.6l1.8-2.5l-0.3-0.7h-0.2v0.2
	c0,0-0.1,0-0.1,0.2H50l-2.3,1h-0.5c-0.1,0-0.2-0.1-0.3-0.3h-0.2l0.5,1.1h0.1v-0.3l0.5-0.3l1.9-0.7l-2,2.8l0,0l2.9-0.7
	C50.9,17.8,51.1,17.7,51.2,17.8"/>
<path class="st1" d="M49.2,21.5c-0.3-0.2-0.5-0.3-0.6-0.6c0-0.3,0.1-0.5,0.3-0.7c0.4-0.3,0.8-0.5,1.2-0.6h1.3
	c0.3,0.1,0.5,0.3,0.5,0.5c0.1,0.3,0,0.5-0.2,0.7c-0.3,0.4-0.7,0.6-1.2,0.6C50.1,21.6,49.6,21.6,49.2,21.5 M50,22.1h0.7
	c0.5-0.1,1-0.4,1.3-0.8c0.2-0.3,0.3-0.7,0.2-1.1c-0.1-0.4-0.3-0.8-0.7-1C51,19,50.4,19,49.9,19.1c-0.5,0.1-0.9,0.4-1.3,0.7
	c-0.3,0.3-0.4,0.8-0.2,1.2c0,0.4,0.3,0.8,0.7,0.9L50,22.1"/>
<path class="st1" d="M52.9,24h-0.2c0-0.1,0-0.2,0.1-0.3v-0.4c0-0.2-0.2-0.4-0.4-0.6h-0.7c-0.2,0-0.5,0.1-0.6,0.3
	c-0.1,0-0.2,0.2-0.3,0.3l-0.2,0.4l-0.4,0.5l-0.4,0.2h-0.4c-0.2-0.1-0.2-0.2-0.2-0.3s0-0.5,0.3-0.7l0.5-0.3l0,0v-0.2l-1.2,0.3v0.2H49
	v0.3c0,0.1-0.1,0.3,0,0.4c0,0.3,0.1,0.6,0.4,0.7C49.5,25,49.8,25,50,25h0.2l0.5-0.2c0.2-0.1,0.3-0.3,0.5-0.6l0.3-0.4
	c0.1-0.2,0.1-0.3,0.2-0.4h0.7c0.1,0.1,0.2,0.2,0.2,0.3s-0.1,0.3-0.2,0.5c-0.1,0.2-0.4,0.4-0.6,0.4h-0.2v0.2l1.3-0.2V24z"/>
<path class="st1" d="M25.8,50.6c-0.2,0-0.3-0.1-0.4-0.3c-0.1-0.5-0.1-1.1,0.1-1.6c0-0.2,0.1-0.3,0.3-0.3c0.2,0,0.3,0.1,0.4,0.3v1.5
	C26.1,50.5,25.9,50.5,25.8,50.6"/>
<path class="st1" d="M27.4,50.5c-0.2,0-0.4-0.1-0.4-0.3v-1.3c0-0.2,0-0.3,0.1-0.4s0.1-0.1,0.2-0.2s0.4,0.2,0.5,0.5v1.3
	c0.1,0,0.1,0,0.1,0.1c0,0.1,0,0.1-0.1,0.1l-0.3,0.2"/>
<path class="st1" d="M22.6,51.5h-0.2c-0.2,0-0.2-0.2-0.2-0.3s0-0.2,0.1-0.2h0.6v0.4L22.6,51.5"/>
<path class="st1" d="M30.3,51.6H30v-0.2c0.1-0.2,0.2-0.3,0.4-0.4h0.1c0.1,0.1,0.2,0.2,0.2,0.3c0,0.2-0.1,0.3-0.2,0.4L30.3,51.6"/>
<path class="st1" d="M23.4,50.9h-0.2l-0.3-0.2v-0.2c0.5-0.4,1.1-0.7,1.8-0.8l0,0c0.2,0,0.3,0.1,0.3,0.2c0,0.1-0.1,0.3-0.2,0.4
	c-0.4,0-0.8,0.2-1.1,0.4C23.6,50.9,23.5,50.9,23.4,50.9"/>
<path class="st1" d="M29.6,51c-0.1,0-0.1,0-0.1-0.1c-0.4-0.3-0.8-0.5-1.2-0.6c-0.1,0-0.2,0-0.2-0.2v-0.4c0.7,0.1,1.4,0.3,1.9,0.8
	l0,0l-0.4,0.3L29.6,51z"/>
<path class="st1" d="M28.4,53.7h-0.2L26.8,53c-0.2-0.1-0.2-0.2-0.2-0.3s0.2-0.4,0.4-0.4h0.2l0.7,0.4c0.3,0.1,0.6,0.2,0.8,0.4
	c0.1,0.1,0.2,0.1,0.2,0.2c0,0.1,0,0.1-0.1,0.1l-0.2,0.3H28.4"/>
<path class="st1" d="M22.8,53.3h-0.1c-0.1,0-0.1-0.1-0.1-0.2s0.8-1.2,1.6-1.7l0.7-0.5h0.2c0.1-0.1,0.1,0,0.2,0l0.3,0.2h0.1l-0.8,0.6
	c-0.5,0.2-1,0.6-1.3,1.1C23.4,53.1,23.1,53.2,22.8,53.3z"/>
<path class="st1" d="M24.9,53.6h-0.2l-0.3-0.3c-0.1-0.1-0.1-0.3,0.1-0.5l1-0.8l1.1-0.8l0.3-0.3h0.7c0,0.2-0.1,0.4-0.2,0.5
	c-0.4,0.4-0.8,0.8-1.3,1.1c-0.4,0.2-0.8,0.5-1,0.9L24.9,53.6"/>
<path class="st1" d="M30.2,53H30l-0.5-0.3c-0.2-0.2-0.4-0.3-0.6-0.4l-0.5-0.2l-0.6-0.3c-0.1,0-0.2-0.1-0.2-0.2l0,0
	c0-0.2,0.1-0.3,0.3-0.4c0-0.1,0-0.1,0.1-0.2h0.2l0.7,0.4c0.7,0.2,1.3,0.7,1.7,1.4c0.1,0,0.1,0,0.1,0.1h-0.5"/>
<path class="st1" d="M19.9,50c0.4,0.1,0.6,0.1,0.7,0.3c0,0.1,0,0.2-0.1,0.3c-0.1,0.2-0.1,0.3,0,0.3c0,0.1,0,0.1,0.1,0.1
	s0.4-0.2,0.6-0.6s0.1-0.3,0.4-0.4s0.3-0.3,0.2-0.4v-0.2h-0.2c-0.1,0.1-0.2,0.2-0.4,0.2H21c-0.3,0.1-0.6-0.1-0.8-0.3l-0.5-0.8
	l-0.2-0.2l0,0c-0.1,0-0.1,0.1,0,0.3l0.2,0.4c0.1,0.1,0.1,0.1,0.1,0.2h-0.2c-0.8,0-1.5-0.4-1.9-1c-0.1-0.1-0.1-0.2-0.2-0.2h-0.1
	c0,0.1,0,0.1,0.1,0.2l0.2,0.4c0.1,0.1,0.1,0.1,0.1,0.2h-0.2c-0.7,0-1.3-0.2-1.8-0.7h-0.2c-0.1,0.1-0.1,0.1,0,0.2v0.2h-1.4
	c0,0.1,0.1,0.2,0.3,0.2c0.8-0.1,1.5-0.1,2.3,0.1c0.1,0,0.1,0,0.1,0.1s0,0,0,0.1l-0.4,0.4c-0.1,0.1-0.1,0.1-0.1,0.2
	c0,0.1,0,0.1,0.1,0.1h0.2c0.4-0.3,0.9-0.5,1.4-0.6h0.5c0.1,0.1,0.1,0.2,0,0.3c0,0,0,0,0,0l-0.2,0.4v0.3h0.3c0.3-0.4,0.7-0.8,1.1-0.8
	L19.9,50z M19.7,52h-0.3c0-0.1,0-0.1,0.1-0.2l0.3-0.6c0.1-0.1,0-0.1,0-0.2h-0.1c-0.2,0.1-0.3,0.1-0.4,0.3c-0.4,0.4-0.9,0.7-1.5,0.8
	h-0.5l-0.2-0.2c0-0.1,0-0.2,0.1-0.3l0.4-0.8c0.1-0.1,0.1-0.2,0-0.2h-0.2l-1.1,0.5h-0.4l-0.6-0.2v-0.1l0,0c0.2-0.1,0.4-0.3,0.5-0.5
	v-0.2c0-0.1-0.1-0.1-0.3-0.1h-1c-0.6,0.1-1.1,0.1-1.2-0.1s-0.2-0.2-0.2-0.3s0.1-0.2,0.4-0.3l1.1-0.5h0.2c0-0.1-0.1-0.2-0.1-0.3
	c-0.1,0-0.1,0-0.1-0.1c0-0.1,0.1-0.2,0.2-0.2c0,0,0,0,0,0h0.4c0.3-0.1,0.7,0.1,1.2,0.5h0.2c0.1-0.1,0.1-0.2,0-0.3c0,0,0,0,0,0v-0.7
	h0.2c0.7,0,1.3,0.4,1.7,1c0.1,0.2,0.2,0.2,0.3,0.2h0.1v-0.3l-0.2-0.4c0-0.1,0-0.2,0.1-0.3h0.3c0-0.1,0.1-0.1,0.2-0.1
	s0.6,0.1,0.7,0.4l0.6,0.9l0.3,0.2c0.1,0,0.2-0.1,0.3-0.3c0-0.1,0.1-0.2,0.2-0.2h0c0.2,0,0.5,0.2,0.8,0.6l0.6,0.2h0.3
	c0.4-0.2,0.9-0.3,1.4-0.4h0.6c0.1,0.1,0.2,0.2,0.2,0.3s-0.2,0.3-0.6,0.4h-0.4c-0.6,0.1-1.1,0.4-1.5,0.8l-0.5,0.2H22
	c-0.2,0.1-0.5,0.4-0.6,0.6c-0.4,0.4-0.8,1-1.5,1"/>
<path class="st1" d="M10.8,46.2c0.3,0,0.4,0,0.5,0.2l0,0c0,0.1,0.1,0.3,0.2,0.3h0.9c0.1,0,0.1,0,0.1-0.1c0.1-0.1,0-0.1,0-0.2
	S12.2,46,12.1,46H12c-0.1,0.1-0.2,0-0.3,0s-0.5-0.8-0.5-1.8c0.1-0.1,0.1-0.2,0-0.3c0,0,0,0,0,0l0,0c-0.1,0-0.2,0.1-0.2,0.3v0.6
	c0,0.2-0.1,0.2-0.1,0.2h-0.3c-0.4-0.3-0.7-0.8-0.8-1.3c0-0.2,0-1.3-0.4-0.6s-0.3-0.4-0.5-0.7s0-0.2-0.1-0.1s-0.1,0.1-0.1,0.2
	s-0.1,0.2-0.1,0.3H8.4c0,0.1,0.1,0.1,0.2,0.2s0.7,0.4,0.9,1.1c0.1,0.1,0.1,0.1,0.1,0.2H8.2l0.3,0.2l1.1,0.2c0.3-0.1,0.6,0.1,0.8,0.5
	s0.1,0.2,0.1,0.3h-0.2l-1.1,0.3H8.9c0,0.1,0.1,0.1,0.3,0.2h1.6 M14.2,47.8H14c-0.6-0.5-1.4-0.8-2.2-0.7l-1,0.2c-0.1,0-0.1,0-0.1-0.1
	s-0.1-0.1-0.1-0.3s0-0.3-0.2-0.3H9.8c-1,0.1-1.6-0.1-1.9-0.8c-0.3-0.7-0.1-0.1,0-0.2H8l1.3-0.2h0.2c0.1-0.1,0-0.2-0.2-0.2
	S7.2,44.6,7,44c-0.1-0.1-0.1-0.1-0.1-0.2h1.5c0.1-0.1,0-0.1-0.2-0.2l-1-0.6c-0.1-0.1-0.1-0.2-0.1-0.3h0.8l0.3-0.2
	c0.1-0.1,0.1-0.3,0.1-0.6v-0.3c0-0.3,0-0.4,0.1-0.4s0.2,0.1,0.5,0.5L9.3,42c0.1,0,0.2-0.2,0.2-0.6h0.4c0.4,0.2,0.4,1.2,0.4,2.2v0.2
	h0.2c0.1,0,0.2-0.1,0.2-0.3l0.2-0.7c0-0.1,0.1-0.2,0.2-0.2c0,0,0,0,0,0c0.1-0.1,0.2,0,0.4,0.1s0.5,0.9,0.4,2.3v0.2H12
	c0.1-0.1,0.3-0.1,0.3-0.4h0.3c0,0,0.1,0,0.1,0.2c0.1,1.1,0.7,2,1.6,2.6c0.1,0.1,0.1,0.2,0.1,0.3L14.2,47.8"/>
<path class="st1" d="M13.9,45.6l-0.3-0.2c0-0.1,0-0.2,0.1-0.3h0.7c0.1,0,0.1,0.1,0.1,0.2C14.4,45.5,14.1,45.6,13.9,45.6z"/>
<path class="st1" d="M11.4,48.9h-0.2c-0.1-0.1-0.2-0.2-0.2-0.4c0-0.2,0-0.3,0.1-0.4h0.3c0.2,0,0.3,0.2,0.4,0.5s0,0.2-0.1,0.2
	L11.4,48.9"/>
<path class="st1" d="M14.8,47.5c-0.1,0-0.3-0.1-0.5-0.4s-0.3-0.4-0.6-0.5c-0.1-0.1-0.2-0.2-0.2-0.4l0.3-0.2h0.1l0.6-0.2H15
	c0,0.2,0,0.3-0.1,0.4s-0.2,0.3-0.2,0.5s0.2,0.6,0.1,0.7L14.8,47.5z"/>
<path class="st1" d="M12.3,49c-0.1,0-0.2,0-0.2-0.2c0-0.2,0-0.4-0.1-0.6c-0.1-0.2-0.2-0.3-0.1-0.5h0.5l0.7,0.2h0.6
	c0.1,0.1,0.1,0.1,0.1,0.2h-0.3c-0.2,0.1-0.6,0.1-0.8,0.5S12.5,48.9,12.3,49"/>
<path class="st1" d="M4.7,39.6H4.5C4.5,39.7,4.6,39.7,4.7,39.6c0.1,0.1,0.7,0.1,0.9,0.3h0.3c0-0.1,0-0.1-0.1-0.2
	c-0.1-0.3,0-0.6,0.2-0.8c0.1-0.1,0.1-0.2,0.1-0.3H5.7c-0.2,0.1-0.3,0-0.4-0.1c-0.2-0.3-0.2-0.7,0-1c0.1-0.5,0.3-0.9,0.5-1.4v-0.2
	H5.5c-0.1,0.3-0.2,0.5-0.2,0.8C5.1,37,5,37.3,4.9,37.3S4.5,37,4.3,36.7c-0.2-0.4-0.2-0.8,0-1.2v-0.2H4l-0.2,0.3l-0.5-0.3H3v0.3h0.1
	c0.2,0.1,0.5,0.4,0.5,0.5H2.9v0.2c0,0,0,0.1,0.2,0.1c0.7,0,1.3,0.5,1.5,1.2c0,0.1-0.1,0.2-0.3,0.2H3.5c-0.1,0-0.2,0.1-0.2,0.2l0,0
	h0.2c1,0.1,1.7,0.6,1.6,1s-0.2,0.3-0.4,0.3V39.6z M7.7,42.2H7.5C7,41.9,6.4,41.5,6,41c-0.2-0.4-0.6-0.7-1-0.7
	c-0.6-0.1-1.2-0.4-1.6-0.8c-0.1-0.1-0.1-0.1,0-0.2H4c0.1,0,0.1,0,0.1-0.1c0.1-0.1,0-0.2-0.2-0.3S2.1,38.4,2,37.8v-0.2h0.6
	c0.1,0,0.1,0,0.1-0.1c0,0,0-0.1-0.2-0.2c-0.4-0.1-0.8-0.3-1-0.7c-0.1-0.1-0.1-0.2-0.1-0.3l0.3-0.2h0.6c0-0.1-0.1-0.3-0.2-0.4
	C2,35.6,2,35.5,2,35.4h0.5L3,35.2h0.2l0.3,0.2c0,0.2,0.1,0.4,0.3,0.4C4,35.8,4,35.7,4,35.5s0.2-0.4,0.3-0.4h0.3
	c0.2,0.2,0.2,0.6,0,1.4c-0.1,0-0.1,0-0.1,0.1c0,0.1,0,0.1,0.1,0.1l0,0h0.1c0.1,0,0.3-0.2,0.4-0.4s0.2-0.9,0.5-0.9h0.2
	c0.2,0,0.3,0.1,0.4,0.3s0.1,1-0.2,1.9v0.3h0.2c0.1,0,0.2,0,0.2-0.1l0.3-0.3h0.2c0.1,0.1,0.1,0.4,0,0.8S6.4,41,7.8,41.8
	c0.1,0.1,0.1,0.2,0.1,0.3L7.7,42.2"/>
<path class="st1" d="M7.4,41.3C7.3,41.3,7.3,41.3,7.4,41.3c-0.2-0.8-0.3-1.2-0.5-1.3c-0.1-0.1-0.1-0.4,0-0.5h0.3l0.9,0.2
	c0.1,0,0.2,0.1,0.3,0.3c0,0.1-0.1,0.2-0.2,0.2c0,0,0,0,0,0c-0.3,0-0.6,0.3-0.5,0.7c0,0,0,0.1,0,0.1c-0.1,0.3-0.2,0.4-0.3,0.4"/>
<path class="st1" d="M7.9,39.2H7.7c-0.2,0-0.3-0.1-0.3-0.3c0-0.2,0.1-0.3,0.2-0.4h0.6c0.1,0,0.1,0.2,0.1,0.4
	C8.2,39,8.1,39.1,7.9,39.2"/>
<path class="st1" d="M4.6,42.1c-0.2,0-0.3-0.1-0.3-0.2c-0.1-0.1-0.1-0.4,0-0.5l0.3-0.2c0.1,0,0.3,0,0.3,0.3s0.1,0.3,0,0.4
	S4.8,42,4.6,42.1"/>
<path class="st1" d="M5.4,42.6H5.1c0-0.1-0.1-0.2,0-0.3c0.1-0.3,0.1-0.5,0.1-0.8c0-0.2,0.2-0.3,0.3-0.4s0.3,0.1,0.3,0.2
	s0.3,0.5,0.6,0.6c0.2,0.1,0.4,0.2,0.5,0.4c0,0.1-0.1,0.1-0.2,0.1H6.1c-0.2,0-0.3,0-0.3,0.1s-0.3,0.2-0.4,0.3"/>
<path class="st1" d="M1.1,29c0,0.1,0,0.1,0.1,0.3s0.6,1.1,0.5,1.3c0,0.1-0.1,0.2-0.2,0.2c0,0,0,0,0,0H1.3c-0.1,0-0.1,0-0.1,0.1
	s0,0.1,0.1,0.1l0,0l0.3,0.2c0.3,0.1,0.4,0.2,0.3,0.5V32c0.2,0.2,0.3,0.3,0.5,0.2c0.1,0,0.1,0,0.1-0.1c0.1-0.1,0-0.3-0.2-0.5H2.1
	c0-0.1,0.1-0.2,0.2-0.3s0.5-0.6,0.5-0.6H2.4c-0.3,0-0.3-0.1-0.4-0.5c-0.1-0.4,0.1-0.5,0.3-0.6s0.6-0.4,0.6-0.5H2.3v-0.3
	c0-0.4,0.2-0.8,0.5-1c0.1-0.1,0.2-0.2,0.1-0.3H2.7c-0.2,0-0.4,0.1-0.6,0.2C2,27.9,2,28.1,2,28.3v1H1.6L1.2,29C1.2,29,1.1,29,1.1,29z
	 M3.2,34.6L3.2,34.6c-0.4-0.1-0.5-0.4-0.6-0.7s-0.4-1.3-0.7-1.4s-0.6-0.4-0.6-0.6s-0.2-0.6-0.4-0.6s-0.8-0.4-0.8-0.8
	C0,30.3,0,30.2,0,30h0.2l0.5,0.2h0.1c0.1,0,0.1,0,0.1-0.1l0,0c0.1-0.1,0-0.2,0-0.4l-0.4-0.6c-0.1-0.3-0.1-0.6,0.1-0.9L1,27.9
	c0.1,0,0.1,0,0.1,0.1l0,0c0.3,0.4,0.4,0.4,0.5,0.4s0.1-0.2,0.1-0.3s0.2-1.4,0.6-1.4h0.6c0.1,0,0.3-0.1,0.6-0.4h0.2l0.2,0.3
	c0.1,0.4,0,0.9-0.4,1.2c-0.1,0.2-0.2,0.3-0.1,0.4h0.1c0.2,0,0.4-0.1,0.5-0.2h0.2c0.1,0,0.1,0.1,0.1,0.3s-0.3,1-1.2,1.5
	S2.9,29.9,2.9,30c0,0.1,0.1,0.2,0.2,0.2c0,0,0,0,0,0h0.2L3.8,30h0.3c0,0.3-0.1,0.6-0.4,0.8c-0.2,0.3-0.3,0.5-0.5,0.6H3
	c0,0.1,0,0.2,0.1,0.2c0.1,0.2,0.1,0.3,0,0.5c-0.4,0.3-0.3,1,0.1,2.1C3.3,34.3,3.3,34.5,3.2,34.6L3.2,34.6"/>
<path class="st1" d="M4.7,32.2H4.3c-0.1-0.1-0.1-0.2-0.1-0.3c0-0.2,0.1-0.3,0.3-0.3c0.2,0,0.4,0.1,0.5,0.2c0.1,0.1,0,0.2,0,0.4
	L4.7,32.2"/>
<path class="st1" d="M0.5,33.5H0.2c-0.1-0.1-0.2-0.2-0.1-0.4c0-0.2,0.1-0.3,0.3-0.3c0-0.1,0-0.1,0.1-0.1h0.3c0,0.1,0.1,0.3,0,0.5
	S0.6,33.4,0.5,33.5"/>
<path class="st1" d="M2.3,34.4C2.2,34.4,2.2,34.4,2.3,34.4c-0.4-0.3-0.6-0.5-0.8-0.5l-0.2,0.2H0.8c-0.1,0-0.1-0.1-0.1-0.3
	c0.2-0.2,0.4-0.5,0.5-0.8c0-0.1,0.1-0.1,0.2-0.1s0.4,0.1,0.4,0.3v0.3l0.4,0.6C2.3,34.2,2.3,34.3,2.3,34.4z"/>
<path class="st1" d="M3.7,34.1v-0.2c-0.1-0.2,0-0.4,0-0.6s0.1-0.4-0.1-0.6c0-0.1,0-0.3,0.1-0.4c0-0.1,0.1-0.1,0.2-0.1H4l0.7,0.4
	c0.2,0,0.3,0.1,0.3,0.3c0,0.1-0.2,0.2-0.4,0.3S4.1,33.4,4,33.9S3.9,34.1,3.7,34.1"/>
<path class="st1" d="M39,46.3c-0.1,0.1-0.2,0-0.3-0.1V46c0.1-0.2,0-0.4-0.3-0.6c-0.1-0.2-0.2-0.4-0.1-0.6c0.1-0.2,0.4-0.4,0.6-0.4
	l0.5,0.2c0.2,0.2,0.2,0.6,0,0.8c-0.1,0.1-0.2,0.3-0.1,0.5c0.1,0.1,0.1,0.2,0,0.3c0,0,0,0,0,0C39.3,46.3,39.2,46.3,39,46.3"/>
<path class="st1" d="M45.7,40.4c-0.1,0-0.2,0-0.3-0.2s-0.1-0.3-0.4-0.3s-0.5-0.4-0.4-0.6c0.1-0.3,0.3-0.6,0.7-0.6
	c0.3,0,0.5,0.2,0.5,0.6s0,0.4,0.2,0.5c0.1,0.1,0.1,0.2,0.1,0.3C46,40.3,45.9,40.4,45.7,40.4"/>
<path class="st1" d="M49.3,32.6H49c-0.1-0.2-0.2-0.2-0.4-0.2h-0.1c-0.5-0.1-0.6-0.4-0.6-0.6c0.1-0.3,0.4-0.5,0.7-0.6
	c0.2-0.1,0.4,0.1,0.5,0.4h0.1c0,0.2,0.1,0.3,0.2,0.4c0.2,0,0.2,0.2,0.2,0.3C49.6,32.5,49.5,32.6,49.3,32.6"/>
<path class="st1" d="M40.7,48.9c-0.3,0.1-0.5-0.1-0.6-0.4c0,0,0,0,0,0c0-0.2-0.2-0.3-0.4-0.4s-0.2-0.1-0.2-0.3s0.2-0.3,0.4-0.4
	s0.1,0.1,0.2,0.2h0.6c0.4,0,0.6,0.1,0.6,0.4s-0.3,0.8-0.6,0.8"/>
<path class="st1" d="M48.2,41.8h-0.5l-0.3-0.2h-0.5c0-0.1,0-0.1-0.1-0.2c0-0.2,0.2-0.4,0.4-0.4h0h0.3l0.3-0.2h0.4
	c0.2,0,0.3,0.1,0.4,0.2c0.1,0.2,0.1,0.5,0,0.7c-0.1,0.2-0.2,0.3-0.4,0.3"/>
<path class="st1" d="M52,33.2h-0.9c0,0.1,0,0.1-0.1,0.1c-0.2,0-0.4-0.1-0.4-0.3c0-0.1,0.1-0.2,0.1-0.3h0.4c0.2,0,0.3-0.1,0.4-0.3
	l0.4-0.2c0.2,0,0.3,0,0.4,0.2c0.2,0.2,0.2,0.5,0.1,0.8c-0.1,0.1-0.2,0.2-0.4,0.2"/>
<path class="st1" d="M32.9,50.9h-0.6L30.6,50c-0.7-0.4-1.6-0.7-2.4-0.7c-0.1,0-0.2-0.2-0.2-0.3c0-0.2,0.1-0.3,0.3-0.3
	c0.9,0.1,1.8,0.4,2.7,0.8h0.5c0.3-0.1,0.5-0.1,0.7-0.3h0.3c1.6-0.8,3.2-1.4,5-1.6h0.8c0,0.1-0.1,0.2-0.5,0.2h-0.2
	c-0.3,0-0.6,0.1-0.9,0.3l-1.3,0.6c-0.6,0.4-1.3,0.7-2,0.8h-0.2c-0.5,0-0.9,0.2-0.9,0.4l0.3,0.2h0.5c0.7-0.1,1.4-0.4,2-0.7
	c1-0.7,2-1.2,3.2-1.5h0.3v0.3c-1,0.8-2.2,1.4-3.4,1.9l-0.9,0.3C33.9,50.6,33.5,50.7,32.9,50.9"/>
<path class="st1" d="M34.4,51.9c-1.1,0.1-1.8-0.1-2.1-0.7c0.3,0.1,0.5,0.1,0.8,0c1-0.1,2-0.4,2.9-1c0.6-0.3,1.2-0.5,1.8-0.6
	c0.3,0,0.4,0,0.4,0.1c0,0.1,0,0.1-0.1,0.1L35,51.1l-0.3,0.2c0,0.1,0.1,0.2,0.2,0.1c0.7-0.2,1.4-0.4,2.1-0.8c0.5-0.3,1-0.5,1.6-0.6
	h0.3v0.2c-1.3,0.7-2.7,1.2-4.1,1.7h-0.3"/>
<path class="st1" d="M31.8,49.3c-0.4,0-0.8-0.1-0.9-0.3H31c0.6-0.2,1.2-0.5,1.7-1c0.3-0.3,0.6-0.6,1-0.8l0.5-0.2l0.7-0.2
	c0.3-0.2,0.7-0.4,1.1-0.4c0.2-0.1,0.5,0,0.7,0.1c0.2,0.1,0.2,0.2,0.2,0.2h-0.4c-0.5,0-1,0.2-1.4,0.5L34,47.6
	c-0.3,0.1-0.7,0.2-0.7,0.4h0.9c0.2,0,0.4-0.1,0.6-0.3l0.8-0.3l0.8-0.2l0.5-0.2l0,0c0.1,0,0.2,0.1,0.2,0.2l0,0c0,0.1,0,0.2-0.2,0.3
	h-0.7l-1.1,0.3l-3,1.4L31.8,49.3"/>
<path class="st1" d="M39.2,47.4c-0.2,0-0.3-0.1-0.3-0.2c-0.1-0.1-0.1-0.2,0-0.3c0,0,0,0,0,0c0.2-0.2,0.4-0.5,0.7-0.6
	c0.8-0.5,1.5-1.2,2.1-1.9c0.7-0.8,1.4-1.6,2.3-2.2l1.3-1.1l0.2-0.2v0.2c-0.1,0.6-0.6,1.2-1.6,1.9c-1,0.6-1.8,1.4-2.5,2.3
	c0,0.1-0.1,0.2,0,0.3l0,0c0.1,0,0.2,0,0.5-0.3c0.6-0.7,1.3-1.4,2.1-1.9c0.7-0.5,1.2-1.1,1.6-1.9h0.1c0,0,0.1,0,0.1,0.4
	c-0.1,0.8-0.6,1.6-1.3,2c-0.8,0.9-1.8,1.6-2.9,2.1c-1.1,0.3-1.8,0.6-2.1,1.2L39.2,47.4"/>
<path class="st1" d="M42.8,46.6h-1.4c-0.2,0-0.3,0-0.3-0.1l0.2-0.2c1.8-0.6,3.4-1.7,4.5-3.3l0.3-0.2h0.1V43c-0.6,1-1.4,1.8-2.3,2.4
	l-0.3,0.2c-0.1,0.1-0.2,0.2-0.2,0.3h0.3c1.1-0.8,2.1-1.7,2.9-2.7c0-0.1,0-0.1,0.1-0.1l0,0c0.1,0.4-0.1,0.8-0.7,1.4
	c-0.6,0.7-1.3,1.3-2,1.8L42.8,46.6"/>
<path class="st1" d="M40.3,45.4L40.3,45.4l-0.1-0.2c0.1-0.4,0.2-0.9,0.3-1.3c0.1-0.5,0.4-1,0.8-1.4c0.8-0.6,1.5-1.3,2.1-2h0.1v0.2
	c0,0.4-0.3,0.6-0.7,1.1c-0.3,0.2-0.7,0.6-0.9,0.9l-0.8,0.9c-0.1,0.1-0.1,0.2,0,0.3c0,0,0,0,0,0h0.1c0.1,0,0.2-0.1,0.3-0.3
	c0.4-0.7,1-1.3,1.6-1.8l0.2-0.2c0,0,0.1,0.1,0,0.3c-0.1,0.4-0.4,0.8-0.8,1l-1.3,1.6C41,44.9,40.7,45.2,40.3,45.4"/>
<path class="st1" d="M46.3,41.2h-0.2v-0.4c0.6-0.7,1-1.6,1.1-2.6l0.2-0.6c0.5-1.3,1.1-2.5,1.9-3.6c0.1-0.2,0.2-0.2,0.2-0.2v0.3
	c-0.2,0.8-0.6,1.6-1,2.4c-0.3,0.6-0.5,1.2-0.7,1.8v0.3h0.1l0.2-0.2c0.6-0.8,1.1-1.8,1.3-2.8c0.2-0.7,0.5-1.4,0.8-2.1l0.2-0.3
	c0,0,0.1,0,0.1,0.4c-0.1,1.6-0.6,3.1-1.5,4.5l-0.6,0.7c-0.3,0.2-0.5,0.4-0.6,0.7c-0.3,0.5-0.7,1-1.1,1.4l-0.2,0.2"/>
<path class="st1" d="M46.6,39L46.6,39c-1.2-1.6-0.1-3.6,1-4.9s0.2-0.2,0.2-0.2s0.1,0.1,0.1,0.2c-0.3,0.3-0.5,0.7-0.5,1.2
	c-0.2,0.6-0.4,0.8-0.5,1.1l-0.3,0.4c-0.1,0.3-0.2,0.6-0.1,0.6h0.1c0.1,0,0.1-0.1,0.2-0.2c0.3-0.6,0.6-1.2,0.8-1.8
	c0.1-0.5,0.3-1,0.6-1.4h0.3v0.2c-0.3,0.9-0.7,1.8-1.2,2.6c-0.3,0.4-0.4,0.9-0.4,1.4C46.8,38.6,46.7,39,46.6,39"/>
<path class="st1" d="M48.1,39.7L48.1,39.7c-0.1-0.1-0.1-0.2,0-0.3c0.8-0.6,1.4-1.4,1.7-2.3c0.1-0.8,0.5-1.6,1.2-2.1h0.3
	c0,0,0,0.1-0.2,0.3c-0.4,0.5-0.6,1-0.8,1.6c-0.2,0.5-0.4,1-0.7,1.5l-0.2,0.3h0.3c0.4-0.4,0.6-0.9,0.8-1.5c0.3-0.7,0.6-1.4,1-2
	c0.2-0.1,0.2-0.2,0.2-0.2s0.1,0.1,0,0.4c-0.2,0.4-0.4,0.8-0.5,1.2c-0.2,0.8-0.6,1.5-1.1,2.2l-0.7,0.4c-0.1,0.1-0.2,0.2-0.4,0.2
	l-0.5,0.2L48.1,39.7"/>
<path class="st1" d="M49.7,31h-0.2c-1-0.8-1.2-2.1-0.7-4.1v-0.2h0.1c0.2,0.3,0.3,0.7,0.2,1c-0.2,0.7-0.2,1.5,0.1,2.2
	c0,0.1,0.1,0.1,0.2,0.1h0.1v-0.2c-0.2-0.5-0.3-1.1-0.1-1.7v-0.5h0.1c0.2,0.2,0.3,0.5,0.2,1.3c-0.1,0.4-0.1,0.9,0.1,1.3
	C49.9,30.5,49.9,30.8,49.7,31L49.7,31"/>
<path class="st1" d="M50,33.1h-0.2c-0.1,0-0.1-0.1-0.1-0.2c0-0.4,0.1-0.9,0.2-1.3c0.1-0.5,0.2-1.1,0.2-1.6c0-1.9,0.1-3.1,0.6-3.6
	h0.2c0.1,0,0.1,0.1,0.1,0.2c0.1,0.5,0,1.1-0.3,1.5c-0.2,0.7-0.2,1.4-0.2,2.1c0,0.1,0,0.1,0.1,0.2h0.2c0.1-0.1,0.2-0.2,0.2-0.3
	c-0.1-0.7-0.1-1.4,0.2-2c0.2-0.5,0.3-1,0.1-1.5h0.2c0.1,0.1,0.3,0.3,0.3,1c0,0.8-0.1,1.6-0.3,2.4l-0.6,1c-0.3,0.3-0.5,0.7-0.6,1.1
	c-0.1,0.3-0.2,0.6-0.1,0.9c0,0.2-0.1,0.3-0.2,0.3"/>
<path class="st1" d="M50.8,31.9L50.8,31.9c-0.1,0-0.1-0.1,0-0.3l1-1.6c0.3-0.9,0.4-1.8,0.4-2.7c-0.1-0.2,0-0.2,0-0.3h0.1
	c0.2,0.1,0.3,0.2,0.2,0.6L52.3,29l-0.2,0.9c0,0.1,0,0.2,0.1,0.2l0,0c0.1,0,0.2,0,0.2-0.2c0-0.4,0.1-0.8,0.3-1.2
	c0.2-0.6,0.2-1.2,0-1.8h-0.1c0,0,0.1,0,0.2,0.2c0.4,0.3,0.5,0.8,0.3,1.2C53,28.6,53,28.8,53,29.1c0.1,0.4-0.1,0.9-0.3,1.2l-1.4,1.4
	L50.8,31.9"/>
</svg>
