<?xml version="1.0" encoding="UTF-8"?>
<svg xmlns="http://www.w3.org/2000/svg" version="1.1" viewBox="0 0 1639.9 224">
  <defs>
    <style>
      .cls-1 {
        fill: #da352e;
      }

      .cls-2 {
        fill: #6b6b6b;
      }
    </style>
  </defs>
  <!-- Generator: Adobe Illustrator 28.6.0, SVG Export Plug-In . SVG Version: 1.2.0 Build 709)  -->
  <g>
    <g id="Capa_1">
      <g>
        <g>
          <path class="cls-2" d="M117.3,91.3c-.9,0-1.4.7-1.6,2-.7,4.3-1.8,5.5-3.5,6-2.1.7-4.6.8-9.4.8s-5.8-.2-7.5-.6c-1.8-.4-2.2-1.3-2.4-4.8,0-1.5,0-7.8,0-17.8v-8c2.5,0,11.9.1,14.5.4,2.5.2,3,1.1,3.3,1.9.2.7.2,1.2.3,2.1v.5c0,1.8.8,2.2,1.5,2.2s1.5-.1,1.5-2.1c0-.4,0-.9,0-1.6,0-1.2.1-2.8.3-4.4.1-1.3.3-2.3.5-3,.1-.6.2-1,.2-1.1.1-.6,0-1.1-.3-1.5-.2-.3-.6-.5-1-.5-1,0-1.4.9-1.6,1.3-.4.7-.8,1-3.5,1.2-1.9,0-12.6,0-15.6,0v-26.5c4.7,0,12.2.1,14.1.3,3.5.3,4.3.8,4.8,2.1.2.4.5,1.3.5,3.2s0,2.3,1.5,2.3,1.6-.3,1.6-2.4c0-2,.2-3.6.3-4.8v-1c.2-.9.3-1.6.4-2.1,0-.4.2-.8.2-1.1,0-.5,0-1-.3-1.3-.2-.3-.6-.5-1-.5s-.6,0-1.2.3c-.4.2-2.4.3-3.6.3h-.4c-2.1.1-18.7.1-20.6.1-3.4-.2-6.9-.3-9.3-.3s-2.2,0-2.2,1.5c0,1,.7,1.6,2,1.5.3,0,.7,0,1.2,0,.7,0,1.4,0,1.9.2,1.9.4,2.4.9,2.6,4.4,0,2.9,0,5.6,0,20.2v16.2c0,8.8-.1,14-.2,17.1-.2,7-1,7.2-2.1,7.4-.8.1-1.6.2-2.4.2-.5,0-1.5.2-1.8,1-.2-.4-.6-1-1.8-1s-1.3,0-2.8-.2c-2.7-.3-6.1-1.3-10.9-6.5-5.3-5.6-11.6-14-18.3-22.9,7.3-6.6,10.8-13.5,10.8-21.1s-3.7-11.8-7.3-14.3c-4.8-3.3-10.6-3.8-16.2-3.8s-4.6,0-7.1.2c-1.7,0-3.1.1-3.6.1s-1.4,0-2.6,0c-1.9,0-4.4-.2-6.3-.2s-2.2,0-2.2,1.5.6,1.5,1.8,1.5,2.3,0,3,.3c1.9.4,2.5.9,2.7,4.7,0,2.9,0,5.5,0,19.8v16.3c0,11.2,0,16.8-.4,20.7-.3,3.1-.9,3.7-2,3.9h-.3c-.7.1-1.2.2-1.7.2-1.3,0-1.9.8-1.9,1.5s.3,1.6,2.3,1.6,4.5-.1,6.1-.2c.6,0,1.1,0,1.2,0s.5,0,1.1,0c1.8,0,5.5.2,8.7.2s2.3-1,2.3-1.6-.2-1.5-1.9-1.5-2.4,0-3.5-.3c-1.9-.3-2.4-1-2.6-4-.4-3.8-.4-8.9-.4-18.1v-4.8s13,.2,13,.2c.1,0,.1,0,.5.3.9,1.2,2.3,3.2,3.9,5.4,2,2.8,4.3,6,6.2,8.5l1.6,2c3.8,4.9,6.3,8.2,9.2,10.3,3.1,2.6,5.9,3.4,11.7,3.4h4.8c.6,0,2.2,0,2.6-1,.2.5.8,1,2.2,1s2.4,0,3.7-.2c1.1,0,2.2-.1,3-.1,2,0,3.8,0,6.1.1h2.5c3.6.3,8.1.4,14.8.4s5.2-.2,6-3.1c.6-2.3,1.1-7.5,1.1-8.4s0-2.1-1.4-2.1ZM25.7,37.8s0,0,.1,0c.9-.3,3.3-.6,6.6-.6,10.3,0,16.4,6.4,16.4,17.1s-3.1,12.2-6.1,14.4c-1.8,1.4-3.8,1.7-6.2,1.7-4.9,0-9.3-.6-10.9-1.2v-31.2c0-.2,0-.2,0-.2ZM25.7,69.4s0,0,0,0h-1s1,0,1,0ZM114,63s0,0,0,0h0s0,0,0,0ZM113.2,63c0,0,0,.1-.1.2,0,0,0-.2,0-.2h.2Z"/>
          <path class="cls-2" d="M189.5,67.9c-1.6,0-4.1.1-5.8.2-.8,0-1.3,0-1.5,0s-.8,0-1.5,0c-1.8,0-4.8-.2-7.4-.2s-2.3,1-2.3,1.6,0,1.5,1.9,1.5,2.1.1,3,.3c2.4.5,2.8.6,2.8,9.3v16c0,1.3-.3,1.8-1.3,2.4-2.1,1.3-6.4,2.1-11.6,2.1s-14.5-.6-23-8.8c-3-2.9-9.9-11.3-9.9-25.9s3.6-18.9,9.4-23.7c5.1-4.2,11.6-6.3,19.3-6.3,11.4,0,18.5,3,20.1,5.8.9,1.5,1.3,3.3,1.4,5.9,0,.8,0,2.4,1.5,2.4s1.6-2,1.6-2.7c0-6.1.3-8.8.5-10.2,0-.6.1-1,.1-1.4,0-.9-.6-1.6-1.8-1.8-1.9-.1-4.4-.5-6.7-1.1-2.3-.5-8.1-1.5-13.6-1.5s-16.5.8-25,6.9c-4.2,3.1-14.1,12.1-14.1,30.1s4,20.8,10.6,27.1c9.7,9.2,22.8,10.2,28.1,10.2s13.6-.8,20.1-4.4c1.3-.9,1.3-1.6,1.3-5.5v-11.9c0-3.7,0-6.7.2-9,.2-3.3.7-3.7,2.1-3.9h.9c.4-.1.8-.2,1-.2,1.8,0,1.9-1.1,1.9-1.5,0-1-.8-1.6-2.3-1.6Z"/>
          <path class="cls-2" d="M224.5,101.6c-.4,0-1.7,0-3.1-.3-1.9-.3-2.4-1-2.6-4.1-.4-3.8-.4-10.1-.4-20.4v-16.2c0-14.3,0-17.2,0-20.2.2-3.7.6-4.1,2.4-4.4.6-.1,1-.2,1.5-.2h.6c1.8,0,1.9-1.3,1.9-1.5,0-1.5-1.7-1.5-2.3-1.5-1.5,0-3.8.1-5.6.2-1,0-1.9,0-2.2,0s-1,0-2,0c-1.9,0-4.6-.2-6.2-.2s-2.2,0-2.2,1.5.2,1.5,1.7,1.5h0c.3,0,.6,0,.9,0,.5,0,1,0,1.6.2,2,.3,2.4.7,2.6,4.6,0,2.9,0,5.5,0,19.9v16.3c0,11.1,0,16.7-.4,20.6-.3,3.2-.8,3.8-2.1,4-.7.2-1.5.2-1.9.2-1.9,0-2,1.1-2,1.5,0,1,.8,1.6,2.3,1.6s4.3-.1,6-.2c.8,0,1.4,0,1.6,0s.5,0,1.1,0c1.8,0,5.4.2,8.5.2s2.3-1,2.3-1.6-.2-1.5-2.1-1.5Z"/>
          <path class="cls-2" d="M263.2,64.8l-3-2.2c-9.5-7.2-11.2-10.9-11.2-15.7,0-8,6-10.9,11.2-10.9s9.5,2.4,10.4,3.8c.6.9.9,2.9.9,4.5,0,.6.3,1.9,1.6,1.9s1.6-2,1.6-2.7c0-4.6.2-7,.3-8.2,0-.4,0-.7,0-.8,0-.7-.3-1.5-1.6-1.5h0c-.9,0-1.8-.2-3-.4-2.6-.7-5.3-1-8.5-1-11.8,0-19.4,6.7-19.4,17.2s3.5,12.9,11.8,19.4l4.4,3.5c8.7,7,10.8,10.3,10.8,16.8s-4.1,12.8-13.1,12.8-11.4-2.4-12.5-7.1c-.3-1.4-.3-3-.3-3.8,0-1.4-.5-2-1.5-2s-1.5,1.7-1.6,2.2c-.2,1.4-.4,5-.4,8.9s0,3,1.9,3.9c3.2,1.6,7.7,2.6,12.3,2.6s10.4-1.4,14-4.1c7.5-5.5,7.9-14.2,7.9-15.9,0-6.9-2.1-12.6-13.1-21.2Z"/>
          <path class="cls-2" d="M341.6,32.3c-.3,0-.6,0-1,.2-.3,0-.6.1-1,.2-1.2.2-5.2.4-8.7.4h-31.9c-3.9,0-6.8-.2-8.9-.5-.7,0-1.2-.3-1.5-.4-.3-.1-.6-.3-1-.3-1.4,0-1.7,1.8-1.8,2.3-.3,1.1-1.5,6.5-1.8,8.2,0,.5-.1,1.2.3,1.7.2.3.6.4,1,.4s1.4-.2,1.7-1.6v-.4c.4-.7.5-1.1,1.1-2.2.9-1.7,2.1-2.3,7.8-2.4,3.2-.1,6.4-.1,9.4-.1,1.7,0,3.3,0,4.9,0v39c0,11.2,0,16.8-.4,20.7-.3,3-.8,3.6-1.8,3.8-.7.2-1.6.3-2.5.3-1.3,0-1.9.7-1.9,1.5s.4,1.6,2.2,1.6,4.4-.1,6.1-.2c.9,0,1.5,0,1.7,0s.5,0,1.1,0c1.9,0,5.7.2,8.8.2s2.2-1.1,2.2-1.6c0-.7-.5-1.5-1.8-1.5s-2.5,0-3.7-.3c-2.1-.3-2.4-1-2.6-4-.4-3.8-.4-10.4-.4-20.5v-39c1.5,0,3,0,4.6,0,3.8,0,7.7,0,10.2.2,6.5.2,7.1,1.7,7.1,3.7,0,.3,0,.6,0,.9,0,.1,0,.2,0,.3,0,.6,0,2.3,1.5,2.3s1.6-.2,1.6-2.1,0-2.2.1-3.8c0-1.8.2-3.8.2-4.8s0-2.3-1.4-2.3Z"/>
          <path class="cls-2" d="M414.9,101.6c-.5,0-1.3,0-2.8-.2-2.7-.3-6.1-1.3-10.9-6.5-5.3-5.6-11.6-14-18.3-22.9,7.3-6.6,10.8-13.5,10.8-21.1s-3.7-11.8-7.3-14.3c-4.8-3.3-10.6-3.8-16.2-3.8s-4.6,0-7.1.2c-1.7,0-3.1.1-3.6.1s-1.4,0-2.6,0c-1.9,0-4.4-.2-6.3-.2s-2.2,0-2.2,1.5.6,1.5,1.8,1.5,2.3,0,3,.3c1.9.4,2.5.9,2.7,4.7,0,2.9,0,5.5,0,19.8v16.3c0,11.2,0,16.8-.4,20.7-.3,3.1-.9,3.7-2,3.9h-.3c-.7.1-1.2.2-1.7.2-1.3,0-1.9.8-1.9,1.5s.3,1.6,2.3,1.6,4.5-.1,6.1-.2c.6,0,1.1,0,1.2,0s.5,0,1.1,0c1.8,0,5.5.2,8.7.2s2.3-1,2.3-1.6-.2-1.5-1.9-1.5-2.4,0-3.5-.3c-1.9-.3-2.4-1-2.6-4-.4-3.8-.4-8.9-.4-18.1v-4.8s13,.2,13,.2c.1,0,.1,0,.5.3.9,1.2,2.3,3.2,3.9,5.4,2,2.8,4.3,6,6.2,8.5l1.6,2c3.8,4.9,6.3,8.2,9.2,10.3,3.1,2.6,5.9,3.4,11.7,3.4h4.8c.7,0,2.7,0,2.7-1.6s0-1.5-1.9-1.5ZM363.2,37.8s0,0,.1,0c.9-.3,3.3-.6,6.6-.6,10.3,0,16.4,6.4,16.4,17.1s-3.1,12.2-6.1,14.4c-1.8,1.4-3.8,1.7-6.2,1.7-4.9,0-9.3-.6-10.9-1.2v-31.2c0-.2,0-.2,0-.2ZM363.2,69.4s0,0,0,0h-1s1,0,1,0Z"/>
          <path class="cls-2" d="M442.2,31.6c-21,0-32.3,19.3-32.3,37.4s9.9,37,31.6,37,32.6-16.4,32.6-38.9-13.1-35.4-31.9-35.4ZM443.3,101.1c-15.5,0-26.3-14.1-26.3-34.3s9.5-30.7,24.7-30.7,25.3,10.3,25.3,33-12.7,32-23.6,32Z"/>
          <path class="cls-2" d="M555.6,38.4c-1.8-1.7-5.9-5.6-17.4-5.6s-5.9.1-8.3.2c-1.3,0-2.4,0-2.9,0s-1.1,0-2.1,0c-2,0-4.7-.2-6.8-.2s-2.2,0-2.2,1.5,0,1.5,1.9,1.5,1.8,0,2.5.2c2.3.4,2.9.9,3.1,4.6,0,2.9,0,7.6,0,20v16.3c0,11.2,0,16.8-.4,20.7-.3,2.8-.7,3.7-1.7,3.9-.7.2-1.6.3-2.4.3-1.8,0-1.9,1.2-1.9,1.4,0,1,.8,1.6,2.3,1.6s4.3-.1,6-.2c.7,0,1.3,0,1.4,0s.5,0,1.1,0c1.8,0,5.5.2,8.6.2s2.2-1.1,2.2-1.6c0-.7-.6-1.5-1.9-1.5s-2.2,0-3.4-.2c-2-.3-2.4-1-2.6-4.1-.4-3.8-.4-9.4-.4-19.6v-39.3c0-.8.1-.8.3-.9,1.1-.3,2.7-.5,4.7-.5,3,0,7.5,0,11.2,3,5.5,4.1,6.7,9.8,6.7,13.9,0,9.5-7,15.9-17.4,15.9s-2.9,0-2.9,1.6,1.2,1.5,1.8,1.6c.6.1,1.5.1,2,.1,13.6,0,23.5-9.2,23.5-22s-3.7-11.5-4.8-12.6l-.2-.2Z"/>
          <path class="cls-2" d="M596.7,28.5c.6,0,1.4-.5,1.7-.7,3.4-2,7.5-4.1,10.9-5.7,1-.5,2.1-.6,2.2-.6.5,0,1-.3,1.3-.7.2-.3.4-.9,0-1.8-.6-1.3-1.4-2.2-2-2.8-.6-.7-1.2-1-1.9-1s-1.3.4-2.9,1.7c-2.4,1.8-8,6.9-9.6,8.6-.4.4-1,1-1,1.7s.6,1.3,1.3,1.3Z"/>
          <path class="cls-2" d="M627.4,32.9c-1.3,0-3,.1-4.3.2-.7,0-1.3,0-1.6,0s-.8,0-1.5,0c-1.6,0-4-.2-6-.2s-2.1.8-2.1,1.5.1,1.5,1.8,1.5,1.5,0,2.2.3c1.9.3,2.4.9,2.6,4.3.2,2.9.2,5.6.2,20.2v11.9c0,7.5-.5,16.8-4.7,22.6-2.9,4-7.2,6.1-12.3,6.1s-9.7-1.8-12.9-5.4c-2.9-3.3-5.8-8.5-5.8-22v-13.2c0-14.3,0-17.2.2-20.2,0-3.8.9-4.2,2.2-4.4.7-.2,1.2-.3,1.5-.3,1.3,0,1.8-.8,1.8-1.5s-.4-1.5-2.1-1.5-3.3.1-4.9.2c-1,0-1.7,0-2,0s-1,0-1.9,0c-1.8,0-4.2-.2-5.9-.2s-2.1.8-2.1,1.5,0,1.5,1.8,1.5,2,0,2.6.2c1.4.4,2,.9,2.1,4.6,0,2.9,0,5.5,0,20v13.7c0,14.7,3.4,20.5,7.1,24.7,5.8,6.4,14.1,6.9,16.5,6.9,4.5,0,11.1-.7,17-6.8,6.7-6.9,7.6-17.9,7.6-27.7v-10.8c0-14.7,0-17.3,0-20.3.2-3.8.7-4.2,2.3-4.4h.6c.3-.1.5-.2.6-.2,1.3,0,1.8-.8,1.8-1.4s-.4-1.6-2.1-1.6Z"/>
          <path class="cls-2" d="M672.6,64.2c3.9-3.7,7.6-8.5,7.6-16.2s-.5-15.1-18.5-15.1-5.4.1-7.4.2c-1.2,0-2.1,0-2.7,0s-.9,0-1.7,0c-1.9,0-4.7-.2-7.1-.2s-2.2.9-2.2,1.6.7,1.4,2,1.4,2.3.2,3,.3c1.7.4,2.2.7,2.4,4.5,0,2.9,0,5.5,0,20v16.3c0,9.8,0,16.8-.4,20.5v.2c-.4,2.6-.6,3.5-1.6,3.7-.6.2-1.8.2-2.5.2-2,0-2,1.3-2,1.5,0,.7.4,1.6,2.2,1.6s3,0,4.5-.2c1.3,0,2.6-.1,3.5-.1s2.7,0,4.9.3c.9,0,1.8,0,2.7.1,1.5,0,3,.2,4.4.2,15.5,0,23.6-10.5,23.6-21s-8.7-17.5-14.8-19.8ZM666,100.5c-2.7,0-6.6-.1-8.9-1.3-1.4-.7-1.6-1.3-1.8-5,0-1.9,0-6.1,0-10.9,0-2.7,0-5.7,0-8.6v-7.4c1.5,0,5.4,0,7.4.1,2.5.3,5.7.6,8.9,2.7,6.8,4.7,8.2,11.6,8.2,16.7,0,12.7-10.7,13.7-13.9,13.7ZM669.5,61.5c-1.6,1.6-2.6,1.7-7.2,1.7s-6.1-.2-6.9-.3v-25.4s0,0,.1,0c1-.3,2.8-.5,5.2-.5,11.7,0,12.6,11,12.6,14.4s-1.4,7.8-3.9,10.2Z"/>
          <path class="cls-2" d="M744.9,90.6c-1.3,0-1.6,1.3-1.8,2-.4,3-1.3,5-3,6-1.6,1.3-5.3,1.4-10.6,1.4s-9.7-.2-10.8-1.4c-1-1.2-1.1-7.5-1.1-21.7v-16.3c0-14.3,0-17.2,0-20.2.2-3.5.8-4.2,2.5-4.5h1c.5-.1.9-.2,1.2-.2,1.7,0,1.9-1,1.9-1.5,0-1.5-1.7-1.5-2.2-1.5-1.5,0-4.1.1-6,.2-1,0-1.9,0-2.1,0s-1,0-2,0c-1.8,0-4.5-.2-6.7-.2s-2.2,1.1-2.2,1.6.2,1.4,1.9,1.4,1.5,0,2.3.2c2.3.4,2.7,1,2.9,4.5,0,2.9,0,5.6,0,20.2v16.2c0,11.2-.1,17.4-.4,20.6-.3,2.9-.7,3.7-1.8,3.9-.8,0-1.6.2-2.2.2-1.3,0-1.9.7-1.9,1.5,0,1.6,1.7,1.6,2.4,1.6,1.3,0,2.8,0,4.2-.1,1.3,0,2.6-.1,3.6-.1,1.8,0,4.3,0,7.3.2,4.6.2,10.2.4,16.6.4s5.5,0,6.4-3.1c.7-3,1.5-8.1,1.5-9.2,0-1.8-.9-2-1.4-2Z"/>
          <path class="cls-2" d="M773,101.6c-.4,0-1.7,0-3.1-.3-1.9-.3-2.4-1-2.6-4.1-.4-3.8-.4-10.1-.4-20.4v-16.2c0-14.3,0-17.2,0-20.2.2-3.7.6-4.1,2.4-4.4.6-.1,1-.2,1.5-.2h.6c1.8,0,1.9-1.3,1.9-1.5,0-1.5-1.7-1.5-2.3-1.5-1.5,0-3.8.1-5.6.2-1,0-1.9,0-2.2,0s-1,0-2,0c-1.9,0-4.6-.2-6.2-.2s-2.2,0-2.2,1.5.2,1.5,1.7,1.5h0c.3,0,.6,0,.9,0,.5,0,1,0,1.6.2,2,.3,2.4.7,2.6,4.6,0,2.9,0,5.5,0,19.9v16.3c0,11.1,0,16.7-.4,20.6-.3,3.2-.8,3.8-2.1,4-.7.2-1.5.2-1.9.2-1.9,0-2,1.1-2,1.5,0,1,.8,1.6,2.3,1.6s4.3-.1,6-.2c.8,0,1.4,0,1.7,0s.5,0,1.1,0c1.8,0,5.4.2,8.5.2s2.3-1,2.3-1.6-.2-1.5-2.1-1.5Z"/>
          <path class="cls-2" d="M844,87.4c-1.3,0-1.6,1.3-1.7,2-.3,2.2-1.2,5.3-3.1,7.5-3.1,3.1-7.9,3.8-14.2,3.8-21.1,0-32.2-16.9-32.2-33.6s2.3-17.6,7.4-23.1c3.6-3.9,8.9-7.8,21.2-7.8s14.1,1.7,17.2,4.2c1.3,1,2.7,2.9,2.8,8.2,0,1,0,2.5,1.5,2.5s1.5-1.9,1.5-2.4c0-.6,0-1.5,0-2.6,0-1.5,0-3.2.2-5,.1-1.7.2-2.9.3-3.8,0-.6.1-1.1.1-1.4,0-1-.6-1.7-1.5-1.7h0c-1.6-.2-3.8-.6-6.3-1.1l-2.5-.5c-5.1-1-10.8-1.1-13.1-1.1-11.5,0-20.5,3.6-26.8,10.7-8.1,9-9.4,19.8-9.4,25.5s1.4,18.9,10.7,28h0c7.2,7,16.2,10.3,28.4,10.3s12.1-.6,16.1-2.2c1.7-.9,2.1-1.2,2.7-3.2.6-2.2,1.7-9.4,1.8-10.8,0-.6,0-1.4-.4-1.9-.3-.3-.6-.4-1-.4Z"/>
          <path class="cls-2" d="M886.8,31.6c-21,0-32.3,19.3-32.3,37.4s9.9,37,31.6,37,32.6-16.4,32.6-38.9-13.1-35.4-31.9-35.4ZM887.9,101.1c-15.5,0-26.3-14.1-26.3-34.3s9.5-30.7,24.7-30.7,25.3,10.3,25.3,33-12.7,32-23.6,32Z"/>
          <path class="cls-2" d="M979.3,32.8c-2.4,0-5.6.1-8.4.2-2,0-3.7.1-4.7.1s-.5,0-1.1,0c-1.6,0-4.4-.2-7-.2s-2.2,0-2.2,1.5.1,1.5,2,1.5,1.8,0,2.8.3c1.9.3,2.3.7,2.4,4.6,0,3.3,0,5.8,0,19.8v16.9c0,9.2,0,15.9-.3,19.6-.3,3.8-.6,4.3-1.8,4.5-.7,0-1.5.2-2.1.2-1.4,0-1.9.8-1.9,1.5s.1,1.6,2.1,1.6,1.9,0,3.2-.1h.8c1.4-.1,3.3-.1,3.6-.1h0c.7,0,2.8.2,5.6.5l1.9.2c3.6.3,7.9.5,11.3.5,15.7,0,24.2-7.6,27.1-10.9,4.4-5,9.7-13.8,9.7-26.8s-5.5-20.8-8.9-24.4c-10.2-10.9-25.7-10.8-34.1-10.7ZM985.9,100.9c-11.3,0-14.1-2-14.7-2.6-.5-.6-.8-2.4-.9-5.5,0-.7,0-1.9,0-3.6,0-3.6,0-9.3,0-16v-13.4c0-9,0-18.3,0-21.4,0-.4,0-.5,0-.5h0s0,0,.3-.1c.6-.3,3.9-.6,7.1-.6,10.8,0,21.8,1.2,29.6,10.2,3.5,4.1,7.6,11.3,7.6,22.4s-4.4,19.9-8.6,23.6c-5.1,4.8-12.3,7.4-20.4,7.4Z"/>
          <path class="cls-2" d="M1072.6,91.3c-.9,0-1.4.7-1.6,2-.7,4.3-1.8,5.5-3.5,6-2.1.7-4.6.8-9.4.8s-5.8-.2-7.5-.6c-1.8-.4-2.2-1.3-2.4-4.8,0-1.5,0-7.8,0-17.8v-8c2.5,0,11.9.1,14.5.4,2.5.2,3,1.1,3.3,1.9.2.7.2,1.2.3,2.1v.5c0,1.8.8,2.2,1.5,2.2s1.5-.1,1.5-2.1c0-.4,0-.9,0-1.6,0-1.2.1-2.8.3-4.4.1-1.3.3-2.3.5-3,.1-.6.2-1,.2-1.1.1-.6,0-1.1-.3-1.5-.2-.3-.6-.5-1-.5-1,0-1.4.9-1.6,1.3-.4.7-.8,1-3.5,1.2-1.9,0-12.6,0-15.6,0v-26.5c4.7,0,12.2.1,14.1.3,3.5.3,4.3.8,4.8,2.1.2.4.5,1.3.5,3.2s0,2.3,1.5,2.3,1.6-.3,1.6-2.4c0-2,.2-3.6.3-4.8v-1c.2-.9.3-1.6.4-2.1,0-.4.2-.8.2-1.1,0-.5,0-1-.3-1.3-.2-.3-.6-.5-1-.5s-.6,0-1.2.3c-.4.2-2.4.3-3.6.3h-.4c-2.1.1-18.7.1-20.6.1-3.4-.2-6.9-.3-9.3-.3s-2.2,0-2.2,1.5c0,1,.7,1.6,2,1.5.3,0,.7,0,1.2,0,.7,0,1.4,0,1.9.2,1.9.4,2.4.9,2.6,4.4,0,2.9,0,5.6,0,20.2v16.2c0,8.8-.1,14-.2,17.1-.2,7-1,7.2-2.1,7.4-.8.1-1.6.2-2.4.2-.6,0-1.9.3-1.9,1.5s.3,1.6,2.3,1.6,2.4,0,3.7-.2c1.1,0,2.2-.1,3-.1,2,0,3.8,0,6.1.1h2.5c3.6.3,8.1.4,14.8.4s5.2-.2,6-3.1c.6-2.3,1.1-7.5,1.1-8.4s0-2.1-1.4-2.1ZM1069.3,63s0,0,0,0h0s0,0,0,0ZM1068.5,63c0,0,0,.1-.1.2,0,0,0-.2,0-.2h.2Z"/>
          <path class="cls-2" d="M1170.3,87.4c-1.3,0-1.6,1.3-1.7,2-.3,2.2-1.1,5.3-3.1,7.5-3.1,3.1-7.9,3.8-14.2,3.8-21.1,0-32.2-16.9-32.2-33.6s2.3-17.6,7.4-23.1c3.6-3.9,8.9-7.8,21.2-7.8s14.1,1.7,17.2,4.2c1.3,1,2.7,2.9,2.8,8.2,0,1,0,2.5,1.5,2.5s1.5-1.9,1.5-2.4c0-.6,0-1.5,0-2.6,0-1.5,0-3.2.2-5,.1-1.7.2-2.9.3-3.8,0-.6.1-1.1.1-1.4,0-1-.6-1.7-1.5-1.7h0c-1.6-.2-3.8-.6-6.3-1.1l-2.5-.5c-5.1-1-10.8-1.1-13.1-1.1-11.5,0-20.5,3.6-26.8,10.7-8.1,9-9.4,19.8-9.4,25.5s1.4,18.9,10.7,28h0c7.2,7,16.2,10.3,28.4,10.3s12.1-.6,16.1-2.2c1.7-.9,2.1-1.2,2.7-3.2.6-2.2,1.7-9.4,1.8-10.8,0-.6,0-1.4-.4-1.9-.3-.3-.6-.4-1-.4Z"/>
          <path class="cls-2" d="M1209.9,31.6c-21,0-32.3,19.3-32.3,37.4s9.9,37,31.6,37,32.6-16.4,32.6-38.9-13.1-35.4-31.9-35.4ZM1211,101.1c-15.5,0-26.3-14.1-26.3-34.3s9.5-30.7,24.7-30.7,25.3,10.3,25.3,33-12.7,32-23.6,32Z"/>
          <path class="cls-2" d="M1335.4,101.6c-1.2,0-3.2,0-5-.6-2.7-.9-3.2-3.6-3.7-9.4,0,0,0,0,0,0l-4.8-56.8c-.2-1.6-.3-3.3-1.8-3.3s-1.8,1.4-2,1.8l-25.8,59.1-26.2-59.1c-.4-.9-.9-2-2.1-2s-1.5.3-1.7,2.4l-5.3,59.9c-.6,6.1-1.1,7.4-2.6,7.7-1.2.2-1.7.2-2.4.2-1.3,0-1.9.8-1.9,1.5s.2,1.6,2.3,1.6,3.4-.1,4.9-.2c.9,0,1.6,0,1.9,0s1,0,1.8,0c1.7,0,4,.2,6,.2s2.2-1.1,2.2-1.6c0-.7-.6-1.5-1.9-1.5s-2,0-3-.3c-.9-.2-1.7-.6-1.7-3s0-3.3.2-4.6l3.2-44.1c2.4,5.6,6.7,15.6,9.5,22.3l2.6,6c.1.3.7,1.5,1.5,3.4,2.1,4.7,6,13.3,8.9,19.7,1.1,2.3,1.6,3.4,2.7,3.4s1.5-.7,2.8-3.5l22.5-51.5,3.5,49.5c.2,1.8,0,2.2,0,2.2-.3.2-1,.5-1,1.4,0,1.5,2,1.6,2.7,1.7,3.3.4,11.5.6,13.5.6s2.2-1,2.2-1.6c0-1.2-1.3-1.4-2-1.5Z"/>
          <path class="cls-2" d="M1383.2,91.3c-.9,0-1.4.7-1.6,2-.7,4.3-1.8,5.5-3.5,6-2.1.7-4.6.8-9.4.8s-5.8-.2-7.5-.6c-1.8-.4-2.2-1.3-2.4-4.8,0-1.5,0-7.8,0-17.8v-8c2.5,0,11.9.1,14.5.4,2.5.2,3,1.1,3.3,1.9.2.7.2,1.2.3,2.1v.5c0,1.8.8,2.2,1.5,2.2s1.5-.1,1.5-2.1c0-.4,0-.9,0-1.6,0-1.2.1-2.8.3-4.4.1-1.3.3-2.3.5-3,.1-.6.2-1,.2-1.1.1-.6,0-1.1-.3-1.5-.2-.3-.6-.5-1-.5-1,0-1.4.9-1.6,1.3-.4.7-.8,1-3.5,1.2-1.9,0-12.6,0-15.6,0v-26.5c4.7,0,12.2.1,14.1.3,3.5.3,4.3.8,4.8,2.1.2.4.5,1.3.5,3.2s0,2.3,1.5,2.3,1.6-.3,1.6-2.4c0-2,.2-3.6.3-4.8v-1c.2-.9.3-1.6.4-2.1,0-.4.2-.8.2-1.1,0-.5,0-1-.3-1.3-.2-.3-.6-.5-1-.5s-.6,0-1.2.3c-.4.2-2.4.3-3.6.3h-.4c-2.1.1-18.7.1-20.6.1-3.4-.2-6.9-.3-9.3-.3s-2.2,0-2.2,1.5.7,1.5,2,1.5h0c.3,0,.7,0,1.2,0,.7,0,1.4,0,1.9.2,1.9.4,2.4.9,2.6,4.4,0,2.9,0,5.6,0,20.2v16.2c0,8.8-.1,14-.2,17.1-.2,7-1,7.2-2.1,7.4-.8.1-1.6.2-2.4.2-.6,0-1.9.3-1.9,1.5s.3,1.6,2.3,1.6,2.4,0,3.7-.2c1.1,0,2.2-.1,3-.1,2,0,3.8,0,6.1.1h2.5c3.6.3,8.1.4,14.8.4s5.2-.2,6-3.1c.6-2.3,1.1-7.5,1.1-8.4s0-2.1-1.4-2.1ZM1379.9,63s0,0,0,0h0s0,0,0,0ZM1379.1,63c0,0,0,.1-.1.2,0,0,0-.2,0-.2h.2Z"/>
          <path class="cls-2" d="M1465,101.6c-.5,0-1.3,0-2.8-.2-2.7-.3-6.1-1.3-10.9-6.5-5.3-5.6-11.6-14-18.3-22.9,7.3-6.6,10.8-13.5,10.8-21.1s-3.7-11.8-7.3-14.3c-4.8-3.3-10.6-3.8-16.2-3.8s-4.6,0-7.1.2c-1.7,0-3.1.1-3.6.1s-1.4,0-2.6,0c-1.9,0-4.4-.2-6.3-.2s-2.2,0-2.2,1.5.6,1.5,1.8,1.5,2.3,0,3,.3c1.9.4,2.5.9,2.7,4.7,0,2.9,0,5.5,0,19.8v16.3c0,11.2,0,16.8-.4,20.7-.3,3.1-.9,3.7-2,3.9h-.3c-.7.1-1.2.2-1.7.2-1.3,0-1.9.8-1.9,1.5s.3,1.6,2.3,1.6,4.5-.1,6.1-.2c.6,0,1.1,0,1.2,0s.5,0,1.1,0c1.8,0,5.5.2,8.7.2s2.3-1,2.3-1.6-.2-1.5-1.9-1.5-2.4,0-3.5-.3c-1.9-.3-2.4-1-2.6-4-.4-3.8-.4-8.9-.4-18.1v-4.8s13,.2,13,.2c.1,0,.1,0,.5.3.9,1.2,2.3,3.2,3.9,5.4,2,2.8,4.3,6,6.2,8.5l1.6,2c3.8,4.9,6.3,8.2,9.2,10.3,3.1,2.6,5.9,3.4,11.7,3.4h4.8c.7,0,2.7,0,2.7-1.6s0-1.5-1.9-1.5ZM1413.4,37.8s0,0,.1,0c.9-.3,3.3-.6,6.6-.6,10.3,0,16.4,6.4,16.4,17.1s-3.1,12.2-6.1,14.4c-1.8,1.4-3.8,1.7-6.2,1.7-4.9,0-9.3-.6-10.9-1.2v-31.2c0-.2,0-.2,0-.2ZM1413.4,69.4s0,0,0,0h-1s1,0,1,0Z"/>
          <path class="cls-2" d="M1520.7,87.4c-1.3,0-1.6,1.3-1.7,2-.3,2.2-1.2,5.3-3.1,7.5-3.1,3.1-7.9,3.8-14.2,3.8-21.1,0-32.2-16.9-32.2-33.6s2.3-17.6,7.4-23.1c3.6-3.9,8.9-7.8,21.2-7.8s14.1,1.7,17.2,4.2c1.3,1,2.7,2.9,2.8,8.2,0,1,0,2.5,1.5,2.5s1.5-1.9,1.5-2.4c0-.6,0-1.5,0-2.6,0-1.5,0-3.2.2-5,.1-1.7.2-2.9.3-3.8,0-.6.1-1.1.1-1.4,0-1-.6-1.7-1.5-1.7h0c-1.6-.2-3.8-.6-6.3-1.1l-2.5-.5c-5.1-1-10.8-1.1-13.1-1.1-11.5,0-20.5,3.6-26.8,10.7-8.1,9-9.4,19.8-9.4,25.5s1.4,18.9,10.7,28h0c7.2,7,16.2,10.3,28.4,10.3s12.1-.6,16.1-2.2c1.7-.9,2.1-1.2,2.7-3.2.6-2.2,1.7-9.4,1.8-10.8,0-.6,0-1.4-.4-1.9-.3-.3-.6-.4-1-.4Z"/>
          <path class="cls-2" d="M1549.9,101.6c-.4,0-1.7,0-3.1-.3-1.9-.3-2.4-1-2.6-4.1-.4-3.8-.4-10.1-.4-20.4v-16.2c0-14.3,0-17.2,0-20.2.2-3.7.6-4.1,2.4-4.4.6-.1,1-.2,1.5-.2h.6c1.8,0,1.9-1.3,1.9-1.5,0-1.5-1.7-1.5-2.3-1.5-1.5,0-3.8.1-5.6.2-1,0-1.9,0-2.2,0s-1,0-2,0c-1.9,0-4.6-.2-6.2-.2s-2.2,0-2.2,1.5.2,1.5,1.7,1.5h0c.3,0,.6,0,.9,0,.5,0,1,0,1.6.2,2,.3,2.4.7,2.6,4.6,0,2.9,0,5.5,0,19.9v16.3c0,11.1,0,16.7-.4,20.6-.3,3.2-.8,3.8-2.1,4-.7.2-1.5.2-1.9.2-1.9,0-2,1.1-2,1.5,0,1,.8,1.6,2.3,1.6s4.3-.1,6-.2c.8,0,1.4,0,1.6,0s.5,0,1.1,0c1.8,0,5.4.2,8.5.2s2.3-1,2.3-1.6-.2-1.5-2.1-1.5Z"/>
          <path class="cls-2" d="M1595,31.6c-21,0-32.3,19.3-32.3,37.4s9.9,37,31.6,37,32.6-16.4,32.6-38.9-13.1-35.4-31.9-35.4ZM1596.2,101.1c-15.5,0-26.3-14.1-26.3-34.3s9.5-30.7,24.7-30.7,25.3,10.3,25.3,33-12.7,32-23.6,32Z"/>
        </g>
        <path class="cls-2" d="M973.1,179.5c4.3,6,8.4,11.8,12.8,18-2.4,0-4.2.1-6.1,0-.6,0-1.2-.8-1.6-1.4-2.7-3.9-5.5-7.7-7.8-11.8-1.7-3.1-4-3.6-7.3-2.8v16h-5.3v-38.8c5.4.2,10.7.1,16,.8,4.2.5,7,4.5,6.9,9.2,0,4.3-2,7.6-5.7,9.9-.6.4-1.1.7-2,1.1ZM963.2,177.1c2-.2,3.9-.2,5.6-.5,3.6-.7,5.9-3.3,6.3-7,.3-2.6-.9-5.1-3-5.9-2.9-1.2-5.9-.9-9-.8v14.2Z"/>
        <path class="cls-2" d="M782.4,180.8c.4-.1.6-.2.8-.3q4.7-.4,4.7,4.2c0,3.2,0,6.5,0,9.7,0,.6-.6,1.6-1.1,1.8-6,1.9-12,2.4-18.1.9-4.7-1.2-7.9-4.4-9.7-8.7-2.8-6.6-3-13.4-.4-20.1,2.8-7.1,8.4-10.4,15.8-10.5,3.7,0,7.5.7,11.2,1.1,1.9.2,2.6,1.1,2.3,2.9-.1.8,0,1.6,0,2.7-1.4-.4-2.5-.9-3.6-1.1-3-.6-6.1-1.4-9.1-1.5-5.1-.2-8.8,2.3-10.8,7-2.4,5.7-2.5,11.6-.2,17.4,2.5,6.4,11.3,9.8,17.4,7,.5-.2.8-1.1.9-1.7,0-2.8,0-5.7,0-8.5,0-.7,0-1.5,0-2.1Z"/>
        <path class="cls-2" d="M867.8,193.3c4.7,0,9.3,0,13.8,0q3.6,0,3.1,4h-22.3v-38.5h21.2c0,.7,0,1.4.1,2.1.2,1.4-.4,1.9-1.8,1.9-3.9,0-7.8,0-11.7,0-.7,0-1.5,0-2.3,0v12.5h13.1v4.2h-13.1v13.9Z"/>
        <path class="cls-2" d="M562,192.6c1.4.6,2.4,1.2,3.5,1.4,2.7.6,5.4,1.3,8.1,1.4,3.1,0,5.3-1.9,6-4.5.7-2.5-.3-5.1-2.8-6.8-2-1.4-4.3-2.6-6.4-3.9-1.4-.9-2.7-1.7-4-2.7-3.9-3.1-5.1-6.8-3.7-11.1,1.3-4.1,5.1-7,9.7-7,2.8,0,5.6.6,8.4.8,1.8.2,2.4,1.1,2.2,2.9-.1.8,0,1.6,0,2.7-1.4-.5-2.5-1-3.6-1.3-2.3-.4-4.6-.9-6.9-.9-2.4,0-4.1,1.6-4.8,4-.6,2.2.4,4,2,5.3,1.6,1.2,3.4,2.2,5.1,3.3,2.2,1.4,4.4,2.6,6.5,4.2,3.5,2.6,4.8,6.1,4,10.3-.8,4.1-3.5,6.8-7.4,8.1-4.9,1.6-9.9,1-14.7-.6-.4-.1-.9-.8-1-1.3-.1-1.3,0-2.5,0-4.3Z"/>
        <path class="cls-2" d="M669.6,159.1h5.2v38.5h-5.2v-38.5Z"/>
        <circle class="cls-1" cx="622.6" cy="178.2" r="7.7"/>
        <circle class="cls-1" cx="722.2" cy="178.2" r="7.7"/>
        <circle class="cls-1" cx="822.8" cy="178.2" r="7.7"/>
        <circle class="cls-1" cx="922.6" cy="178.2" r="7.7"/>
        <g>
          <path class="cls-1" d="M1058.1,184v-11.2h-5.6v11.2h5.6Z"/>
          <path class="cls-1" d="M1064,157.8h-36.7c-8.7,0-15.8,7.1-15.8,15.8v8.9c0,8.7,7.1,15.8,15.8,15.8h36.7c8.7,0,15.8-7.1,15.8-15.8v-8.9c0-8.7-7.1-15.8-15.8-15.8ZM1041.5,187.9h-12.5v-11.3h9v-3.9h-5.5v-3.8h8.9v11.3h-9v3.8h9.1v3.8ZM1046.9,187.9h-3.6v-3.6h3.6v3.6ZM1061.6,187.9h-12.5v-19h12.5v19Z"/>
        </g>
      </g>
    </g>
  </g>
</svg>