<?xml version="1.0" encoding="UTF-8"?>
<svg xmlns="http://www.w3.org/2000/svg" version="1.1" viewBox="0 0 586 111.8">
  <defs>
    <style>
      .cls-1 {
        fill: #dc1a7c;
      }

      .cls-2 {
        fill: #a6a7a7;
      }
    </style>
  </defs>
  <!-- Generator: Adobe Illustrator 28.7.1, SVG Export Plug-In . SVG Version: 1.2.0 Build 142)  -->
  <g>
    <g id="Capa_1">
      <g>
        <path class="cls-2" d="M160.5,99.4c0-7.4,0-14.7,0-22.1,0-21.7,0-43.5,0-65.2q0-1.6,1.6-1.6c5.3,0,10.6,0,15.9,0,1.2,0,2,.4,2.6,1.5,6.7,11.3,13.5,22.7,20.2,34,3.7,6.1,7.3,12.3,11,18.4.2.4.4,1.1,1,.9.7-.2.5-.9.5-1.4,0-17.1,0-34.2,0-51.3,0-2.1-.2-1.9,2-1.9,3.8,0,7.7,0,11.5,0,1.1,0,1.5.2,1.5,1.4,0,28.6,0,57.1,0,85.7,0,.6,0,1.1-.2,1.7h-16.7c-.4-.6-.8-1.1-1.2-1.7-3-5.6-6.4-10.9-9.7-16.4-7.7-13.1-15.5-26.1-23.3-39.1-.3-.5-.6-1.4-1.2-1.2-.7.2-.3,1-.3,1.5,0,18.3,0,36.6,0,54.9,0,.7,0,1.3-.3,1.9h-14.9Z"/>
        <path class="cls-2" d="M105.5,99.4c-.6-.4-1.4-.5-2-.8-5.6-1.9-10.1-5.2-13.9-9.7-5.9-7-9.1-15.2-10.6-24.2-.6-3.5-.8-6.9-.8-10.4,0-10.5,2.3-20.4,8.3-29.3,4.4-6.5,10.1-11.4,17.5-14,5-1.8,10.2-2.3,15.5-1.9,4.1.3,8,1.1,11.8,2.8,4.6,2,8.4,5,11.6,8.7,4.9,5.8,8.1,12.5,9.8,19.9,1.3,5.7,1.8,11.5,1.5,17.4-.4,7.9-1.9,15.6-5.7,22.8-4.1,7.7-9.9,13.6-18,17.1-.9.4-1.9.7-2.8,1-.3.1-.8,0-.9.6h-.5c-.2-.2-.3-.2-.5,0h-20.4ZM97.8,54.6c0,3.4,0,6.8.5,10.1.6,4.4,1.6,8.7,3.9,12.6,3.5,5.9,8.6,8.8,15.4,8,6.8-.7,11.3-4.7,14.1-10.8,2-4.4,2.5-9.2,2.7-14,.2-4.3.3-8.7-.1-13.1-.4-4.5-1.3-8.9-3.1-13.1-1.7-3.8-4-7-7.9-8.7-3-1.3-6.1-1.7-9.3-1.3-3.4.4-6.3,1.6-8.8,4-3.1,2.9-4.7,6.7-5.7,10.7-1.3,5.1-1.8,10.3-1.6,15.5Z"/>
        <path class="cls-1" d="M573,99.2c-19.3,0-38.5,0-57.8,0-1.2,0-1.1-.6-1.1-1.4,0-17.8,0-35.5,0-53.3s0-21.8,0-32.6c0-1.2.3-1.5,1.5-1.5,18.6,0,37.2,0,55.8,0,1.2,0,1.4.4,1.4,1.4,0,4.5,0,9,0,13.5,0,1.1-.3,1.3-1.4,1.3-12.5,0-24.9,0-37.4,0-1.2,0-1.5.3-1.5,1.5,0,5.6,0,11.2,0,16.8q0,1.5,1.5,1.5c9.7,0,19.4,0,29.1,0,1.1,0,1.4.3,1.4,1.4,0,4.2,0,8.4,0,12.7,0,1.1-.4,1.3-1.4,1.3-9.8,0-19.5,0-29.3,0-1.1,0-1.4.3-1.4,1.4,0,6.2,0,12.5,0,18.7,0,.7,0,1.1,1,1.1,13.2,0,26.3,0,39.5,0v16.3Z"/>
        <path class="cls-2" d="M230,99.4c0-.7.1-1.4.3-2,7-20.8,13.9-41.5,20.8-62.3,2.3-6.9,4.7-13.9,7-20.8.3-.9.6-1.8.8-2.8.2-.7.5-1.1,1.3-1.1,6.4,0,12.8,0,19.2,0,.9,0,1,.6,1.2,1.2,3.2,9.5,6.4,19,9.6,28.5,3.2,9.6,6.5,19.2,9.7,28.8,3.1,9.1,6.2,18.2,9.2,27.3.3,1,1,2,.6,3.2h-18.8c-2.1-6.3-4.3-12.7-6.4-19-.3-1-.8-1.4-2-1.4-9.5,0-19,0-28.4,0-1.3,0-1.9.4-2.3,1.7-2,6.3-3.9,12.6-6.2,18.8h-15.6ZM268,63.7c3.1,0,6.3,0,9.4,0,1.2,0,1.3-.2.9-1.3-3.2-9.8-6.4-19.6-9.6-29.4-.1-.3-.1-.8-.6-.9-.5,0-.5.5-.6.8-.9,2.6-1.7,5.2-2.5,7.8-2.4,7.2-4.7,14.5-7.1,21.7-.3,1,0,1.2.9,1.2,3.1,0,6.2,0,9.3,0Z"/>
        <path class="cls-2" d="M12.1,99.4c-.4-.6-.5-1.2-.5-1.9,0-3.6,0-7.3,0-10.9,0-.9.2-1.6.7-2.3,11.7-16.1,23.4-32.3,35.2-48.4,2.1-2.9,4.2-5.8,6.3-8.7.2-.3.6-.7.4-1.1-.2-.5-.8-.2-1.2-.2-12,0-24.1,0-36.1,0q-1.9,0-1.9-1.9c0-4.1,0-8.1,0-12.2,0-.9.2-1.2,1.2-1.2,19.9,0,39.9,0,59.8,0,.9,0,1.3.3,1.3,1.3,0,3.9,0,7.8,0,11.7,0,.8-.2,1.4-.7,2-13.1,18-26.2,36.1-39.4,54.1-.6.8-1.2,1.5-1.7,2.3-.4.6-.4,1,.5,1,.3,0,.6,0,.9,0,13.3,0,26.6,0,39.8,0q1.7,0,1.7,1.7c0,4.3,0,8.7,0,13,0,.6,0,1.2-.2,1.8H12.1Z"/>
        <path class="cls-1" d="M371.9,54.8c0-14.3,0-28.6,0-42.8,0-1.2.3-1.5,1.5-1.5,14,0,27.9-.1,41.9.1,6.9.1,13.3,2.1,18.7,6.6,4.7,3.9,7.2,9.1,8.2,15,1.1,6.3.3,12.3-2.7,18-2.1,4.1-5.3,7-9.2,9.2-.9.5-2.2.8-2.5,1.7-.3.9.6,1.9.9,2.9,4.5,11.2,9,22.5,13.5,33.7q.6,1.5-1,1.5c-5.6,0-11.1,0-16.7,0-1,0-1.3-.3-1.7-1.2-4.1-10.8-8.2-21.6-12.3-32.4-.4-1.1-.9-1.6-2.2-1.5-5.5,0-10.9,0-16.4,0-1.1,0-1.4.3-1.4,1.4,0,10.8,0,21.5,0,32.3,0,1.2-.4,1.5-1.5,1.5-5.2,0-10.4,0-15.7,0-1.2,0-1.5-.3-1.5-1.5,0-14.3,0-28.6,0-43ZM390.4,37.4s0,0,0,0c0,3.5,0,7,0,10.4,0,.9.3,1.2,1.2,1.2,6.5,0,13-.1,19.5-.2,2.4,0,4.6-.6,6.7-1.7,6.2-3.4,7-10.7,4.4-15.3-2.3-4-6-5.8-10.4-5.9-6.8-.2-13.6,0-20.4,0-.9,0-1,.4-1,1.1,0,3.5,0,7,0,10.4Z"/>
        <path class="cls-1" d="M449.9,54.9c0-14.3,0-28.6,0-43,0-1.1.2-1.5,1.5-1.5,18.5,0,37,0,55.5,0,1.2,0,1.5.4,1.4,1.5,0,4.3,0,8.6,0,12.9q0,1.8-1.8,1.8c-12.2,0-24.3,0-36.5,0q-1.7,0-1.7,1.7c0,5.5,0,10.9,0,16.4q0,1.7,1.6,1.7c9.7,0,19.4,0,29,0,1.1,0,1.4.3,1.4,1.4,0,4.2,0,8.4,0,12.7,0,1-.3,1.2-1.3,1.2-9.8,0-19.6,0-29.4,0-1.1,0-1.5.3-1.4,1.4,0,6.1,0,12.2,0,18.2q0,1.6,1.6,1.6c12.5,0,25,0,37.5,0q1.6,0,1.6,1.5c0,4.5,0,9.1,0,13.6,0,.9-.3,1.2-1.2,1.2-18.9,0-37.8,0-56.7,0-1.1,0-1.2-.5-1.2-1.4,0-14.3,0-28.6,0-43h0Z"/>
        <path class="cls-1" d="M311.5,54.8c0-14.2,0-28.5,0-42.7q0-1.6,1.6-1.6c18.1,0,36.3,0,54.4,0q1.6,0,1.6,1.6c0,4.5,0,8.9,0,13.4,0,1-.3,1.3-1.3,1.3-11.9,0-23.8,0-35.8,0-1.2,0-1.5.4-1.5,1.5,0,5.7,0,11.4,0,17.1,0,1.1.3,1.4,1.5,1.4,9.2,0,18.3,0,27.5,0,1.1,0,1.4.3,1.4,1.4,0,4.6,0,9.1,0,13.7,0,1.1-.3,1.4-1.4,1.4-9.2,0-18.3,0-27.5,0-1.1,0-1.4.3-1.4,1.4,0,11,0,22.1,0,33.1,0,1.9.2,1.7-1.8,1.7-5.1,0-10.3,0-15.4,0-2.1,0-1.9.2-1.9-1.8,0-14.2,0-28.4,0-42.6Z"/>
      </g>
    </g>
  </g>
</svg>