<?xml version="1.0" encoding="UTF-8"?>
<svg id="Layer_1" xmlns="http://www.w3.org/2000/svg" version="1.1" viewBox="0 0 300 300">
  <!-- Generator: Adobe Illustrator 29.0.1, SVG Export Plug-In . SVG Version: 2.1.0 Build 192)  -->
  <defs>
    <style>
      .st0 {
        fill: #fff;
      }
    </style>
  </defs>
  <g>
    <path class="st0" d="M210.7,158.4c1.4-7.7,2.9-15.5,4.3-23.2,2.3-12.4,4.6-24.7,6.9-37.1.4-2,.8-4,1.2-6,1.2-6.5,2.4-13,3.7-19.6,0,0,1.1-4.2.2-7.4-1.8-6.2-5.6-8.9-12-9-8.4-.2-16.8-.1-25.2-.1-9.9,0-19.8,0-29.7,0,0,1.2-1,1.4-1.7,1.9-1.2.8-2.9.7-3.9,1.9.9,0,1.9.1,2.8.1,19,0,38,0,56.9,0,6.8,0,10.2,4.5,8.9,11.2-3.2,16.7-6.3,33.4-9.4,50.2-.5,2.9-1.2,5.8-1.8,8.7-.5,4.7-1.6,9.2-2.4,13.8-1.3,6.9-2.7,13.7-4,20.5-.9,4.2-3.2,6.3-7.4,6.7-1.1,0-2.2.1-3.3.1-25.4,0-50.8,0-76.3.1-.8,0-1.6.1-2.4.2.2,1.4-.7,2.4-1.3,3.5.6,0,1.3.1,1.9.1,26.1,0,52.2,0,78.4,0,.9,0,1.9,0,2.8-.1,6.8-.6,10.9-4.4,11.7-11.2l1.1-5.4Z"/>
    <path class="st0" d="M160,56.1c0,1.2-1,1.4-1.7,1.9-1.2.8-2.9.7-3.9,1.9-8.1,0-16.3,0-24.4.1-5,0-10.1,0-15.1.1-3.5,0-7.1-.1-10.6-.1-6.2,0-8.8,2-10,8.2-1.9,9.6-3.6,19.1-5.3,28.7-1.3,6.8-2.6,13.6-3.9,20.4-2.7,14.4-5.4,28.8-8,43.2-1.1,6.2,1.2,9.4,7.4,10.7.6.7,1.5.5,2.2.5,8,0,16,0,24,0,.7,0,1.5.1,2.1-.4,1.2,0,2.3,0,3.5,0,.2,1.4-.7,2.4-1.3,3.5-1.2.7-2.6.1-3.8.1-8,0-16,0-24,0-1.4,0-2.9-.2-4.3-.3-.3-.3-.7-.4-1.2-.3-5.6-1.4-9.6-7-8.6-12.8,1.7-10.1,3.6-20.2,5.5-30.3,4-21.5,8-42.9,12-64.4,1.4-7.2,5.8-10.9,13.1-10.9,11.1,0,22.3,0,33.4,0,2.8.7,5.6.2,8.4.3,1.9,0,3.8.3,5.5-.7,3,0,6.1-.2,9.1.2Z"/>
    <path class="st0" d="M150.9,55.9c-1.7,1-3.6.8-5.5.7-2.8-.1-5.6.4-8.4-.3,4.6-.1,9.2-.3,13.9-.4Z"/>
    <path class="st0" d="M81.5,174.6c.4-.1.8,0,1.2.3-.4.2-.8,0-1.2-.3Z"/>
    <path class="st0" d="M84.3,171.3c9.4,0,18.9-.2,28.3.1-.6.5-1.4.4-2.1.4-8,0-16,0-24,0-.8,0-1.6.2-2.2-.5Z"/>
    <path class="st0" d="M101.4,102.3c0-3.6,0-7.2,0-10.8,0-2,.7-3.2,2.4-4.1,7.2-3.8,14.3-7.8,21.5-11.7,1.2-.6,2.3-1.4,3.4-2.1,2.2-.7,4.1-2,6.1-3.1,1.6-.8,2.9-.9,4.5,0,10.3,5.7,20.7,11.3,31.1,16.9,1.7.9,2.5,2,2.3,4,0,.9,0,1.7,0,2.6-.2,1.5.3,2.2,2,2.2,1.7,0,2.2-.6,2.1-2.1-.1-1.5,0-3,0-4.6,0-1.6.8-2.6,2.6-2.5.9,0,1.7,0,2.6,0,2.7.2,4.9,0,6.8-2.7,2.4-3.5,7.4-3.2,10.2-.1,2.8,3.1,2.4,7.8-.9,10.4-3.2,2.5-8.1,1.6-10.3-1.8-1-1.6-4.8-2.6-6.5-1.8-.7.4-.5,1-.5,1.5,0,1.6,0,3.2,0,4.8,0,1,0,1.9-.8,2.6-9.7,0-19.4,0-29.1,0-1.5,0-2.5.3-3.3,1.8-1.5,2.9-4.8,4.1-8,3.2-2.7-.7-4.9-3.5-5-6.4-.1-3.2,1.9-6.1,4.9-7,3.1-1,6.4,0,7.9,2.8.9,1.7,2.1,2,3.8,2,5,0,10,0,15,0,.9,0,2.1.6,2.6-.8.6-1.7,0-4.4-1.3-5-5.7-3.1-11.4-6.2-17.2-9.4-3.8-2.1-7.6-4.2-11.4-6.2-1-.5-1.9-1-3.1-.4-9.1,5-18.1,10-27.2,15q-3.4,1.5-3.4,5c0,5.4.2,10.7,0,16.1-.5,12,3.7,22.1,11.7,30.7,4.7,5,9.9,9.4,16.1,12.4,2.7,1.3,5.4,1.3,8.2,0,6.4-3.2,11.7-7.7,16.6-12.9.3-.3.7-.6.4-1.1-.3-.4-.8-.3-1.2-.3-2.2,0-4.5,0-6.7,0-1.2,0-1.8.3-2.3,1.4-1.4,2.9-3.8,4-7,3.8-4.6-.3-7-4.3-6-9.6,2.4-3.7,5.2-5,8.5-4.1,1.8.5,3.3,1.5,4.2,3.2.6,1.3,1.5,1.6,2.9,1.6,9,0,17.9,0,26.9,0,2.7,0,3.3.6,3.3,3.3,0,.7,0,1.3,0,2,.1,1.3-.6,3.1.4,3.7,1.4.9,3.4.3,5.1.3.8,0,1-.7,1.3-1.3,2-3.3,5.5-4.5,8.9-3.2,3,1.1,4.7,4.3,4.2,7.5-.6,3.5-3.6,6-7.4,6.1-.2,0-.4,0-.6,0-2.2-.8-4.2-1.9-5.2-4.2-.4-1-1.3-1.1-2.2-1.1-1.9,0-3.8,0-5.7,0-1.9,0-2.8-1-2.8-2.8,0-1.7,0-3.3,0-5,0-1.2-.4-1.7-1.6-1.7-3.3,0-6.7,0-10,0-1.5,0-2.1,1-2.9,1.9-5.9,7.1-12.9,12.9-21.5,16.5-2.6,1.1-5.3,1.1-7.8-.1-15.7-7.5-26.6-19.3-30.8-36.5-1.2-4.7-.4-9.5-.6-14.3,0-1.4.2-2.9-.2-4.3Z"/>
    <path class="st0" d="M129.6,123.6c-5.2,2.8-9.8,1.5-11.4-3.3-.9-2.9,0-5.9,2.3-7.8,2.3-1.9,5.1-2.1,7.9-.6.4.2.7.4,1.1.7,1.4,3.3,4,3.7,7.3,3.6,11.4-.2,22.7,0,34.1,0,1.3,0,2.2-.3,3-1.6,1.9-3.3,5.8-4.5,8.8-3.1,3.5,1.6,5.1,5.3,4,8.9-1.1,3.4-4.5,5.4-8.3,4.7-2.2-.4-3.7-1.7-4.6-3.6-.5-1.1-1.2-1.4-2.4-1.4-12.7,0-25.4,0-38,0-1.1,0-1.8.3-2.3,1.3-.4.8-1,1.6-1.5,2.4Z"/>
  </g>
  <g>
    <path class="st0" d="M63.8,213v-23.1h10c1.7,0,3.2.3,4.5,1,1.3.7,2.3,1.6,3,2.9s1.1,2.7,1.1,4.3-.4,3.1-1.1,4.3c-.7,1.2-1.8,2.1-3.1,2.8-1.3.7-2.9,1-4.6,1h-6v-4.9h4.7c.7,0,1.4-.1,1.9-.4.5-.3.9-.6,1.2-1.1.3-.5.4-1.1.4-1.7s-.1-1.2-.4-1.7c-.3-.5-.7-.8-1.2-1.1-.5-.3-1.2-.4-1.9-.4h-2.2v18.1h-6.3Z"/>
    <path class="st0" d="M91,189.9v23.1h-6.2v-23.1h6.2Z"/>
    <path class="st0" d="M99,213.3c-1.1,0-2.1-.2-2.9-.5s-1.5-.9-2-1.7c-.5-.7-.7-1.7-.7-2.8s.2-1.8.5-2.4.8-1.2,1.4-1.7c.6-.4,1.3-.8,2-1,.8-.2,1.6-.4,2.5-.4,1,0,1.8-.2,2.3-.3s1-.3,1.3-.5c.3-.2.4-.5.4-.8h0c0-.5-.2-.8-.5-1.1-.3-.2-.8-.4-1.3-.4s-1.1.1-1.5.4-.6.7-.7,1.2h-5.7c0-1.1.4-2,1-2.9.6-.9,1.5-1.6,2.6-2.1,1.2-.5,2.6-.8,4.3-.8s2.4.1,3.3.4,1.8.7,2.5,1.2c.7.5,1.2,1.1,1.6,1.8.4.7.5,1.4.5,2.2v11.9h-5.8v-2.4h-.1c-.3.6-.8,1.2-1.3,1.6-.5.4-1.1.7-1.7.9s-1.3.3-2.1.3ZM101,209.3c.5,0,.9,0,1.3-.3.4-.2.8-.5,1-.8.3-.4.4-.8.4-1.3v-1.4c-.2,0-.3.1-.5.2-.2,0-.4.1-.6.2-.2,0-.4.1-.7.1s-.5,0-.7.1c-.5,0-.9.2-1.2.4-.3.2-.5.4-.7.6-.1.2-.2.5-.2.8,0,.5.2.9.5,1.1.3.3.8.4,1.3.4Z"/>
    <path class="st0" d="M123.3,195.7v4.5h-11.4v-4.5h11.4ZM114.1,191.5h6.2v15.9c0,.2,0,.4.1.6,0,.2.2.3.4.4.2,0,.4.1.7.1s.4,0,.7,0c.3,0,.4,0,.6-.1l.9,4.4c-.3,0-.7.2-1.2.3-.5.1-1.1.2-1.8.2-1.4,0-2.6,0-3.6-.4-1-.4-1.7-1-2.2-1.8-.5-.8-.7-1.8-.7-3v-16.5Z"/>
    <path class="st0" d="M130.6,213.3c-1.1,0-2.1-.2-2.9-.5s-1.5-.9-2-1.7c-.5-.7-.7-1.7-.7-2.8s.2-1.8.5-2.4.8-1.2,1.4-1.7c.6-.4,1.3-.8,2-1,.8-.2,1.6-.4,2.5-.4,1,0,1.8-.2,2.3-.3s1-.3,1.3-.5c.3-.2.4-.5.4-.8h0c0-.5-.2-.8-.5-1.1-.3-.2-.8-.4-1.3-.4s-1.1.1-1.5.4-.6.7-.7,1.2h-5.7c0-1.1.4-2,1-2.9.6-.9,1.5-1.6,2.6-2.1,1.2-.5,2.6-.8,4.3-.8s2.4.1,3.3.4,1.8.7,2.5,1.2c.7.5,1.2,1.1,1.6,1.8.4.7.5,1.4.5,2.2v11.9h-5.8v-2.4h-.1c-.3.6-.8,1.2-1.3,1.6-.5.4-1.1.7-1.7.9s-1.3.3-2.1.3ZM132.7,209.3c.5,0,.9,0,1.3-.3.4-.2.8-.5,1-.8.3-.4.4-.8.4-1.3v-1.4c-.2,0-.3.1-.5.2-.2,0-.4.1-.6.2-.2,0-.4.1-.7.1s-.5,0-.7.1c-.5,0-.9.2-1.2.4-.3.2-.5.4-.7.6-.1.2-.2.5-.2.8,0,.5.2.9.5,1.1.3.3.8.4,1.3.4Z"/>
    <path class="st0" d="M155,195.7v4.5h-11.6v-4.5h11.6ZM145.6,213v-17.8c0-1.4.3-2.6.8-3.6.5-.9,1.2-1.6,2.2-2.1.9-.5,2-.7,3.3-.7s1.6,0,2.3.2c.7.1,1.3.2,1.7.3l-.9,4.5c-.2,0-.5-.1-.8-.2-.3,0-.6,0-.8,0-.6,0-1,.1-1.2.4-.2.2-.3.6-.3,1v18.1h-6.2Z"/>
    <path class="st0" d="M165.2,213.3c-1.9,0-3.5-.4-4.8-1.1-1.3-.7-2.4-1.8-3.1-3.1s-1.1-2.9-1.1-4.7.4-3.3,1.1-4.7c.7-1.3,1.7-2.4,3.1-3.1,1.3-.7,3-1.1,4.8-1.1s3.5.4,4.8,1.1,2.4,1.8,3.1,3.1c.7,1.3,1.1,2.9,1.1,4.7s-.4,3.3-1.1,4.7c-.7,1.3-1.7,2.4-3.1,3.1-1.3.7-3,1.1-4.8,1.1ZM165.2,208.7c.5,0,1-.2,1.4-.5.4-.4.7-.9.9-1.5s.3-1.4.3-2.3-.1-1.7-.3-2.3c-.2-.7-.5-1.2-.9-1.5-.4-.4-.8-.5-1.4-.5s-1,.2-1.4.5c-.4.4-.7.9-.9,1.5-.2.7-.3,1.4-.3,2.3s.1,1.7.3,2.3.5,1.2.9,1.5c.4.4.9.5,1.4.5Z"/>
    <path class="st0" d="M176.7,213v-17.3h6.1v3.3h.2c.3-1.2.8-2.1,1.5-2.7.7-.6,1.5-.8,2.4-.8s.5,0,.8,0,.5,0,.8.2v5.3c-.3-.1-.7-.2-1.1-.2s-.8,0-1.2,0c-.6,0-1.2.1-1.6.4-.5.3-.9.7-1.1,1.2s-.4,1.1-.4,1.7v9h-6.2Z"/>
    <path class="st0" d="M190.5,213v-17.3h5.9v3.3h.2c.4-1.1,1-1.9,1.9-2.6.9-.6,1.9-.9,3.1-.9s2.3.3,3.2,1c.9.6,1.4,1.5,1.6,2.6h.2c.3-1.1.9-1.9,1.9-2.6,1-.6,2.1-1,3.4-1s3,.5,4,1.6c1,1.1,1.6,2.5,1.6,4.3v11.7h-6.2v-10.1c0-.8-.2-1.4-.6-1.8-.4-.4-.9-.6-1.5-.6s-1.1.2-1.5.6c-.4.4-.6,1-.6,1.8v10.1h-6v-10.1c0-.8-.2-1.4-.6-1.8-.4-.4-.9-.6-1.5-.6s-.8,0-1.1.3c-.3.2-.5.5-.7.8-.2.4-.3.8-.3,1.3v10.1h-6.2Z"/>
    <path class="st0" d="M225.2,213.3c-1.1,0-2.1-.2-2.9-.5s-1.5-.9-2-1.7c-.5-.7-.7-1.7-.7-2.8s.2-1.8.5-2.4.8-1.2,1.4-1.7c.6-.4,1.3-.8,2-1,.8-.2,1.6-.4,2.5-.4,1,0,1.8-.2,2.3-.3s1-.3,1.3-.5c.3-.2.4-.5.4-.8h0c0-.5-.2-.8-.5-1.1-.3-.2-.8-.4-1.3-.4s-1.1.1-1.5.4-.6.7-.7,1.2h-5.7c0-1.1.4-2,1-2.9.6-.9,1.5-1.6,2.6-2.1,1.2-.5,2.6-.8,4.3-.8s2.4.1,3.3.4,1.8.7,2.5,1.2c.7.5,1.2,1.1,1.6,1.8.4.7.5,1.4.5,2.2v11.9h-5.8v-2.4h-.1c-.3.6-.8,1.2-1.3,1.6-.5.4-1.1.7-1.7.9s-1.3.3-2.1.3ZM227.2,209.3c.5,0,.9,0,1.3-.3.4-.2.8-.5,1-.8.3-.4.4-.8.4-1.3v-1.4c-.2,0-.3.1-.5.2-.2,0-.4.1-.6.2-.2,0-.4.1-.7.1s-.5,0-.7.1c-.5,0-.9.2-1.2.4-.3.2-.5.4-.7.6-.1.2-.2.5-.2.8,0,.5.2.9.5,1.1.3.3.8.4,1.3.4Z"/>
    <path class="st0" d="M95.7,229.4h-6.4c0-.5-.2-1-.4-1.4-.2-.4-.5-.8-.8-1.1-.3-.3-.7-.6-1.2-.7-.5-.2-1-.3-1.6-.3-1.1,0-1.9.3-2.7.8-.7.5-1.3,1.2-1.6,2.2-.4,1-.6,2.1-.6,3.4s.2,2.6.6,3.6c.4,1,.9,1.7,1.7,2.1.7.5,1.6.7,2.6.7s1.1,0,1.6-.2c.5-.1.9-.4,1.2-.6.3-.3.6-.6.8-1,.2-.4.4-.8.4-1.3h6.4c0,1-.3,2-.8,3-.5,1-1.1,1.9-2,2.8-.9.9-1.9,1.5-3.2,2.1s-2.8.8-4.5.8-4-.5-5.7-1.4-3-2.3-4-4c-1-1.8-1.5-3.9-1.5-6.5s.5-4.7,1.5-6.5c1-1.8,2.3-3.1,4-4,1.7-.9,3.6-1.4,5.6-1.4s2.8.2,4,.6c1.2.4,2.3,1,3.2,1.7.9.8,1.7,1.7,2.2,2.8s.9,2.4,1,3.8Z"/>
    <path class="st0" d="M107,244.2c-1.9,0-3.4-.4-4.8-1.1-1.3-.7-2.4-1.7-3.1-3.1-.7-1.3-1.1-2.9-1.1-4.8s.4-3.4,1.1-4.7c.7-1.3,1.7-2.4,3.1-3.1s2.9-1.1,4.7-1.1,2.5.2,3.6.6,2,1,2.7,1.8c.8.8,1.3,1.7,1.7,2.8.4,1.1.6,2.3.6,3.7v1.4h-15.5v-3.4h9.8c0-.5-.1-.9-.4-1.3-.2-.4-.6-.7-1-.9s-.9-.3-1.4-.3-1,.1-1.4.3-.8.5-1,.9c-.3.4-.4.8-.4,1.3v3.7c0,.6.1,1.1.3,1.5.2.4.6.8,1,1s1,.4,1.6.4.8,0,1.2-.2c.4-.1.7-.3.9-.5.3-.2.4-.5.6-.8h5.7c-.2,1.2-.7,2.2-1.4,3.1-.7.9-1.7,1.6-2.9,2.1-1.2.5-2.6.7-4.2.7Z"/>
    <path class="st0" d="M124.2,234.1v9.8h-6.2v-17.3h5.9v3.3h.2c.4-1.1,1-2,2-2.6s2.1-.9,3.3-.9,2.3.3,3.2.8c.9.6,1.6,1.3,2.1,2.3.5,1,.7,2.1.7,3.4v11.1h-6.2v-9.8c0-.9-.2-1.5-.6-2-.4-.5-1.1-.7-1.8-.7s-1,.1-1.3.3c-.4.2-.7.5-.9.9s-.3.9-.3,1.5Z"/>
    <path class="st0" d="M148.9,226.5v4.5h-11.4v-4.5h11.4ZM139.7,222.4h6.2v15.9c0,.2,0,.4.1.6,0,.2.2.3.4.4.2,0,.4.1.7.1s.4,0,.7,0c.3,0,.4,0,.6-.1l.9,4.4c-.3,0-.7.2-1.2.3-.5.1-1.1.2-1.8.2-1.4,0-2.6,0-3.6-.4-1-.4-1.7-1-2.2-1.8-.5-.8-.7-1.8-.7-3v-16.5Z"/>
    <path class="st0" d="M151.4,243.9v-17.3h6.2v17.3h-6.2ZM154.5,224.7c-.9,0-1.6-.3-2.2-.8-.6-.6-.9-1.2-.9-2s.3-1.5.9-2c.6-.6,1.3-.8,2.2-.8s1.6.3,2.2.8c.6.6.9,1.2.9,2s-.3,1.5-.9,2c-.6.6-1.3.8-2.2.8Z"/>
    <path class="st0" d="M167,234.1v9.8h-6.2v-17.3h5.9v3.3h.2c.4-1.1,1-2,2-2.6s2.1-.9,3.3-.9,2.3.3,3.2.8c.9.6,1.6,1.3,2.1,2.3.5,1,.7,2.1.7,3.4v11.1h-6.2v-9.8c0-.9-.2-1.5-.6-2-.4-.5-1.1-.7-1.8-.7s-1,.1-1.3.3c-.4.2-.7.5-.9.9s-.3.9-.3,1.5Z"/>
    <path class="st0" d="M189.7,244.2c-1.9,0-3.4-.4-4.8-1.1-1.3-.7-2.4-1.7-3.1-3.1-.7-1.3-1.1-2.9-1.1-4.8s.4-3.4,1.1-4.7c.7-1.3,1.7-2.4,3.1-3.1s2.9-1.1,4.7-1.1,2.5.2,3.6.6,2,1,2.7,1.8c.8.8,1.3,1.7,1.7,2.8.4,1.1.6,2.3.6,3.7v1.4h-15.5v-3.4h9.8c0-.5-.1-.9-.4-1.3-.2-.4-.6-.7-1-.9s-.9-.3-1.4-.3-1,.1-1.4.3-.8.5-1,.9c-.3.4-.4.8-.4,1.3v3.7c0,.6.1,1.1.3,1.5.2.4.6.8,1,1s1,.4,1.6.4.8,0,1.2-.2c.4-.1.7-.3.9-.5.3-.2.4-.5.6-.8h5.7c-.2,1.2-.7,2.2-1.4,3.1-.7.9-1.7,1.6-2.9,2.1-1.2.5-2.6.7-4.2.7Z"/>
    <path class="st0" d="M206.9,220.8v23.1h-6.2v-23.1h6.2Z"/>
    <path class="st0" d="M214.9,244.2c-1.1,0-2.1-.2-2.9-.5s-1.5-.9-2-1.7c-.5-.7-.7-1.7-.7-2.8s.2-1.8.5-2.4.8-1.2,1.4-1.7c.6-.4,1.3-.8,2-1,.8-.2,1.6-.4,2.5-.4,1,0,1.8-.2,2.3-.3s1-.3,1.3-.5c.3-.2.4-.5.4-.8h0c0-.5-.2-.8-.5-1.1-.3-.2-.8-.4-1.3-.4s-1.1.1-1.5.4-.6.7-.7,1.2h-5.7c0-1.1.4-2,1-2.9.6-.9,1.5-1.6,2.6-2.1,1.2-.5,2.6-.8,4.3-.8s2.4.1,3.3.4,1.8.7,2.5,1.2c.7.5,1.2,1.1,1.6,1.8.4.7.5,1.4.5,2.2v11.9h-5.8v-2.4h-.1c-.3.6-.8,1.2-1.3,1.6-.5.4-1.1.7-1.7.9s-1.3.3-2.1.3ZM216.9,240.2c.5,0,.9,0,1.3-.3.4-.2.8-.5,1-.8.3-.4.4-.8.4-1.3v-1.4c-.2,0-.3.1-.5.2-.2,0-.4.1-.6.2-.2,0-.4.1-.7.1s-.5,0-.7.1c-.5,0-.9.2-1.2.4-.3.2-.5.4-.7.6-.1.2-.2.5-.2.8,0,.5.2.9.5,1.1.3.3.8.4,1.3.4Z"/>
  </g>
</svg>