<?xml version="1.0" encoding="UTF-8"?>
<svg id="Layer_1" xmlns="http://www.w3.org/2000/svg" version="1.1" viewBox="0 0 810 540">
  <!-- Generator: Adobe Illustrator 29.0.1, SVG Export Plug-In . SVG Version: 2.1.0 Build 192)  -->
  <defs>
    <style>
      .st0 {
        fill: #1c1917;
      }

      .st1 {
        fill: #facc15;
      }
    </style>
  </defs>
  <rect class="st1" width="810" height="540"/>
  <g>
    <g id="s">
      <g id="c">
        <path id="t" class="st0" d="M405,60l-9.3,28.5,14.3,4.6-5-33.2Z"/>
        <path id="t1" data-name="t" class="st0" d="M405,60l9.3,28.5-14.3,4.6,5-33.2Z"/>
      </g>
      <g id="a">
        <g id="c1" data-name="c">
          <path id="t2" data-name="t" class="st0" d="M433.5,80.7h-30s0,15,0,15l30-15Z"/>
          <path id="t3" data-name="t" class="st0" d="M433.5,80.7l-24.3,17.6-8.8-12.1,33.1-5.5Z"/>
        </g>
        <g id="c2" data-name="c">
          <path id="t4" data-name="t" class="st0" d="M422.6,114.3l-9.3-28.5-14.3,4.6,23.5,23.9Z"/>
          <path id="t5" data-name="t" class="st0" d="M422.6,114.3l-24.3-17.6,8.8-12.1,15.5,29.8Z"/>
        </g>
      </g>
      <g id="a1" data-name="a">
        <g id="c3" data-name="c">
          <path id="t6" data-name="t" class="st0" d="M376.5,80.7h30s0,15,0,15l-30-15Z"/>
          <path id="t7" data-name="t" class="st0" d="M376.5,80.7l24.3,17.6,8.8-12.1-33.1-5.5Z"/>
        </g>
        <g id="c4" data-name="c">
          <path id="t8" data-name="t" class="st0" d="M387.4,114.3l9.3-28.5,14.3,4.6-23.5,23.9Z"/>
          <path id="t9" data-name="t" class="st0" d="M387.4,114.3l24.3-17.6-8.8-12.1-15.5,29.8Z"/>
        </g>
      </g>
    </g>
    <g id="s1" data-name="s">
      <g id="c5" data-name="c">
        <path id="t10" data-name="t" class="st0" d="M405,420l-9.3,28.5,14.3,4.6-5-33.2Z"/>
        <path id="t11" data-name="t" class="st0" d="M405,420l9.3,28.5-14.3,4.6,5-33.2Z"/>
      </g>
      <g id="a2" data-name="a">
        <g id="c6" data-name="c">
          <path id="t12" data-name="t" class="st0" d="M433.5,440.7h-30s0,15,0,15l30-15Z"/>
          <path id="t13" data-name="t" class="st0" d="M433.5,440.7l-24.3,17.6-8.8-12.1,33.1-5.5Z"/>
        </g>
        <g id="c7" data-name="c">
          <path id="t14" data-name="t" class="st0" d="M422.6,474.3l-9.3-28.5-14.3,4.6,23.5,23.9Z"/>
          <path id="t15" data-name="t" class="st0" d="M422.6,474.3l-24.3-17.6,8.8-12.1,15.5,29.8Z"/>
        </g>
      </g>
      <g id="a3" data-name="a">
        <g id="c8" data-name="c">
          <path id="t16" data-name="t" class="st0" d="M376.5,440.7h30s0,15,0,15l-30-15Z"/>
          <path id="t17" data-name="t" class="st0" d="M376.5,440.7l24.3,17.6,8.8-12.1-33.1-5.5Z"/>
        </g>
        <g id="c9" data-name="c">
          <path id="t18" data-name="t" class="st0" d="M387.4,474.3l9.3-28.5,14.3,4.6-23.5,23.9Z"/>
          <path id="t19" data-name="t" class="st0" d="M387.4,474.3l24.3-17.6-8.8-12.1-15.5,29.8Z"/>
        </g>
      </g>
    </g>
    <g id="l">
      <g id="s2" data-name="s">
        <g id="c10" data-name="c">
          <path id="t20" data-name="t" class="st0" d="M225,240l-9.3,28.5,14.3,4.6-5-33.2Z"/>
          <path id="t21" data-name="t" class="st0" d="M225,240l9.3,28.5-14.3,4.6,5-33.2Z"/>
        </g>
        <g id="a4" data-name="a">
          <g id="c11" data-name="c">
            <path id="t22" data-name="t" class="st0" d="M253.5,260.7h-30s0,15,0,15l30-15Z"/>
            <path id="t23" data-name="t" class="st0" d="M253.5,260.7l-24.3,17.6-8.8-12.1,33.1-5.5Z"/>
          </g>
          <g id="c12" data-name="c">
            <path id="t24" data-name="t" class="st0" d="M242.6,294.3l-9.3-28.5-14.3,4.6,23.5,23.9Z"/>
            <path id="t25" data-name="t" class="st0" d="M242.6,294.3l-24.3-17.6,8.8-12.1,15.5,29.8Z"/>
          </g>
        </g>
        <g id="a5" data-name="a">
          <g id="c13" data-name="c">
            <path id="t26" data-name="t" class="st0" d="M196.5,260.7h30s0,15,0,15l-30-15Z"/>
            <path id="t27" data-name="t" class="st0" d="M196.5,260.7l24.3,17.6,8.8-12.1-33.1-5.5Z"/>
          </g>
          <g id="c14" data-name="c">
            <path id="t28" data-name="t" class="st0" d="M207.4,294.3l9.3-28.5,14.3,4.6-23.5,23.9Z"/>
            <path id="t29" data-name="t" class="st0" d="M207.4,294.3l24.3-17.6-8.8-12.1-15.5,29.8Z"/>
          </g>
        </g>
      </g>
      <g id="s3" data-name="s">
        <g id="c15" data-name="c">
          <path id="t30" data-name="t" class="st0" d="M297.4,138.4l24.3-17.6-8.8-12.1-15.5,29.8Z"/>
          <path id="t31" data-name="t" class="st0" d="M297.4,138.4l9.3-28.5,14.3,4.6-23.5,23.9Z"/>
        </g>
        <g id="a6" data-name="a">
          <g id="c16" data-name="c">
            <path id="t32" data-name="t" class="st0" d="M286.5,104.8l24.3,17.6,8.8-12.1-33.1-5.5Z"/>
            <path id="t33" data-name="t" class="st0" d="M286.5,104.8h30v15s-30-15-30-15Z"/>
          </g>
          <g id="c17" data-name="c">
            <path id="t34" data-name="t" class="st0" d="M315,84.1l-9.3,28.5,14.3,4.6-5-33.2Z"/>
            <path id="t35" data-name="t" class="st0" d="M315,84.1l9.3,28.5-14.3,4.6,5-33.2Z"/>
          </g>
        </g>
        <g id="a7" data-name="a">
          <g id="c18" data-name="c">
            <path id="t36" data-name="t" class="st0" d="M332.6,138.4l-24.3-17.6,8.8-12.1,15.5,29.8Z"/>
            <path id="t37" data-name="t" class="st0" d="M332.6,138.4l-9.3-28.5-14.3,4.6,23.5,23.9Z"/>
          </g>
          <g id="c19" data-name="c">
            <path id="t38" data-name="t" class="st0" d="M343.5,104.8l-24.3,17.6-8.8-12.1,33.1-5.5Z"/>
            <path id="t39" data-name="t" class="st0" d="M343.5,104.8h-30v15s30-15,30-15Z"/>
          </g>
        </g>
      </g>
      <g id="s4" data-name="s">
        <g id="c20" data-name="c">
          <path id="t40" data-name="t" class="st0" d="M266.7,204.3l-9.3-28.5-14.3,4.6,23.5,23.9Z"/>
          <path id="t41" data-name="t" class="st0" d="M266.7,204.3l-24.3-17.6,8.8-12.1,15.5,29.8Z"/>
        </g>
        <g id="a8" data-name="a">
          <g id="c21" data-name="c">
            <path id="t42" data-name="t" class="st0" d="M231.5,204.3l24.3-17.6-8.8-12.1-15.5,29.8Z"/>
            <path id="t43" data-name="t" class="st0" d="M231.5,204.3l9.3-28.5,14.3,4.6-23.5,23.9Z"/>
          </g>
          <g id="c22" data-name="c">
            <path id="t44" data-name="t" class="st0" d="M220.6,170.7l24.3,17.6,8.8-12.1-33.1-5.5Z"/>
            <path id="t45" data-name="t" class="st0" d="M220.6,170.7h30v15s-30-15-30-15Z"/>
          </g>
        </g>
        <g id="a9" data-name="a">
          <g id="c23" data-name="c">
            <path id="t46" data-name="t" class="st0" d="M277.6,170.7l-24.3,17.6-8.8-12.1,33.1-5.5Z"/>
            <path id="t47" data-name="t" class="st0" d="M277.6,170.7h-30v15s30-15,30-15Z"/>
          </g>
          <g id="c24" data-name="c">
            <path id="t48" data-name="t" class="st0" d="M249.1,150l9.3,28.5-14.3,4.6,5-33.2Z"/>
            <path id="t49" data-name="t" class="st0" d="M249.1,150l-9.3,28.5,14.3,4.6-5-33.2Z"/>
          </g>
        </g>
      </g>
      <g id="s5" data-name="s">
        <g id="c25" data-name="c">
          <path id="t50" data-name="t" class="st0" d="M277.6,350.7h-30s0,15,0,15l30-15Z"/>
          <path id="t51" data-name="t" class="st0" d="M277.6,350.7l-24.3,17.6-8.8-12.1,33.1-5.5Z"/>
        </g>
        <g id="a10" data-name="a">
          <g id="c26" data-name="c">
            <path id="t52" data-name="t" class="st0" d="M266.7,384.3l-9.3-28.5-14.3,4.6,23.5,23.9Z"/>
            <path id="t53" data-name="t" class="st0" d="M266.7,384.3l-24.3-17.6,8.8-12.1,15.5,29.8Z"/>
          </g>
          <g id="c27" data-name="c">
            <path id="t54" data-name="t" class="st0" d="M231.5,384.3l24.3-17.6-8.8-12.1-15.5,29.8Z"/>
            <path id="t55" data-name="t" class="st0" d="M231.5,384.3l9.3-28.5,14.3,4.6-23.5,23.9Z"/>
          </g>
        </g>
        <g id="a11" data-name="a">
          <g id="c28" data-name="c">
            <path id="t56" data-name="t" class="st0" d="M249.1,330l9.3,28.5-14.3,4.6,5-33.2Z"/>
            <path id="t57" data-name="t" class="st0" d="M249.1,330l-9.3,28.5,14.3,4.6-5-33.2Z"/>
          </g>
          <g id="c29" data-name="c">
            <path id="t58" data-name="t" class="st0" d="M220.6,350.7h30s0,15,0,15l-30-15Z"/>
            <path id="t59" data-name="t" class="st0" d="M220.6,350.7l24.3,17.6,8.8-12.1-33.1-5.5Z"/>
          </g>
        </g>
      </g>
      <g id="s6" data-name="s">
        <g id="c30" data-name="c">
          <path id="t60" data-name="t" class="st0" d="M343.5,416.6h-30s0,15,0,15l30-15Z"/>
          <path id="t61" data-name="t" class="st0" d="M343.5,416.6l-24.3,17.6-8.8-12.1,33.1-5.5Z"/>
        </g>
        <g id="a12" data-name="a">
          <g id="c31" data-name="c">
            <path id="t62" data-name="t" class="st0" d="M332.6,450.2l-9.3-28.5-14.3,4.6,23.5,23.9Z"/>
            <path id="t63" data-name="t" class="st0" d="M332.6,450.2l-24.3-17.6,8.8-12.1,15.5,29.8Z"/>
          </g>
          <g id="c32" data-name="c">
            <path id="t64" data-name="t" class="st0" d="M297.4,450.2l24.3-17.6-8.8-12.1-15.5,29.8Z"/>
            <path id="t65" data-name="t" class="st0" d="M297.4,450.2l9.3-28.5,14.3,4.6-23.5,23.9Z"/>
          </g>
        </g>
        <g id="a13" data-name="a">
          <g id="c33" data-name="c">
            <path id="t66" data-name="t" class="st0" d="M315,395.9l9.3,28.5-14.3,4.6,5-33.2Z"/>
            <path id="t67" data-name="t" class="st0" d="M315,395.9l-9.3,28.5,14.3,4.6-5-33.2Z"/>
          </g>
          <g id="c34" data-name="c">
            <path id="t68" data-name="t" class="st0" d="M286.5,416.6h30v15s-30-15-30-15Z"/>
            <path id="t69" data-name="t" class="st0" d="M286.5,416.6l24.3,17.6,8.8-12.1-33.1-5.5Z"/>
          </g>
        </g>
      </g>
    </g>
    <g id="l1" data-name="l">
      <g id="s7" data-name="s">
        <g id="c35" data-name="c">
          <path id="t70" data-name="t" class="st0" d="M585,240l9.3,28.5-14.3,4.6,5-33.2Z"/>
          <path id="t71" data-name="t" class="st0" d="M585,240l-9.3,28.5,14.3,4.6-5-33.2Z"/>
        </g>
        <g id="a14" data-name="a">
          <g id="c36" data-name="c">
            <path id="t72" data-name="t" class="st0" d="M556.5,260.7h30s0,15,0,15l-30-15Z"/>
            <path id="t73" data-name="t" class="st0" d="M556.5,260.7l24.3,17.6,8.8-12.1-33.1-5.5Z"/>
          </g>
          <g id="c37" data-name="c">
            <path id="t74" data-name="t" class="st0" d="M567.4,294.3l9.3-28.5,14.3,4.6-23.5,23.9Z"/>
            <path id="t75" data-name="t" class="st0" d="M567.4,294.3l24.3-17.6-8.8-12.1-15.5,29.8Z"/>
          </g>
        </g>
        <g id="a15" data-name="a">
          <g id="c38" data-name="c">
            <path id="t76" data-name="t" class="st0" d="M613.5,260.7h-30s0,15,0,15l30-15Z"/>
            <path id="t77" data-name="t" class="st0" d="M613.5,260.7l-24.3,17.6-8.8-12.1,33.1-5.5Z"/>
          </g>
          <g id="c39" data-name="c">
            <path id="t78" data-name="t" class="st0" d="M602.6,294.3l-9.3-28.5-14.3,4.6,23.5,23.9Z"/>
            <path id="t79" data-name="t" class="st0" d="M602.6,294.3l-24.3-17.6,8.8-12.1,15.5,29.8Z"/>
          </g>
        </g>
      </g>
      <g id="s8" data-name="s">
        <g id="c40" data-name="c">
          <path id="t80" data-name="t" class="st0" d="M512.6,138.4l-24.3-17.6,8.8-12.1,15.5,29.8Z"/>
          <path id="t81" data-name="t" class="st0" d="M512.6,138.4l-9.3-28.5-14.3,4.6,23.5,23.9Z"/>
        </g>
        <g id="a16" data-name="a">
          <g id="c41" data-name="c">
            <path id="t82" data-name="t" class="st0" d="M523.5,104.8l-24.3,17.6-8.8-12.1,33.1-5.5Z"/>
            <path id="t83" data-name="t" class="st0" d="M523.5,104.8h-30v15s30-15,30-15Z"/>
          </g>
          <g id="c42" data-name="c">
            <path id="t84" data-name="t" class="st0" d="M495,84.1l9.3,28.5-14.3,4.6,5-33.2Z"/>
            <path id="t85" data-name="t" class="st0" d="M495,84.1l-9.3,28.5,14.3,4.6-5-33.2Z"/>
          </g>
        </g>
        <g id="a17" data-name="a">
          <g id="c43" data-name="c">
            <path id="t86" data-name="t" class="st0" d="M477.4,138.4l24.3-17.6-8.8-12.1-15.5,29.8Z"/>
            <path id="t87" data-name="t" class="st0" d="M477.4,138.4l9.3-28.5,14.3,4.6-23.5,23.9Z"/>
          </g>
          <g id="c44" data-name="c">
            <path id="t88" data-name="t" class="st0" d="M466.5,104.8l24.3,17.6,8.8-12.1-33.1-5.5Z"/>
            <path id="t89" data-name="t" class="st0" d="M466.5,104.8h30v15s-30-15-30-15Z"/>
          </g>
        </g>
      </g>
      <g id="s9" data-name="s">
        <g id="c45" data-name="c">
          <path id="t90" data-name="t" class="st0" d="M543.3,204.3l9.3-28.5,14.3,4.6-23.5,23.9Z"/>
          <path id="t91" data-name="t" class="st0" d="M543.3,204.3l24.3-17.6-8.8-12.1-15.5,29.8Z"/>
        </g>
        <g id="a18" data-name="a">
          <g id="c46" data-name="c">
            <path id="t92" data-name="t" class="st0" d="M578.5,204.3l-24.3-17.6,8.8-12.1,15.5,29.8Z"/>
            <path id="t93" data-name="t" class="st0" d="M578.5,204.3l-9.3-28.5-14.3,4.6,23.5,23.9Z"/>
          </g>
          <g id="c47" data-name="c">
            <path id="t94" data-name="t" class="st0" d="M589.4,170.7l-24.3,17.6-8.8-12.1,33.1-5.5Z"/>
            <path id="t95" data-name="t" class="st0" d="M589.4,170.7h-30v15s30-15,30-15Z"/>
          </g>
        </g>
        <g id="a19" data-name="a">
          <g id="c48" data-name="c">
            <path id="t96" data-name="t" class="st0" d="M532.4,170.7l24.3,17.6,8.8-12.1-33.1-5.5Z"/>
            <path id="t97" data-name="t" class="st0" d="M532.4,170.7h30v15s-30-15-30-15Z"/>
          </g>
          <g id="c49" data-name="c">
            <path id="t98" data-name="t" class="st0" d="M560.9,150l-9.3,28.5,14.3,4.6-5-33.2Z"/>
            <path id="t99" data-name="t" class="st0" d="M560.9,150l9.3,28.5-14.3,4.6,5-33.2Z"/>
          </g>
        </g>
      </g>
      <g id="s10" data-name="s">
        <g id="c50" data-name="c">
          <path id="t100" data-name="t" class="st0" d="M532.4,350.7h30s0,15,0,15l-30-15Z"/>
          <path id="t101" data-name="t" class="st0" d="M532.4,350.7l24.3,17.6,8.8-12.1-33.1-5.5Z"/>
        </g>
        <g id="a20" data-name="a">
          <g id="c51" data-name="c">
            <path id="t102" data-name="t" class="st0" d="M543.3,384.3l9.3-28.5,14.3,4.6-23.5,23.9Z"/>
            <path id="t103" data-name="t" class="st0" d="M543.3,384.3l24.3-17.6-8.8-12.1-15.5,29.8Z"/>
          </g>
          <g id="c52" data-name="c">
            <path id="t104" data-name="t" class="st0" d="M578.5,384.3l-24.3-17.6,8.8-12.1,15.5,29.8Z"/>
            <path id="t105" data-name="t" class="st0" d="M578.5,384.3l-9.3-28.5-14.3,4.6,23.5,23.9Z"/>
          </g>
        </g>
        <g id="a21" data-name="a">
          <g id="c53" data-name="c">
            <path id="t106" data-name="t" class="st0" d="M560.9,330l-9.3,28.5,14.3,4.6-5-33.2Z"/>
            <path id="t107" data-name="t" class="st0" d="M560.9,330l9.3,28.5-14.3,4.6,5-33.2Z"/>
          </g>
          <g id="c54" data-name="c">
            <path id="t108" data-name="t" class="st0" d="M589.4,350.7h-30s0,15,0,15l30-15Z"/>
            <path id="t109" data-name="t" class="st0" d="M589.4,350.7l-24.3,17.6-8.8-12.1,33.1-5.5Z"/>
          </g>
        </g>
      </g>
      <g id="s11" data-name="s">
        <g id="c55" data-name="c">
          <path id="t110" data-name="t" class="st0" d="M466.5,416.6h30s0,15,0,15l-30-15Z"/>
          <path id="t111" data-name="t" class="st0" d="M466.5,416.6l24.3,17.6,8.8-12.1-33.1-5.5Z"/>
        </g>
        <g id="a22" data-name="a">
          <g id="c56" data-name="c">
            <path id="t112" data-name="t" class="st0" d="M477.4,450.2l9.3-28.5,14.3,4.6-23.5,23.9Z"/>
            <path id="t113" data-name="t" class="st0" d="M477.4,450.2l24.3-17.6-8.8-12.1-15.5,29.8Z"/>
          </g>
          <g id="c57" data-name="c">
            <path id="t114" data-name="t" class="st0" d="M512.6,450.2l-24.3-17.6,8.8-12.1,15.5,29.8Z"/>
            <path id="t115" data-name="t" class="st0" d="M512.6,450.2l-9.3-28.5-14.3,4.6,23.5,23.9Z"/>
          </g>
        </g>
        <g id="a23" data-name="a">
          <g id="c58" data-name="c">
            <path id="t116" data-name="t" class="st0" d="M495,395.9l-9.3,28.5,14.3,4.6-5-33.2Z"/>
            <path id="t117" data-name="t" class="st0" d="M495,395.9l9.3,28.5-14.3,4.6,5-33.2Z"/>
          </g>
          <g id="c59" data-name="c">
            <path id="t118" data-name="t" class="st0" d="M523.5,416.6h-30v15s30-15,30-15Z"/>
            <path id="t119" data-name="t" class="st0" d="M523.5,416.6l-24.3,17.6-8.8-12.1,33.1-5.5Z"/>
          </g>
        </g>
      </g>
    </g>
  </g>
</svg>