<?xml version="1.0" encoding="UTF-8"?>
<svg id="Layer_1" xmlns="http://www.w3.org/2000/svg" version="1.1" viewBox="0 0 300 300">
  <!-- Generator: Adobe Illustrator 29.0.1, SVG Export Plug-In . SVG Version: 2.1.0 Build 192)  -->
  <defs>
    <style>
      .st0 {
        fill: #fff;
      }
    </style>
  </defs>
  <g>
    <path class="st0" d="M106.7,75.7c-.2-.4-.4-.8-.5-1.1-3.2-6-6.4-12-9.6-17.9-.2-.3-.4-.7-.5-1-.3-.9-.1-1.3.8-1.3,2.2-.1,4.4-.2,6.5-.2,1.4,0,2.4.7,3.1,1.9,2.5,4.7,5.1,9.4,7.6,14.1.6,1.1,1.2,2.2,1.8,3.2.2.3.4.5.5.8,0,0,.2,0,.3-.1,0-.3-.1-.7-.2-.9-3.1-5.7-6.1-11.5-9.2-17.2-1-2-2.7-2.7-4.8-2.6-.5,0-1.1,0-1.7,0,0,0-.1-.2-.2-.3.3-.3.5-.7.8-.9,6.4-3.4,12.9-6.8,19.3-10.1,1-.5,1.4-.3,2,.8,2.2,4,4.3,7.9,6.4,11.9,2.6,4.8,5.2,9.6,7.8,14.5,1,1.8.9,1.6,2.5,1.3,6.6-1.1,13.3-1.2,20-.3,1.1.2,2.2.2,3.4.3.9.1,1.5-.2,2-1.1,1.2-2.2,2.5-4.4,3.8-6.6.9-1.6,1.8-2,3.6-1.5.7.2,1,.6.7,1.2-.3.8-.7,1.7-1.2,2.4-.3.4-1.1.7-1.7.7-.2,0-.5-.9-.7-1.4,0-.1,0-.2,0-.5-.6,1-.6,1.9,0,2.2.8.4,2.1.2,2.5-.5,1.6-2.7,3.1-5.4,4.7-8,.2-.3.3-.7.5-.8.4-.2.9-.2,1.4-.2,0,.4,0,.9,0,1.2-1.5,2.6-3,5.1-4.5,7.8-.8,1.5-.7,2.3.4,3.2,1,.9,2.2.8,2.9-.3,1.6-2.6,3.1-5.2,4.6-7.8.7-1.2,1.4-2.4,2.1-3.5.4-.6.9-.9,1.6-.4.7.5.3,1,0,1.5-2,3.4-4.1,6.9-6,10.4-.9,1.6-.5,3.1.7,3.9,0,0,.1-.1,0-.2-1.2-1.6-.7-3.2.3-4.7,1.9-3.1,3.7-6.2,5.6-9.3.4-.8.9-.9,1.7-.6,3,1,3.3,1.4,2,4.2-1.5,3.2-3.4,6.2-5.1,9.4-.2.4-.4.8-.7,1.3,0,0,.2.1.3.2.2-.3.5-.6.7-1,2.6-4.8,5.3-9.6,7.8-14.3.4-.7.9-1.2,1.7-1.1,1.5.2,2.3-.7,2.9-1.8.4-.8.8-1.6,1.2-2.4.6-1.2,1.3-1.5,2.6-.8.9.5,1.8,1.1,2.7,1.6,1.1.7,1.2,1.3.6,2.4-1.5,2.8-3,5.6-4.5,8.3-1.7,3.1-3.4,6.2-5.1,9.3-.2.3-.3.7-.6,1.2.5.1.8.2,1.2.2,3.3.5,6.7.9,10,1.4,1.1.1,1.5.6,1.4,1.6,0,6.5-.2,13.1-.2,19.6,0,11.5,0,23.1,0,34.6,0,7.9-3,14.7-8,20.6-.8.9-.8,1.6-.2,2.6,4.5,7.9,9.1,15.9,13.6,23.8.3.4.4.9.7,1.6-.6,0-.9.1-1.3.1-8.9,0-17.9,0-26.8,0-1.9,0-3.1-.7-3.9-2.4-1.1-2.3-2.2-4.6-3.3-6.9-.6-1.3-.7-1.4-2-.7-3,1.5-6,3.1-9.1,4.4-4.9,2.1-10,4.1-14.9,6.1-1.5.6-2.8.4-4.3-.2-6.5-2.8-13-5.6-19.1-9.1-.8-.5-1.2,0-1.5.6-1.2,2.2-2.4,4.5-3.4,6.8-1,2.4-2.7,3.6-5.2,4.1-6.3,1.3-12.5,2.7-18.7,4.1-.3,0-.6,0-1.1.1.2-.5.4-.8.5-1.1,4.2-7.9,8.3-15.7,12.5-23.6,0,0,0-.1,0-.2,0-.4,0-.9,0-1.3-.3.3-.7.4-.9.8-2.9,5.5-5.8,10.9-8.7,16.4-1.5,2.8-2.9,5.5-4.4,8.3-.6,1.1-.8,1.2-2,.7-2.4-1.1-4.7-2.2-7-3.4-1.2-.6-1.2-.7-.5-1.9,5.1-8.8,10.1-17.5,15.2-26.3.9-1.6,1-1.7-.3-3-3.8-4-6.7-8.5-8.3-13.9-1-3.7-1-7.4-1-11.2,0-5.9,0-11.7,0-17.6,0-9.9,0-19.8,0-29.6,0-1.7,0-1.8,1.8-2.1,3.6-.7,7.2-1.3,10.8-2,.3,0,.6-.2,1-.3ZM205.4,106.6h0c0-9.4,0-18.8,0-28.2,0-1-.5-1.1-1.3-1.2-13.7-1.7-27.3-3.4-41-5-4.9-.6-9.9-.9-14.8-.8-4.6.1-9.2.8-13.7,1.5-13,2-26,4.2-39,6.4-.7.1-1.1.4-1.1,1.2,0,.3,0,.7,0,1.1,0,16.2,0,32.5,0,48.7,0,5.3,1.3,10.3,4.2,14.8,3.7,5.7,8.5,10.3,13.8,14.4,10.9,8.4,23,14.6,35.7,19.8.8.3,1.9.3,2.7,0,9.2-3.1,18-7,26.4-11.9,7.9-4.5,15.1-9.8,21-16.9,4.7-5.6,7.2-11.9,7.1-19.2-.1-8.2,0-16.5,0-24.7Z"/>
    <path class="st0" d="M181.5,59.1c-.2.4-.3,1.2-.7,1.9-1.3,2.3-2.6,4.5-3.9,6.7-.7,1.2-1.4,1.4-2.4.8-1-.6-1.2-1.3-.5-2.5,1.4-2.5,2.8-4.9,4.3-7.3.3-.5.9-1,1.4-1.2.9-.5,1.9.2,1.9,1.6Z"/>
    <path class="st0" d="M205.2,106.6c0,8.2,0,16.5,0,24.7.1,7.4-2.4,13.7-7.1,19.2-5.9,7-13.2,12.3-21,16.9-8.4,4.9-17.2,8.8-26.4,11.9-.8.3-1.9.3-2.7,0-12.7-5.2-24.8-11.4-35.7-19.8-5.3-4.1-10.1-8.7-13.8-14.4-2.9-4.5-4.2-9.5-4.2-14.8,0-16.2,0-32.5,0-48.7,0-.4,0-.7,0-1.1,0-.8.4-1,1.1-1.2,13-2.1,26-4.3,39-6.4,4.5-.7,9.1-1.4,13.7-1.5,4.9-.1,9.9.2,14.8.8,13.7,1.5,27.4,3.3,41,5,.8,0,1.3.2,1.3,1.2,0,9.4,0,18.8,0,28.2h0ZM202.7,107.1s0,0,0,0c0-8.7,0-17.4,0-26.2,0-.8,0-1.5-1.1-1.6-5.9-.7-11.8-1.6-17.7-2.3-5.5-.7-11-1.3-16.4-1.9-4.6-.5-9.2-.9-13.9-1.3-7-.5-14,.5-20.9,1.6-6.4,1-12.8,2-19.1,3.1-5,.8-10,1.8-15.1,2.7-1.5.3-1.6.5-1.6,2,0,2,0,3.9,0,5.9,0,13.8,0,27.6,0,41.5,0,4.8,1.3,9.2,4.1,13.2,3.6,5.3,8.3,9.5,13.3,13.4,10.2,7.8,21.7,13.4,33.4,18.6,1,.5,2.1.5,3.2,0,1.5-.6,2.9-1.2,4.4-1.8,10.2-4.2,20.1-9,29.1-15.5,5.5-4,10.5-8.4,14.2-14.1,2.7-4.1,4.2-8.6,4.1-13.6-.1-7.9,0-15.9,0-23.8Z"/>
    <path class="st0" d="M202.7,107.1c0,7.9,0,15.9,0,23.8,0,5-1.5,9.5-4.1,13.6-3.7,5.7-8.7,10.2-14.2,14.1-9,6.5-18.9,11.3-29.1,15.5-1.5.6-2.9,1.2-4.4,1.8-1.1.5-2.1.5-3.2,0-11.7-5.2-23.2-10.8-33.4-18.6-5-3.9-9.7-8.1-13.3-13.4-2.7-4-4.1-8.4-4.1-13.2,0-13.8,0-27.6,0-41.5,0-2,0-3.9,0-5.9,0-1.6.1-1.8,1.6-2,5-.9,10-1.8,15.1-2.7,6.4-1.1,12.8-2.1,19.1-3.1,6.9-1.1,13.9-2.1,20.9-1.6,4.6.3,9.2.8,13.9,1.3,5.5.6,11,1.2,16.4,1.9,5.9.7,11.8,1.6,17.7,2.3,1.1.1,1.1.8,1.1,1.6,0,8.7,0,17.4,0,26.2,0,0,0,0,0,0ZM201.8,107.7h0c0-8.7,0-17.3,0-26,0-.9-.2-1.4-1.2-1.6-4.3-.5-8.6-1.2-13-1.7-8.8-1.1-17.6-2-26.4-3.1-7.6-.9-15.1-.9-22.7.3-6.6,1-13.1,2-19.7,3.1-6.6,1.1-13.1,2.2-19.6,3.4-.8.1-1.5.2-1.5,1.3,0,3.2-.1,6.3-.1,9.5,0,4.5.1,8.9.2,13.4,0,7.5,0,15.1,0,22.6,0,3.2.2,6.3,1.4,9.3,1.7,4.5,4.7,8.1,8,11.5,3.9,4,8.5,7.3,13.1,10.4,8.5,5.7,17.6,10.4,26.9,14.4,1.4.6,2.8.6,4.3,0,8.4-3.3,16.5-7.1,24.3-11.7,7.6-4.5,14.8-9.6,20.3-16.6,3.6-4.5,5.8-9.5,5.7-15.5-.2-7.7,0-15.5,0-23.2Z"/>
    <path class="st0" d="M121.3,120.1c.2-15.9,12.9-28.6,28.6-28.6,16.1,0,28.5,13.1,28.5,28.4,0,16.2-13,28.9-28.9,28.7-15.7-.2-28.4-13.1-28.3-28.6ZM174,120.3c0-10-5.9-18.9-15.2-22.7-.9-.4-1.8-1-2.5-1.7-3.6-3.9-9.7-3.8-13.3.1-.6.6-1.4,1.1-2.1,1.5-9.8,4.5-15,11.9-15.2,22.8-.2,15,13.9,26,27.7,23.7,12-2,20.5-11.7,20.6-23.7Z"/>
    <path class="st0" d="M141.4,99c0,.6-.1,1-.2,1.5-.6,4.2,1.5,8,5.3,9.6,3.8,1.6,8.2.3,10.7-3.1,1-1.4,1.4-3,1.4-4.8,0-.6,0-1.2,0-1.8,0-.4,0-.8.1-1.2.4,0,.8.1,1.1.3,4.7,2.4,8.4,5.7,10.7,10.5,3.8,8,3.4,15.9-1.7,23.2-4.8,6.8-11.4,10.3-19.8,9.9-10-.5-18.8-7.8-21.2-17.3-2.8-11,2.8-21.9,12.7-26.4.2-.1.5-.2,1-.3ZM149.8,123.3c1.8,0,3.2-1.4,3.2-3.2,0-1.7-1.4-3.1-3.2-3.1-1.8,0-3.2,1.4-3.2,3.2,0,1.7,1.4,3.1,3.2,3.1Z"/>
  </g>
  <g>
    <path class="st0" d="M106.6,197.3h6.2v15.9c0,1.5-.4,2.8-1.1,4-.7,1.1-1.8,2-3.1,2.7-1.3.6-2.8,1-4.5,1s-2.8-.3-4.1-.8c-1.2-.5-2.2-1.3-2.9-2.4-.7-1.1-1.1-2.6-1.1-4.3h6.3c0,.6.1,1.1.3,1.5.2.4.4.7.7.9s.7.3,1.2.3.9-.1,1.2-.3c.3-.2.6-.5.7-.9.2-.4.3-.9.3-1.5v-15.9Z"/>
    <path class="st0" d="M127.1,212.9v-9.8h6.2v17.3h-5.9v-3.3h-.2c-.4,1.1-1,2-2,2.6-.9.6-2.1.9-3.4.9s-2.3-.3-3.2-.8c-.9-.6-1.6-1.3-2.1-2.3s-.8-2.1-.8-3.4v-11.1h6.2v9.8c0,.9.2,1.5.7,2,.4.5,1,.7,1.8.7s1-.1,1.3-.3c.4-.2.7-.5.9-.9.2-.4.3-.9.3-1.5Z"/>
    <path class="st0" d="M141.3,220.7c-1.1,0-2.1-.2-2.9-.5s-1.5-.9-2-1.7c-.5-.7-.7-1.7-.7-2.8s.2-1.8.5-2.4.8-1.2,1.4-1.7c.6-.4,1.3-.8,2-1,.8-.2,1.6-.4,2.5-.4,1,0,1.8-.2,2.3-.3s1-.3,1.3-.5c.3-.2.4-.5.4-.8h0c0-.5-.2-.8-.5-1.1-.3-.2-.8-.4-1.3-.4s-1.1.1-1.5.4-.6.7-.7,1.2h-5.7c0-1.1.4-2,1-2.9.6-.9,1.5-1.6,2.6-2.1,1.2-.5,2.6-.8,4.3-.8s2.4.1,3.3.4,1.8.7,2.5,1.2c.7.5,1.2,1.1,1.6,1.8.4.7.5,1.4.5,2.2v11.9h-5.8v-2.4h-.1c-.3.6-.8,1.2-1.3,1.6-.5.4-1.1.7-1.7.9s-1.3.3-2.1.3ZM143.4,216.8c.5,0,.9,0,1.3-.3.4-.2.8-.5,1-.8.3-.4.4-.8.4-1.3v-1.4c-.2,0-.3.1-.5.2-.2,0-.4.1-.6.2-.2,0-.4.1-.7.1s-.5,0-.7.1c-.5,0-.9.2-1.2.4-.3.2-.5.4-.7.6-.1.2-.2.5-.2.8,0,.5.2.9.5,1.1.3.3.8.4,1.3.4ZM142.4,201l2.2-5.1h5.3l-3.4,5.1h-4.1Z"/>
    <path class="st0" d="M155.3,220.5v-17.3h6.1v3.3h.2c.3-1.2.8-2.1,1.5-2.7.7-.6,1.5-.8,2.4-.8s.5,0,.8,0,.5,0,.8.2v5.3c-.3-.1-.7-.2-1.1-.2s-.8,0-1.2,0c-.6,0-1.2.1-1.6.4-.5.3-.9.7-1.1,1.2s-.4,1.1-.4,1.7v9h-6.2Z"/>
    <path class="st0" d="M176.4,220.8c-1.9,0-3.4-.4-4.8-1.1-1.3-.7-2.4-1.7-3.1-3.1-.7-1.3-1.1-2.9-1.1-4.8s.4-3.4,1.1-4.7c.7-1.3,1.7-2.4,3.1-3.1s2.9-1.1,4.7-1.1,2.5.2,3.6.6,2,1,2.7,1.8c.8.8,1.3,1.7,1.7,2.8.4,1.1.6,2.3.6,3.7v1.4h-15.5v-3.4h9.8c0-.5-.1-.9-.4-1.3-.2-.4-.6-.7-1-.9s-.9-.3-1.4-.3-1,.1-1.4.3-.8.5-1,.9c-.3.4-.4.8-.4,1.3v3.7c0,.6.1,1.1.3,1.5.2.4.6.8,1,1s1,.4,1.6.4.8,0,1.2-.2c.4-.1.7-.3.9-.5.3-.2.4-.5.6-.8h5.7c-.2,1.2-.7,2.2-1.4,3.1-.7.9-1.7,1.6-2.9,2.1-1.2.5-2.6.7-4.2.7Z"/>
    <path class="st0" d="M187.6,220.5v-3.4l7.6-9.1h0c0,0-7.3,0-7.3,0v-4.7h14.7v3.8l-6.9,8.7h0c0,0,7.2,0,7.2,0v4.7h-15.2Z"/>
    <path class="st0" d="M85.2,228.2l4.7,16.3h.2l4.7-16.3h7.1l-7.6,23.1h-8.6l-7.6-23.1h7.1Z"/>
    <path class="st0" d="M104.3,251.4v-17.3h6.2v17.3h-6.2ZM107.4,232.2c-.9,0-1.6-.3-2.2-.8-.6-.6-.9-1.2-.9-2s.3-1.5.9-2c.6-.6,1.3-.8,2.2-.8s1.6.3,2.2.8c.6.6.9,1.2.9,2s-.3,1.5-.9,2c-.6.6-1.3.8-2.2.8Z"/>
    <path class="st0" d="M122,258.2c-1.7,0-3.2-.2-4.5-.7-1.2-.5-2.2-1.2-2.9-2-.7-.9-1.1-1.8-1.1-3h6c0,.4.2.7.5.9.2.2.6.4.9.5.4.1.8.2,1.3.2.8,0,1.5-.2,2-.6.5-.4.8-1.1.8-2.1v-2.9h-.2c-.2.6-.6,1.1-1,1.5-.5.4-1,.7-1.7.9-.7.2-1.4.3-2.2.3-1.2,0-2.4-.3-3.4-.9s-1.9-1.5-2.5-2.7c-.6-1.2-.9-2.9-.9-4.9s.3-3.8,1-5.1c.7-1.3,1.5-2.3,2.5-2.9,1-.6,2.1-.9,3.3-.9s1.6.1,2.3.4c.6.3,1.2.7,1.6,1.2.4.5.8,1,1,1.6h.1v-3h6.2v17.3c0,1.5-.4,2.7-1.1,3.7-.8,1-1.8,1.8-3.2,2.4-1.4.5-3,.8-4.8.8ZM122.2,246.7c.6,0,1.1-.2,1.5-.5.4-.3.7-.8.9-1.4.2-.6.3-1.3.3-2.2s-.1-1.6-.3-2.2c-.2-.6-.5-1.1-.9-1.4-.4-.3-.9-.5-1.5-.5s-1.1.2-1.5.5c-.4.3-.7.8-.9,1.4-.2.6-.3,1.3-.3,2.2s.1,1.6.3,2.2c.2.6.5,1.1.9,1.4.4.3.9.5,1.5.5Z"/>
    <path class="st0" d="M134.3,251.4v-17.3h6.2v17.3h-6.2ZM137.4,232.2c-.9,0-1.6-.3-2.2-.8-.6-.6-.9-1.2-.9-2s.3-1.5.9-2c.6-.6,1.3-.8,2.2-.8s1.6.3,2.2.8c.6.6.9,1.2.9,2s-.3,1.5-.9,2c-.6.6-1.3.8-2.2.8Z"/>
    <path class="st0" d="M149.9,228.2v23.1h-6.2v-23.1h6.2Z"/>
    <path class="st0" d="M157.9,251.6c-1.1,0-2.1-.2-2.9-.5s-1.5-.9-2-1.7c-.5-.7-.7-1.7-.7-2.8s.2-1.8.5-2.4.8-1.2,1.4-1.7c.6-.4,1.3-.8,2-1,.8-.2,1.6-.4,2.5-.4,1,0,1.8-.2,2.3-.3s1-.3,1.3-.5c.3-.2.4-.5.4-.8h0c0-.5-.2-.8-.5-1.1-.3-.2-.8-.4-1.3-.4s-1.1.1-1.5.4-.6.7-.7,1.2h-5.7c0-1.1.4-2,1-2.9.6-.9,1.5-1.6,2.6-2.1,1.2-.5,2.6-.8,4.3-.8s2.4.1,3.3.4,1.8.7,2.5,1.2c.7.5,1.2,1.1,1.6,1.8.4.7.5,1.4.5,2.2v11.9h-5.8v-2.4h-.1c-.3.6-.8,1.2-1.3,1.6-.5.4-1.1.7-1.7.9s-1.3.3-2.1.3ZM159.9,247.7c.5,0,.9,0,1.3-.3.4-.2.8-.5,1-.8.3-.4.4-.8.4-1.3v-1.4c-.2,0-.3.1-.5.2-.2,0-.4.1-.6.2-.2,0-.4.1-.7.1s-.5,0-.7.1c-.5,0-.9.2-1.2.4-.3.2-.5.4-.7.6-.1.2-.2.5-.2.8,0,.5.2.9.5,1.1.3.3.8.4,1.3.4Z"/>
    <path class="st0" d="M178.1,241.6v9.8h-6.2v-17.3h5.9v3.3h.2c.4-1.1,1-2,2-2.6s2.1-.9,3.3-.9,2.3.3,3.2.8c.9.6,1.6,1.3,2.1,2.3.5,1,.7,2.1.7,3.4v11.1h-6.2v-9.8c0-.9-.2-1.5-.6-2-.4-.5-1.1-.7-1.8-.7s-1,.1-1.3.3c-.4.2-.7.5-.9.9s-.3.9-.3,1.5Z"/>
    <path class="st0" d="M202.7,234v4.5h-11.4v-4.5h11.4ZM193.5,229.9h6.2v15.9c0,.2,0,.4.1.6,0,.2.2.3.4.4.2,0,.4.1.7.1s.4,0,.7,0c.3,0,.4,0,.6-.1l.9,4.4c-.3,0-.7.2-1.2.3-.5.1-1.1.2-1.8.2-1.4,0-2.6,0-3.6-.4-1-.4-1.7-1-2.2-1.8-.5-.8-.7-1.8-.7-3v-16.5Z"/>
    <path class="st0" d="M213.4,251.7c-1.9,0-3.4-.4-4.8-1.1-1.3-.7-2.4-1.7-3.1-3.1-.7-1.3-1.1-2.9-1.1-4.8s.4-3.4,1.1-4.7c.7-1.3,1.7-2.4,3.1-3.1s2.9-1.1,4.7-1.1,2.5.2,3.6.6,2,1,2.7,1.8c.8.8,1.3,1.7,1.7,2.8.4,1.1.6,2.3.6,3.7v1.4h-15.5v-3.4h9.8c0-.5-.1-.9-.4-1.3-.2-.4-.6-.7-1-.9s-.9-.3-1.4-.3-1,.1-1.4.3-.8.5-1,.9c-.3.4-.4.8-.4,1.3v3.7c0,.6.1,1.1.3,1.5.2.4.6.8,1,1s1,.4,1.6.4.8,0,1.2-.2c.4-.1.7-.3.9-.5.3-.2.4-.5.6-.8h5.7c-.2,1.2-.7,2.2-1.4,3.1-.7.9-1.7,1.6-2.9,2.1-1.2.5-2.6.7-4.2.7Z"/>
  </g>
</svg>