<?xml version="1.0" encoding="UTF-8"?>
<svg id="Layer_1" xmlns="http://www.w3.org/2000/svg" version="1.1" viewBox="0 0 300 300">
  <!-- Generator: Adobe Illustrator 29.0.1, SVG Export Plug-In . SVG Version: 2.1.0 Build 192)  -->
  <defs>
    <style>
      .st0 {
        fill: #fff;
      }
    </style>
  </defs>
  <g>
    <path class="st0" d="M168,125.8c0-.1-.1-.3-.3-.3-.2,0-.3.1-.4.3-.4,1-.9,2-1.3,3-.1.3,0,.5.4.5.4,0,.8,0,1.2,0h0c.4,0,.8,0,1.2,0,.4,0,.6-.2.4-.6-.4-1-.9-2-1.3-2.9Z"/>
    <path class="st0" d="M138.8,125.6c0-.1-.1-.3-.3-.2-.1,0-.2.1-.3.2-.5,1-.9,2.1-1.4,3.1-.2.4,0,.5.3.5.4,0,.9,0,1.3,0,.5,0,.9,0,1.4,0,.3,0,.4-.2.3-.5-.5-1.1-.9-2.1-1.4-3.2Z"/>
    <path class="st0" d="M103.8,82.7c-.9,0-1.7,0-2.6,0-.5,0-.7.2-.7.7,0,.6,0,1.3,0,1.9h0c0,.6,0,1.3,0,1.9,0,.5.2.7.7.7.8,0,1.7,0,2.5,0,1.6,0,2.6-1.1,2.6-2.6,0-1.5-1-2.5-2.6-2.6Z"/>
    <path class="st0" d="M149,125c-1-.4-2-.2-2.9-.2-.3,0-.4.2-.4.5,0,.5,0,.9,0,1.4h0c0,.5,0,1,0,1.5,0,.3,0,.5.4.5.9,0,1.8,0,2.7-.1,1-.3,1.6-1,1.6-1.9,0-.9-.6-1.4-1.3-1.7Z"/>
    <path class="st0" d="M157.1,115.1c.1,0,.3,0,.4,0h0c.2,0,.5,0,.7,0,.5,0,.6-.2.4-.6-.3-.7-.5-1.3-.8-2,0-.2-.1-.3-.4-.3-.2,0-.3.2-.4.3-.2.6-.5,1.2-.7,1.8-.3.8-.2.9.6.9Z"/>
    <path class="st0" d="M150.4,43.6h0c-.1,0-.3,0-.4,0-.1,0-.3,0-.4,0h0c-24.4.3-75.6,14.4-75.4,25.2.2,10.9,6.2,71.8,28.5,78.7,16.3,5.1,35.1,10.7,46.9,10.9h0c.1,0,.3,0,.4,0,.1,0,.3,0,.4,0h0c11.8-.2,30.6-5.8,46.9-10.9,22.2-6.9,28.2-67.8,28.5-78.7.2-10.8-51-24.9-75.4-25.2ZM137.8,86.8c.5-5.2,3.9-9.1,9.1-10.3,4.2-1,8-.3,11.6,2.2.6.4,1.1.9,1.6,1.4.5.5.5.8,0,1.2-1.3,1.1-2.6,2.2-3.9,3.3-.4.4-.7.3-1.1-.2-1.4-1.7-3.2-2.1-5.3-2-1.4,0-2.5,1-3.3,2.1-1.7,2.2-1.5,6.2,1,8.3,1.4,1.1,2.9,1.2,4.6.8,1.2-.3,2.2-.8,3-1.8.4-.5.6-.5,1.1,0,1.2,1,2.5,2.1,3.7,3.1.6.5.6.8,0,1.3-2.7,2.6-5.9,3.8-9.6,3.9-3.5,0-6.7-1.1-9.2-3.5-2.7-2.6-3.7-5.9-3.4-9.7ZM116.5,77.5c0-.7.2-.8.9-.8,1.9,0,3.9,0,5.8-.1.1,0,.3,0,.4,0,.2,0,.4,0,.5,0,.9.1,1.7.1,2.6,0,1.6,0,3.1,0,4.7,0,1,0,2.1,0,3.1,0,.1,0,.2,0,.3,0,.3.2.3.5.3.8,0,1.4,0,2.8,0,4.2,0,.6-.1.8-.8.8-3.1,0-6.3,0-9.4,0-.8,0-.8,0-.8.8,0,.4,0,.9,0,1.3,0,.2,0,.4.4.4.3.2.7,0,1,0,2.7,0,5.3,0,8,0,.2.1.2.3.2.6,0,1.5,0,3,0,4.4,0,.3,0,.5-.4.7-2.9,0-5.9,0-8.8,0-.1,0-.3,0-.4.2-.3.2-.2.5-.2.8,0,2.2-.2,2,2,2,2.9,0,5.7,0,8.6,0,.8,0,.8,0,.8.8,0,1.4,0,2.9,0,4.3,0,.5-.2.7-.7.7-5.9,0-11.7,0-17.6,0-.6,0-.7-.1-.7-.8,0-4.1,0-8.2,0-12.2,0-.2,0-.4,0-.6.1-.9,0-1.8,0-2.6,0-1.1,0-2.2,0-3.2,0-.7,0-1.4,0-2.2,0-.1,0-.2,0-.3ZM129.6,110.4c0-.6.2-.7.7-.7q1.3,0,1.3,1.3c0,2.2,0,4.4,0,6.7,0,.9,0,.9-.9.9q-1.2,0-1.2-1.2c0-1.1,0-2.2,0-3.3h0c0-1.2,0-2.5,0-3.7ZM102.7,93.9c-.5,0-1,0-1.5,0-.6,0-.7,0-.7.7,0,1.4,0,2.7,0,4.1,0,.8,0,.9-.9.9-2.1,0-4.1,0-6.2,0-.7,0-.8,0-.8-.8,0-1.6,0-3.1,0-4.7,0,0,0-.2,0-.3.1-.2,0-.4,0-.6,0-5.1,0-10.3,0-15.4,0-.9,0-1,1-1.1,3.9-.4,7.7-.4,11.5.3,2.1.4,4.2.9,6.2,1.8.2,0,.3.2.4.3.3.4.6.8.9,1.2.5,1,1,2.1,1.3,3.2.8,3.4-.7,7.1-3.7,8.9-2.3,1.4-4.9,1.7-7.6,1.7ZM111.8,115.2c.4,1.1,1.5,1.7,2.7,1.7.6,0,1.2-.2,1.7-.6.4-.2.7-.2,1.1.1.7.6.6,1-.2,1.5-1,.5-2,.9-3.2.8-1.8-.1-3.1-1.1-4-2.6-.9-1.5-.4-3.9.9-5.2,1.7-1.6,3.7-1.9,5.8-.8.3.1.6.3.8.4.4.2.4.6.2.9-.4.7-.8.8-1.6.4-1.2-.6-2.3-.8-3.5,0-1,.7-1.3,2.1-.8,3.3ZM125.5,115.5c0-.4-.2-.5-.5-.5-1,0-2,0-3,0-.4,0-.6.2-.6.6,0,.8,0,1.5,0,2.3,0,.6,0,.7-.7.7-1.3,0-1.3,0-1.3-1.3,0-1,0-2.1,0-3.1,0,0,0,0,0,0,0-1.2,0-2.4,0-3.6,0-.8.1-.9.9-.9,0,0,.2,0,.3,0,.8,0,.9,0,.9.9,0,.7,0,1.4,0,2.2,0,.5.2.6.6.6.9,0,1.9,0,2.8,0,.4,0,.6-.1.6-.6,0-.8,0-1.6,0-2.3,0-.5.2-.7.7-.7,1.4,0,1.4,0,1.4,1.4,0,2.1,0,4.3,0,6.4,0,.3,0,.5,0,.7,0,.2-.2.4-.5.4,0,0,0,0-.1,0q-1.4,0-1.4-1.4c0-.6,0-1.2,0-1.7ZM127.5,130.2c.9,1.2,2.5,1.6,3.9,1.1.4-.2.8-.3,1.1-.5.3-.1.5-.2.7.1.2.3.2.6-.1.9-1.6,1-3.3,1.2-5.1.5-1.7-.8-2.5-2.2-2.6-4,0-2.8,2.4-4.9,5.2-4.6.8.1,1.6.4,2.3.8.3.2.5.4.4.8-.1.4-.3.5-.7.3-.4-.2-.8-.4-1.2-.5-1.4-.6-3-.1-3.9,1-.8,1.1-.8,3,0,4.1ZM133.8,117.2c0-2.2,0-4.4,0-6.6,0-.3,0-.8.3-.9.5-.1,1-.1,1.5,0,.2,0,.2.3.2.5,0,.8,0,1.6,0,2.3,0,.5.2.6.7.6.9,0,1.8,0,2.8,0,.5,0,.6-.2.6-.6,0-.8,0-1.5,0-2.3,0-.5.2-.7.7-.7,1.3,0,1.3,0,1.4,1.3,0,1,0,2.1,0,3.1h0c0,1.2,0,2.4,0,3.6,0,.7-.2.8-.8.8q-1.2,0-1.2-1.2c0-.6,0-1.2,0-1.8,0-.4-.2-.6-.6-.6-1,0-1.9,0-2.9,0-.4,0-.6.2-.6.6,0,.8,0,1.6,0,2.3,0,.5-.2.7-.6.7-1.3,0-1.4,0-1.4-1.3ZM142.7,132.6c-.6,0-1-.2-1.2-.7-.2-.4-.3-.7-.5-1.1-.1-.3-.4-.5-.8-.5-1.2,0-2.4,0-3.6,0-.4,0-.6.2-.7.5-.2.3-.3.7-.5,1-.2.5-.5.7-1,.7-.2,0-.3,0-.5,0-.1-.1,0-.3,0-.5.5-1.2,1-2.4,1.5-3.5.7-1.4,1.3-2.9,2-4.3.2-.4.4-.6.8-.6.4,0,.7.3.9.6,1.3,2.6,2.4,5.2,3.5,7.8.1.3.3.6-.2.6ZM149.4,129.6c-1,.3-1.9.3-2.9.3-.7,0-.8,0-.8.8,0,.4,0,.8,0,1.2,0,.5-.3.6-.7.6-.4,0-.5-.2-.5-.6,0-1.3,0-2.6,0-3.8,0-1.2,0-2.5,0-3.7,0-.4.2-.7.6-.7,1.1,0,2.3,0,3.4,0,1.6.2,2.8,1.1,3.1,2.5.3,1.5-.6,3.1-2.1,3.5ZM151.9,115.5c-.3,1.6-1.3,2.8-2.8,3.1-1.8.4-3.4.1-4.6-1.4-.4-.5-.6-1.2-.6-1.9-.2-1.6-.1-3.3,0-4.9,0-.5.2-.6.7-.6,1.4,0,1.4,0,1.4,1.4,0,1,0,2,0,3,0,.4,0,.9,0,1.3.2,1,.8,1.5,1.8,1.5,1,0,1.6-.4,1.9-1.4.1-.5.1-1,.1-1.6,0-1.2,0-2.4,0-3.6,0-.6.1-.7.7-.7,1.3,0,1.3,0,1.4,1.3,0,.6,0,1.2,0,1.7,0,.9,0,1.9-.1,2.8ZM154.1,132.6c-.5,0-.7-.2-.7-.7,0-2.5,0-5,0-7.5,0-.6.2-.7.7-.7.5,0,.6.3.6.7,0,1.2,0,2.5,0,3.7s0,2.5,0,3.7c0,.5-.1.7-.6.7ZM155.2,117.3c0,0,0,0,0,.1-.2,1-.8,1.2-1.7,1.2-.6,0-.8-.2-.5-.8.5-1.1,1-2.2,1.5-3.3.6-1.3,1.2-2.6,1.7-3.9.3-.7.7-1,1.4-1,.8,0,1.1.3,1.4,1,1,2.3,2.1,4.6,3.1,7,.4.9.3,1-.8,1-.7.1-1.1-.3-1.3-1-.3-.9-.4-.9-1.3-.9-.8,0-1.7,0-2.5,0-.5,0-.8.2-1,.6ZM161.1,124.8c-.7,0-.7,0-.7.8,0,2.1,0,4.3,0,6.4,0,.4-.1.7-.6.7-.4,0-.6-.2-.6-.6,0-1.1,0-2.2,0-3.3h0c0-1.1,0-2.1,0-3.2,0-.5-.2-.7-.7-.7-.6,0-1.2,0-1.8,0-.4,0-.5-.2-.5-.6,0-.4.2-.5.5-.5,2.1,0,4.1,0,6.2,0,.4,0,.5.2.5.5,0,.4,0,.6-.5.6-.6,0-1.2,0-1.7,0ZM172,132.6c-.7,0-1.2-.2-1.3-.7-.3-1.4-1.2-1.7-2.5-1.5-.7,0-1.5,0-2.2,0-.5,0-.8.2-.9.6-.1.3-.3.7-.4,1-.1.2-.2.4-.5.5-.3,0-.6.3-.9,0-.2-.2,0-.5.1-.7,1.1-2.5,2.2-5,3.4-7.4.2-.4.4-.7.9-.7.5,0,.7.3.9.7,1.2,2.5,2.3,5,3.5,7.6.1.3.4.6,0,.7ZM166.1,113.2c1,0,1.9,0,2.9,0,.4,0,.6-.2.6-.6,0-.8,0-1.6,0-2.4,0-.5.2-.6.6-.7,1.4,0,1.4,0,1.4,1.3,0,1,0,2.1,0,3.1,0,1.2,0,2.4,0,3.6,0,.8-.2.9-.9.9-.1,0-.3,0-.4,0-.7,0-.7,0-.7-.8,0-.8,0-1.5,0-2.3,0-.4-.2-.6-.6-.6-1,0-1.9,0-2.9,0-.4,0-.6.2-.6.5,0,.8,0,1.6,0,2.4,0,.5-.2.7-.7.7-1.3,0-1.4,0-1.4-1.3,0-2.2,0-4.4,0-6.7,0-.9.1-1,1-1,.1,0,.3,0,.4,0,.4,0,.6.2.6.6,0,.8,0,1.6,0,2.4,0,.4.1.7.6.6ZM179.1,132.6c-1.7,0-3.4,0-5.1,0-.4,0-.5-.2-.5-.6,0-1.3,0-2.6,0-3.8,0-1.3,0-2.5,0-3.8,0-.4.1-.7.6-.7.5,0,.7.3.7.7,0,2,0,4,0,6.1,0,.9,0,1,.9,1,1.1,0,2.2,0,3.3,0,.4,0,.7,0,.7.5,0,.4-.2.7-.6.7ZM181.6,112.7s0,0,0,0c0,.8,0,1.6,0,2.4-.1,2-1.2,3.1-3.1,3.5-1.7.3-3.4-.3-4.3-1.6-.4-.7-.6-1.4-.6-2.2-.1-1.5,0-3,0-4.4,0-.5.2-.7.7-.7,1.4,0,1.4,0,1.4,1.4,0,1.2,0,2.3,0,3.5,0,.3,0,.6.1.9.2,1,.9,1.5,1.9,1.5,1,0,1.6-.5,1.9-1.5.1-.6.1-1.1,0-1.7,0-1.1,0-2.2,0-3.4,0-.5.2-.7.7-.7,1.4,0,1.4,0,1.4,1.3,0,.6,0,1.1,0,1.7ZM179.8,98.3c-2,1.2-4.1,1.6-6.4,1.6-2.4,0-4.8-.4-6.9-1.8-2.7-1.8-4.1-4.4-4.2-7.6-.2-3.4,0-6.8,0-10.2,0-1,0-2,0-3,0-.5.2-.6.6-.6,2.1,0,4.2,0,6.2,0,.5,0,.7.2.7.7,0,3.8,0,7.5,0,11.3,0,1,0,2,.4,2.9.5,1.4,1.5,2.1,3.1,2.1,1.6,0,2.6-.7,3.1-2.1.4-1.2.4-2.4.4-3.6,0-3.5,0-6.9,0-10.4,0-.8,0-.9.9-.9,2,0,4,0,6.1,0,.5,0,.7.2.7.7,0,2.2,0,4.4,0,6.6h0c0,2.2,0,4.3,0,6.5-.2,3.4-1.6,6.1-4.6,7.8ZM191,118.6c-.7.2-1.1-.3-1.3-1-.3-.8-.4-.9-1.3-.9-.8,0-1.6,0-2.4,0-.6,0-.9.2-1.1.7,0,0,0,0,0,.1-.4,1-.9,1.3-2,1.1-.5-.1-.4-.4-.3-.8.7-1.5,1.3-3,2-4.4.4-.9.8-1.8,1.2-2.7.3-.7.7-1,1.4-1,.7,0,1.2.3,1.5,1,1,2.3,2.1,4.7,3.1,7,.4.9.3,1-.8,1ZM210,88.6c0,.1,0,.3,0,.4v1.5c-.2,0-.2.1-.1.2l-.2,1.4c0,0,0,.1,0,.2-.7,2.8-2.2,4.9-4.8,6.2-2.1,1.1-4.3,1.4-6.6,1.3-1.4,0-2.7-.3-4-.8-3.3-1.1-5.3-3.4-6.1-6.7-.4-1.4-.4-2.9-.4-4.4,0-3.6,0-7.1,0-10.7,0-.8,0-.9.9-.9,2,0,3.9,0,5.9,0,.9,0,1,0,1,1,0,4.2,0,8.3,0,12.5,0,1.1.2,2.2,1.2,2.9,2,1.4,4.5.5,5.2-1.2.1-.3.2-.7.2-1.1,0-4.5,0-9.1,0-13.6.2-.1.4-.1.6-.1,2.2-.1,4.3-.2,6.5-.4.5,0,.7.1.7.6,0,.6,0,1.3,0,1.9,0,3.1,0,6.3,0,9.4Z"/>
    <path class="st0" d="M187.5,112.4c-.2-.3-.4-.3-.6,0-.3.5-.5,1-.6,1.5-.3,1-.3,1.1.8,1.1.3,0,.6,0,1-.1.2,0,.4-.2.3-.4-.2-.8-.4-1.5-.9-2.2Z"/>
  </g>
  <g>
    <path class="st0" d="M62.5,194.3v-23.1h10c1.7,0,3.2.3,4.5,1,1.3.7,2.3,1.6,3,2.9s1.1,2.7,1.1,4.3-.4,3.1-1.1,4.3c-.7,1.2-1.8,2.1-3.1,2.8-1.3.7-2.9,1-4.6,1h-6v-4.9h4.7c.7,0,1.4-.1,1.9-.4.5-.3.9-.6,1.2-1.1.3-.5.4-1.1.4-1.7s-.1-1.2-.4-1.7c-.3-.5-.7-.8-1.2-1.1-.5-.3-1.2-.4-1.9-.4h-2.2v18.1h-6.3Z"/>
    <path class="st0" d="M89.7,171.2v23.1h-6.2v-23.1h6.2Z"/>
    <path class="st0" d="M97.6,194.5c-1.1,0-2.1-.2-2.9-.5s-1.5-.9-2-1.7c-.5-.7-.7-1.7-.7-2.8s.2-1.8.5-2.4.8-1.2,1.4-1.7c.6-.4,1.3-.8,2-1,.8-.2,1.6-.4,2.5-.4,1,0,1.8-.2,2.3-.3s1-.3,1.3-.5c.3-.2.4-.5.4-.8h0c0-.5-.2-.8-.5-1.1-.3-.2-.8-.4-1.3-.4s-1.1.1-1.5.4-.6.7-.7,1.2h-5.7c0-1.1.4-2,1-2.9.6-.9,1.5-1.6,2.6-2.1,1.2-.5,2.6-.8,4.3-.8s2.4.1,3.3.4,1.8.7,2.5,1.2c.7.5,1.2,1.1,1.6,1.8.4.7.5,1.4.5,2.2v11.9h-5.8v-2.4h-.1c-.3.6-.8,1.2-1.3,1.6-.5.4-1.1.7-1.7.9s-1.3.3-2.1.3ZM99.7,190.6c.5,0,.9,0,1.3-.3.4-.2.8-.5,1-.8.3-.4.4-.8.4-1.3v-1.4c-.2,0-.3.1-.5.2-.2,0-.4.1-.6.2-.2,0-.4.1-.7.1s-.5,0-.7.1c-.5,0-.9.2-1.2.4-.3.2-.5.4-.7.6-.1.2-.2.5-.2.8,0,.5.2.9.5,1.1.3.3.8.4,1.3.4Z"/>
    <path class="st0" d="M121.9,176.9v4.5h-11.4v-4.5h11.4ZM112.7,172.8h6.2v15.9c0,.2,0,.4.1.6,0,.2.2.3.4.4.2,0,.4.1.7.1s.4,0,.7,0c.3,0,.4,0,.6-.1l.9,4.4c-.3,0-.7.2-1.2.3-.5.1-1.1.2-1.8.2-1.4,0-2.6,0-3.6-.4-1-.4-1.7-1-2.2-1.8-.5-.8-.7-1.8-.7-3v-16.5Z"/>
    <path class="st0" d="M129.3,194.5c-1.1,0-2.1-.2-2.9-.5s-1.5-.9-2-1.7c-.5-.7-.7-1.7-.7-2.8s.2-1.8.5-2.4.8-1.2,1.4-1.7c.6-.4,1.3-.8,2-1,.8-.2,1.6-.4,2.5-.4,1,0,1.8-.2,2.3-.3s1-.3,1.3-.5c.3-.2.4-.5.4-.8h0c0-.5-.2-.8-.5-1.1-.3-.2-.8-.4-1.3-.4s-1.1.1-1.5.4-.6.7-.7,1.2h-5.7c0-1.1.4-2,1-2.9.6-.9,1.5-1.6,2.6-2.1,1.2-.5,2.6-.8,4.3-.8s2.4.1,3.3.4,1.8.7,2.5,1.2c.7.5,1.2,1.1,1.6,1.8.4.7.5,1.4.5,2.2v11.9h-5.8v-2.4h-.1c-.3.6-.8,1.2-1.3,1.6-.5.4-1.1.7-1.7.9s-1.3.3-2.1.3ZM131.3,190.6c.5,0,.9,0,1.3-.3.4-.2.8-.5,1-.8.3-.4.4-.8.4-1.3v-1.4c-.2,0-.3.1-.5.2-.2,0-.4.1-.6.2-.2,0-.4.1-.7.1s-.5,0-.7.1c-.5,0-.9.2-1.2.4-.3.2-.5.4-.7.6-.1.2-.2.5-.2.8,0,.5.2.9.5,1.1.3.3.8.4,1.3.4Z"/>
    <path class="st0" d="M153.6,176.9v4.5h-11.6v-4.5h11.6ZM144.3,194.3v-17.8c0-1.4.3-2.6.8-3.6.5-.9,1.2-1.6,2.2-2.1.9-.5,2-.7,3.3-.7s1.6,0,2.3.2c.7.1,1.3.2,1.7.3l-.9,4.5c-.2,0-.5-.1-.8-.2-.3,0-.6,0-.8,0-.6,0-1,.1-1.2.4-.2.2-.3.6-.3,1v18.1h-6.2Z"/>
    <path class="st0" d="M163.9,194.6c-1.9,0-3.5-.4-4.8-1.1-1.3-.7-2.4-1.8-3.1-3.1s-1.1-2.9-1.1-4.7.4-3.3,1.1-4.7c.7-1.3,1.7-2.4,3.1-3.1,1.3-.7,3-1.1,4.8-1.1s3.5.4,4.8,1.1,2.4,1.8,3.1,3.1c.7,1.3,1.1,2.9,1.1,4.7s-.4,3.3-1.1,4.7c-.7,1.3-1.7,2.4-3.1,3.1-1.3.7-3,1.1-4.8,1.1ZM163.9,190c.5,0,1-.2,1.4-.5.4-.4.7-.9.9-1.5s.3-1.4.3-2.3-.1-1.7-.3-2.3c-.2-.7-.5-1.2-.9-1.5-.4-.4-.8-.5-1.4-.5s-1,.2-1.4.5c-.4.4-.7.9-.9,1.5-.2.7-.3,1.4-.3,2.3s.1,1.7.3,2.3.5,1.2.9,1.5c.4.4.9.5,1.4.5Z"/>
    <path class="st0" d="M175.4,194.3v-17.3h6.1v3.3h.2c.3-1.2.8-2.1,1.5-2.7.7-.6,1.5-.8,2.4-.8s.5,0,.8,0,.5,0,.8.2v5.3c-.3-.1-.7-.2-1.1-.2s-.8,0-1.2,0c-.6,0-1.2.1-1.6.4-.5.3-.9.7-1.1,1.2s-.4,1.1-.4,1.7v9h-6.2Z"/>
    <path class="st0" d="M189.1,194.3v-17.3h5.9v3.3h.2c.4-1.1,1-1.9,1.9-2.6.9-.6,1.9-.9,3.1-.9s2.3.3,3.2,1c.9.6,1.4,1.5,1.6,2.6h.2c.3-1.1.9-1.9,1.9-2.6,1-.6,2.1-1,3.4-1s3,.5,4,1.6c1,1.1,1.6,2.5,1.6,4.3v11.7h-6.2v-10.1c0-.8-.2-1.4-.6-1.8-.4-.4-.9-.6-1.5-.6s-1.1.2-1.5.6c-.4.4-.6,1-.6,1.8v10.1h-6v-10.1c0-.8-.2-1.4-.6-1.8-.4-.4-.9-.6-1.5-.6s-.8,0-1.1.3c-.3.2-.5.5-.7.8-.2.4-.3.8-.3,1.3v10.1h-6.2Z"/>
    <path class="st0" d="M223.9,194.5c-1.1,0-2.1-.2-2.9-.5s-1.5-.9-2-1.7c-.5-.7-.7-1.7-.7-2.8s.2-1.8.5-2.4.8-1.2,1.4-1.7c.6-.4,1.3-.8,2-1,.8-.2,1.6-.4,2.5-.4,1,0,1.8-.2,2.3-.3s1-.3,1.3-.5c.3-.2.4-.5.4-.8h0c0-.5-.2-.8-.5-1.1-.3-.2-.8-.4-1.3-.4s-1.1.1-1.5.4-.6.7-.7,1.2h-5.7c0-1.1.4-2,1-2.9.6-.9,1.5-1.6,2.6-2.1,1.2-.5,2.6-.8,4.3-.8s2.4.1,3.3.4,1.8.7,2.5,1.2c.7.5,1.2,1.1,1.6,1.8.4.7.5,1.4.5,2.2v11.9h-5.8v-2.4h-.1c-.3.6-.8,1.2-1.3,1.6-.5.4-1.1.7-1.7.9s-1.3.3-2.1.3ZM225.9,190.6c.5,0,.9,0,1.3-.3.4-.2.8-.5,1-.8.3-.4.4-.8.4-1.3v-1.4c-.2,0-.3.1-.5.2-.2,0-.4.1-.6.2-.2,0-.4.1-.7.1s-.5,0-.7.1c-.5,0-.9.2-1.2.4-.3.2-.5.4-.7.6-.1.2-.2.5-.2.8,0,.5.2.9.5,1.1.3.3.8.4,1.3.4Z"/>
    <path class="st0" d="M90.7,225.2v-23.1h16.7v5.1h-10.4v4h9.5v5.1h-9.5v4h10.3v5.1h-16.6Z"/>
    <path class="st0" d="M126.4,213.5h-5.7c0-.4-.2-.7-.4-.9-.2-.3-.5-.5-.8-.6-.3-.1-.7-.2-1.1-.2s-1,0-1.4.3c-.4.2-.6.5-.6.8,0,.3.1.5.3.7.2.2.7.4,1.3.5l3.5.6c1.8.3,3.1.9,4,1.6.9.8,1.3,1.8,1.3,3.1,0,1.2-.4,2.3-1.1,3.2-.7.9-1.7,1.6-3,2.1-1.3.5-2.7.7-4.3.7-2.6,0-4.7-.5-6.2-1.6-1.5-1.1-2.3-2.5-2.5-4.3h6.2c0,.5.4,1,.8,1.3.5.3,1,.4,1.8.4s1,0,1.4-.3.6-.5.6-.8c0-.3-.2-.6-.5-.8-.3-.2-.8-.4-1.5-.5l-3.1-.5c-1.8-.3-3.1-.9-4-1.8-.9-.9-1.3-2-1.3-3.3,0-1.2.3-2.2,1-3.1.6-.8,1.6-1.5,2.8-1.9,1.2-.4,2.6-.7,4.3-.7,2.5,0,4.5.5,5.9,1.6,1.4,1,2.2,2.5,2.3,4.3Z"/>
    <path class="st0" d="M137.6,225.5c-1.9,0-3.5-.4-4.8-1.1-1.3-.7-2.4-1.8-3.1-3.1s-1.1-2.9-1.1-4.7.4-3.3,1.1-4.7c.7-1.3,1.7-2.4,3.1-3.1,1.3-.7,3-1.1,4.8-1.1s3.2.3,4.4.9c1.2.6,2.2,1.5,2.9,2.6s1,2.4,1,3.9h-5.8c0-.9-.3-1.6-.8-2.1s-1-.7-1.7-.7-1,.2-1.4.5c-.4.3-.7.8-.9,1.4-.2.6-.3,1.4-.3,2.4s.1,1.7.3,2.4c.2.6.5,1.1.9,1.4.4.3.9.5,1.4.5s.9-.1,1.2-.3.6-.5.9-.9c.2-.4.4-.9.4-1.5h5.8c0,1.5-.4,2.9-1,4-.7,1.1-1.6,2-2.9,2.6-1.2.6-2.7.9-4.4.9Z"/>
    <path class="st0" d="M159.8,217.6v-9.8h6.2v17.3h-5.9v-3.3h-.2c-.4,1.1-1,2-2,2.6-.9.6-2.1.9-3.4.9s-2.3-.3-3.2-.8c-.9-.6-1.6-1.3-2.1-2.3s-.8-2.1-.8-3.4v-11.1h6.2v9.8c0,.9.2,1.5.7,2,.4.5,1,.7,1.8.7s1-.1,1.3-.3c.4-.2.7-.5.9-.9.2-.4.3-.9.3-1.5Z"/>
    <path class="st0" d="M175.5,225.4c-1.2,0-2.4-.3-3.4-1-1-.6-1.9-1.6-2.5-2.9s-.9-3-.9-5,.3-3.8,1-5.1c.7-1.3,1.5-2.3,2.5-2.9,1-.6,2.1-.9,3.3-.9s1.6.1,2.3.4c.6.3,1.2.7,1.6,1.2.4.5.8,1,1,1.6h0v-8.8h6.2v23.1h-6.2v-2.8h-.1c-.2.6-.6,1.1-1,1.6s-1,.8-1.6,1.1c-.6.3-1.4.4-2.2.4ZM177.8,220.6c.6,0,1.1-.2,1.5-.5.4-.3.7-.8.9-1.4.2-.6.3-1.3.3-2.2s-.1-1.6-.3-2.2c-.2-.6-.5-1.1-.9-1.4-.4-.3-.9-.5-1.5-.5s-1.1.2-1.5.5c-.4.3-.7.8-.9,1.4-.2.6-.3,1.3-.3,2.2s.1,1.6.3,2.2c.2.6.5,1.1.9,1.4.4.3.9.5,1.5.5Z"/>
    <path class="st0" d="M198.1,225.5c-1.9,0-3.5-.4-4.8-1.1-1.3-.7-2.4-1.8-3.1-3.1s-1.1-2.9-1.1-4.7.4-3.3,1.1-4.7c.7-1.3,1.7-2.4,3.1-3.1,1.3-.7,3-1.1,4.8-1.1s3.5.4,4.8,1.1,2.4,1.8,3.1,3.1c.7,1.3,1.1,2.9,1.1,4.7s-.4,3.3-1.1,4.7c-.7,1.3-1.7,2.4-3.1,3.1-1.3.7-3,1.1-4.8,1.1ZM198.1,220.9c.5,0,1-.2,1.4-.5.4-.4.7-.9.9-1.5s.3-1.4.3-2.3-.1-1.7-.3-2.3c-.2-.7-.5-1.2-.9-1.5-.4-.4-.8-.5-1.4-.5s-1,.2-1.4.5c-.4.4-.7.9-.9,1.5-.2.7-.3,1.4-.3,2.3s.1,1.7.3,2.3.5,1.2.9,1.5c.4.4.9.5,1.4.5Z"/>
    <path class="st0" d="M87.7,241.6h-6.4c0-.5-.2-1-.4-1.4-.2-.4-.5-.8-.8-1.1-.3-.3-.7-.6-1.2-.7-.5-.2-1-.3-1.6-.3-1.1,0-1.9.3-2.7.8-.7.5-1.3,1.2-1.6,2.2-.4,1-.6,2.1-.6,3.4s.2,2.6.6,3.6c.4,1,.9,1.7,1.7,2.1.7.5,1.6.7,2.6.7s1.1,0,1.6-.2c.5-.1.9-.4,1.2-.6.3-.3.6-.6.8-1,.2-.4.4-.8.4-1.3h6.4c0,1-.3,2-.8,3-.5,1-1.1,1.9-2,2.8-.9.9-1.9,1.5-3.2,2.1s-2.8.8-4.5.8-4-.5-5.7-1.4-3-2.3-4-4c-1-1.8-1.5-3.9-1.5-6.5s.5-4.7,1.5-6.5c1-1.8,2.3-3.1,4-4,1.7-.9,3.6-1.4,5.6-1.4s2.8.2,4,.6c1.2.4,2.3,1,3.2,1.7.9.8,1.7,1.7,2.2,2.8s.9,2.4,1,3.8Z"/>
    <path class="st0" d="M96.9,246.3v9.8h-6.2v-23.1h6v9.1h.2c.4-1.1,1-2,2-2.6.9-.6,2-.9,3.3-.9s2.3.3,3.2.8c.9.6,1.6,1.3,2.1,2.3.5,1,.7,2.1.7,3.4v11.1h-6.2v-9.8c0-.9-.2-1.5-.6-2-.4-.5-1-.7-1.8-.7s-.9.1-1.3.3c-.4.2-.7.5-.9.9-.2.4-.3.9-.3,1.5Z"/>
    <path class="st0" d="M111.2,256.1v-17.3h6.2v17.3h-6.2ZM114.3,236.9c-.9,0-1.6-.3-2.2-.8-.6-.6-.9-1.2-.9-2s.3-1.5.9-2c.6-.6,1.3-.8,2.2-.8s1.6.3,2.2.8c.6.6.9,1.2.9,2s-.3,1.5-.9,2c-.6.6-1.3.8-2.2.8Z"/>
    <path class="st0" d="M126.8,246.3v9.8h-6.2v-23.1h6v9.1h.2c.4-1.1,1-2,2-2.6.9-.6,2-.9,3.3-.9s2.3.3,3.2.8c.9.6,1.6,1.3,2.1,2.3.5,1,.7,2.1.7,3.4v11.1h-6.2v-9.8c0-.9-.2-1.5-.6-2-.4-.5-1-.7-1.8-.7s-.9.1-1.3.3c-.4.2-.7.5-.9.9-.2.4-.3.9-.3,1.5Z"/>
    <path class="st0" d="M152.4,248.5v-9.8h6.2v17.3h-5.9v-3.3h-.2c-.4,1.1-1,2-2,2.6-.9.6-2.1.9-3.4.9s-2.3-.3-3.2-.8c-.9-.6-1.6-1.3-2.1-2.3s-.8-2.1-.8-3.4v-11.1h6.2v9.8c0,.9.2,1.5.7,2,.4.5,1,.7,1.8.7s1-.1,1.3-.3c.4-.2.7-.5.9-.9.2-.4.3-.9.3-1.5Z"/>
    <path class="st0" d="M166.6,256.3c-1.1,0-2.1-.2-2.9-.5s-1.5-.9-2-1.7c-.5-.7-.7-1.7-.7-2.8s.2-1.8.5-2.4.8-1.2,1.4-1.7c.6-.4,1.3-.8,2-1,.8-.2,1.6-.4,2.5-.4,1,0,1.8-.2,2.3-.3s1-.3,1.3-.5c.3-.2.4-.5.4-.8h0c0-.5-.2-.8-.5-1.1-.3-.2-.8-.4-1.3-.4s-1.1.1-1.5.4-.6.7-.7,1.2h-5.7c0-1.1.4-2,1-2.9.6-.9,1.5-1.6,2.6-2.1,1.2-.5,2.6-.8,4.3-.8s2.4.1,3.3.4,1.8.7,2.5,1.2c.7.5,1.2,1.1,1.6,1.8.4.7.5,1.4.5,2.2v11.9h-5.8v-2.4h-.1c-.3.6-.8,1.2-1.3,1.6-.5.4-1.1.7-1.7.9s-1.3.3-2.1.3ZM168.6,252.4c.5,0,.9,0,1.3-.3.4-.2.8-.5,1-.8.3-.4.4-.8.4-1.3v-1.4c-.2,0-.3.1-.5.2-.2,0-.4.1-.6.2-.2,0-.4.1-.7.1s-.5,0-.7.1c-.5,0-.9.2-1.2.4-.3.2-.5.4-.7.6-.1.2-.2.5-.2.8,0,.5.2.9.5,1.1.3.3.8.4,1.3.4Z"/>
    <path class="st0" d="M186.8,246.3v9.8h-6.2v-23.1h6v9.1h.2c.4-1.1,1-2,2-2.6.9-.6,2-.9,3.3-.9s2.3.3,3.2.8c.9.6,1.6,1.3,2.1,2.3.5,1,.7,2.1.7,3.4v11.1h-6.2v-9.8c0-.9-.2-1.5-.6-2-.4-.5-1-.7-1.8-.7s-.9.1-1.3.3c-.4.2-.7.5-.9.9-.2.4-.3.9-.3,1.5Z"/>
    <path class="st0" d="M212.3,248.5v-9.8h6.2v17.3h-5.9v-3.3h-.2c-.4,1.1-1,2-2,2.6-.9.6-2.1.9-3.4.9s-2.3-.3-3.2-.8c-.9-.6-1.6-1.3-2.1-2.3s-.8-2.1-.8-3.4v-11.1h6.2v9.8c0,.9.2,1.5.7,2,.4.5,1,.7,1.8.7s1-.1,1.3-.3c.4-.2.7-.5.9-.9.2-.4.3-.9.3-1.5Z"/>
    <path class="st0" d="M226.6,256.3c-1.1,0-2.1-.2-2.9-.5s-1.5-.9-2-1.7c-.5-.7-.7-1.7-.7-2.8s.2-1.8.5-2.4.8-1.2,1.4-1.7c.6-.4,1.3-.8,2-1,.8-.2,1.6-.4,2.5-.4,1,0,1.8-.2,2.3-.3s1-.3,1.3-.5c.3-.2.4-.5.4-.8h0c0-.5-.2-.8-.5-1.1-.3-.2-.8-.4-1.3-.4s-1.1.1-1.5.4-.6.7-.7,1.2h-5.7c0-1.1.4-2,1-2.9.6-.9,1.5-1.6,2.6-2.1,1.2-.5,2.6-.8,4.3-.8s2.4.1,3.3.4,1.8.7,2.5,1.2c.7.5,1.2,1.1,1.6,1.8.4.7.5,1.4.5,2.2v11.9h-5.8v-2.4h-.1c-.3.6-.8,1.2-1.3,1.6-.5.4-1.1.7-1.7.9s-1.3.3-2.1.3ZM228.6,252.4c.5,0,.9,0,1.3-.3.4-.2.8-.5,1-.8.3-.4.4-.8.4-1.3v-1.4c-.2,0-.3.1-.5.2-.2,0-.4.1-.6.2-.2,0-.4.1-.7.1s-.5,0-.7.1c-.5,0-.9.2-1.2.4-.3.2-.5.4-.7.6-.1.2-.2.5-.2.8,0,.5.2.9.5,1.1.3.3.8.4,1.3.4Z"/>
  </g>
</svg>